<?xml version="1.0" encoding="us-ascii" standalone="no"?><svg xmlns="http://www.w3.org/2000/svg" xmlns:xlink="http://www.w3.org/1999/xlink" contentStyleType="text/css" height="537px" preserveAspectRatio="none" style="width:776px;height:537px;background:#FFFFFF;" version="1.1" viewBox="0 0 776 537" width="776px" zoomAndPan="magnify"><defs/><g><ellipse cx="455.5" cy="20" fill="#222222" rx="10" ry="10" style="stroke:#222222;stroke-width:1.0;"/><rect fill="#F1F1F1" height="35.7031" rx="12.5" ry="12.5" style="stroke:#181818;stroke-width:0.5;" width="259" x="326" y="112.3945"/><text fill="#000000" font-family="sans-serif" font-size="12" lengthAdjust="spacing" textLength="239" x="336" y="134.9102">[6-10-2] &#12496;&#12483;&#12501;&#12449;&#12363;&#12425;&#12522;&#12463;&#12456;&#12473;&#12488;&#12434;&#21462;&#12426;&#20986;&#12377;</text><polygon fill="#F1F1F1" points="308.5,168.0977,602.5,168.0977,614.5,180.0977,602.5,192.0977,308.5,192.0977,296.5,180.0977,308.5,168.0977" style="stroke:#181818;stroke-width:0.5;"/><text fill="#000000" font-family="sans-serif" font-size="11" lengthAdjust="spacing" textLength="294" x="308.5" y="184.373">[6-10-3] &#21462;&#12426;&#20986;&#12375;&#12383;&#12522;&#12463;&#12456;&#12473;&#12488;&#12398;&#12479;&#12452;&#12511;&#12531;&#12464;&#12364;&#12513;&#12452;&#12531;&#12363;&#21028;&#23450;</text><text fill="#000000" font-family="sans-serif" font-size="11" lengthAdjust="spacing" textLength="17" x="279.5" y="177.1758">Yes</text><text fill="#000000" font-family="sans-serif" font-size="11" lengthAdjust="spacing" textLength="14" x="614.5" y="177.1758">No</text><polygon fill="#F1F1F1" points="216.5,202.0977,356.5,202.0977,368.5,214.0977,356.5,226.0977,216.5,226.0977,204.5,214.0977,216.5,202.0977" style="stroke:#181818;stroke-width:0.5;"/><text fill="#000000" font-family="sans-serif" font-size="11" lengthAdjust="spacing" textLength="140" x="216.5" y="218.373">[6-10-4] &#12473;&#12486;&#12540;&#12472;&#12364;&#31354;&#12363;&#21028;&#23450;</text><text fill="#000000" font-family="sans-serif" font-size="11" lengthAdjust="spacing" textLength="17" x="187.5" y="211.1758">Yes</text><text fill="#000000" font-family="sans-serif" font-size="11" lengthAdjust="spacing" textLength="14" x="368.5" y="211.1758">No</text><rect fill="#F1F1F1" height="35.7031" rx="12.5" ry="12.5" style="stroke:#181818;stroke-width:0.5;" width="223" x="68.5" y="236.0977"/><text fill="#000000" font-family="sans-serif" font-size="12" lengthAdjust="spacing" textLength="203" x="78.5" y="258.6133">[6-10-5] &#12522;&#12463;&#12456;&#12473;&#12488;&#12434;&#12473;&#12486;&#12540;&#12472;&#12395;&#36861;&#21152;</text><rect fill="#F1F1F1" height="35.7031" rx="12.5" ry="12.5" style="stroke:#181818;stroke-width:0.5;" width="163" x="311.5" y="236.0977"/><text fill="#000000" font-family="sans-serif" font-size="12" lengthAdjust="spacing" textLength="143" x="321.5" y="258.6133">[6-10-6] &#12522;&#12463;&#12456;&#12473;&#12488;&#12434;&#30772;&#26820;</text><polygon fill="#F1F1F1" points="286.5,277.8008,298.5,289.8008,286.5,301.8008,274.5,289.8008,286.5,277.8008" style="stroke:#181818;stroke-width:0.5;"/><rect fill="#F1F1F1" height="35.7031" rx="12.5" ry="12.5" style="stroke:#181818;stroke-width:0.5;" width="223" x="513" y="202.0977"/><text fill="#000000" font-family="sans-serif" font-size="12" lengthAdjust="spacing" textLength="203" x="523" y="224.6133">[6-10-7] &#12522;&#12463;&#12456;&#12473;&#12488;&#12434;&#12473;&#12486;&#12540;&#12472;&#12395;&#36861;&#21152;</text><polygon fill="#F1F1F1" points="455.5,307.8008,467.5,319.8008,455.5,331.8008,443.5,319.8008,455.5,307.8008" style="stroke:#181818;stroke-width:0.5;"/><path d="M45,398.7734 L45,459.8086 A0,0 0 0 0 45,459.8086 L300,459.8086 A0,0 0 0 0 300,459.8086 L300,433.291 L320,429.291 L300,425.291 L300,408.7734 L290,398.7734 L45,398.7734 A0,0 0 0 0 45,398.7734 " fill="#FEFFDD" style="stroke:#181818;stroke-width:0.5;"/><path d="M290,398.7734 L290,408.7734 L300,408.7734 L290,398.7734 " fill="#FEFFDD" style="stroke:#181818;stroke-width:0.5;"/><text fill="#000000" font-family="sans-serif" font-size="13" lengthAdjust="spacing" textLength="234" x="51" y="417.332">&#35480;&#30330;&#12375;&#12383;&#12522;&#12463;&#12456;&#12473;&#12488;&#12398;&#12467;&#12531;&#12488;&#12525;&#12540;&#12521;&#12540;&#12399;</text><text fill="#000000" font-family="sans-serif" font-size="13" lengthAdjust="spacing" textLength="208" x="51" y="434.3438">&#36215;&#22240;&#12392;&#12394;&#12387;&#12383;&#12450;&#12463;&#12471;&#12519;&#12531;&#12398;&#12458;&#12540;&#12490;&#12540;</text><text fill="#000000" font-family="sans-serif" font-size="13" lengthAdjust="spacing" textLength="78" x="51" y="451.3555">&#12395;&#12394;&#12426;&#12414;&#12377;&#12290;</text><rect fill="#F1F1F1" height="35.7031" rx="12.5" ry="12.5" style="stroke:#181818;stroke-width:0.5;" width="271" x="320" y="411.4395"/><text fill="#000000" font-family="sans-serif" font-size="12" lengthAdjust="spacing" textLength="251" x="330" y="433.9551">[6-10-9] &#35480;&#30330;&#12375;&#12383;&#12522;&#12463;&#12456;&#12473;&#12488;&#12434;&#12496;&#12483;&#12501;&#12449;&#12395;&#36861;&#21152;</text><polygon fill="#F1F1F1" points="330.5,351.8008,580.5,351.8008,592.5,363.8008,580.5,375.8008,330.5,375.8008,318.5,363.8008,330.5,351.8008" style="stroke:#181818;stroke-width:0.5;"/><text fill="#000000" font-family="sans-serif" font-size="11" lengthAdjust="spacing" textLength="17" x="459.5" y="387.2734">Yes</text><text fill="#000000" font-family="sans-serif" font-size="11" lengthAdjust="spacing" textLength="250" x="330.5" y="368.0762">[6-10-8] &#12522;&#12463;&#12456;&#12473;&#12488;&#12364;&#26032;&#12383;&#12394;&#35480;&#30330;&#12434;&#30330;&#29983;&#12373;&#12379;&#12383;&#12363;&#65311;</text><text fill="#000000" font-family="sans-serif" font-size="11" lengthAdjust="spacing" textLength="14" x="592.5" y="360.8789">No</text><polygon fill="#F1F1F1" points="455.5,479.8086,467.5,491.8086,455.5,503.8086,443.5,491.8086,455.5,479.8086" style="stroke:#181818;stroke-width:0.5;"/><polygon fill="#F1F1F1" points="347,50,564,50,576,62,564,74,347,74,335,62,347,50" style="stroke:#181818;stroke-width:0.5;"/><text fill="#000000" font-family="sans-serif" font-size="11" lengthAdjust="spacing" textLength="17" x="459.5" y="85.4727">Yes</text><text fill="#000000" font-family="sans-serif" font-size="11" lengthAdjust="spacing" textLength="217" x="347" y="66.2754">[6-10-1] &#12496;&#12483;&#12501;&#12449;&#12363;&#12425;&#35442;&#24403;&#12398;&#36890;&#24120;&#12399;&#12354;&#12427;&#12363;&#65311;</text><text fill="#000000" font-family="sans-serif" font-size="11" lengthAdjust="spacing" textLength="14" x="321" y="59.0781">No</text><ellipse cx="24" cy="109" fill="none" rx="11" ry="11" style="stroke:#222222;stroke-width:1.0;"/><ellipse cx="24" cy="109" fill="#222222" rx="6" ry="6" style="stroke:#222222;stroke-width:1.0;"/><line style="stroke:#181818;stroke-width:1.0;" x1="204.5" x2="180" y1="214.0977" y2="214.0977"/><line style="stroke:#181818;stroke-width:1.0;" x1="180" x2="180" y1="214.0977" y2="236.0977"/><polygon fill="#181818" points="176,226.0977,180,236.0977,184,226.0977,180,230.0977" style="stroke:#181818;stroke-width:1.0;"/><line style="stroke:#181818;stroke-width:1.0;" x1="368.5" x2="393" y1="214.0977" y2="214.0977"/><line style="stroke:#181818;stroke-width:1.0;" x1="393" x2="393" y1="214.0977" y2="236.0977"/><polygon fill="#181818" points="389,226.0977,393,236.0977,397,226.0977,393,230.0977" style="stroke:#181818;stroke-width:1.0;"/><line style="stroke:#181818;stroke-width:1.0;" x1="180" x2="180" y1="271.8008" y2="289.8008"/><line style="stroke:#181818;stroke-width:1.0;" x1="180" x2="274.5" y1="289.8008" y2="289.8008"/><polygon fill="#181818" points="264.5,285.8008,274.5,289.8008,264.5,293.8008,268.5,289.8008" style="stroke:#181818;stroke-width:1.0;"/><line style="stroke:#181818;stroke-width:1.0;" x1="393" x2="393" y1="271.8008" y2="289.8008"/><line style="stroke:#181818;stroke-width:1.0;" x1="393" x2="298.5" y1="289.8008" y2="289.8008"/><polygon fill="#181818" points="308.5,285.8008,298.5,289.8008,308.5,293.8008,304.5,289.8008" style="stroke:#181818;stroke-width:1.0;"/><line style="stroke:#181818;stroke-width:1.0;" x1="296.5" x2="286.5" y1="180.0977" y2="180.0977"/><line style="stroke:#181818;stroke-width:1.0;" x1="286.5" x2="286.5" y1="180.0977" y2="202.0977"/><polygon fill="#181818" points="282.5,192.0977,286.5,202.0977,290.5,192.0977,286.5,196.0977" style="stroke:#181818;stroke-width:1.0;"/><line style="stroke:#181818;stroke-width:1.0;" x1="614.5" x2="624.5" y1="180.0977" y2="180.0977"/><line style="stroke:#181818;stroke-width:1.0;" x1="624.5" x2="624.5" y1="180.0977" y2="202.0977"/><polygon fill="#181818" points="620.5,192.0977,624.5,202.0977,628.5,192.0977,624.5,196.0977" style="stroke:#181818;stroke-width:1.0;"/><line style="stroke:#181818;stroke-width:1.0;" x1="286.5" x2="286.5" y1="301.8008" y2="319.8008"/><line style="stroke:#181818;stroke-width:1.0;" x1="286.5" x2="443.5" y1="319.8008" y2="319.8008"/><polygon fill="#181818" points="433.5,315.8008,443.5,319.8008,433.5,323.8008,437.5,319.8008" style="stroke:#181818;stroke-width:1.0;"/><line style="stroke:#181818;stroke-width:1.0;" x1="624.5" x2="624.5" y1="237.8008" y2="319.8008"/><line style="stroke:#181818;stroke-width:1.0;" x1="624.5" x2="467.5" y1="319.8008" y2="319.8008"/><polygon fill="#181818" points="477.5,315.8008,467.5,319.8008,477.5,323.8008,473.5,319.8008" style="stroke:#181818;stroke-width:1.0;"/><line style="stroke:#181818;stroke-width:1.0;" x1="455.5" x2="455.5" y1="148.0977" y2="168.0977"/><polygon fill="#181818" points="451.5,158.0977,455.5,168.0977,459.5,158.0977,455.5,162.0977" style="stroke:#181818;stroke-width:1.0;"/><line style="stroke:#181818;stroke-width:1.0;" x1="455.5" x2="455.5" y1="375.8008" y2="411.4395"/><polygon fill="#181818" points="451.5,401.4395,455.5,411.4395,459.5,401.4395,455.5,405.4395" style="stroke:#181818;stroke-width:1.0;"/><line style="stroke:#181818;stroke-width:1.0;" x1="592.5" x2="604.5" y1="363.8008" y2="363.8008"/><polygon fill="#181818" points="600.5,419.291,604.5,429.291,608.5,419.291,604.5,423.291" style="stroke:#181818;stroke-width:1.0;"/><line style="stroke:#181818;stroke-width:1.0;" x1="604.5" x2="604.5" y1="363.8008" y2="491.8086"/><line style="stroke:#181818;stroke-width:1.0;" x1="604.5" x2="467.5" y1="491.8086" y2="491.8086"/><polygon fill="#181818" points="477.5,487.8086,467.5,491.8086,477.5,495.8086,473.5,491.8086" style="stroke:#181818;stroke-width:1.0;"/><line style="stroke:#181818;stroke-width:1.0;" x1="455.5" x2="455.5" y1="447.1426" y2="479.8086"/><polygon fill="#181818" points="451.5,469.8086,455.5,479.8086,459.5,469.8086,455.5,473.8086" style="stroke:#181818;stroke-width:1.0;"/><line style="stroke:#181818;stroke-width:1.0;" x1="455.5" x2="455.5" y1="331.8008" y2="351.8008"/><polygon fill="#181818" points="451.5,341.8008,455.5,351.8008,459.5,341.8008,455.5,345.8008" style="stroke:#181818;stroke-width:1.0;"/><line style="stroke:#181818;stroke-width:1.0;" x1="455.5" x2="455.5" y1="74" y2="112.3945"/><polygon fill="#181818" points="451.5,102.3945,455.5,112.3945,459.5,102.3945,455.5,106.3945" style="stroke:#181818;stroke-width:1.0;"/><line style="stroke:#181818;stroke-width:1.0;" x1="455.5" x2="455.5" y1="503.8086" y2="513.8086"/><line style="stroke:#181818;stroke-width:1.0;" x1="455.5" x2="750" y1="513.8086" y2="513.8086"/><polygon fill="#181818" points="746,302.6152,750,292.6152,754,302.6152,750,298.6152" style="stroke:#181818;stroke-width:1.0;"/><line style="stroke:#181818;stroke-width:1.0;" x1="750" x2="750" y1="62" y2="513.8086"/><line style="stroke:#181818;stroke-width:1.0;" x1="750" x2="576" y1="62" y2="62"/><polygon fill="#181818" points="586,58,576,62,586,66,582,62" style="stroke:#181818;stroke-width:1.0;"/><line style="stroke:#181818;stroke-width:1.0;" x1="335" x2="24" y1="62" y2="62"/><line style="stroke:#181818;stroke-width:1.0;" x1="24" x2="24" y1="62" y2="98"/><polygon fill="#181818" points="20,88,24,98,28,88,24,92" style="stroke:#181818;stroke-width:1.0;"/><line style="stroke:#181818;stroke-width:1.0;" x1="455.5" x2="455.5" y1="30" y2="50"/><polygon fill="#181818" points="451.5,40,455.5,50,459.5,40,455.5,44" style="stroke:#181818;stroke-width:1.0;"/><!--SRC=[bPFBJW8n68NtynJT8GiIhtYBh-3U61Oc3f64W74cSKjRumM9uWKLN012L3224OrAK1_cf0okV0NROL0OKUCicad_VAVd_7_hcVdrqpo89TzY6V7u-Dx8W9s1LS4Um2_0Qytg3kYLs3Ytakk8xMcUFxGqmrnOCRNLfL1O9mFpVj_Ge6yeGC2Ju1my1PO7tGRRQfLknVC1QALzCcWLb85jo-fx8-ib8OCCpEc6LoDagYqpt4y6l6pRlGHx0jy4snUxHs1niL47JKzBEXJi-1W9aAxYCMZMJTCAs2jO4LoMQc0te0dmlBrJamUApQAePBp4ND8Zd_QwZnYL7fNKEdW3JAPAMANwp-1djZ6LpPsaL-cgzVeiuhbf6zJ3XcplRDGbu-ydO-NkceKrXuiiXeAQctVeyN-Pw4XzXP_upjD4y-X6DPgMM-KJArrNVj9rwr3kf41FxL9xuAxME9uc0yG1-mvC-kkv4ZrDYaHDdOJreEaqwJSXDVcQ6hByvzSgBY-fbLOxyFs3ECs1Nieee0KbqVjIR8coJSRbwc3IaW9O7FH5NaZ4M6SEjZtNADezbQlpVjIkOKQNFm00]--></g></svg>