<?xml version="1.0" encoding="UTF-8" standalone="no"?><svg xmlns="http://www.w3.org/2000/svg" xmlns:xlink="http://www.w3.org/1999/xlink" contentScriptType="application/ecmascript" contentStyleType="text/css" height="242px" preserveAspectRatio="none" style="width:761px;height:242px;" version="1.1" viewBox="0 0 761 242" width="761px" zoomAndPan="magnify"><defs><filter height="300%" id="f1l6e7mcho5s6z" width="300%" x="-1" y="-1"><feGaussianBlur result="blurOut" stdDeviation="2.0"/><feColorMatrix in="blurOut" result="blurOut2" type="matrix" values="0 0 0 0 0 0 0 0 0 0 0 0 0 0 0 0 0 0 .4 0"/><feOffset dx="4.0" dy="4.0" in="blurOut2" result="blurOut3"/><feBlend in="SourceGraphic" in2="blurOut3" mode="normal"/></filter></defs><g><!--MD5=[61f1dd046924d74bfbe807217175343b]
cluster ルール--><rect fill="#FFFFFF" filter="url(#f1l6e7mcho5s6z)" height="107" style="stroke: #000000; stroke-width: 1.5;" width="700" x="44" y="118"/><path d="M96,119 L96,129.3203 L86,139.3203 L44,139.3203 " fill="none" style="stroke: #000000; stroke-width: 1.5;"/><text fill="#000000" font-family="sans-serif" font-size="14" font-weight="bold" lengthAdjust="spacingAndGlyphs" textLength="42" x="47" y="133.6016">ルール</text><!--MD5=[0d482ad21d5c7c11aa976e45da5ecfe6]
entity core--><rect fill="#FEFECE" filter="url(#f1l6e7mcho5s6z)" height="38.3203" style="stroke: #000000; stroke-width: 1.5;" width="90" x="87" y="163"/><text fill="#000000" font-family="sans-serif" font-size="14" lengthAdjust="spacingAndGlyphs" textLength="70" x="97" y="187.6016">コアルール</text><!--MD5=[8274bfb416b6365278739ca5c48d26ea]
entity common--><rect fill="#FEFECE" filter="url(#f1l6e7mcho5s6z)" height="38.3203" style="stroke: #000000; stroke-width: 1.5;" width="90" x="240" y="163"/><text fill="#000000" font-family="sans-serif" font-size="14" lengthAdjust="spacingAndGlyphs" textLength="70" x="250" y="187.6016">共通ルール</text><!--MD5=[b174a75f10b3beafea3b5a240093e4f9]
entity format--><rect fill="#FEFECE" filter="url(#f1l6e7mcho5s6z)" height="38.3203" style="stroke: #000000; stroke-width: 1.5;" width="104" x="393" y="163"/><text fill="#000000" font-family="sans-serif" font-size="14" lengthAdjust="spacingAndGlyphs" textLength="84" x="403" y="187.6016">フォーマット</text><!--MD5=[4ce29d5cb3193d40f69bc8bb1641bb04]
entity regulation--><rect fill="#FEFECE" filter="url(#f1l6e7mcho5s6z)" height="38.3203" style="stroke: #000000; stroke-width: 1.5;" width="160" x="560" y="163"/><text fill="#000000" font-family="sans-serif" font-size="14" lengthAdjust="spacingAndGlyphs" textLength="140" x="570" y="187.6016">対戦レギュレーション</text><!--MD5=[9cf6758915b9a28286ac202270f71a36]
entity ルール指針--><rect fill="#FEFECE" filter="url(#f1l6e7mcho5s6z)" height="38.3203" style="stroke: #000000; stroke-width: 1.5;" width="90" x="7" y="7"/><text fill="#000000" font-family="sans-serif" font-size="14" lengthAdjust="spacingAndGlyphs" textLength="70" x="17" y="31.6016">ルール指針</text><!--MD5=[0a423c99ee0ef137b5d99b7451b8d5db]
reverse link core to common--><path d="M182.26,182 C200.88,182 221.86,182 239.98,182 " fill="none" id="core&lt;-common" style="stroke: #A80036; stroke-width: 1.0;"/><polygon fill="#A80036" points="177.08,182,186.08,186,182.08,182,186.08,178,177.08,182" style="stroke: #A80036; stroke-width: 1.0;"/><text fill="#000000" font-family="sans-serif" font-size="13" lengthAdjust="spacingAndGlyphs" textLength="26" x="195.5" y="174.5586">参照</text><!--MD5=[6b333616153c8e36995af3be2b2c2717]
reverse link common to format--><path d="M335.52,182 C353.83,182 374.54,182 392.97,182 " fill="none" id="common&lt;-format" style="stroke: #A80036; stroke-width: 1.0;"/><polygon fill="#A80036" points="330.42,182,339.42,186,335.42,182,339.42,178,330.42,182" style="stroke: #A80036; stroke-width: 1.0;"/><text fill="#000000" font-family="sans-serif" font-size="13" lengthAdjust="spacingAndGlyphs" textLength="26" x="348.5" y="174.5586">参照</text><!--MD5=[9e29b1bc8a65fccade3f1e1035d80255]
reverse link format to regulation--><path d="M502.04,182 C520.13,182 540.47,182 559.87,182 " fill="none" id="format&lt;-regulation" style="stroke: #A80036; stroke-width: 1.0;"/><polygon fill="#A80036" points="497,182,506,186,502,182,506,178,497,182" style="stroke: #A80036; stroke-width: 1.0;"/><text fill="#000000" font-family="sans-serif" font-size="13" lengthAdjust="spacingAndGlyphs" textLength="26" x="515.5" y="174.5586">参照</text><!--MD5=[0b5e09a5fd0264af68baa76165bed385]
link ルール指針 to ルール--><path d="M52,45.27 C52,55.31 52,68.6288 52,83.0044 C52,90.1922 52,97.6442 52,105.0827 C52,108.802 52,112.5179 52,116.1957 C52,116.6554 52,117.1145 52,117.573 " fill="none" id="ルール指針-&gt;ルール" style="stroke: #A80036; stroke-width: 1.0;"/><polygon fill="#A80036" points="52,117.573,56,108.573,52,112.573,48,108.573,52,117.573" style="stroke: #A80036; stroke-width: 1.0;"/><text fill="#000000" font-family="sans-serif" font-size="13" lengthAdjust="spacingAndGlyphs" textLength="39" x="53" y="89.5586">具体化</text><!--MD5=[c2a26f9ff71247ff7036edd7d526572a]
@startuml

rectangle ルール指針

frame ルール{
rectangle コアルール as core
rectangle 共通ルール as common
rectangle フォーマット as format
rectangle 対戦レギュレーション as regulation

core <- common : 参照
common <- format : 参照
format <- regulation : 参照
}

ルール指針 - -> ルール : 具体化

@enduml

PlantUML version 1.2020.14(Sat Jun 20 14:14:34 GMT 2020)
(GPL source distribution)
Java Runtime: OpenJDK Runtime Environment
JVM: OpenJDK 64-Bit Server VM
Default Encoding: UTF-8
Language: ja
Country: JP
--></g></svg>