<?xml version="1.0" encoding="UTF-8" standalone="no"?><svg xmlns="http://www.w3.org/2000/svg" xmlns:xlink="http://www.w3.org/1999/xlink" contentScriptType="application/ecmascript" contentStyleType="text/css" height="176px" preserveAspectRatio="none" style="width:451px;height:176px;" version="1.1" viewBox="0 0 451 176" width="451px" zoomAndPan="magnify"><defs><filter height="300%" id="fmxl6686j22ob" width="300%" x="-1" y="-1"><feGaussianBlur result="blurOut" stdDeviation="2.0"/><feColorMatrix in="blurOut" result="blurOut2" type="matrix" values="0 0 0 0 0 0 0 0 0 0 0 0 0 0 0 0 0 0 .4 0"/><feOffset dx="4.0" dy="4.0" in="blurOut2" result="blurOut3"/><feBlend in="SourceGraphic" in2="blurOut3" mode="normal"/></filter></defs><g><!--MD5=[7663f4622c0f2c435ab42eda539713f6]
cluster format--><rect fill="#FFFFFF" filter="url(#fmxl6686j22ob)" height="91" style="stroke: #000000; stroke-width: 1.5;" width="427" x="7" y="68"/><path d="M101,69 L101,79.3203 L91,89.3203 L7,89.3203 " fill="none" style="stroke: #000000; stroke-width: 1.5;"/><text fill="#000000" font-family="sans-serif" font-size="14" font-weight="bold" lengthAdjust="spacingAndGlyphs" textLength="84" x="10" y="83.6016">フォーマット</text><!--MD5=[a6fd415a5c5abcde107a4b1e52d6a5ff]
entity light--><rect fill="#FEFECE" filter="url(#fmxl6686j22ob)" height="38.3203" style="stroke: #000000; stroke-width: 1.5;" width="62" x="356" y="105"/><text fill="#000000" font-family="sans-serif" font-size="14" lengthAdjust="spacingAndGlyphs" textLength="42" x="366" y="129.6016">ライト</text><!--MD5=[68560b35a5f33bb4760d613c81346123]
entity std--><rect fill="#FEFECE" filter="url(#fmxl6686j22ob)" height="38.3203" style="stroke: #000000; stroke-width: 1.5;" width="104" x="217" y="105"/><text fill="#000000" font-family="sans-serif" font-size="14" lengthAdjust="spacingAndGlyphs" textLength="84" x="227" y="129.6016">スタンダード</text><!--MD5=[f98759e4eb96d6a1d3ce0405f8c1a67e]
entity pro--><rect fill="#FEFECE" filter="url(#fmxl6686j22ob)" height="38.3203" style="stroke: #000000; stroke-width: 1.5;" width="48" x="134" y="105"/><text fill="#000000" font-family="sans-serif" font-size="14" lengthAdjust="spacingAndGlyphs" textLength="28" x="144" y="129.6016">プロ</text><!--MD5=[e6001af16d4774e0fdad2715570119d9]
entity master--><rect fill="#FEFECE" filter="url(#fmxl6686j22ob)" height="38.3203" style="stroke: #000000; stroke-width: 1.5;" width="76" x="23" y="105"/><text fill="#000000" font-family="sans-serif" font-size="14" lengthAdjust="spacingAndGlyphs" textLength="56" x="33" y="129.6016">マスター</text><!--MD5=[8274bfb416b6365278739ca5c48d26ea]
entity common--><rect fill="#FEFECE" filter="url(#fmxl6686j22ob)" height="38.3203" style="stroke: #000000; stroke-width: 1.5;" width="90" x="168" y="7"/><text fill="#000000" font-family="sans-serif" font-size="14" lengthAdjust="spacingAndGlyphs" textLength="70" x="178" y="31.6016">共通ルール</text><!--MD5=[12d5822ff265e8c26609d099d9848694]
reverse link common to light--><path d="M263.38,32.41 C287.79,36.89 316.6,45.07 339,60 C355.93,71.29 369.33,90.58 377.62,104.85 " fill="none" id="common&lt;-light" style="stroke: #A80036; stroke-width: 1.0;"/><polygon fill="#A80036" points="258.24,31.51,266.4215,36.9929,263.1661,32.3667,267.7923,29.1112,258.24,31.51" style="stroke: #A80036; stroke-width: 1.0;"/><!--MD5=[7074bc36afe21bafe5e4d6f7a2d006b3]
reverse link common to std--><path d="M226.2,49.63 C236,66.42 249.19,89.04 258.32,104.7 " fill="none" id="common&lt;-std" style="stroke: #A80036; stroke-width: 1.0;"/><polygon fill="#A80036" points="223.53,45.06,224.6299,54.8473,226.0582,49.3737,231.5318,50.8021,223.53,45.06" style="stroke: #A80036; stroke-width: 1.0;"/><!--MD5=[93ac86a1ef7d95815c2cafa381abcd35]
reverse link common to pro--><path d="M200.04,49.63 C190.41,66.42 177.46,89.04 168.49,104.7 " fill="none" id="common&lt;-pro" style="stroke: #A80036; stroke-width: 1.0;"/><polygon fill="#A80036" points="202.65,45.06,194.7077,50.884,200.1662,49.3995,201.6508,54.858,202.65,45.06" style="stroke: #A80036; stroke-width: 1.0;"/><!--MD5=[154f80e43488867c6a45088634ad0bcb]
reverse link common to master--><path d="M163.01,38.85 C147.48,43.89 130.82,50.79 117,60 C99.1,71.93 83.29,90.93 73.07,104.95 " fill="none" id="common&lt;-master" style="stroke: #A80036; stroke-width: 1.0;"/><polygon fill="#A80036" points="167.79,37.34,158.0047,36.2232,163.0201,38.8395,160.4039,43.855,167.79,37.34" style="stroke: #A80036; stroke-width: 1.0;"/><!--MD5=[9e8e0b41d90a2837e9ceed084fc4ccb5]
@startuml
rectangle "共通ルール" as common

frame "フォーマット" as format{
    rectangle "ライト" as light
    rectangle "スタンダード" as std
    rectangle "プロ" as pro
    rectangle "マスター" as master
}

common <- - light
common <- - std
common <- - pro
common <- - master

@enduml

PlantUML version 1.2020.14(Sat Jun 20 14:14:34 GMT 2020)
(GPL source distribution)
Java Runtime: OpenJDK Runtime Environment
JVM: OpenJDK 64-Bit Server VM
Default Encoding: UTF-8
Language: ja
Country: JP
--></g></svg>