<svg version="1.1" viewBox="0.0 0.0 401.56167979002623 298.84776902887137" fill="none" stroke="none" stroke-linecap="square" stroke-miterlimit="10" xmlns:xlink="http://www.w3.org/1999/xlink" xmlns="http://www.w3.org/2000/svg"><clipPath id="p.0"><path d="m0 0l401.56168 0l0 298.84778l-401.56168 0l0 -298.84778z" clip-rule="nonzero"/></clipPath><g clip-path="url(#p.0)"><path fill="#000000" fill-opacity="0.0" d="m0 0l401.56168 0l0 298.84778l-401.56168 0z" fill-rule="evenodd"/><path fill="#ffffff" d="m135.91046 96.81365l0 0c-4.806595 0 -8.70311 -3.896515 -8.70311 -8.70311l0 -67.44418c0 -2.3082066 0.91693115 -4.5218754 2.5490723 -6.154024c1.6321564 -1.6321487 3.8458252 -2.54908 6.1540375 -2.54908l97.86937 0c4.806595 0 8.70311 3.896512 8.70311 8.703104l0 67.44418c0 4.806595 -3.896515 8.70311 -8.70311 8.70311z" fill-rule="evenodd"/><path stroke="#000000" stroke-width="1.0" stroke-linejoin="round" stroke-linecap="butt" d="m135.91046 96.81365l0 0c-4.806595 0 -8.70311 -3.896515 -8.70311 -8.70311l0 -67.44418c0 -2.3082066 0.91693115 -4.5218754 2.5490723 -6.154024c1.6321564 -1.6321487 3.8458252 -2.54908 6.1540375 -2.54908l97.86937 0c4.806595 0 8.70311 3.896512 8.70311 8.703104l0 67.44418c0 4.806595 -3.896515 8.70311 -8.70311 8.70311z" fill-rule="evenodd"/><path fill="#000000" d="m148.06703 68.716576l4.234375 0q0.59375 0 0.59375 -0.53125l0 -1.25q0 -1.1875 -2.3125 -1.421875l0.59375 -1.484375q3.125 0.453125 3.125 2.375l0 2.53125q0 1.265625 -1.265625 1.265625l-4.671875 0l0.4375 1.921875l-1.625 0.296875l-0.453125 -2.21875l-4.890625 0l0 -1.421875q0.140625 -0.734375 0.59375 -0.0625l4.0 0l-0.953125 -3.859375l1.546875 -0.375l1.046875 4.234375zm6.671875 -10.46875q-6.0 -0.375 -10.15625 -0.375l0 2.828125q6.890625 0 8.90625 1.03125q3.1875 1.640625 4.59375 5.796875l-1.625 0.734375q-1.34375 -4.078125 -4.015625 -5.1875q-1.921875 -0.828125 -7.859375 -0.828125l0 2.90625l-1.640625 0l0 -8.90625q5.5 0 12.46875 0.4375q2.453125 0.15625 2.453125 2.234375l0 2.0l-1.640625 0.140625l0 -1.78125q0 -0.953125 -1.484375 -1.03125zm3.34375 -10.546875l0 1.484375l-7.34375 0q1.625 0.53125 4.0 2.90625l-1.625 1.03125q-1.859375 -2.515625 -6.15625 -3.9375l0 3.203125l-1.640625 0l0 -3.203125l-3.640625 0l0 -1.40625q0.15625 -0.734375 0.59375 -0.078125l3.046875 0l0 -3.328125l1.640625 0l0 3.328125l1.78125 0q1.109375 -2.140625 2.140625 -3.484375l1.78125 0.8125q-1.25 1.34375 -2.140625 2.671875l7.5625 0zm-3.859375 -11.34375l1.9375 0.4375q1.625 0.375 1.625 2.234375l0 2.515625q0 1.34375 -1.40625 1.34375l-14.328125 0l0 -1.640625q0.15625 -0.734375 0.59375 -0.078125l12.921875 0q0.59375 0 0.59375 -0.515625l0 -1.328125q0 -0.75 -0.671875 -0.890625l-1.9375 -0.375l0.671875 -1.703125z" fill-rule="nonzero"/><path fill="#ffffff" d="m135.91046 127.238846l0 0c-4.806595 0 -8.70311 -3.896515 -8.70311 -8.703102l0 -67.44418c0 -2.3082085 0.91693115 -4.5218773 2.5490723 -6.154026c1.6321564 -1.6321487 3.8458252 -2.54908 6.1540375 -2.54908l97.86937 0c4.806595 0 8.70311 3.896515 8.70311 8.703106l0 67.44418c0 4.806587 -3.896515 8.703102 -8.70311 8.703102z" fill-rule="evenodd"/><path stroke="#000000" stroke-width="1.0" stroke-linejoin="round" stroke-linecap="butt" d="m135.91046 127.238846l0 0c-4.806595 0 -8.70311 -3.896515 -8.70311 -8.703102l0 -67.44418c0 -2.3082085 0.91693115 -4.5218773 2.5490723 -6.154026c1.6321564 -1.6321487 3.8458252 -2.54908 6.1540375 -2.54908l97.86937 0c4.806595 0 8.70311 3.896515 8.70311 8.703106l0 67.44418c0 4.806587 -3.896515 8.703102 -8.70311 8.703102z" fill-rule="evenodd"/><path fill="#000000" d="m148.06703 99.14178l4.234375 0q0.59375 0 0.59375 -0.53125l0 -1.25q0 -1.1875 -2.3125 -1.421875l0.59375 -1.484375q3.125 0.453125 3.125 2.375l0 2.53125q0 1.265625 -1.265625 1.265625l-4.671875 0l0.4375 1.921875l-1.625 0.296875l-0.453125 -2.21875l-4.890625 0l0 -1.421875q0.140625 -0.734375 0.59375 -0.0625l4.0 0l-0.953125 -3.859375l1.546875 -0.375l1.046875 4.234375zm6.671875 -10.46875q-6.0 -0.375 -10.15625 -0.375l0 2.828125q6.890625 0 8.90625 1.03125q3.1875 1.640625 4.59375 5.796875l-1.625 0.734375q-1.34375 -4.078125 -4.015625 -5.1875q-1.921875 -0.828125 -7.859375 -0.828125l0 2.90625l-1.640625 0l0 -8.90625q5.5 0 12.46875 0.4375q2.453125 0.15625 2.453125 2.234375l0 2.0l-1.640625 0.140625l0 -1.78125q0 -0.953125 -1.484375 -1.03125zm3.34375 -10.546875l0 1.484375l-7.34375 0q1.625 0.53125 4.0 2.90625l-1.625 1.03125q-1.859375 -2.515625 -6.15625 -3.9375l0 3.203125l-1.640625 0l0 -3.203125l-3.640625 0l0 -1.40625q0.15625 -0.734375 0.59375 -0.078125l3.046875 0l0 -3.328125l1.640625 0l0 3.328125l1.78125 0q1.109375 -2.140625 2.140625 -3.484375l1.78125 0.8125q-1.25 1.34375 -2.140625 2.671875l7.5625 0zm-3.859375 -11.34375l1.9375 0.4375q1.625 0.375 1.625 2.234375l0 2.515625q0 1.34375 -1.40625 1.34375l-14.328125 0l0 -1.640625q0.15625 -0.734375 0.59375 -0.078125l12.921875 0q0.59375 0 0.59375 -0.515625l0 -1.328125q0 -0.75 -0.671875 -0.890625l-1.9375 -0.375l0.671875 -1.703125z" fill-rule="nonzero"/><path fill="#ffffff" d="m164.15486 20.666359l0 0c0 -4.806592 3.8964996 -8.703104 8.7030945 -8.703104l67.44418 0c2.3082123 0 4.521881 0.91693115 6.154022 2.54908c1.6321564 1.6321487 2.5490875 3.8458176 2.5490875 6.154024l0 97.869385c0 4.806587 -3.896515 8.703102 -8.70311 8.703102l-67.44418 0c-4.806595 0 -8.7030945 -3.896515 -8.7030945 -8.703102z" fill-rule="evenodd"/><path stroke="#000000" stroke-width="1.0" stroke-linejoin="round" stroke-linecap="butt" d="m164.15486 20.666359l0 0c0 -4.806592 3.8964996 -8.703104 8.7030945 -8.703104l67.44418 0c2.3082123 0 4.521881 0.91693115 6.154022 2.54908c1.6321564 1.6321487 2.5490875 3.8458176 2.5490875 6.154024l0 97.869385c0 4.806587 -3.896515 8.703102 -8.70311 8.703102l-67.44418 0c-4.806595 0 -8.7030945 -3.896515 -8.7030945 -8.703102z" fill-rule="evenodd"/><path fill="#000000" d="m189.87692 69.099174l-7.421875 0l0 -1.640625l15.21875 0l0 1.640625l-6.078125 0l0 0.96875q0 4.671875 -3.34375 7.71875l-1.484375 -1.109375q3.109375 -2.453125 3.109375 -6.609375l0 -0.96875zm-4.75 -4.53125l0 -1.6250038l9.140625 0l0 1.6250038l-9.140625 0zm10.09375 -3.0468788q0.96875 0.96875 2.078125 2.6093788l-1.03125 0.734375q-1.046875 -1.4843788 -2.078125 -2.6718788l1.03125 -0.671875zm1.78125 -0.953125q0.96875 1.03125 2.078125 2.515625l-1.03125 0.75q-1.1875 -1.640625 -2.078125 -2.53125l1.03125 -0.734375zm15.3671875 6.890629q-0.515625 4.828125 -2.671875 6.984375q-2.15625 2.15625 -5.640625 3.421875l-0.96875 -1.421875q3.421875 -1.109375 5.34375 -3.046875q2.078125 -2.078125 2.375 -7.046875l1.5625 0.515625q0.671875 0.234375 0 0.59375zm-6.3125 2.671875q-0.890625 -2.0 -1.78125 -3.328125l1.421875 -0.75q1.109375 1.40625 1.921875 3.34375l-1.5625 0.734375zm-3.78125 1.125q-0.890625 -2.078125 -1.859375 -3.5l1.484375 -0.734375q1.046875 1.40625 1.859375 3.40625l-1.484375 0.828125zm28.578125 -0.53125l-6.90625 0.75l1.40625 6.015625l-1.625 0.375l-1.40625 -6.171875l-7.578125 0.890625l-0.21875 -1.5625l7.421875 -0.8125l-0.75 -3.484375l-5.046875 0.59375l-0.296875 -1.5625l4.90625 -0.515625l-0.75 -3.4218788l1.5625 -0.296875q0.671875 -0.0625 0.21875 0.53125l0.59375 2.9687538l5.421875 -0.75l0.296875 1.5625l-5.265625 0.671875l0.734375 3.484375l6.984375 -0.8125l0.296875 1.546875z" fill-rule="nonzero"/><path fill="#ffffff" d="m276.16565 145.4252l0 0c4.80661 0 8.703125 3.896515 8.703125 8.7030945l0 67.44418c0 2.3082123 -0.91693115 4.521881 -2.5491028 6.1540375c-1.6321411 1.6321411 -3.8457947 2.5490723 -6.154022 2.5490723l-97.86937 0c-4.806595 0 -8.70311 -3.896515 -8.70311 -8.70311l0 -67.44418c0 -4.8065796 3.896515 -8.7030945 8.70311 -8.7030945z" fill-rule="evenodd"/><path stroke="#000000" stroke-width="1.0" stroke-linejoin="round" stroke-linecap="butt" d="m276.16565 145.4252l0 0c4.80661 0 8.703125 3.896515 8.703125 8.7030945l0 67.44418c0 2.3082123 -0.91693115 4.521881 -2.5491028 6.1540375c-1.6321411 1.6321411 -3.8457947 2.5490723 -6.154022 2.5490723l-97.86937 0c-4.806595 0 -8.70311 -3.896515 -8.70311 -8.70311l0 -67.44418c0 -4.8065796 3.896515 -8.7030945 8.70311 -8.7030945z" fill-rule="evenodd"/><path fill="#000000" d="m257.10284 173.97539q-1.25 1.859375 -1.78125 4.890625l-1.484375 -0.59375q1.265625 -5.859375 5.5 -7.9375l0 -0.21875q-0.671875 -0.59375 -1.640625 -2.0l-2.296875 0l0.671875 4.375l-1.125 0q-0.59375 -2.53125 -1.328125 -7.34375q-0.515625 -0.078125 -0.21875 -0.375l1.546875 -0.375l0.296875 2.453125l1.796875 0q-1.125 -1.9375 -1.71875 -4.453125l1.421875 -0.515625q0.734375 3.703125 2.59375 6.296875l0 -6.375l1.1875 0l0 7.796875l0.96875 0l0 -6.3125l0.890625 0l0 6.3125l0.890625 0l0 -2.53125l0 -2.515625l4.21875 0l0 11.421875l-4.21875 0l0 -5.125l-0.890625 0l0 6.390625l-0.890625 0l0 -6.390625l-0.96875 0l0 7.875l-1.1875 0l0 -6.984375q-1.046875 0.75 -1.484375 1.265625l1.328125 2.234375l-0.734375 1.1875q-0.296875 0.359375 -0.296875 -0.234375l-1.046875 -2.21875zm12.40625 -11.734375l0 7.28125l1.328125 0l0 1.40625q-0.078125 0.59375 -0.4375 0.078125l-0.890625 0l0 7.265625l-1.1875 0l0 -16.03125l1.1875 0zm-2.90625 3.5625l-0.953125 0l0 3.796875l0.953125 0l0 -3.796875zm0 5.046875l-0.953125 0l0 3.859375l0.953125 0l0 -3.859375zm-1.484375 -5.046875l-0.953125 0l0 3.796875l0.953125 0l0 -3.796875zm0 5.046875l-0.953125 0l0 3.859375l0.953125 0l0 -3.859375zm1.5625 12.703125l-12.46875 0l0 -1.484375l13.875 0l0 5.265625l2.75 1.109375l-0.671875 1.78125q-0.296875 0.296875 -0.359375 -0.21875l-1.71875 -1.109375l0 7.640625l-12.765625 0q-1.1875 0 -1.1875 -1.1875l0 -2.15625l1.640625 -0.140625l0 1.703125q0 0.296875 0.296875 0.296875l10.609375 0l0 -11.5zm-3.78125 3.78125l-3.125 0l0 3.9375l3.125 0l0 -3.9375zm-5.421875 3.9375l0.890625 0l0 -3.9375l-1.328125 0l0 -1.484375l7.265625 0l0 6.90625l-6.828125 0l0 -1.484375zm8.90625 16.390625q-0.890625 0.296875 -1.859375 0.890625q0.375 2.375 1.046875 4.6875l-1.5625 0.65625q-0.4375 -1.921875 -0.8125 -4.515625q-1.484375 1.109375 -2.828125 2.890625l-1.25 -1.265625q0.59375 -2.671875 0.59375 -4.234375q0 -2.96875 -0.890625 -3.859375q-0.53125 -0.515625 -1.125 -0.515625q-0.734375 0 -1.1875 0.453125q-0.59375 0.59375 -0.59375 3.328125l0 4.53125l-1.625 -0.296875l0 -4.53125q0 -2.96875 1.1875 -4.15625q0.890625 -0.890625 2.296875 -0.890625q1.109375 0 1.9375 0.828125q1.25 1.25 1.25 5.1875q0 1.34375 -0.21875 2.671875q1.109375 -1.03125 2.15625 -1.859375q-0.453125 -3.484375 -0.453125 -7.640625l1.5625 -0.21875q-0.078125 3.78125 0.296875 7.125q0.96875 -0.515625 1.859375 -0.8125q-0.21875 -2.75 -0.21875 -5.71875l1.484375 -0.15625q-0.078125 3.046875 0.140625 5.5q1.34375 -0.375 3.046875 -0.59375l0 1.625q-0.15625 0.75 -0.59375 0.078125q-1.109375 0.15625 -2.234375 0.375q0.234375 1.921875 0.75 3.9375l-1.484375 0.515625q-0.453125 -2.53125 -0.671875 -4.015625z" fill-rule="nonzero"/><path fill="#ffffff" d="m276.16565 159.85039l0 0c4.80661 0 8.703125 3.896515 8.703125 8.70311l0 67.44418c0 2.3082123 -0.91693115 4.521881 -2.5491028 6.154022c-1.6321411 1.6321564 -3.8457947 2.5490875 -6.154022 2.5490875l-97.86937 0c-4.806595 0 -8.70311 -3.896515 -8.70311 -8.70311l0 -67.44418c0 -4.806595 3.896515 -8.70311 8.70311 -8.70311z" fill-rule="evenodd"/><path stroke="#000000" stroke-width="1.0" stroke-linejoin="round" stroke-linecap="butt" d="m276.16565 159.85039l0 0c4.80661 0 8.703125 3.896515 8.703125 8.70311l0 67.44418c0 2.3082123 -0.91693115 4.521881 -2.5491028 6.154022c-1.6321411 1.6321564 -3.8457947 2.5490875 -6.154022 2.5490875l-97.86937 0c-4.806595 0 -8.70311 -3.896515 -8.70311 -8.70311l0 -67.44418c0 -4.806595 3.896515 -8.70311 8.70311 -8.70311z" fill-rule="evenodd"/><path fill="#000000" d="m257.10284 188.40059q-1.25 1.859375 -1.78125 4.890625l-1.484375 -0.59375q1.265625 -5.859375 5.5 -7.9375l0 -0.21875q-0.671875 -0.59375 -1.640625 -2.0l-2.296875 0l0.671875 4.375l-1.125 0q-0.59375 -2.53125 -1.328125 -7.34375q-0.515625 -0.078125 -0.21875 -0.375l1.546875 -0.375l0.296875 2.453125l1.796875 0q-1.125 -1.9375 -1.71875 -4.453125l1.421875 -0.515625q0.734375 3.703125 2.59375 6.296875l0 -6.375l1.1875 0l0 7.796875l0.96875 0l0 -6.3125l0.890625 0l0 6.3125l0.890625 0l0 -2.53125l0 -2.515625l4.21875 0l0 11.421875l-4.21875 0l0 -5.125l-0.890625 0l0 6.390625l-0.890625 0l0 -6.390625l-0.96875 0l0 7.875l-1.1875 0l0 -6.984375q-1.046875 0.75 -1.484375 1.265625l1.328125 2.234375l-0.734375 1.1875q-0.296875 0.359375 -0.296875 -0.234375l-1.046875 -2.21875zm12.40625 -11.734375l0 7.28125l1.328125 0l0 1.40625q-0.078125 0.59375 -0.4375 0.078125l-0.890625 0l0 7.265625l-1.1875 0l0 -16.03125l1.1875 0zm-2.90625 3.5625l-0.953125 0l0 3.796875l0.953125 0l0 -3.796875zm0 5.046875l-0.953125 0l0 3.859375l0.953125 0l0 -3.859375zm-1.484375 -5.046875l-0.953125 0l0 3.796875l0.953125 0l0 -3.796875zm0 5.046875l-0.953125 0l0 3.859375l0.953125 0l0 -3.859375zm1.5625 12.703125l-12.46875 0l0 -1.484375l13.875 0l0 5.265625l2.75 1.109375l-0.671875 1.78125q-0.296875 0.296875 -0.359375 -0.21875l-1.71875 -1.109375l0 7.640625l-12.765625 0q-1.1875 0 -1.1875 -1.1875l0 -2.15625l1.640625 -0.140625l0 1.703125q0 0.296875 0.296875 0.296875l10.609375 0l0 -11.5zm-3.78125 3.78125l-3.125 0l0 3.9375l3.125 0l0 -3.9375zm-5.421875 3.9375l0.890625 0l0 -3.9375l-1.328125 0l0 -1.484375l7.265625 0l0 6.90625l-6.828125 0l0 -1.484375zm8.90625 16.390625q-0.890625 0.296875 -1.859375 0.890625q0.375 2.375 1.046875 4.6875l-1.5625 0.65625q-0.4375 -1.921875 -0.8125 -4.515625q-1.484375 1.109375 -2.828125 2.890625l-1.25 -1.265625q0.59375 -2.671875 0.59375 -4.234375q0 -2.96875 -0.890625 -3.859375q-0.53125 -0.515625 -1.125 -0.515625q-0.734375 0 -1.1875 0.453125q-0.59375 0.59375 -0.59375 3.328125l0 4.53125l-1.625 -0.296875l0 -4.53125q0 -2.96875 1.1875 -4.15625q0.890625 -0.890625 2.296875 -0.890625q1.109375 0 1.9375 0.828125q1.25 1.25 1.25 5.1875q0 1.34375 -0.21875 2.671875q1.109375 -1.03125 2.15625 -1.859375q-0.453125 -3.484375 -0.453125 -7.640625l1.5625 -0.21875q-0.078125 3.78125 0.296875 7.125q0.96875 -0.515625 1.859375 -0.8125q-0.21875 -2.75 -0.21875 -5.71875l1.484375 -0.15625q-0.078125 3.046875 0.140625 5.5q1.34375 -0.375 3.046875 -0.59375l0 1.625q-0.15625 0.75 -0.59375 0.078125q-1.109375 0.15625 -2.234375 0.375q0.234375 1.921875 0.75 3.9375l-1.484375 0.515625q-0.453125 -2.53125 -0.671875 -4.015625z" fill-rule="nonzero"/><path fill="#000000" fill-opacity="0.0" d="m10.87664 54.38845l104.40945 0l0 42.4252l-104.40945 0z" fill-rule="evenodd"/><path fill="#000000" d="m23.81414 71.49845l0 3.5625q0 0.5 0.4375 0.5l1.0625 0q1.0 0 1.1875 -1.9375l1.25 0.5q-0.375 2.625 -2.0 2.625l-2.125 0q-1.0625 0 -1.0625 -1.0625l0 -3.9375l-1.625 0.375l-0.25 -1.375l1.875 -0.375l0 -4.125l1.1875 0q0.625 0.125 0.0625 0.5l0 3.375l3.25 -0.8125l0.3125 1.3125l-3.5625 0.875zm8.8125 5.625q0.3125 -5.0625 0.3125 -8.5625l-2.375 0q0 5.8125 -0.875 7.5q-1.375 2.6875 -4.875 3.875l-0.625 -1.375q3.4375 -1.125 4.375 -3.375q0.6875 -1.625 0.6875 -6.625l-2.4375 0l0 -1.375l7.5 0q0 4.625 -0.375 10.5q-0.125 2.0625 -1.875 2.0625l-1.6875 0l-0.125 -1.375l1.5 0q0.8125 0 0.875 -1.25zm8.875 2.8125l-1.25 0l0 -6.1875q-0.4375 1.375 -2.4375 3.375l-0.875 -1.375q2.125 -1.5625 3.3125 -5.1875l-2.6875 0l0 -1.375l2.6875 0l0 -3.0625l1.1875 0q0.625 0.125 0.0625 0.5l0 2.5625l2.8125 0l0 1.375l-2.8125 0l0 1.5q1.8125 0.9375 2.9375 1.8125l-0.6875 1.5q-1.125 -1.0625 -2.25 -1.8125l0 6.375zm9.5625 -3.25l-0.375 1.625q-0.3125 1.375 -1.875 1.375l-2.125 0q-1.125 0 -1.125 -1.1875l0 -12.0625l1.375 0q0.625 0.125 0.0625 0.5l0 10.875q0 0.5 0.4375 0.5l1.125 0q0.625 0 0.75 -0.5625l0.3125 -1.625l1.4375 0.5625zm1.3125 -5.625q2.4375 -2.25 3.1875 -5.0625l1.3125 0.125q0.25 0.25 -0.1875 0.3125l-0.0625 0.3125q1.875 0.75 3.1875 2.1875l-0.75 1.1875q-1.4375 -1.5 -2.8125 -2.4375q-1.125 2.6875 -3.0 4.4375l-0.875 -1.0625zm6.3125 8.0q2.0 -0.625 3.0625 -1.375l0.9375 0.875q0.1875 0.5 -0.375 0.25q-1.5 1.0625 -3.125 1.4375l-0.5 -1.1875zm7.4375 -1.5l-5.9375 0l0 -8.4375l1.9375 0q0.25 -0.5 0.5 -1.5l-2.8125 0l0 -1.1875l6.6875 0l0 1.1875l-2.5625 0q-0.375 0.75 -0.75 1.5l2.9375 0l0 8.4375zm0.375 2.625q-1.75 -0.5625 -3.0625 -1.75l0.9375 -0.8125q1.0625 0.75 2.75 1.4375l-0.625 1.125zm-8.4375 -9.75l0 1.0l-3.25 0l0 -1.0l3.25 0zm7.0 -0.3125l-3.8125 0l0 1.4375l3.8125 0l0 -1.4375zm0 2.4375l-3.8125 0l0 1.4375l3.8125 0l0 -1.4375zm0 2.4375l-3.8125 0l0 1.5625l3.8125 0l0 -1.5625zm-6.0625 -2.25l0 4.375q0 0.9375 -0.75 0.9375l-1.25 0l-0.1875 -1.0l0.875 0q0.25 0 0.25 -0.25l0 -3.0625l-1.8125 0l0 6.5l-1.25 0l0 -6.5l-1.5625 0l0 -1.0l5.6875 0zm19.8125 3.125q-0.5625 -2.8125 -0.5625 -6.0625l-5.0 0l0 1.0625l-1.6875 0l0 4.6875q0.625 -0.1875 1.5 -0.5l0.125 1.125q-2.125 0.875 -4.0 1.4375q-0.25 0.4375 -0.4375 0.1875l-0.3125 -1.4375q0.9375 -0.25 1.875 -0.5l0 -5.0l-1.5 0l0 -1.1875l1.5 0l0 -3.3125l1.1875 0q0.5 0.0625 0.0625 0.375l0 2.9375l1.6875 0l0 -1.0625l5.0 0l0 -2.5625l1.1875 0q0.5 0.0625 0.0625 0.375l0 2.1875l1.5625 0q-0.75 -1.25 -1.0 -1.4375l1.0 -0.75q0.4375 0.4375 1.125 1.4375l-1.0 0.75l1.5 0l0 1.1875l-3.1875 0q0 2.625 0.25 4.625q0.625 -1.125 1.3125 -3.375l1.125 0.5q0.1875 0.25 -0.125 0.3125q-0.6875 2.375 -1.75 4.125q0.3125 1.25 0.875 1.8125q0.3125 0.3125 0.375 -0.125l0.25 -1.375l1.1875 0.5625l-0.4375 1.75q-0.3125 1.25 -1.25 0.9375q-1.25 -0.4375 -2.0 -2.4375q-1.5625 1.6875 -4.6875 3.0l-0.5 -1.3125q3.0625 -1.25 4.6875 -2.9375zm-5.9375 0.5625q2.5 -0.4375 4.9375 -1.375l0.0625 1.1875q-2.25 0.875 -4.375 1.4375q-0.25 0.3125 -0.3125 0.125l-0.3125 -1.375zm1.8125 -1.8125l0 0.3125l-1.0625 0l0 -3.875l3.875 0l0 3.5625l-2.8125 0zm1.75 -1.0l0 -1.5625l-1.75 0l0 1.5625l1.75 0z" fill-rule="nonzero"/><path fill="#000000" fill-opacity="0.0" d="m127.19168 127.238846c-9.915039 0 -17.952759 -1.3395691 -17.952759 -2.9920044l0 -48.409927c0 -1.6524429 -8.03772 -2.992012 -17.952759 -2.992012l0 0c9.915039 0 17.952759 -1.3395615 17.952759 -2.9920044l0 -54.897636l0 0c0 -1.6524401 8.03772 -2.9920063 17.952759 -2.9920063z" fill-rule="evenodd"/><path fill="#000000" fill-opacity="0.0" d="m127.19168 127.238846c-9.915039 0 -17.952759 -1.3395691 -17.952759 -2.9920044l0 -48.409927c0 -1.6524429 -8.03772 -2.992012 -17.952759 -2.992012l0 0c9.915039 0 17.952759 -1.3395615 17.952759 -2.9920044l0 -54.897636l0 0c0 -1.6524401 8.03772 -2.9920063 17.952759 -2.9920063" fill-rule="evenodd"/><path stroke="#000000" stroke-width="1.0" stroke-linejoin="round" stroke-linecap="butt" d="m127.19168 127.238846c-9.915039 0 -17.952759 -1.3395691 -17.952759 -2.9920044l0 -48.409927c0 -1.6524429 -8.03772 -2.992012 -17.952759 -2.992012l0 0c9.915039 0 17.952759 -1.3395615 17.952759 -2.9920044l0 -54.897636l0 0c0 -1.6524401 8.03772 -2.9920063 17.952759 -2.9920063" fill-rule="evenodd"/><path fill="#000000" fill-opacity="0.0" d="m284.86877 145.41995l0 0c8.114655 0 14.692902 1.0963287 14.692902 2.4487152l0 51.849274c0 1.3523865 6.578247 2.4487152 14.692932 2.4487152l0 0c-8.114685 0 -14.692932 1.0963287 -14.692932 2.4487305l0 53.63144c0 1.3523865 -6.578247 2.4487 -14.692902 2.4487z" fill-rule="evenodd"/><path fill="#000000" fill-opacity="0.0" d="m284.86877 145.41995l0 0c8.114655 0 14.692902 1.0963287 14.692902 2.4487152l0 51.849274c0 1.3523865 6.578247 2.4487152 14.692932 2.4487152l0 0c-8.114685 0 -14.692932 1.0963287 -14.692932 2.4487305l0 53.63144c0 1.3523865 -6.578247 2.4487 -14.692902 2.4487" fill-rule="evenodd"/><path stroke="#000000" stroke-width="1.0" stroke-linejoin="round" stroke-linecap="butt" d="m284.86877 145.41995l0 0c8.114655 0 14.692902 1.0963287 14.692902 2.4487152l0 51.849274c0 1.3523865 6.578247 2.4487152 14.692932 2.4487152l0 0c-8.114685 0 -14.692932 1.0963287 -14.692932 2.4487305l0 53.63144c0 1.3523865 -6.578247 2.4487 -14.692902 2.4487" fill-rule="evenodd"/><path fill="#000000" fill-opacity="0.0" d="m319.3727 181.84514l84.85037 0l0 57.417328l-84.85037 0z" fill-rule="evenodd"/><path fill="#000000" d="m339.1227 196.45514q3.125 3.9375 4.4375 8.3125l-1.6875 0.5625q-1.5625 -4.9375 -4.0625 -7.875l1.3125 -1.0zm-4.75 1.4375q0.5 0.3125 -0.125 0.5625q-1.125 3.9375 -3.625 7.1875l-1.4375 -0.9375q2.75 -3.3125 3.6875 -7.5l1.5 0.6875zm7.5 -4.875q0.8125 0.6875 2.0 1.9375l-0.8125 0.75q-1.125 -1.25 -2.0 -2.0l0.8125 -0.6875zm-1.5 0.9375q0.9375 0.875 2.0 2.125l-0.9375 0.6875q-0.9375 -1.25 -1.9375 -2.125l0.875 -0.6875zm7.3125 10.8125q5.75 -1.0625 8.375 -5.8125l1.0625 1.0625q-3.0 5.25 -10.0 6.4375l-1.0 -0.75l0.125 -0.375l0 -10.375l1.375 0q0.5625 0.0625 0.0625 0.4375l0 9.375zm21.0625 -6.1875q-0.4375 4.0625 -2.25 5.875q-1.8125 1.8125 -4.75 2.875l-0.8125 -1.1875q2.875 -0.9375 4.5 -2.5625q1.75 -1.75 2.0 -5.9375l1.3125 0.4375q0.5625 0.1875 0 0.5zm-5.3125 2.25q-0.75 -1.6875 -1.5 -2.8125l1.1875 -0.625q0.9375 1.1875 1.625 2.8125l-1.3125 0.625zm-3.1875 0.9375q-0.75 -1.75 -1.5625 -2.9375l1.25 -0.625q0.875 1.1875 1.5625 2.875l-1.25 0.6875zm12.9375 -3.0625q3.0625 0.875 6.1875 2.375l-0.75 1.4375q-3.3125 -1.6875 -5.4375 -2.25l0 6.5l-1.4375 0l0 -12.5l1.25 0q0.75 0.0625 0.1875 0.5l0 3.9375z" fill-rule="nonzero"/><path fill="#000000" d="m328.8727 217.51764q2.4375 -2.25 3.1875 -5.0625l1.3125 0.125q0.25 0.25 -0.1875 0.3125l-0.0625 0.3125q1.875 0.75 3.1875 2.1875l-0.75 1.1875q-1.4375 -1.5 -2.8125 -2.4375q-1.125 2.6875 -3.0 4.4375l-0.875 -1.0625zm6.3125 8.0q2.0 -0.625 3.0625 -1.375l0.9375 0.875q0.1875 0.5 -0.375 0.25q-1.5 1.0625 -3.125 1.4375l-0.5 -1.1875zm7.4375 -1.5l-5.9375 0l0 -8.4375l1.9375 0q0.25 -0.5 0.5 -1.5l-2.8125 0l0 -1.1875l6.6875 0l0 1.1875l-2.5625 0q-0.375 0.75 -0.75 1.5l2.9375 0l0 8.4375zm0.375 2.625q-1.75 -0.5625 -3.0625 -1.75l0.9375 -0.8125q1.0625 0.75 2.75 1.4375l-0.625 1.125zm-8.4375 -9.75l0 1.0l-3.25 0l0 -1.0l3.25 0zm7.0 -0.3125l-3.8125 0l0 1.4375l3.8125 0l0 -1.4375zm0 2.4375l-3.8125 0l0 1.4375l3.8125 0l0 -1.4375zm0 2.4375l-3.8125 0l0 1.5625l3.8125 0l0 -1.5625zm-6.0625 -2.25l0 4.375q0 0.9375 -0.75 0.9375l-1.25 0l-0.1875 -1.0l0.875 0q0.25 0 0.25 -0.25l0 -3.0625l-1.8125 0l0 6.5l-1.25 0l0 -6.5l-1.5625 0l0 -1.0l5.6875 0zm19.8125 3.125q-0.5625 -2.8125 -0.5625 -6.0625l-5.0 0l0 1.0625l-1.6875 0l0 4.6875q0.625 -0.1875 1.5 -0.5l0.125 1.125q-2.125 0.875 -4.0 1.4375q-0.25 0.4375 -0.4375 0.1875l-0.3125 -1.4375q0.9375 -0.25 1.875 -0.5l0 -5.0l-1.5 0l0 -1.1875l1.5 0l0 -3.3125l1.1875 0q0.5 0.0625 0.0625 0.375l0 2.9375l1.6875 0l0 -1.0625l5.0 0l0 -2.5625l1.1875 0q0.5 0.0625 0.0625 0.375l0 2.1875l1.5625 0q-0.75 -1.25 -1.0 -1.4375l1.0 -0.75q0.4375 0.4375 1.125 1.4375l-1.0 0.75l1.5 0l0 1.1875l-3.1875 0q0 2.625 0.25 4.625q0.625 -1.125 1.3125 -3.375l1.125 0.5q0.1875 0.25 -0.125 0.3125q-0.6875 2.375 -1.75 4.125q0.3125 1.25 0.875 1.8125q0.3125 0.3125 0.375 -0.125l0.25 -1.375l1.1875 0.5625l-0.4375 1.75q-0.3125 1.25 -1.25 0.9375q-1.25 -0.4375 -2.0 -2.4375q-1.5625 1.6875 -4.6875 3.0l-0.5 -1.3125q3.0625 -1.25 4.6875 -2.9375zm-5.9375 0.5625q2.5 -0.4375 4.9375 -1.375l0.0625 1.1875q-2.25 0.875 -4.375 1.4375q-0.25 0.3125 -0.3125 0.125l-0.3125 -1.375zm1.8125 -1.8125l0 0.3125l-1.0625 0l0 -3.875l3.875 0l0 3.5625l-2.8125 0zm1.75 -1.0l0 -1.5625l-1.75 0l0 1.5625l1.75 0z" fill-rule="nonzero"/><path fill="#ffffff" d="m276.2044 175.81364l0 0c4.80838 0 8.70636 3.8979645 8.70636 8.706345l0 67.46921c0 2.3090668 -0.91729736 4.5235596 -2.5500488 6.156311c-1.6327515 1.6327515 -3.847229 2.5500183 -6.156311 2.5500183l-103.34323 0c-4.808365 0 -8.706329 -3.8979492 -8.706329 -8.706329l0 -67.46921c0 -4.80838 3.8979645 -8.706345 8.706329 -8.706345z" fill-rule="evenodd"/><path stroke="#000000" stroke-width="1.0" stroke-linejoin="round" stroke-linecap="butt" d="m276.2044 175.81364l0 0c4.80838 0 8.70636 3.8979645 8.70636 8.706345l0 67.46921c0 2.3090668 -0.91729736 4.5235596 -2.5500488 6.156311c-1.6327515 1.6327515 -3.847229 2.5500183 -6.156311 2.5500183l-103.34323 0c-4.808365 0 -8.706329 -3.8979492 -8.706329 -8.706329l0 -67.46921c0 -4.80838 3.8979645 -8.706345 8.706329 -8.706345z" fill-rule="evenodd"/><path fill="#000000" d="m258.19077 204.52022q-1.484375 1.1875 -2.6718903 4.453125l-1.640625 -0.734375q1.9375 -5.796875 8.17189 -7.34375l0 -0.453125q-1.046875 -0.734375 -1.859375 -1.5625l-4.15625 0l0.8125 4.234375l-1.2500153 0.21875q-0.96875 -4.0 -1.71875 -7.859375q-0.671875 -0.21875 -0.21875 -0.453125l1.78125 -0.515625l0.375 2.890625l3.1875153 0q-1.328125 -1.921875 -2.15625 -4.296875l1.484375 -0.75q1.046875 3.71875 3.71875 6.3125l0 -5.9375l1.40625 0l0 7.203125l1.34375 0l0 -5.34375l1.40625 0l0 5.34375l1.328125 0l0 -6.3125l1.421875 0l0 6.3125l1.78125 0l0 1.40625q-0.078125 0.59375 -0.453125 0.078125l-1.328125 0l0 6.3125l-1.421875 0l0 -6.3125l-1.328125 0l0 5.34375l-1.40625 0l0 -5.34375l-1.34375 0l0 7.203125l-1.40625 0l0 -6.3125q-1.40625 0.4375 -2.96875 1.484375q1.1875 1.40625 2.59375 2.671875l-1.109375 1.109375q-0.375 0.078125 -0.21875 -0.375q-1.1875 -1.25 -2.15625 -2.671875zm8.53125 9.4375l-12.468765 0l0 -1.484375l13.875015 0l0 5.265625l2.75 1.109375l-0.671875 1.78125q-0.296875 0.296875 -0.359375 -0.21875l-1.71875 -1.109375l0 7.640625l-12.76564 0q-1.1875 0 -1.1875 -1.1875l0 -2.15625l1.640625 -0.140625l0 1.703125q0 0.296875 0.29689026 0.296875l10.609375 0l0 -11.5zm-3.78125 3.78125l-3.125 0l0 3.9375l3.125 0l0 -3.9375zm-5.421875 3.9375l0.890625 0l0 -3.9375l-1.328125 0l0 -1.484375l7.265625 0l0 6.90625l-6.828125 0l0 -1.484375zm8.90625 16.390625q-0.890625 0.296875 -1.859375 0.890625q0.375 2.375 1.046875 4.6875l-1.5625 0.65625q-0.4375 -1.921875 -0.8125 -4.515625q-1.484375 1.109375 -2.828125 2.890625l-1.25 -1.265625q0.59375 -2.671875 0.59375 -4.234375q0 -2.96875 -0.890625 -3.859375q-0.53125 -0.515625 -1.125 -0.515625q-0.734375 0 -1.1875 0.453125q-0.59376526 0.59375 -0.59376526 3.328125l0 4.53125l-1.625 -0.296875l0 -4.53125q0 -2.96875 1.1875 -4.15625q0.89064026 -0.890625 2.2968903 -0.890625q1.109375 0 1.9375 0.828125q1.25 1.25 1.25 5.1875q0 1.34375 -0.21875 2.671875q1.109375 -1.03125 2.15625 -1.859375q-0.453125 -3.484375 -0.453125 -7.640625l1.5625 -0.21875q-0.078125 3.78125 0.296875 7.125q0.96875 -0.515625 1.859375 -0.8125q-0.21875 -2.75 -0.21875 -5.71875l1.484375 -0.15625q-0.078125 3.046875 0.140625 5.5q1.34375 -0.375 3.046875 -0.59375l0 1.625q-0.15625 0.75 -0.59375 0.078125q-1.109375 0.15625 -2.234375 0.375q0.234375 1.921875 0.75 3.9375l-1.484375 0.515625q-0.453125 -2.53125 -0.671875 -4.015625z" fill-rule="nonzero"/><path fill="#ffffff" d="m164.15486 154.1283l0 0c0 -4.8065796 3.8964996 -8.7030945 8.7030945 -8.7030945l67.44418 0c2.3082123 0 4.521881 0.91693115 6.154022 2.5490723c1.6321564 1.6321564 2.5490875 3.8458252 2.5490875 6.154022l0 97.869385c0 4.8065796 -3.896515 8.7030945 -8.70311 8.7030945l-67.44418 0c-4.806595 0 -8.7030945 -3.896515 -8.7030945 -8.7030945z" fill-rule="evenodd"/><path stroke="#000000" stroke-width="1.0" stroke-linejoin="round" stroke-linecap="butt" d="m164.15486 154.1283l0 0c0 -4.8065796 3.8964996 -8.7030945 8.7030945 -8.7030945l67.44418 0c2.3082123 0 4.521881 0.91693115 6.154022 2.5490723c1.6321564 1.6321564 2.5490875 3.8458252 2.5490875 6.154022l0 97.869385c0 4.8065796 -3.896515 8.7030945 -8.70311 8.7030945l-67.44418 0c-4.806595 0 -8.7030945 -3.896515 -8.7030945 -8.7030945z" fill-rule="evenodd"/><path fill="#000000" d="m205.09567 209.31111q-3.109375 -0.59375 -5.859375 -3.703125l-4.3125 0q-1.625 2.296875 -5.78125 4.15625l-0.671875 -1.484375q2.75 -0.890625 4.609375 -2.671875l-4.015625 0l0 -1.1875l4.90625 0l0.59375 -0.890625l-2.96875 0l0 -5.046875l2.140625 0l0 -1.34375l-4.75 0l0 -1.1875l4.75 0l0 -1.40625l1.1875 0q0.59375 0.078125 0.078125 0.4375l0 0.96875l4.015625 0l0 -1.40625l1.1875 0q0.59375 0.078125 0.0625 0.4375l0 0.96875l4.75 0l0 1.1875l-4.75 0l0 1.34375l2.15625 0l0 5.046875l-6.234375 0l-0.59375 0.890625l9.5 0l0 1.1875l-3.9375 0q1.265625 1.484375 4.390625 2.296875l-0.453125 1.40625zm-4.375 -1.859375l0 1.1875l-3.046875 0l0 1.421875l6.390625 0l0 1.1875l-14.03125 0l0 -1.1875l6.375 0l0 -1.421875l-3.03125 0l0 -1.1875l3.03125 0l0 -1.484375l1.1875 0q0.59375 0.078125 0.078125 0.453125l0 1.03125l3.046875 0zm-5.71875 -10.3125l0 1.34375l4.015625 0l0 -1.34375l-4.015625 0zm-2.15625 4.3125l0 1.1875l8.3125 0l0 -1.1875l-8.3125 0zm0 -2.078125l0 1.1875l8.3125 0l0 -1.1875l-8.3125 0zm20.71875 8.15625l-4.984375 1.78125q-0.0625 0.515625 -0.359375 0.21875l-0.59375 -1.703125l2.296875 -0.671875l0 -6.0l-2.15625 0l0 -1.421875l2.15625 0l0 -4.15625l1.40625 0q0.59375 0.078125 0.078125 0.453125l0 3.703125l1.921875 0l0 1.421875l-1.921875 0l0 5.640625l2.15625 -0.75l0 1.484375zm8.15625 2.15625q0.75 0 0.96875 -0.75l0.4375 -1.546875l1.640625 0.515625l-0.375 1.40625q-0.4375 1.78125 -2.15625 1.78125l-6.15625 0q-1.328125 0 -1.328125 -1.265625l0 -7.046875l-1.9375 0.75l-0.4375 -1.484375l2.375 -0.828125l0 -4.21875l1.40625 0q0.59375 0.0625 0.078125 0.4375l0 3.265625l1.78125 -0.671875l0 -5.046875l1.40625 0q0.59375 0.078125 0.078125 0.453125l0 4.078125l2.515625 -0.96875l0.15625 -0.296875l1.546875 1.046875l-0.296875 0.21875l0 5.640625q0 1.1875 -1.1875 1.1875l-1.484375 0l-0.359375 -1.40625l1.25 0q0.296875 0 0.296875 -0.296875l0 -4.453125l-2.4375 0.890625l0 6.375l-1.484375 0l0 -5.859375l-1.78125 0.671875l0 6.828125q0 0.59375 0.515625 0.59375l4.96875 0z" fill-rule="nonzero"/><path fill="#000000" fill-opacity="0.0" d="m316.042 120.37533l-33.35434 50.3937" fill-rule="evenodd"/><path stroke="#000000" stroke-width="3.0" stroke-linejoin="round" stroke-linecap="butt" d="m316.042 120.37533l-23.419586 35.38369" fill-rule="evenodd"/><path fill="#000000" stroke="#000000" stroke-width="3.0" stroke-linecap="butt" d="m288.49033 153.02408l-3.3820496 14.087753l11.64624 -8.617889z" fill-rule="evenodd"/><path fill="#000000" fill-opacity="0.0" d="m289.05774 86.65092l68.81891 0l0 36.97638l-68.81891 0z" fill-rule="evenodd"/><path fill="#000000" d="m309.12024 109.57342q1.5625 1.0625 4.125 1.5l-0.5 1.25q-4.9375 -1.0625 -6.6875 -4.625l-0.1875 0q-0.5 0.5625 -1.6875 1.375l0 1.9375l3.6875 -0.5625l0 0.9375q-2.125 0.5 -6.1875 1.125q-0.0625 0.4375 -0.3125 0.1875l-0.3125 -1.3125l2.0625 -0.25l0 -1.5q-1.625 0.9375 -3.75 1.4375l-0.4375 -1.1875q3.125 -0.625 5.3125 -2.1875l-5.375 0l0 -1.0l6.5625 0l0 -0.8125l-5.3125 0l0 -0.75l5.3125 0l0 -0.75l-2.125 0l-2.125 0l0 -3.5625l9.625 0l0 3.5625l-4.3125 0l0 0.75l5.375 0l0 0.75l-5.375 0l0 0.8125l6.625 0l0 1.0l-5.875 0q0.625 0.875 1.0625 1.25l1.875 -1.125l1.0 0.625q0.3125 0.25 -0.1875 0.25l-1.875 0.875zm-9.875 -10.4375l6.125 0l0 -1.125l1.1875 0q0.5 0.0625 0.0625 0.375l0 0.75l6.125 0l0 1.0l-13.5 0l0 -1.0zm3.0 2.4375l0 0.8125l3.1875 0l0 -0.8125l-3.1875 0zm4.25 0l0 0.8125l3.25 0l0 -0.8125l-3.25 0zm-4.25 1.25l0 0.8125l3.1875 0l0 -0.8125l-3.1875 0zm4.25 0l0 0.8125l3.25 0l0 -0.8125l-3.25 0zm10.6875 -1.3125l0 10.5l-1.25 0l0 -11.6875l4.4375 0l0.9375 -2.3125l1.5 0.5625q0.25 0.25 -0.1875 0.3125l-0.9375 1.4375l6.4375 0l0 10.75q0 1.0 -1.0 1.0l-1.8125 0l-0.125 -1.375l1.4375 0q0.25 0 0.25 -0.25l0 -8.9375l-9.6875 0zm3.1875 3.1875l0 2.625l3.3125 0l0 -2.625l-3.3125 0zm3.3125 4.5625l0 -0.75l-3.3125 0l0 1.125l-1.25 0l0 -6.125l5.8125 0l0 5.75l-1.25 0zm13.8125 -7.5q0.25 0.75 0.75 1.5625q2.0 -0.3125 3.9375 -0.875l0.5625 1.3125q-1.625 0.375 -3.8125 0.6875q0.9375 1.25 2.4375 2.375l-1.0625 1.0625q-2.25 -0.5 -3.5625 -0.5q-2.5 0 -3.25 0.75q-0.4375 0.4375 -0.4375 0.9375q0 0.625 0.375 1.0q0.5 0.5 2.8125 0.5l3.8125 0l-0.25 1.375l-3.8125 0q-2.5 0 -3.5 -1.0q-0.75 -0.75 -0.75 -1.9375q0 -0.9375 0.6875 -1.625q1.0625 -1.0625 4.375 -1.0625q1.125 0 2.25 0.1875q-0.875 -0.9375 -1.5625 -1.8125q-2.9375 0.375 -6.4375 0.375l-0.1875 -1.3125q3.1875 0.0625 6.0 -0.25q-0.4375 -0.8125 -0.6875 -1.5625q-2.3125 0.1875 -4.8125 0.1875l-0.125 -1.25q2.5625 0.0625 4.625 -0.125q-0.3125 -1.125 -0.5 -2.5625l1.375 0q0.625 0.125 0.0625 0.5q0.125 0.9375 0.3125 1.875q1.625 -0.1875 3.3125 -0.625l0.4375 1.25q-2.125 0.375 -3.375 0.5625z" fill-rule="nonzero"/><path fill="#000000" fill-opacity="0.0" d="m-0.4488189 191.63518l170.14174 0l0 47.62204l-170.14174 0z" fill-rule="evenodd"/><path fill="#000000" d="m19.738682 213.68268q1.0 1.25 3.75 2.25l-0.625 1.375q-4.875 -1.625 -6.1875 -6.875l-0.375 0q-0.62500095 0.875 -1.312501 1.5625l0 3.5l3.562501 -0.6875l0.1875 1.0625q-3.375001 0.8125 -6.625001 1.4375q-0.1875 0.5625 -0.375 0.1875l-0.4375 -1.5l2.4375 -0.3125l0 -2.6875q-1.625 1.125 -3.625 1.8125l-0.625 -1.25q3.125 -0.875 5.3125 -3.125l-5.0 0l0 -1.1875l6.0625 0l0 -1.125l-4.5 0l0 -1.1875l4.5 0l0 -1.125l-5.3125 0l0 -1.1875l5.3125 0l0 -1.5l1.187501 0q0.5 0.0625 0.0625 0.375l0 1.125l5.3125 0l0 1.1875l-5.3125 0l0 1.125l4.5 0l0 1.1875l-4.5 0l0 1.125l6.0625 0l0 1.1875l-5.3125 0q0.375 1.1875 1.25 2.5q1.1875 -1.0 2.25 -2.1875l0.9375 0.9375q0.0625 0.3125 -0.3125 0.1875q-1.0625 1.0 -2.25 1.8125zm7.9375 -7.1875l0 10.5l-1.25 0l0 -11.6875l4.4375 0l0.9375 -2.3125l1.5 0.5625q0.25 0.25 -0.1875 0.3125l-0.9375 1.4375l6.4375 0l0 10.75q0 1.0 -1.0 1.0l-1.8125 0l-0.125 -1.375l1.4375 0q0.25 0 0.25 -0.25l0 -8.9375l-9.6875 0zm3.1875 3.1875l0 2.625l3.3125 0l0 -2.625l-3.3125 0zm3.3125 4.5625l0 -0.75l-3.3125 0l0 1.125l-1.25 0l0 -6.125l5.8125 0l0 5.75l-1.25 0zm13.8125 -7.5q0.25 0.75 0.75 1.5625q2.0 -0.3125 3.9375 -0.875l0.5625 1.3125q-1.625 0.375 -3.8125 0.6875q0.9375 1.25 2.4375 2.375l-1.0625 1.0625q-2.25 -0.5 -3.5625 -0.5q-2.5 0 -3.25 0.75q-0.4375 0.4375 -0.4375 0.9375q0 0.625 0.375 1.0q0.5 0.5 2.8125 0.5l3.8125 0l-0.25 1.375l-3.8125 0q-2.5 0 -3.5 -1.0q-0.75 -0.75 -0.75 -1.9375q0 -0.9375 0.6875 -1.625q1.0625 -1.0625 4.375 -1.0625q1.125 0 2.25 0.1875q-0.875 -0.9375 -1.5625 -1.8125q-2.9375 0.375 -6.4375 0.375l-0.1875 -1.3125q3.1875 0.0625 6.0 -0.25q-0.4375 -0.8125 -0.6875 -1.5625q-2.3125 0.1875 -4.8125 0.1875l-0.125 -1.25q2.5625 0.0625 4.625 -0.125q-0.3125 -1.125 -0.5 -2.5625l1.375 0q0.625 0.125 0.0625 0.5q0.125 0.9375 0.3125 1.875q1.625 -0.1875 3.3125 -0.625l0.4375 1.25q-2.125 0.375 -3.375 0.5625z" fill-rule="nonzero"/><path fill="#000000" d="m55.504307 209.29205l0 -1.59375l1.59375 0l0 1.59375l-1.59375 0zm0 6.703125l0 -1.609375l1.59375 0l0 1.609375l-1.59375 0z" fill-rule="nonzero"/><path fill="#000000" d="m65.93399 214.74518l-2.7499962 0l0 2.625l-1.0625 0l0 -2.625l-2.875 0l0 -1.1875l2.875 0l0 -1.3125l-1.125 0l-1.125 0l0 -5.375l2.25 0l0 -1.25l-2.375 0l0 -1.0l2.375 0l0 -1.625l1.0 0q0.5 0.0625 0.0625 0.375l0 1.25l2.3749962 0l0 1.0l-2.3749962 0l0 1.25l2.1874962 0l0 5.375l-2.1874962 0l0 1.3125l2.7499962 0l0 1.1875zm-0.375 -5.3125q1.9375 -0.625 3.125 -1.5625q-1.125 -1.3125 -1.625 -2.875l-0.9375 0l0 -1.0l5.375 0l0.125 -0.25l1.125 0.75l-0.25 0.25q-0.625 1.5625 -2.0 3.0625q1.5625 0.875 3.3125 1.3125l-0.5625 1.3125q-2.375 -0.8125 -3.625 -1.75q-1.5 1.1875 -3.375 2.0l-0.6875 -1.25zm-1.25 1.8125l0 -1.1875l-1.1249962 0l0 1.1875l1.1249962 0zm-3.3749962 0l1.1875 0l0 -1.1875l-1.1875 0l0 1.1875zm1.1875 -2.1875l0 -1.1875l-1.1875 0l0 1.1875l1.1875 0zm2.1874962 0l0 -1.1875l-1.1249962 0l0 1.1875l1.1249962 0zm4.75 6.75l0 -2.6875l-2.4375 0l0 -1.1875l2.4375 0l0 -1.9375l1.1875 0q0.5 0.0625 0.0625 0.375l0 1.5625l2.4375 0l0 1.1875l-2.4375 0l0 2.6875l3.25 0l0 1.1875l-7.8125 0l0 -1.1875l3.3125 0zm-0.75 -10.8125q0.25 1.0 1.3125 2.0625q0.9375 -0.875 1.375 -2.0625l-2.6875 0zm18.3125 6.8125q0.75 -2.0 1.1875 -4.125l1.25 0.625q0.3125 0.3125 -0.3125 0.4375q-0.5 2.375 -1.75 4.625q1.0625 2.375 1.375 2.0q0.3125 -0.375 0.3125 -1.6875l1.1875 0.6875q-0.3125 2.625 -1.1875 2.8125q-1.0625 0.25 -2.5625 -2.625q-1.1875 1.625 -3.75 2.6875l-0.8125 -1.0625q3.125 -1.25 4.125 -2.9375q-0.6875 -3.875 -0.75 -6.75l-4.625 0l0 5.25q0 3.0625 -1.625 5.5625l-1.125 -0.8125q1.6875 -2.375 1.6875 -5.6875l0 -5.5l5.6875 0l0 -2.375l1.1875 0q0.5 0.0625 0.0625 0.375l0 2.0l3.125 0l0 1.1875l-3.125 0q0.125 3.3125 0.4375 5.3125zm1.1875 -6.625q-0.5 -0.625 -1.25 -1.1875l0.8125 -0.625q0.875 0.4375 1.3125 1.0l-0.875 0.8125zm-11.25 11.5q0.3125 0.625 -0.25 0.375l-1.1875 -0.875q1.5 -2.375 2.3125 -4.8125l1.0625 0.6875q-0.5 2.125 -1.9375 4.625zm4.5625 -6.875l3.375 0l0 4.125l-2.3125 0l0 1.0625l-1.0625 0l0 -5.1875zm1.0625 3.125l1.25 0l0 -2.125l-1.25 0l0 2.125zm-1.1875 -4.125l0 -1.1875l3.5625 0l0 1.1875l-3.5625 0zm-3.5625 1.4375q-1.125 -1.1875 -2.0 -1.8125l0.875 -1.1875q1.0625 0.6875 2.0 1.75l-0.875 1.25zm-0.375 -6.6875q1.0625 0.75 1.9375 1.8125l-1.0 1.125q-1.0 -1.1875 -1.875 -1.875l0.9375 -1.0625zm23.75 4.5625l-3.5625 0.125q-0.375 5.3125 -4.9375 8.375l-1.0625 -1.0625q4.3125 -2.875 4.5625 -7.3125l-4.4375 0.125l-0.125 -1.25l4.625 -0.125l0 -3.5l1.3125 0q0.6875 0.125 0.125 0.5l0 3.0l4.9375 -0.1875l0 3.875q0 3.0625 -0.5625 4.3125q-0.5625 1.25 -2.375 1.25l-1.5 0l-0.1875 -1.5625q0.9375 0.125 1.625 0.125q0.9375 0 1.1875 -0.625q0.375 -1.0 0.375 -3.5l0 -2.5625zm3.625 2.75l0 -1.375l13.9375 0l0 1.375l-13.9375 0zm23.375 1.4375q-3.3125 -1.6875 -5.4375 -2.25l0 6.5l-1.4375 0l0 -12.5l1.25 0q0.75 0.0625 0.1875 0.5l0 3.9375q3.0625 0.875 6.1875 2.375l-0.75 1.4375zm-0.125 -5.5q-1.0625 -1.3125 -2.125 -2.125l0.8125 -0.625q1.0625 0.8125 2.125 2.125l-0.8125 0.625zm1.5 -1.1875q-0.8125 -1.0625 -2.0625 -2.0625l0.8125 -0.625q1.0625 0.75 2.0625 2.0625l-0.8125 0.625z" fill-rule="nonzero"/><path fill="#000000" d="m11.363681 233.68642q-0.875 -1.109375 -1.484375 -2.578125q-0.59375 -1.484375 -0.59375 -3.0625q0 -1.390625 0.4375 -2.671875q0.53125 -1.484375 1.640625 -2.953125l0.75 0q-0.703125 1.21875 -0.9375 1.734375q-0.359375 0.8125 -0.5625 1.6875q-0.25 1.09375 -0.25 2.203125q0 2.828125 1.75 5.640625l-0.75 0z" fill-rule="nonzero"/><path fill="#000000" d="m17.9379 226.46767l-4.687501 0l0 -1.03125l9.609376 0l0 1.03125l-3.84375 0l0 0.609375q0 2.953125 -2.109375 4.875l-0.93750095 -0.703125q1.968751 -1.546875 1.968751 -4.171875l0 -0.609375zm-3.000001 -2.859375l0 -1.03125l5.765626 0l0 1.03125l-5.765626 0zm6.375001 -1.921875q0.609375 0.609375 1.3125 1.640625l-0.65625 0.46875q-0.65625 -0.9375 -1.3125 -1.6875l0.65625 -0.421875zm1.125 -0.609375q0.609375 0.65625 1.3125 1.59375l-0.65625 0.46875q-0.75 -1.03125 -1.3125 -1.59375l0.65625 -0.46875zm9.703125 4.359375q-0.328125 3.046875 -1.6875 4.40625q-1.359375 1.359375 -3.5625 2.15625l-0.609375 -0.890625q2.15625 -0.703125 3.375 -1.921875q1.3125 -1.3125 1.5 -4.453125l0.984375 0.328125q0.421875 0.140625 0 0.375zm-3.984375 1.6875q-0.5625 -1.265625 -1.125 -2.109375l0.890625 -0.46875q0.703125 0.890625 1.21875 2.109375l-0.984375 0.46875zm-2.390625 0.703125q-0.5625 -1.3125 -1.171875 -2.203125l0.9375 -0.46875q0.65625 0.890625 1.171875 2.15625l-0.9375 0.515625zm18.046875 -0.328125l-4.359375 0.46875l0.890625 3.796875l-1.03125 0.234375l-0.890625 -3.890625l-4.78125 0.5625l-0.140625 -0.984375l4.6875 -0.515625l-0.46875 -2.203125l-3.1875 0.375l-0.1875 -0.984375l3.09375 -0.328125l-0.46875 -2.15625l0.984375 -0.1875q0.421875 -0.046875 0.140625 0.328125l0.375 1.875l3.421875 -0.46875l0.1875 0.984375l-3.328125 0.421875l0.46875 2.203125l4.40625 -0.515625l0.1875 0.984375zm4.3125 -1.78125q0.5625 -0.1875 1.078125 -0.1875q0.609375 0 0.984375 0.375q0.28125 0.28125 0.328125 1.03125q1.40625 -0.515625 3.1875 -1.078125l0.328125 1.125q-1.828125 0.28125 -3.421875 0.890625l0 2.0625l-0.9375 0l0 -1.6875q-1.40625 0.65625 -1.828125 1.078125q-0.515625 0.515625 -0.515625 1.03125q0 0.28125 0.28125 0.5625q0.328125 0.328125 1.265625 0.328125l3.9375 0l0 0.890625l-3.984375 0q-1.5 0 -2.109375 -0.609375q-0.46875 -0.46875 -0.46875 -1.171875q0 -0.75 0.609375 -1.359375q0.9375 -0.9375 2.765625 -1.6875q-0.046875 -0.5625 -0.234375 -0.75q-0.1875 -0.1875 -0.796875 -0.1875q-0.9375 0 -2.859375 1.6875l-0.796875 -0.796875q2.203125 -1.359375 3.0 -3.0q-1.3125 0.09375 -2.625 0.1875l-0.1875 -0.9375q1.6875 -0.046875 3.1875 -0.140625q0.234375 -0.5625 0.5625 -1.875l0.890625 0.234375q0.46875 0.1875 0 0.375q-0.1875 0.609375 -0.421875 1.21875q1.6875 -0.140625 3.234375 -0.375l0.140625 0.984375q-1.828125 0.140625 -3.65625 0.28125q-0.46875 0.9375 -0.9375 1.5zm15.65625 2.296875q0.5624962 -1.5 0.8906212 -3.09375l0.9375 0.46875q0.234375 0.234375 -0.234375 0.328125q-0.375 1.78125 -1.3125 3.46875q0.796875 1.78125 1.03125 1.5q0.234375 -0.28125 0.234375 -1.265625l0.890625 0.515625q-0.234375 1.96875 -0.890625 2.109375q-0.796875 0.1875 -1.9218712 -1.96875q-0.890625 1.21875 -2.8125 2.015625l-0.609375 -0.796875q2.34375 -0.9375 3.09375 -2.203125q-0.515625 -2.90625 -0.5625 -5.0625l-3.46875 0l0 3.9375q0 2.296875 -1.21875 4.171875l-0.84375 -0.609375q1.265625 -1.78125 1.265625 -4.265625l0 -4.125l4.265625 0l0 -1.78125l0.890625 0q0.375 0.046875 0.046875 0.28125l0 1.5l2.3437462 0l0 0.890625l-2.3437462 0q0.09375 2.484375 0.328125 3.984375zm0.8906212 -4.96875q-0.375 -0.46875 -0.9374962 -0.890625l0.6093712 -0.46875q0.65625 0.328125 0.984375 0.75l-0.65625 0.609375zm-8.437496 8.625q0.234375 0.46875 -0.1875 0.28125l-0.890625 -0.65625q1.125 -1.78125 1.734375 -3.609375l0.796875 0.515625q-0.375 1.59375 -1.453125 3.46875zm3.421875 -5.15625l2.53125 0l0 3.09375l-1.734375 0l0 0.796875l-0.796875 0l0 -3.890625zm0.796875 2.34375l0.9375 0l0 -1.59375l-0.9375 0l0 1.59375zm-0.890625 -3.09375l0 -0.890625l2.671875 0l0 0.890625l-2.671875 0zm-2.671875 1.078125q-0.84375 -0.890625 -1.5 -1.359375l0.65625 -0.890625q0.796875 0.515625 1.5 1.3125l-0.65625 0.9375zm-0.28125 -5.015625q0.796875 0.5625 1.453125 1.359375l-0.75 0.84375q-0.75 -0.890625 -1.40625 -1.40625l0.703125 -0.796875zm13.171871 8.90625l1.125 0q2.34375 0 2.953125 -0.609375q0.515625 -0.515625 0.515625 -1.171875q0 -0.5625 -0.46875 -1.03125q-0.421875 -0.421875 -1.40625 -0.421875q-2.0625 0 -3.75 2.015625l-0.9375 -0.09375l0.515625 -5.015625l0.984375 0.1875q0.46875 0.1875 0 0.375l-0.328125 3.046875q1.640625 -1.40625 3.75 -1.40625q1.265625 0 2.015625 0.75q0.609375 0.609375 0.609375 1.59375q0 1.078125 -0.796875 1.875q-0.9375 0.9375 -3.5625 0.9375l-0.84375 0l-0.375 -1.03125zm-0.5625 -8.953125q1.3125 0.328125 3.5625 1.125l-0.46875 0.9375q-1.6875 -0.703125 -3.515625 -1.21875l0.421875 -0.84375zm15.84375 7.6875q-2.015625 2.203125 -4.359375 2.203125q-1.6875 0 -2.484375 -0.796875q-0.609375 -0.609375 -0.609375 -2.34375l0 -6.28125l0.984375 0q0.421875 0.09375 0.09375 0.375l0 5.90625q0 1.171875 0.421875 1.59375q0.515625 0.515625 1.546875 0.515625q1.828125 0 3.703125 -2.0625l0.703125 0.890625zm10.734375 1.078125l0 1.03125l-2.0625 0q-1.78125 0 -3.375 -0.84375l0.421875 -0.84375q1.21875 0.65625 2.953125 0.65625l2.0625 0zm-6.46875 -5.484375q-0.703125 4.171875 -1.734375 6.609375l-1.03125 -0.328125q1.265625 -2.953125 1.78125 -6.1875q-1.125 0.09375 -2.015625 0.09375l-0.1875 -0.9375q1.3125 0 2.34375 -0.09375q0.1875 -1.453125 0.328125 -2.53125l0.9375 0.1875q0.515625 0.140625 0.09375 0.375q-0.140625 0.5625 -0.375 1.875q1.078125 -0.140625 1.96875 -0.375l0.1875 0.9375q-1.21875 0.234375 -2.296875 0.375zm6.234375 1.59375q-2.71875 0.09375 -4.265625 0.75l-0.28125 -0.9375q2.015625 -0.796875 4.359375 -0.796875l0.1875 0.984375zm7.734375 3.9375q-0.5625 -0.984375 -0.9375 -1.40625l0.796875 -0.5625q0.375 0.421875 0.984375 1.359375l-0.84375 0.609375zm1.828125 0.65625q0.1875 0 0.1875 -0.1875l0 -2.765625l-3.9375 0l0 -0.890625l3.9375 0l0 -1.21875l-4.453125 0l0 4.453125l-0.796875 0l0 -0.375l-1.59375 0l0 0.84375l-0.796875 0l0 -8.625l3.1875 0l0 2.8125l2.859375 0l0 -1.359375l-2.015625 0l0 -0.890625l2.015625 0l0 -1.59375l0.890625 0q0.375 0.046875 0.046875 0.28125l0 1.3125l2.390625 0l0 0.890625l-2.390625 0l0 1.359375l3.28125 0l0 0.890625l-1.6875 0l0 1.21875l1.40625 0l0 0.890625l-1.40625 0l0 3.09375q0 0.75 -0.75 0.75l-0.984375 0l-0.1875 -0.890625l0.796875 0zm-6.65625 -5.484375l1.59375 0l0 -2.390625l-1.59375 0l0 2.390625zm0 3.609375l1.59375 0l0 -2.71875l-1.59375 0l0 2.71875zm16.59375 -4.828125q-0.796875 4.6875 -1.921875 5.8125q-0.609375 0.609375 -1.265625 0.609375q-0.75 0 -1.171875 -0.421875q-1.125 -1.125 -1.125 -2.8125q0 -2.0625 1.453125 -3.515625q1.59375 -1.59375 3.890625 -1.59375q2.0625 0 3.234375 1.171875q1.3125 1.3125 1.3125 3.09375q0 1.921875 -1.21875 3.140625q-0.796875 0.796875 -2.4375 1.546875l-0.984375 -0.984375q1.640625 -0.515625 2.578125 -1.453125q0.890625 -0.890625 0.890625 -2.15625q0 -1.5 -0.984375 -2.484375q-0.984375 -0.984375 -3.09375 -0.890625l0.84375 0.421875q0.5625 0.234375 0 0.515625zm-1.078125 -0.890625q-1.21875 0.28125 -2.109375 1.171875q-1.21875 1.21875 -1.21875 3.0q0 1.078125 0.703125 1.78125q0.140625 0.140625 0.421875 0.140625q0.28125 0 0.609375 -0.328125q1.078125 -1.078125 1.59375 -5.765625zm15.796875 4.546875q-0.46875 2.109375 -1.828125 3.609375l-0.984375 -0.5625q1.453125 -1.359375 1.921875 -3.375q-1.640625 -0.609375 -3.328125 -0.84375q-1.265625 2.71875 -1.6875 3.140625q-0.5625 0.5625 -1.3125 0.5625q-0.5625 0 -0.9375 -0.375q-0.421875 -0.421875 -0.421875 -1.265625q0 -0.984375 0.9375 -1.921875q1.03125 -1.03125 2.765625 -1.03125q0.5625 -1.453125 1.03125 -2.71875q-1.3125 0.328125 -2.625 0.609375l-0.421875 -0.9375q1.546875 -0.1875 2.953125 -0.515625l0.5625 -0.234375l0.796875 0.609375q0.46875 0.28125 -0.046875 0.421875q-0.609375 1.078125 -1.3125 2.8125q1.5 0.1875 3.1875 0.75q0.09375 -1.125 0.046875 -2.765625l0.890625 0.1875q0.515625 0.09375 0.09375 0.375q0 1.546875 -0.09375 2.53125q0.890625 0.328125 2.0625 0.9375l-0.46875 0.9375q-0.984375 -0.5625 -1.78125 -0.9375zm-5.203125 -1.171875q-1.078125 0 -1.734375 0.65625q-0.75 0.75 -0.75 1.40625q0 0.28125 0.1875 0.46875q0.140625 0.140625 0.421875 0.140625q0.421875 0 0.75 -0.515625q0.28125 -0.421875 1.125 -2.15625z" fill-rule="nonzero"/><path fill="#000000" d="m134.07852 233.68642l-0.75 0q1.75 -2.8125 1.75 -5.640625q0 -1.09375 -0.25 -2.1875q-0.203125 -0.875 -0.5625 -1.6875q-0.234375 -0.515625 -0.9375 -1.75l0.75 0q1.09375 1.46875 1.625 2.953125q0.453125 1.28125 0.453125 2.671875q0 1.578125 -0.609375 3.0625q-0.609375 1.46875 -1.46875 2.578125z" fill-rule="nonzero"/><path fill="#000000" fill-opacity="0.0" d="m84.62205 239.25722c0 23.219162 60.56559 44.742966 115.47744 46.43834c54.91185 1.695343 104.16995 -16.437714 115.47745 -33.723114c11.307465 -17.285385 -15.335724 -33.7231 -30.671417 -33.7231" fill-rule="evenodd"/><path stroke="#000000" stroke-width="3.0" stroke-linejoin="round" stroke-linecap="butt" d="m84.62205 239.25722c0 23.219162 60.56559 44.742966 115.47744 46.43831c54.91185 1.6953735 104.16998 -16.437683 115.47742 -33.723083c5.6537476 -8.6427 1.8198242 -17.073471 -5.344513 -23.343567c-1.7910461 -1.5675201 -3.7902832 -3.0000153 -5.9014587 -4.2669983c-0.5278015 -0.31674194 -1.0625916 -0.6231537 -1.6028748 -0.9187317c-0.1350708 -0.073913574 -0.2704773 -0.14712524 -0.40621948 -0.21966553l-0.101867676 -0.05380249" fill-rule="evenodd"/><path fill="#000000" stroke="#000000" stroke-width="3.0" stroke-linecap="butt" d="m303.57446 218.4032l-14.450287 1.0449829l11.741272 8.487976z" fill-rule="evenodd"/></g></svg>