<?xml version="1.0" encoding="us-ascii" standalone="no"?><svg xmlns="http://www.w3.org/2000/svg" xmlns:xlink="http://www.w3.org/1999/xlink" contentStyleType="text/css" height="553px" preserveAspectRatio="none" style="width:805px;height:553px;background:#FFFFFF;" version="1.1" viewBox="0 0 805 553" width="805px" zoomAndPan="magnify"><defs/><g><ellipse cx="468.5" cy="20" fill="#222222" rx="10" ry="10" style="stroke:#222222;stroke-width:1.0;"/><rect fill="#F1F1F1" height="35.7031" rx="12.5" ry="12.5" style="stroke:#181818;stroke-width:0.5;" width="307" x="315" y="112.3945"/><text fill="#000000" font-family="sans-serif" font-size="12" lengthAdjust="spacing" textLength="287" x="325" y="134.9102">[6-10-2] &#12496;&#12483;&#12501;&#12449;&#12363;&#12425;&#36890;&#24120;&#21177;&#26524;&#12450;&#12463;&#12471;&#12519;&#12531;&#12434;&#21462;&#12426;&#20986;&#12377;</text><polygon fill="#F1F1F1" points="327,168.0977,610,168.0977,622,180.0977,610,192.0977,327,192.0977,315,180.0977,327,168.0977" style="stroke:#181818;stroke-width:0.5;"/><text fill="#000000" font-family="sans-serif" font-size="11" lengthAdjust="spacing" textLength="283" x="327" y="184.373">[6-10-3] &#21462;&#12426;&#20986;&#12375;&#12383;&#36890;&#24120;&#21177;&#26524;&#12398;&#12479;&#12452;&#12511;&#12531;&#12464;&#12364;&#12513;&#12452;&#12531;&#12363;&#21028;&#23450;</text><text fill="#000000" font-family="sans-serif" font-size="11" lengthAdjust="spacing" textLength="17" x="298" y="177.1758">Yes</text><text fill="#000000" font-family="sans-serif" font-size="11" lengthAdjust="spacing" textLength="14" x="622" y="177.1758">No</text><polygon fill="#F1F1F1" points="213.25,202.0977,364.25,202.0977,376.25,214.0977,364.25,226.0977,213.25,226.0977,201.25,214.0977,213.25,202.0977" style="stroke:#181818;stroke-width:0.5;"/><text fill="#000000" font-family="sans-serif" font-size="11" lengthAdjust="spacing" textLength="151" x="213.25" y="218.373">[6-10-4] &#12473;&#12486;&#12540;&#12472;&#12364;&#31354;&#12363;&#21028;&#23450;&#65311;</text><text fill="#000000" font-family="sans-serif" font-size="11" lengthAdjust="spacing" textLength="17" x="184.25" y="211.1758">Yes</text><text fill="#000000" font-family="sans-serif" font-size="11" lengthAdjust="spacing" textLength="14" x="376.25" y="211.1758">No</text><rect fill="#F1F1F1" height="51.4063" rx="12.5" ry="12.5" style="stroke:#181818;stroke-width:0.5;" width="175" x="94.75" y="236.0977"/><text fill="#000000" font-family="sans-serif" font-size="12" lengthAdjust="spacing" textLength="155" x="104.75" y="258.6133">[6-10-5] &#36890;&#24120;&#21177;&#26524;&#12450;&#12463;&#12471;&#12519;&#12531;</text><text fill="#000000" font-family="sans-serif" font-size="12" lengthAdjust="spacing" textLength="96" x="104.75" y="274.3164">&#12434;&#12473;&#12486;&#12540;&#12472;&#12395;&#36861;&#21152;</text><rect fill="#F1F1F1" height="35.7031" rx="12.5" ry="12.5" style="stroke:#181818;stroke-width:0.5;" width="211" x="289.75" y="236.0977"/><text fill="#000000" font-family="sans-serif" font-size="12" lengthAdjust="spacing" textLength="191" x="299.75" y="258.6133">[6-10-6] &#36890;&#24120;&#21177;&#26524;&#12450;&#12463;&#12471;&#12519;&#12531;&#12434;&#30772;&#26820;</text><polygon fill="#F1F1F1" points="288.75,293.5039,300.75,305.5039,288.75,317.5039,276.75,305.5039,288.75,293.5039" style="stroke:#181818;stroke-width:0.5;"/><rect fill="#F1F1F1" height="51.4063" rx="12.5" ry="12.5" style="stroke:#181818;stroke-width:0.5;" width="235" x="530.75" y="202.0977"/><text fill="#000000" font-family="sans-serif" font-size="12" lengthAdjust="spacing" textLength="215" x="540.75" y="224.6133">[6-10-7] &#12479;&#12452;&#12511;&#12531;&#12464;&#12364;&#12463;&#12452;&#12483;&#12463;&#12398;&#22580;&#21512;&#12289;</text><text fill="#000000" font-family="sans-serif" font-size="12" lengthAdjust="spacing" textLength="204" x="540.75" y="240.3164">&#36890;&#24120;&#21177;&#26524;&#12450;&#12463;&#12471;&#12519;&#12531;&#12434;&#12473;&#12486;&#12540;&#12472;&#12395;&#36861;&#21152;</text><polygon fill="#F1F1F1" points="468.5,323.5039,480.5,335.5039,468.5,347.5039,456.5,335.5039,468.5,323.5039" style="stroke:#181818;stroke-width:0.5;"/><path d="M45,414.4766 L45,475.5117 A0,0 0 0 0 45,475.5117 L313,475.5117 A0,0 0 0 0 313,475.5117 L313,448.9941 L333,444.9941 L313,440.9941 L313,424.4766 L303,414.4766 L45,414.4766 A0,0 0 0 0 45,414.4766 " fill="#FEFFDD" style="stroke:#181818;stroke-width:0.5;"/><path d="M303,414.4766 L303,424.4766 L313,424.4766 L303,414.4766 " fill="#FEFFDD" style="stroke:#181818;stroke-width:0.5;"/><text fill="#000000" font-family="sans-serif" font-size="13" lengthAdjust="spacing" textLength="234" x="51" y="433.0352">&#35480;&#30330;&#12375;&#12383;&#12450;&#12463;&#12471;&#12519;&#12531;&#12398;&#12467;&#12531;&#12488;&#12525;&#12540;&#12521;&#12540;&#12399;</text><text fill="#000000" font-family="sans-serif" font-size="13" lengthAdjust="spacing" textLength="247" x="51" y="450.0469">&#36215;&#22240;&#12392;&#12394;&#12387;&#12383;&#12450;&#12463;&#12471;&#12519;&#12531;&#12398;&#12467;&#12531;&#12488;&#12525;&#12540;&#12521;&#12540;</text><text fill="#000000" font-family="sans-serif" font-size="13" lengthAdjust="spacing" textLength="78" x="51" y="467.0586">&#12395;&#12394;&#12426;&#12414;&#12377;&#12290;</text><rect fill="#F1F1F1" height="35.7031" rx="12.5" ry="12.5" style="stroke:#181818;stroke-width:0.5;" width="271" x="333" y="427.1426"/><text fill="#000000" font-family="sans-serif" font-size="12" lengthAdjust="spacing" textLength="251" x="343" y="449.6582">[6-10-9] &#35480;&#30330;&#12375;&#12383;&#12450;&#12463;&#12471;&#12519;&#12531;&#12434;&#12496;&#12483;&#12501;&#12449;&#12395;&#36861;&#21152;</text><polygon fill="#F1F1F1" points="371,367.5039,566,367.5039,578,379.5039,566,391.5039,371,391.5039,359,379.5039,371,367.5039" style="stroke:#181818;stroke-width:0.5;"/><text fill="#000000" font-family="sans-serif" font-size="11" lengthAdjust="spacing" textLength="17" x="472.5" y="402.9766">Yes</text><text fill="#000000" font-family="sans-serif" font-size="11" lengthAdjust="spacing" textLength="195" x="371" y="383.7793">[6-10-8] &#12450;&#12463;&#12471;&#12519;&#12531;&#12364;&#35480;&#30330;&#12375;&#12383;&#12363;&#12434;&#21028;&#23450;</text><text fill="#000000" font-family="sans-serif" font-size="11" lengthAdjust="spacing" textLength="14" x="578" y="376.582">No</text><polygon fill="#F1F1F1" points="468.5,495.5117,480.5,507.5117,468.5,519.5117,456.5,507.5117,468.5,495.5117" style="stroke:#181818;stroke-width:0.5;"/><polygon fill="#F1F1F1" points="321.5,50,615.5,50,627.5,62,615.5,74,321.5,74,309.5,62,321.5,50" style="stroke:#181818;stroke-width:0.5;"/><text fill="#000000" font-family="sans-serif" font-size="11" lengthAdjust="spacing" textLength="17" x="472.5" y="85.4727">Yes</text><text fill="#000000" font-family="sans-serif" font-size="11" lengthAdjust="spacing" textLength="294" x="321.5" y="66.2754">[6-10-1] &#12496;&#12483;&#12501;&#12449;&#12363;&#12425;&#35442;&#24403;&#12398;&#36890;&#24120;&#21177;&#26524;&#12450;&#12463;&#12471;&#12519;&#12531;&#12364;&#12354;&#12427;&#12363;&#65311;</text><text fill="#000000" font-family="sans-serif" font-size="11" lengthAdjust="spacing" textLength="14" x="295.5" y="59.0781">No</text><ellipse cx="24" cy="109" fill="none" rx="11" ry="11" style="stroke:#222222;stroke-width:1.0;"/><ellipse cx="24" cy="109" fill="#222222" rx="6" ry="6" style="stroke:#222222;stroke-width:1.0;"/><line style="stroke:#181818;stroke-width:1.0;" x1="201.25" x2="182.25" y1="214.0977" y2="214.0977"/><line style="stroke:#181818;stroke-width:1.0;" x1="182.25" x2="182.25" y1="214.0977" y2="236.0977"/><polygon fill="#181818" points="178.25,226.0977,182.25,236.0977,186.25,226.0977,182.25,230.0977" style="stroke:#181818;stroke-width:1.0;"/><line style="stroke:#181818;stroke-width:1.0;" x1="376.25" x2="395.25" y1="214.0977" y2="214.0977"/><line style="stroke:#181818;stroke-width:1.0;" x1="395.25" x2="395.25" y1="214.0977" y2="236.0977"/><polygon fill="#181818" points="391.25,226.0977,395.25,236.0977,399.25,226.0977,395.25,230.0977" style="stroke:#181818;stroke-width:1.0;"/><line style="stroke:#181818;stroke-width:1.0;" x1="182.25" x2="182.25" y1="287.5039" y2="305.5039"/><line style="stroke:#181818;stroke-width:1.0;" x1="182.25" x2="276.75" y1="305.5039" y2="305.5039"/><polygon fill="#181818" points="266.75,301.5039,276.75,305.5039,266.75,309.5039,270.75,305.5039" style="stroke:#181818;stroke-width:1.0;"/><line style="stroke:#181818;stroke-width:1.0;" x1="395.25" x2="395.25" y1="271.8008" y2="305.5039"/><line style="stroke:#181818;stroke-width:1.0;" x1="395.25" x2="300.75" y1="305.5039" y2="305.5039"/><polygon fill="#181818" points="310.75,301.5039,300.75,305.5039,310.75,309.5039,306.75,305.5039" style="stroke:#181818;stroke-width:1.0;"/><line style="stroke:#181818;stroke-width:1.0;" x1="315" x2="288.75" y1="180.0977" y2="180.0977"/><line style="stroke:#181818;stroke-width:1.0;" x1="288.75" x2="288.75" y1="180.0977" y2="202.0977"/><polygon fill="#181818" points="284.75,192.0977,288.75,202.0977,292.75,192.0977,288.75,196.0977" style="stroke:#181818;stroke-width:1.0;"/><line style="stroke:#181818;stroke-width:1.0;" x1="622" x2="648.25" y1="180.0977" y2="180.0977"/><line style="stroke:#181818;stroke-width:1.0;" x1="648.25" x2="648.25" y1="180.0977" y2="202.0977"/><polygon fill="#181818" points="644.25,192.0977,648.25,202.0977,652.25,192.0977,648.25,196.0977" style="stroke:#181818;stroke-width:1.0;"/><line style="stroke:#181818;stroke-width:1.0;" x1="288.75" x2="288.75" y1="317.5039" y2="335.5039"/><line style="stroke:#181818;stroke-width:1.0;" x1="288.75" x2="456.5" y1="335.5039" y2="335.5039"/><polygon fill="#181818" points="446.5,331.5039,456.5,335.5039,446.5,339.5039,450.5,335.5039" style="stroke:#181818;stroke-width:1.0;"/><line style="stroke:#181818;stroke-width:1.0;" x1="648.25" x2="648.25" y1="253.5039" y2="335.5039"/><line style="stroke:#181818;stroke-width:1.0;" x1="648.25" x2="480.5" y1="335.5039" y2="335.5039"/><polygon fill="#181818" points="490.5,331.5039,480.5,335.5039,490.5,339.5039,486.5,335.5039" style="stroke:#181818;stroke-width:1.0;"/><line style="stroke:#181818;stroke-width:1.0;" x1="468.5" x2="468.5" y1="148.0977" y2="168.0977"/><polygon fill="#181818" points="464.5,158.0977,468.5,168.0977,472.5,158.0977,468.5,162.0977" style="stroke:#181818;stroke-width:1.0;"/><line style="stroke:#181818;stroke-width:1.0;" x1="468.5" x2="468.5" y1="391.5039" y2="427.1426"/><polygon fill="#181818" points="464.5,417.1426,468.5,427.1426,472.5,417.1426,468.5,421.1426" style="stroke:#181818;stroke-width:1.0;"/><line style="stroke:#181818;stroke-width:1.0;" x1="578" x2="614" y1="379.5039" y2="379.5039"/><polygon fill="#181818" points="610,434.9941,614,444.9941,618,434.9941,614,438.9941" style="stroke:#181818;stroke-width:1.0;"/><line style="stroke:#181818;stroke-width:1.0;" x1="614" x2="614" y1="379.5039" y2="507.5117"/><line style="stroke:#181818;stroke-width:1.0;" x1="614" x2="480.5" y1="507.5117" y2="507.5117"/><polygon fill="#181818" points="490.5,503.5117,480.5,507.5117,490.5,511.5117,486.5,507.5117" style="stroke:#181818;stroke-width:1.0;"/><line style="stroke:#181818;stroke-width:1.0;" x1="468.5" x2="468.5" y1="462.8457" y2="495.5117"/><polygon fill="#181818" points="464.5,485.5117,468.5,495.5117,472.5,485.5117,468.5,489.5117" style="stroke:#181818;stroke-width:1.0;"/><line style="stroke:#181818;stroke-width:1.0;" x1="468.5" x2="468.5" y1="347.5039" y2="367.5039"/><polygon fill="#181818" points="464.5,357.5039,468.5,367.5039,472.5,357.5039,468.5,361.5039" style="stroke:#181818;stroke-width:1.0;"/><line style="stroke:#181818;stroke-width:1.0;" x1="468.5" x2="468.5" y1="74" y2="112.3945"/><polygon fill="#181818" points="464.5,102.3945,468.5,112.3945,472.5,102.3945,468.5,106.3945" style="stroke:#181818;stroke-width:1.0;"/><line style="stroke:#181818;stroke-width:1.0;" x1="468.5" x2="468.5" y1="519.5117" y2="529.5117"/><line style="stroke:#181818;stroke-width:1.0;" x1="468.5" x2="779.75" y1="529.5117" y2="529.5117"/><polygon fill="#181818" points="775.75,310.4668,779.75,300.4668,783.75,310.4668,779.75,306.4668" style="stroke:#181818;stroke-width:1.0;"/><line style="stroke:#181818;stroke-width:1.0;" x1="779.75" x2="779.75" y1="62" y2="529.5117"/><line style="stroke:#181818;stroke-width:1.0;" x1="779.75" x2="627.5" y1="62" y2="62"/><polygon fill="#181818" points="637.5,58,627.5,62,637.5,66,633.5,62" style="stroke:#181818;stroke-width:1.0;"/><line style="stroke:#181818;stroke-width:1.0;" x1="309.5" x2="24" y1="62" y2="62"/><line style="stroke:#181818;stroke-width:1.0;" x1="24" x2="24" y1="62" y2="98"/><polygon fill="#181818" points="20,88,24,98,28,88,24,92" style="stroke:#181818;stroke-width:1.0;"/><line style="stroke:#181818;stroke-width:1.0;" x1="468.5" x2="468.5" y1="30" y2="50"/><polygon fill="#181818" points="464.5,40,468.5,50,472.5,40,468.5,44" style="stroke:#181818;stroke-width:1.0;"/><!--SRC=[ZPFVJXf15CRlzodc3hWmgQtIgkahzBuHBanS8WbP6dSJRtTcZ20qbTBq3zG8LjAAfD1KZMX07kRBiFIAL-ZCib1sBTlknMGpc-ztlk-Siv7deOyMWLtwPLT5joiAjyEJut6l2lO5h0Ds0_uD_7BOUGFQ4hclJka0zbijyW-YPbfRkvQsjvFEw2Iw6LzQVhIqd2JW9N0E_Xxi5BG8TZXg_XJzTw3j-Vg1ug2lGHbOKKh6lLgCf4qIVQcRCOsGzGdxyT_OOKXM5aSVm0eYTmTQsP2aT6fgz4cIp7ty25hpaMWRR03M0A-vf1_A7pzrRwJNeiWtHBiQ8zQERinyplDNf5bs2tu0tWFhIhdJl9i9tOG1xIpdQfA4f4eOCfSVtHeD-g9Gtt0nUiQKqtYH3K3ZeL29TEfNmxDzZs5ifrDQaEMHdgfa3tgZO0qr6_b2sw9-9Kfvs3HXX5TT66HguKz7dwcwmPqPNNnoAju0tOKeBvYCPtujINoIXuPy6-Rhh96rT9BHKvRNsJ2GsfzBzSBpuDzLFjvK9-rCnTStudCTz1pq0lJi_n6UNdfJIbO0lPVB3PjD9-Vw30nlqarvUZ-hkZMjxAlV]--></g></svg>