<?xml version="1.0" encoding="us-ascii" standalone="no"?><svg xmlns="http://www.w3.org/2000/svg" xmlns:xlink="http://www.w3.org/1999/xlink" contentStyleType="text/css" height="928px" preserveAspectRatio="none" style="width:799px;height:928px;background:#FFFFFF;" version="1.1" viewBox="0 0 799 928" width="799px" zoomAndPan="magnify"><defs/><g><ellipse cx="385.25" cy="20" fill="#222222" rx="10" ry="10" style="stroke:#222222;stroke-width:1.0;"/><rect fill="#F1F1F1" height="35.7031" rx="12.5" ry="12.5" style="stroke:#181818;stroke-width:0.5;" width="98" x="336.25" y="50"/><text fill="#000000" font-family="sans-serif" font-size="12" lengthAdjust="spacing" textLength="78" x="346.25" y="72.5156">[1] &#12466;&#12540;&#12512;&#38283;&#22987;</text><rect fill="#F1F1F1" height="35.7031" rx="12.5" ry="12.5" style="stroke:#181818;stroke-width:0.5;" width="230" x="270.25" y="105.7031"/><text fill="#000000" font-family="sans-serif" font-size="12" lengthAdjust="spacing" textLength="210" x="280.25" y="128.2188">[2] &#12479;&#12540;&#12531;&#12503;&#12524;&#12452;&#12516;&#12540;&#12395;&#12481;&#12515;&#12531;&#12473;&#12434;&#31227;&#21205;</text><polygon fill="#F1F1F1" points="317.25,205.4063,453.25,205.4063,465.25,217.4063,453.25,229.4063,317.25,229.4063,305.25,217.4063,317.25,205.4063" style="stroke:#181818;stroke-width:0.5;"/><text fill="#000000" font-family="sans-serif" font-size="11" lengthAdjust="spacing" textLength="136" x="317.25" y="221.6816">[3] &#12450;&#12463;&#12471;&#12519;&#12531;&#12434;&#36215;&#12371;&#12377;&#12363;&#65311;</text><text fill="#000000" font-family="sans-serif" font-size="11" lengthAdjust="spacing" textLength="17" x="288.25" y="214.4844">Yes</text><text fill="#000000" font-family="sans-serif" font-size="11" lengthAdjust="spacing" textLength="14" x="465.25" y="214.4844">No</text><rect fill="#F1F1F1" height="35.7031" rx="12.5" ry="12.5" style="stroke:#181818;stroke-width:0.5;" width="146" x="101.5" y="239.4063"/><text fill="#000000" font-family="sans-serif" font-size="12" lengthAdjust="spacing" textLength="126" x="111.5" y="261.9219">[4] &#12497;&#12473;&#35352;&#37682;&#12398;&#12522;&#12475;&#12483;&#12488;</text><rect fill="#F1F1F1" height="35.7031" rx="12.5" ry="12.5" style="stroke:#181818;stroke-width:0.5;" width="146" x="101.5" y="295.1094"/><text fill="#000000" font-family="sans-serif" font-size="12" lengthAdjust="spacing" textLength="126" x="111.5" y="317.625">[5] &#12450;&#12463;&#12471;&#12519;&#12531;&#12434;&#36215;&#12371;&#12377;</text><rect fill="#F1F1F1" height="35.7031" rx="12.5" ry="12.5" style="stroke:#181818;stroke-width:0.5;" width="110" x="119.5" y="365.8125"/><text fill="#000000" font-family="sans-serif" font-size="12" lengthAdjust="spacing" textLength="90" x="129.5" y="388.3281">[6] &#35480;&#30330;&#12481;&#12455;&#12483;&#12463;</text><polygon fill="#F1F1F1" points="145,436.5156,204,436.5156,216,448.5156,204,460.5156,145,460.5156,133,448.5156,145,436.5156" style="stroke:#181818;stroke-width:0.5;"/><text fill="#000000" font-family="sans-serif" font-size="11" lengthAdjust="spacing" textLength="59" x="145" y="452.791">[7] &#21363;&#26178;&#12363;&#65311;</text><text fill="#000000" font-family="sans-serif" font-size="11" lengthAdjust="spacing" textLength="17" x="116" y="445.5938">Yes</text><text fill="#000000" font-family="sans-serif" font-size="11" lengthAdjust="spacing" textLength="14" x="216" y="445.5938">No</text><rect fill="#F1F1F1" height="35.7031" rx="12.5" ry="12.5" style="stroke:#181818;stroke-width:0.5;" width="134" x="11" y="470.5156"/><text fill="#000000" font-family="sans-serif" font-size="12" lengthAdjust="spacing" textLength="114" x="21" y="493.0313">[8] &#12522;&#12463;&#12456;&#12473;&#12488;&#12398;&#35299;&#27770;</text><polygon fill="#F1F1F1" points="48.5,541.2188,107.5,541.2188,119.5,553.2188,107.5,565.2188,48.5,565.2188,36.5,553.2188,48.5,541.2188" style="stroke:#181818;stroke-width:0.5;"/><text fill="#000000" font-family="sans-serif" font-size="11" lengthAdjust="spacing" textLength="59" x="48.5" y="557.4941">[9] &#21213;&#25943;&#21028;&#23450;</text><text fill="#000000" font-family="sans-serif" font-size="11" lengthAdjust="spacing" textLength="22" x="119.5" y="550.2969">&#27770;&#30528;</text><ellipse cx="163.5" cy="553.2188" fill="none" rx="11" ry="11" style="stroke:#222222;stroke-width:1.0;"/><ellipse cx="163.5" cy="553.2188" fill="#222222" rx="6" ry="6" style="stroke:#222222;stroke-width:1.0;"/><rect fill="#F1F1F1" height="35.7031" rx="12.5" ry="12.5" style="stroke:#181818;stroke-width:0.5;" width="129" x="206.5" y="470.5156"/><text fill="#000000" font-family="sans-serif" font-size="12" lengthAdjust="spacing" textLength="109" x="216.5" y="493.0313">[10] &#12473;&#12486;&#12540;&#12472;&#12395;&#36861;&#21152;</text><polygon fill="#F1F1F1" points="174.5,614.0215,186.5,626.0215,174.5,638.0215,162.5,626.0215,174.5,614.0215" style="stroke:#181818;stroke-width:0.5;"/><rect fill="#F1F1F1" height="35.7031" rx="12.5" ry="12.5" style="stroke:#181818;stroke-width:0.5;" width="110" x="119.5" y="658.0215"/><text fill="#000000" font-family="sans-serif" font-size="12" lengthAdjust="spacing" textLength="90" x="129.5" y="680.5371">[6] &#35480;&#30330;&#12481;&#12455;&#12483;&#12463;</text><rect fill="#F1F1F1" height="35.7031" rx="12.5" ry="12.5" style="stroke:#181818;stroke-width:0.5;" width="129" x="531.5" y="239.4063"/><text fill="#000000" font-family="sans-serif" font-size="12" lengthAdjust="spacing" textLength="109" x="541.5" y="261.9219">[11] &#12497;&#12473;&#35352;&#37682;&#12395;&#30331;&#37682;</text><polygon fill="#F1F1F1" points="536,295.1094,656,295.1094,668,307.1094,656,319.1094,536,319.1094,524,307.1094,536,295.1094" style="stroke:#181818;stroke-width:0.5;"/><text fill="#000000" font-family="sans-serif" font-size="11" lengthAdjust="spacing" textLength="120" x="536" y="311.3848">[12] &#20840;&#21729;&#12364;&#12497;&#12473;&#12375;&#12383;&#12363;&#65311;</text><text fill="#000000" font-family="sans-serif" font-size="11" lengthAdjust="spacing" textLength="17" x="507" y="304.1875">Yes</text><text fill="#000000" font-family="sans-serif" font-size="11" lengthAdjust="spacing" textLength="14" x="668" y="304.1875">No</text><rect fill="#F1F1F1" height="35.7031" rx="12.5" ry="12.5" style="stroke:#181818;stroke-width:0.5;" width="225" x="379" y="329.1094"/><text fill="#000000" font-family="sans-serif" font-size="12" lengthAdjust="spacing" textLength="205" x="389" y="351.625">[13] &#12523;&#12540;&#12523;&#12471;&#12473;&#12486;&#12512;&#12395;&#12481;&#12515;&#12531;&#12473;&#12434;&#31227;&#21205;</text><rect fill="#F1F1F1" height="35.7031" rx="12.5" ry="12.5" style="stroke:#181818;stroke-width:0.5;" width="153" x="415" y="449.0098"/><text fill="#000000" font-family="sans-serif" font-size="12" lengthAdjust="spacing" textLength="133" x="425" y="471.5254">[15] &#12473;&#12486;&#12540;&#12472;&#12363;&#12425;&#21462;&#20986;&#12375;</text><rect fill="#F1F1F1" height="35.7031" rx="12.5" ry="12.5" style="stroke:#181818;stroke-width:0.5;" width="134" x="424.5" y="519.7129"/><text fill="#000000" font-family="sans-serif" font-size="12" lengthAdjust="spacing" textLength="114" x="434.5" y="542.2285">[8] &#12522;&#12463;&#12456;&#12473;&#12488;&#12398;&#35299;&#27770;</text><polygon fill="#F1F1F1" points="462,585.2188,521,585.2188,533,597.2188,521,609.2188,462,609.2188,450,597.2188,462,585.2188" style="stroke:#181818;stroke-width:0.5;"/><text fill="#000000" font-family="sans-serif" font-size="11" lengthAdjust="spacing" textLength="59" x="462" y="601.4941">[9] &#21213;&#25943;&#21028;&#23450;</text><text fill="#000000" font-family="sans-serif" font-size="11" lengthAdjust="spacing" textLength="22" x="533" y="594.2969">&#27770;&#30528;</text><ellipse cx="577" cy="597.2188" fill="none" rx="11" ry="11" style="stroke:#222222;stroke-width:1.0;"/><ellipse cx="577" cy="597.2188" fill="#222222" rx="6" ry="6" style="stroke:#222222;stroke-width:1.0;"/><rect fill="#F1F1F1" height="35.7031" rx="12.5" ry="12.5" style="stroke:#181818;stroke-width:0.5;" width="110" x="436.5" y="677.2188"/><text fill="#000000" font-family="sans-serif" font-size="12" lengthAdjust="spacing" textLength="90" x="446.5" y="699.7344">[6] &#35480;&#30330;&#12481;&#12455;&#12483;&#12463;</text><polygon fill="#F1F1F1" points="387.5,399.8125,595.5,399.8125,607.5,411.8125,595.5,423.8125,387.5,423.8125,375.5,411.8125,387.5,399.8125" style="stroke:#181818;stroke-width:0.5;"/><text fill="#000000" font-family="sans-serif" font-size="11" lengthAdjust="spacing" textLength="17" x="495.5" y="435.2852">Yes</text><text fill="#000000" font-family="sans-serif" font-size="11" lengthAdjust="spacing" textLength="208" x="387.5" y="416.0879">[14] &#12473;&#12486;&#12540;&#12472;&#12395;&#12522;&#12463;&#12456;&#12473;&#12488;&#12364;&#23384;&#22312;&#12377;&#12427;&#12363;&#65311;</text><text fill="#000000" font-family="sans-serif" font-size="11" lengthAdjust="spacing" textLength="14" x="607.5" y="408.8906">No</text><polygon fill="#F1F1F1" points="491.5,732.9219,503.5,744.9219,491.5,756.9219,479.5,744.9219,491.5,732.9219" style="stroke:#181818;stroke-width:0.5;"/><rect fill="#F1F1F1" height="35.7031" rx="12.5" ry="12.5" style="stroke:#181818;stroke-width:0.5;" width="230" x="376.5" y="776.9219"/><text fill="#000000" font-family="sans-serif" font-size="12" lengthAdjust="spacing" textLength="210" x="386.5" y="799.4375">[2] &#12479;&#12540;&#12531;&#12503;&#12524;&#12452;&#12516;&#12540;&#12395;&#12481;&#12515;&#12531;&#12473;&#12434;&#31227;&#21205;</text><rect fill="#F1F1F1" height="35.7031" rx="12.5" ry="12.5" style="stroke:#181818;stroke-width:0.5;" width="117" x="642" y="329.1094"/><text fill="#000000" font-family="sans-serif" font-size="12" lengthAdjust="spacing" textLength="97" x="652" y="351.625">[16] &#12481;&#12515;&#12531;&#12473;&#31227;&#21205;</text><polygon fill="#F1F1F1" points="596,818.625,608,830.625,596,842.625,584,830.625,596,818.625" style="stroke:#181818;stroke-width:0.5;"/><polygon fill="#F1F1F1" points="385.25,848.625,397.25,860.625,385.25,872.625,373.25,860.625,385.25,848.625" style="stroke:#181818;stroke-width:0.5;"/><polygon fill="#F1F1F1" points="385.25,161.4063,397.25,173.4063,385.25,185.4063,373.25,173.4063,385.25,161.4063" style="stroke:#181818;stroke-width:0.5;"/><polygon fill="#F1F1F1" points="385.25,892.625,385.25,892.625,397.25,904.625,385.25,916.625,385.25,916.625,373.25,904.625,385.25,892.625" style="stroke:#181818;stroke-width:0.5;"/><line style="stroke:#181818;stroke-width:1.0;" x1="385.25" x2="385.25" y1="30" y2="50"/><polygon fill="#181818" points="381.25,40,385.25,50,389.25,40,385.25,44" style="stroke:#181818;stroke-width:1.0;"/><line style="stroke:#181818;stroke-width:1.0;" x1="385.25" x2="385.25" y1="85.7031" y2="105.7031"/><polygon fill="#181818" points="381.25,95.7031,385.25,105.7031,389.25,95.7031,385.25,99.7031" style="stroke:#181818;stroke-width:1.0;"/><line style="stroke:#181818;stroke-width:1.0;" x1="174.5" x2="174.5" y1="275.1094" y2="295.1094"/><polygon fill="#181818" points="170.5,285.1094,174.5,295.1094,178.5,285.1094,174.5,289.1094" style="stroke:#181818;stroke-width:1.0;"/><line style="stroke:#181818;stroke-width:1.0;" x1="174.5" x2="174.5" y1="330.8125" y2="365.8125"/><polygon fill="#181818" points="170.5,355.8125,174.5,365.8125,178.5,355.8125,174.5,359.8125" style="stroke:#181818;stroke-width:1.0;"/><line style="stroke:#181818;stroke-width:1.0;" x1="78" x2="78" y1="565.2188" y2="626.0215"/><line style="stroke:#181818;stroke-width:1.0;" x1="78" x2="162.5" y1="626.0215" y2="626.0215"/><polygon fill="#181818" points="152.5,622.0215,162.5,626.0215,152.5,630.0215,156.5,626.0215" style="stroke:#181818;stroke-width:1.0;"/><line style="stroke:#181818;stroke-width:1.0;" x1="119.5" x2="152.5" y1="553.2188" y2="553.2188"/><polygon fill="#181818" points="142.5,549.2188,152.5,553.2188,142.5,557.2188,146.5,553.2188" style="stroke:#181818;stroke-width:1.0;"/><line style="stroke:#181818;stroke-width:1.0;" x1="78" x2="78" y1="506.2188" y2="541.2188"/><polygon fill="#181818" points="74,531.2188,78,541.2188,82,531.2188,78,535.2188" style="stroke:#181818;stroke-width:1.0;"/><line style="stroke:#181818;stroke-width:1.0;" x1="133" x2="78" y1="448.5156" y2="448.5156"/><line style="stroke:#181818;stroke-width:1.0;" x1="78" x2="78" y1="448.5156" y2="470.5156"/><polygon fill="#181818" points="74,460.5156,78,470.5156,82,460.5156,78,464.5156" style="stroke:#181818;stroke-width:1.0;"/><line style="stroke:#181818;stroke-width:1.0;" x1="216" x2="271" y1="448.5156" y2="448.5156"/><line style="stroke:#181818;stroke-width:1.0;" x1="271" x2="271" y1="448.5156" y2="470.5156"/><polygon fill="#181818" points="267,460.5156,271,470.5156,275,460.5156,271,464.5156" style="stroke:#181818;stroke-width:1.0;"/><line style="stroke:#181818;stroke-width:1.0;" x1="271" x2="271" y1="506.2188" y2="626.0215"/><line style="stroke:#181818;stroke-width:1.0;" x1="271" x2="186.5" y1="626.0215" y2="626.0215"/><polygon fill="#181818" points="196.5,622.0215,186.5,626.0215,196.5,630.0215,192.5,626.0215" style="stroke:#181818;stroke-width:1.0;"/><line style="stroke:#181818;stroke-width:1.0;" x1="174.5" x2="174.5" y1="401.5156" y2="436.5156"/><polygon fill="#181818" points="170.5,426.5156,174.5,436.5156,178.5,426.5156,174.5,430.5156" style="stroke:#181818;stroke-width:1.0;"/><line style="stroke:#181818;stroke-width:1.0;" x1="174.5" x2="174.5" y1="638.0215" y2="658.0215"/><polygon fill="#181818" points="170.5,648.0215,174.5,658.0215,178.5,648.0215,174.5,652.0215" style="stroke:#181818;stroke-width:1.0;"/><line style="stroke:#181818;stroke-width:1.0;" x1="491.5" x2="491.5" y1="484.7129" y2="519.7129"/><polygon fill="#181818" points="487.5,509.7129,491.5,519.7129,495.5,509.7129,491.5,513.7129" style="stroke:#181818;stroke-width:1.0;"/><line style="stroke:#181818;stroke-width:1.0;" x1="491.5" x2="491.5" y1="609.2188" y2="677.2188"/><polygon fill="#181818" points="487.5,667.2188,491.5,677.2188,495.5,667.2188,491.5,671.2188" style="stroke:#181818;stroke-width:1.0;"/><line style="stroke:#181818;stroke-width:1.0;" x1="533" x2="566" y1="597.2188" y2="597.2188"/><polygon fill="#181818" points="556,593.2188,566,597.2188,556,601.2188,560,597.2188" style="stroke:#181818;stroke-width:1.0;"/><line style="stroke:#181818;stroke-width:1.0;" x1="491.5" x2="491.5" y1="555.416" y2="585.2188"/><polygon fill="#181818" points="487.5,575.2188,491.5,585.2188,495.5,575.2188,491.5,579.2188" style="stroke:#181818;stroke-width:1.0;"/><line style="stroke:#181818;stroke-width:1.0;" x1="491.5" x2="491.5" y1="423.8125" y2="449.0098"/><polygon fill="#181818" points="487.5,439.0098,491.5,449.0098,495.5,439.0098,491.5,443.0098" style="stroke:#181818;stroke-width:1.0;"/><line style="stroke:#181818;stroke-width:1.0;" x1="607.5" x2="619.5" y1="411.8125" y2="411.8125"/><polygon fill="#181818" points="615.5,575.8672,619.5,585.8672,623.5,575.8672,619.5,579.8672" style="stroke:#181818;stroke-width:1.0;"/><line style="stroke:#181818;stroke-width:1.0;" x1="619.5" x2="619.5" y1="411.8125" y2="744.9219"/><line style="stroke:#181818;stroke-width:1.0;" x1="619.5" x2="503.5" y1="744.9219" y2="744.9219"/><polygon fill="#181818" points="513.5,740.9219,503.5,744.9219,513.5,748.9219,509.5,744.9219" style="stroke:#181818;stroke-width:1.0;"/><line style="stroke:#181818;stroke-width:1.0;" x1="491.5" x2="491.5" y1="712.9219" y2="732.9219"/><polygon fill="#181818" points="487.5,722.9219,491.5,732.9219,495.5,722.9219,491.5,726.9219" style="stroke:#181818;stroke-width:1.0;"/><line style="stroke:#181818;stroke-width:1.0;" x1="491.5" x2="491.5" y1="364.8125" y2="399.8125"/><polygon fill="#181818" points="487.5,389.8125,491.5,399.8125,495.5,389.8125,491.5,393.8125" style="stroke:#181818;stroke-width:1.0;"/><line style="stroke:#181818;stroke-width:1.0;" x1="491.5" x2="491.5" y1="756.9219" y2="776.9219"/><polygon fill="#181818" points="487.5,766.9219,491.5,776.9219,495.5,766.9219,491.5,770.9219" style="stroke:#181818;stroke-width:1.0;"/><line style="stroke:#181818;stroke-width:1.0;" x1="524" x2="491.5" y1="307.1094" y2="307.1094"/><line style="stroke:#181818;stroke-width:1.0;" x1="491.5" x2="491.5" y1="307.1094" y2="329.1094"/><polygon fill="#181818" points="487.5,319.1094,491.5,329.1094,495.5,319.1094,491.5,323.1094" style="stroke:#181818;stroke-width:1.0;"/><line style="stroke:#181818;stroke-width:1.0;" x1="668" x2="700.5" y1="307.1094" y2="307.1094"/><line style="stroke:#181818;stroke-width:1.0;" x1="700.5" x2="700.5" y1="307.1094" y2="329.1094"/><polygon fill="#181818" points="696.5,319.1094,700.5,329.1094,704.5,319.1094,700.5,323.1094" style="stroke:#181818;stroke-width:1.0;"/><line style="stroke:#181818;stroke-width:1.0;" x1="491.5" x2="491.5" y1="812.625" y2="830.625"/><line style="stroke:#181818;stroke-width:1.0;" x1="491.5" x2="584" y1="830.625" y2="830.625"/><polygon fill="#181818" points="574,826.625,584,830.625,574,834.625,578,830.625" style="stroke:#181818;stroke-width:1.0;"/><line style="stroke:#181818;stroke-width:1.0;" x1="700.5" x2="700.5" y1="364.8125" y2="830.625"/><line style="stroke:#181818;stroke-width:1.0;" x1="700.5" x2="608" y1="830.625" y2="830.625"/><polygon fill="#181818" points="618,826.625,608,830.625,618,834.625,614,830.625" style="stroke:#181818;stroke-width:1.0;"/><line style="stroke:#181818;stroke-width:1.0;" x1="596" x2="596" y1="275.1094" y2="295.1094"/><polygon fill="#181818" points="592,285.1094,596,295.1094,600,285.1094,596,289.1094" style="stroke:#181818;stroke-width:1.0;"/><line style="stroke:#181818;stroke-width:1.0;" x1="305.25" x2="174.5" y1="217.4063" y2="217.4063"/><line style="stroke:#181818;stroke-width:1.0;" x1="174.5" x2="174.5" y1="217.4063" y2="239.4063"/><polygon fill="#181818" points="170.5,229.4063,174.5,239.4063,178.5,229.4063,174.5,233.4063" style="stroke:#181818;stroke-width:1.0;"/><line style="stroke:#181818;stroke-width:1.0;" x1="465.25" x2="596" y1="217.4063" y2="217.4063"/><line style="stroke:#181818;stroke-width:1.0;" x1="596" x2="596" y1="217.4063" y2="239.4063"/><polygon fill="#181818" points="592,229.4063,596,239.4063,600,229.4063,596,233.4063" style="stroke:#181818;stroke-width:1.0;"/><line style="stroke:#181818;stroke-width:1.0;" x1="174.5" x2="174.5" y1="693.7246" y2="860.625"/><line style="stroke:#181818;stroke-width:1.0;" x1="174.5" x2="373.25" y1="860.625" y2="860.625"/><polygon fill="#181818" points="363.25,856.625,373.25,860.625,363.25,864.625,367.25,860.625" style="stroke:#181818;stroke-width:1.0;"/><line style="stroke:#181818;stroke-width:1.0;" x1="596" x2="596" y1="842.625" y2="860.625"/><line style="stroke:#181818;stroke-width:1.0;" x1="596" x2="397.25" y1="860.625" y2="860.625"/><polygon fill="#181818" points="407.25,856.625,397.25,860.625,407.25,864.625,403.25,860.625" style="stroke:#181818;stroke-width:1.0;"/><line style="stroke:#181818;stroke-width:1.0;" x1="385.25" x2="385.25" y1="185.4063" y2="205.4063"/><polygon fill="#181818" points="381.25,195.4063,385.25,205.4063,389.25,195.4063,385.25,199.4063" style="stroke:#181818;stroke-width:1.0;"/><line style="stroke:#181818;stroke-width:1.0;" x1="397.25" x2="773" y1="904.625" y2="904.625"/><polygon fill="#181818" points="769,561.7129,773,551.7129,777,561.7129,773,557.7129" style="stroke:#181818;stroke-width:1.0;"/><line style="stroke:#181818;stroke-width:1.0;" x1="773" x2="773" y1="173.4063" y2="904.625"/><line style="stroke:#181818;stroke-width:1.0;" x1="773" x2="397.25" y1="173.4063" y2="173.4063"/><polygon fill="#181818" points="407.25,169.4063,397.25,173.4063,407.25,177.4063,403.25,173.4063" style="stroke:#181818;stroke-width:1.0;"/><line style="stroke:#181818;stroke-width:1.0;" x1="385.25" x2="385.25" y1="872.625" y2="892.625"/><polygon fill="#181818" points="381.25,882.625,385.25,892.625,389.25,882.625,385.25,886.625" style="stroke:#181818;stroke-width:1.0;"/><line style="stroke:#181818;stroke-width:1.0;" x1="385.25" x2="385.25" y1="141.4063" y2="161.4063"/><polygon fill="#181818" points="381.25,151.4063,385.25,161.4063,389.25,151.4063,385.25,155.4063" style="stroke:#181818;stroke-width:1.0;"/><!--SRC=[dLDTIm9157ttLyoZlhMbLkv_w3t41w4D1L7HXLwR6IfhZIZnAn8jXHKjfI8iBVenbz7rgR_GpAvVgodXF2mxTywSU-wvTv9gCA4wV7ufW82y0Fq4MXdcDAPhCezkYkYt6Nq5cWVw2AG6j2OYk0aK0wsA8_81v6QWzvYMbHq99Qu4LKVu43dzMuBW0KWRI0UeRc9lZBSEu0pW8c3jvxFiGcf8YIBdlf9qEH1VFh-RNwFNdDQe5uRf5y0je0qWFQ0KQ4eUeJmhoSSeRm0PZSAWs1LoYIueIDiwD2Lk1n2xVEqNoH8r5ikEKDGmSzL5kJJ5HHbwjV_SbISmas-NyscbVZRFKZNMkXtpSU2WT3ob52kfnkAJW18z21-QEoMIL91pBpQRNzeGnVAyfy9xyixjDxw_s4N5oZwzlBHWEojdbEPDRWwAFVupuut41u2Tr5dc7d3Q0WFE0owlz4eINQTDSsoQeZSZtPNbCsDpK78lrBhWVPez5TXTNGmHqLQe6Idop3DgGCxPLOwTTNb1yXpyNyrUf-4BJRVtRgfWnT3-FI5saZLVxjBXymf3fbTiU3EnzRLUFZeAXIEAq_KB]--></g></svg>