<?xml version="1.0" encoding="UTF-8" standalone="no"?><svg xmlns="http://www.w3.org/2000/svg" xmlns:xlink="http://www.w3.org/1999/xlink" contentScriptType="application/ecmascript" contentStyleType="text/css" height="1047px" preserveAspectRatio="none" style="width:663px;height:1047px;" version="1.1" viewBox="0 0 663 1047" width="663px" zoomAndPan="magnify"><defs><filter height="300%" id="fh8kw9nn06pwy" width="300%" x="-1" y="-1"><feGaussianBlur result="blurOut" stdDeviation="2.0"/><feColorMatrix in="blurOut" result="blurOut2" type="matrix" values="0 0 0 0 0 0 0 0 0 0 0 0 0 0 0 0 0 0 .4 0"/><feOffset dx="4.0" dy="4.0" in="blurOut2" result="blurOut3"/><feBlend in="SourceGraphic" in2="blurOut3" mode="normal"/></filter></defs><g><ellipse cx="418" cy="20" fill="#000000" filter="url(#fh8kw9nn06pwy)" rx="10" ry="10" style="stroke: none; stroke-width: 1.0;"/><rect fill="#FEFECE" filter="url(#fh8kw9nn06pwy)" height="51.4063" rx="12.5" ry="12.5" style="stroke: #A80036; stroke-width: 1.5;" width="248" x="294" y="50"/><text fill="#000000" font-family="sans-serif" font-size="12" lengthAdjust="spacingAndGlyphs" textLength="225" x="304" y="72.5156">[10-1]誘発したアクションをプレイヤー毎</text><text fill="#000000" font-family="sans-serif" font-size="12" lengthAdjust="spacingAndGlyphs" textLength="228" x="304" y="88.2188">の誘発即時リストと誘発通常リストに追加</text><rect fill="#FFFFFF" filter="url(#fh8kw9nn06pwy)" height="516.498" style="stroke: #000000; stroke-width: 2.0;" width="580" x="45" y="183.8008"/><path d="M269,184.8008 L269,195.1211 L259,205.1211 L45,205.1211 " fill="none" style="stroke: #000000; stroke-width: 2.0;"/><text fill="#000000" font-family="sans-serif" font-size="14" lengthAdjust="spacingAndGlyphs" textLength="214" x="48" y="199.4023">即時効果:プレイヤー単位に繰返し</text><path d="M57,438.957 L57,482.9805 L247,482.9805 L247,448.957 L237,438.957 L57,438.957 " fill="#FBFB77" filter="url(#fh8kw9nn06pwy)" style="stroke: #A80036; stroke-width: 1.0;"/><path d="M237,438.957 L237,448.957 L247,448.957 L237,438.957 " fill="#FBFB77" style="stroke: #A80036; stroke-width: 1.0;"/><text fill="#000000" font-family="sans-serif" font-size="13" lengthAdjust="spacingAndGlyphs" textLength="169" x="63" y="457.5156">順番はターンプレイヤーから</text><text fill="#000000" font-family="sans-serif" font-size="13" lengthAdjust="spacingAndGlyphs" textLength="130" x="63" y="474.5273">ターンが回る順に行う</text><rect fill="#FFFFFF" filter="url(#fh8kw9nn06pwy)" height="360.7715" style="stroke: #000000; stroke-width: 2.0;" width="322" x="269" y="283.5273"/><path d="M493,284.5273 L493,294.8477 L483,304.8477 L269,304.8477 " fill="none" style="stroke: #000000; stroke-width: 2.0;"/><text fill="#000000" font-family="sans-serif" font-size="14" lengthAdjust="spacingAndGlyphs" textLength="214" x="272" y="299.1289">即時効果:アクション単位に繰返し</text><rect fill="#FEFECE" filter="url(#fh8kw9nn06pwy)" height="35.7031" rx="12.5" ry="12.5" style="stroke: #A80036; stroke-width: 1.5;" width="209" x="313.5" y="393.2539"/><text fill="#000000" font-family="sans-serif" font-size="12" lengthAdjust="spacingAndGlyphs" textLength="189" x="323.5" y="415.7695">[10-5]即時効果のアクションを解決</text><polygon fill="#FEFECE" filter="url(#fh8kw9nn06pwy)" points="382,453.6836,454,453.6836,466,465.6836,454,477.6836,382,477.6836,370,465.6836,382,453.6836" style="stroke: #A80036; stroke-width: 1.5;"/><text fill="#000000" font-family="sans-serif" font-size="11" lengthAdjust="spacingAndGlyphs" textLength="72" x="382" y="469.959">[10-6]勝敗判定</text><text fill="#000000" font-family="sans-serif" font-size="11" lengthAdjust="spacingAndGlyphs" textLength="22" x="466" y="462.7617">決着</text><ellipse cx="510" cy="465.6836" fill="#FFFFFF" filter="url(#fh8kw9nn06pwy)" rx="11" ry="11" style="stroke: #000000; stroke-width: 1.0;"/><ellipse cx="510" cy="465.6836" fill="#000000" rx="6" ry="6" style="stroke: #7F7F7F; stroke-width: 1.0;"/><rect fill="#FEFECE" filter="url(#fh8kw9nn06pwy)" height="51.4063" rx="12.5" ry="12.5" style="stroke: #A80036; stroke-width: 1.5;" width="248" x="294" y="520.6836"/><text fill="#000000" font-family="sans-serif" font-size="12" lengthAdjust="spacingAndGlyphs" textLength="225" x="304" y="543.1992">[10-7]誘発したアクションをプレイヤー毎</text><text fill="#000000" font-family="sans-serif" font-size="12" lengthAdjust="spacingAndGlyphs" textLength="228" x="304" y="558.9023">の誘発即時リストと誘発通常リストに追加</text><rect fill="#FEFECE" filter="url(#fh8kw9nn06pwy)" height="51.4063" rx="12.5" ry="12.5" style="stroke: #A80036; stroke-width: 1.5;" width="221" x="307.5" y="321.8477"/><text fill="#000000" font-family="sans-serif" font-size="12" lengthAdjust="spacingAndGlyphs" textLength="201" x="317.5" y="344.3633">[10-4]誘発即時リストから即時効果の</text><text fill="#000000" font-family="sans-serif" font-size="12" lengthAdjust="spacingAndGlyphs" textLength="139" x="317.5" y="360.0664">アクションを1つ取り出す</text><polygon fill="#FEFECE" filter="url(#fh8kw9nn06pwy)" points="291,608.2988,545,608.2988,557,620.2988,545,632.2988,291,632.2988,279,620.2988,291,608.2988" style="stroke: #A80036; stroke-width: 1.5;"/><text fill="#000000" font-family="sans-serif" font-size="11" lengthAdjust="spacingAndGlyphs" textLength="254" x="291" y="624.5742">[10-8]誘発即時リストの件数が0件でなけば繰り返す</text><text fill="#000000" font-family="sans-serif" font-size="11" lengthAdjust="spacingAndGlyphs" textLength="18" x="557" y="617.377">YES</text><rect fill="#FEFECE" filter="url(#fh8kw9nn06pwy)" height="51.4063" rx="12.5" ry="12.5" style="stroke: #A80036; stroke-width: 1.5;" width="221" x="307.5" y="222.1211"/><text fill="#000000" font-family="sans-serif" font-size="12" lengthAdjust="spacingAndGlyphs" textLength="201" x="317.5" y="244.6367">[10-3]プレイヤー毎に誘発即時リスト</text><text fill="#000000" font-family="sans-serif" font-size="12" lengthAdjust="spacingAndGlyphs" textLength="168" x="317.5" y="260.3398">の即時効果のアクションを解決</text><polygon fill="#FEFECE" filter="url(#fh8kw9nn06pwy)" points="269,664.2988,567,664.2988,579,676.2988,567,688.2988,269,688.2988,257,676.2988,269,664.2988" style="stroke: #A80036; stroke-width: 1.5;"/><text fill="#000000" font-family="sans-serif" font-size="11" lengthAdjust="spacingAndGlyphs" textLength="298" x="269" y="680.5742">[10-9]全ての誘発即時リストの件数が0件でなければ繰り返す</text><text fill="#000000" font-family="sans-serif" font-size="11" lengthAdjust="spacingAndGlyphs" textLength="18" x="579" y="673.377">YES</text><rect fill="#FFFFFF" filter="url(#fh8kw9nn06pwy)" height="303.5391" style="stroke: #000000; stroke-width: 2.0;" width="568" x="45" y="710.2988"/><path d="M269,711.2988 L269,721.6191 L259,731.6191 L45,731.6191 " fill="none" style="stroke: #000000; stroke-width: 2.0;"/><text fill="#000000" font-family="sans-serif" font-size="14" lengthAdjust="spacingAndGlyphs" textLength="214" x="48" y="725.9004">通常効果:プレイヤー単位に繰返し</text><path d="M57,853.2168 L57,897.2402 L247,897.2402 L247,863.2168 L237,853.2168 L57,853.2168 " fill="#FBFB77" filter="url(#fh8kw9nn06pwy)" style="stroke: #A80036; stroke-width: 1.0;"/><path d="M237,853.2168 L237,863.2168 L247,863.2168 L237,853.2168 " fill="#FBFB77" style="stroke: #A80036; stroke-width: 1.0;"/><text fill="#000000" font-family="sans-serif" font-size="13" lengthAdjust="spacingAndGlyphs" textLength="169" x="63" y="871.7754">順番はターンプレイヤーから</text><text fill="#000000" font-family="sans-serif" font-size="13" lengthAdjust="spacingAndGlyphs" textLength="130" x="63" y="888.7871">ターンが回る順に行う</text><rect fill="#FEFECE" filter="url(#fh8kw9nn06pwy)" height="51.4063" rx="12.5" ry="12.5" style="stroke: #A80036; stroke-width: 1.5;" width="192" x="322" y="820.0254"/><text fill="#000000" font-family="sans-serif" font-size="12" lengthAdjust="spacingAndGlyphs" textLength="172" x="332" y="842.541">[10-11]通常効果のアクションを</text><text fill="#000000" font-family="sans-serif" font-size="12" lengthAdjust="spacingAndGlyphs" textLength="144" x="332" y="858.2441">任意の順でステージに追加</text><rect fill="#FEFECE" filter="url(#fh8kw9nn06pwy)" height="51.4063" rx="12.5" ry="12.5" style="stroke: #A80036; stroke-width: 1.5;" width="252" x="292" y="906.4316"/><text fill="#000000" font-family="sans-serif" font-size="12" lengthAdjust="spacingAndGlyphs" textLength="232" x="302" y="928.9473">[10-12]誘発したアクションをプレイヤー毎</text><text fill="#000000" font-family="sans-serif" font-size="12" lengthAdjust="spacingAndGlyphs" textLength="228" x="302" y="944.6504">の誘発即時リストと誘発通常リストに追加</text><rect fill="#FEFECE" filter="url(#fh8kw9nn06pwy)" height="51.4063" rx="12.5" ry="12.5" style="stroke: #A80036; stroke-width: 1.5;" width="228" x="304" y="748.6191"/><text fill="#000000" font-family="sans-serif" font-size="12" lengthAdjust="spacingAndGlyphs" textLength="208" x="314" y="771.1348">[10-10]プレイヤー毎に誘発通常リスト</text><text fill="#000000" font-family="sans-serif" font-size="12" lengthAdjust="spacingAndGlyphs" textLength="168" x="314" y="786.8379">のアクションをステージに追加</text><polygon fill="#FEFECE" filter="url(#fh8kw9nn06pwy)" points="269,977.8379,567,977.8379,579,989.8379,567,1001.8379,269,1001.8379,257,989.8379,269,977.8379" style="stroke: #A80036; stroke-width: 1.5;"/><text fill="#000000" font-family="sans-serif" font-size="11" lengthAdjust="spacingAndGlyphs" textLength="298" x="269" y="994.1133">[10-13]誘発リストに通常効果のアクションがあれば繰り返す</text><text fill="#000000" font-family="sans-serif" font-size="11" lengthAdjust="spacingAndGlyphs" textLength="18" x="579" y="986.916">YES</text><polygon fill="#FEFECE" filter="url(#fh8kw9nn06pwy)" points="283,121.4063,553,121.4063,565,133.4063,553,145.4063,283,145.4063,271,133.4063,283,121.4063" style="stroke: #A80036; stroke-width: 1.5;"/><text fill="#000000" font-family="sans-serif" font-size="11" lengthAdjust="spacingAndGlyphs" textLength="39" x="422" y="156.8789">1件以上</text><text fill="#000000" font-family="sans-serif" font-size="11" lengthAdjust="spacingAndGlyphs" textLength="270" x="283" y="137.6816">[10-2]誘発即時リスト、誘発通常リスト全体の件数判定</text><text fill="#000000" font-family="sans-serif" font-size="11" lengthAdjust="spacingAndGlyphs" textLength="17" x="254" y="130.4844">0件</text><ellipse cx="24" cy="180.4063" fill="#FFFFFF" filter="url(#fh8kw9nn06pwy)" rx="11" ry="11" style="stroke: #000000; stroke-width: 1.0;"/><ellipse cx="24" cy="180.4063" fill="#000000" rx="6" ry="6" style="stroke: #7F7F7F; stroke-width: 1.0;"/><line style="stroke: #A80036; stroke-width: 1.5;" x1="418" x2="418" y1="30" y2="50"/><polygon fill="#A80036" points="414,40,418,50,422,40,418,44" style="stroke: #A80036; stroke-width: 1.0;"/><line style="stroke: #A80036; stroke-width: 1.5;" x1="418" x2="418" y1="477.6836" y2="520.6836"/><polygon fill="#A80036" points="414,510.6836,418,520.6836,422,510.6836,418,514.6836" style="stroke: #A80036; stroke-width: 1.0;"/><line style="stroke: #A80036; stroke-width: 1.5;" x1="466" x2="499" y1="465.6836" y2="465.6836"/><polygon fill="#A80036" points="489,461.6836,499,465.6836,489,469.6836,493,465.6836" style="stroke: #A80036; stroke-width: 1.0;"/><line style="stroke: #A80036; stroke-width: 1.5;" x1="418" x2="418" y1="428.957" y2="453.6836"/><polygon fill="#A80036" points="414,443.6836,418,453.6836,422,443.6836,418,447.6836" style="stroke: #A80036; stroke-width: 1.0;"/><line style="stroke: #A80036; stroke-width: 1.5;" x1="418" x2="418" y1="373.2539" y2="393.2539"/><polygon fill="#A80036" points="414,383.2539,418,393.2539,422,383.2539,418,387.2539" style="stroke: #A80036; stroke-width: 1.0;"/><line style="stroke: #A80036; stroke-width: 1.5;" x1="557" x2="569" y1="620.2988" y2="620.2988"/><polygon fill="#A80036" points="565,500.6836,569,490.6836,573,500.6836,569,496.6836" style="stroke: #A80036; stroke-width: 1.5;"/><line style="stroke: #A80036; stroke-width: 1.5;" x1="569" x2="569" y1="347.5508" y2="620.2988"/><line style="stroke: #A80036; stroke-width: 1.5;" x1="569" x2="528.5" y1="347.5508" y2="347.5508"/><polygon fill="#A80036" points="538.5,343.5508,528.5,347.5508,538.5,351.5508,534.5,347.5508" style="stroke: #A80036; stroke-width: 1.0;"/><line style="stroke: #A80036; stroke-width: 1.5;" x1="418" x2="418" y1="572.0898" y2="608.2988"/><polygon fill="#A80036" points="414,598.2988,418,608.2988,422,598.2988,418,602.2988" style="stroke: #A80036; stroke-width: 1.0;"/><line style="stroke: #A80036; stroke-width: 1.5;" x1="418" x2="418" y1="273.5273" y2="321.8477"/><polygon fill="#A80036" points="414,311.8477,418,321.8477,422,311.8477,418,315.8477" style="stroke: #A80036; stroke-width: 1.0;"/><line style="stroke: #A80036; stroke-width: 1.5;" x1="579" x2="603" y1="676.2988" y2="676.2988"/><polygon fill="#A80036" points="599,477.8203,603,467.8203,607,477.8203,603,473.8203" style="stroke: #A80036; stroke-width: 1.5;"/><line style="stroke: #A80036; stroke-width: 1.5;" x1="603" x2="603" y1="247.8242" y2="676.2988"/><line style="stroke: #A80036; stroke-width: 1.5;" x1="603" x2="528.5" y1="247.8242" y2="247.8242"/><polygon fill="#A80036" points="538.5,243.8242,528.5,247.8242,538.5,251.8242,534.5,247.8242" style="stroke: #A80036; stroke-width: 1.0;"/><line style="stroke: #A80036; stroke-width: 1.5;" x1="418" x2="418" y1="632.2988" y2="664.2988"/><polygon fill="#A80036" points="414,654.2988,418,664.2988,422,654.2988,418,658.2988" style="stroke: #A80036; stroke-width: 1.0;"/><line style="stroke: #A80036; stroke-width: 1.5;" x1="418" x2="418" y1="871.4316" y2="906.4316"/><polygon fill="#A80036" points="414,896.4316,418,906.4316,422,896.4316,418,900.4316" style="stroke: #A80036; stroke-width: 1.0;"/><line style="stroke: #A80036; stroke-width: 1.5;" x1="418" x2="418" y1="800.0254" y2="820.0254"/><polygon fill="#A80036" points="414,810.0254,418,820.0254,422,810.0254,418,814.0254" style="stroke: #A80036; stroke-width: 1.0;"/><line style="stroke: #A80036; stroke-width: 1.5;" x1="579" x2="591" y1="989.8379" y2="989.8379"/><polygon fill="#A80036" points="587,892.0801,591,882.0801,595,892.0801,591,888.0801" style="stroke: #A80036; stroke-width: 1.5;"/><line style="stroke: #A80036; stroke-width: 1.5;" x1="591" x2="591" y1="774.3223" y2="989.8379"/><line style="stroke: #A80036; stroke-width: 1.5;" x1="591" x2="532" y1="774.3223" y2="774.3223"/><polygon fill="#A80036" points="542,770.3223,532,774.3223,542,778.3223,538,774.3223" style="stroke: #A80036; stroke-width: 1.0;"/><line style="stroke: #A80036; stroke-width: 1.5;" x1="418" x2="418" y1="957.8379" y2="977.8379"/><polygon fill="#A80036" points="414,967.8379,418,977.8379,422,967.8379,418,971.8379" style="stroke: #A80036; stroke-width: 1.0;"/><line style="stroke: #A80036; stroke-width: 1.5;" x1="418" x2="418" y1="688.2988" y2="748.6191"/><polygon fill="#A80036" points="414,738.6191,418,748.6191,422,738.6191,418,742.6191" style="stroke: #A80036; stroke-width: 1.0;"/><line style="stroke: #A80036; stroke-width: 1.5;" x1="418" x2="418" y1="145.4063" y2="222.1211"/><polygon fill="#A80036" points="414,212.1211,418,222.1211,422,212.1211,418,216.1211" style="stroke: #A80036; stroke-width: 1.0;"/><line style="stroke: #A80036; stroke-width: 1.5;" x1="418" x2="418" y1="1001.8379" y2="1023.8379"/><line style="stroke: #A80036; stroke-width: 1.5;" x1="418" x2="637" y1="1023.8379" y2="1023.8379"/><polygon fill="#A80036" points="633,592.0898,637,582.0898,641,592.0898,637,588.0898" style="stroke: #A80036; stroke-width: 1.5;"/><line style="stroke: #A80036; stroke-width: 1.5;" x1="637" x2="637" y1="133.4063" y2="1023.8379"/><line style="stroke: #A80036; stroke-width: 1.5;" x1="637" x2="565" y1="133.4063" y2="133.4063"/><polygon fill="#A80036" points="575,129.4063,565,133.4063,575,137.4063,571,133.4063" style="stroke: #A80036; stroke-width: 1.0;"/><line style="stroke: #A80036; stroke-width: 1.5;" x1="271" x2="24" y1="133.4063" y2="133.4063"/><line style="stroke: #A80036; stroke-width: 1.5;" x1="24" x2="24" y1="133.4063" y2="169.4063"/><polygon fill="#A80036" points="20,159.4063,24,169.4063,28,159.4063,24,163.4063" style="stroke: #A80036; stroke-width: 1.0;"/><line style="stroke: #A80036; stroke-width: 1.5;" x1="418" x2="418" y1="101.4063" y2="121.4063"/><polygon fill="#A80036" points="414,111.4063,418,121.4063,422,111.4063,418,115.4063" style="stroke: #A80036; stroke-width: 1.0;"/><!--MD5=[e6f5691bd0d9a16c4370d8e2136a568b]
@startuml
start
:[10-1]誘発したアクションをプレイヤー毎\nの誘発即時リストと誘発通常リストに追加;
while([10-2]誘発即時リスト、誘発通常リスト全体の件数判定) is (1件以上)
    group 即時効果:プレイヤー単位に繰返し
    note
        順番はターンプレイヤーから
        ターンが回る順に行う
    end note
    repeat :[10-3]プレイヤー毎に誘発即時リスト\nの即時効果のアクションを解決;
        group 即時効果:アクション単位に繰返し
        repeat :[10-4]誘発即時リストから即時効果の\nアクションを1つ取り出す;
            :[10-5]即時効果のアクションを解決;
            if([10-6]勝敗判定) then (決着)
                stop
            endif
            :[10-7]誘発したアクションをプレイヤー毎\nの誘発即時リストと誘発通常リストに追加;
        repeat while ([10-8]誘発即時リストの件数が0件でなけば繰り返す) is (YES)
        end group
    repeat while([10-9]全ての誘発即時リストの件数が0件でなければ繰り返す) is (YES)
    end group

    group 通常効果:プレイヤー単位に繰返し
    note
        順番はターンプレイヤーから
        ターンが回る順に行う
    end note
    repeat :[10-10]プレイヤー毎に誘発通常リスト\nのアクションをステージに追加;
        :[10-11]通常効果のアクションを\n任意の順でステージに追加;
        :[10-12]誘発したアクションをプレイヤー毎\nの誘発即時リストと誘発通常リストに追加;
    repeat while ([10-13]誘発リストに通常効果のアクションがあれば繰り返す) is (YES)
    end group

endwhile (0件)
    stop
@enduml

PlantUML version 1.2020.14(Sat Jun 20 14:14:34 GMT 2020)
(GPL source distribution)
Java Runtime: OpenJDK Runtime Environment
JVM: OpenJDK 64-Bit Server VM
Default Encoding: UTF-8
Language: ja
Country: JP
--></g></svg>