<?xml version="1.0" encoding="UTF-8" standalone="no"?><svg xmlns="http://www.w3.org/2000/svg" xmlns:xlink="http://www.w3.org/1999/xlink" contentStyleType="text/css" height="783px" preserveAspectRatio="none" style="width:787px;height:783px;background:#FFFFFF;" version="1.1" viewBox="0 0 787 783" width="787px" zoomAndPan="magnify"><defs/><g><ellipse cx="379.25" cy="20" fill="#222222" rx="10" ry="10" style="stroke:#222222;stroke-width:1.0;"/><rect fill="#F1F1F1" height="35.7031" rx="12.5" ry="12.5" style="stroke:#181818;stroke-width:0.5;" width="95" x="331.75" y="50"/><text fill="#000000" font-family="sans-serif" font-size="12" lengthAdjust="spacing" textLength="75" x="341.75" y="72.5156">[1]ゲーム開始</text><rect fill="#F1F1F1" height="35.7031" rx="12.5" ry="12.5" style="stroke:#181818;stroke-width:0.5;" width="227" x="265.75" y="105.7031"/><text fill="#000000" font-family="sans-serif" font-size="12" lengthAdjust="spacing" textLength="207" x="275.75" y="128.2188">[2]ターンプレイヤーにチャンスを移動</text><polygon fill="#F1F1F1" points="312.75,205.4063,445.75,205.4063,457.75,217.4063,445.75,229.4063,312.75,229.4063,300.75,217.4063,312.75,205.4063" style="stroke:#181818;stroke-width:0.5;"/><text fill="#000000" font-family="sans-serif" font-size="11" lengthAdjust="spacing" textLength="133" x="312.75" y="221.6816">[3]アクションを起こすか？</text><text fill="#000000" font-family="sans-serif" font-size="11" lengthAdjust="spacing" textLength="17" x="283.75" y="214.4844">Yes</text><text fill="#000000" font-family="sans-serif" font-size="11" lengthAdjust="spacing" textLength="14" x="457.75" y="214.4844">No</text><rect fill="#F1F1F1" height="35.7031" rx="12.5" ry="12.5" style="stroke:#181818;stroke-width:0.5;" width="143" x="100" y="239.4063"/><text fill="#000000" font-family="sans-serif" font-size="12" lengthAdjust="spacing" textLength="123" x="110" y="261.9219">[4]パス記録のリセット</text><rect fill="#F1F1F1" height="35.7031" rx="12.5" ry="12.5" style="stroke:#181818;stroke-width:0.5;" width="143" x="100" y="295.1094"/><text fill="#000000" font-family="sans-serif" font-size="12" lengthAdjust="spacing" textLength="123" x="110" y="317.625">[5]アクションを起こす</text><rect fill="#F1F1F1" height="35.7031" rx="12.5" ry="12.5" style="stroke:#181818;stroke-width:0.5;" width="107" x="118" y="365.8125"/><text fill="#000000" font-family="sans-serif" font-size="12" lengthAdjust="spacing" textLength="87" x="128" y="388.3281">[6]誘発チェック</text><polygon fill="#F1F1F1" points="132.5,434.0098,210.5,434.0098,222.5,446.0098,210.5,458.0098,132.5,458.0098,120.5,446.0098,132.5,434.0098" style="stroke:#181818;stroke-width:0.5;"/><text fill="#000000" font-family="sans-serif" font-size="11" lengthAdjust="spacing" textLength="78" x="132.5" y="450.2852">[7]即時効果か？</text><text fill="#000000" font-family="sans-serif" font-size="11" lengthAdjust="spacing" textLength="17" x="103.5" y="443.0879">Yes</text><text fill="#000000" font-family="sans-serif" font-size="11" lengthAdjust="spacing" textLength="14" x="222.5" y="443.0879">No</text><rect fill="#F1F1F1" height="35.7031" rx="12.5" ry="12.5" style="stroke:#181818;stroke-width:0.5;" width="131" x="11" y="468.0098"/><text fill="#000000" font-family="sans-serif" font-size="12" lengthAdjust="spacing" textLength="111" x="21" y="490.5254">[8]アクションの解決</text><polygon fill="#F1F1F1" points="48.5,538.7129,104.5,538.7129,116.5,550.7129,104.5,562.7129,48.5,562.7129,36.5,550.7129,48.5,538.7129" style="stroke:#181818;stroke-width:0.5;"/><text fill="#000000" font-family="sans-serif" font-size="11" lengthAdjust="spacing" textLength="56" x="48.5" y="554.9883">[9]勝敗判定</text><text fill="#000000" font-family="sans-serif" font-size="11" lengthAdjust="spacing" textLength="22" x="116.5" y="547.791">決着</text><ellipse cx="160.5" cy="550.7129" fill="none" rx="11" ry="11" style="stroke:#222222;stroke-width:1.0;"/><ellipse cx="160.5" cy="550.7129" fill="#222222" rx="6" ry="6" style="stroke:#111111;stroke-width:1.0;"/><rect fill="#F1F1F1" height="35.7031" rx="12.5" ry="12.5" style="stroke:#181818;stroke-width:0.5;" width="107" x="23" y="604.2188"/><text fill="#000000" font-family="sans-serif" font-size="12" lengthAdjust="spacing" textLength="87" x="33" y="626.7344">[6]誘発チェック</text><rect fill="#F1F1F1" height="35.7031" rx="12.5" ry="12.5" style="stroke:#181818;stroke-width:0.5;" width="126" x="203.5" y="468.0098"/><text fill="#000000" font-family="sans-serif" font-size="12" lengthAdjust="spacing" textLength="106" x="213.5" y="490.5254">[10]ステージに追加</text><polygon fill="#F1F1F1" points="171.5,645.9219,183.5,657.9219,171.5,669.9219,159.5,657.9219,171.5,645.9219" style="stroke:#181818;stroke-width:0.5;"/><rect fill="#F1F1F1" height="35.7031" rx="12.5" ry="12.5" style="stroke:#181818;stroke-width:0.5;" width="126" x="524" y="239.4063"/><text fill="#000000" font-family="sans-serif" font-size="12" lengthAdjust="spacing" textLength="106" x="534" y="261.9219">[11]パス記録に登録</text><polygon fill="#F1F1F1" points="528.5,295.1094,645.5,295.1094,657.5,307.1094,645.5,319.1094,528.5,319.1094,516.5,307.1094,528.5,295.1094" style="stroke:#181818;stroke-width:0.5;"/><text fill="#000000" font-family="sans-serif" font-size="11" lengthAdjust="spacing" textLength="117" x="528.5" y="311.3848">[12]全員がパスしたか？</text><text fill="#000000" font-family="sans-serif" font-size="11" lengthAdjust="spacing" textLength="17" x="499.5" y="304.1875">Yes</text><text fill="#000000" font-family="sans-serif" font-size="11" lengthAdjust="spacing" textLength="14" x="657.5" y="304.1875">No</text><rect fill="#F1F1F1" height="35.7031" rx="12.5" ry="12.5" style="stroke:#181818;stroke-width:0.5;" width="150" x="409" y="378.3066"/><text fill="#000000" font-family="sans-serif" font-size="12" lengthAdjust="spacing" textLength="130" x="419" y="400.8223">[14]ステージから取出し</text><rect fill="#F1F1F1" height="35.7031" rx="12.5" ry="12.5" style="stroke:#181818;stroke-width:0.5;" width="131" x="418.5" y="446.5039"/><text fill="#000000" font-family="sans-serif" font-size="12" lengthAdjust="spacing" textLength="111" x="428.5" y="469.0195">[8]アクションの解決</text><polygon fill="#F1F1F1" points="456,517.207,512,517.207,524,529.207,512,541.207,456,541.207,444,529.207,456,517.207" style="stroke:#181818;stroke-width:0.5;"/><text fill="#000000" font-family="sans-serif" font-size="11" lengthAdjust="spacing" textLength="56" x="456" y="533.4824">[9]勝敗判定</text><text fill="#000000" font-family="sans-serif" font-size="11" lengthAdjust="spacing" textLength="22" x="524" y="526.2852">決着</text><ellipse cx="568" cy="529.207" fill="none" rx="11" ry="11" style="stroke:#222222;stroke-width:1.0;"/><ellipse cx="568" cy="529.207" fill="#222222" rx="6" ry="6" style="stroke:#111111;stroke-width:1.0;"/><rect fill="#F1F1F1" height="35.7031" rx="12.5" ry="12.5" style="stroke:#181818;stroke-width:0.5;" width="107" x="430.5" y="582.7129"/><text fill="#000000" font-family="sans-serif" font-size="12" lengthAdjust="spacing" textLength="87" x="440.5" y="605.2285">[6]誘発チェック</text><polygon fill="#F1F1F1" points="381.5,329.1094,586.5,329.1094,598.5,341.1094,586.5,353.1094,381.5,353.1094,369.5,341.1094,381.5,329.1094" style="stroke:#181818;stroke-width:0.5;"/><text fill="#000000" font-family="sans-serif" font-size="11" lengthAdjust="spacing" textLength="17" x="488" y="364.582">Yes</text><text fill="#000000" font-family="sans-serif" font-size="11" lengthAdjust="spacing" textLength="205" x="381.5" y="345.3848">[13]ステージにアクションが存在するか？</text><text fill="#000000" font-family="sans-serif" font-size="11" lengthAdjust="spacing" textLength="14" x="598.5" y="338.1875">No</text><polygon fill="#F1F1F1" points="484,643.6133,496,655.6133,484,667.6133,472,655.6133,484,643.6133" style="stroke:#181818;stroke-width:0.5;"/><rect fill="#F1F1F1" height="35.7031" rx="12.5" ry="12.5" style="stroke:#181818;stroke-width:0.5;" width="114" x="633" y="329.1094"/><text fill="#000000" font-family="sans-serif" font-size="12" lengthAdjust="spacing" textLength="94" x="643" y="351.625">[15]チャンス移動</text><polygon fill="#F1F1F1" points="587,673.6133,599,685.6133,587,697.6133,575,685.6133,587,673.6133" style="stroke:#181818;stroke-width:0.5;"/><polygon fill="#F1F1F1" points="379.25,703.6133,391.25,715.6133,379.25,727.6133,367.25,715.6133,379.25,703.6133" style="stroke:#181818;stroke-width:0.5;"/><polygon fill="#F1F1F1" points="379.25,161.4063,391.25,173.4063,379.25,185.4063,367.25,173.4063,379.25,161.4063" style="stroke:#181818;stroke-width:0.5;"/><polygon fill="#F1F1F1" points="379.25,747.6133,379.25,747.6133,391.25,759.6133,379.25,771.6133,379.25,771.6133,367.25,759.6133,379.25,747.6133" style="stroke:#181818;stroke-width:0.5;"/><line style="stroke:#181818;stroke-width:1.0;" x1="379.25" x2="379.25" y1="30" y2="50"/><polygon fill="#181818" points="375.25,40,379.25,50,383.25,40,379.25,44" style="stroke:#181818;stroke-width:1.0;"/><line style="stroke:#181818;stroke-width:1.0;" x1="379.25" x2="379.25" y1="85.7031" y2="105.7031"/><polygon fill="#181818" points="375.25,95.7031,379.25,105.7031,383.25,95.7031,379.25,99.7031" style="stroke:#181818;stroke-width:1.0;"/><line style="stroke:#181818;stroke-width:1.0;" x1="171.5" x2="171.5" y1="275.1094" y2="295.1094"/><polygon fill="#181818" points="167.5,285.1094,171.5,295.1094,175.5,285.1094,171.5,289.1094" style="stroke:#181818;stroke-width:1.0;"/><line style="stroke:#181818;stroke-width:1.0;" x1="171.5" x2="171.5" y1="330.8125" y2="365.8125"/><polygon fill="#181818" points="167.5,355.8125,171.5,365.8125,175.5,355.8125,171.5,359.8125" style="stroke:#181818;stroke-width:1.0;"/><line style="stroke:#181818;stroke-width:1.0;" x1="76.5" x2="76.5" y1="562.7129" y2="604.2188"/><polygon fill="#181818" points="72.5,594.2188,76.5,604.2188,80.5,594.2188,76.5,598.2188" style="stroke:#181818;stroke-width:1.0;"/><line style="stroke:#181818;stroke-width:1.0;" x1="116.5" x2="149.5" y1="550.7129" y2="550.7129"/><polygon fill="#181818" points="139.5,546.7129,149.5,550.7129,139.5,554.7129,143.5,550.7129" style="stroke:#181818;stroke-width:1.0;"/><line style="stroke:#181818;stroke-width:1.0;" x1="76.5" x2="76.5" y1="503.7129" y2="538.7129"/><polygon fill="#181818" points="72.5,528.7129,76.5,538.7129,80.5,528.7129,76.5,532.7129" style="stroke:#181818;stroke-width:1.0;"/><line style="stroke:#181818;stroke-width:1.0;" x1="120.5" x2="76.5" y1="446.0098" y2="446.0098"/><line style="stroke:#181818;stroke-width:1.0;" x1="76.5" x2="76.5" y1="446.0098" y2="468.0098"/><polygon fill="#181818" points="72.5,458.0098,76.5,468.0098,80.5,458.0098,76.5,462.0098" style="stroke:#181818;stroke-width:1.0;"/><line style="stroke:#181818;stroke-width:1.0;" x1="222.5" x2="266.5" y1="446.0098" y2="446.0098"/><line style="stroke:#181818;stroke-width:1.0;" x1="266.5" x2="266.5" y1="446.0098" y2="468.0098"/><polygon fill="#181818" points="262.5,458.0098,266.5,468.0098,270.5,458.0098,266.5,462.0098" style="stroke:#181818;stroke-width:1.0;"/><line style="stroke:#181818;stroke-width:1.0;" x1="76.5" x2="76.5" y1="639.9219" y2="657.9219"/><line style="stroke:#181818;stroke-width:1.0;" x1="76.5" x2="159.5" y1="657.9219" y2="657.9219"/><polygon fill="#181818" points="149.5,653.9219,159.5,657.9219,149.5,661.9219,153.5,657.9219" style="stroke:#181818;stroke-width:1.0;"/><line style="stroke:#181818;stroke-width:1.0;" x1="266.5" x2="266.5" y1="503.7129" y2="657.9219"/><line style="stroke:#181818;stroke-width:1.0;" x1="266.5" x2="183.5" y1="657.9219" y2="657.9219"/><polygon fill="#181818" points="193.5,653.9219,183.5,657.9219,193.5,661.9219,189.5,657.9219" style="stroke:#181818;stroke-width:1.0;"/><line style="stroke:#181818;stroke-width:1.0;" x1="171.5" x2="171.5" y1="401.5156" y2="434.0098"/><polygon fill="#181818" points="167.5,424.0098,171.5,434.0098,175.5,424.0098,171.5,428.0098" style="stroke:#181818;stroke-width:1.0;"/><line style="stroke:#181818;stroke-width:1.0;" x1="484" x2="484" y1="414.0098" y2="446.5039"/><polygon fill="#181818" points="480,436.5039,484,446.5039,488,436.5039,484,440.5039" style="stroke:#181818;stroke-width:1.0;"/><line style="stroke:#181818;stroke-width:1.0;" x1="484" x2="484" y1="541.207" y2="582.7129"/><polygon fill="#181818" points="480,572.7129,484,582.7129,488,572.7129,484,576.7129" style="stroke:#181818;stroke-width:1.0;"/><line style="stroke:#181818;stroke-width:1.0;" x1="524" x2="557" y1="529.207" y2="529.207"/><polygon fill="#181818" points="547,525.207,557,529.207,547,533.207,551,529.207" style="stroke:#181818;stroke-width:1.0;"/><line style="stroke:#181818;stroke-width:1.0;" x1="484" x2="484" y1="482.207" y2="517.207"/><polygon fill="#181818" points="480,507.207,484,517.207,488,507.207,484,511.207" style="stroke:#181818;stroke-width:1.0;"/><line style="stroke:#181818;stroke-width:1.0;" x1="484" x2="484" y1="353.1094" y2="378.3066"/><polygon fill="#181818" points="480,368.3066,484,378.3066,488,368.3066,484,372.3066" style="stroke:#181818;stroke-width:1.0;"/><line style="stroke:#181818;stroke-width:1.0;" x1="598.5" x2="610.5" y1="341.1094" y2="341.1094"/><polygon fill="#181818" points="606.5,507.8555,610.5,517.8555,614.5,507.8555,610.5,511.8555" style="stroke:#181818;stroke-width:1.0;"/><line style="stroke:#181818;stroke-width:1.0;" x1="610.5" x2="610.5" y1="341.1094" y2="655.6133"/><line style="stroke:#181818;stroke-width:1.0;" x1="610.5" x2="496" y1="655.6133" y2="655.6133"/><polygon fill="#181818" points="506,651.6133,496,655.6133,506,659.6133,502,655.6133" style="stroke:#181818;stroke-width:1.0;"/><line style="stroke:#181818;stroke-width:1.0;" x1="484" x2="484" y1="618.416" y2="643.6133"/><polygon fill="#181818" points="480,633.6133,484,643.6133,488,633.6133,484,637.6133" style="stroke:#181818;stroke-width:1.0;"/><line style="stroke:#181818;stroke-width:1.0;" x1="516.5" x2="484" y1="307.1094" y2="307.1094"/><line style="stroke:#181818;stroke-width:1.0;" x1="484" x2="484" y1="307.1094" y2="329.1094"/><polygon fill="#181818" points="480,319.1094,484,329.1094,488,319.1094,484,323.1094" style="stroke:#181818;stroke-width:1.0;"/><line style="stroke:#181818;stroke-width:1.0;" x1="657.5" x2="690" y1="307.1094" y2="307.1094"/><line style="stroke:#181818;stroke-width:1.0;" x1="690" x2="690" y1="307.1094" y2="329.1094"/><polygon fill="#181818" points="686,319.1094,690,329.1094,694,319.1094,690,323.1094" style="stroke:#181818;stroke-width:1.0;"/><line style="stroke:#181818;stroke-width:1.0;" x1="484" x2="484" y1="667.6133" y2="685.6133"/><line style="stroke:#181818;stroke-width:1.0;" x1="484" x2="575" y1="685.6133" y2="685.6133"/><polygon fill="#181818" points="565,681.6133,575,685.6133,565,689.6133,569,685.6133" style="stroke:#181818;stroke-width:1.0;"/><line style="stroke:#181818;stroke-width:1.0;" x1="690" x2="690" y1="364.8125" y2="685.6133"/><line style="stroke:#181818;stroke-width:1.0;" x1="690" x2="599" y1="685.6133" y2="685.6133"/><polygon fill="#181818" points="609,681.6133,599,685.6133,609,689.6133,605,685.6133" style="stroke:#181818;stroke-width:1.0;"/><line style="stroke:#181818;stroke-width:1.0;" x1="587" x2="587" y1="275.1094" y2="295.1094"/><polygon fill="#181818" points="583,285.1094,587,295.1094,591,285.1094,587,289.1094" style="stroke:#181818;stroke-width:1.0;"/><line style="stroke:#181818;stroke-width:1.0;" x1="300.75" x2="171.5" y1="217.4063" y2="217.4063"/><line style="stroke:#181818;stroke-width:1.0;" x1="171.5" x2="171.5" y1="217.4063" y2="239.4063"/><polygon fill="#181818" points="167.5,229.4063,171.5,239.4063,175.5,229.4063,171.5,233.4063" style="stroke:#181818;stroke-width:1.0;"/><line style="stroke:#181818;stroke-width:1.0;" x1="457.75" x2="587" y1="217.4063" y2="217.4063"/><line style="stroke:#181818;stroke-width:1.0;" x1="587" x2="587" y1="217.4063" y2="239.4063"/><polygon fill="#181818" points="583,229.4063,587,239.4063,591,229.4063,587,233.4063" style="stroke:#181818;stroke-width:1.0;"/><line style="stroke:#181818;stroke-width:1.0;" x1="171.5" x2="171.5" y1="669.9219" y2="715.6133"/><line style="stroke:#181818;stroke-width:1.0;" x1="171.5" x2="367.25" y1="715.6133" y2="715.6133"/><polygon fill="#181818" points="357.25,711.6133,367.25,715.6133,357.25,719.6133,361.25,715.6133" style="stroke:#181818;stroke-width:1.0;"/><line style="stroke:#181818;stroke-width:1.0;" x1="587" x2="587" y1="697.6133" y2="715.6133"/><line style="stroke:#181818;stroke-width:1.0;" x1="587" x2="391.25" y1="715.6133" y2="715.6133"/><polygon fill="#181818" points="401.25,711.6133,391.25,715.6133,401.25,719.6133,397.25,715.6133" style="stroke:#181818;stroke-width:1.0;"/><line style="stroke:#181818;stroke-width:1.0;" x1="379.25" x2="379.25" y1="185.4063" y2="205.4063"/><polygon fill="#181818" points="375.25,195.4063,379.25,205.4063,383.25,195.4063,379.25,199.4063" style="stroke:#181818;stroke-width:1.0;"/><line style="stroke:#181818;stroke-width:1.0;" x1="391.25" x2="761" y1="759.6133" y2="759.6133"/><polygon fill="#181818" points="757,488.5039,761,478.5039,765,488.5039,761,484.5039" style="stroke:#181818;stroke-width:1.0;"/><line style="stroke:#181818;stroke-width:1.0;" x1="761" x2="761" y1="173.4063" y2="759.6133"/><line style="stroke:#181818;stroke-width:1.0;" x1="761" x2="391.25" y1="173.4063" y2="173.4063"/><polygon fill="#181818" points="401.25,169.4063,391.25,173.4063,401.25,177.4063,397.25,173.4063" style="stroke:#181818;stroke-width:1.0;"/><line style="stroke:#181818;stroke-width:1.0;" x1="379.25" x2="379.25" y1="727.6133" y2="747.6133"/><polygon fill="#181818" points="375.25,737.6133,379.25,747.6133,383.25,737.6133,379.25,741.6133" style="stroke:#181818;stroke-width:1.0;"/><line style="stroke:#181818;stroke-width:1.0;" x1="379.25" x2="379.25" y1="141.4063" y2="161.4063"/><polygon fill="#181818" points="375.25,151.4063,379.25,161.4063,383.25,151.4063,379.25,155.4063" style="stroke:#181818;stroke-width:1.0;"/><!--SRC=[dPFBJi9058RtVOekOISNR_GTt1lIXOaba1Wnj8bRPoPUYp5YkDI8ef2KW4AK60GqFip9bBho5PnfGIj5DCwYQSxyvvy_vvjHjRMC9iJY8Hdm0v1d89MtWavDNMB5C2k-EiKEa2AGMy0r83LUGKqW24YLR-4UuDpG750zBmaPPKjPquHKGWp48wp_1d0RS1U8wKXpzcCNq1aW0v3-_dmL5BMaiYa6LXKrA8XinU9H6SWfCxNhfRVi0w0Ma0RW0H02v40QYUPdMOz52xBTA0sDFe-AJMw0s-wU4szHfiSToy3qg6TTNloGntLQyXs7MhPPjUxxqgVAyLoMgLwsyaLwKAEjyx4RqmtBEr-6VAbQUkkpe6okfnAUytvEhcoeYXXOINlJXUPa3e7iSJBuYS6nNr_eKMNKuNX_xsCzeOanDuV6WFruvXCAotItJi-k0MLTBQ0YeAiPatBx8fDnVCFBqhiIlQZpQu3r6NwZhD49Gntm8JqfqFq-IoHDgF_2wX-yVCpyt7vZDvtVbyTKjkocUrxQ-9bvm3fVzzc9sydKXX88VW00]--></g></svg>