<?xml version="1.0" encoding="us-ascii" standalone="no"?><svg xmlns="http://www.w3.org/2000/svg" xmlns:xlink="http://www.w3.org/1999/xlink" contentStyleType="text/css" height="473px" preserveAspectRatio="none" style="width:665px;height:473px;background:#FFFFFF;" version="1.1" viewBox="0 0 665 473" width="665px" zoomAndPan="magnify"><defs/><g><ellipse cx="465" cy="20" fill="#222222" rx="10" ry="10" style="stroke:#222222;stroke-width:1.0;"/><rect fill="#F1F1F1" height="35.7031" rx="12.5" ry="12.5" style="stroke:#181818;stroke-width:0.5;" width="300" x="315" y="112.3945"/><text fill="#000000" font-family="sans-serif" font-size="12" lengthAdjust="spacing" textLength="280" x="325" y="134.9102">[6-5-2] &#12496;&#12483;&#12501;&#12449;&#12363;&#12425;&#21363;&#26178;&#21177;&#26524;&#12450;&#12463;&#12471;&#12519;&#12531;&#12434;&#21462;&#12426;&#20986;&#12377;</text><rect fill="#F1F1F1" height="35.7031" rx="12.5" ry="12.5" style="stroke:#181818;stroke-width:0.5;" width="324" x="303" y="168.0977"/><text fill="#000000" font-family="sans-serif" font-size="12" lengthAdjust="spacing" textLength="304" x="313" y="190.6133">[6-5-3] &#21462;&#12426;&#20986;&#12375;&#12383;&#21363;&#26178;&#21177;&#26524;&#12450;&#12463;&#12471;&#12519;&#12531;&#12398;&#21177;&#26524;&#12434;&#35299;&#27770;&#12377;&#12427;</text><polygon fill="#F1F1F1" points="425.5,223.8008,504.5,223.8008,516.5,235.8008,504.5,247.8008,425.5,247.8008,413.5,235.8008,425.5,223.8008" style="stroke:#181818;stroke-width:0.5;"/><text fill="#000000" font-family="sans-serif" font-size="11" lengthAdjust="spacing" textLength="79" x="425.5" y="240.0762">[6-5-4] &#21213;&#25943;&#21028;&#23450;</text><text fill="#000000" font-family="sans-serif" font-size="11" lengthAdjust="spacing" textLength="22" x="516.5" y="232.8789">&#27770;&#30528;</text><ellipse cx="560.5" cy="235.8008" fill="none" rx="11" ry="11" style="stroke:#222222;stroke-width:1.0;"/><ellipse cx="560.5" cy="235.8008" fill="#222222" rx="6" ry="6" style="stroke:#222222;stroke-width:1.0;"/><path d="M45,334.7734 L45,395.8086 A0,0 0 0 0 45,395.8086 L313,395.8086 A0,0 0 0 0 313,395.8086 L313,369.291 L333,365.291 L313,361.291 L313,344.7734 L303,334.7734 L45,334.7734 A0,0 0 0 0 45,334.7734 " fill="#FEFFDD" style="stroke:#181818;stroke-width:0.5;"/><path d="M303,334.7734 L303,344.7734 L313,344.7734 L303,334.7734 " fill="#FEFFDD" style="stroke:#181818;stroke-width:0.5;"/><text fill="#000000" font-family="sans-serif" font-size="13" lengthAdjust="spacing" textLength="234" x="51" y="353.332">&#35480;&#30330;&#12375;&#12383;&#12450;&#12463;&#12471;&#12519;&#12531;&#12398;&#12467;&#12531;&#12488;&#12525;&#12540;&#12521;&#12540;&#12399;</text><text fill="#000000" font-family="sans-serif" font-size="13" lengthAdjust="spacing" textLength="247" x="51" y="370.3438">&#36215;&#22240;&#12392;&#12394;&#12387;&#12383;&#12450;&#12463;&#12471;&#12519;&#12531;&#12398;&#12467;&#12531;&#12488;&#12525;&#12540;&#12521;&#12540;</text><text fill="#000000" font-family="sans-serif" font-size="13" lengthAdjust="spacing" textLength="78" x="51" y="387.3555">&#12395;&#12394;&#12426;&#12414;&#12377;&#12290;</text><rect fill="#F1F1F1" height="35.7031" rx="12.5" ry="12.5" style="stroke:#181818;stroke-width:0.5;" width="264" x="333" y="347.4395"/><text fill="#000000" font-family="sans-serif" font-size="12" lengthAdjust="spacing" textLength="244" x="343" y="369.9551">[6-5-6] &#35480;&#30330;&#12375;&#12383;&#12450;&#12463;&#12471;&#12519;&#12531;&#12434;&#12496;&#12483;&#12501;&#12449;&#12395;&#36861;&#21152;</text><polygon fill="#F1F1F1" points="343,287.8008,587,287.8008,599,299.8008,587,311.8008,343,311.8008,331,299.8008,343,287.8008" style="stroke:#181818;stroke-width:0.5;"/><text fill="#000000" font-family="sans-serif" font-size="11" lengthAdjust="spacing" textLength="17" x="469" y="323.2734">Yes</text><text fill="#000000" font-family="sans-serif" font-size="11" lengthAdjust="spacing" textLength="244" x="343" y="304.0762">[6-5-5] &#12450;&#12463;&#12471;&#12519;&#12531;&#12364;&#26032;&#12383;&#12394;&#35480;&#30330;&#12434;&#30330;&#29983;&#12373;&#12379;&#12383;&#12363;&#65311;</text><polygon fill="#F1F1F1" points="465,415.8086,477,427.8086,465,439.8086,453,427.8086,465,415.8086" style="stroke:#181818;stroke-width:0.5;"/><polygon fill="#F1F1F1" points="321,50,609,50,621,62,609,74,321,74,309,62,321,50" style="stroke:#181818;stroke-width:0.5;"/><text fill="#000000" font-family="sans-serif" font-size="11" lengthAdjust="spacing" textLength="17" x="469" y="85.4727">Yes</text><text fill="#000000" font-family="sans-serif" font-size="11" lengthAdjust="spacing" textLength="288" x="321" y="66.2754">[6-5-1] &#12496;&#12483;&#12501;&#12449;&#12363;&#12425;&#35442;&#24403;&#12398;&#21363;&#26178;&#21177;&#26524;&#12450;&#12463;&#12471;&#12519;&#12531;&#12364;&#12354;&#12427;&#12363;&#65311;</text><ellipse cx="24" cy="109" fill="none" rx="11" ry="11" style="stroke:#222222;stroke-width:1.0;"/><ellipse cx="24" cy="109" fill="#222222" rx="6" ry="6" style="stroke:#222222;stroke-width:1.0;"/><line style="stroke:#181818;stroke-width:1.0;" x1="465" x2="465" y1="148.0977" y2="168.0977"/><polygon fill="#181818" points="461,158.0977,465,168.0977,469,158.0977,465,162.0977" style="stroke:#181818;stroke-width:1.0;"/><line style="stroke:#181818;stroke-width:1.0;" x1="465" x2="465" y1="247.8008" y2="287.8008"/><polygon fill="#181818" points="461,277.8008,465,287.8008,469,277.8008,465,281.8008" style="stroke:#181818;stroke-width:1.0;"/><line style="stroke:#181818;stroke-width:1.0;" x1="516.5" x2="549.5" y1="235.8008" y2="235.8008"/><polygon fill="#181818" points="539.5,231.8008,549.5,235.8008,539.5,239.8008,543.5,235.8008" style="stroke:#181818;stroke-width:1.0;"/><line style="stroke:#181818;stroke-width:1.0;" x1="465" x2="465" y1="203.8008" y2="223.8008"/><polygon fill="#181818" points="461,213.8008,465,223.8008,469,213.8008,465,217.8008" style="stroke:#181818;stroke-width:1.0;"/><line style="stroke:#181818;stroke-width:1.0;" x1="465" x2="465" y1="311.8008" y2="347.4395"/><polygon fill="#181818" points="461,337.4395,465,347.4395,469,337.4395,465,341.4395" style="stroke:#181818;stroke-width:1.0;"/><line style="stroke:#181818;stroke-width:1.0;" x1="599" x2="611" y1="299.8008" y2="299.8008"/><polygon fill="#181818" points="607,355.291,611,365.291,615,355.291,611,359.291" style="stroke:#181818;stroke-width:1.0;"/><line style="stroke:#181818;stroke-width:1.0;" x1="611" x2="611" y1="299.8008" y2="427.8086"/><line style="stroke:#181818;stroke-width:1.0;" x1="611" x2="477" y1="427.8086" y2="427.8086"/><polygon fill="#181818" points="487,423.8086,477,427.8086,487,431.8086,483,427.8086" style="stroke:#181818;stroke-width:1.0;"/><line style="stroke:#181818;stroke-width:1.0;" x1="465" x2="465" y1="383.1426" y2="415.8086"/><polygon fill="#181818" points="461,405.8086,465,415.8086,469,405.8086,465,409.8086" style="stroke:#181818;stroke-width:1.0;"/><line style="stroke:#181818;stroke-width:1.0;" x1="465" x2="465" y1="74" y2="112.3945"/><polygon fill="#181818" points="461,102.3945,465,112.3945,469,102.3945,465,106.3945" style="stroke:#181818;stroke-width:1.0;"/><line style="stroke:#181818;stroke-width:1.0;" x1="465" x2="465" y1="439.8086" y2="449.8086"/><line style="stroke:#181818;stroke-width:1.0;" x1="465" x2="639" y1="449.8086" y2="449.8086"/><polygon fill="#181818" points="635,267.8008,639,257.8008,643,267.8008,639,263.8008" style="stroke:#181818;stroke-width:1.0;"/><line style="stroke:#181818;stroke-width:1.0;" x1="639" x2="639" y1="62" y2="449.8086"/><line style="stroke:#181818;stroke-width:1.0;" x1="639" x2="621" y1="62" y2="62"/><polygon fill="#181818" points="631,58,621,62,631,66,627,62" style="stroke:#181818;stroke-width:1.0;"/><line style="stroke:#181818;stroke-width:1.0;" x1="309" x2="24" y1="62" y2="62"/><line style="stroke:#181818;stroke-width:1.0;" x1="24" x2="24" y1="62" y2="98"/><polygon fill="#181818" points="20,88,24,98,28,88,24,92" style="stroke:#181818;stroke-width:1.0;"/><line style="stroke:#181818;stroke-width:1.0;" x1="465" x2="465" y1="30" y2="50"/><polygon fill="#181818" points="461,40,465,50,469,40,465,44" style="stroke:#181818;stroke-width:1.0;"/><!--SRC=[ZPBDJi9058NtVOhP0GiM_i12ueCOmyB44feGCBQ9syvC8bZyGHGG444n8X2BIWoHW3xCpRJTyGfEIo4efjh5pNHkptVlEQblq_CHVA3cs4dVA1EclHitrvDH1SWTa1wG0T0MqBxHEmNSPUa7CtS8whdW-uCeoChElY8SnAM4YFpRuM0ek195G7D0AT02a5l0MI17LlkLZIy0wulZVym6V0oO0CbooMHK3o19HlujKGu826quwDNVq5v4acTdHI0QImy1boDpq5eKBJHAWEkUU-cp-xpLQXelDeklQUEacEjwdHEpDQDGOfbxfbS2I8cBIUJd7virrNQ0aAoazlX1JEvAiKLfYBjQIi8eFlEj07UipfLP7lBHl9gN_AO0kEgqfY5DvxWnpVo5eyZLEUQMO_aUOzVw73Ej4N48oPGYeeGOKvmtv0d2Ef2-VQ0Pe4z0Hq3RTiMzcVXjmAeDm8_S2U3c_n6kdkzcAua6-CDENILEWsVex3cFarVd7nJiaBy0]--></g></svg>