<?xml version="1.0" encoding="UTF-8" standalone="no"?><svg xmlns="http://www.w3.org/2000/svg" xmlns:xlink="http://www.w3.org/1999/xlink" contentScriptType="application/ecmascript" contentStyleType="text/css" height="669px" preserveAspectRatio="none" style="width:436px;height:669px;" version="1.1" viewBox="0 0 436 669" width="436px" zoomAndPan="magnify"><defs><filter height="300%" id="frlqrksyyft3" width="300%" x="-1" y="-1"><feGaussianBlur result="blurOut" stdDeviation="2.0"/><feColorMatrix in="blurOut" result="blurOut2" type="matrix" values="0 0 0 0 0 0 0 0 0 0 0 0 0 0 0 0 0 0 .4 0"/><feOffset dx="4.0" dy="4.0" in="blurOut2" result="blurOut3"/><feBlend in="SourceGraphic" in2="blurOut3" mode="normal"/></filter></defs><g><ellipse cx="323.5" cy="16" fill="#000000" filter="url(#frlqrksyyft3)" rx="10" ry="10" style="stroke: none; stroke-width: 1.0;"/><rect fill="#FEFECE" filter="url(#frlqrksyyft3)" height="35.7031" rx="12.5" ry="12.5" style="stroke: #A80036; stroke-width: 1.5;" width="125" x="261" y="67"/><text fill="#000000" font-family="sans-serif" font-size="12" lengthAdjust="spacingAndGlyphs" textLength="105" x="271" y="89.5156">[10-1]誘発チェック</text><polygon fill="#FEFECE" filter="url(#frlqrksyyft3)" points="280.5,144,292.5,156,280.5,168,268.5,156,280.5,144" style="stroke: #A80036; stroke-width: 1.5;"/><rect fill="#FEFECE" filter="url(#frlqrksyyft3)" height="35.7031" rx="12.5" ry="12.5" style="stroke: #A80036; stroke-width: 1.5;" width="149" x="103" y="224"/><text fill="#000000" font-family="sans-serif" font-size="12" lengthAdjust="spacingAndGlyphs" textLength="129" x="113" y="246.5156">[10-2]即時誘発有無判定</text><polygon fill="#FEFECE" filter="url(#frlqrksyyft3)" points="177.5,301,189.5,313,177.5,325,165.5,313,177.5,301" style="stroke: #A80036; stroke-width: 1.5;"/><rect fill="#FEFECE" filter="url(#frlqrksyyft3)" height="35.7031" rx="12.5" ry="12.5" style="stroke: #A80036; stroke-width: 1.5;" width="205" x="7" y="381"/><text fill="#000000" font-family="sans-serif" font-size="12" lengthAdjust="spacingAndGlyphs" textLength="185" x="17" y="403.5156">[10-3]アクションの解決&amp;勝敗判定</text><rect fill="#FEFECE" filter="url(#frlqrksyyft3)" height="35.7031" rx="12.5" ry="12.5" style="stroke: #A80036; stroke-width: 1.5;" width="125" x="167" y="458"/><text fill="#000000" font-family="sans-serif" font-size="12" lengthAdjust="spacingAndGlyphs" textLength="105" x="177" y="480.5156">[10-4]誘発有無判定</text><polygon fill="#FEFECE" filter="url(#frlqrksyyft3)" points="323.5,535,335.5,547,323.5,559,311.5,547,323.5,535" style="stroke: #A80036; stroke-width: 1.5;"/><rect fill="#FEFECE" filter="url(#frlqrksyyft3)" height="35.7031" rx="12.5" ry="12.5" style="stroke: #A80036; stroke-width: 1.5;" width="137" x="280" y="615"/><text fill="#000000" font-family="sans-serif" font-size="12" lengthAdjust="spacingAndGlyphs" textLength="117" x="290" y="637.5156">[10-5]ステージに追加</text><ellipse cx="281.5" cy="242" fill="none" filter="url(#frlqrksyyft3)" rx="10" ry="10" style="stroke: #000000; stroke-width: 1.0;"/><ellipse cx="282" cy="242.5" fill="#000000" rx="6" ry="6" style="stroke: none; stroke-width: 1.0;"/><!--MD5=[835be86e931552aad2d817c31f100959]
link start to [10-1]誘発チェック--><path d="M323.5,26.04 C323.5,35.16 323.5,49.61 323.5,61.8 " fill="none" id="start-&gt;[10-1]誘発チェック" style="stroke: #A80036; stroke-width: 1.0;"/><polygon fill="#A80036" points="323.5,66.87,327.5,57.87,323.5,61.87,319.5,57.87,323.5,66.87" style="stroke: #A80036; stroke-width: 1.0;"/><!--MD5=[db0640135800d81ce869446f12f16070]
link [10-1]誘発チェック to #5--><path d="M312.87,103.06 C304.95,115.77 294.36,132.76 287.48,143.8 " fill="none" id="[10-1]誘発チェック-&gt;#5" style="stroke: #A80036; stroke-width: 1.0;"/><polygon fill="#A80036" points="284.78,148.13,292.9336,142.6057,287.4236,143.886,286.1432,138.3759,284.78,148.13" style="stroke: #A80036; stroke-width: 1.0;"/><text fill="#000000" font-family="sans-serif" font-size="11" lengthAdjust="spacingAndGlyphs" textLength="0" x="287.2125" y="132.764"/><!--MD5=[1beb934c0227bed58fb2e48454408f72]
link #5 to [10-2]即時誘発有無判定--><path d="M274.37,162 C260.53,173.29 226.24,201.25 202.41,220.68 " fill="none" id="#5-&gt;[10-2]即時誘発有無判定" style="stroke: #A80036; stroke-width: 1.0;"/><polygon fill="#A80036" points="198.39,223.97,207.8927,221.382,202.2649,220.81,202.8368,215.1822,198.39,223.97" style="stroke: #A80036; stroke-width: 1.0;"/><text fill="#000000" font-family="sans-serif" font-size="11" lengthAdjust="spacingAndGlyphs" textLength="18" x="242.5" y="200.4727">YES</text><!--MD5=[47ff2a442f54ad611324871ee36d3dfe]
link [10-2]即時誘発有無判定 to #10--><path d="M177.5,260.06 C177.5,270.93 177.5,284.94 177.5,295.67 " fill="none" id="[10-2]即時誘発有無判定-&gt;#10" style="stroke: #A80036; stroke-width: 1.0;"/><polygon fill="#A80036" points="177.5,300.95,181.5,291.95,177.5,295.95,173.5,291.95,177.5,300.95" style="stroke: #A80036; stroke-width: 1.0;"/><text fill="#000000" font-family="sans-serif" font-size="11" lengthAdjust="spacingAndGlyphs" textLength="0" x="176.8438" y="290.1746"/><!--MD5=[22182c5a42308e8801b87479088bdbed]
link #10 to [10-3]アクションの解決&勝敗判定--><path d="M172.39,320.31 C162.8,332.16 141.71,358.21 126.6,376.88 " fill="none" id="#10-&gt;[10-3]アクションの解決&amp;勝敗判定" style="stroke: #A80036; stroke-width: 1.0;"/><polygon fill="#A80036" points="123.28,380.98,132.0598,376.5173,126.433,377.0994,125.8509,371.4726,123.28,380.98" style="stroke: #A80036; stroke-width: 1.0;"/><text fill="#000000" font-family="sans-serif" font-size="11" lengthAdjust="spacingAndGlyphs" textLength="18" x="153.5" y="357.4727">YES</text><!--MD5=[7ab1fb589ebdd1b5b85e01bd5ebe6069]
link [10-3]アクションの解決&勝敗判定 to [10-4]誘発有無判定--><path d="M136.73,417.02 C154.71,428.25 178.35,443.03 197.26,454.85 " fill="none" id="[10-3]アクションの解決&amp;勝敗判定-&gt;[10-4]誘発有無判定" style="stroke: #A80036; stroke-width: 1.0;"/><polygon fill="#A80036" points="201.96,457.79,196.448,449.628,197.72,455.14,192.208,456.412,201.96,457.79" style="stroke: #A80036; stroke-width: 1.0;"/><!--MD5=[2a49caf719768a4c01a1c8c0f0bcea77]
link #10 to [10-4]誘発有無判定--><path d="M183.04,320.08 C192.81,331.21 212.86,356.01 221.5,381 C229.62,404.49 230.93,433.15 230.64,452.61 " fill="none" id="#10-&gt;[10-4]誘発有無判定" style="stroke: #A80036; stroke-width: 1.0;"/><polygon fill="#A80036" points="230.52,457.84,234.7246,448.9338,230.6343,452.8413,226.7267,448.7509,230.52,457.84" style="stroke: #A80036; stroke-width: 1.0;"/><text fill="#000000" font-family="sans-serif" font-size="11" lengthAdjust="spacingAndGlyphs" textLength="16" x="230.5" y="403.4727">NO</text><!--MD5=[b65df4bc286bccf3fcba8450db8f75be]
link [10-4]誘発有無判定 to #18--><path d="M252.74,494.06 C271.85,508.09 298.09,527.35 312.65,538.03 " fill="none" id="[10-4]誘発有無判定-&gt;#18" style="stroke: #A80036; stroke-width: 1.0;"/><polygon fill="#A80036" points="316.77,541.06,311.9014,532.4986,312.7462,538.0921,307.1527,538.9368,316.77,541.06" style="stroke: #A80036; stroke-width: 1.0;"/><text fill="#000000" font-family="sans-serif" font-size="11" lengthAdjust="spacingAndGlyphs" textLength="0" x="307.5112" y="524.1971"/><!--MD5=[17a4909dfb2b486e6572a239056b83ed]
link #18 to [10-5]ステージに追加--><path d="M325.88,557.04 C328.4,566.53 332.56,581.86 336.5,595 C337.96,599.85 339.59,605.03 341.17,609.94 " fill="none" id="#18-&gt;[10-5]ステージに追加" style="stroke: #A80036; stroke-width: 1.0;"/><polygon fill="#A80036" points="342.73,614.73,343.7583,604.935,341.1875,609.9739,336.1486,607.403,342.73,614.73" style="stroke: #A80036; stroke-width: 1.0;"/><text fill="#000000" font-family="sans-serif" font-size="11" lengthAdjust="spacingAndGlyphs" textLength="18" x="337.5" y="591.4727">YES</text><!--MD5=[d29a6fbbb5691b03b590eb9977d87481]
link [10-5]ステージに追加 to [10-1]誘発チェック--><path d="M356.49,614.71 C363.47,598.01 372.5,571.81 372.5,548 C372.5,155 372.5,155 372.5,155 C372.5,136.49 360.64,119.49 348.58,107 " fill="none" id="[10-5]ステージに追加-&gt;[10-1]誘発チェック" style="stroke: #A80036; stroke-width: 1.0;"/><polygon fill="#A80036" points="344.85,103.27,348.4041,112.4552,348.3927,106.7984,354.0495,106.787,344.85,103.27" style="stroke: #A80036; stroke-width: 1.0;"/><!--MD5=[ecb221743d821f4b05d7aa698dcfa647]
link #18 to [10-1]誘発チェック--><path d="M323.5,534.77 C323.5,521.11 323.5,497.36 323.5,477 C323.5,155 323.5,155 323.5,155 C323.5,139.35 323.5,121.7 323.5,108.17 " fill="none" id="#18-&gt;[10-1]誘発チェック" style="stroke: #A80036; stroke-width: 1.0;"/><polygon fill="#A80036" points="323.5,103.01,319.5,112.01,323.5,108.01,327.5,112.01,323.5,103.01" style="stroke: #A80036; stroke-width: 1.0;"/><text fill="#000000" font-family="sans-serif" font-size="11" lengthAdjust="spacingAndGlyphs" textLength="16" x="324.5" y="317.4727">NO</text><!--MD5=[354e12f5adebb6f1562c7b59ede5ab58]
link #5 to end--><path d="M280.63,167.98 C280.81,183 281.13,209.99 281.33,226.61 " fill="none" id="#5-&gt;end" style="stroke: #A80036; stroke-width: 1.0;"/><polygon fill="#A80036" points="281.39,231.82,285.2869,222.7749,281.3329,226.8203,277.2874,222.8663,281.39,231.82" style="stroke: #A80036; stroke-width: 1.0;"/><text fill="#000000" font-family="sans-serif" font-size="11" lengthAdjust="spacingAndGlyphs" textLength="16" x="281.5" y="200.4727">NO</text><!--MD5=[67934a2c7429548504275c3ecaa6f7aa]
@startuml
(*) - -> "[10-1]誘発チェック"

if "" then
    - ->[YES] "[10-2]即時誘発有無判定"
    if "" then
        - ->[YES] "[10-3]アクションの解決&勝敗判定"
        - -> "[10-4]誘発有無判定"
    else
        - ->[NO] "[10-4]誘発有無判定"
    endif

    if "" then
        - ->[YES] "[10-5]ステージに追加"
        - -> "[10-1]誘発チェック"
    else
        - ->[NO] "[10-1]誘発チェック"
    endif

else
    - ->[NO] (*)
endif

@enduml

PlantUML version 1.2020.14(Sat Jun 20 14:14:34 GMT 2020)
(GPL source distribution)
Java Runtime: OpenJDK Runtime Environment
JVM: OpenJDK 64-Bit Server VM
Default Encoding: UTF-8
Language: ja
Country: JP
--></g></svg>