<?xml version="1.0" encoding="us-ascii" standalone="no"?><svg xmlns="http://www.w3.org/2000/svg" xmlns:xlink="http://www.w3.org/1999/xlink" contentStyleType="text/css" height="1025px" preserveAspectRatio="none" style="width:901px;height:1025px;background:#FFFFFF;" version="1.1" viewBox="0 0 901 1025" width="901px" zoomAndPan="magnify"><defs/><g><ellipse cx="456.5" cy="20" fill="#222222" rx="10" ry="10" style="stroke:#222222;stroke-width:1.0;"/><path d="M619,50 L619,77.0117 L871,77.0117 L871,60 L861,50 L619,50 " fill="#FEFFDD" style="stroke:#181818;stroke-width:0.5;"/><path d="M861,50 L861,60 L871,60 L861,50 " fill="#FEFFDD" style="stroke:#181818;stroke-width:0.5;"/><text fill="#000000" font-family="sans-serif" font-size="13" lengthAdjust="spacing" textLength="231" x="625" y="68.5586">&#12300;&#21363;&#26178;/&#36890;&#24120; &#215; &#12513;&#12452;&#12531;/&#12463;&#12452;&#12483;&#12463;&#12301;&#12391;&#20998;&#39006;</text><path d="M611,97.0117 L611,158.0469 L879,158.0469 L879,107.0117 L869,97.0117 L611,97.0117 " fill="#FEFFDD" style="stroke:#181818;stroke-width:0.5;"/><path d="M869,97.0117 L869,107.0117 L879,107.0117 L869,97.0117 " fill="#FEFFDD" style="stroke:#181818;stroke-width:0.5;"/><text fill="#000000" font-family="sans-serif" font-size="13" lengthAdjust="spacing" textLength="234" x="617" y="115.5703">&#35480;&#30330;&#12375;&#12383;&#12450;&#12463;&#12471;&#12519;&#12531;&#12398;&#12467;&#12531;&#12488;&#12525;&#12540;&#12521;&#12540;&#12399;</text><text fill="#000000" font-family="sans-serif" font-size="13" lengthAdjust="spacing" textLength="247" x="617" y="132.582">&#36215;&#22240;&#12392;&#12394;&#12387;&#12383;&#12450;&#12463;&#12471;&#12519;&#12531;&#12398;&#12467;&#12531;&#12488;&#12525;&#12540;&#12521;&#12540;</text><text fill="#000000" font-family="sans-serif" font-size="13" lengthAdjust="spacing" textLength="78" x="617" y="149.5938">&#12395;&#12394;&#12426;&#12414;&#12377;&#12290;</text><rect fill="#F1F1F1" height="35.7031" rx="12.5" ry="12.5" style="stroke:#181818;stroke-width:0.5;" width="289" x="312" y="86.1719"/><text fill="#000000" font-family="sans-serif" font-size="12" lengthAdjust="spacing" textLength="269" x="322" y="108.6875">[6-1] &#35480;&#30330;&#12375;&#12383;&#12450;&#12463;&#12471;&#12519;&#12531;&#12434;&#20998;&#39006;&#12375;&#12496;&#12483;&#12501;&#12449;&#12395;&#36861;&#21152;</text><rect fill="none" height="291.4023" style="stroke:#000000;stroke-width:1.5;" width="716" x="64.5" y="297.4141"/><path d="M264.5,297.4141 L264.5,308.7344 L254.5,318.7344 L64.5,318.7344 " fill="none" style="stroke:#000000;stroke-width:1.5;"/><text fill="#000000" font-family="sans-serif" font-size="14" lengthAdjust="spacing" textLength="190" x="67.5" y="313.0156">&#21363;&#26178;&#21177;&#26524;: &#12503;&#12524;&#12452;&#12516;&#12540;&#27598;&#12395;&#20966;&#29702;</text><path d="M84.5,440.0527 L84.5,484.0762 L274.5,484.0762 L274.5,450.0527 L264.5,440.0527 L84.5,440.0527 " fill="#FEFFDD" style="stroke:#181818;stroke-width:0.5;"/><path d="M264.5,440.0527 L264.5,450.0527 L274.5,450.0527 L264.5,440.0527 " fill="#FEFFDD" style="stroke:#181818;stroke-width:0.5;"/><text fill="#000000" font-family="sans-serif" font-size="13" lengthAdjust="spacing" textLength="169" x="90.5" y="458.6113">&#38918;&#30058;&#12399;&#12479;&#12540;&#12531;&#12503;&#12524;&#12452;&#12516;&#12540;&#12363;&#12425;</text><text fill="#000000" font-family="sans-serif" font-size="13" lengthAdjust="spacing" textLength="130" x="90.5" y="475.623">&#12479;&#12540;&#12531;&#12364;&#22238;&#12427;&#38918;&#12395;&#34892;&#12358;</text><path d="M618.5,397.0527 L618.5,406.5586 L598.5,410.5586 L618.5,414.5586 L618.5,424.0645 A0,0 0 0 0 618.5,424.0645 L743.5,424.0645 A0,0 0 0 0 743.5,424.0645 L743.5,407.0527 L733.5,397.0527 L618.5,397.0527 A0,0 0 0 0 618.5,397.0527 " fill="#FEFFDD" style="stroke:#181818;stroke-width:0.5;"/><path d="M733.5,397.0527 L733.5,407.0527 L743.5,407.0527 L733.5,397.0527 " fill="#FEFFDD" style="stroke:#181818;stroke-width:0.5;"/><text fill="#000000" font-family="sans-serif" font-size="13" lengthAdjust="spacing" textLength="104" x="624.5" y="415.6113">&#21029;&#12501;&#12525;&#12540;&#21628;&#12403;&#20986;&#12375;</text><rect fill="#F1F1F1" height="35.7031" rx="12.5" ry="12.5" style="stroke:#181818;stroke-width:0.5;" width="284" x="314.5" y="392.707"/><text fill="#000000" font-family="sans-serif" font-size="12" lengthAdjust="spacing" textLength="264" x="324.5" y="415.2227">[6-5] &#12479;&#12452;&#12511;&#12531;&#12464;=&#12513;&#12452;&#12531;&#12398;&#21363;&#26178;&#12450;&#12463;&#12471;&#12519;&#12531;&#12434;&#20966;&#29702;</text><path d="M624.5,467.7559 L624.5,477.2617 L604.5,481.2617 L624.5,485.2617 L624.5,494.7676 A0,0 0 0 0 624.5,494.7676 L749.5,494.7676 A0,0 0 0 0 749.5,494.7676 L749.5,477.7559 L739.5,467.7559 L624.5,467.7559 A0,0 0 0 0 624.5,467.7559 " fill="#FEFFDD" style="stroke:#181818;stroke-width:0.5;"/><path d="M739.5,467.7559 L739.5,477.7559 L749.5,477.7559 L739.5,467.7559 " fill="#FEFFDD" style="stroke:#181818;stroke-width:0.5;"/><text fill="#000000" font-family="sans-serif" font-size="13" lengthAdjust="spacing" textLength="104" x="630.5" y="486.3145">&#21029;&#12501;&#12525;&#12540;&#21628;&#12403;&#20986;&#12375;</text><rect fill="#F1F1F1" height="35.7031" rx="12.5" ry="12.5" style="stroke:#181818;stroke-width:0.5;" width="296" x="308.5" y="463.4102"/><text fill="#000000" font-family="sans-serif" font-size="12" lengthAdjust="spacing" textLength="276" x="318.5" y="485.9258">[6-6] &#12479;&#12452;&#12511;&#12531;&#12464;=&#12463;&#12452;&#12483;&#12463;&#12398;&#21363;&#26178;&#12450;&#12463;&#12471;&#12519;&#12531;&#12434;&#20966;&#29702;</text><rect fill="#F1F1F1" height="35.7031" rx="12.5" ry="12.5" style="stroke:#181818;stroke-width:0.5;" width="145" x="384" y="519.1133"/><text fill="#000000" font-family="sans-serif" font-size="12" lengthAdjust="spacing" textLength="125" x="394" y="541.6289">[6-7] &#27425;&#12398;&#12503;&#12524;&#12452;&#12516;&#12540;&#12408;</text><polygon fill="#F1F1F1" points="350.5,335.7344,562.5,335.7344,574.5,347.7344,562.5,359.7344,350.5,359.7344,338.5,347.7344,350.5,335.7344" style="stroke:#181818;stroke-width:0.5;"/><text fill="#000000" font-family="sans-serif" font-size="11" lengthAdjust="spacing" textLength="17" x="460.5" y="371.207">Yes</text><text fill="#000000" font-family="sans-serif" font-size="11" lengthAdjust="spacing" textLength="212" x="350.5" y="352.0098">[6-4] &#35442;&#24403;&#12503;&#12524;&#12452;&#12516;&#12540;&#12395;&#21363;&#26178;&#21177;&#26524;&#12364;&#12354;&#12427;&#12363;&#65311;</text><text fill="#000000" font-family="sans-serif" font-size="11" lengthAdjust="spacing" textLength="14" x="324.5" y="344.8125">No</text><polygon fill="#F1F1F1" points="367,250.4414,546,250.4414,558,262.4414,546,274.4414,367,274.4414,355,262.4414,367,250.4414" style="stroke:#181818;stroke-width:0.5;"/><text fill="#000000" font-family="sans-serif" font-size="11" lengthAdjust="spacing" textLength="17" x="460.5" y="285.9141">Yes</text><text fill="#000000" font-family="sans-serif" font-size="11" lengthAdjust="spacing" textLength="179" x="367" y="266.7168">[6-3] &#12496;&#12483;&#12501;&#12449;&#12395;&#21363;&#26178;&#21177;&#26524;&#12399;&#12354;&#12427;&#12363;&#65311;</text><text fill="#000000" font-family="sans-serif" font-size="11" lengthAdjust="spacing" textLength="14" x="341" y="259.5195">No</text><rect fill="none" height="291.4023" style="stroke:#000000;stroke-width:1.5;" width="723" x="61" y="677.7891"/><path d="M261,677.7891 L261,689.1094 L251,699.1094 L61,699.1094 " fill="none" style="stroke:#000000;stroke-width:1.5;"/><text fill="#000000" font-family="sans-serif" font-size="14" lengthAdjust="spacing" textLength="190" x="64" y="693.3906">&#36890;&#24120;&#21177;&#26524;: &#12503;&#12524;&#12452;&#12516;&#12540;&#27598;&#12395;&#20966;&#29702;</text><path d="M81,820.4277 L81,864.4512 L271,864.4512 L271,830.4277 L261,820.4277 L81,820.4277 " fill="#FEFFDD" style="stroke:#181818;stroke-width:0.5;"/><path d="M261,820.4277 L261,830.4277 L271,830.4277 L261,820.4277 " fill="#FEFFDD" style="stroke:#181818;stroke-width:0.5;"/><text fill="#000000" font-family="sans-serif" font-size="13" lengthAdjust="spacing" textLength="169" x="87" y="838.9863">&#38918;&#30058;&#12399;&#12479;&#12540;&#12531;&#12503;&#12524;&#12452;&#12516;&#12540;&#12363;&#12425;</text><text fill="#000000" font-family="sans-serif" font-size="13" lengthAdjust="spacing" textLength="130" x="87" y="855.998">&#12479;&#12540;&#12531;&#12364;&#22238;&#12427;&#38918;&#12395;&#34892;&#12358;</text><path d="M622,777.4277 L622,786.9336 L602,790.9336 L622,794.9336 L622,804.4395 A0,0 0 0 0 622,804.4395 L747,804.4395 A0,0 0 0 0 747,804.4395 L747,787.4277 L737,777.4277 L622,777.4277 A0,0 0 0 0 622,777.4277 " fill="#FEFFDD" style="stroke:#181818;stroke-width:0.5;"/><path d="M737,777.4277 L737,787.4277 L747,787.4277 L737,777.4277 " fill="#FEFFDD" style="stroke:#181818;stroke-width:0.5;"/><text fill="#000000" font-family="sans-serif" font-size="13" lengthAdjust="spacing" textLength="104" x="628" y="795.9863">&#21029;&#12501;&#12525;&#12540;&#21628;&#12403;&#20986;&#12375;</text><rect fill="#F1F1F1" height="35.7031" rx="12.5" ry="12.5" style="stroke:#181818;stroke-width:0.5;" width="291" x="311" y="773.082"/><text fill="#000000" font-family="sans-serif" font-size="12" lengthAdjust="spacing" textLength="271" x="321" y="795.5977">[6-10] &#12479;&#12452;&#12511;&#12531;&#12464;=&#12513;&#12452;&#12531;&#12398;&#36890;&#24120;&#12450;&#12463;&#12471;&#12519;&#12531;&#12434;&#20966;&#29702;</text><path d="M628,848.1309 L628,857.6367 L608,861.6367 L628,865.6367 L628,875.1426 A0,0 0 0 0 628,875.1426 L753,875.1426 A0,0 0 0 0 753,875.1426 L753,858.1309 L743,848.1309 L628,848.1309 A0,0 0 0 0 628,848.1309 " fill="#FEFFDD" style="stroke:#181818;stroke-width:0.5;"/><path d="M743,848.1309 L743,858.1309 L753,858.1309 L743,848.1309 " fill="#FEFFDD" style="stroke:#181818;stroke-width:0.5;"/><text fill="#000000" font-family="sans-serif" font-size="13" lengthAdjust="spacing" textLength="104" x="634" y="866.6895">&#21029;&#12501;&#12525;&#12540;&#21628;&#12403;&#20986;&#12375;</text><rect fill="#F1F1F1" height="35.7031" rx="12.5" ry="12.5" style="stroke:#181818;stroke-width:0.5;" width="303" x="305" y="843.7852"/><text fill="#000000" font-family="sans-serif" font-size="12" lengthAdjust="spacing" textLength="283" x="315" y="866.3008">[6-11] &#12479;&#12452;&#12511;&#12531;&#12464;=&#12463;&#12452;&#12483;&#12463;&#12398;&#36890;&#24120;&#12450;&#12463;&#12471;&#12519;&#12531;&#12434;&#20966;&#29702;</text><rect fill="#F1F1F1" height="35.7031" rx="12.5" ry="12.5" style="stroke:#181818;stroke-width:0.5;" width="152" x="380.5" y="899.4883"/><text fill="#000000" font-family="sans-serif" font-size="12" lengthAdjust="spacing" textLength="132" x="390.5" y="922.0039">[6-12] &#27425;&#12398;&#12503;&#12524;&#12452;&#12516;&#12540;&#12408;</text><polygon fill="#F1F1F1" points="350.5,716.1094,562.5,716.1094,574.5,728.1094,562.5,740.1094,350.5,740.1094,338.5,728.1094,350.5,716.1094" style="stroke:#181818;stroke-width:0.5;"/><text fill="#000000" font-family="sans-serif" font-size="11" lengthAdjust="spacing" textLength="17" x="460.5" y="751.582">Yes</text><text fill="#000000" font-family="sans-serif" font-size="11" lengthAdjust="spacing" textLength="212" x="350.5" y="732.3848">[6-9] &#35442;&#24403;&#12503;&#12524;&#12452;&#12516;&#12540;&#12395;&#36890;&#24120;&#21177;&#26524;&#12364;&#12354;&#12427;&#12363;&#65311;</text><text fill="#000000" font-family="sans-serif" font-size="11" lengthAdjust="spacing" textLength="14" x="324.5" y="725.1875">No</text><polygon fill="#F1F1F1" points="367,630.8164,546,630.8164,558,642.8164,546,654.8164,367,654.8164,355,642.8164,367,630.8164" style="stroke:#181818;stroke-width:0.5;"/><text fill="#000000" font-family="sans-serif" font-size="11" lengthAdjust="spacing" textLength="17" x="460.5" y="666.2891">Yes</text><text fill="#000000" font-family="sans-serif" font-size="11" lengthAdjust="spacing" textLength="179" x="367" y="647.0918">[6-8] &#12496;&#12483;&#12501;&#12449;&#12395;&#36890;&#24120;&#21177;&#26524;&#12399;&#12354;&#12427;&#12363;&#65311;</text><text fill="#000000" font-family="sans-serif" font-size="11" lengthAdjust="spacing" textLength="17" x="338" y="639.8945">Yes</text><polygon fill="#F1F1F1" points="400,188.0469,513,188.0469,525,200.0469,513,212.0469,400,212.0469,388,200.0469,400,188.0469" style="stroke:#181818;stroke-width:0.5;"/><text fill="#000000" font-family="sans-serif" font-size="11" lengthAdjust="spacing" textLength="14" x="460.5" y="223.5195">No</text><text fill="#000000" font-family="sans-serif" font-size="11" lengthAdjust="spacing" textLength="113" x="400" y="204.3223">[6-2] &#12496;&#12483;&#12501;&#12449;&#12399;&#31354;&#12363;&#65311;</text><text fill="#000000" font-family="sans-serif" font-size="11" lengthAdjust="spacing" textLength="17" x="371" y="197.125">Yes</text><ellipse cx="24" cy="247.0469" fill="none" rx="11" ry="11" style="stroke:#222222;stroke-width:1.0;"/><ellipse cx="24" cy="247.0469" fill="#222222" rx="6" ry="6" style="stroke:#222222;stroke-width:1.0;"/><line style="stroke:#181818;stroke-width:1.0;" x1="456.5" x2="456.5" y1="30" y2="86.1719"/><polygon fill="#181818" points="452.5,76.1719,456.5,86.1719,460.5,76.1719,456.5,80.1719" style="stroke:#181818;stroke-width:1.0;"/><line style="stroke:#181818;stroke-width:1.0;" x1="456.5" x2="456.5" y1="428.4102" y2="463.4102"/><polygon fill="#181818" points="452.5,453.4102,456.5,463.4102,460.5,453.4102,456.5,457.4102" style="stroke:#181818;stroke-width:1.0;"/><line style="stroke:#181818;stroke-width:1.0;" x1="456.5" x2="456.5" y1="499.1133" y2="519.1133"/><polygon fill="#181818" points="452.5,509.1133,456.5,519.1133,460.5,509.1133,456.5,513.1133" style="stroke:#181818;stroke-width:1.0;"/><line style="stroke:#181818;stroke-width:1.0;" x1="456.5" x2="456.5" y1="359.7344" y2="392.707"/><polygon fill="#181818" points="452.5,382.707,456.5,392.707,460.5,382.707,456.5,386.707" style="stroke:#181818;stroke-width:1.0;"/><line style="stroke:#181818;stroke-width:1.0;" x1="456.5" x2="456.5" y1="554.8164" y2="564.8164"/><line style="stroke:#181818;stroke-width:1.0;" x1="456.5" x2="761.5" y1="564.8164" y2="564.8164"/><polygon fill="#181818" points="757.5,472.0645,761.5,462.0645,765.5,472.0645,761.5,468.0645" style="stroke:#181818;stroke-width:1.0;"/><line style="stroke:#181818;stroke-width:1.0;" x1="761.5" x2="761.5" y1="347.7344" y2="564.8164"/><line style="stroke:#181818;stroke-width:1.0;" x1="761.5" x2="574.5" y1="347.7344" y2="347.7344"/><polygon fill="#181818" points="584.5,343.7344,574.5,347.7344,584.5,351.7344,580.5,347.7344" style="stroke:#181818;stroke-width:1.0;"/><line style="stroke:#181818;stroke-width:1.0;" x1="338.5" x2="296.5" y1="347.7344" y2="347.7344"/><polygon fill="#181818" points="292.5,458.0645,296.5,468.0645,300.5,458.0645,296.5,462.0645" style="stroke:#181818;stroke-width:1.0;"/><line style="stroke:#181818;stroke-width:1.0;" x1="296.5" x2="296.5" y1="347.7344" y2="576.8164"/><line style="stroke:#181818;stroke-width:1.0;" x1="296.5" x2="792.5" y1="576.8164" y2="576.8164"/><line style="stroke:#181818;stroke-width:1.0;" x1="792.5" x2="792.5" y1="262.4414" y2="576.8164"/><line style="stroke:#181818;stroke-width:1.0;" x1="792.5" x2="558" y1="262.4414" y2="262.4414"/><polygon fill="#181818" points="568,258.4414,558,262.4414,568,266.4414,564,262.4414" style="stroke:#181818;stroke-width:1.0;"/><line style="stroke:#181818;stroke-width:1.0;" x1="456.5" x2="456.5" y1="274.4414" y2="335.7344"/><polygon fill="#181818" points="452.5,325.7344,456.5,335.7344,460.5,325.7344,456.5,329.7344" style="stroke:#181818;stroke-width:1.0;"/><line style="stroke:#181818;stroke-width:1.0;" x1="355" x2="52.5" y1="262.4414" y2="262.4414"/><polygon fill="#181818" points="48.5,429.707,52.5,439.707,56.5,429.707,52.5,433.707" style="stroke:#181818;stroke-width:1.0;"/><line style="stroke:#181818;stroke-width:1.0;" x1="52.5" x2="52.5" y1="262.4414" y2="610.8164"/><line style="stroke:#181818;stroke-width:1.0;" x1="52.5" x2="456.5" y1="610.8164" y2="610.8164"/><line style="stroke:#181818;stroke-width:1.0;" x1="456.5" x2="456.5" y1="610.8164" y2="630.8164"/><polygon fill="#181818" points="452.5,620.8164,456.5,630.8164,460.5,620.8164,456.5,624.8164" style="stroke:#181818;stroke-width:1.0;"/><line style="stroke:#181818;stroke-width:1.0;" x1="456.5" x2="456.5" y1="808.7852" y2="843.7852"/><polygon fill="#181818" points="452.5,833.7852,456.5,843.7852,460.5,833.7852,456.5,837.7852" style="stroke:#181818;stroke-width:1.0;"/><line style="stroke:#181818;stroke-width:1.0;" x1="456.5" x2="456.5" y1="879.4883" y2="899.4883"/><polygon fill="#181818" points="452.5,889.4883,456.5,899.4883,460.5,889.4883,456.5,893.4883" style="stroke:#181818;stroke-width:1.0;"/><line style="stroke:#181818;stroke-width:1.0;" x1="456.5" x2="456.5" y1="740.1094" y2="773.082"/><polygon fill="#181818" points="452.5,763.082,456.5,773.082,460.5,763.082,456.5,767.082" style="stroke:#181818;stroke-width:1.0;"/><line style="stroke:#181818;stroke-width:1.0;" x1="456.5" x2="456.5" y1="935.1914" y2="945.1914"/><line style="stroke:#181818;stroke-width:1.0;" x1="456.5" x2="765" y1="945.1914" y2="945.1914"/><polygon fill="#181818" points="761,852.4395,765,842.4395,769,852.4395,765,848.4395" style="stroke:#181818;stroke-width:1.0;"/><line style="stroke:#181818;stroke-width:1.0;" x1="765" x2="765" y1="728.1094" y2="945.1914"/><line style="stroke:#181818;stroke-width:1.0;" x1="765" x2="574.5" y1="728.1094" y2="728.1094"/><polygon fill="#181818" points="584.5,724.1094,574.5,728.1094,584.5,732.1094,580.5,728.1094" style="stroke:#181818;stroke-width:1.0;"/><line style="stroke:#181818;stroke-width:1.0;" x1="338.5" x2="293" y1="728.1094" y2="728.1094"/><polygon fill="#181818" points="289,838.4395,293,848.4395,297,838.4395,293,842.4395" style="stroke:#181818;stroke-width:1.0;"/><line style="stroke:#181818;stroke-width:1.0;" x1="293" x2="293" y1="728.1094" y2="957.1914"/><line style="stroke:#181818;stroke-width:1.0;" x1="293" x2="796" y1="957.1914" y2="957.1914"/><line style="stroke:#181818;stroke-width:1.0;" x1="796" x2="796" y1="642.8164" y2="957.1914"/><line style="stroke:#181818;stroke-width:1.0;" x1="796" x2="558" y1="642.8164" y2="642.8164"/><polygon fill="#181818" points="568,638.8164,558,642.8164,568,646.8164,564,642.8164" style="stroke:#181818;stroke-width:1.0;"/><line style="stroke:#181818;stroke-width:1.0;" x1="456.5" x2="456.5" y1="654.8164" y2="716.1094"/><polygon fill="#181818" points="452.5,706.1094,456.5,716.1094,460.5,706.1094,456.5,710.1094" style="stroke:#181818;stroke-width:1.0;"/><line style="stroke:#181818;stroke-width:1.0;" x1="355" x2="49" y1="642.8164" y2="642.8164"/><polygon fill="#181818" points="45,810.082,49,820.082,53,810.082,49,814.082" style="stroke:#181818;stroke-width:1.0;"/><line style="stroke:#181818;stroke-width:1.0;" x1="49" x2="49" y1="642.8164" y2="991.1914"/><line style="stroke:#181818;stroke-width:1.0;" x1="49" x2="808" y1="991.1914" y2="991.1914"/><line style="stroke:#181818;stroke-width:1.0;" x1="808" x2="808" y1="200.0469" y2="991.1914"/><line style="stroke:#181818;stroke-width:1.0;" x1="808" x2="525" y1="200.0469" y2="200.0469"/><polygon fill="#181818" points="535,196.0469,525,200.0469,535,204.0469,531,200.0469" style="stroke:#181818;stroke-width:1.0;"/><line style="stroke:#181818;stroke-width:1.0;" x1="456.5" x2="456.5" y1="212.0469" y2="250.4414"/><polygon fill="#181818" points="452.5,240.4414,456.5,250.4414,460.5,240.4414,456.5,244.4414" style="stroke:#181818;stroke-width:1.0;"/><line style="stroke:#181818;stroke-width:1.0;" x1="388" x2="24" y1="200.0469" y2="200.0469"/><line style="stroke:#181818;stroke-width:1.0;" x1="24" x2="24" y1="200.0469" y2="236.0469"/><polygon fill="#181818" points="20,226.0469,24,236.0469,28,226.0469,24,230.0469" style="stroke:#181818;stroke-width:1.0;"/><line style="stroke:#181818;stroke-width:1.0;" x1="456.5" x2="456.5" y1="121.875" y2="188.0469"/><polygon fill="#181818" points="452.5,178.0469,456.5,188.0469,460.5,178.0469,456.5,182.0469" style="stroke:#181818;stroke-width:1.0;"/><!--SRC=[pLHDRr915Ds_Np4xogAfLAtQfZz1zyQmQ59II1GQUCPD5szc3EMh1ZGLQGqVYcs1MemlfgXW5_wKwq1PyHUS3_fudROKZMcT4FB8ctlEkUVUWsTnx34yO6NlBuN2w4d034QMmSeDsWaWxu0qWHm2tGLgiqIyNoa2_Guq3tGVI1Ke_xIxpHTiVQUNZG_QISDp2T6QYsNDY9bBKTEOVpGtxVEZu_gRNk4Ru3pWaaODvEMGdR-bMQ0Kw2QG2k36yL67fSeBHZXY1b0qj18q3SGFM1csONSBPAPlRR5M2_tC8w0LATgUaTXL0SCVh0t0kmhU28INaK3IuSPfmmT0RF504q0_SaE0riGtRghIBuTikmnu3t0TyFl90LGVk27gI0hm3y05iCX8e_4i67eSG5FSlba_EkrBirVZSjE3TicBGZ4qzI3YHHpGWrZrTP_k0Mr8dloWlQKP-gl37vAyLkhIb6Qw1sdPn0xWvq3I_KAMQrFZ5_98sX0iqvCVSPqldneMIttj5jzAJVgASML36YltvnGZfsxgJZNSrDmum8ItuVRkOI3cDUGqLgAHfwl8NJ2FnaYLDN9KQ7ZwvNXliovOo94SWAsL2zz9qha_keOpRBie72_7nTPNCe0L_cWTLCcerLiyKxNFhFFg38VMS-Q2dazKY83Uzain0gCa4_bfqSaJtnG5U4vifH4B3fIMAtLOueEOXjnzbkFwRBOkmkPSSNfqAvexHv4xrzSYweuVTVSh8ZgwvwqJFbutd14FfJD2kLg6_lRlmgJ-yguWJ7VFXCbDFL6Ot0N_SvZkNHocqprF4YRVZV5fKeXNkhW-twLnkWvLi_ykJshpjDynCxBw6m00]--></g></svg>