<?xml version="1.0" encoding="UTF-8" standalone="no"?><svg xmlns="http://www.w3.org/2000/svg" xmlns:xlink="http://www.w3.org/1999/xlink" contentScriptType="application/ecmascript" contentStyleType="text/css" height="1131px" preserveAspectRatio="none" style="width:551px;height:1131px;" version="1.1" viewBox="0 0 551 1131" width="551px" zoomAndPan="magnify"><defs><filter height="300%" id="fywx4ug2gstp6" width="300%" x="-1" y="-1"><feGaussianBlur result="blurOut" stdDeviation="2.0"/><feColorMatrix in="blurOut" result="blurOut2" type="matrix" values="0 0 0 0 0 0 0 0 0 0 0 0 0 0 0 0 0 0 .4 0"/><feOffset dx="4.0" dy="4.0" in="blurOut2" result="blurOut3"/><feBlend in="SourceGraphic" in2="blurOut3" mode="normal"/></filter></defs><g><ellipse cx="418.5" cy="16" fill="#000000" filter="url(#fywx4ug2gstp6)" rx="10" ry="10" style="stroke: none; stroke-width: 1.0;"/><rect fill="#FEFECE" filter="url(#fywx4ug2gstp6)" height="35.7031" rx="12.5" ry="12.5" style="stroke: #A80036; stroke-width: 1.5;" width="95" x="371" y="67"/><text fill="#000000" font-family="sans-serif" font-size="12" lengthAdjust="spacingAndGlyphs" textLength="75" x="381" y="89.5156">[1]ゲーム開始</text><rect fill="#FEFECE" filter="url(#fywx4ug2gstp6)" height="35.7031" rx="12.5" ry="12.5" style="stroke: #A80036; stroke-width: 1.5;" width="227" x="305" y="144"/><text fill="#000000" font-family="sans-serif" font-size="12" lengthAdjust="spacingAndGlyphs" textLength="207" x="315" y="166.5156">[2]ターンプレイヤーにチャンスを移動</text><rect fill="#FEFECE" filter="url(#fywx4ug2gstp6)" height="35.7031" rx="12.5" ry="12.5" style="stroke: #A80036; stroke-width: 1.5;" width="131" x="353" y="221"/><text fill="#000000" font-family="sans-serif" font-size="12" lengthAdjust="spacingAndGlyphs" textLength="111" x="363" y="243.5156">[3]ステージが空か？</text><polygon fill="#FEFECE" filter="url(#fywx4ug2gstp6)" points="260.5,298,272.5,310,260.5,322,248.5,310,260.5,298" style="stroke: #A80036; stroke-width: 1.5;"/><rect fill="#FEFECE" filter="url(#fywx4ug2gstp6)" height="35.7031" rx="12.5" ry="12.5" style="stroke: #A80036; stroke-width: 1.5;" width="131" x="58" y="550"/><text fill="#000000" font-family="sans-serif" font-size="12" lengthAdjust="spacingAndGlyphs" textLength="111" x="68" y="572.5156">[4]パス名簿リセット</text><rect fill="#FEFECE" filter="url(#fywx4ug2gstp6)" height="35.7031" rx="12.5" ry="12.5" style="stroke: #A80036; stroke-width: 1.5;" width="131" x="7" y="627"/><text fill="#000000" font-family="sans-serif" font-size="12" lengthAdjust="spacingAndGlyphs" textLength="111" x="17" y="649.5156">[5]アクション起こす</text><rect fill="#FEFECE" filter="url(#fywx4ug2gstp6)" height="35.7031" rx="12.5" ry="12.5" style="stroke: #A80036; stroke-width: 1.5;" width="107" x="45" y="704"/><text fill="#000000" font-family="sans-serif" font-size="12" lengthAdjust="spacingAndGlyphs" textLength="87" x="55" y="726.5156">[6]即時効果か？</text><polygon fill="#FEFECE" filter="url(#fywx4ug2gstp6)" points="113.5,802,125.5,814,113.5,826,101.5,814,113.5,802" style="stroke: #A80036; stroke-width: 1.5;"/><rect fill="#FEFECE" filter="url(#fywx4ug2gstp6)" height="35.7031" rx="12.5" ry="12.5" style="stroke: #A80036; stroke-width: 1.5;" width="83" x="164" y="888"/><text fill="#000000" font-family="sans-serif" font-size="12" lengthAdjust="spacingAndGlyphs" textLength="63" x="174" y="910.5156">[7]効果解決</text><rect fill="#FEFECE" filter="url(#fywx4ug2gstp6)" height="35.7031" rx="12.5" ry="12.5" style="stroke: #A80036; stroke-width: 1.5;" width="83" x="164" y="1000"/><text fill="#000000" font-family="sans-serif" font-size="12" lengthAdjust="spacingAndGlyphs" textLength="63" x="174" y="1022.5156">[8]勝敗判定</text><rect fill="#FEFECE" filter="url(#fywx4ug2gstp6)" height="35.7031" rx="12.5" ry="12.5" style="stroke: #A80036; stroke-width: 1.5;" width="114" x="148.5" y="1077"/><text fill="#000000" font-family="sans-serif" font-size="12" lengthAdjust="spacingAndGlyphs" textLength="94" x="158.5" y="1099.5156">[10]誘発チェック</text><rect fill="#FEFECE" filter="url(#fywx4ug2gstp6)" height="35.7031" rx="12.5" ry="12.5" style="stroke: #A80036; stroke-width: 1.5;" width="119" x="66" y="944"/><text fill="#000000" font-family="sans-serif" font-size="12" lengthAdjust="spacingAndGlyphs" textLength="99" x="76" y="966.5156">[9]ステージに追加</text><rect fill="#FEFECE" filter="url(#fywx4ug2gstp6)" height="35.7031" rx="12.5" ry="12.5" style="stroke: #A80036; stroke-width: 1.5;" width="174" x="173.5" y="378"/><text fill="#000000" font-family="sans-serif" font-size="12" lengthAdjust="spacingAndGlyphs" textLength="154" x="183.5" y="400.5156">[11]アクションを起こすか？</text><polygon fill="#FEFECE" filter="url(#fywx4ug2gstp6)" points="260.5,470,272.5,482,260.5,494,248.5,482,260.5,470" style="stroke: #A80036; stroke-width: 1.5;"/><rect fill="#FEFECE" filter="url(#fywx4ug2gstp6)" height="35.7031" rx="12.5" ry="12.5" style="stroke: #A80036; stroke-width: 1.5;" width="126" x="209.5" y="550"/><text fill="#000000" font-family="sans-serif" font-size="12" lengthAdjust="spacingAndGlyphs" textLength="106" x="219.5" y="572.5156">[12]パス名簿に登録</text><rect fill="#FEFECE" filter="url(#fywx4ug2gstp6)" height="35.7031" rx="12.5" ry="12.5" style="stroke: #A80036; stroke-width: 1.5;" width="229" x="158" y="627"/><text fill="#000000" font-family="sans-serif" font-size="12" lengthAdjust="spacingAndGlyphs" textLength="209" x="168" y="649.5156">[13]パス名簿の件数=プレイヤー数か？</text><polygon fill="#FEFECE" filter="url(#fywx4ug2gstp6)" points="272.5,710,284.5,722,272.5,734,260.5,722,272.5,710" style="stroke: #A80036; stroke-width: 1.5;"/><rect fill="#FEFECE" filter="url(#fywx4ug2gstp6)" height="35.7031" rx="12.5" ry="12.5" style="stroke: #A80036; stroke-width: 1.5;" width="150" x="145.5" y="796"/><text fill="#000000" font-family="sans-serif" font-size="12" lengthAdjust="spacingAndGlyphs" textLength="130" x="155.5" y="818.5156">[14]ステージから取出し</text><rect fill="#FEFECE" filter="url(#fywx4ug2gstp6)" height="35.7031" rx="12.5" ry="12.5" style="stroke: #A80036; stroke-width: 1.5;" width="114" x="315.5" y="796"/><text fill="#000000" font-family="sans-serif" font-size="12" lengthAdjust="spacingAndGlyphs" textLength="94" x="325.5" y="818.5156">[15]チャンス移動</text><!--MD5=[0aae323e7347e1675aa0af38f9c3328f]
link start to [1]ゲーム開始--><path d="M418.5,26.04 C418.5,35.16 418.5,49.61 418.5,61.8 " fill="none" id="start-&gt;[1]ゲーム開始" style="stroke: #A80036; stroke-width: 1.0;"/><polygon fill="#A80036" points="418.5,66.87,422.5,57.87,418.5,61.87,414.5,57.87,418.5,66.87" style="stroke: #A80036; stroke-width: 1.0;"/><!--MD5=[e35976fa085434ff20dd2ef7974d1fcb]
link [1]ゲーム開始 to [2]ターンプレイヤーにチャンスを移動--><path d="M418.5,103.02 C418.5,113.59 418.5,127.29 418.5,138.72 " fill="none" id="[1]ゲーム開始-&gt;[2]ターンプレイヤーにチャンスを移動" style="stroke: #A80036; stroke-width: 1.0;"/><polygon fill="#A80036" points="418.5,143.79,422.5,134.79,418.5,138.79,414.5,134.79,418.5,143.79" style="stroke: #A80036; stroke-width: 1.0;"/><!--MD5=[a6faff74d8c715883e2ccb680d614716]
link [2]ターンプレイヤーにチャンスを移動 to [3]ステージが空か？--><path d="M418.5,180.02 C418.5,190.59 418.5,204.29 418.5,215.72 " fill="none" id="[2]ターンプレイヤーにチャンスを移動-&gt;[3]ステージが空か？" style="stroke: #A80036; stroke-width: 1.0;"/><polygon fill="#A80036" points="418.5,220.79,422.5,211.79,418.5,215.79,414.5,211.79,418.5,220.79" style="stroke: #A80036; stroke-width: 1.0;"/><!--MD5=[0491329cd00d9f6d280f0a40a56a3055]
link [3]ステージが空か？ to #9--><path d="M379.44,257.06 C344.61,272.27 295.72,293.62 273.01,303.54 " fill="none" id="[3]ステージが空か？-&gt;#9" style="stroke: #A80036; stroke-width: 1.0;"/><polygon fill="#A80036" points="268.32,305.58,278.1686,305.6485,272.9031,303.5812,274.9705,298.3156,268.32,305.58" style="stroke: #A80036; stroke-width: 1.0;"/><text fill="#000000" font-family="sans-serif" font-size="11" lengthAdjust="spacingAndGlyphs" textLength="0" x="277.326" y="287.0603"/><!--MD5=[c424da8a897b4a52031ec1221c4356bc]
link #9 to [4]パス名簿リセット--><path d="M252.43,314.09 C233.56,321.77 186.41,343.59 163.5,378 C128.77,430.15 123.43,506.83 123.08,544.47 " fill="none" id="#9-&gt;[4]パス名簿リセット" style="stroke: #A80036; stroke-width: 1.0;"/><polygon fill="#A80036" points="123.06,549.74,127.0857,540.7515,123.0743,544.74,119.0857,540.7286,123.06,549.74" style="stroke: #A80036; stroke-width: 1.0;"/><text fill="#000000" font-family="sans-serif" font-size="11" lengthAdjust="spacingAndGlyphs" textLength="18" x="139.5" y="446.4727">YES</text><!--MD5=[2cc86ed693879847df87d20958149608]
link [4]パス名簿リセット to [5]アクション起こす--><path d="M111.93,586.02 C104.55,596.87 94.92,611.03 87.03,622.64 " fill="none" id="[4]パス名簿リセット-&gt;[5]アクション起こす" style="stroke: #A80036; stroke-width: 1.0;"/><polygon fill="#A80036" points="84.2,626.79,92.5744,621.6064,87.0162,622.6586,85.9641,617.1004,84.2,626.79" style="stroke: #A80036; stroke-width: 1.0;"/><!--MD5=[fcac6adea2baba9b93a39a6252f771e7]
link [5]アクション起こす to [6]即時効果か？--><path d="M78.4,663.02 C82.1,673.68 86.9,687.54 90.88,699.03 " fill="none" id="[5]アクション起こす-&gt;[6]即時効果か？" style="stroke: #A80036; stroke-width: 1.0;"/><polygon fill="#A80036" points="92.53,703.79,93.3548,693.9757,90.8891,699.0669,85.7979,696.6012,92.53,703.79" style="stroke: #A80036; stroke-width: 1.0;"/><!--MD5=[dbac4420d05f9b306b6c204a95db7f62]
link [6]即時効果か？ to #18--><path d="M101.39,740.35 C104.21,757.24 108.44,782.61 111.08,798.47 " fill="none" id="[6]即時効果か？-&gt;#18" style="stroke: #A80036; stroke-width: 1.0;"/><polygon fill="#A80036" points="111.91,803.45,114.3625,793.9114,111.0811,798.5192,106.4733,795.2377,111.91,803.45" style="stroke: #A80036; stroke-width: 1.0;"/><text fill="#000000" font-family="sans-serif" font-size="11" lengthAdjust="spacingAndGlyphs" textLength="0" x="110.1719" y="791.1617"/><!--MD5=[6b4dabf7e94be0ab8778a3350aec0a5f]
link #18 to [7]効果解決--><path d="M119.26,820.63 C131.99,833.09 163.12,863.54 184.28,884.24 " fill="none" id="#18-&gt;[7]効果解決" style="stroke: #A80036; stroke-width: 1.0;"/><polygon fill="#A80036" points="188.11,887.99,184.4818,878.8338,184.5389,884.4904,178.8824,884.5475,188.11,887.99" style="stroke: #A80036; stroke-width: 1.0;"/><text fill="#000000" font-family="sans-serif" font-size="11" lengthAdjust="spacingAndGlyphs" textLength="18" x="166.5" y="864.4727">YES</text><!--MD5=[cd334fb327783aaa1211622d690ccda9]
link [7]効果解決 to [8]勝敗判定--><path d="M205.5,924.19 C205.5,943.24 205.5,974.02 205.5,994.86 " fill="none" id="[7]効果解決-&gt;[8]勝敗判定" style="stroke: #A80036; stroke-width: 1.0;"/><polygon fill="#A80036" points="205.5,999.93,209.5,990.93,205.5,994.93,201.5,990.93,205.5,999.93" style="stroke: #A80036; stroke-width: 1.0;"/><!--MD5=[d0bc9ef1adf0b88198973de788baf57b]
link [8]勝敗判定 to [10]誘発チェック--><path d="M205.5,1036.02 C205.5,1046.59 205.5,1060.29 205.5,1071.72 " fill="none" id="[8]勝敗判定-&gt;[10]誘発チェック" style="stroke: #A80036; stroke-width: 1.0;"/><polygon fill="#A80036" points="205.5,1076.79,209.5,1067.79,205.5,1071.79,201.5,1067.79,205.5,1076.79" style="stroke: #A80036; stroke-width: 1.0;"/><!--MD5=[a69bbaa77e91f5eeb23eae6b4fdffb10]
link #18 to [9]ステージに追加--><path d="M114.36,825.5 C116.29,848.99 121,906.22 123.63,938.28 " fill="none" id="#18-&gt;[9]ステージに追加" style="stroke: #A80036; stroke-width: 1.0;"/><polygon fill="#A80036" points="124.07,943.58,127.311,934.2797,123.656,938.5972,119.3385,934.9421,124.07,943.58" style="stroke: #A80036; stroke-width: 1.0;"/><text fill="#000000" font-family="sans-serif" font-size="11" lengthAdjust="spacingAndGlyphs" textLength="16" x="119.5" y="864.4727">NO</text><!--MD5=[429205ef10a6119a2676289bf43da024]
link [9]ステージに追加 to [10]誘発チェック--><path d="M130.1,980.04 C134.68,995.37 142.6,1018.16 153.5,1036 C161.67,1049.36 173.08,1062.5 183.14,1072.88 " fill="none" id="[9]ステージに追加-&gt;[10]誘発チェック" style="stroke: #A80036; stroke-width: 1.0;"/><polygon fill="#A80036" points="186.77,1076.58,183.309,1067.3593,183.2632,1073.016,177.6065,1072.9702,186.77,1076.58" style="stroke: #A80036; stroke-width: 1.0;"/><!--MD5=[60ebffa12838e6527345f917b1d01e62]
link [10]誘発チェック to [3]ステージが空か？--><path d="M262.73,1088.72 C337.91,1080.17 460.5,1059.95 460.5,1019 C460.5,309 460.5,309 460.5,309 C460.5,290.95 449.89,273.61 439.33,260.83 " fill="none" id="[10]誘発チェック-&gt;[3]ステージが空か？" style="stroke: #A80036; stroke-width: 1.0;"/><polygon fill="#A80036" points="436.07,257.02,438.8696,266.4626,439.3157,260.8233,444.9549,261.2694,436.07,257.02" style="stroke: #A80036; stroke-width: 1.0;"/><!--MD5=[54796b90a3b9e04290e4923b2ceaf9cb]
link #9 to [11]アクションを起こすか？--><path d="M260.5,322.33 C260.5,335.12 260.5,356.27 260.5,372.46 " fill="none" id="#9-&gt;[11]アクションを起こすか？" style="stroke: #A80036; stroke-width: 1.0;"/><polygon fill="#A80036" points="260.5,377.74,264.5,368.74,260.5,372.74,256.5,368.74,260.5,377.74" style="stroke: #A80036; stroke-width: 1.0;"/><text fill="#000000" font-family="sans-serif" font-size="11" lengthAdjust="spacingAndGlyphs" textLength="16" x="261.5" y="354.4727">NO</text><!--MD5=[4e30731c8934ae58e262f527ae60f999]
link [11]アクションを起こすか？ to #33--><path d="M260.5,414.4 C260.5,429.13 260.5,450.08 260.5,464.53 " fill="none" id="[11]アクションを起こすか？-&gt;#33" style="stroke: #A80036; stroke-width: 1.0;"/><polygon fill="#A80036" points="260.5,469.53,264.5,460.53,260.5,464.53,256.5,460.53,260.5,469.53" style="stroke: #A80036; stroke-width: 1.0;"/><text fill="#000000" font-family="sans-serif" font-size="11" lengthAdjust="spacingAndGlyphs" textLength="0" x="259.8813" y="459.0527"/><!--MD5=[9d9740372be05c3057101723b346e8f6]
link #33 to [4]パス名簿リセット--><path d="M253.52,487.28 C235.78,498.16 188.07,527.41 155.65,547.29 " fill="none" id="#33-&gt;[4]パス名簿リセット" style="stroke: #A80036; stroke-width: 1.0;"/><polygon fill="#A80036" points="151.38,549.9,161.1425,548.5989,155.6407,547.2835,156.9561,541.7817,151.38,549.9" style="stroke: #A80036; stroke-width: 1.0;"/><text fill="#000000" font-family="sans-serif" font-size="11" lengthAdjust="spacingAndGlyphs" textLength="18" x="209.5" y="526.4727">YES</text><!--MD5=[2a4f43eb8f535e53d4b84ffc9db5a1fd]
link #33 to [12]パス名簿に登録--><path d="M261.88,492.64 C263.68,505.29 266.91,527.89 269.34,544.86 " fill="none" id="#33-&gt;[12]パス名簿に登録" style="stroke: #A80036; stroke-width: 1.0;"/><polygon fill="#A80036" points="270.06,549.93,272.7355,540.4515,269.3469,544.9811,264.8173,541.5925,270.06,549.93" style="stroke: #A80036; stroke-width: 1.0;"/><text fill="#000000" font-family="sans-serif" font-size="11" lengthAdjust="spacingAndGlyphs" textLength="16" x="267.5" y="526.4727">NO</text><!--MD5=[b6f17b2c8b43176a66378b459229e9c6]
link [12]パス名簿に登録 to [13]パス名簿の件数=プレイヤー数か？--><path d="M272.5,586.02 C272.5,596.59 272.5,610.29 272.5,621.72 " fill="none" id="[12]パス名簿に登録-&gt;[13]パス名簿の件数=プレイヤー数か？" style="stroke: #A80036; stroke-width: 1.0;"/><polygon fill="#A80036" points="272.5,626.79,276.5,617.79,272.5,621.79,268.5,617.79,272.5,626.79" style="stroke: #A80036; stroke-width: 1.0;"/><!--MD5=[775636d3fdb447a2beb67bd6cd7c2649]
link [13]パス名簿の件数=プレイヤー数か？ to #41--><path d="M272.5,663.02 C272.5,675.46 272.5,692.24 272.5,704.55 " fill="none" id="[13]パス名簿の件数=プレイヤー数か？-&gt;#41" style="stroke: #A80036; stroke-width: 1.0;"/><polygon fill="#A80036" points="272.5,709.86,276.5,700.86,272.5,704.86,268.5,700.86,272.5,709.86" style="stroke: #A80036; stroke-width: 1.0;"/><text fill="#000000" font-family="sans-serif" font-size="11" lengthAdjust="spacingAndGlyphs" textLength="0" x="271.8438" y="699.0452"/><!--MD5=[dc8390c464630574b752e3ecceafce87]
link #41 to [14]ステージから取出し--><path d="M268.42,730.06 C260.85,743.16 244.36,771.7 232.85,791.62 " fill="none" id="#41-&gt;[14]ステージから取出し" style="stroke: #A80036; stroke-width: 1.0;"/><polygon fill="#A80036" points="230.33,795.98,238.3093,790.2067,232.8414,791.6565,231.3916,786.1885,230.33,795.98" style="stroke: #A80036; stroke-width: 1.0;"/><text fill="#000000" font-family="sans-serif" font-size="11" lengthAdjust="spacingAndGlyphs" textLength="18" x="251.5" y="772.4727">YES</text><!--MD5=[14cac9806cfa8a926c8746e5715994d4]
link [14]ステージから取出し to [7]効果解決--><path d="M217.61,832.35 C215.22,846.67 211.82,867.09 209.23,882.63 " fill="none" id="[14]ステージから取出し-&gt;[7]効果解決" style="stroke: #A80036; stroke-width: 1.0;"/><polygon fill="#A80036" points="208.38,887.7,213.8167,879.4877,209.2089,882.7692,205.9275,878.1614,208.38,887.7" style="stroke: #A80036; stroke-width: 1.0;"/><!--MD5=[dcbaef788d0f67532587cafe74bcaaf7]
link #41 to [15]チャンス移動--><path d="M278.46,728.36 C292.13,740.67 326.37,771.48 349.54,792.33 " fill="none" id="#41-&gt;[15]チャンス移動" style="stroke: #A80036; stroke-width: 1.0;"/><polygon fill="#A80036" points="353.44,795.85,349.4262,786.8561,349.7235,792.5052,344.0745,792.8025,353.44,795.85" style="stroke: #A80036; stroke-width: 1.0;"/><text fill="#000000" font-family="sans-serif" font-size="11" lengthAdjust="spacingAndGlyphs" textLength="16" x="328.5" y="772.4727">NO</text><!--MD5=[26a5b96428f0a893a9f152df046373b0]
link [15]チャンス移動 to [3]ステージが空か？--><path d="M387.56,795.72 C400.98,778.51 418.5,750.73 418.5,723 C418.5,309 418.5,309 418.5,309 C418.5,293.35 418.5,275.7 418.5,262.17 " fill="none" id="[15]チャンス移動-&gt;[3]ステージが空か？" style="stroke: #A80036; stroke-width: 1.0;"/><polygon fill="#A80036" points="418.5,257.01,414.5,266.01,418.5,262.01,422.5,266.01,418.5,257.01" style="stroke: #A80036; stroke-width: 1.0;"/><!--MD5=[63f28dc10b456ab7ead8111f483771af]
@startuml
(*) - -> "[1]ゲーム開始"
- -> "[2]ターンプレイヤーにチャンスを移動"
- ->"[3]ステージが空か？"

if "" then
    - ->[YES] "[4]パス名簿リセット"
    - -> "[5]アクション起こす"
    - -> "[6]即時効果か？"
    if "" then
        - ->[YES] "[7]効果解決"
        - -> "[8]勝敗判定"
        - -> "[10]誘発チェック"
    else
        - ->[NO] "[9]ステージに追加"
        - -> "[10]誘発チェック"
    endif
    - -> "[3]ステージが空か？"
else
    - ->[NO] "[11]アクションを起こすか？"
    if "" then
        - ->[YES] "[4]パス名簿リセット"
    else
        - -> [NO] "[12]パス名簿に登録"
        - -> "[13]パス名簿の件数=プレイヤー数か？"
        if "" then
            - ->[YES] ”[14]ステージから取出し”
            - -> "[7]効果解決"
        else
            - -> [NO] "[15]チャンス移動"
            - -> "[3]ステージが空か？"
        endif
    endif
endif
@enduml

PlantUML version 1.2020.14(Sat Jun 20 14:14:34 GMT 2020)
(GPL source distribution)
Java Runtime: OpenJDK Runtime Environment
JVM: OpenJDK 64-Bit Server VM
Default Encoding: UTF-8
Language: ja
Country: JP
--></g></svg>