<?xml version="1.0" encoding="us-ascii" standalone="no"?><svg xmlns="http://www.w3.org/2000/svg" xmlns:xlink="http://www.w3.org/1999/xlink" contentStyleType="text/css" height="310px" preserveAspectRatio="none" style="width:565px;height:310px;background:#FFFFFF;" version="1.1" viewBox="0 0 565 310" width="565px" zoomAndPan="magnify"><defs/><g><!--cluster format--><g id="cluster_format"><rect fill="none" height="91" rx="2.5" ry="2.5" style="stroke:#181818;stroke-width:1.0;" width="552" x="7" y="110"/><path d="M101,110 L101,121.3203 L91,131.3203 L7,131.3203 " fill="none" style="stroke:#181818;stroke-width:1.0;"/><text fill="#000000" font-family="sans-serif" font-size="14" font-weight="bold" lengthAdjust="spacing" textLength="84" x="10" y="125.6016">&#12501;&#12457;&#12540;&#12510;&#12483;&#12488;</text></g><!--entity extra--><g id="elem_extra"><rect fill="#F1F1F1" height="38.3203" rx="2.5" ry="2.5" style="stroke:#181818;stroke-width:0.5;" width="90" x="23" y="147"/><text fill="#000000" font-family="sans-serif" font-size="14" lengthAdjust="spacing" textLength="70" x="33" y="171.6016">&#12456;&#12463;&#12473;&#12488;&#12521;</text></g><!--entity master--><g id="elem_master"><rect fill="#F1F1F1" height="38.3203" rx="2.5" ry="2.5" style="stroke:#181818;stroke-width:0.5;" width="76" x="148" y="147"/><text fill="#000000" font-family="sans-serif" font-size="14" lengthAdjust="spacing" textLength="56" x="158" y="171.6016">&#12510;&#12473;&#12479;&#12540;</text></g><!--entity pro--><g id="elem_pro"><rect fill="#F1F1F1" height="38.3203" rx="2.5" ry="2.5" style="stroke:#181818;stroke-width:0.5;" width="48" x="259" y="147"/><text fill="#000000" font-family="sans-serif" font-size="14" lengthAdjust="spacing" textLength="28" x="269" y="171.6016">&#12503;&#12525;</text></g><!--entity std--><g id="elem_std"><rect fill="#F1F1F1" height="38.3203" rx="2.5" ry="2.5" style="stroke:#181818;stroke-width:0.5;" width="104" x="342" y="147"/><text fill="#000000" font-family="sans-serif" font-size="14" lengthAdjust="spacing" textLength="84" x="352" y="171.6016">&#12473;&#12479;&#12531;&#12480;&#12540;&#12489;</text></g><!--entity light--><g id="elem_light"><rect fill="#F1F1F1" height="38.3203" rx="2.5" ry="2.5" style="stroke:#181818;stroke-width:0.5;" width="62" x="481" y="147"/><text fill="#000000" font-family="sans-serif" font-size="14" lengthAdjust="spacing" textLength="42" x="491" y="171.6016">&#12521;&#12452;&#12488;</text></g><!--entity common--><g id="elem_common"><rect fill="#F1F1F1" height="38.3203" rx="2.5" ry="2.5" style="stroke:#181818;stroke-width:0.5;" width="90" x="238" y="266"/><text fill="#000000" font-family="sans-serif" font-size="14" lengthAdjust="spacing" textLength="70" x="248" y="290.6016">&#20849;&#36890;&#12523;&#12540;&#12523;</text></g><!--entity regulation--><g id="elem_regulation"><rect fill="#F1F1F1" height="38.3203" rx="2.5" ry="2.5" style="stroke:#181818;stroke-width:0.5;" width="160" x="203" y="7"/><text fill="#000000" font-family="sans-serif" font-size="14" lengthAdjust="spacing" textLength="140" x="213" y="31.6016">&#23550;&#25126;&#12524;&#12462;&#12517;&#12524;&#12540;&#12471;&#12519;&#12531;</text></g><!--link regulation to extra--><g id="link_regulation_extra"><path d="M236.21,45.04 C204.69,58.34 163,78.21 130,102 C112.07,114.92 98.6349,128.7105 86.8549,142.2705 " fill="none" id="regulation-to-extra" style="stroke:#181818;stroke-width:1.0;"/><polygon fill="#181818" points="82.92,146.8,91.8421,142.629,86.1991,143.0254,85.8027,137.3825,82.92,146.8" style="stroke:#181818;stroke-width:1.0;"/><text fill="#000000" font-family="sans-serif" font-size="13" lengthAdjust="spacing" textLength="26" x="171" y="89.5586">&#21442;&#29031;</text></g><!--link regulation to master--><g id="link_regulation_master"><path d="M269.12,45.08 C262.34,54.01 254.14,64.99 247,75 C229.46,99.59 213.333,123.5976 201.213,141.8976 " fill="none" id="regulation-to-master" style="stroke:#181818;stroke-width:1.0;"/><polygon fill="#181818" points="197.9,146.9,206.2045,141.6051,200.6609,142.7314,199.5347,137.1877,197.9,146.9" style="stroke:#181818;stroke-width:1.0;"/><text fill="#000000" font-family="sans-serif" font-size="13" lengthAdjust="spacing" textLength="26" x="248" y="89.5586">&#21442;&#29031;</text></g><!--link regulation to std--><g id="link_regulation_std"><path d="M297.51,45.04 C318.78,71.49 354.4489,115.8252 375.7289,142.2752 " fill="none" id="regulation-to-std" style="stroke:#181818;stroke-width:1.0;"/><polygon fill="#181818" points="379.49,146.95,376.9649,137.4303,376.3558,143.0543,370.7318,142.4451,379.49,146.95" style="stroke:#181818;stroke-width:1.0;"/><text fill="#000000" font-family="sans-serif" font-size="13" lengthAdjust="spacing" textLength="26" x="337" y="89.5586">&#21442;&#29031;</text></g><!--link regulation to pro--><g id="link_regulation_pro"><path d="M283,45.04 C283,71.49 283,114.5 283,140.95 " fill="none" id="regulation-to-pro" style="stroke:#181818;stroke-width:1.0;"/><polygon fill="#181818" points="283,146.95,287,137.95,283,141.95,279,137.95,283,146.95" style="stroke:#181818;stroke-width:1.0;"/><text fill="#000000" font-family="sans-serif" font-size="13" lengthAdjust="spacing" textLength="26" x="284" y="89.5586">&#21442;&#29031;</text></g><!--link regulation to light--><g id="link_regulation_light"><path d="M348.92,45 C385.31,57.12 429.91,75.75 464,102 C479.91,114.25 490.1288,127.9141 498.6888,141.7841 " fill="none" id="regulation-to-light" style="stroke:#181818;stroke-width:1.0;"/><polygon fill="#181818" points="501.84,146.89,500.5172,137.1304,499.214,142.6351,493.7093,141.3319,501.84,146.89" style="stroke:#181818;stroke-width:1.0;"/><text fill="#000000" font-family="sans-serif" font-size="13" lengthAdjust="spacing" textLength="26" x="452" y="89.5586">&#21442;&#29031;</text></g><!--link extra to common--><g id="link_extra_common"><path d="M93.15,185.14 C104.23,192.85 117.55,201.71 130,209 C166.89,230.59 205.4217,249.2087 236.7517,263.5087 " fill="none" id="extra-to-common" style="stroke:#181818;stroke-width:1.0;"/><polygon fill="#181818" points="242.21,266,235.6834,258.6241,237.6614,263.9239,232.3616,265.9019,242.21,266" style="stroke:#181818;stroke-width:1.0;"/><text fill="#000000" font-family="sans-serif" font-size="13" lengthAdjust="spacing" textLength="26" x="181" y="231.5586">&#21442;&#29031;</text></g><!--link master to common--><g id="link_master_common"><path d="M197.35,185.26 C206.57,199.57 220.25,219.73 234,236 C242.76,246.37 249.0751,252.9032 258.2251,261.5332 " fill="none" id="master-to-common" style="stroke:#181818;stroke-width:1.0;"/><polygon fill="#181818" points="262.59,265.65,258.7872,256.5649,258.9526,262.2193,253.2982,262.3847,262.59,265.65" style="stroke:#181818;stroke-width:1.0;"/><text fill="#000000" font-family="sans-serif" font-size="13" lengthAdjust="spacing" textLength="39" x="235" y="231.5586">&#12288;&#21442;&#29031;</text></g><!--link pro to common--><g id="link_pro_common"><path d="M283,185.02 C283,206.95 283,237.74 283,259.76 " fill="none" id="pro-to-common" style="stroke:#181818;stroke-width:1.0;"/><polygon fill="#181818" points="283,265.76,287,256.76,283,260.76,279,256.76,283,265.76" style="stroke:#181818;stroke-width:1.0;"/><text fill="#000000" font-family="sans-serif" font-size="13" lengthAdjust="spacing" textLength="26" x="284" y="231.5586">&#21442;&#29031;</text></g><!--link std to common--><g id="link_std_common"><path d="M376.9,185.02 C356.1,206.95 325.3195,239.3871 304.4295,261.4071 " fill="none" id="std-to-common" style="stroke:#181818;stroke-width:1.0;"/><polygon fill="#181818" points="300.3,265.76,309.3961,261.9837,303.7412,262.1326,303.5923,256.4777,300.3,265.76" style="stroke:#181818;stroke-width:1.0;"/><text fill="#000000" font-family="sans-serif" font-size="13" lengthAdjust="spacing" textLength="26" x="346" y="231.5586">&#21442;&#29031;</text></g><!--link light to common--><g id="link_light_common"><path d="M493.98,185.28 C485.41,193.28 474.72,202.34 464,209 C420.66,235.92 371.6503,255.1076 333.7903,267.9876 " fill="none" id="light-to-common" style="stroke:#181818;stroke-width:1.0;"/><polygon fill="#181818" points="328.11,269.92,337.9187,270.8082,332.8436,268.3096,335.3421,263.2345,328.11,269.92" style="stroke:#181818;stroke-width:1.0;"/><text fill="#000000" font-family="sans-serif" font-size="13" lengthAdjust="spacing" textLength="26" x="451" y="231.5586">&#21442;&#29031;</text></g><!--SRC=[TP7DIWCn58NtUOhGVL_0XUyIQZeM9Xt9H114678fj2jNKkZ2bLe7Vufq8OBemnog-1RUILewEZDP387lk_USC5OFd1edgPQzpUJbfrY07a3l_Er9bSj1Pams5hPchJw-fdUWH_Xdq6rrOTs_WfQWTHYoEZbDbHlne1XQPNWAT0LVXiNN809DWpdCh57kN4W-jGpuU_WL_1jxe3Ae-inPrH1v6rl-apS7owZSQTlKvg2d89pOh9aMDwn1HMWu2sRkZffxIlYRNVbqb1mxSI74_hsotp-CJUM1t5pwxydoFuqDEp6dTZBktib2cJtTbgX8_8Krj6tmXw4eThXAQPshghM2cDs2VW40]--></g></svg>