<?xml version="1.0" encoding="us-ascii" standalone="no"?><svg xmlns="http://www.w3.org/2000/svg" xmlns:xlink="http://www.w3.org/1999/xlink" contentStyleType="text/css" height="397px" preserveAspectRatio="none" style="width:449px;height:397px;background:#FFFFFF;" version="1.1" viewBox="0 0 449 397" width="449px" zoomAndPan="magnify"><defs/><g><!--class core--><g id="elem_core"><rect codeLine="6" fill="#F1F1F1" height="28.3203" id="core" rx="2.5" ry="2.5" style="stroke:#181818;stroke-width:0.5;" width="76" x="9" y="7"/><text fill="#000000" font-family="sans-serif" font-size="14" font-style="italic" lengthAdjust="spacing" textLength="70" x="12" y="26.6016">&#12467;&#12450;&#12523;&#12540;&#12523;</text></g><!--class common--><g id="elem_common"><rect codeLine="8" fill="#F1F1F1" height="28.3203" id="common" rx="2.5" ry="2.5" style="stroke:#181818;stroke-width:0.5;" width="76" x="9" y="149"/><text fill="#000000" font-family="sans-serif" font-size="14" font-style="italic" lengthAdjust="spacing" textLength="70" x="12" y="168.6016">&#20849;&#36890;&#12523;&#12540;&#12523;</text></g><!--class match_reg--><g id="elem_match_reg"><rect codeLine="10" fill="#F1F1F1" height="28.3203" id="match_reg" rx="2.5" ry="2.5" style="stroke:#181818;stroke-width:0.5;" width="146" x="120" y="149"/><text fill="#000000" font-family="sans-serif" font-size="14" lengthAdjust="spacing" textLength="140" x="123" y="168.6016">&#23550;&#25126;&#12524;&#12462;&#12517;&#12524;&#12540;&#12471;&#12519;&#12531;</text></g><!--class format--><g id="elem_format"><rect codeLine="12" fill="#F1F1F1" height="28.3203" id="format" rx="2.5" ry="2.5" style="stroke:#181818;stroke-width:0.5;" width="90" x="7" y="256"/><text fill="#000000" font-family="sans-serif" font-size="14" lengthAdjust="spacing" textLength="84" x="10" y="275.6016">&#12501;&#12457;&#12540;&#12510;&#12483;&#12488;</text></g><!--class frame--><g id="elem_frame"><rect codeLine="14" fill="#F1F1F1" height="28.3203" id="frame" rx="2.5" ry="2.5" style="stroke:#181818;stroke-width:0.5;" width="62" x="160" y="256"/><text fill="#000000" font-family="sans-serif" font-size="14" lengthAdjust="spacing" textLength="56" x="163" y="275.6016">&#12501;&#12524;&#12540;&#12512;</text></g><!--class options--><g id="elem_options"><rect codeLine="16" fill="#F1F1F1" height="28.3203" id="options" rx="2.5" ry="2.5" style="stroke:#181818;stroke-width:0.5;" width="76" x="153" y="363"/><text fill="#000000" font-family="sans-serif" font-size="14" lengthAdjust="spacing" textLength="70" x="156" y="382.6016">&#12458;&#12503;&#12471;&#12519;&#12531;</text></g><!--class player--><g id="elem_player"><rect codeLine="18" fill="#F1F1F1" height="28.3203" id="player" rx="2.5" ry="2.5" style="stroke:#181818;stroke-width:0.5;" width="76" x="155" y="7"/><text fill="#000000" font-family="sans-serif" font-size="14" lengthAdjust="spacing" textLength="70" x="158" y="26.6016">&#12503;&#12524;&#12452;&#12516;&#12540;</text></g><!--reverse link core to common--><g id="link_core_common"><path codeLine="20" d="M47,53.17 C47,79.85 47,122.02 47,148.76 " fill="none" id="core-backto-common" style="stroke:#181818;stroke-width:1.0;"/><polygon fill="none" points="47,35.17,41,53.17,53,53.17,47,35.17" style="stroke:#181818;stroke-width:1.0;"/><text fill="#000000" font-family="sans-serif" font-size="13" lengthAdjust="spacing" textLength="26" x="48" y="97.0586">&#32153;&#25215;</text></g><!--reverse link common to format--><g id="link_common_format"><path codeLine="22" d="M48.4934,195.2793 C49.4634,215.4793 50.41,235.68 51.37,255.81 " fill="none" id="common-backto-format" style="stroke:#181818;stroke-width:1.0;"/><polygon fill="none" points="47.63,177.3,42.5003,195.5671,54.4865,194.9915,47.63,177.3" style="stroke:#181818;stroke-width:1.0;"/><text fill="#000000" font-family="sans-serif" font-size="13" lengthAdjust="spacing" textLength="26" x="51" y="221.5586">&#32153;&#25215;</text></g><!--reverse link match_reg to format--><g id="link_match_reg_format"><path codeLine="24" d="M165.8053,184.2569 C138.7853,204.3769 96.95,235.53 69.79,255.75 " fill="none" id="match_reg-backto-format" style="stroke:#181818;stroke-width:1.0;"/><polygon fill="none" points="175.43,177.09,168.2287,177.4652,165.8053,184.2569,173.0066,183.8817,175.43,177.09" style="stroke:#181818;stroke-width:1.0;"/><text fill="#000000" font-family="sans-serif" font-size="13" lengthAdjust="spacing" textLength="26" x="136" y="221.5586">&#20869;&#21253;</text></g><!--reverse link match_reg to frame--><g id="link_match_reg_frame"><path codeLine="25" d="M192.5184,189.2978 C192.1284,209.4978 191.63,235.68 191.25,255.81 " fill="none" id="match_reg-backto-frame" style="stroke:#181818;stroke-width:1.0;"/><polygon fill="none" points="192.75,177.3,188.6349,183.2217,192.5184,189.2978,196.6334,183.3761,192.75,177.3" style="stroke:#181818;stroke-width:1.0;"/><text fill="#000000" font-family="sans-serif" font-size="13" lengthAdjust="spacing" textLength="26" x="193" y="221.5586">&#20869;&#21253;</text></g><!--reverse link match_reg to options--><g id="link_match_reg_options"><path codeLine="26" d="M214.5221,186.0451 C221.9021,194.0351 222.51,195.97 228,207 C243.43,238.01 244.48,249.66 240,284 C237.09,306.34 237.37,313 227,333 C221.27,344.06 212.27,354.81 204.7,362.8 " fill="none" id="match_reg-backto-options" style="stroke:#181818;stroke-width:1.0;"/><polygon fill="none" points="206.38,177.23,207.5127,184.3516,214.5221,186.0451,213.3894,178.9235,206.38,177.23" style="stroke:#181818;stroke-width:1.0;"/><text fill="#000000" font-family="sans-serif" font-size="13" lengthAdjust="spacing" textLength="26" x="243" y="275.0586">&#20869;&#21253;</text></g><!--link player to match_reg--><g id="link_player_match_reg"><path codeLine="28" d="M193,35.17 C193,61.85 193,116.02 193,142.76 " fill="none" id="player-to-match_reg" style="stroke:#181818;stroke-width:1.0;stroke-dasharray:7.0,7.0;"/><polygon fill="#181818" points="193,148.76,197,139.76,193,143.76,189,139.76,193,148.76" style="stroke:#181818;stroke-width:1.0;"/><text fill="#000000" font-family="sans-serif" font-size="13" lengthAdjust="spacing" textLength="26" x="194" y="97.0645">&#36984;&#25246;</text><path d="M226,70 L226,114 L442,114 L442,80 L432,70 L226,70 " fill="#FFFFFF" style="stroke:#181818;stroke-width:0.5;"/><path d="M432,70 L432,80 L442,80 L432,70 " fill="#FFFFFF" style="stroke:#181818;stroke-width:0.5;"/><text fill="#000000" font-family="sans-serif" font-size="13" lengthAdjust="spacing" textLength="156" x="232" y="88.5586">&#12503;&#12524;&#12452;&#12516;&#12540;&#12399;&#23550;&#25126;&#12377;&#12427;&#21069;&#12395;</text><text fill="#000000" font-family="sans-serif" font-size="13" lengthAdjust="spacing" textLength="195" x="232" y="105.5703">&#23550;&#25126;&#12524;&#12462;&#12517;&#12524;&#12540;&#12471;&#12519;&#12531;&#12434;&#36984;&#25246;&#12377;&#12427;</text></g><!--reverse link format to options--><g id="link_format_options"><path codeLine="35" d="M74.1079,287.7061 C100.7479,307.8261 146.69,342.53 173.46,362.75 " fill="none" id="format-backto-options" style="stroke:#181818;stroke-width:1.0;stroke-dasharray:7.0,7.0;"/><polygon fill="#181818" points="69.32,284.09,74.0911,292.7061,73.3099,287.1034,78.9126,286.3222,69.32,284.09" style="stroke:#181818;stroke-width:1.0;"/><text fill="#000000" font-family="sans-serif" font-size="13" lengthAdjust="spacing" textLength="26" x="134" y="328.5586">&#20381;&#23384;</text></g><!--reverse link format to frame--><g id="link_format_frame"><path codeLine="36" d="M103.13,270 C123.58,270 141.26,270 159.72,270 " fill="none" id="format-backto-frame" style="stroke:#181818;stroke-width:1.0;stroke-dasharray:7.0,7.0;"/><polygon fill="#181818" points="97.13,270,106.13,274,102.13,270,106.13,266,97.13,270" style="stroke:#181818;stroke-width:1.0;"/><text fill="#000000" font-family="sans-serif" font-size="13" lengthAdjust="spacing" textLength="26" x="115.5" y="262.5586">&#20381;&#23384;</text></g><!--reverse link frame to options--><g id="link_frame_options"><path codeLine="37" d="M191,290.3 C191,310.5 191,342.68 191,362.81 " fill="none" id="frame-backto-options" style="stroke:#181818;stroke-width:1.0;stroke-dasharray:7.0,7.0;"/><polygon fill="#181818" points="191,284.3,187,293.3,191,289.3,195,293.3,191,284.3" style="stroke:#181818;stroke-width:1.0;"/><text fill="#000000" font-family="sans-serif" font-size="13" lengthAdjust="spacing" textLength="26" x="192" y="328.5586">&#20381;&#23384;</text></g><!--SRC=[VP7TIiCm68RFSnL1ZzSBaE6jI6opjTWs8ms8u85Dc6p-d0Wo9pX4_46d3Xce1sDUp6SdkmlJj5kx-GEX97tUx_lUDt4zX-A02fSv4NBJW-rnswVPlkPHtq68R4Q24rjWsoTHX5T03a5UWUg36kdl2YOHjXcdFvL9ysMwTxwi308M8ZIJ3CQJrYseHv3Fe6xIZTRADr1te8Qc8Y32TZSuhS-BG9s2l3TDUw0Kg9OHrXZNsWLLravTPfoJW1POFe3gB8vY3U6nC2grw1Xhrw3q6XbDmoSxb6k9ZeohkvLA7WcluQ_NxgJzaIBpmy3CL0dEus1Mnib-CpbgBjFKyLymDrjWb5d3bhLUN9h6q_XzSj13A6I2OkxLNO6rEzyBj_3gjki9YfPoGZp8toNkWZnCsiSGzz7_JmNo99kJrI0QEZWTY50UiMfP9SkVuulawQnWywWpO8w_rNm3]--></g></svg>