<?xml version="1.0" encoding="UTF-8" standalone="no"?><svg xmlns="http://www.w3.org/2000/svg" xmlns:xlink="http://www.w3.org/1999/xlink" contentScriptType="application/ecmascript" contentStyleType="text/css" height="1211px" preserveAspectRatio="none" style="width:563px;height:1211px;" version="1.1" viewBox="0 0 563 1211" width="563px" zoomAndPan="magnify"><defs><filter height="300%" id="f7ne683220b12" width="300%" x="-1" y="-1"><feGaussianBlur result="blurOut" stdDeviation="2.0"/><feColorMatrix in="blurOut" result="blurOut2" type="matrix" values="0 0 0 0 0 0 0 0 0 0 0 0 0 0 0 0 0 0 .4 0"/><feOffset dx="4.0" dy="4.0" in="blurOut2" result="blurOut3"/><feBlend in="SourceGraphic" in2="blurOut3" mode="normal"/></filter></defs><g><ellipse cx="430.5" cy="16" fill="#000000" filter="url(#f7ne683220b12)" rx="10" ry="10" style="stroke: none; stroke-width: 1.0;"/><rect fill="#FEFECE" filter="url(#f7ne683220b12)" height="35.7031" rx="12.5" ry="12.5" style="stroke: #A80036; stroke-width: 1.5;" width="95" x="383" y="67"/><text fill="#000000" font-family="sans-serif" font-size="12" lengthAdjust="spacingAndGlyphs" textLength="75" x="393" y="89.5156">[1]ゲーム開始</text><rect fill="#FEFECE" filter="url(#f7ne683220b12)" height="35.7031" rx="12.5" ry="12.5" style="stroke: #A80036; stroke-width: 1.5;" width="227" x="317" y="144"/><text fill="#000000" font-family="sans-serif" font-size="12" lengthAdjust="spacingAndGlyphs" textLength="207" x="327" y="166.5156">[2]ターンプレイヤーにチャンスを移動</text><rect fill="#FEFECE" filter="url(#f7ne683220b12)" height="35.7031" rx="12.5" ry="12.5" style="stroke: #A80036; stroke-width: 1.5;" width="131" x="365" y="221"/><text fill="#000000" font-family="sans-serif" font-size="12" lengthAdjust="spacingAndGlyphs" textLength="111" x="375" y="243.5156">[3]ステージが空か？</text><polygon fill="#FEFECE" filter="url(#f7ne683220b12)" points="272.5,298,284.5,310,272.5,322,260.5,310,272.5,298" style="stroke: #A80036; stroke-width: 1.5;"/><rect fill="#FEFECE" filter="url(#f7ne683220b12)" height="35.7031" rx="12.5" ry="12.5" style="stroke: #A80036; stroke-width: 1.5;" width="131" x="70" y="550"/><text fill="#000000" font-family="sans-serif" font-size="12" lengthAdjust="spacingAndGlyphs" textLength="111" x="80" y="572.5156">[4]パス名簿リセット</text><rect fill="#FEFECE" filter="url(#f7ne683220b12)" height="35.7031" rx="12.5" ry="12.5" style="stroke: #A80036; stroke-width: 1.5;" width="143" x="7" y="627"/><text fill="#000000" font-family="sans-serif" font-size="12" lengthAdjust="spacingAndGlyphs" textLength="123" x="17" y="649.5156">[5]アクションを起こす</text><rect fill="#FEFECE" filter="url(#f7ne683220b12)" height="35.7031" rx="12.5" ry="12.5" style="stroke: #A80036; stroke-width: 1.5;" width="107" x="39" y="704"/><text fill="#000000" font-family="sans-serif" font-size="12" lengthAdjust="spacingAndGlyphs" textLength="87" x="49" y="726.5156">[6]即時効果か？</text><polygon fill="#FEFECE" filter="url(#f7ne683220b12)" points="101.5,802,113.5,814,101.5,826,89.5,814,101.5,802" style="stroke: #A80036; stroke-width: 1.5;"/><rect fill="#FEFECE" filter="url(#f7ne683220b12)" height="35.7031" rx="12.5" ry="12.5" style="stroke: #A80036; stroke-width: 1.5;" width="131" x="36" y="888"/><text fill="#000000" font-family="sans-serif" font-size="12" lengthAdjust="spacingAndGlyphs" textLength="111" x="46" y="910.5156">[7]アクションの解決</text><rect fill="#FEFECE" filter="url(#f7ne683220b12)" height="35.7031" rx="12.5" ry="12.5" style="stroke: #A80036; stroke-width: 1.5;" width="83" x="60" y="1000"/><text fill="#000000" font-family="sans-serif" font-size="12" lengthAdjust="spacingAndGlyphs" textLength="63" x="70" y="1022.5156">[8]勝敗判定</text><polygon fill="#FEFECE" filter="url(#f7ne683220b12)" points="101.5,1077,113.5,1089,101.5,1101,89.5,1089,101.5,1077" style="stroke: #A80036; stroke-width: 1.5;"/><ellipse cx="94.5" cy="1175" fill="none" filter="url(#f7ne683220b12)" rx="10" ry="10" style="stroke: #000000; stroke-width: 1.0;"/><ellipse cx="95" cy="1175.5" fill="#000000" rx="6" ry="6" style="stroke: none; stroke-width: 1.0;"/><rect fill="#FEFECE" filter="url(#f7ne683220b12)" height="35.7031" rx="12.5" ry="12.5" style="stroke: #A80036; stroke-width: 1.5;" width="114" x="148.5" y="1157"/><text fill="#000000" font-family="sans-serif" font-size="12" lengthAdjust="spacingAndGlyphs" textLength="94" x="158.5" y="1179.5156">[10]誘発チェック</text><rect fill="#FEFECE" filter="url(#f7ne683220b12)" height="35.7031" rx="12.5" ry="12.5" style="stroke: #A80036; stroke-width: 1.5;" width="119" x="142" y="944"/><text fill="#000000" font-family="sans-serif" font-size="12" lengthAdjust="spacingAndGlyphs" textLength="99" x="152" y="966.5156">[9]ステージに追加</text><rect fill="#FEFECE" filter="url(#f7ne683220b12)" height="35.7031" rx="12.5" ry="12.5" style="stroke: #A80036; stroke-width: 1.5;" width="174" x="185.5" y="378"/><text fill="#000000" font-family="sans-serif" font-size="12" lengthAdjust="spacingAndGlyphs" textLength="154" x="195.5" y="400.5156">[11]アクションを起こすか？</text><polygon fill="#FEFECE" filter="url(#f7ne683220b12)" points="272.5,470,284.5,482,272.5,494,260.5,482,272.5,470" style="stroke: #A80036; stroke-width: 1.5;"/><rect fill="#FEFECE" filter="url(#f7ne683220b12)" height="35.7031" rx="12.5" ry="12.5" style="stroke: #A80036; stroke-width: 1.5;" width="126" x="221.5" y="550"/><text fill="#000000" font-family="sans-serif" font-size="12" lengthAdjust="spacingAndGlyphs" textLength="106" x="231.5" y="572.5156">[12]パス名簿に登録</text><rect fill="#FEFECE" filter="url(#f7ne683220b12)" height="35.7031" rx="12.5" ry="12.5" style="stroke: #A80036; stroke-width: 1.5;" width="229" x="170" y="627"/><text fill="#000000" font-family="sans-serif" font-size="12" lengthAdjust="spacingAndGlyphs" textLength="209" x="180" y="649.5156">[13]パス名簿の件数=プレイヤー数か？</text><polygon fill="#FEFECE" filter="url(#f7ne683220b12)" points="284.5,710,296.5,722,284.5,734,272.5,722,284.5,710" style="stroke: #A80036; stroke-width: 1.5;"/><rect fill="#FEFECE" filter="url(#f7ne683220b12)" height="35.7031" rx="12.5" ry="12.5" style="stroke: #A80036; stroke-width: 1.5;" width="150" x="157.5" y="796"/><text fill="#000000" font-family="sans-serif" font-size="12" lengthAdjust="spacingAndGlyphs" textLength="130" x="167.5" y="818.5156">[14]ステージから取出し</text><rect fill="#FEFECE" filter="url(#f7ne683220b12)" height="35.7031" rx="12.5" ry="12.5" style="stroke: #A80036; stroke-width: 1.5;" width="114" x="327.5" y="796"/><text fill="#000000" font-family="sans-serif" font-size="12" lengthAdjust="spacingAndGlyphs" textLength="94" x="337.5" y="818.5156">[15]チャンス移動</text><!--MD5=[0aae323e7347e1675aa0af38f9c3328f]
link start to [1]ゲーム開始--><path d="M430.5,26.04 C430.5,35.16 430.5,49.61 430.5,61.8 " fill="none" id="start-&gt;[1]ゲーム開始" style="stroke: #A80036; stroke-width: 1.0;"/><polygon fill="#A80036" points="430.5,66.87,434.5,57.87,430.5,61.87,426.5,57.87,430.5,66.87" style="stroke: #A80036; stroke-width: 1.0;"/><!--MD5=[e35976fa085434ff20dd2ef7974d1fcb]
link [1]ゲーム開始 to [2]ターンプレイヤーにチャンスを移動--><path d="M430.5,103.02 C430.5,113.59 430.5,127.29 430.5,138.72 " fill="none" id="[1]ゲーム開始-&gt;[2]ターンプレイヤーにチャンスを移動" style="stroke: #A80036; stroke-width: 1.0;"/><polygon fill="#A80036" points="430.5,143.79,434.5,134.79,430.5,138.79,426.5,134.79,430.5,143.79" style="stroke: #A80036; stroke-width: 1.0;"/><!--MD5=[a6faff74d8c715883e2ccb680d614716]
link [2]ターンプレイヤーにチャンスを移動 to [3]ステージが空か？--><path d="M430.5,180.02 C430.5,190.59 430.5,204.29 430.5,215.72 " fill="none" id="[2]ターンプレイヤーにチャンスを移動-&gt;[3]ステージが空か？" style="stroke: #A80036; stroke-width: 1.0;"/><polygon fill="#A80036" points="430.5,220.79,434.5,211.79,430.5,215.79,426.5,211.79,430.5,220.79" style="stroke: #A80036; stroke-width: 1.0;"/><!--MD5=[0491329cd00d9f6d280f0a40a56a3055]
link [3]ステージが空か？ to #9--><path d="M391.44,257.06 C356.61,272.27 307.72,293.62 285.01,303.54 " fill="none" id="[3]ステージが空か？-&gt;#9" style="stroke: #A80036; stroke-width: 1.0;"/><polygon fill="#A80036" points="280.32,305.58,290.1686,305.6485,284.9031,303.5812,286.9705,298.3156,280.32,305.58" style="stroke: #A80036; stroke-width: 1.0;"/><text fill="#000000" font-family="sans-serif" font-size="11" lengthAdjust="spacingAndGlyphs" textLength="0" x="289.326" y="287.0603"/><!--MD5=[c424da8a897b4a52031ec1221c4356bc]
link #9 to [4]パス名簿リセット--><path d="M264.43,314.09 C245.56,321.77 198.41,343.59 175.5,378 C140.77,430.15 135.43,506.83 135.08,544.47 " fill="none" id="#9-&gt;[4]パス名簿リセット" style="stroke: #A80036; stroke-width: 1.0;"/><polygon fill="#A80036" points="135.06,549.74,139.0857,540.7515,135.0743,544.74,131.0857,540.7286,135.06,549.74" style="stroke: #A80036; stroke-width: 1.0;"/><text fill="#000000" font-family="sans-serif" font-size="11" lengthAdjust="spacingAndGlyphs" textLength="18" x="151.5" y="446.4727">YES</text><!--MD5=[69a1dabaed4f1fa58ca460ae345d3312]
link [4]パス名簿リセット to [5]アクションを起こす--><path d="M122.57,586.02 C114.32,596.87 103.56,611.03 94.73,622.64 " fill="none" id="[4]パス名簿リセット-&gt;[5]アクションを起こす" style="stroke: #A80036; stroke-width: 1.0;"/><polygon fill="#A80036" points="91.58,626.79,100.21,622.0441,94.6051,622.8089,93.8402,617.204,91.58,626.79" style="stroke: #A80036; stroke-width: 1.0;"/><!--MD5=[fe7cb3e990db34f885cd307754bd188f]
link [5]アクションを起こす to [6]即時効果か？--><path d="M81.68,663.02 C83.65,673.59 86.21,687.29 88.34,698.72 " fill="none" id="[5]アクションを起こす-&gt;[6]即時効果か？" style="stroke: #A80036; stroke-width: 1.0;"/><polygon fill="#A80036" points="89.29,703.79,91.5494,694.2038,88.3617,698.8769,83.6885,695.6892,89.29,703.79" style="stroke: #A80036; stroke-width: 1.0;"/><!--MD5=[dbac4420d05f9b306b6c204a95db7f62]
link [6]即時効果か？ to #18--><path d="M94.24,740.35 C95.91,757.06 98.41,782.06 99.99,797.95 " fill="none" id="[6]即時効果か？-&gt;#18" style="stroke: #A80036; stroke-width: 1.0;"/><polygon fill="#A80036" points="100.5,802.96,103.5793,793.6049,99.9997,797.9851,95.6194,794.4055,100.5,802.96" style="stroke: #A80036; stroke-width: 1.0;"/><text fill="#000000" font-family="sans-serif" font-size="11" lengthAdjust="spacingAndGlyphs" textLength="0" x="99.2188" y="791.2883"/><!--MD5=[94c7db4f524b46b54a8223a1d0626517]
link #18 to [7]アクションの解決--><path d="M101.5,826.04 C101.5,839.99 101.5,864.36 101.5,882.34 " fill="none" id="#18-&gt;[7]アクションの解決" style="stroke: #A80036; stroke-width: 1.0;"/><polygon fill="#A80036" points="101.5,887.7,105.5,878.7,101.5,882.7,97.5,878.7,101.5,887.7" style="stroke: #A80036; stroke-width: 1.0;"/><text fill="#000000" font-family="sans-serif" font-size="11" lengthAdjust="spacingAndGlyphs" textLength="18" x="102.5" y="864.4727">YES</text><!--MD5=[bf8fc3e3b3c38e629a1debc0dd9e9b18]
link [7]アクションの解決 to [8]勝敗判定--><path d="M101.5,924.19 C101.5,943.24 101.5,974.02 101.5,994.86 " fill="none" id="[7]アクションの解決-&gt;[8]勝敗判定" style="stroke: #A80036; stroke-width: 1.0;"/><polygon fill="#A80036" points="101.5,999.93,105.5,990.93,101.5,994.93,97.5,990.93,101.5,999.93" style="stroke: #A80036; stroke-width: 1.0;"/><!--MD5=[d8a9d7946790536878eed6c867c47778]
link [8]勝敗判定 to #25--><path d="M101.5,1036.06 C101.5,1046.93 101.5,1060.94 101.5,1071.67 " fill="none" id="[8]勝敗判定-&gt;#25" style="stroke: #A80036; stroke-width: 1.0;"/><polygon fill="#A80036" points="101.5,1076.95,105.5,1067.95,101.5,1071.95,97.5,1067.95,101.5,1076.95" style="stroke: #A80036; stroke-width: 1.0;"/><text fill="#000000" font-family="sans-serif" font-size="11" lengthAdjust="spacingAndGlyphs" textLength="0" x="100.8438" y="1066.1746"/><!--MD5=[5918fae9b63acc7819f0ab59a97e1b1c]
link #25 to end--><path d="M99.02,1098.6 C97.37,1104.77 95.36,1113.32 94.5,1121 C93.04,1134.08 93.21,1149.1 93.65,1159.79 " fill="none" id="#25-&gt;end" style="stroke: #A80036; stroke-width: 1.0;"/><polygon fill="#A80036" points="93.89,1164.96,97.4736,1155.7863,93.661,1159.9652,89.482,1156.1526,93.89,1164.96" style="stroke: #A80036; stroke-width: 1.0;"/><text fill="#000000" font-family="sans-serif" font-size="11" lengthAdjust="spacingAndGlyphs" textLength="22" x="95.5" y="1133.4727">決着</text><!--MD5=[4671fff15a884df35d6102e9075ff3dc]
link #25 to [10]誘発チェック--><path d="M106.39,1096.65 C113.71,1106.32 128.31,1124.47 143.5,1137 C151.01,1143.19 159.66,1149.03 168.08,1154.16 " fill="none" id="#25-&gt;[10]誘発チェック" style="stroke: #A80036; stroke-width: 1.0;"/><polygon fill="#A80036" points="172.72,1156.94,167.0605,1148.8796,168.4325,1154.3675,162.9446,1155.7395,172.72,1156.94" style="stroke: #A80036; stroke-width: 1.0;"/><text fill="#000000" font-family="sans-serif" font-size="11" lengthAdjust="spacingAndGlyphs" textLength="44" x="144.5" y="1133.4727">それ以外</text><!--MD5=[a69bbaa77e91f5eeb23eae6b4fdffb10]
link #18 to [9]ステージに追加--><path d="M108.34,819.86 C122.91,830.56 157.25,857.6 176.5,888 C186.41,903.66 192.92,923.72 196.8,938.84 " fill="none" id="#18-&gt;[9]ステージに追加" style="stroke: #A80036; stroke-width: 1.0;"/><polygon fill="#A80036" points="198.01,943.77,199.7615,934.0781,196.8242,938.9126,191.9897,935.9754,198.01,943.77" style="stroke: #A80036; stroke-width: 1.0;"/><text fill="#000000" font-family="sans-serif" font-size="11" lengthAdjust="spacingAndGlyphs" textLength="16" x="162.5" y="864.4727">NO</text><!--MD5=[429205ef10a6119a2676289bf43da024]
link [9]ステージに追加 to [10]誘発チェック--><path d="M201.83,980.27 C202.55,1018.3 204.27,1109.3 205.08,1151.63 " fill="none" id="[9]ステージに追加-&gt;[10]誘発チェック" style="stroke: #A80036; stroke-width: 1.0;"/><polygon fill="#A80036" points="205.17,1156.79,209.0151,1147.7228,205.0843,1151.7907,201.0163,1147.8599,205.17,1156.79" style="stroke: #A80036; stroke-width: 1.0;"/><!--MD5=[60ebffa12838e6527345f917b1d01e62]
link [10]誘発チェック to [3]ステージが空か？--><path d="M262.78,1167.66 C341.23,1157.36 472.5,1133.61 472.5,1090 C472.5,309 472.5,309 472.5,309 C472.5,290.95 461.89,273.61 451.33,260.83 " fill="none" id="[10]誘発チェック-&gt;[3]ステージが空か？" style="stroke: #A80036; stroke-width: 1.0;"/><polygon fill="#A80036" points="448.07,257.02,450.8696,266.4626,451.3157,260.8233,456.9549,261.2694,448.07,257.02" style="stroke: #A80036; stroke-width: 1.0;"/><!--MD5=[54796b90a3b9e04290e4923b2ceaf9cb]
link #9 to [11]アクションを起こすか？--><path d="M272.5,322.33 C272.5,335.12 272.5,356.27 272.5,372.46 " fill="none" id="#9-&gt;[11]アクションを起こすか？" style="stroke: #A80036; stroke-width: 1.0;"/><polygon fill="#A80036" points="272.5,377.74,276.5,368.74,272.5,372.74,268.5,368.74,272.5,377.74" style="stroke: #A80036; stroke-width: 1.0;"/><text fill="#000000" font-family="sans-serif" font-size="11" lengthAdjust="spacingAndGlyphs" textLength="16" x="273.5" y="354.4727">NO</text><!--MD5=[35c56d16ad278fc81727b07ccde3f5b2]
link [11]アクションを起こすか？ to #38--><path d="M272.5,414.4 C272.5,429.13 272.5,450.08 272.5,464.53 " fill="none" id="[11]アクションを起こすか？-&gt;#38" style="stroke: #A80036; stroke-width: 1.0;"/><polygon fill="#A80036" points="272.5,469.53,276.5,460.53,272.5,464.53,268.5,460.53,272.5,469.53" style="stroke: #A80036; stroke-width: 1.0;"/><text fill="#000000" font-family="sans-serif" font-size="11" lengthAdjust="spacingAndGlyphs" textLength="0" x="271.8813" y="459.0527"/><!--MD5=[75369aff05f756c9261ca518dd50e7e6]
link #38 to [4]パス名簿リセット--><path d="M265.52,487.28 C247.78,498.16 200.07,527.41 167.65,547.29 " fill="none" id="#38-&gt;[4]パス名簿リセット" style="stroke: #A80036; stroke-width: 1.0;"/><polygon fill="#A80036" points="163.38,549.9,173.1425,548.5989,167.6407,547.2835,168.9561,541.7817,163.38,549.9" style="stroke: #A80036; stroke-width: 1.0;"/><text fill="#000000" font-family="sans-serif" font-size="11" lengthAdjust="spacingAndGlyphs" textLength="18" x="221.5" y="526.4727">YES</text><!--MD5=[4acc517f628b2e8a8e68cfc44e3eed69]
link #38 to [12]パス名簿に登録--><path d="M273.88,492.64 C275.68,505.29 278.91,527.89 281.34,544.86 " fill="none" id="#38-&gt;[12]パス名簿に登録" style="stroke: #A80036; stroke-width: 1.0;"/><polygon fill="#A80036" points="282.06,549.93,284.7355,540.4515,281.3469,544.9811,276.8173,541.5925,282.06,549.93" style="stroke: #A80036; stroke-width: 1.0;"/><text fill="#000000" font-family="sans-serif" font-size="11" lengthAdjust="spacingAndGlyphs" textLength="16" x="279.5" y="526.4727">NO</text><!--MD5=[b6f17b2c8b43176a66378b459229e9c6]
link [12]パス名簿に登録 to [13]パス名簿の件数=プレイヤー数か？--><path d="M284.5,586.02 C284.5,596.59 284.5,610.29 284.5,621.72 " fill="none" id="[12]パス名簿に登録-&gt;[13]パス名簿の件数=プレイヤー数か？" style="stroke: #A80036; stroke-width: 1.0;"/><polygon fill="#A80036" points="284.5,626.79,288.5,617.79,284.5,621.79,280.5,617.79,284.5,626.79" style="stroke: #A80036; stroke-width: 1.0;"/><!--MD5=[60c83847de56246521a06cc17fa8453f]
link [13]パス名簿の件数=プレイヤー数か？ to #46--><path d="M284.5,663.02 C284.5,675.46 284.5,692.24 284.5,704.55 " fill="none" id="[13]パス名簿の件数=プレイヤー数か？-&gt;#46" style="stroke: #A80036; stroke-width: 1.0;"/><polygon fill="#A80036" points="284.5,709.86,288.5,700.86,284.5,704.86,280.5,700.86,284.5,709.86" style="stroke: #A80036; stroke-width: 1.0;"/><text fill="#000000" font-family="sans-serif" font-size="11" lengthAdjust="spacingAndGlyphs" textLength="0" x="283.8438" y="699.0452"/><!--MD5=[90c31734d4bc455dd4ee2381fdabb6f8]
link #46 to [14]ステージから取出し--><path d="M280.42,730.06 C272.85,743.16 256.36,771.7 244.85,791.62 " fill="none" id="#46-&gt;[14]ステージから取出し" style="stroke: #A80036; stroke-width: 1.0;"/><polygon fill="#A80036" points="242.33,795.98,250.3093,790.2067,244.8414,791.6565,243.3916,786.1885,242.33,795.98" style="stroke: #A80036; stroke-width: 1.0;"/><text fill="#000000" font-family="sans-serif" font-size="11" lengthAdjust="spacingAndGlyphs" textLength="18" x="263.5" y="772.4727">YES</text><!--MD5=[a3a3503a7b3fe05feb97843833f9695d]
link [14]ステージから取出し to [7]アクションの解決--><path d="M231.73,832.36 C230.32,843.86 226.68,858.52 217.5,868 C205.38,880.53 189.03,888.82 172.43,894.32 " fill="none" id="[14]ステージから取出し-&gt;[7]アクションの解決" style="stroke: #A80036; stroke-width: 1.0;"/><polygon fill="#A80036" points="167.28,895.93,177.0632,897.0651,172.0527,894.4394,174.6783,889.4289,167.28,895.93" style="stroke: #A80036; stroke-width: 1.0;"/><!--MD5=[9e42ba3bc976e3803c66bfc43d11cdb5]
link #46 to [15]チャンス移動--><path d="M290.46,728.36 C304.13,740.67 338.37,771.48 361.54,792.33 " fill="none" id="#46-&gt;[15]チャンス移動" style="stroke: #A80036; stroke-width: 1.0;"/><polygon fill="#A80036" points="365.44,795.85,361.4262,786.8561,361.7235,792.5052,356.0745,792.8025,365.44,795.85" style="stroke: #A80036; stroke-width: 1.0;"/><text fill="#000000" font-family="sans-serif" font-size="11" lengthAdjust="spacingAndGlyphs" textLength="16" x="340.5" y="772.4727">NO</text><!--MD5=[26a5b96428f0a893a9f152df046373b0]
link [15]チャンス移動 to [3]ステージが空か？--><path d="M399.56,795.72 C412.98,778.51 430.5,750.73 430.5,723 C430.5,309 430.5,309 430.5,309 C430.5,293.35 430.5,275.7 430.5,262.17 " fill="none" id="[15]チャンス移動-&gt;[3]ステージが空か？" style="stroke: #A80036; stroke-width: 1.0;"/><polygon fill="#A80036" points="430.5,257.01,426.5,266.01,430.5,262.01,434.5,266.01,430.5,257.01" style="stroke: #A80036; stroke-width: 1.0;"/><!--MD5=[1b2a9809aa36c3c674dc1f9c90b68df3]
@startuml
(*) - -> "[1]ゲーム開始"
- -> "[2]ターンプレイヤーにチャンスを移動"
- ->"[3]ステージが空か？"

if "" then
    - ->[YES] "[4]パス名簿リセット"
    - -> "[5]アクションを起こす"
    - -> "[6]即時効果か？"
    if "" then
        - ->[YES] "[7]アクションの解決"
        - -> "[8]勝敗判定"
        if "" then
            - ->[決着] (*)
        else
            - ->[それ以外] "[10]誘発チェック"
        endif
    else
        - ->[NO] "[9]ステージに追加"
        - -> "[10]誘発チェック"
    endif
    - -> "[3]ステージが空か？"
else
    - ->[NO] "[11]アクションを起こすか？"
    if "" then
        - ->[YES] "[4]パス名簿リセット"
    else
        - -> [NO] "[12]パス名簿に登録"
        - -> "[13]パス名簿の件数=プレイヤー数か？"
        if "" then
            - ->[YES] ”[14]ステージから取出し”
            - -> "[7]アクションの解決"
        else
            - -> [NO] "[15]チャンス移動"
            - -> "[3]ステージが空か？"
        endif
    endif
endif
@enduml

PlantUML version 1.2020.14(Sat Jun 20 14:14:34 GMT 2020)
(GPL source distribution)
Java Runtime: OpenJDK Runtime Environment
JVM: OpenJDK 64-Bit Server VM
Default Encoding: UTF-8
Language: ja
Country: JP
--></g></svg>