<?xml version="1.0" encoding="us-ascii" standalone="no"?><svg xmlns="http://www.w3.org/2000/svg" xmlns:xlink="http://www.w3.org/1999/xlink" contentStyleType="text/css" height="844px" preserveAspectRatio="none" style="width:799px;height:844px;background:#FFFFFF;" version="1.1" viewBox="0 0 799 844" width="799px" zoomAndPan="magnify"><defs/><g><ellipse cx="385.25" cy="20" fill="#222222" rx="10" ry="10" style="stroke:#222222;stroke-width:1.0;"/><rect fill="#F1F1F1" height="35.7031" rx="12.5" ry="12.5" style="stroke:#181818;stroke-width:0.5;" width="98" x="336.25" y="50"/><text fill="#000000" font-family="sans-serif" font-size="12" lengthAdjust="spacing" textLength="78" x="346.25" y="72.5156">[1] &#12466;&#12540;&#12512;&#38283;&#22987;</text><rect fill="#F1F1F1" height="35.7031" rx="12.5" ry="12.5" style="stroke:#181818;stroke-width:0.5;" width="230" x="270.25" y="105.7031"/><text fill="#000000" font-family="sans-serif" font-size="12" lengthAdjust="spacing" textLength="210" x="280.25" y="128.2188">[2] &#12479;&#12540;&#12531;&#12503;&#12524;&#12452;&#12516;&#12540;&#12395;&#12481;&#12515;&#12531;&#12473;&#12434;&#31227;&#21205;</text><polygon fill="#F1F1F1" points="295.25,205.4063,475.25,205.4063,487.25,217.4063,475.25,229.4063,295.25,229.4063,283.25,217.4063,295.25,205.4063" style="stroke:#181818;stroke-width:0.5;"/><text fill="#000000" font-family="sans-serif" font-size="11" lengthAdjust="spacing" textLength="180" x="295.25" y="221.6816">[3] &#12450;&#12463;&#12471;&#12519;&#12531;&#12434;&#12522;&#12463;&#12456;&#12473;&#12488;&#12377;&#12427;&#12363;&#65311;</text><text fill="#000000" font-family="sans-serif" font-size="11" lengthAdjust="spacing" textLength="17" x="266.25" y="214.4844">Yes</text><text fill="#000000" font-family="sans-serif" font-size="11" lengthAdjust="spacing" textLength="14" x="487.25" y="214.4844">No</text><rect fill="#F1F1F1" height="35.7031" rx="12.5" ry="12.5" style="stroke:#181818;stroke-width:0.5;" width="146" x="101.5" y="239.4063"/><text fill="#000000" font-family="sans-serif" font-size="12" lengthAdjust="spacing" textLength="126" x="111.5" y="261.9219">[4] &#12497;&#12473;&#35352;&#37682;&#12398;&#12522;&#12475;&#12483;&#12488;</text><rect fill="#F1F1F1" height="35.7031" rx="12.5" ry="12.5" style="stroke:#181818;stroke-width:0.5;" width="194" x="77.5" y="295.1094"/><text fill="#000000" font-family="sans-serif" font-size="12" lengthAdjust="spacing" textLength="174" x="87.5" y="317.625">[5] &#12450;&#12463;&#12471;&#12519;&#12531;&#12434;&#12522;&#12463;&#12456;&#12473;&#12488;&#12377;&#12427;</text><rect fill="#F1F1F1" height="35.7031" rx="12.5" ry="12.5" style="stroke:#181818;stroke-width:0.5;" width="110" x="119.5" y="365.8125"/><text fill="#000000" font-family="sans-serif" font-size="12" lengthAdjust="spacing" textLength="90" x="129.5" y="388.3281">[6] &#35480;&#30330;&#12481;&#12455;&#12483;&#12463;</text><polygon fill="#F1F1F1" points="145,436.5156,204,436.5156,216,448.5156,204,460.5156,145,460.5156,133,448.5156,145,436.5156" style="stroke:#181818;stroke-width:0.5;"/><text fill="#000000" font-family="sans-serif" font-size="11" lengthAdjust="spacing" textLength="59" x="145" y="452.791">[7] &#21363;&#26178;&#12363;&#65311;</text><text fill="#000000" font-family="sans-serif" font-size="11" lengthAdjust="spacing" textLength="17" x="116" y="445.5938">Yes</text><text fill="#000000" font-family="sans-serif" font-size="11" lengthAdjust="spacing" textLength="14" x="216" y="445.5938">No</text><rect fill="#F1F1F1" height="35.7031" rx="12.5" ry="12.5" style="stroke:#181818;stroke-width:0.5;" width="134" x="11" y="470.5156"/><text fill="#000000" font-family="sans-serif" font-size="12" lengthAdjust="spacing" textLength="114" x="21" y="493.0313">[8] &#12522;&#12463;&#12456;&#12473;&#12488;&#12398;&#35299;&#27770;</text><polygon fill="#F1F1F1" points="48.5,541.2188,107.5,541.2188,119.5,553.2188,107.5,565.2188,48.5,565.2188,36.5,553.2188,48.5,541.2188" style="stroke:#181818;stroke-width:0.5;"/><text fill="#000000" font-family="sans-serif" font-size="11" lengthAdjust="spacing" textLength="59" x="48.5" y="557.4941">[9] &#21213;&#25943;&#21028;&#23450;</text><text fill="#000000" font-family="sans-serif" font-size="11" lengthAdjust="spacing" textLength="22" x="119.5" y="550.2969">&#27770;&#30528;</text><ellipse cx="163.5" cy="553.2188" fill="none" rx="11" ry="11" style="stroke:#222222;stroke-width:1.0;"/><ellipse cx="163.5" cy="553.2188" fill="#222222" rx="6" ry="6" style="stroke:#222222;stroke-width:1.0;"/><rect fill="#F1F1F1" height="35.7031" rx="12.5" ry="12.5" style="stroke:#181818;stroke-width:0.5;" width="129" x="206.5" y="470.5156"/><text fill="#000000" font-family="sans-serif" font-size="12" lengthAdjust="spacing" textLength="109" x="216.5" y="493.0313">[10] &#12473;&#12486;&#12540;&#12472;&#12395;&#36861;&#21152;</text><polygon fill="#F1F1F1" points="174.5,577.7246,186.5,589.7246,174.5,601.7246,162.5,589.7246,174.5,577.7246" style="stroke:#181818;stroke-width:0.5;"/><rect fill="#F1F1F1" height="35.7031" rx="12.5" ry="12.5" style="stroke:#181818;stroke-width:0.5;" width="110" x="119.5" y="636.7246"/><text fill="#000000" font-family="sans-serif" font-size="12" lengthAdjust="spacing" textLength="90" x="129.5" y="659.2402">[6] &#35480;&#30330;&#12481;&#12455;&#12483;&#12463;</text><rect fill="#F1F1F1" height="35.7031" rx="12.5" ry="12.5" style="stroke:#181818;stroke-width:0.5;" width="129" x="531.5" y="239.4063"/><text fill="#000000" font-family="sans-serif" font-size="12" lengthAdjust="spacing" textLength="109" x="541.5" y="261.9219">[11] &#12497;&#12473;&#35352;&#37682;&#12395;&#30331;&#37682;</text><polygon fill="#F1F1F1" points="536,295.1094,656,295.1094,668,307.1094,656,319.1094,536,319.1094,524,307.1094,536,295.1094" style="stroke:#181818;stroke-width:0.5;"/><text fill="#000000" font-family="sans-serif" font-size="11" lengthAdjust="spacing" textLength="120" x="536" y="311.3848">[12] &#20840;&#21729;&#12364;&#12497;&#12473;&#12375;&#12383;&#12363;&#65311;</text><text fill="#000000" font-family="sans-serif" font-size="11" lengthAdjust="spacing" textLength="17" x="507" y="304.1875">Yes</text><text fill="#000000" font-family="sans-serif" font-size="11" lengthAdjust="spacing" textLength="14" x="668" y="304.1875">No</text><rect fill="#F1F1F1" height="35.7031" rx="12.5" ry="12.5" style="stroke:#181818;stroke-width:0.5;" width="225" x="379" y="329.1094"/><text fill="#000000" font-family="sans-serif" font-size="12" lengthAdjust="spacing" textLength="205" x="389" y="351.625">[13] &#12523;&#12540;&#12523;&#12471;&#12473;&#12486;&#12512;&#12395;&#12481;&#12515;&#12531;&#12473;&#12434;&#31227;&#21205;</text><rect fill="#F1F1F1" height="35.7031" rx="12.5" ry="12.5" style="stroke:#181818;stroke-width:0.5;" width="177" x="403" y="449.0098"/><text fill="#000000" font-family="sans-serif" font-size="12" lengthAdjust="spacing" textLength="157" x="413" y="471.5254">[15] &#26368;&#24460;&#12398;&#12522;&#12463;&#12456;&#12473;&#12488;&#12434;&#35299;&#27770;</text><polygon fill="#F1F1F1" points="462,519.7129,521,519.7129,533,531.7129,521,543.7129,462,543.7129,450,531.7129,462,519.7129" style="stroke:#181818;stroke-width:0.5;"/><text fill="#000000" font-family="sans-serif" font-size="11" lengthAdjust="spacing" textLength="59" x="462" y="535.9883">[9] &#21213;&#25943;&#21028;&#23450;</text><text fill="#000000" font-family="sans-serif" font-size="11" lengthAdjust="spacing" textLength="22" x="533" y="528.791">&#27770;&#30528;</text><ellipse cx="577" cy="531.7129" fill="none" rx="11" ry="11" style="stroke:#222222;stroke-width:1.0;"/><ellipse cx="577" cy="531.7129" fill="#222222" rx="6" ry="6" style="stroke:#222222;stroke-width:1.0;"/><rect fill="#F1F1F1" height="35.7031" rx="12.5" ry="12.5" style="stroke:#181818;stroke-width:0.5;" width="110" x="436.5" y="585.2188"/><text fill="#000000" font-family="sans-serif" font-size="12" lengthAdjust="spacing" textLength="90" x="446.5" y="607.7344">[6] &#35480;&#30330;&#12481;&#12455;&#12483;&#12463;</text><polygon fill="#F1F1F1" points="387.5,399.8125,595.5,399.8125,607.5,411.8125,595.5,423.8125,387.5,423.8125,375.5,411.8125,387.5,399.8125" style="stroke:#181818;stroke-width:0.5;"/><text fill="#000000" font-family="sans-serif" font-size="11" lengthAdjust="spacing" textLength="17" x="495.5" y="435.2852">Yes</text><text fill="#000000" font-family="sans-serif" font-size="11" lengthAdjust="spacing" textLength="208" x="387.5" y="416.0879">[14] &#12473;&#12486;&#12540;&#12472;&#12395;&#12522;&#12463;&#12456;&#12473;&#12488;&#12364;&#23384;&#22312;&#12377;&#12427;&#12363;&#65311;</text><text fill="#000000" font-family="sans-serif" font-size="11" lengthAdjust="spacing" textLength="14" x="607.5" y="408.8906">No</text><polygon fill="#F1F1F1" points="491.5,646.1191,503.5,658.1191,491.5,670.1191,479.5,658.1191,491.5,646.1191" style="stroke:#181818;stroke-width:0.5;"/><rect fill="#F1F1F1" height="35.7031" rx="12.5" ry="12.5" style="stroke:#181818;stroke-width:0.5;" width="230" x="376.5" y="692.4277"/><text fill="#000000" font-family="sans-serif" font-size="12" lengthAdjust="spacing" textLength="210" x="386.5" y="714.9434">[2] &#12479;&#12540;&#12531;&#12503;&#12524;&#12452;&#12516;&#12540;&#12395;&#12481;&#12515;&#12531;&#12473;&#12434;&#31227;&#21205;</text><rect fill="#F1F1F1" height="35.7031" rx="12.5" ry="12.5" style="stroke:#181818;stroke-width:0.5;" width="117" x="642" y="329.1094"/><text fill="#000000" font-family="sans-serif" font-size="12" lengthAdjust="spacing" textLength="97" x="652" y="351.625">[16] &#12481;&#12515;&#12531;&#12473;&#31227;&#21205;</text><polygon fill="#F1F1F1" points="596,734.1309,608,746.1309,596,758.1309,584,746.1309,596,734.1309" style="stroke:#181818;stroke-width:0.5;"/><polygon fill="#F1F1F1" points="385.25,764.1309,397.25,776.1309,385.25,788.1309,373.25,776.1309,385.25,764.1309" style="stroke:#181818;stroke-width:0.5;"/><polygon fill="#F1F1F1" points="385.25,161.4063,397.25,173.4063,385.25,185.4063,373.25,173.4063,385.25,161.4063" style="stroke:#181818;stroke-width:0.5;"/><polygon fill="#F1F1F1" points="385.25,808.1309,385.25,808.1309,397.25,820.1309,385.25,832.1309,385.25,832.1309,373.25,820.1309,385.25,808.1309" style="stroke:#181818;stroke-width:0.5;"/><line style="stroke:#181818;stroke-width:1.0;" x1="385.25" x2="385.25" y1="30" y2="50"/><polygon fill="#181818" points="381.25,40,385.25,50,389.25,40,385.25,44" style="stroke:#181818;stroke-width:1.0;"/><line style="stroke:#181818;stroke-width:1.0;" x1="385.25" x2="385.25" y1="85.7031" y2="105.7031"/><polygon fill="#181818" points="381.25,95.7031,385.25,105.7031,389.25,95.7031,385.25,99.7031" style="stroke:#181818;stroke-width:1.0;"/><line style="stroke:#181818;stroke-width:1.0;" x1="174.5" x2="174.5" y1="275.1094" y2="295.1094"/><polygon fill="#181818" points="170.5,285.1094,174.5,295.1094,178.5,285.1094,174.5,289.1094" style="stroke:#181818;stroke-width:1.0;"/><line style="stroke:#181818;stroke-width:1.0;" x1="174.5" x2="174.5" y1="330.8125" y2="365.8125"/><polygon fill="#181818" points="170.5,355.8125,174.5,365.8125,178.5,355.8125,174.5,359.8125" style="stroke:#181818;stroke-width:1.0;"/><line style="stroke:#181818;stroke-width:1.0;" x1="78" x2="78" y1="565.2188" y2="589.7246"/><line style="stroke:#181818;stroke-width:1.0;" x1="78" x2="162.5" y1="589.7246" y2="589.7246"/><polygon fill="#181818" points="152.5,585.7246,162.5,589.7246,152.5,593.7246,156.5,589.7246" style="stroke:#181818;stroke-width:1.0;"/><line style="stroke:#181818;stroke-width:1.0;" x1="119.5" x2="152.5" y1="553.2188" y2="553.2188"/><polygon fill="#181818" points="142.5,549.2188,152.5,553.2188,142.5,557.2188,146.5,553.2188" style="stroke:#181818;stroke-width:1.0;"/><line style="stroke:#181818;stroke-width:1.0;" x1="78" x2="78" y1="506.2188" y2="541.2188"/><polygon fill="#181818" points="74,531.2188,78,541.2188,82,531.2188,78,535.2188" style="stroke:#181818;stroke-width:1.0;"/><line style="stroke:#181818;stroke-width:1.0;" x1="133" x2="78" y1="448.5156" y2="448.5156"/><line style="stroke:#181818;stroke-width:1.0;" x1="78" x2="78" y1="448.5156" y2="470.5156"/><polygon fill="#181818" points="74,460.5156,78,470.5156,82,460.5156,78,464.5156" style="stroke:#181818;stroke-width:1.0;"/><line style="stroke:#181818;stroke-width:1.0;" x1="216" x2="271" y1="448.5156" y2="448.5156"/><line style="stroke:#181818;stroke-width:1.0;" x1="271" x2="271" y1="448.5156" y2="470.5156"/><polygon fill="#181818" points="267,460.5156,271,470.5156,275,460.5156,271,464.5156" style="stroke:#181818;stroke-width:1.0;"/><line style="stroke:#181818;stroke-width:1.0;" x1="271" x2="271" y1="506.2188" y2="589.7246"/><line style="stroke:#181818;stroke-width:1.0;" x1="271" x2="186.5" y1="589.7246" y2="589.7246"/><polygon fill="#181818" points="196.5,585.7246,186.5,589.7246,196.5,593.7246,192.5,589.7246" style="stroke:#181818;stroke-width:1.0;"/><line style="stroke:#181818;stroke-width:1.0;" x1="174.5" x2="174.5" y1="401.5156" y2="436.5156"/><polygon fill="#181818" points="170.5,426.5156,174.5,436.5156,178.5,426.5156,174.5,430.5156" style="stroke:#181818;stroke-width:1.0;"/><line style="stroke:#181818;stroke-width:1.0;" x1="174.5" x2="174.5" y1="601.7246" y2="636.7246"/><polygon fill="#181818" points="170.5,626.7246,174.5,636.7246,178.5,626.7246,174.5,630.7246" style="stroke:#181818;stroke-width:1.0;"/><line style="stroke:#181818;stroke-width:1.0;" x1="491.5" x2="491.5" y1="543.7129" y2="585.2188"/><polygon fill="#181818" points="487.5,575.2188,491.5,585.2188,495.5,575.2188,491.5,579.2188" style="stroke:#181818;stroke-width:1.0;"/><line style="stroke:#181818;stroke-width:1.0;" x1="533" x2="566" y1="531.7129" y2="531.7129"/><polygon fill="#181818" points="556,527.7129,566,531.7129,556,535.7129,560,531.7129" style="stroke:#181818;stroke-width:1.0;"/><line style="stroke:#181818;stroke-width:1.0;" x1="491.5" x2="491.5" y1="484.7129" y2="519.7129"/><polygon fill="#181818" points="487.5,509.7129,491.5,519.7129,495.5,509.7129,491.5,513.7129" style="stroke:#181818;stroke-width:1.0;"/><line style="stroke:#181818;stroke-width:1.0;" x1="491.5" x2="491.5" y1="423.8125" y2="449.0098"/><polygon fill="#181818" points="487.5,439.0098,491.5,449.0098,495.5,439.0098,491.5,443.0098" style="stroke:#181818;stroke-width:1.0;"/><line style="stroke:#181818;stroke-width:1.0;" x1="607.5" x2="619.5" y1="411.8125" y2="411.8125"/><polygon fill="#181818" points="615.5,545.7129,619.5,555.7129,623.5,545.7129,619.5,549.7129" style="stroke:#181818;stroke-width:1.0;"/><line style="stroke:#181818;stroke-width:1.0;" x1="619.5" x2="619.5" y1="411.8125" y2="658.1191"/><line style="stroke:#181818;stroke-width:1.0;" x1="619.5" x2="503.5" y1="658.1191" y2="658.1191"/><polygon fill="#181818" points="513.5,654.1191,503.5,658.1191,513.5,662.1191,509.5,658.1191" style="stroke:#181818;stroke-width:1.0;"/><line style="stroke:#181818;stroke-width:1.0;" x1="491.5" x2="491.5" y1="620.9219" y2="646.1191"/><polygon fill="#181818" points="487.5,636.1191,491.5,646.1191,495.5,636.1191,491.5,640.1191" style="stroke:#181818;stroke-width:1.0;"/><line style="stroke:#181818;stroke-width:1.0;" x1="491.5" x2="491.5" y1="364.8125" y2="399.8125"/><polygon fill="#181818" points="487.5,389.8125,491.5,399.8125,495.5,389.8125,491.5,393.8125" style="stroke:#181818;stroke-width:1.0;"/><line style="stroke:#181818;stroke-width:1.0;" x1="491.5" x2="491.5" y1="670.1191" y2="692.4277"/><polygon fill="#181818" points="487.5,682.4277,491.5,692.4277,495.5,682.4277,491.5,686.4277" style="stroke:#181818;stroke-width:1.0;"/><line style="stroke:#181818;stroke-width:1.0;" x1="524" x2="491.5" y1="307.1094" y2="307.1094"/><line style="stroke:#181818;stroke-width:1.0;" x1="491.5" x2="491.5" y1="307.1094" y2="329.1094"/><polygon fill="#181818" points="487.5,319.1094,491.5,329.1094,495.5,319.1094,491.5,323.1094" style="stroke:#181818;stroke-width:1.0;"/><line style="stroke:#181818;stroke-width:1.0;" x1="668" x2="700.5" y1="307.1094" y2="307.1094"/><line style="stroke:#181818;stroke-width:1.0;" x1="700.5" x2="700.5" y1="307.1094" y2="329.1094"/><polygon fill="#181818" points="696.5,319.1094,700.5,329.1094,704.5,319.1094,700.5,323.1094" style="stroke:#181818;stroke-width:1.0;"/><line style="stroke:#181818;stroke-width:1.0;" x1="491.5" x2="491.5" y1="728.1309" y2="746.1309"/><line style="stroke:#181818;stroke-width:1.0;" x1="491.5" x2="584" y1="746.1309" y2="746.1309"/><polygon fill="#181818" points="574,742.1309,584,746.1309,574,750.1309,578,746.1309" style="stroke:#181818;stroke-width:1.0;"/><line style="stroke:#181818;stroke-width:1.0;" x1="700.5" x2="700.5" y1="364.8125" y2="746.1309"/><line style="stroke:#181818;stroke-width:1.0;" x1="700.5" x2="608" y1="746.1309" y2="746.1309"/><polygon fill="#181818" points="618,742.1309,608,746.1309,618,750.1309,614,746.1309" style="stroke:#181818;stroke-width:1.0;"/><line style="stroke:#181818;stroke-width:1.0;" x1="596" x2="596" y1="275.1094" y2="295.1094"/><polygon fill="#181818" points="592,285.1094,596,295.1094,600,285.1094,596,289.1094" style="stroke:#181818;stroke-width:1.0;"/><line style="stroke:#181818;stroke-width:1.0;" x1="283.25" x2="174.5" y1="217.4063" y2="217.4063"/><line style="stroke:#181818;stroke-width:1.0;" x1="174.5" x2="174.5" y1="217.4063" y2="239.4063"/><polygon fill="#181818" points="170.5,229.4063,174.5,239.4063,178.5,229.4063,174.5,233.4063" style="stroke:#181818;stroke-width:1.0;"/><line style="stroke:#181818;stroke-width:1.0;" x1="487.25" x2="596" y1="217.4063" y2="217.4063"/><line style="stroke:#181818;stroke-width:1.0;" x1="596" x2="596" y1="217.4063" y2="239.4063"/><polygon fill="#181818" points="592,229.4063,596,239.4063,600,229.4063,596,233.4063" style="stroke:#181818;stroke-width:1.0;"/><line style="stroke:#181818;stroke-width:1.0;" x1="174.5" x2="174.5" y1="672.4277" y2="776.1309"/><line style="stroke:#181818;stroke-width:1.0;" x1="174.5" x2="373.25" y1="776.1309" y2="776.1309"/><polygon fill="#181818" points="363.25,772.1309,373.25,776.1309,363.25,780.1309,367.25,776.1309" style="stroke:#181818;stroke-width:1.0;"/><line style="stroke:#181818;stroke-width:1.0;" x1="596" x2="596" y1="758.1309" y2="776.1309"/><line style="stroke:#181818;stroke-width:1.0;" x1="596" x2="397.25" y1="776.1309" y2="776.1309"/><polygon fill="#181818" points="407.25,772.1309,397.25,776.1309,407.25,780.1309,403.25,776.1309" style="stroke:#181818;stroke-width:1.0;"/><line style="stroke:#181818;stroke-width:1.0;" x1="385.25" x2="385.25" y1="185.4063" y2="205.4063"/><polygon fill="#181818" points="381.25,195.4063,385.25,205.4063,389.25,195.4063,385.25,199.4063" style="stroke:#181818;stroke-width:1.0;"/><line style="stroke:#181818;stroke-width:1.0;" x1="397.25" x2="773" y1="820.1309" y2="820.1309"/><polygon fill="#181818" points="769,526.3613,773,516.3613,777,526.3613,773,522.3613" style="stroke:#181818;stroke-width:1.0;"/><line style="stroke:#181818;stroke-width:1.0;" x1="773" x2="773" y1="173.4063" y2="820.1309"/><line style="stroke:#181818;stroke-width:1.0;" x1="773" x2="397.25" y1="173.4063" y2="173.4063"/><polygon fill="#181818" points="407.25,169.4063,397.25,173.4063,407.25,177.4063,403.25,173.4063" style="stroke:#181818;stroke-width:1.0;"/><line style="stroke:#181818;stroke-width:1.0;" x1="385.25" x2="385.25" y1="788.1309" y2="808.1309"/><polygon fill="#181818" points="381.25,798.1309,385.25,808.1309,389.25,798.1309,385.25,802.1309" style="stroke:#181818;stroke-width:1.0;"/><line style="stroke:#181818;stroke-width:1.0;" x1="385.25" x2="385.25" y1="141.4063" y2="161.4063"/><polygon fill="#181818" points="381.25,151.4063,385.25,161.4063,389.25,151.4063,385.25,155.4063" style="stroke:#181818;stroke-width:1.0;"/><!--SRC=[dLFBJi905Dtp5RE4dLL4XNzmRmWB4aiW8K2aYLiw4msnk123W860Gj86528iL43vc9ifiF8Nd9doAWWnTD6qTyuzzt7E99NWXUBm-gK00jm1CW1IdJneLDTyBBhFeqCHxGB90ta1N0TIvn6r2KG5KkD7-1DmTgJtgPRpEIxaX1nK794GSleFEC4pu3RWTo2wm6Q1D4J4u7aa3MeHi0QgzZEek90IbcF8UIOdNGx47g_VpIZ87OEEZS8aqm6r9VBxG0XBzarHX_ykDClm1D2uKHWLUtmCh7CwtBOEHUj70KHlksOHR-ZCOZdctQrKQOtrcldMyyrXWk-4yMbbCvUdwJfjFSxu671KJYqe-PDKuebvG8wTHqBYJuucPUGyZI_Nb_RuuApkDTS4Vp1PniClUbErgY-IDmviPsMCqkh2cwDYdtqixKPYng1N1hr_0ZLZWK7DWrhPkYk9ku4qXPsQNATftzNDNh9jK7AlpRgs-mnzBT2IiTLJInqnsvYb5FtEp6orn8MpgphkekMQddPP5hriyUFVujj9Thoi6ttbuLejKcnuKTXwMvSTNOOZKTdf-WK0]--></g></svg>