<?xml version="1.0" encoding="UTF-8" standalone="no"?><svg xmlns="http://www.w3.org/2000/svg" xmlns:xlink="http://www.w3.org/1999/xlink" contentScriptType="application/ecmascript" contentStyleType="text/css" height="433px" preserveAspectRatio="none" style="width:899px;height:433px;" version="1.1" viewBox="0 0 899 433" width="899px" zoomAndPan="magnify"><defs><filter height="300%" id="fb1wstg5aay3v" width="300%" x="-1" y="-1"><feGaussianBlur result="blurOut" stdDeviation="2.0"/><feColorMatrix in="blurOut" result="blurOut2" type="matrix" values="0 0 0 0 0 0 0 0 0 0 0 0 0 0 0 0 0 0 .4 0"/><feOffset dx="4.0" dy="4.0" in="blurOut2" result="blurOut3"/><feBlend in="SourceGraphic" in2="blurOut3" mode="normal"/></filter></defs><g><!--MD5=[3002b5cf67f07a653068a1555e9657af]
cluster フォーマット--><polygon fill="#FFFFFF" filter="url(#fb1wstg5aay3v)" points="62,106.5,152,106.5,159,130.8203,396,130.8203,396,201.5,62,201.5,62,106.5" style="stroke: #000000; stroke-width: 1.5;"/><line style="stroke: #000000; stroke-width: 1.5;" x1="62" x2="159" y1="130.8203" y2="130.8203"/><text fill="#000000" font-family="sans-serif" font-size="14" font-weight="bold" lengthAdjust="spacingAndGlyphs" textLength="84" x="66" y="123.1016">フォーマット</text><!--MD5=[1b7b03c11ecb8bc64ccfd19cc7a1f7d1]
class 拡張フォーマット--><rect fill="#FEFECE" filter="url(#fb1wstg5aay3v)" height="25.7031" id="拡張フォーマット" style="stroke: #A80036; stroke-width: 1.5;" width="102" x="270" y="151.5"/><text fill="#000000" font-family="sans-serif" font-size="12" lengthAdjust="spacingAndGlyphs" textLength="96" x="273" y="169.0156">拡張フォーマット</text><!--MD5=[8c6a0ae348e7a404ac950b7e3e3cae03]
class 通常フォーマット--><rect fill="#FEFECE" filter="url(#fb1wstg5aay3v)" height="25.7031" id="通常フォーマット" style="stroke: #A80036; stroke-width: 1.5;" width="102" x="105" y="151.5"/><text fill="#000000" font-family="sans-serif" font-size="12" lengthAdjust="spacingAndGlyphs" textLength="96" x="108" y="169.0156">通常フォーマット</text><!--MD5=[290b23b195cda7e553d7254bfd9175c6]
class コアルール--><rect fill="#FEFECE" filter="url(#fb1wstg5aay3v)" height="25.7031" id="コアルール" style="stroke: #A80036; stroke-width: 1.5;" width="66" x="37" y="389"/><text fill="#000000" font-family="sans-serif" font-size="12" font-style="italic" lengthAdjust="spacingAndGlyphs" textLength="60" x="40" y="406.5156">コアルール</text><!--MD5=[dfc0cd2a72eeb5823a75133eb3e753c8]
class 共通ルール--><rect fill="#FEFECE" filter="url(#fb1wstg5aay3v)" height="25.7031" id="共通ルール" style="stroke: #A80036; stroke-width: 1.5;" width="66" x="37" y="283"/><text fill="#000000" font-family="sans-serif" font-size="12" font-style="italic" lengthAdjust="spacingAndGlyphs" textLength="60" x="40" y="300.5156">共通ルール</text><!--MD5=[c191e98e8885b7cc790e3355ee704dbf]
class 対戦レギュレーション--><rect fill="#FEFECE" filter="url(#fb1wstg5aay3v)" height="25.7031" id="対戦レギュレーション" style="stroke: #A80036; stroke-width: 1.5;" width="126" x="7" y="7"/><text fill="#000000" font-family="sans-serif" font-size="12" lengthAdjust="spacingAndGlyphs" textLength="120" x="10" y="24.5156">対戦レギュレーション</text><path d="M168,6.5 L168,16 L133.28,20 L168,24 L168,33.5117 A0,0 0 0 0 168,33.5117 L332,33.5117 A0,0 0 0 0 332,33.5117 L332,16.5 L322,6.5 L168,6.5 A0,0 0 0 0 168,6.5 " fill="#FBFB77" filter="url(#fb1wstg5aay3v)" style="stroke: #A80036; stroke-width: 1.0;"/><path d="M322,6.5 L322,16.5 L332,16.5 L322,6.5 " fill="#FBFB77" style="stroke: #A80036; stroke-width: 1.0;"/><text fill="#000000" font-family="sans-serif" font-size="13" lengthAdjust="spacingAndGlyphs" textLength="143" x="174" y="25.0586">対戦する際に決める規則</text><path d="M137.5,388.5 L137.5,398 L103.24,402 L137.5,406 L137.5,415.5117 A0,0 0 0 0 137.5,415.5117 L444.5,415.5117 A0,0 0 0 0 444.5,415.5117 L444.5,398.5 L434.5,388.5 L137.5,388.5 A0,0 0 0 0 137.5,388.5 " fill="#FBFB77" filter="url(#fb1wstg5aay3v)" style="stroke: #A80036; stroke-width: 1.0;"/><path d="M434.5,388.5 L434.5,398.5 L444.5,398.5 L434.5,388.5 " fill="#FBFB77" style="stroke: #A80036; stroke-width: 1.0;"/><text fill="#000000" font-family="sans-serif" font-size="13" lengthAdjust="spacingAndGlyphs" textLength="286" x="143.5" y="407.0586">ターン制ゲームに適応できる抽象的なルール定義</text><path d="M138.5,282.5 L138.5,292 L103.24,296 L138.5,300 L138.5,309.5117 A0,0 0 0 0 138.5,309.5117 L367.5,309.5117 A0,0 0 0 0 367.5,309.5117 L367.5,292.5 L357.5,282.5 L138.5,282.5 A0,0 0 0 0 138.5,282.5 " fill="#FBFB77" filter="url(#fb1wstg5aay3v)" style="stroke: #A80036; stroke-width: 1.0;"/><path d="M357.5,282.5 L357.5,292.5 L367.5,292.5 L357.5,282.5 " fill="#FBFB77" style="stroke: #A80036; stroke-width: 1.0;"/><text fill="#000000" font-family="sans-serif" font-size="13" lengthAdjust="spacingAndGlyphs" textLength="208" x="144.5" y="301.0586">コアルールを具体化したルール定義</text><path d="M420,142.5 L420,186.5234 L610,186.5234 L610,152.5 L600,142.5 L420,142.5 " fill="#FBFB77" filter="url(#fb1wstg5aay3v)" style="stroke: #A80036; stroke-width: 1.0;"/><path d="M600,142.5 L600,152.5 L610,152.5 L600,142.5 " fill="#FBFB77" style="stroke: #A80036; stroke-width: 1.0;"/><text fill="#000000" font-family="sans-serif" font-size="13" lengthAdjust="spacingAndGlyphs" textLength="169" x="426" y="161.0586">ライト、スタンダードなどの</text><text fill="#000000" font-family="sans-serif" font-size="13" lengthAdjust="spacingAndGlyphs" textLength="156" x="426" y="178.0703">具体的なフォーマット定義</text><path d="M645,125.5 L645,203.5469 L887,203.5469 L887,135.5 L877,125.5 L645,125.5 " fill="#FBFB77" filter="url(#fb1wstg5aay3v)" style="stroke: #A80036; stroke-width: 1.0;"/><path d="M877,125.5 L877,135.5 L887,135.5 L877,125.5 " fill="#FBFB77" style="stroke: #A80036; stroke-width: 1.0;"/><text fill="#000000" font-family="sans-serif" font-size="13" lengthAdjust="spacingAndGlyphs" textLength="221" x="651" y="144.0586">エクストラなどの通常フォーマットを</text><text fill="#000000" font-family="sans-serif" font-size="13" lengthAdjust="spacingAndGlyphs" textLength="156" x="651" y="161.0703">拡張したフォーマット定義</text><text fill="#000000" font-family="sans-serif" font-size="13" lengthAdjust="spacingAndGlyphs" textLength="0" x="654" y="178.082"/><text fill="#000000" font-family="sans-serif" font-size="13" lengthAdjust="spacingAndGlyphs" textLength="0" x="654" y="195.0938"/><!--MD5=[8048c40f3d1872b6999fda9daf35b408]
link 対戦レギュレーション to フォーマット--><path d="M70,33.15 C70,41.63 70,53.8306 70,67.407 C70,74.1952 70,81.3274 70,88.5104 C70,92.1019 70,95.7061 70,99.2863 C70,101.0765 70,102.8606 70,104.6342 C70,105.0776 70,105.5204 70,105.9624 " fill="none" id="対戦レギュレーション-&gt;フォーマット" style="stroke: #A80036; stroke-width: 1.0; stroke-dasharray: 7.0,7.0;"/><polygon fill="#A80036" points="70,105.9624,74,96.9624,70,100.9624,66,96.9624,70,105.9624" style="stroke: #A80036; stroke-width: 1.0;"/><text fill="#000000" font-family="sans-serif" font-size="13" lengthAdjust="spacingAndGlyphs" textLength="26" x="71" y="78.0586">参照</text><!--MD5=[f65bef9cdc775c53e2af9585e82317fa]
link 共通ルール to コアルール--><path d="M70,309.34 C70,323.88 70,348.61 70,368.72 " fill="none" id="共通ルール-&gt;コアルール" style="stroke: #A80036; stroke-width: 1.0; stroke-dasharray: 7.0,7.0;"/><polygon fill="none" points="77,369,70,389,63,369,77,369" style="stroke: #A80036; stroke-width: 1.0;"/><text fill="#000000" font-family="sans-serif" font-size="13" lengthAdjust="spacingAndGlyphs" textLength="39" x="71" y="354.0586">具体化</text><!--MD5=[7306f3e78559e9ee8577e0f6b86d3f67]
link フォーマット to 共通ルール--><path d="M70,201.8308 C70,202.0045 70,202.1786 70,202.353 C70,202.7017 70,203.0518 70,203.4032 C70,204.106 70,204.8139 70,205.5265 C70,206.9516 70,208.3956 70,209.855 C70,233.205 70,260.495 70,277.76 " fill="none" id="フォーマット-&gt;共通ルール" style="stroke: #A80036; stroke-width: 1.0; stroke-dasharray: 7.0,7.0;"/><polygon fill="#A80036" points="70,282.94,74,273.94,70,277.94,66,273.94,70,282.94" style="stroke: #A80036; stroke-width: 1.0;"/><text fill="#000000" font-family="sans-serif" font-size="13" lengthAdjust="spacingAndGlyphs" textLength="26" x="71" y="248.0586">参照</text><!--MD5=[02fc3bd81231d50c97705b06a5154e1d]
reverse link 通常フォーマット to 拡張フォーマット--><path d="M227.57,164.5 C241.76,164.5 256.38,164.5 269.73,164.5 " fill="none" id="通常フォーマット&lt;-拡張フォーマット" style="stroke: #A80036; stroke-width: 1.0;"/><polygon fill="none" points="227.3,171.5,207.3,164.5,227.3,157.5,227.3,171.5" style="stroke: #A80036; stroke-width: 1.0;"/><text fill="#000000" font-family="sans-serif" font-size="13" lengthAdjust="spacingAndGlyphs" textLength="26" x="225.5" y="157.0586">拡張</text><!--MD5=[b37ddac56881b1ddd6f60594da91149d]
link 通常フォーマット to GMN21--><path d="M165.47,151.18 C183.01,127.79 223.15,80.1 270.5,62 C312.02,46.13 328.15,48.51 370.5,62 C419.73,77.69 466.58,116.93 492.97,142.05 " fill="none" id="通常フォーマット-GMN21" style="stroke: #A80036; stroke-width: 1.0; stroke-dasharray: 7.0,7.0;"/><!--MD5=[a72b27ee32878113d5766b15b029af5c]
link 拡張フォーマット to GMN24--><path d="M328.78,151.23 C343.31,127.93 377.1,80.36 420.5,62 C498.27,29.11 529.62,37.74 610.5,62 C652,74.45 692.66,101.95 721.99,125.33 " fill="none" id="拡張フォーマット-GMN24" style="stroke: #A80036; stroke-width: 1.0; stroke-dasharray: 7.0,7.0;"/><!--MD5=[f301c9b65a717dcff2d8cdc3d0307917]
@startuml

hide members
hide circle

abstract class コアルール
abstract class 共通ルール

package フォーマット {
    class 拡張フォーマット
    class 通常フォーマット
}

class 対戦レギュレーション 

note right of 対戦レギュレーション
    対戦する際に決める規則
end note

対戦レギュレーション ..> フォーマット : 参照
共通ルール ..|> コアルール : 具体化
フォーマット ..> 共通ルール : 参照
通常フォーマット ^- 拡張フォーマット : 拡張



note right of コアルール : ターン制ゲームに適応できる抽象的なルール定義
note right of 共通ルール : コアルールを具体化したルール定義
note right of 通常フォーマット
ライト、スタンダードなどの
具体的なフォーマット定義
end note
note right of 拡張フォーマット
エクストラなどの通常フォーマットを
拡張したフォーマット定義


end note


@enduml

PlantUML version 1.2020.14(Sat Jun 20 14:14:34 GMT 2020)
(GPL source distribution)
Java Runtime: OpenJDK Runtime Environment
JVM: OpenJDK 64-Bit Server VM
Default Encoding: UTF-8
Language: ja
Country: JP
--></g></svg>