<?xml version="1.0" encoding="us-ascii" standalone="no"?><svg xmlns="http://www.w3.org/2000/svg" xmlns:xlink="http://www.w3.org/1999/xlink" contentStyleType="text/css" height="767px" preserveAspectRatio="none" style="width:281px;height:767px;background:#FFFFFF;" version="1.1" viewBox="0 0 281 767" width="281px" zoomAndPan="magnify"><defs/><g><text fill="#000000" font-family="Droid Sans Fallback" font-size="14" font-weight="bold" lengthAdjust="spacing" textLength="238" x="20" y="34.6016">&#12450;&#12463;&#12471;&#12519;&#12531;&#12398;&#36215;&#12371;&#12375;&#26041;&#65288;&#12522;&#12463;&#12456;&#12473;&#12488;&#65289;</text><ellipse cx="131" cy="59.3203" fill="#222222" rx="10" ry="10" style="stroke:#222222;stroke-width:1.0;"/><rect fill="#F1F1F1" height="35.7031" rx="12.5" ry="12.5" style="stroke:#181818;stroke-width:0.5;" width="224" x="19" y="89.3203"/><text fill="#000000" font-family="Droid Sans Fallback" font-size="12" lengthAdjust="spacing" textLength="204" x="29" y="111.8359">&#36215;&#12371;&#12377;&#12450;&#12463;&#12471;&#12519;&#12531;&#12434;&#23550;&#25126;&#30456;&#25163;&#12395;&#20253;&#12360;&#12427;</text><rect fill="#F1F1F1" height="35.7031" rx="12.5" ry="12.5" style="stroke:#181818;stroke-width:0.5;" width="212" x="25" y="145.0234"/><text fill="#000000" font-family="Droid Sans Fallback" font-size="12" lengthAdjust="spacing" textLength="192" x="35" y="167.5391">&#12450;&#12463;&#12471;&#12519;&#12531;&#12395;&#24540;&#12376;&#12383;&#12467;&#12473;&#12488;&#12434;&#25903;&#25173;&#12358;</text><rect fill="#F1F1F1" height="51.4063" rx="12.5" ry="12.5" style="stroke:#181818;stroke-width:0.5;" width="212" x="25" y="249.9238"/><text fill="#000000" font-family="Droid Sans Fallback" font-size="12" lengthAdjust="spacing" textLength="192" x="35" y="272.4395">&#26465;&#20214;&#12395;&#21512;&#12387;&#12383;&#12459;&#12540;&#12489;&#12434;&#25163;&#26413;&#12363;&#12425;&#20986;&#12375;</text><text fill="#000000" font-family="Droid Sans Fallback" font-size="12" lengthAdjust="spacing" textLength="96" x="35" y="288.1426">&#12461;&#12540;&#12459;&#12540;&#12489;&#12392;&#12377;&#12427;</text><polygon fill="#F1F1F1" points="65,200.7266,197,200.7266,209,212.7266,197,224.7266,65,224.7266,53,212.7266,65,200.7266" style="stroke:#181818;stroke-width:0.5;"/><text fill="#000000" font-family="Droid Sans Fallback" font-size="11" lengthAdjust="spacing" textLength="17" x="135" y="236.1992">Yes</text><text fill="#000000" font-family="Droid Sans Fallback" font-size="11" lengthAdjust="spacing" textLength="132" x="65" y="217.002">&#12461;&#12540;&#12459;&#12540;&#12489;&#26465;&#20214;&#12364;&#12354;&#12427;&#12363;&#65311;</text><text fill="#000000" font-family="Droid Sans Fallback" font-size="11" lengthAdjust="spacing" textLength="14" x="209" y="209.8047">No</text><polygon fill="#F1F1F1" points="131,321.3301,143,333.3301,131,345.3301,119,333.3301,131,321.3301" style="stroke:#181818;stroke-width:0.5;"/><rect fill="#F1F1F1" height="51.4063" rx="12.5" ry="12.5" style="stroke:#181818;stroke-width:0.5;" width="188" x="37" y="414.5273"/><text fill="#000000" font-family="Droid Sans Fallback" font-size="12" lengthAdjust="spacing" textLength="168" x="47" y="437.043">&#26465;&#20214;&#12395;&#21512;&#12387;&#12383;&#12518;&#12491;&#12483;&#12488;&#12434;&#25351;&#23450;&#12375;</text><text fill="#000000" font-family="Droid Sans Fallback" font-size="12" lengthAdjust="spacing" textLength="108" x="47" y="452.7461">&#12461;&#12540;&#12518;&#12491;&#12483;&#12488;&#12392;&#12377;&#12427;</text><polygon fill="#F1F1F1" points="59.5,365.3301,202.5,365.3301,214.5,377.3301,202.5,389.3301,59.5,389.3301,47.5,377.3301,59.5,365.3301" style="stroke:#181818;stroke-width:0.5;"/><text fill="#000000" font-family="Droid Sans Fallback" font-size="11" lengthAdjust="spacing" textLength="17" x="135" y="400.8027">Yes</text><text fill="#000000" font-family="Droid Sans Fallback" font-size="11" lengthAdjust="spacing" textLength="143" x="59.5" y="381.6055">&#12461;&#12540;&#12518;&#12491;&#12483;&#12488;&#26465;&#20214;&#12364;&#12354;&#12427;&#12363;&#65311;</text><text fill="#000000" font-family="Droid Sans Fallback" font-size="11" lengthAdjust="spacing" textLength="14" x="214.5" y="374.4082">No</text><polygon fill="#F1F1F1" points="131,485.9336,143,497.9336,131,509.9336,119,497.9336,131,485.9336" style="stroke:#181818;stroke-width:0.5;"/><rect fill="#F1F1F1" height="35.7031" rx="12.5" ry="12.5" style="stroke:#181818;stroke-width:0.5;" width="104" x="79" y="579.1309"/><text fill="#000000" font-family="Droid Sans Fallback" font-size="12" lengthAdjust="spacing" textLength="84" x="89" y="601.6465">&#23550;&#35937;&#12434;&#25351;&#23450;&#12377;&#12427;</text><polygon fill="#F1F1F1" points="76,529.9336,186,529.9336,198,541.9336,186,553.9336,76,553.9336,64,541.9336,76,529.9336" style="stroke:#181818;stroke-width:0.5;"/><text fill="#000000" font-family="Droid Sans Fallback" font-size="11" lengthAdjust="spacing" textLength="17" x="135" y="565.4063">Yes</text><text fill="#000000" font-family="Droid Sans Fallback" font-size="11" lengthAdjust="spacing" textLength="110" x="76" y="546.209">&#23550;&#35937;&#12398;&#25351;&#23450;&#12364;&#24517;&#35201;&#12363;&#65311;</text><text fill="#000000" font-family="Droid Sans Fallback" font-size="11" lengthAdjust="spacing" textLength="14" x="198" y="539.0117">No</text><polygon fill="#F1F1F1" points="131,634.834,143,646.834,131,658.834,119,646.834,131,634.834" style="stroke:#181818;stroke-width:0.5;"/><rect fill="#F1F1F1" height="35.7031" rx="12.5" ry="12.5" style="stroke:#181818;stroke-width:0.5;" width="176" x="43" y="678.834"/><text fill="#000000" font-family="Droid Sans Fallback" font-size="12" lengthAdjust="spacing" textLength="156" x="53" y="701.3496">&#12450;&#12463;&#12471;&#12519;&#12531;&#12398;&#12522;&#12463;&#12456;&#12473;&#12488;&#23436;&#20102;</text><ellipse cx="131" cy="745.5371" fill="none" rx="11" ry="11" style="stroke:#222222;stroke-width:1.0;"/><ellipse cx="131" cy="745.5371" fill="#222222" rx="6" ry="6" style="stroke:#222222;stroke-width:1.0;"/><line style="stroke:#181818;stroke-width:1.0;" x1="131" x2="131" y1="69.3203" y2="89.3203"/><polygon fill="#181818" points="127,79.3203,131,89.3203,135,79.3203,131,83.3203" style="stroke:#181818;stroke-width:1.0;"/><line style="stroke:#181818;stroke-width:1.0;" x1="131" x2="131" y1="125.0234" y2="145.0234"/><polygon fill="#181818" points="127,135.0234,131,145.0234,135,135.0234,131,139.0234" style="stroke:#181818;stroke-width:1.0;"/><line style="stroke:#181818;stroke-width:1.0;" x1="131" x2="131" y1="224.7266" y2="249.9238"/><polygon fill="#181818" points="127,239.9238,131,249.9238,135,239.9238,131,243.9238" style="stroke:#181818;stroke-width:1.0;"/><line style="stroke:#181818;stroke-width:1.0;" x1="209" x2="247" y1="212.7266" y2="212.7266"/><polygon fill="#181818" points="243,265.627,247,275.627,251,265.627,247,269.627" style="stroke:#181818;stroke-width:1.0;"/><line style="stroke:#181818;stroke-width:1.0;" x1="247" x2="247" y1="212.7266" y2="333.3301"/><line style="stroke:#181818;stroke-width:1.0;" x1="247" x2="143" y1="333.3301" y2="333.3301"/><polygon fill="#181818" points="153,329.3301,143,333.3301,153,337.3301,149,333.3301" style="stroke:#181818;stroke-width:1.0;"/><line style="stroke:#181818;stroke-width:1.0;" x1="131" x2="131" y1="301.3301" y2="321.3301"/><polygon fill="#181818" points="127,311.3301,131,321.3301,135,311.3301,131,315.3301" style="stroke:#181818;stroke-width:1.0;"/><line style="stroke:#181818;stroke-width:1.0;" x1="131" x2="131" y1="180.7266" y2="200.7266"/><polygon fill="#181818" points="127,190.7266,131,200.7266,135,190.7266,131,194.7266" style="stroke:#181818;stroke-width:1.0;"/><line style="stroke:#181818;stroke-width:1.0;" x1="131" x2="131" y1="389.3301" y2="414.5273"/><polygon fill="#181818" points="127,404.5273,131,414.5273,135,404.5273,131,408.5273" style="stroke:#181818;stroke-width:1.0;"/><line style="stroke:#181818;stroke-width:1.0;" x1="214.5" x2="235" y1="377.3301" y2="377.3301"/><polygon fill="#181818" points="231,430.2305,235,440.2305,239,430.2305,235,434.2305" style="stroke:#181818;stroke-width:1.0;"/><line style="stroke:#181818;stroke-width:1.0;" x1="235" x2="235" y1="377.3301" y2="497.9336"/><line style="stroke:#181818;stroke-width:1.0;" x1="235" x2="143" y1="497.9336" y2="497.9336"/><polygon fill="#181818" points="153,493.9336,143,497.9336,153,501.9336,149,497.9336" style="stroke:#181818;stroke-width:1.0;"/><line style="stroke:#181818;stroke-width:1.0;" x1="131" x2="131" y1="465.9336" y2="485.9336"/><polygon fill="#181818" points="127,475.9336,131,485.9336,135,475.9336,131,479.9336" style="stroke:#181818;stroke-width:1.0;"/><line style="stroke:#181818;stroke-width:1.0;" x1="131" x2="131" y1="345.3301" y2="365.3301"/><polygon fill="#181818" points="127,355.3301,131,365.3301,135,355.3301,131,359.3301" style="stroke:#181818;stroke-width:1.0;"/><line style="stroke:#181818;stroke-width:1.0;" x1="131" x2="131" y1="553.9336" y2="579.1309"/><polygon fill="#181818" points="127,569.1309,131,579.1309,135,569.1309,131,573.1309" style="stroke:#181818;stroke-width:1.0;"/><line style="stroke:#181818;stroke-width:1.0;" x1="198" x2="210" y1="541.9336" y2="541.9336"/><polygon fill="#181818" points="206,586.9824,210,596.9824,214,586.9824,210,590.9824" style="stroke:#181818;stroke-width:1.0;"/><line style="stroke:#181818;stroke-width:1.0;" x1="210" x2="210" y1="541.9336" y2="646.834"/><line style="stroke:#181818;stroke-width:1.0;" x1="210" x2="143" y1="646.834" y2="646.834"/><polygon fill="#181818" points="153,642.834,143,646.834,153,650.834,149,646.834" style="stroke:#181818;stroke-width:1.0;"/><line style="stroke:#181818;stroke-width:1.0;" x1="131" x2="131" y1="614.834" y2="634.834"/><polygon fill="#181818" points="127,624.834,131,634.834,135,624.834,131,628.834" style="stroke:#181818;stroke-width:1.0;"/><line style="stroke:#181818;stroke-width:1.0;" x1="131" x2="131" y1="509.9336" y2="529.9336"/><polygon fill="#181818" points="127,519.9336,131,529.9336,135,519.9336,131,523.9336" style="stroke:#181818;stroke-width:1.0;"/><line style="stroke:#181818;stroke-width:1.0;" x1="131" x2="131" y1="658.834" y2="678.834"/><polygon fill="#181818" points="127,668.834,131,678.834,135,668.834,131,672.834" style="stroke:#181818;stroke-width:1.0;"/><line style="stroke:#181818;stroke-width:1.0;" x1="131" x2="131" y1="714.5371" y2="734.5371"/><polygon fill="#181818" points="127,724.5371,131,734.5371,135,724.5371,131,728.5371" style="stroke:#181818;stroke-width:1.0;"/><!--SRC=[dPBDJi9058NtynGJLl0Ai3KisRXoMMM83QKbT7o0cOdIfbqO_tyW14sGs51YY2BOoCDSMjdn2WuLefOG4sSngtFF-MREfIhL20P-1xmFV0ZY0SG0c3zx7W8x1NOPNOpcWGNYCHPqWOz0MFF0HcPPrQjAJQdW8Yaf1nhD6pejA1M2KrirGotYRKKtSLxHj5rbhvn2oAHAZQBiolaw6SfFmlvxP7K-RbyZsm7cJOCcC0kuaqFPDK8ld3I0NG5h0HzyKKc7wAmVsUV0Zd88gIMS1ju34G3t5hUmesPx-lO2p0N6fIymPnwqCfZk4nsdTuYPGLYUx4hcXSSMiFiuO-cmoB2TgD6Jiy3ji3wMVnHF9QA0TUCtIdYYcGId2qO64RsebdwHYGu81uIG-F-7-s6ou7FheN-JmFef-ODCjZ1xQiiTM1cvuUHmrc6RW9Rwx-0DtkiT-ecr2drtEfRLcTIeeay0]--></g></svg>