<?xml version="1.0" encoding="us-ascii" standalone="no"?><svg xmlns="http://www.w3.org/2000/svg" xmlns:xlink="http://www.w3.org/1999/xlink" contentStyleType="text/css" height="588px" preserveAspectRatio="none" style="width:688px;height:588px;background:#FFFFFF;" version="1.1" viewBox="0 0 688 588" width="688px" zoomAndPan="magnify"><defs/><g><!--cluster ???--><g id="cluster_&#12523;&#12540;&#12523;"><rect fill="none" height="464" rx="2.5" ry="2.5" style="stroke:#181818;stroke-width:1.0;" width="397" x="44" y="118"/><path d="M96,118 L96,129.3203 L86,139.3203 L44,139.3203 " fill="none" style="stroke:#181818;stroke-width:1.0;"/><text fill="#000000" font-family="sans-serif" font-size="14" font-weight="bold" lengthAdjust="spacing" textLength="42" x="47" y="133.6016">&#12523;&#12540;&#12523;</text></g><!--entity core--><g id="elem_core"><rect fill="#F1F1F1" height="38.3203" rx="2.5" ry="2.5" style="stroke:#181818;stroke-width:0.5;" width="90" x="87" y="163"/><text fill="#000000" font-family="sans-serif" font-size="14" lengthAdjust="spacing" textLength="70" x="97" y="187.6016">&#12467;&#12450;&#12523;&#12540;&#12523;</text></g><!--entity common--><g id="elem_common"><rect fill="#F1F1F1" height="38.3203" rx="2.5" ry="2.5" style="stroke:#181818;stroke-width:0.5;" width="90" x="86" y="283"/><text fill="#000000" font-family="sans-serif" font-size="14" lengthAdjust="spacing" textLength="70" x="96" y="307.6016">&#20849;&#36890;&#12523;&#12540;&#12523;</text></g><!--entity format--><g id="elem_format"><rect fill="#F1F1F1" height="38.3203" rx="2.5" ry="2.5" style="stroke:#181818;stroke-width:0.5;" width="104" x="76" y="403"/><text fill="#000000" font-family="sans-serif" font-size="14" lengthAdjust="spacing" textLength="84" x="86" y="427.6016">&#12501;&#12457;&#12540;&#12510;&#12483;&#12488;</text></g><!--entity match_reg--><g id="elem_match_reg"><rect fill="#F1F1F1" height="38.3203" rx="2.5" ry="2.5" style="stroke:#181818;stroke-width:0.5;" width="160" x="235" y="283"/><text fill="#000000" font-family="sans-serif" font-size="14" lengthAdjust="spacing" textLength="140" x="245" y="307.6016">&#23550;&#25126;&#12524;&#12462;&#12517;&#12524;&#12540;&#12471;&#12519;&#12531;</text></g><!--entity frame--><g id="elem_frame"><rect fill="#F1F1F1" height="38.3203" rx="2.5" ry="2.5" style="stroke:#181818;stroke-width:0.5;" width="76" x="243" y="403"/><text fill="#000000" font-family="sans-serif" font-size="14" lengthAdjust="spacing" textLength="56" x="253" y="427.6016">&#12501;&#12524;&#12540;&#12512;</text></g><!--entity options--><g id="elem_options"><rect fill="#F1F1F1" height="38.3203" rx="2.5" ry="2.5" style="stroke:#181818;stroke-width:0.5;" width="90" x="236" y="520"/><text fill="#000000" font-family="sans-serif" font-size="14" lengthAdjust="spacing" textLength="70" x="246" y="544.6016">&#12458;&#12503;&#12471;&#12519;&#12531;</text></g><!--entity ?????--><g id="elem_&#12523;&#12540;&#12523;&#25351;&#37341;"><rect fill="#F1F1F1" height="38.3203" rx="2.5" ry="2.5" style="stroke:#181818;stroke-width:0.5;" width="90" x="7" y="7"/><text fill="#000000" font-family="sans-serif" font-size="14" lengthAdjust="spacing" textLength="70" x="17" y="31.6016">&#12523;&#12540;&#12523;&#25351;&#37341;</text></g><g id="elem_GMN20"><path d="M465,280 L465,298 L395.12,302 L465,306 L465,324.0234 A0,0 0 0 0 465,324.0234 L681,324.0234 A0,0 0 0 0 681,324.0234 L681,290 L671,280 L465,280 A0,0 0 0 0 465,280 " fill="#FFFFFF" style="stroke:#181818;stroke-width:0.5;"/><path d="M671,280 L671,290 L681,290 L671,280 " fill="#FFFFFF" style="stroke:#181818;stroke-width:0.5;"/><text fill="#000000" font-family="sans-serif" font-size="13" lengthAdjust="spacing" textLength="156" x="471" y="298.5586">&#12503;&#12524;&#12452;&#12516;&#12540;&#12399;&#23550;&#25126;&#12377;&#12427;&#21069;&#12395;</text><text fill="#000000" font-family="sans-serif" font-size="13" lengthAdjust="spacing" textLength="195" x="471" y="315.5703">&#23550;&#25126;&#12524;&#12462;&#12517;&#12524;&#12540;&#12471;&#12519;&#12531;&#12434;&#36984;&#25246;&#12377;&#12427;</text></g><!--reverse link core to common--><g id="link_core_common"><path d="M131.6962,219.1793 C131.5062,241.4193 131.34,260.83 131.15,282.99 " fill="none" id="core-backto-common" style="stroke:#181818;stroke-width:1.0;"/><polygon fill="none" points="131.85,201.18,125.6964,219.1281,137.696,219.2306,131.85,201.18" style="stroke:#181818;stroke-width:1.0;"/><text fill="#000000" font-family="sans-serif" font-size="13" lengthAdjust="spacing" textLength="26" x="132" y="245.5586">&#32153;&#25215;</text></g><!--reverse link common to format--><g id="link_common_format"><path d="M130.0788,339.1741 C129.5088,361.4141 129.02,380.83 128.46,402.99 " fill="none" id="common-backto-format" style="stroke:#181818;stroke-width:1.0;"/><polygon fill="none" points="130.54,321.18,124.0808,339.0204,136.0769,339.3278,130.54,321.18" style="stroke:#181818;stroke-width:1.0;"/><text fill="#000000" font-family="sans-serif" font-size="13" lengthAdjust="spacing" textLength="26" x="130" y="368.5586">&#32153;&#25215;</text></g><!--reverse link match_reg to format--><g id="link_match_reg_format"><path d="M276.0419,327.5844 C240.8019,349.8244 191.65,380.83 156.53,402.99 " fill="none" id="match_reg-backto-format" style="stroke:#181818;stroke-width:1.0;"/><polygon fill="none" points="286.19,321.18,278.9812,320.9995,276.0419,327.5844,283.2508,327.7649,286.19,321.18" style="stroke:#181818;stroke-width:1.0;"/><text fill="#000000" font-family="sans-serif" font-size="13" lengthAdjust="spacing" textLength="26" x="233" y="368.5586">&#20869;&#21253;</text></g><!--reverse link match_reg to frame--><g id="link_match_reg_frame"><path d="M306.4366,332.7106 C300.0266,354.9506 292.57,380.83 286.19,402.99 " fill="none" id="match_reg-backto-frame" style="stroke:#181818;stroke-width:1.0;"/><polygon fill="none" points="309.76,321.18,304.2548,325.8375,306.4366,332.7106,311.9419,328.0531,309.76,321.18" style="stroke:#181818;stroke-width:1.0;"/><text fill="#000000" font-family="sans-serif" font-size="13" lengthAdjust="spacing" textLength="26" x="301" y="368.5586">&#20869;&#21253;</text></g><!--reverse link match_reg to options--><g id="link_match_reg_options"><path d="M329.5425,332.2491 C333.9325,341.7291 333.66,342.75 336,354 C343.89,391.86 344.45,403.05 337,441 C332.47,464.08 328.6,469.53 317,490 C311.15,500.33 303.37,510.98 296.54,519.61 " fill="none" id="match_reg-backto-options" style="stroke:#181818;stroke-width:1.0;"/><polygon fill="none" points="324.5,321.36,323.3916,328.4854,329.5425,332.2491,330.651,325.1237,324.5,321.36" style="stroke:#181818;stroke-width:1.0;"/><text fill="#000000" font-family="sans-serif" font-size="13" lengthAdjust="spacing" textLength="26" x="343" y="427.0586">&#20869;&#21253;</text></g><!--reverse link format to options--><g id="link_format_options"><path d="M157.0358,444.8256 C185.6858,466.3656 228.27,498.37 256.87,519.86 " fill="none" id="format-backto-options" style="stroke:#181818;stroke-width:1.0;stroke-dasharray:7.0,7.0;"/><polygon fill="#181818" points="152.24,441.22,157.0299,449.8256,156.2365,444.2247,161.8374,443.4312,152.24,441.22" style="stroke:#181818;stroke-width:1.0;"/><text fill="#000000" font-family="sans-serif" font-size="13" lengthAdjust="spacing" textLength="26" x="214" y="485.5586">&#20381;&#23384;</text></g><!--reverse link format to frame--><g id="link_format_frame"><path d="M186.23,422 C206.66,422 223.66,422 242.53,422 " fill="none" id="format-backto-frame" style="stroke:#181818;stroke-width:1.0;stroke-dasharray:7.0,7.0;"/><polygon fill="#181818" points="180.23,422,189.23,426,185.23,422,189.23,418,180.23,422" style="stroke:#181818;stroke-width:1.0;"/><text fill="#000000" font-family="sans-serif" font-size="13" lengthAdjust="spacing" textLength="26" x="198.5" y="414.5586">&#20381;&#23384;</text></g><!--reverse link frame to options--><g id="link_frame_options"><path d="M281,447.22 C281,468.76 281,498.37 281,519.86 " fill="none" id="frame-backto-options" style="stroke:#181818;stroke-width:1.0;stroke-dasharray:7.0,7.0;"/><polygon fill="#181818" points="281,441.22,277,450.22,281,446.22,285,450.22,281,441.22" style="stroke:#181818;stroke-width:1.0;"/><text fill="#000000" font-family="sans-serif" font-size="13" lengthAdjust="spacing" textLength="26" x="282" y="485.5586">&#20381;&#23384;</text></g><!--reverse link options to options--><g id="link_options_options"><path d="M332.2254,527.9843 C351.0454,527.2443 361,531.07 361,539 C361,546.93 345.05,550.52 326.23,549.78 " fill="none" id="options-backto-options" style="stroke:#181818;stroke-width:1.0;stroke-dasharray:7.0,7.0;"/><polygon fill="#181818" points="326.23,528.22,335.3802,531.8633,331.2261,528.0236,335.0659,523.8695,326.23,528.22" style="stroke:#181818;stroke-width:1.0;"/><text fill="#000000" font-family="sans-serif" font-size="13" lengthAdjust="spacing" textLength="26" x="367" y="544.0586">&#20381;&#23384;</text></g><!--link ????? to ???--><g id="link_&#12523;&#12540;&#12523;&#25351;&#37341;_&#12523;&#12540;&#12523;"><path d="M52,45.27 C52,55.31 52,68.6287 52,83.0044 C52,90.1922 52,97.6442 52,105.0827 C52,108.802 52,112.5179 52,116.1957 C52,116.6554 52,111.1145 52,111.573 " fill="none" id="&#12523;&#12540;&#12523;&#25351;&#37341;-to-&#12523;&#12540;&#12523;" style="stroke:#181818;stroke-width:1.0;"/><polygon fill="#181818" points="52,117.573,56,108.573,52,112.573,48,108.573,52,117.573" style="stroke:#181818;stroke-width:1.0;"/><text fill="#000000" font-family="sans-serif" font-size="13" lengthAdjust="spacing" textLength="39" x="53" y="89.5586">&#20855;&#20307;&#21270;</text></g><!--SRC=[VPBFIiD04CRl-nGB7Zob3o35Lv5GjscXoPPjG4G5iqjig_MYQAtG8k8Vj6gHWlLGwyDC4-bRcDsapJPK8OJi_BxvPYOxZ1HSqx4g18FeWnX7xx1LdzMx21MPQMlXFSHIBHy2lrqWRDPmWJAYAGB_VNPudL7ODdLq5t41_4a9UY04Y8QK5IcpJLUt6ap2nWE85-1l8ExbHvJ2Ho0UGGnbIgGlbBOOiJBciLBSA5ivpT88po3QIpQqwfQfKqFhMBTfgyft8A9dB6NLYhbB649oOfpVDunaCho1VpuwOVDR8XLGC9v7WujkCTLnSEG7BJzBrHty0PD-KnnrdYhokQJJYC-yp_2u5rrfN2oVosd9qqatUBrAsQBe7AZZofnvO2L41mXbbWeRncQwKR9nVpJzEWzQbmWvr2MObQsIYsbHcsDjfrHs2SfS17Y3P2-y3l2Je7aANX_zloh0p-8V4USWucnZMVKN]--></g></svg>