<?xml version="1.0" standalone="yes"?>

<svg version="1.1" viewBox="0.0 0.0 322.78740157480314 231.92125984251967" fill="none" stroke="none" stroke-linecap="square" stroke-miterlimit="10" xmlns="http://www.w3.org/2000/svg" xmlns:xlink="http://www.w3.org/1999/xlink"><clipPath id="p.0"><path d="m0 0l322.7874 0l0 231.92126l-322.7874 0l0 -231.92126z" clip-rule="nonzero"></path></clipPath><g clip-path="url(#p.0)"><path fill="#000000" fill-opacity="0.0" d="m0 0l322.7874 0l0 231.92126l-322.7874 0z" fill-rule="evenodd"></path><path fill="#000000" d="m11.931759 93.779526l19.840502 -22.29921l0 6.467659l185.16737 0l0 31.663101l-185.16737 0l0 6.4676666z" fill-rule="evenodd"></path><path stroke="#000000" stroke-width="1.0" stroke-linejoin="round" stroke-linecap="butt" d="m11.931759 93.779526l19.840502 -22.29921l0 6.467659l185.16737 0l0 31.663101l-185.16737 0l0 6.4676666z" fill-rule="evenodd"></path><path fill="#ffffff" d="m59.338047 94.20203q-0.375 5.015625 -4.46875 6.921875l-0.90625 -1.84375q3.546875 -1.734375 3.546875 -6.96875l0 -1.734375l-2.375 0l0 -1.84375l2.875 0l0 -2.625l1.734375 0q1.4375 0.28125 0.359375 1.0l0 1.625l4.812504 0l0 1.84375l-5.500004 0l0 1.78125l4.515625 0q-0.265625 5.890625 -0.78125 7.3125q-0.453125 1.28125 -2.3125 1.28125l-1.28125 0l-0.296875 -1.84375l1.328125 0q0.578125 0 0.75 -0.46875q0.234375 -0.703125 0.46875 -4.4375l-2.46875 0zm-3.609375 0.984375q0.625 3.828125 -2.015625 3.828125l-1.015625 0l-0.390625 -1.84375l1.03125 0q0.703125 0 0.546875 -1.515625q-0.109375 -1.1875 -1.265625 -3.359375l0.921875 -3.59375l-1.125 0l0 12.4375l-1.90625 0l0 -14.28125l3.625 0l0.1875 -0.375l1.65625 0.875q0.75 0.75 -0.140625 0.875l-1.328125 3.921875q1.015625 1.921875 1.21875 3.03125zm11.218754 -8.328125l6.28125 0l0 3.90625l-4.5625 0l0 0.984375q0 2.375 -1.796875 4.25l-1.171875 -1.546875q1.25 -1.046875 1.25 -2.890625l0 -4.703125zm11.765625 3.4375l2.078125 0l0 1.65625l-3.125 0l0 0.59375l2.5625 0l0 1.84375l-2.5625 0l0 1.4375l-1.90625 0l0 -1.4375l-2.25 0l0 -1.84375l2.25 0l0 -0.59375l-2.6875 0l0 -1.65625l1.671875 0l-0.390625 -1.09375l-0.96875 0l0 -1.65625l2.375 0l0 -1.625l1.53125 0q1.359375 0.171875 0.375 0.875l0 0.75l2.375 0l0 1.65625l-0.859375 0l-0.46875 1.09375zm-1.84375 0l0.421875 -1.09375l-1.140625 0l0.3125 1.09375l0.40625 0zm-5.359375 -1.78125l-2.84375 0l0 0.59375l2.84375 0l0 -0.59375zm1.71875 2.65625l0 4.03125l-3.125 0l0 0.625l-1.71875 0l0 -4.65625l4.84375 0zm-1.71875 1.65625l-1.40625 0l0 0.71875l1.40625 0l0 -0.71875zm0.875 3.15625l0 -1.0625l1.53125 0q1.359375 0.171875 0.375 0.875l0 0.1875l4.5 0l0 1.84375l-4.5 0l0 1.03125l6.125 0l0 1.84375l-14.15625 0l0 -1.84375l6.125 0l0 -1.03125l-4.5 0l0 -1.84375l4.5 0zm14.578125 -4.390625q0.015625 -0.109375 0.75 -0.109375q0.953125 0 1.546875 0.59375q0.453125 0.46875 0.5 1.15625q1.46875 -0.546875 4.171875 -1.390625l0.640625 2.171875q-2.78125 0.421875 -4.65625 1.140625l0 2.859375l-1.90625 0l0 -2.0625q-1.359375 0.625 -1.875 1.15625q-0.59375 0.59375 -0.59375 1.140625q0 0.234375 0.28125 0.515625q0.34375 0.34375 1.453125 0.34375l5.578125 0l0 1.84375l-5.640625 0q-2.140625 0 -3.046875 -0.90625q-0.71875 -0.71875 -0.71875 -1.796875q0 -1.140625 0.90625 -2.046875q1.296875 -1.296875 3.578125 -2.234375q-0.03125 -0.390625 -0.203125 -0.546875q-0.15625 -0.15625 -0.828125 -0.15625q-1.125 0 -3.828125 2.375l-1.578125 -1.578125q3.21875 -1.984375 3.984375 -3.5625q-1.1875 0.078125 -3.21875 0.21875l-0.375 -1.90625q2.625 -0.078125 4.421875 -0.1875q0.21875 -0.546875 0.734375 -2.59375l1.53125 0.40625q1.40625 0.5625 0.15625 1.0625q-0.203125 0.671875 -0.328125 1.0q1.71875 -0.140625 4.09375 -0.5l0.28125 1.984375q-2.78125 0.21875 -5.046875 0.390625q-0.546875 1.125 -0.765625 1.21875zm11.640625 -3.921875q1.359375 0.171875 0.375 0.875l0 2.875l3.03125 0l0 -5.0l1.53125 0q1.359375 0.171875 0.375 0.875l0 4.125l2.96875 0l0 -3.6875l1.53125 0q1.359375 0.171875 0.375 0.875l0 5.21875l-1.90625 0l0 -0.5625l-2.96875 0l0 4.71875l3.46875 0l0 -3.8125l1.53125 0q1.359375 0.171875 0.375 0.875l0 5.46875l-1.90625 0l0 -0.6875l-9.03125 0l0 0.875l-1.90625 0l0 -6.59375l1.53125 0q1.359375 0.171875 0.375 0.875l0 3.0l3.65625 0l0 -4.71875l-3.03125 0l0 0.6875l-1.90625 0l0 -6.28125l1.53125 0zm24.484375 9.40625q-2.984375 3.25 -6.25 3.25q-2.390625 0 -3.546875 -1.15625q-0.90625 -0.90625 -0.90625 -3.359375l0 -8.703125l1.671875 0q1.25 0.28125 0.421875 0.984375l0 7.71875q0 1.421875 0.46875 1.890625q0.59375 0.59375 1.828125 0.59375q2.296875 0 4.953125 -2.921875l1.359375 1.703125zm14.078117 -7.25q-2.515625 0 -3.71875 0.421875q-1.296875 0.46875 -2.4375 1.609375q-1.09375 1.09375 -1.09375 2.828125q0 1.359375 0.84375 2.203125q1.15625 1.15625 5.046875 1.296875l-0.75 2.03125q-4.046875 -0.203125 -5.578125 -1.734375q-1.5312424 -1.53125 -1.5312424 -3.734375q0 -3.109375 1.3749924 -4.109375q-1.6249924 0.25 -4.9843674 0.71875l-0.546875 -2.09375q6.4999924 -0.46875 12.999992 -1.578125l0.375 2.140625zm7.953125 6.234375q-0.6875 1.734375 -1.34375 2.515625q-0.96875 1.1875 -2.0 1.1875q-1.78125 0 -2.609375 -2.015625q-0.46875 -1.125 -0.46875 -4.6875q0 -2.515625 0.28125 -5.46875l1.6875 0.40625q1.5 0.359375 0.296875 1.125q-0.234375 2.140625 -0.234375 4.0q0 2.515625 0.296875 3.53125q0.25 0.828125 0.625 0.828125q0.484375 0 0.890625 -0.8125q0.3125 -0.609375 0.75 -1.875l1.828125 1.265625zm3.34375 -7.59375q3.0625 3.1875 3.75 7.78125l-2.328125 0.59375q-0.796875 -4.625 -3.328125 -7.296875l1.90625 -1.078125zm5.109375 5.09375q0 -0.828125 0.796875 -1.546875q4.03125 -3.78125 5.375 -6.0l1.4375 1.125q1.1875 1.3125 -0.375 1.09375q-0.84375 1.234375 -4.859375 5.0q-0.15625 0.15625 -0.15625 0.203125q0 0.203125 0.125 0.296875q3.53125 2.78125 5.875 5.46875l-1.59375 1.59375q-2.40625 -2.8125 -5.578125 -5.546875q-1.046875 -0.90625 -1.046875 -1.6875zm16.578125 -1.390625l5.796875 0l-0.65625 5.984375q-0.28125 2.546875 -2.140625 2.546875l-2.765625 0l-0.453125 -2.03125l3.09375 0q0.15625 0 0.234375 -0.65625l0.453125 -4.0l-3.859375 0q-0.78125 3.875 -5.734375 7.0l-1.265625 -1.890625q5.046875 -2.578125 5.34375 -7.703125l0.046875 -0.78125l-5.234375 0l0 -2.03125l6.125 0l0 -2.5l1.734375 0q1.4375 0.28125 0.359375 1.0l0 1.5l6.3125 0l0 2.03125l-7.21875 0l-0.171875 1.53125zm11.578125 -2.03125l0 10.5l-1.90625 0l0 -12.34375l4.546875 0l0.96875 -2.40625l1.875 0.703125q0.765625 0.765625 -0.1875 0.890625l-0.515625 0.8125l6.15625 0l0 11.078125q0 1.328125 -1.328125 1.328125l-2.109375 0l-0.1875 -2.03125l1.796875 0q0 0.078125 -0.078125 0.078125l0 -8.609375l-9.03125 0zm3.1875 3.1875l0 1.96875l2.65625 0l0 -1.96875l-2.65625 0zm2.65625 4.5625l0 -0.75l-2.65625 0l0 1.125l-1.90625 0l0 -6.78125l6.46875 0l0 6.40625l-1.90625 0z" fill-rule="nonzero"></path><path fill="#ffffff" d="m33.83727 34.897636l0 0c0 -3.3195057 2.6909943 -6.010498 6.010502 -6.010498l24.503937 0l0 0l45.771652 0l100.79003 0c1.5940857 0 3.122879 0.6332474 4.250061 1.7604351c1.127182 1.1271877 1.760437 2.655981 1.760437 4.250063l0 15.026249l0 0l0 9.015747l0 0c0 3.3195076 -2.6909943 6.010502 -6.010498 6.010502l-100.79003 0l-23.27153 7.666626l-22.500122 -7.666626l-24.503937 0l0 0c-3.3195076 0 -6.010502 -2.6909943 -6.010502 -6.010502l0 0l0 -9.015747l0 0z" fill-rule="evenodd"></path><path stroke="#000000" stroke-width="1.0" stroke-linejoin="round" stroke-linecap="butt" d="m33.83727 34.897636l0 0c0 -3.3195057 2.6909943 -6.010498 6.010502 -6.010498l24.503937 0l0 0l45.771652 0l100.79003 0c1.5940857 0 3.122879 0.6332474 4.250061 1.7604351c1.127182 1.1271877 1.760437 2.655981 1.760437 4.250063l0 15.026249l0 0l0 9.015747l0 0c0 3.3195076 -2.6909943 6.010502 -6.010498 6.010502l-100.79003 0l-23.27153 7.666626l-22.500122 -7.666626l-24.503937 0l0 0c-3.3195076 0 -6.010502 -2.6909943 -6.010502 -6.010502l0 0l0 -9.015747l0 0z" fill-rule="evenodd"></path><path fill="#000000" d="m57.036827 46.528633l-6.25 0l0 -1.375l12.8125 0l0 1.375l-5.125 0l0 0.8125q0 3.9375 -2.8125 6.5l-1.25 -0.9375q2.625 -2.0625 2.625 -5.5625l0 -0.8125zm-4.0 -3.8125l0 -1.375l7.6875 0l0 1.375l-7.6875 0zm8.5 -2.5625q0.8125 0.8125 1.75 2.1875l-0.875 0.625q-0.875 -1.25 -1.75 -2.25l0.875 -0.5625zm1.5 -0.8125q0.8125 0.875 1.75 2.125l-0.875 0.625q-1.0 -1.375 -1.75 -2.125l0.875 -0.625zm12.9375 5.8125q-0.4375 4.0625 -2.25 5.875q-1.8125 1.8125 -4.75 2.875l-0.8125 -1.1875q2.875 -0.9375 4.5 -2.5625q1.75 -1.75 2.0 -5.9375l1.3125 0.4375q0.5625 0.1875 0 0.5zm-5.3125 2.25q-0.75 -1.6875 -1.5 -2.8125l1.1875 -0.625q0.9375 1.1875 1.625 2.8125l-1.3125 0.625zm-3.1875 0.9375q-0.75 -1.75 -1.5625 -2.9375l1.25 -0.625q0.875 1.1875 1.5625 2.875l-1.25 0.6875zm24.0625 -0.4375l-5.8125 0.625l1.1875 5.0625l-1.375 0.3125l-1.1875 -5.1875l-6.375 0.75l-0.1875 -1.3125l6.25 -0.6875l-0.625 -2.9375l-4.25 0.5l-0.25 -1.3125l4.125 -0.4375l-0.625 -2.875l1.3125 -0.25q0.5625 -0.0625 0.1875 0.4375l0.5 2.5l4.5625 -0.625l0.25 1.3125l-4.4375 0.5625l0.625 2.9375l5.875 -0.6875l0.25 1.3125zm9.5625 3.125q1.125 0.9375 2.0625 2.125l-1.0 0.75q-0.9375 -1.3125 -1.9375 -2.25l0.875 -0.625zm-1.625 0.6875q0.5 0.4375 -0.125 0.4375q-0.875 1.125 -2.1875 2.0625l-0.8125 -0.9375q1.3125 -0.8125 2.3125 -2.25l0.8125 0.6875zm-2.625 -11.1875q-0.375 2.125 -0.875 3.5625q0.75 0 0.1875 0.375l0 9.6875l-1.25 0l0 -7.75q-0.5625 1.0625 -1.1875 1.6875l-0.8125 -1.125q2.1875 -2.6875 2.6875 -7.0625l1.4375 0.3125q0.25 0.25 -0.1875 0.3125zm1.75 9.8125l0 0.4375l-1.0625 0l0 -10.1875l4.5 0l0 10.1875l-1.0625 0l0 -0.4375l-2.375 0zm0 -1.1875l2.375 0l0 -1.75l-2.375 0l0 1.75zm0 -2.9375l2.375 0l0 -1.625l-2.375 0l0 1.625zm0 -2.8125l2.375 0l0 -1.625l-2.375 0l0 1.625zm5.8125 -1.5625q0.5 0.0625 0.0625 0.375l0 8.3125l-1.25 0l0 -8.6875l1.1875 0zm2.4375 -1.4375q0.5 0.0625 0.0625 0.375l0 12.25q0 1.0 -1.0 1.0l-1.375 0l-0.25 -1.1875l1.125 0q0.25 0 0.25 -0.25l0 -12.1875l1.1875 0zm12.1875 11.625q-2.9375 0 -4.875 -1.875l0.8125 -1.0625q1.6875 1.625 4.0625 1.5625l3.4375 0l0 1.375l-3.4375 0zm-8.9375 1.1875q-0.1875 -3.25 -0.1875 -5.5625q0 -2.8125 0.6875 -6.6875l1.25 0.3125q0.6875 0.125 0.0625 0.5625q-0.625 3.625 -0.625 5.8125q0 2.4375 0.25 5.4375l-1.4375 0.125zm11.5625 -9.25q-2.6875 -0.0625 -7.0 0.375l0 -1.3125q4.5 -0.4375 7.0 -0.375l0 1.3125zm3.625 -3.6875l4.0624924 0l0 1.1875l-4.0624924 0l0 -1.1875zm4.4374924 2.125l0 1.1875l-5.4374924 0l0 -1.1875l5.4374924 0zm-0.375 2.1875l0 1.1875l-4.0624924 0l0 -1.1875l4.0624924 0zm0 2.1875l0 1.1875l-4.0624924 0l0 -1.1875l4.0624924 0zm0.1875 2.25l0 4.9375l-1.0625 0l0 -0.5625l-2.4374924 0l0 0.75l-1.0625 0l0 -5.125l4.5624924 0zm-1.0625 1.0l-2.4374924 0l0 2.375l2.4374924 0l0 -2.375zm7.8125 -0.625l-4.0 0l0 2.875l4.0 0l0 -2.875zm-5.25 -1.1875l6.5 0l0 5.75l-1.25 0l0 -0.5l-4.0 0l0 0.625l-1.25 0l0 -5.875zm7.125 -2.75l0 1.1875l-7.625 0l0 -1.1875l3.0 0l0 -2.0625l-3.1875 0l0 -1.1875l3.1875 0l0 -2.4375l1.1875 0q0.5 0.0625 0.0625 0.375l0 2.0625l3.8125 0l0 1.1875l-3.8125 0l0 2.0625l3.375 0zm10.5 -2.4375q2.3125 0.125 3.6875 1.5q1.375 1.375 1.375 3.6875q0 2.125 -1.25 3.375q-1.125 1.125 -3.125 1.8125l-0.8125 -1.1875q2.0625 -0.6875 2.9375 -1.5625q0.9375 -0.9375 0.9375 -2.5q0 -1.75 -0.9375 -2.6875q-1.1875 -1.1875 -3.0625 -1.3125q-0.6875 2.625 -2.0625 5.375l1.1875 1.375l-1.0 0.75l-0.875 -1.0q-0.5 0.8125 -1.0625 1.375q-0.8125 0.8125 -1.625 0.8125q-0.875 0 -1.625 -0.75q-0.8125 -0.8125 -0.8125 -2.3125q0 -2.25 2.4375 -4.75q-0.4375 -1.875 -0.625 -3.5625l1.1875 0q0.5625 0.125 0.125 0.5q0.125 1.375 0.375 2.3125q1.625 -1.0 3.3125 -1.25q0.25 -0.9375 0.5 -2.8125l1.25 0.3125q0.625 0.25 0 0.5l-0.4375 2.0zm-3.875 6.625q-0.8125 -1.3125 -1.4375 -3.25q-1.5625 1.875 -1.5625 3.5q0 0.875 0.5 1.375q0.3125 0.3125 0.6875 0.3125q0.3125 0 0.75 -0.4375q0.375 -0.375 1.0625 -1.5zm2.3125 -5.375q-1.5 0.25 -2.75 1.25q0.625 2.125 1.1875 2.9375q1.0625 -2.0625 1.5625 -4.1875zm21.500015 -1.3125q-2.1875 0 -3.4375 0.4375q-1.375 0.5 -2.5625153 1.6875q-1.1875 1.1875 -1.1875 3.0625q0 1.5 0.9375 2.4375q1.2500153 1.25 4.8125153 1.375l-0.5 1.375q-3.6875153 -0.1875 -5.1250153 -1.625q-1.4375 -1.4375 -1.4375 -3.5q0 -2.9375 2.3125 -4.625q-2.9375 0.4375 -6.0 0.875l-0.375 -1.4375q6.125 -0.4375 12.312515 -1.5l0.25 1.4375zm4.5 -1.5q0.5 0.0625 0.0625 0.375l0 3.375l3.6875 0l0 -5.0l1.1875 0q0.5 0.0625 0.0625 0.375l0 4.625l3.625 0l0 -3.6875l1.1875 0q0.5 0.0625 0.0625 0.375l0 5.0625l-1.25 0l0 -0.5625l-3.625 0l0 5.375l4.125 0l0 -3.8125l1.1875 0q0.5 0.0625 0.0625 0.375l0 5.3125l-1.25 0l0 -0.6875l-9.6875 0l0 0.875l-1.25 0l0 -5.9375l1.1875 0q0.5 0.0625 0.0625 0.375l0 3.5l4.3125 0l0 -5.375l-3.6875 0l0 0.6875l-1.25 0l0 -5.625l1.1875 0zm20.125 8.0625q-0.75 0.4375 -1.5625 0.4375q-1.0625 0 -1.625 -0.5625q-0.75 -0.75 -0.75 -1.6875q0 -1.0 0.75 -1.75q0.75 -0.75 1.875 -0.75q0.75 0 1.4375 0.1875l0 -1.375l-6.875 0.4375l-0.25 -1.3125l7.125 -0.3125l0 -2.9375l1.125 0q0.6875 0.125 0.125 0.5l0 2.375l5.3125 -0.375l0 1.3125l-5.3125 0.25l0 2.375q0.25 1.125 0.25 2.5q-0.0625 3.1875 -3.5625 5.375l-1.1875 -0.875q3.125 -1.8125 3.125 -3.8125zm-1.1875 -3.25q-0.6875 0 -1.125 0.4375q-0.375 0.375 -0.375 1.0q0 0.5625 0.3125 0.875q0.3125 0.3125 1.0 0.3125q0.6875 0 1.125 -0.4375q0.375 -0.375 0.375 -0.9375q0 -0.5625 -0.375 -0.9375q-0.3125 -0.3125 -0.9375 -0.3125z" fill-rule="nonzero"></path><path fill="#ffffff" d="m223.4042 16.99607l0 0c0 -2.7896948 2.2614899 -5.0511894 5.051178 -5.0511894l72.07086 0c1.3396606 0 2.6244507 0.5321779 3.5717163 1.4794588c0.94729614 0.94728184 1.4794617 2.2320719 1.4794617 3.5717306l0 91.881874c0 2.7896957 -2.2614746 5.0511856 -5.051178 5.0511856l-72.07086 0c-2.789688 0 -5.051178 -2.2614899 -5.051178 -5.0511856z" fill-rule="evenodd"></path><path stroke="#000000" stroke-width="1.0" stroke-linejoin="round" stroke-linecap="butt" d="m223.4042 16.99607l0 0c0 -2.7896948 2.2614899 -5.0511894 5.051178 -5.0511894l72.07086 0c1.3396606 0 2.6244507 0.5321779 3.5717163 1.4794588c0.94729614 0.94728184 1.4794617 2.2320719 1.4794617 3.5717306l0 91.881874c0 2.7896957 -2.2614746 5.0511856 -5.051178 5.0511856l-72.07086 0c-2.789688 0 -5.051178 -2.2614899 -5.051178 -5.0511856z" fill-rule="evenodd"></path><path fill="#000000" d="m247.78769 62.43513l-7.421875 0l0 -1.640625l15.21875 0l0 1.640625l-6.078125 0l0 0.96875q0 4.671879 -3.34375 7.718754l-1.484375 -1.109375q3.109375 -2.453125 3.109375 -6.609379l0 -0.96875zm-4.75 -4.53125l0 -1.625l9.140625 0l0 1.625l-9.140625 0zm10.09375 -3.046875q0.96875 0.96875 2.078125 2.609375l-1.03125 0.734375q-1.046875 -1.484375 -2.078125 -2.671875l1.03125 -0.671875zm1.78125 -0.953125q0.96875 1.03125 2.078125 2.515625l-1.03125 0.75q-1.1875 -1.640625 -2.078125 -2.53125l1.03125 -0.734375zm15.3671875 6.890625q-0.515625 4.828129 -2.671875 6.984379q-2.15625 2.15625 -5.640625 3.421875l-0.96875 -1.421875q3.421875 -1.109375 5.34375 -3.046875q2.078125 -2.078125 2.375 -7.046879l1.5625 0.515625q0.671875 0.234375 0 0.59375zm-6.3125 2.671875q-0.890625 -2.0 -1.78125 -3.328125l1.421875 -0.75q1.109375 1.40625 1.921875 3.34375l-1.5625 0.734375zm-3.78125 1.1250038q-0.890625 -2.0781288 -1.859375 -3.5000038l1.484375 -0.734375q1.046875 1.40625 1.859375 3.40625l-1.484375 0.8281288zm28.578125 -0.53125l-6.90625 0.75l1.40625 6.015625l-1.625 0.375l-1.40625 -6.171875l-7.578125 0.890625l-0.21875 -1.5625l7.421875 -0.8125038l-0.75 -3.484375l-5.046875 0.59375l-0.296875 -1.5625l4.90625 -0.515625l-0.75 -3.421875l1.5625 -0.296875q0.671875 -0.0625 0.21875 0.53125l0.59375 2.96875l5.421875 -0.75l0.296875 1.5625l-5.265625 0.671875l0.734375 3.484375l6.984375 -0.8125l0.296875 1.5468788z" fill-rule="nonzero"></path><path fill="#ffffff" d="m223.4042 123.397644l0 0c0 -2.7896957 2.2614899 -5.0511856 5.051178 -5.0511856l72.07086 0c1.3396606 0 2.6244507 0.53217316 3.5717163 1.479454c0.94729614 0.9472809 1.4794617 2.232071 1.4794617 3.5717316l0 91.88188c0 2.789688 -2.2614746 5.051178 -5.051178 5.051178l-72.07086 0c-2.789688 0 -5.051178 -2.2614899 -5.051178 -5.051178z" fill-rule="evenodd"></path><path stroke="#000000" stroke-width="1.0" stroke-linejoin="round" stroke-linecap="butt" d="m223.4042 123.397644l0 0c0 -2.7896957 2.2614899 -5.0511856 5.051178 -5.0511856l72.07086 0c1.3396606 0 2.6244507 0.53217316 3.5717163 1.479454c0.94729614 0.9472809 1.4794617 2.232071 1.4794617 3.5717316l0 91.88188c0 2.789688 -2.2614746 5.051178 -5.051178 5.051178l-72.07086 0c-2.789688 0 -5.051178 -2.2614899 -5.051178 -5.051178z" fill-rule="evenodd"></path><path fill="#000000" d="m263.00644 175.5867q-3.109375 -0.59375 -5.859375 -3.703125l-4.3125 0q-1.625 2.296875 -5.78125 4.15625l-0.671875 -1.484375q2.75 -0.890625 4.609375 -2.671875l-4.015625 0l0 -1.1875l4.90625 0l0.59375 -0.890625l-2.96875 0l0 -5.046875l2.140625 0l0 -1.34375l-4.75 0l0 -1.1875l4.75 0l0 -1.40625l1.1875 0q0.59375 0.078125 0.078125 0.4375l0 0.96875l4.015625 0l0 -1.40625l1.1875 0q0.59375 0.078125 0.0625 0.4375l0 0.96875l4.75 0l0 1.1875l-4.75 0l0 1.34375l2.15625 0l0 5.046875l-6.234375 0l-0.59375 0.890625l9.5 0l0 1.1875l-3.9375 0q1.265625 1.484375 4.390625 2.296875l-0.453125 1.40625zm-4.375 -1.859375l0 1.1875l-3.046875 0l0 1.421875l6.390625 0l0 1.1875l-14.03125 0l0 -1.1875l6.375 0l0 -1.421875l-3.03125 0l0 -1.1875l3.03125 0l0 -1.484375l1.1875 0q0.59375 0.078125 0.078125 0.453125l0 1.03125l3.046875 0zm-5.71875 -10.3125l0 1.34375l4.015625 0l0 -1.34375l-4.015625 0zm-2.15625 4.3125l0 1.1875l8.3125 0l0 -1.1875l-8.3125 0zm0 -2.078125l0 1.1875l8.3125 0l0 -1.1875l-8.3125 0zm20.71875 8.15625l-4.984375 1.78125q-0.0625 0.515625 -0.359375 0.21875l-0.59375 -1.703125l2.296875 -0.671875l0 -6.0l-2.15625 0l0 -1.421875l2.15625 0l0 -4.15625l1.40625 0q0.59375 0.078125 0.078125 0.453125l0 3.703125l1.921875 0l0 1.421875l-1.921875 0l0 5.640625l2.15625 -0.75l0 1.484375zm8.15625 2.15625q0.75 0 0.96875 -0.75l0.4375 -1.546875l1.640625 0.515625l-0.375 1.40625q-0.4375 1.78125 -2.15625 1.78125l-6.15625 0q-1.328125 0 -1.328125 -1.265625l0 -7.046875l-1.9375 0.75l-0.4375 -1.484375l2.375 -0.828125l0 -4.21875l1.40625 0q0.59375 0.0625 0.078125 0.4375l0 3.265625l1.78125 -0.671875l0 -5.046875l1.40625 0q0.59375 0.078125 0.078125 0.453125l0 4.078125l2.515625 -0.96875l0.15625 -0.296875l1.546875 1.046875l-0.296875 0.21875l0 5.640625q0 1.1875 -1.1875 1.1875l-1.484375 0l-0.359375 -1.40625l1.25 0q0.296875 0 0.296875 -0.296875l0 -4.453125l-2.4375 0.890625l0 6.375l-1.484375 0l0 -5.859375l-1.78125 0.671875l0 6.828125q0 0.59375 0.515625 0.59375l4.96875 0z" fill-rule="nonzero"></path><path fill="#ffffff" d="m134.7664 123.397644l0 0c0 -2.7896957 2.2614899 -5.0511856 5.051193 -5.0511856l72.07085 0c1.3396606 0 2.6244507 0.53217316 3.5717316 1.479454c0.9472809 0.9472809 1.4794617 2.232071 1.4794617 3.5717316l0 91.88188c0 2.789688 -2.2615051 5.051178 -5.051193 5.051178l-72.07085 0c-2.7897034 0 -5.051193 -2.2614899 -5.051193 -5.051178z" fill-rule="evenodd"></path><path stroke="#000000" stroke-width="1.0" stroke-linejoin="round" stroke-linecap="butt" d="m134.7664 123.397644l0 0c0 -2.7896957 2.2614899 -5.0511856 5.051193 -5.0511856l72.07085 0c1.3396606 0 2.6244507 0.53217316 3.5717316 1.479454c0.9472809 0.9472809 1.4794617 2.232071 1.4794617 3.5717316l0 91.88188c0 2.789688 -2.2615051 5.051178 -5.051193 5.051178l-72.07085 0c-2.7897034 0 -5.051193 -2.2614899 -5.051193 -5.051178z" fill-rule="evenodd"></path><path fill="#000000" d="m168.35301 158.80545q-0.4375 6.078125 -4.75 8.09375l-0.734375 -1.484375q4.078125 -2.015625 4.078125 -8.46875l0 -2.453125l-2.8125 0l0 -1.40625l3.40625 0l0 -3.125l1.640625 0q0.734375 0.15625 0.0625 0.59375l0 2.53125l5.71875 0l0 1.40625l-6.53125 0l0 2.890625l5.34375 0q-0.296875 6.53125 -0.890625 8.171875q-0.4375 1.265625 -2.375 1.265625l-1.1875 0l-0.21875 -1.40625l1.109375 0q0.96875 0 1.265625 -0.828125q0.296875 -0.890625 0.59375 -5.78125l-3.71875 0zm-4.296875 1.625q0.671875 4.078125 -2.0 4.078125l-0.890625 0l-0.296875 -1.40625l0.734375 0q1.265625 0 1.046875 -2.21875q-0.15625 -1.484375 -1.484375 -4.015625l1.1875 -4.59375l-2.234375 0l0 14.765625l-1.484375 0l0 -16.1875l4.15625 0l0.15625 -0.296875l1.546875 0.828125q0.296875 0.296875 -0.21875 0.359375l-1.703125 5.046875q1.265625 2.375 1.484375 3.640625zm14.09375 -9.578125l6.6875 0l0 3.859375l-5.421875 0l0 1.5625q0 2.671875 -1.703125 4.453125l-0.890625 -1.1875q1.328125 -1.109375 1.328125 -3.484375l0 -5.203125zm13.0 4.09375l2.671875 0l0 1.1875l-3.71875 0l0 1.484375l3.046875 0l0 1.40625l-3.046875 0l0 1.703125l-1.484375 0l0 -1.703125l-2.671875 0l0 -1.40625l2.671875 0l0 -1.484375l-3.1875 0l0 -1.1875l2.15625 0l-0.75 -2.078125l-1.03125 0l0 -1.1875l2.8125 0l0 -1.9375l1.40625 0q0.59375 0.078125 0.078125 0.453125l0 1.484375l2.828125 0l0 1.1875l-0.890625 0l-0.890625 2.078125zm-1.34375 0l0.8125 -2.078125l-2.4375 0l0.59375 2.078125l1.03125 0zm-6.234375 -2.90625l-4.15625 0l0 1.484375l4.15625 0l0 -1.484375zm1.265625 3.9375l0 4.015625l-3.71875 0l0 0.734375l-1.25 0l0 -4.75l4.96875 0zm-1.265625 1.1875l-2.453125 0l0 1.640625l2.453125 0l0 -1.640625zm1.046875 4.53125l0 -1.265625l1.40625 0q0.59375 0.078125 0.078125 0.453125l0 0.8125l5.34375 0l0 1.40625l-5.34375 0l0 2.0l7.265625 0l0 1.421875l-16.03125 0l0 -1.421875l7.28125 0l0 -2.0l-5.34375 0l0 -1.40625l5.34375 0z" fill-rule="nonzero"></path><path fill="#000000" d="m182.38426 173.97733q2.671875 2.671875 2.671875 6.453125q0 3.78125 -2.671875 6.453125q-2.671875 2.671875 -6.453125 2.671875q-3.78125 0 -6.453125 -2.671875q-2.671875 -2.671875 -2.671875 -6.453125q0 -3.78125 2.671875 -6.453125q2.671875 -2.671875 6.453125 -2.671875q3.78125 0 6.453125 2.671875zm-0.515625 12.390625q2.453125 -2.453125 2.453125 -5.9375q0 -3.484375 -2.453125 -5.9375q-2.453125 -2.453125 -5.9375 -2.453125q-3.484375 0 -5.9375 2.453125q-2.453125 2.453125 -2.453125 5.9375q0 3.484375 2.453125 5.9375q2.453125 2.453125 5.9375 2.453125q3.484375 0 5.9375 -2.453125zm-4.828125 -12.390625l0 12.6875l-1.703125 0l0 -9.953125l-2.890625 0l0 -1.1875q2.734375 0.15625 3.484375 -1.546875l1.109375 0z" fill-rule="nonzero"></path><path fill="#ffffff" d="m46.12861 123.397644l0 0c0 -2.7896957 2.2614937 -5.0511856 5.0511894 -5.0511856l72.07085 0c1.3396606 0 2.6244507 0.53217316 3.5717316 1.479454c0.9472809 0.9472809 1.479454 2.232071 1.479454 3.5717316l0 91.88188c0 2.789688 -2.2614899 5.051178 -5.0511856 5.051178l-72.07085 0c-2.7896957 0 -5.0511894 -2.2614899 -5.0511894 -5.051178z" fill-rule="evenodd"></path><path stroke="#000000" stroke-width="1.0" stroke-linejoin="round" stroke-linecap="butt" d="m46.12861 123.397644l0 0c0 -2.7896957 2.2614937 -5.0511856 5.0511894 -5.0511856l72.07085 0c1.3396606 0 2.6244507 0.53217316 3.5717316 1.479454c0.9472809 0.9472809 1.479454 2.232071 1.479454 3.5717316l0 91.88188c0 2.789688 -2.2614899 5.051178 -5.0511856 5.051178l-72.07085 0c-2.7896957 0 -5.0511894 -2.2614899 -5.0511894 -5.051178z" fill-rule="evenodd"></path><path fill="#000000" d="m79.715225 158.80545q-0.4375 6.078125 -4.75 8.09375l-0.734375 -1.484375q4.078125 -2.015625 4.078125 -8.46875l0 -2.453125l-2.8125 0l0 -1.40625l3.40625 0l0 -3.125l1.640625 0q0.734375 0.15625 0.0625 0.59375l0 2.53125l5.71875 0l0 1.40625l-6.53125 0l0 2.890625l5.34375 0q-0.296875 6.53125 -0.890625 8.171875q-0.4375 1.265625 -2.375 1.265625l-1.1875 0l-0.21875 -1.40625l1.109375 0q0.96875 0 1.265625 -0.828125q0.296875 -0.890625 0.59375 -5.78125l-3.71875 0zm-4.296875 1.625q0.671875 4.078125 -2.0 4.078125l-0.890625 0l-0.296875 -1.40625l0.734375 0q1.265625 0 1.046875 -2.21875q-0.15625 -1.484375 -1.484375 -4.015625l1.1875 -4.59375l-2.234375 0l0 14.765625l-1.484375 0l0 -16.1875l4.15625 0l0.15625 -0.296875l1.546875 0.828125q0.296875 0.296875 -0.21875 0.359375l-1.703125 5.046875q1.265625 2.375 1.484375 3.640625zm14.09375 -9.578125l6.6875 0l0 3.859375l-5.421875 0l0 1.5625q0 2.671875 -1.703125 4.453125l-0.890625 -1.1875q1.328125 -1.109375 1.328125 -3.484375l0 -5.203125zm13.0 4.09375l2.671875 0l0 1.1875l-3.71875 0l0 1.484375l3.046875 0l0 1.40625l-3.046875 0l0 1.703125l-1.484375 0l0 -1.703125l-2.671875 0l0 -1.40625l2.671875 0l0 -1.484375l-3.1875 0l0 -1.1875l2.15625 0l-0.75 -2.078125l-1.03125 0l0 -1.1875l2.8125 0l0 -1.9375l1.40625 0q0.59375 0.078125 0.078125 0.453125l0 1.484375l2.828125 0l0 1.1875l-0.890625 0l-0.890625 2.078125zm-1.34375 0l0.8125 -2.078125l-2.4375 0l0.59375 2.078125l1.03125 0zm-6.234375 -2.90625l-4.15625 0l0 1.484375l4.15625 0l0 -1.484375zm1.265625 3.9375l0 4.015625l-3.71875 0l0 0.734375l-1.25 0l0 -4.75l4.96875 0zm-1.265625 1.1875l-2.453125 0l0 1.640625l2.453125 0l0 -1.640625zm1.046875 4.53125l0 -1.265625l1.40625 0q0.59375 0.078125 0.078125 0.453125l0 0.8125l5.34375 0l0 1.40625l-5.34375 0l0 2.0l7.265625 0l0 1.421875l-16.03125 0l0 -1.421875l7.28125 0l0 -2.0l-5.34375 0l0 -1.40625l5.34375 0z" fill-rule="nonzero"></path><path fill="#000000" d="m91.152725 177.53983q0 1.484375 -1.046875 2.671875q-0.890625 0.8125 -2.296875 1.84375q-2.515625 1.859375 -2.890625 2.96875l6.609375 0l0 1.640625l-8.546875 0l0 -1.484375q0.75 -1.78125 2.671875 -3.34375q2.078125 -1.625 2.90625 -2.453125q0.8125 -0.734375 0.8125 -1.84375q0 -0.96875 -0.671875 -1.640625q-0.4375 -0.4375 -1.484375 -0.4375q-1.03125 0 -1.484375 0.4375q-0.671875 0.671875 -0.515625 1.859375l-1.859375 0q-0.078125 -1.78125 0.96875 -2.828125q1.109375 -1.109375 2.890625 -1.109375q1.78125 0 2.828125 1.046875q1.109375 1.109375 1.109375 2.671875zm2.59375 -3.5625q2.671875 2.671875 2.671875 6.453125q0 3.78125 -2.671875 6.453125q-2.671875 2.671875 -6.453125 2.671875q-3.78125 0 -6.453125 -2.671875q-2.671875 -2.671875 -2.671875 -6.453125q0 -3.78125 2.671875 -6.453125q2.671875 -2.671875 6.453125 -2.671875q3.78125 0 6.453125 2.671875zm-0.515625 12.390625q2.453125 -2.453125 2.453125 -5.9375q0 -3.484375 -2.453125 -5.9375q-2.453125 -2.453125 -5.9375 -2.453125q-3.484375 0 -5.9375 2.453125q-2.453125 2.453125 -2.453125 5.9375q0 3.484375 2.453125 5.9375q2.453125 2.453125 5.9375 2.453125q3.484375 0 5.9375 -2.453125z" fill-rule="nonzero"></path></g></svg>

