<?xml version="1.0" encoding="UTF-8" standalone="no"?><svg xmlns="http://www.w3.org/2000/svg" xmlns:xlink="http://www.w3.org/1999/xlink" contentScriptType="application/ecmascript" contentStyleType="text/css" height="1014px" preserveAspectRatio="none" style="width:654px;height:1014px;" version="1.1" viewBox="0 0 654 1014" width="654px" zoomAndPan="magnify"><defs><filter height="300%" id="f1uvtoe0adxtft" width="300%" x="-1" y="-1"><feGaussianBlur result="blurOut" stdDeviation="2.0"/><feColorMatrix in="blurOut" result="blurOut2" type="matrix" values="0 0 0 0 0 0 0 0 0 0 0 0 0 0 0 0 0 0 .4 0"/><feOffset dx="4.0" dy="4.0" in="blurOut2" result="blurOut3"/><feBlend in="SourceGraphic" in2="blurOut3" mode="normal"/></filter></defs><g><ellipse cx="421" cy="20" fill="#000000" filter="url(#f1uvtoe0adxtft)" rx="10" ry="10" style="stroke: none; stroke-width: 1.0;"/><rect fill="#FEFECE" filter="url(#f1uvtoe0adxtft)" height="35.7031" rx="12.5" ry="12.5" style="stroke: #A80036; stroke-width: 1.5;" width="377" x="232.5" y="50"/><text fill="#000000" font-family="sans-serif" font-size="12" lengthAdjust="spacingAndGlyphs" textLength="357" x="242.5" y="72.5156">[10-1]誘発したアクションをプレイヤー毎に誘発リストにまとめる</text><rect fill="#FFFFFF" filter="url(#f1uvtoe0adxtft)" height="499.2656" style="stroke: #000000; stroke-width: 2.0;" width="565" x="48" y="168.0977"/><path d="M272,169.0977 L272,179.418 L262,189.418 L48,189.418 " fill="none" style="stroke: #000000; stroke-width: 2.0;"/><text fill="#000000" font-family="sans-serif" font-size="14" lengthAdjust="spacingAndGlyphs" textLength="214" x="51" y="183.6992">即時効果:プレイヤー単位に繰返し</text><path d="M63,415.3789 L63,459.4023 L253,459.4023 L253,425.3789 L243,415.3789 L63,415.3789 " fill="#FBFB77" filter="url(#f1uvtoe0adxtft)" style="stroke: #A80036; stroke-width: 1.0;"/><path d="M243,415.3789 L243,425.3789 L253,425.3789 L243,415.3789 " fill="#FBFB77" style="stroke: #A80036; stroke-width: 1.0;"/><text fill="#000000" font-family="sans-serif" font-size="13" lengthAdjust="spacingAndGlyphs" textLength="169" x="69" y="433.9375">順番はターンプレイヤーから</text><text fill="#000000" font-family="sans-serif" font-size="13" lengthAdjust="spacingAndGlyphs" textLength="130" x="69" y="450.9492">ターンが回る順に行う</text><rect fill="#FFFFFF" filter="url(#f1uvtoe0adxtft)" height="343.5391" style="stroke: #000000; stroke-width: 2.0;" width="272" x="297" y="267.8242"/><path d="M521,268.8242 L521,279.1445 L511,289.1445 L297,289.1445 " fill="none" style="stroke: #000000; stroke-width: 2.0;"/><text fill="#000000" font-family="sans-serif" font-size="14" lengthAdjust="spacingAndGlyphs" textLength="214" x="300" y="283.4258">即時効果:アクション単位に繰返し</text><rect fill="#FEFECE" filter="url(#f1uvtoe0adxtft)" height="35.7031" rx="12.5" ry="12.5" style="stroke: #A80036; stroke-width: 1.5;" width="209" x="316.5" y="377.5508"/><text fill="#000000" font-family="sans-serif" font-size="12" lengthAdjust="spacingAndGlyphs" textLength="189" x="326.5" y="400.0664">[10-5]即時効果のアクションを解決</text><rect fill="#FEFECE" filter="url(#f1uvtoe0adxtft)" height="35.7031" rx="12.5" ry="12.5" style="stroke: #A80036; stroke-width: 1.5;" width="101" x="370.5" y="448.2539"/><text fill="#000000" font-family="sans-serif" font-size="12" lengthAdjust="spacingAndGlyphs" textLength="81" x="380.5" y="470.7695">[10-6]勝敗判定</text><rect fill="#FEFECE" filter="url(#f1uvtoe0adxtft)" height="51.4063" rx="12.5" ry="12.5" style="stroke: #A80036; stroke-width: 1.5;" width="200" x="321" y="503.957"/><text fill="#000000" font-family="sans-serif" font-size="12" lengthAdjust="spacingAndGlyphs" textLength="153" x="331" y="526.4727">[10-7]誘発したアクションを</text><text fill="#000000" font-family="sans-serif" font-size="12" lengthAdjust="spacingAndGlyphs" textLength="180" x="331" y="542.1758">プレイヤー毎の誘発リストに追加</text><rect fill="#FEFECE" filter="url(#f1uvtoe0adxtft)" height="51.4063" rx="12.5" ry="12.5" style="stroke: #A80036; stroke-width: 1.5;" width="197" x="322.5" y="306.1445"/><text fill="#000000" font-family="sans-serif" font-size="12" lengthAdjust="spacingAndGlyphs" textLength="177" x="332.5" y="328.6602">[10-4]誘発リストから即時効果の</text><text fill="#000000" font-family="sans-serif" font-size="12" lengthAdjust="spacingAndGlyphs" textLength="139" x="332.5" y="344.3633">アクションを1つ取り出す</text><polygon fill="#FEFECE" filter="url(#f1uvtoe0adxtft)" points="319,575.3633,523,575.3633,535,587.3633,523,599.3633,319,599.3633,307,587.3633,319,575.3633" style="stroke: #A80036; stroke-width: 1.5;"/><text fill="#000000" font-family="sans-serif" font-size="11" lengthAdjust="spacingAndGlyphs" textLength="204" x="319" y="591.6387">[10-8]未解決の即時効果があれば繰り返す</text><text fill="#000000" font-family="sans-serif" font-size="11" lengthAdjust="spacingAndGlyphs" textLength="18" x="535" y="584.4414">YES</text><rect fill="#FEFECE" filter="url(#f1uvtoe0adxtft)" height="51.4063" rx="12.5" ry="12.5" style="stroke: #A80036; stroke-width: 1.5;" width="197" x="322.5" y="206.418"/><text fill="#000000" font-family="sans-serif" font-size="12" lengthAdjust="spacingAndGlyphs" textLength="177" x="332.5" y="228.9336">[10-3]プレイヤー毎に誘発リスト</text><text fill="#000000" font-family="sans-serif" font-size="12" lengthAdjust="spacingAndGlyphs" textLength="168" x="332.5" y="244.6367">の即時効果のアクションを解決</text><polygon fill="#FEFECE" filter="url(#f1uvtoe0adxtft)" points="275,631.3633,567,631.3633,579,643.3633,567,655.3633,275,655.3633,263,643.3633,275,631.3633" style="stroke: #A80036; stroke-width: 1.5;"/><text fill="#000000" font-family="sans-serif" font-size="11" lengthAdjust="spacingAndGlyphs" textLength="292" x="275" y="647.6387">[10-9]誘発リストに即時効果のアクションがあれば繰り返す</text><text fill="#000000" font-family="sans-serif" font-size="11" lengthAdjust="spacingAndGlyphs" textLength="18" x="579" y="640.4414">YES</text><rect fill="#FFFFFF" filter="url(#f1uvtoe0adxtft)" height="303.5391" style="stroke: #000000; stroke-width: 2.0;" width="571" x="45" y="677.3633"/><path d="M269,678.3633 L269,688.6836 L259,698.6836 L45,698.6836 " fill="none" style="stroke: #000000; stroke-width: 2.0;"/><text fill="#000000" font-family="sans-serif" font-size="14" lengthAdjust="spacingAndGlyphs" textLength="214" x="48" y="692.9648">通常効果:プレイヤー単位に繰返し</text><path d="M60,820.2813 L60,864.3047 L250,864.3047 L250,830.2813 L240,820.2813 L60,820.2813 " fill="#FBFB77" filter="url(#f1uvtoe0adxtft)" style="stroke: #A80036; stroke-width: 1.0;"/><path d="M240,820.2813 L240,830.2813 L250,830.2813 L240,820.2813 " fill="#FBFB77" style="stroke: #A80036; stroke-width: 1.0;"/><text fill="#000000" font-family="sans-serif" font-size="13" lengthAdjust="spacingAndGlyphs" textLength="169" x="66" y="838.8398">順番はターンプレイヤーから</text><text fill="#000000" font-family="sans-serif" font-size="13" lengthAdjust="spacingAndGlyphs" textLength="130" x="66" y="855.8516">ターンが回る順に行う</text><rect fill="#FEFECE" filter="url(#f1uvtoe0adxtft)" height="51.4063" rx="12.5" ry="12.5" style="stroke: #A80036; stroke-width: 1.5;" width="192" x="325" y="787.0898"/><text fill="#000000" font-family="sans-serif" font-size="12" lengthAdjust="spacingAndGlyphs" textLength="172" x="335" y="809.6055">[10-11]通常効果のアクションを</text><text fill="#000000" font-family="sans-serif" font-size="12" lengthAdjust="spacingAndGlyphs" textLength="144" x="335" y="825.3086">任意の順でステージに追加</text><rect fill="#FEFECE" filter="url(#f1uvtoe0adxtft)" height="51.4063" rx="12.5" ry="12.5" style="stroke: #A80036; stroke-width: 1.5;" width="200" x="321" y="873.4961"/><text fill="#000000" font-family="sans-serif" font-size="12" lengthAdjust="spacingAndGlyphs" textLength="160" x="331" y="896.0117">[10-12]誘発したアクションを</text><text fill="#000000" font-family="sans-serif" font-size="12" lengthAdjust="spacingAndGlyphs" textLength="180" x="331" y="911.7148">プレイヤー毎の誘発リストに追加</text><rect fill="#FEFECE" filter="url(#f1uvtoe0adxtft)" height="51.4063" rx="12.5" ry="12.5" style="stroke: #A80036; stroke-width: 1.5;" width="192" x="325" y="715.6836"/><text fill="#000000" font-family="sans-serif" font-size="12" lengthAdjust="spacingAndGlyphs" textLength="172" x="335" y="738.1992">[10-10]プレイヤー毎に通常効果</text><text fill="#000000" font-family="sans-serif" font-size="12" lengthAdjust="spacingAndGlyphs" textLength="168" x="335" y="753.9023">のアクションをステージに追加</text><polygon fill="#FEFECE" filter="url(#f1uvtoe0adxtft)" points="272,944.9023,570,944.9023,582,956.9023,570,968.9023,272,968.9023,260,956.9023,272,944.9023" style="stroke: #A80036; stroke-width: 1.5;"/><text fill="#000000" font-family="sans-serif" font-size="11" lengthAdjust="spacingAndGlyphs" textLength="298" x="272" y="961.1777">[10-13]誘発リストに通常効果のアクションがあれば繰り返す</text><text fill="#000000" font-family="sans-serif" font-size="11" lengthAdjust="spacingAndGlyphs" textLength="18" x="582" y="953.9805">YES</text><polygon fill="#FEFECE" filter="url(#f1uvtoe0adxtft)" points="341,105.7031,501,105.7031,513,117.7031,501,129.7031,341,129.7031,329,117.7031,341,105.7031" style="stroke: #A80036; stroke-width: 1.5;"/><text fill="#000000" font-family="sans-serif" font-size="11" lengthAdjust="spacingAndGlyphs" textLength="39" x="425" y="141.1758">1件以上</text><text fill="#000000" font-family="sans-serif" font-size="11" lengthAdjust="spacingAndGlyphs" textLength="160" x="341" y="121.9785">[10-2]誘発リスト全体の件数判定</text><text fill="#000000" font-family="sans-serif" font-size="11" lengthAdjust="spacingAndGlyphs" textLength="17" x="312" y="114.7813">0件</text><ellipse cx="24" cy="164.7031" fill="#FFFFFF" filter="url(#f1uvtoe0adxtft)" rx="11" ry="11" style="stroke: #000000; stroke-width: 1.0;"/><ellipse cx="24" cy="164.7031" fill="#000000" rx="6" ry="6" style="stroke: #7F7F7F; stroke-width: 1.0;"/><line style="stroke: #A80036; stroke-width: 1.5;" x1="421" x2="421" y1="30" y2="50"/><polygon fill="#A80036" points="417,40,421,50,425,40,421,44" style="stroke: #A80036; stroke-width: 1.0;"/><line style="stroke: #A80036; stroke-width: 1.5;" x1="421" x2="421" y1="413.2539" y2="448.2539"/><polygon fill="#A80036" points="417,438.2539,421,448.2539,425,438.2539,421,442.2539" style="stroke: #A80036; stroke-width: 1.0;"/><line style="stroke: #A80036; stroke-width: 1.5;" x1="421" x2="421" y1="483.957" y2="503.957"/><polygon fill="#A80036" points="417,493.957,421,503.957,425,493.957,421,497.957" style="stroke: #A80036; stroke-width: 1.0;"/><line style="stroke: #A80036; stroke-width: 1.5;" x1="421" x2="421" y1="357.5508" y2="377.5508"/><polygon fill="#A80036" points="417,367.5508,421,377.5508,425,367.5508,421,371.5508" style="stroke: #A80036; stroke-width: 1.0;"/><line style="stroke: #A80036; stroke-width: 1.5;" x1="535" x2="547" y1="587.3633" y2="587.3633"/><polygon fill="#A80036" points="543,477.1055,547,467.1055,551,477.1055,547,473.1055" style="stroke: #A80036; stroke-width: 1.5;"/><line style="stroke: #A80036; stroke-width: 1.5;" x1="547" x2="547" y1="331.8477" y2="587.3633"/><line style="stroke: #A80036; stroke-width: 1.5;" x1="547" x2="519.5" y1="331.8477" y2="331.8477"/><polygon fill="#A80036" points="529.5,327.8477,519.5,331.8477,529.5,335.8477,525.5,331.8477" style="stroke: #A80036; stroke-width: 1.0;"/><line style="stroke: #A80036; stroke-width: 1.5;" x1="421" x2="421" y1="555.3633" y2="575.3633"/><polygon fill="#A80036" points="417,565.3633,421,575.3633,425,565.3633,421,569.3633" style="stroke: #A80036; stroke-width: 1.0;"/><line style="stroke: #A80036; stroke-width: 1.5;" x1="421" x2="421" y1="257.8242" y2="306.1445"/><polygon fill="#A80036" points="417,296.1445,421,306.1445,425,296.1445,421,300.1445" style="stroke: #A80036; stroke-width: 1.0;"/><line style="stroke: #A80036; stroke-width: 1.5;" x1="579" x2="591" y1="643.3633" y2="643.3633"/><polygon fill="#A80036" points="587,454.2422,591,444.2422,595,454.2422,591,450.2422" style="stroke: #A80036; stroke-width: 1.5;"/><line style="stroke: #A80036; stroke-width: 1.5;" x1="591" x2="591" y1="232.1211" y2="643.3633"/><line style="stroke: #A80036; stroke-width: 1.5;" x1="591" x2="519.5" y1="232.1211" y2="232.1211"/><polygon fill="#A80036" points="529.5,228.1211,519.5,232.1211,529.5,236.1211,525.5,232.1211" style="stroke: #A80036; stroke-width: 1.0;"/><line style="stroke: #A80036; stroke-width: 1.5;" x1="421" x2="421" y1="599.3633" y2="631.3633"/><polygon fill="#A80036" points="417,621.3633,421,631.3633,425,621.3633,421,625.3633" style="stroke: #A80036; stroke-width: 1.0;"/><line style="stroke: #A80036; stroke-width: 1.5;" x1="421" x2="421" y1="838.4961" y2="873.4961"/><polygon fill="#A80036" points="417,863.4961,421,873.4961,425,863.4961,421,867.4961" style="stroke: #A80036; stroke-width: 1.0;"/><line style="stroke: #A80036; stroke-width: 1.5;" x1="421" x2="421" y1="767.0898" y2="787.0898"/><polygon fill="#A80036" points="417,777.0898,421,787.0898,425,777.0898,421,781.0898" style="stroke: #A80036; stroke-width: 1.0;"/><line style="stroke: #A80036; stroke-width: 1.5;" x1="582" x2="594" y1="956.9023" y2="956.9023"/><polygon fill="#A80036" points="590,859.1445,594,849.1445,598,859.1445,594,855.1445" style="stroke: #A80036; stroke-width: 1.5;"/><line style="stroke: #A80036; stroke-width: 1.5;" x1="594" x2="594" y1="741.3867" y2="956.9023"/><line style="stroke: #A80036; stroke-width: 1.5;" x1="594" x2="517" y1="741.3867" y2="741.3867"/><polygon fill="#A80036" points="527,737.3867,517,741.3867,527,745.3867,523,741.3867" style="stroke: #A80036; stroke-width: 1.0;"/><line style="stroke: #A80036; stroke-width: 1.5;" x1="421" x2="421" y1="924.9023" y2="944.9023"/><polygon fill="#A80036" points="417,934.9023,421,944.9023,425,934.9023,421,938.9023" style="stroke: #A80036; stroke-width: 1.0;"/><line style="stroke: #A80036; stroke-width: 1.5;" x1="421" x2="421" y1="655.3633" y2="715.6836"/><polygon fill="#A80036" points="417,705.6836,421,715.6836,425,705.6836,421,709.6836" style="stroke: #A80036; stroke-width: 1.0;"/><line style="stroke: #A80036; stroke-width: 1.5;" x1="421" x2="421" y1="129.7031" y2="206.418"/><polygon fill="#A80036" points="417,196.418,421,206.418,425,196.418,421,200.418" style="stroke: #A80036; stroke-width: 1.0;"/><line style="stroke: #A80036; stroke-width: 1.5;" x1="421" x2="421" y1="968.9023" y2="990.9023"/><line style="stroke: #A80036; stroke-width: 1.5;" x1="421" x2="628" y1="990.9023" y2="990.9023"/><polygon fill="#A80036" points="624,577.3027,628,567.3027,632,577.3027,628,573.3027" style="stroke: #A80036; stroke-width: 1.5;"/><line style="stroke: #A80036; stroke-width: 1.5;" x1="628" x2="628" y1="117.7031" y2="990.9023"/><line style="stroke: #A80036; stroke-width: 1.5;" x1="628" x2="513" y1="117.7031" y2="117.7031"/><polygon fill="#A80036" points="523,113.7031,513,117.7031,523,121.7031,519,117.7031" style="stroke: #A80036; stroke-width: 1.0;"/><line style="stroke: #A80036; stroke-width: 1.5;" x1="329" x2="24" y1="117.7031" y2="117.7031"/><line style="stroke: #A80036; stroke-width: 1.5;" x1="24" x2="24" y1="117.7031" y2="153.7031"/><polygon fill="#A80036" points="20,143.7031,24,153.7031,28,143.7031,24,147.7031" style="stroke: #A80036; stroke-width: 1.0;"/><line style="stroke: #A80036; stroke-width: 1.5;" x1="421" x2="421" y1="85.7031" y2="105.7031"/><polygon fill="#A80036" points="417,95.7031,421,105.7031,425,95.7031,421,99.7031" style="stroke: #A80036; stroke-width: 1.0;"/><!--MD5=[c6299d6f96198053bc54d65188d96e2b]
@startuml
start
:[10-1]誘発したアクションをプレイヤー毎に誘発リストにまとめる;
while([10-2]誘発リスト全体の件数判定) is (1件以上)
    group 即時効果:プレイヤー単位に繰返し
    note
        順番はターンプレイヤーから
        ターンが回る順に行う
    end note
    repeat :[10-3]プレイヤー毎に誘発リスト\nの即時効果のアクションを解決;
        group 即時効果:アクション単位に繰返し
        repeat :[10-4]誘発リストから即時効果の\nアクションを1つ取り出す;
            :[10-5]即時効果のアクションを解決;
            :[10-6]勝敗判定;
            :[10-7]誘発したアクションを\nプレイヤー毎の誘発リストに追加;
        repeat while ([10-8]未解決の即時効果があれば繰り返す) is (YES)
        end group
    repeat while([10-9]誘発リストに即時効果のアクションがあれば繰り返す) is (YES)
    end group

    group 通常効果:プレイヤー単位に繰返し
    note
        順番はターンプレイヤーから
        ターンが回る順に行う
    end note
    repeat :[10-10]プレイヤー毎に通常効果\nのアクションをステージに追加;
        :[10-11]通常効果のアクションを\n任意の順でステージに追加;
        :[10-12]誘発したアクションを\nプレイヤー毎の誘発リストに追加;
    repeat while ([10-13]誘発リストに通常効果のアクションがあれば繰り返す) is (YES)
    end group

endwhile (0件)
    stop
@enduml

PlantUML version 1.2020.14(Sat Jun 20 14:14:34 GMT 2020)
(GPL source distribution)
Java Runtime: OpenJDK Runtime Environment
JVM: OpenJDK 64-Bit Server VM
Default Encoding: UTF-8
Language: ja
Country: JP
--></g></svg>