<?xml version="1.0" encoding="UTF-8" standalone="no"?><svg xmlns="http://www.w3.org/2000/svg" xmlns:xlink="http://www.w3.org/1999/xlink" contentScriptType="application/ecmascript" contentStyleType="text/css" height="1348px" preserveAspectRatio="none" style="width:697px;height:1348px;" version="1.1" viewBox="0 0 697 1348" width="697px" zoomAndPan="magnify"><defs><filter height="300%" id="f4tmmylcrmonp" width="300%" x="-1" y="-1"><feGaussianBlur result="blurOut" stdDeviation="2.0"/><feColorMatrix in="blurOut" result="blurOut2" type="matrix" values="0 0 0 0 0 0 0 0 0 0 0 0 0 0 0 0 0 0 .4 0"/><feOffset dx="4.0" dy="4.0" in="blurOut2" result="blurOut3"/><feBlend in="SourceGraphic" in2="blurOut3" mode="normal"/></filter></defs><g><ellipse cx="489.5" cy="16" fill="#000000" filter="url(#f4tmmylcrmonp)" rx="10" ry="10" style="stroke: none; stroke-width: 1.0;"/><rect fill="#FEFECE" filter="url(#f4tmmylcrmonp)" height="35.7031" rx="12.5" ry="12.5" style="stroke: #A80036; stroke-width: 1.5;" width="377" x="301" y="67"/><text fill="#000000" font-family="sans-serif" font-size="12" lengthAdjust="spacingAndGlyphs" textLength="357" x="311" y="89.5156">[10-1]誘発したアクションをプレイヤー毎に誘発リストにまとめる</text><rect fill="#FEFECE" filter="url(#f4tmmylcrmonp)" height="35.7031" rx="12.5" ry="12.5" style="stroke: #A80036; stroke-width: 1.5;" width="164" x="407.5" y="144"/><text fill="#000000" font-family="sans-serif" font-size="12" lengthAdjust="spacingAndGlyphs" textLength="144" x="417.5" y="166.5156">誘発リスト全体の件数判定</text><polygon fill="#FEFECE" filter="url(#f4tmmylcrmonp)" points="489.5,221,501.5,233,489.5,245,477.5,233,489.5,221" style="stroke: #A80036; stroke-width: 1.5;"/><rect fill="#FEFECE" filter="url(#f4tmmylcrmonp)" height="51.4063" rx="12.5" ry="12.5" style="stroke: #A80036; stroke-width: 1.5;" width="332" x="225.5" y="301"/><text fill="#000000" font-family="sans-serif" font-size="12" lengthAdjust="spacingAndGlyphs" textLength="249" x="267" y="323.5156">[10-2]ターンプレイヤーからターンが回る順に</text><text fill="#000000" font-family="sans-serif" font-size="12" lengthAdjust="spacingAndGlyphs" textLength="312" x="235.5" y="339.2188">プレイヤー毎に誘発リストの即時効果のアクションを解決</text><rect fill="#FEFECE" filter="url(#f4tmmylcrmonp)" height="35.7031" rx="12.5" ry="12.5" style="stroke: #A80036; stroke-width: 1.5;" width="336" x="164.5" y="393"/><text fill="#000000" font-family="sans-serif" font-size="12" lengthAdjust="spacingAndGlyphs" textLength="316" x="174.5" y="415.5156">[10-3]誘発リストから即時効果のアクションを1つ取り出す</text><rect fill="#FEFECE" filter="url(#f4tmmylcrmonp)" height="35.7031" rx="12.5" ry="12.5" style="stroke: #A80036; stroke-width: 1.5;" width="209" x="228" y="470"/><text fill="#000000" font-family="sans-serif" font-size="12" lengthAdjust="spacingAndGlyphs" textLength="189" x="238" y="492.5156">[10-4]即時効果のアクションを解決</text><rect fill="#FEFECE" filter="url(#f4tmmylcrmonp)" height="35.7031" rx="12.5" ry="12.5" style="stroke: #A80036; stroke-width: 1.5;" width="101" x="234" y="547"/><text fill="#000000" font-family="sans-serif" font-size="12" lengthAdjust="spacingAndGlyphs" textLength="81" x="244" y="569.5156">[10-5]勝敗判定</text><rect fill="#FEFECE" filter="url(#f4tmmylcrmonp)" height="35.7031" rx="12.5" ry="12.5" style="stroke: #A80036; stroke-width: 1.5;" width="353" x="7" y="624"/><text fill="#000000" font-family="sans-serif" font-size="12" lengthAdjust="spacingAndGlyphs" textLength="333" x="17" y="646.5156">[10-6]誘発したアクションをプレイヤー毎の誘発リストに追加</text><rect fill="#FEFECE" filter="url(#f4tmmylcrmonp)" height="35.7031" rx="12.5" ry="12.5" style="stroke: #A80036; stroke-width: 1.5;" width="245" x="108" y="701"/><text fill="#000000" font-family="sans-serif" font-size="12" lengthAdjust="spacingAndGlyphs" textLength="225" x="118" y="723.5156">[10-7]未解決の即時効果があれば繰り返す</text><polygon fill="#FEFECE" filter="url(#f4tmmylcrmonp)" points="359.5,778,371.5,790,359.5,802,347.5,790,359.5,778" style="stroke: #A80036; stroke-width: 1.5;"/><rect fill="#FEFECE" filter="url(#f4tmmylcrmonp)" height="51.4063" rx="12.5" ry="12.5" style="stroke: #A80036; stroke-width: 1.5;" width="281" x="219" y="843"/><text fill="#000000" font-family="sans-serif" font-size="12" lengthAdjust="spacingAndGlyphs" textLength="261" x="229" y="865.5156">[10-2]誘発リストに即時効果のアクションがある</text><text fill="#000000" font-family="sans-serif" font-size="12" lengthAdjust="spacingAndGlyphs" textLength="156" x="281.5" y="881.2188">プレイヤーがいれば繰り返す</text><polygon fill="#FEFECE" filter="url(#f4tmmylcrmonp)" points="370.5,935,382.5,947,370.5,959,358.5,947,370.5,935" style="stroke: #A80036; stroke-width: 1.5;"/><rect fill="#FEFECE" filter="url(#f4tmmylcrmonp)" height="35.7031" rx="12.5" ry="12.5" style="stroke: #A80036; stroke-width: 1.5;" width="353" x="194" y="1000"/><text fill="#000000" font-family="sans-serif" font-size="12" lengthAdjust="spacingAndGlyphs" textLength="333" x="204" y="1022.5156">[10-8]プレイヤー毎に通常効果のアクションをステージに追加</text><rect fill="#FEFECE" filter="url(#f4tmmylcrmonp)" height="35.7031" rx="12.5" ry="12.5" style="stroke: #A80036; stroke-width: 1.5;" width="329" x="187" y="1077"/><text fill="#000000" font-family="sans-serif" font-size="12" lengthAdjust="spacingAndGlyphs" textLength="309" x="197" y="1099.5156">[10-9]通常効果のアクションを任意の順でステージに追加</text><rect fill="#FEFECE" filter="url(#f4tmmylcrmonp)" height="35.7031" rx="12.5" ry="12.5" style="stroke: #A80036; stroke-width: 1.5;" width="264" x="243.5" y="1169"/><text fill="#000000" font-family="sans-serif" font-size="12" lengthAdjust="spacingAndGlyphs" textLength="244" x="253.5" y="1191.5156">[10-10]未処理のプレイヤーがいれば繰り返す</text><polygon fill="#FEFECE" filter="url(#f4tmmylcrmonp)" points="545.5,1246,557.5,1258,545.5,1270,533.5,1258,545.5,1246" style="stroke: #A80036; stroke-width: 1.5;"/><ellipse cx="566.5" cy="1321" fill="none" filter="url(#f4tmmylcrmonp)" rx="10" ry="10" style="stroke: #000000; stroke-width: 1.0;"/><ellipse cx="567" cy="1321.5" fill="#000000" rx="6" ry="6" style="stroke: none; stroke-width: 1.0;"/><!--MD5=[2ebd455638d68b466560038bf9b9945a]
link start to [10-1]誘発したアクションをプレイヤー毎に誘発リストにまとめる--><path d="M489.5,26.04 C489.5,35.16 489.5,49.61 489.5,61.8 " fill="none" id="start-&gt;[10-1]誘発したアクションをプレイヤー毎に誘発リストにまとめる" style="stroke: #A80036; stroke-width: 1.0;"/><polygon fill="#A80036" points="489.5,66.87,493.5,57.87,489.5,61.87,485.5,57.87,489.5,66.87" style="stroke: #A80036; stroke-width: 1.0;"/><!--MD5=[0d172f203de7945283c758b323b6a516]
link [10-1]誘発したアクションをプレイヤー毎に誘発リストにまとめる to 誘発リスト全体の件数判定--><path d="M489.5,103.02 C489.5,113.59 489.5,127.29 489.5,138.72 " fill="none" id="[10-1]誘発したアクションをプレイヤー毎に誘発リストにまとめる-&gt;誘発リスト全体の件数判定" style="stroke: #A80036; stroke-width: 1.0;"/><polygon fill="#A80036" points="489.5,143.79,493.5,134.79,489.5,138.79,485.5,134.79,489.5,143.79" style="stroke: #A80036; stroke-width: 1.0;"/><!--MD5=[a9cc94b856e096c39d0aae10feeff2c0]
link 誘発リスト全体の件数判定 to #7--><path d="M489.5,180.06 C489.5,190.93 489.5,204.94 489.5,215.67 " fill="none" id="誘発リスト全体の件数判定-&gt;#7" style="stroke: #A80036; stroke-width: 1.0;"/><polygon fill="#A80036" points="489.5,220.95,493.5,211.95,489.5,215.95,485.5,211.95,489.5,220.95" style="stroke: #A80036; stroke-width: 1.0;"/><text fill="#000000" font-family="sans-serif" font-size="11" lengthAdjust="spacingAndGlyphs" textLength="0" x="488.8438" y="210.1746"/><!--MD5=[e4f906da4df921900c828eb2d6688097]
link #7 to [10-2]ターンプレイヤーからターンが回る順に\nプレイヤー毎に誘発リストの即時効果のアクションを解決--><path d="M483.66,239.45 C471.74,250.58 443.87,276.6 421.88,297.13 " fill="none" id="#7-&gt;[10-2]ターンプレイヤーからターンが回る順に\nプレイヤー毎に誘発リストの即時効果のアクションを解決" style="stroke: #A80036; stroke-width: 1.0;"/><polygon fill="#A80036" points="418.13,300.64,427.432,297.4039,421.7781,297.2208,421.9613,291.5669,418.13,300.64" style="stroke: #A80036; stroke-width: 1.0;"/><text fill="#000000" font-family="sans-serif" font-size="11" lengthAdjust="spacingAndGlyphs" textLength="39" x="455.5" y="277.4727">1件以上</text><!--MD5=[181fadd10d965e94da041b07953a6a8a]
link [10-2]ターンプレイヤーからターンが回る順に\nプレイヤー毎に誘発リストの即時効果のアクションを解決 to [10-3]誘発リストから即時効果のアクションを1つ取り出す--><path d="M373.8,352.25 C365.53,363.82 355.78,377.45 347.83,388.57 " fill="none" id="[10-2]ターンプレイヤーからターンが回る順に\nプレイヤー毎に誘発リストの即時効果のアクションを解決-&gt;[10-3]誘発リストから即時効果のアクションを1つ取り出す" style="stroke: #A80036; stroke-width: 1.0;"/><polygon fill="#A80036" points="344.76,392.85,353.2477,387.8542,347.6675,388.7823,346.7394,383.2021,344.76,392.85" style="stroke: #A80036; stroke-width: 1.0;"/><!--MD5=[b01dd9326f80c4cba4741168db488a40]
link [10-3]誘発リストから即時効果のアクションを1つ取り出す to [10-4]即時効果のアクションを解決--><path d="M332.5,429.02 C332.5,439.59 332.5,453.29 332.5,464.72 " fill="none" id="[10-3]誘発リストから即時効果のアクションを1つ取り出す-&gt;[10-4]即時効果のアクションを解決" style="stroke: #A80036; stroke-width: 1.0;"/><polygon fill="#A80036" points="332.5,469.79,336.5,460.79,332.5,464.79,328.5,460.79,332.5,469.79" style="stroke: #A80036; stroke-width: 1.0;"/><!--MD5=[c8ce32f155ee0dd1c9f0c1f559a930a9]
link [10-4]即時効果のアクションを解決 to [10-5]勝敗判定--><path d="M321.61,506.02 C314.72,516.78 305.76,530.78 298.37,542.33 " fill="none" id="[10-4]即時効果のアクションを解決-&gt;[10-5]勝敗判定" style="stroke: #A80036; stroke-width: 1.0;"/><polygon fill="#A80036" points="295.51,546.79,303.7415,541.3824,298.2138,542.5841,297.0121,537.0564,295.51,546.79" style="stroke: #A80036; stroke-width: 1.0;"/><!--MD5=[9a911bb1134e3e977e809155f019a58c]
link [10-5]勝敗判定 to [10-6]誘発したアクションをプレイヤー毎の誘発リストに追加--><path d="M261.58,583.02 C246.58,594.16 226.89,608.78 211.04,620.55 " fill="none" id="[10-5]勝敗判定-&gt;[10-6]誘発したアクションをプレイヤー毎の誘発リストに追加" style="stroke: #A80036; stroke-width: 1.0;"/><polygon fill="#A80036" points="206.68,623.79,216.2937,621.6505,210.6988,620.8152,211.534,615.2204,206.68,623.79" style="stroke: #A80036; stroke-width: 1.0;"/><!--MD5=[8c426932c3f087386aaa904eb826a904]
link [10-6]誘発したアクションをプレイヤー毎の誘発リストに追加 to [10-7]未解決の即時効果があれば繰り返す--><path d="M194.17,660.02 C200.91,670.78 209.68,684.78 216.92,696.33 " fill="none" id="[10-6]誘発したアクションをプレイヤー毎の誘発リストに追加-&gt;[10-7]未解決の即時効果があれば繰り返す" style="stroke: #A80036; stroke-width: 1.0;"/><polygon fill="#A80036" points="219.71,700.79,218.3084,691.0414,217.0497,696.5564,211.5347,695.2978,219.71,700.79" style="stroke: #A80036; stroke-width: 1.0;"/><!--MD5=[dc8d941ffe17c485956af5a4b9ee3f34]
link [10-7]未解決の即時効果があれば繰り返す to #22--><path d="M262.39,737.06 C289.9,751.77 328.16,772.23 347.41,782.53 " fill="none" id="[10-7]未解決の即時効果があれば繰り返す-&gt;#22" style="stroke: #A80036; stroke-width: 1.0;"/><polygon fill="#A80036" points="351.88,784.92,345.8251,777.1522,347.4694,782.5648,342.0568,784.2092,351.88,784.92" style="stroke: #A80036; stroke-width: 1.0;"/><text fill="#000000" font-family="sans-serif" font-size="11" lengthAdjust="spacingAndGlyphs" textLength="0" x="340.252" y="767.2422"/><!--MD5=[32594e87a794967ac244e6e23dd5da50]
link #22 to [10-4]即時効果のアクションを解決--><path d="M365.55,783.58 C376.95,772.72 400.5,747.03 400.5,720 C400.5,564 400.5,564 400.5,564 C400.5,541.32 383.22,522.44 366.08,509.3 " fill="none" id="#22-&gt;[10-4]即時効果のアクションを解決" style="stroke: #A80036; stroke-width: 1.0;"/><polygon fill="#A80036" points="361.73,506.09,366.5986,514.6514,365.7538,509.0579,371.3473,508.2132,361.73,506.09" style="stroke: #A80036; stroke-width: 1.0;"/><text fill="#000000" font-family="sans-serif" font-size="11" lengthAdjust="spacingAndGlyphs" textLength="18" x="401.5" y="646.4727">YES</text><!--MD5=[0575390a065fb6f5e850fd4bc07aec94]
link #22 to [10-2]誘発リストに即時効果のアクションがある\nプレイヤーがいれば繰り返す--><path d="M359.5,802.29 C359.5,811.6 359.5,825.24 359.5,837.65 " fill="none" id="#22-&gt;[10-2]誘発リストに即時効果のアクションがある\nプレイヤーがいれば繰り返す" style="stroke: #A80036; stroke-width: 1.0;"/><polygon fill="#A80036" points="359.5,842.87,363.5,833.87,359.5,837.87,355.5,833.87,359.5,842.87" style="stroke: #A80036; stroke-width: 1.0;"/><!--MD5=[b4d5323954e385c92294ea46f4f799af]
link [10-2]誘発リストに即時効果のアクションがある\nプレイヤーがいれば繰り返す to #28--><path d="M363.04,894.13 C364.8,906.33 366.86,920.65 368.37,931.16 " fill="none" id="[10-2]誘発リストに即時効果のアクションがある\nプレイヤーがいれば繰り返す-&gt;#28" style="stroke: #A80036; stroke-width: 1.0;"/><polygon fill="#A80036" points="369.1,936.27,371.7717,926.7904,368.3849,931.3214,363.8539,927.9346,369.1,936.27" style="stroke: #A80036; stroke-width: 1.0;"/><text fill="#000000" font-family="sans-serif" font-size="11" lengthAdjust="spacingAndGlyphs" textLength="0" x="367.4688" y="923.8805"/><!--MD5=[fec3e541da01e11f8b16e4f2314df5a1]
link #28 to [10-2]ターンプレイヤーからターンが回る順に\nプレイヤー毎に誘発リストの即時効果のアクションを解決--><path d="M381.57,945.86 C417.94,944.77 531.5,936.03 531.5,869.5 C531.5,410 531.5,410 531.5,410 C531.5,384.61 514.2,366.87 491.76,354.55 " fill="none" id="#28-&gt;[10-2]ターンプレイヤーからターンが回る順に\nプレイヤー毎に誘発リストの即時効果のアクションを解決" style="stroke: #A80036; stroke-width: 1.0;"/><polygon fill="#A80036" points="487.2,352.16,493.2941,359.8971,491.6224,354.4929,497.0266,352.8212,487.2,352.16" style="stroke: #A80036; stroke-width: 1.0;"/><text fill="#000000" font-family="sans-serif" font-size="11" lengthAdjust="spacingAndGlyphs" textLength="18" x="532.5" y="646.4727">YES</text><!--MD5=[f61c13ba95cbb6db16c57b6630ac45c4]
link #28 to [10-8]プレイヤー毎に通常効果のアクションをステージに追加--><path d="M370.5,959.09 C370.5,968.6 370.5,982.61 370.5,994.47 " fill="none" id="#28-&gt;[10-8]プレイヤー毎に通常効果のアクションをステージに追加" style="stroke: #A80036; stroke-width: 1.0;"/><polygon fill="#A80036" points="370.5,999.74,374.5,990.74,370.5,994.74,366.5,990.74,370.5,999.74" style="stroke: #A80036; stroke-width: 1.0;"/><!--MD5=[ec94a9cc22ea0b2955a58dfb57cfdee1]
link [10-8]プレイヤー毎に通常効果のアクションをステージに追加 to [10-9]通常効果のアクションを任意の順でステージに追加--><path d="M366.19,1036.02 C363.51,1046.59 360.04,1060.29 357.15,1071.72 " fill="none" id="[10-8]プレイヤー毎に通常効果のアクションをステージに追加-&gt;[10-9]通常効果のアクションを任意の順でステージに追加" style="stroke: #A80036; stroke-width: 1.0;"/><polygon fill="#A80036" points="355.86,1076.79,361.9503,1069.0499,357.0895,1071.9435,354.1959,1067.0827,355.86,1076.79" style="stroke: #A80036; stroke-width: 1.0;"/><!--MD5=[1b43f90b691d859b7f0d7112aadff1fd]
link [10-9]通常効果のアクションを任意の順でステージに追加 to [10-10]未処理のプレイヤーがいれば繰り返す--><path d="M356.13,1113.35 C359.95,1127.67 365.39,1148.09 369.54,1163.63 " fill="none" id="[10-9]通常効果のアクションを任意の順でステージに追加-&gt;[10-10]未処理のプレイヤーがいれば繰り返す" style="stroke: #A80036; stroke-width: 1.0;"/><polygon fill="#A80036" points="370.89,1168.7,372.4396,1158.9738,369.6035,1163.8684,364.7089,1161.0323,370.89,1168.7" style="stroke: #A80036; stroke-width: 1.0;"/><!--MD5=[0a1f734b6077b977a5f29d551e181bf3]
link [10-10]未処理のプレイヤーがいれば繰り返す to #38--><path d="M417.52,1205.06 C455.34,1220.41 508.57,1242.01 532.7,1251.81 " fill="none" id="[10-10]未処理のプレイヤーがいれば繰り返す-&gt;#38" style="stroke: #A80036; stroke-width: 1.0;"/><polygon fill="#A80036" points="537.4,1253.71,530.5556,1246.6281,532.7646,1251.8358,527.5568,1254.0448,537.4,1253.71" style="stroke: #A80036; stroke-width: 1.0;"/><text fill="#000000" font-family="sans-serif" font-size="11" lengthAdjust="spacingAndGlyphs" textLength="0" x="525.64" y="1237.5941"/><!--MD5=[d5cfc6b220c079589c09028f1097adfb]
link #38 to [10-8]プレイヤー毎に通常効果のアクションをステージに追加--><path d="M547.48,1247.94 C553.17,1219.36 566.65,1129.84 525.5,1077 C511.47,1058.98 491.2,1046.56 469.93,1038 " fill="none" id="#38-&gt;[10-8]プレイヤー毎に通常効果のアクションをステージに追加" style="stroke: #A80036; stroke-width: 1.0;"/><polygon fill="#A80036" points="465.09,1036.12,472.0241,1043.1141,469.7489,1037.935,474.9281,1035.6598,465.09,1036.12" style="stroke: #A80036; stroke-width: 1.0;"/><text fill="#000000" font-family="sans-serif" font-size="11" lengthAdjust="spacingAndGlyphs" textLength="18" x="552.5" y="1145.4727">YES</text><!--MD5=[47a4c27ad935a59901497f62ea75e2d0]
link #38 to end--><path d="M548.33,1267.23 C551.78,1277.24 557.65,1294.31 561.79,1306.31 " fill="none" id="#38-&gt;end" style="stroke: #A80036; stroke-width: 1.0;"/><polygon fill="#A80036" points="563.44,1311.11,564.2912,1301.298,561.8118,1306.3825,556.7273,1303.9031,563.44,1311.11" style="stroke: #A80036; stroke-width: 1.0;"/><!--MD5=[45d465c0e1f2a9ac8d23f96a8741f3c9]
link #7 to end--><path d="M497.6,236.91 C521.25,245.98 588.5,276.12 588.5,325.5 C588.5,325.5 588.5,325.5 588.5,1259 C588.5,1276.69 580.21,1295.65 573.81,1307.65 " fill="none" id="#7-&gt;end" style="stroke: #A80036; stroke-width: 1.0;"/><polygon fill="#A80036" points="571.38,1312.04,579.2326,1306.0955,573.7973,1307.6632,572.2296,1302.2279,571.38,1312.04" style="stroke: #A80036; stroke-width: 1.0;"/><text fill="#000000" font-family="sans-serif" font-size="11" lengthAdjust="spacingAndGlyphs" textLength="17" x="589.5" y="794.4727">0件</text><!--MD5=[9953b155a6a433621f082614131be1c8]
@startuml
(*) - -> "[10-1]誘発したアクションをプレイヤー毎に誘発リストにまとめる"
- -> "誘発リスト全体の件数判定"

if "" then
    - ->[1件以上] "[10-2]ターンプレイヤーからターンが回る順に\nプレイヤー毎に誘発リストの即時効果のアクションを解決"
    - ->"[10-3]誘発リストから即時効果のアクションを1つ取り出す"
    - ->"[10-4]即時効果のアクションを解決"
    - ->"[10-5]勝敗判定"
    - ->"[10-6]誘発したアクションをプレイヤー毎の誘発リストに追加"
    - ->"[10-7]未解決の即時効果があれば繰り返す"
    if "" then
        - ->[YES] "[10-4]即時効果のアクションを解決"
    else
        - ->"[10-2]誘発リストに即時効果のアクションがある\nプレイヤーがいれば繰り返す"
        if "" then
            - ->[YES] "[10-2]ターンプレイヤーからターンが回る順に\nプレイヤー毎に誘発リストの即時効果のアクションを解決"
        else
            - ->"[10-8]プレイヤー毎に通常効果のアクションをステージに追加"
            - ->"[10-9]通常効果のアクションを任意の順でステージに追加"
            - ->"[10-10]未処理のプレイヤーがいれば繰り返す"
            if "" then
                - ->[YES] "[10-8]プレイヤー毎に通常効果のアクションをステージに追加"
            else
                - ->(*)
            endif
        endif
    endif

else
    - ->[0件] (*)
endif

@enduml

PlantUML version 1.2020.14(Sat Jun 20 14:14:34 GMT 2020)
(GPL source distribution)
Java Runtime: OpenJDK Runtime Environment
JVM: OpenJDK 64-Bit Server VM
Default Encoding: UTF-8
Language: ja
Country: JP
--></g></svg>