<?xml version="1.0" encoding="us-ascii" standalone="no"?><svg xmlns="http://www.w3.org/2000/svg" xmlns:xlink="http://www.w3.org/1999/xlink" contentStyleType="text/css" height="537px" preserveAspectRatio="none" style="width:789px;height:537px;background:#FFFFFF;" version="1.1" viewBox="0 0 789 537" width="789px" zoomAndPan="magnify"><defs/><g><ellipse cx="468.5" cy="20" fill="#222222" rx="10" ry="10" style="stroke:#222222;stroke-width:1.0;"/><rect fill="#F1F1F1" height="35.7031" rx="12.5" ry="12.5" style="stroke:#181818;stroke-width:0.5;" width="259" x="339" y="112.3945"/><text fill="#000000" font-family="sans-serif" font-size="12" lengthAdjust="spacing" textLength="239" x="349" y="134.9102">[6-10-2] &#12496;&#12483;&#12501;&#12449;&#12363;&#12425;&#12522;&#12463;&#12456;&#12473;&#12488;&#12434;&#21462;&#12426;&#20986;&#12377;</text><polygon fill="#F1F1F1" points="321.5,168.0977,615.5,168.0977,627.5,180.0977,615.5,192.0977,321.5,192.0977,309.5,180.0977,321.5,168.0977" style="stroke:#181818;stroke-width:0.5;"/><text fill="#000000" font-family="sans-serif" font-size="11" lengthAdjust="spacing" textLength="294" x="321.5" y="184.373">[6-10-3] &#21462;&#12426;&#20986;&#12375;&#12383;&#12522;&#12463;&#12456;&#12473;&#12488;&#12398;&#12479;&#12452;&#12511;&#12531;&#12464;&#12364;&#12513;&#12452;&#12531;&#12363;&#21028;&#23450;</text><text fill="#000000" font-family="sans-serif" font-size="11" lengthAdjust="spacing" textLength="17" x="292.5" y="177.1758">Yes</text><text fill="#000000" font-family="sans-serif" font-size="11" lengthAdjust="spacing" textLength="14" x="627.5" y="177.1758">No</text><polygon fill="#F1F1F1" points="229.5,202.0977,369.5,202.0977,381.5,214.0977,369.5,226.0977,229.5,226.0977,217.5,214.0977,229.5,202.0977" style="stroke:#181818;stroke-width:0.5;"/><text fill="#000000" font-family="sans-serif" font-size="11" lengthAdjust="spacing" textLength="140" x="229.5" y="218.373">[6-10-4] &#12473;&#12486;&#12540;&#12472;&#12364;&#31354;&#12363;&#21028;&#23450;</text><text fill="#000000" font-family="sans-serif" font-size="11" lengthAdjust="spacing" textLength="17" x="200.5" y="211.1758">Yes</text><text fill="#000000" font-family="sans-serif" font-size="11" lengthAdjust="spacing" textLength="14" x="381.5" y="211.1758">No</text><rect fill="#F1F1F1" height="35.7031" rx="12.5" ry="12.5" style="stroke:#181818;stroke-width:0.5;" width="223" x="81.5" y="236.0977"/><text fill="#000000" font-family="sans-serif" font-size="12" lengthAdjust="spacing" textLength="203" x="91.5" y="258.6133">[6-10-5] &#12522;&#12463;&#12456;&#12473;&#12488;&#12434;&#12473;&#12486;&#12540;&#12472;&#12395;&#36861;&#21152;</text><rect fill="#F1F1F1" height="35.7031" rx="12.5" ry="12.5" style="stroke:#181818;stroke-width:0.5;" width="163" x="324.5" y="236.0977"/><text fill="#000000" font-family="sans-serif" font-size="12" lengthAdjust="spacing" textLength="143" x="334.5" y="258.6133">[6-10-6] &#12522;&#12463;&#12456;&#12473;&#12488;&#12434;&#30772;&#26820;</text><polygon fill="#F1F1F1" points="299.5,277.8008,311.5,289.8008,299.5,301.8008,287.5,289.8008,299.5,277.8008" style="stroke:#181818;stroke-width:0.5;"/><rect fill="#F1F1F1" height="35.7031" rx="12.5" ry="12.5" style="stroke:#181818;stroke-width:0.5;" width="223" x="526" y="202.0977"/><text fill="#000000" font-family="sans-serif" font-size="12" lengthAdjust="spacing" textLength="203" x="536" y="224.6133">[6-10-7] &#12522;&#12463;&#12456;&#12473;&#12488;&#12434;&#12473;&#12486;&#12540;&#12472;&#12395;&#36861;&#21152;</text><polygon fill="#F1F1F1" points="468.5,307.8008,480.5,319.8008,468.5,331.8008,456.5,319.8008,468.5,307.8008" style="stroke:#181818;stroke-width:0.5;"/><path d="M45,398.7734 L45,459.8086 A0,0 0 0 0 45,459.8086 L313,459.8086 A0,0 0 0 0 313,459.8086 L313,433.291 L333,429.291 L313,425.291 L313,408.7734 L303,398.7734 L45,398.7734 A0,0 0 0 0 45,398.7734 " fill="#FEFFDD" style="stroke:#181818;stroke-width:0.5;"/><path d="M303,398.7734 L303,408.7734 L313,408.7734 L303,398.7734 " fill="#FEFFDD" style="stroke:#181818;stroke-width:0.5;"/><text fill="#000000" font-family="sans-serif" font-size="13" lengthAdjust="spacing" textLength="234" x="51" y="417.332">&#35480;&#30330;&#12375;&#12383;&#12522;&#12463;&#12456;&#12473;&#12488;&#12398;&#12467;&#12531;&#12488;&#12525;&#12540;&#12521;&#12540;&#12399;</text><text fill="#000000" font-family="sans-serif" font-size="13" lengthAdjust="spacing" textLength="247" x="51" y="434.3438">&#36215;&#22240;&#12392;&#12394;&#12387;&#12383;&#12450;&#12463;&#12471;&#12519;&#12531;&#12398;&#12467;&#12531;&#12488;&#12525;&#12540;&#12521;&#12540;</text><text fill="#000000" font-family="sans-serif" font-size="13" lengthAdjust="spacing" textLength="78" x="51" y="451.3555">&#12395;&#12394;&#12426;&#12414;&#12377;&#12290;</text><rect fill="#F1F1F1" height="35.7031" rx="12.5" ry="12.5" style="stroke:#181818;stroke-width:0.5;" width="271" x="333" y="411.4395"/><text fill="#000000" font-family="sans-serif" font-size="12" lengthAdjust="spacing" textLength="251" x="343" y="433.9551">[6-10-9] &#35480;&#30330;&#12375;&#12383;&#12522;&#12463;&#12456;&#12473;&#12488;&#12434;&#12496;&#12483;&#12501;&#12449;&#12395;&#36861;&#21152;</text><polygon fill="#F1F1F1" points="343.5,351.8008,593.5,351.8008,605.5,363.8008,593.5,375.8008,343.5,375.8008,331.5,363.8008,343.5,351.8008" style="stroke:#181818;stroke-width:0.5;"/><text fill="#000000" font-family="sans-serif" font-size="11" lengthAdjust="spacing" textLength="17" x="472.5" y="387.2734">Yes</text><text fill="#000000" font-family="sans-serif" font-size="11" lengthAdjust="spacing" textLength="250" x="343.5" y="368.0762">[6-10-8] &#12522;&#12463;&#12456;&#12473;&#12488;&#12364;&#26032;&#12383;&#12394;&#35480;&#30330;&#12434;&#30330;&#29983;&#12373;&#12379;&#12383;&#12363;&#65311;</text><text fill="#000000" font-family="sans-serif" font-size="11" lengthAdjust="spacing" textLength="14" x="605.5" y="360.8789">No</text><polygon fill="#F1F1F1" points="468.5,479.8086,480.5,491.8086,468.5,503.8086,456.5,491.8086,468.5,479.8086" style="stroke:#181818;stroke-width:0.5;"/><polygon fill="#F1F1F1" points="360,50,577,50,589,62,577,74,360,74,348,62,360,50" style="stroke:#181818;stroke-width:0.5;"/><text fill="#000000" font-family="sans-serif" font-size="11" lengthAdjust="spacing" textLength="17" x="472.5" y="85.4727">Yes</text><text fill="#000000" font-family="sans-serif" font-size="11" lengthAdjust="spacing" textLength="217" x="360" y="66.2754">[6-10-1] &#12496;&#12483;&#12501;&#12449;&#12363;&#12425;&#35442;&#24403;&#12398;&#36890;&#24120;&#12399;&#12354;&#12427;&#12363;&#65311;</text><text fill="#000000" font-family="sans-serif" font-size="11" lengthAdjust="spacing" textLength="14" x="334" y="59.0781">No</text><ellipse cx="24" cy="109" fill="none" rx="11" ry="11" style="stroke:#222222;stroke-width:1.0;"/><ellipse cx="24" cy="109" fill="#222222" rx="6" ry="6" style="stroke:#222222;stroke-width:1.0;"/><line style="stroke:#181818;stroke-width:1.0;" x1="217.5" x2="193" y1="214.0977" y2="214.0977"/><line style="stroke:#181818;stroke-width:1.0;" x1="193" x2="193" y1="214.0977" y2="236.0977"/><polygon fill="#181818" points="189,226.0977,193,236.0977,197,226.0977,193,230.0977" style="stroke:#181818;stroke-width:1.0;"/><line style="stroke:#181818;stroke-width:1.0;" x1="381.5" x2="406" y1="214.0977" y2="214.0977"/><line style="stroke:#181818;stroke-width:1.0;" x1="406" x2="406" y1="214.0977" y2="236.0977"/><polygon fill="#181818" points="402,226.0977,406,236.0977,410,226.0977,406,230.0977" style="stroke:#181818;stroke-width:1.0;"/><line style="stroke:#181818;stroke-width:1.0;" x1="193" x2="193" y1="271.8008" y2="289.8008"/><line style="stroke:#181818;stroke-width:1.0;" x1="193" x2="287.5" y1="289.8008" y2="289.8008"/><polygon fill="#181818" points="277.5,285.8008,287.5,289.8008,277.5,293.8008,281.5,289.8008" style="stroke:#181818;stroke-width:1.0;"/><line style="stroke:#181818;stroke-width:1.0;" x1="406" x2="406" y1="271.8008" y2="289.8008"/><line style="stroke:#181818;stroke-width:1.0;" x1="406" x2="311.5" y1="289.8008" y2="289.8008"/><polygon fill="#181818" points="321.5,285.8008,311.5,289.8008,321.5,293.8008,317.5,289.8008" style="stroke:#181818;stroke-width:1.0;"/><line style="stroke:#181818;stroke-width:1.0;" x1="309.5" x2="299.5" y1="180.0977" y2="180.0977"/><line style="stroke:#181818;stroke-width:1.0;" x1="299.5" x2="299.5" y1="180.0977" y2="202.0977"/><polygon fill="#181818" points="295.5,192.0977,299.5,202.0977,303.5,192.0977,299.5,196.0977" style="stroke:#181818;stroke-width:1.0;"/><line style="stroke:#181818;stroke-width:1.0;" x1="627.5" x2="637.5" y1="180.0977" y2="180.0977"/><line style="stroke:#181818;stroke-width:1.0;" x1="637.5" x2="637.5" y1="180.0977" y2="202.0977"/><polygon fill="#181818" points="633.5,192.0977,637.5,202.0977,641.5,192.0977,637.5,196.0977" style="stroke:#181818;stroke-width:1.0;"/><line style="stroke:#181818;stroke-width:1.0;" x1="299.5" x2="299.5" y1="301.8008" y2="319.8008"/><line style="stroke:#181818;stroke-width:1.0;" x1="299.5" x2="456.5" y1="319.8008" y2="319.8008"/><polygon fill="#181818" points="446.5,315.8008,456.5,319.8008,446.5,323.8008,450.5,319.8008" style="stroke:#181818;stroke-width:1.0;"/><line style="stroke:#181818;stroke-width:1.0;" x1="637.5" x2="637.5" y1="237.8008" y2="319.8008"/><line style="stroke:#181818;stroke-width:1.0;" x1="637.5" x2="480.5" y1="319.8008" y2="319.8008"/><polygon fill="#181818" points="490.5,315.8008,480.5,319.8008,490.5,323.8008,486.5,319.8008" style="stroke:#181818;stroke-width:1.0;"/><line style="stroke:#181818;stroke-width:1.0;" x1="468.5" x2="468.5" y1="148.0977" y2="168.0977"/><polygon fill="#181818" points="464.5,158.0977,468.5,168.0977,472.5,158.0977,468.5,162.0977" style="stroke:#181818;stroke-width:1.0;"/><line style="stroke:#181818;stroke-width:1.0;" x1="468.5" x2="468.5" y1="375.8008" y2="411.4395"/><polygon fill="#181818" points="464.5,401.4395,468.5,411.4395,472.5,401.4395,468.5,405.4395" style="stroke:#181818;stroke-width:1.0;"/><line style="stroke:#181818;stroke-width:1.0;" x1="605.5" x2="617.5" y1="363.8008" y2="363.8008"/><polygon fill="#181818" points="613.5,419.291,617.5,429.291,621.5,419.291,617.5,423.291" style="stroke:#181818;stroke-width:1.0;"/><line style="stroke:#181818;stroke-width:1.0;" x1="617.5" x2="617.5" y1="363.8008" y2="491.8086"/><line style="stroke:#181818;stroke-width:1.0;" x1="617.5" x2="480.5" y1="491.8086" y2="491.8086"/><polygon fill="#181818" points="490.5,487.8086,480.5,491.8086,490.5,495.8086,486.5,491.8086" style="stroke:#181818;stroke-width:1.0;"/><line style="stroke:#181818;stroke-width:1.0;" x1="468.5" x2="468.5" y1="447.1426" y2="479.8086"/><polygon fill="#181818" points="464.5,469.8086,468.5,479.8086,472.5,469.8086,468.5,473.8086" style="stroke:#181818;stroke-width:1.0;"/><line style="stroke:#181818;stroke-width:1.0;" x1="468.5" x2="468.5" y1="331.8008" y2="351.8008"/><polygon fill="#181818" points="464.5,341.8008,468.5,351.8008,472.5,341.8008,468.5,345.8008" style="stroke:#181818;stroke-width:1.0;"/><line style="stroke:#181818;stroke-width:1.0;" x1="468.5" x2="468.5" y1="74" y2="112.3945"/><polygon fill="#181818" points="464.5,102.3945,468.5,112.3945,472.5,102.3945,468.5,106.3945" style="stroke:#181818;stroke-width:1.0;"/><line style="stroke:#181818;stroke-width:1.0;" x1="468.5" x2="468.5" y1="503.8086" y2="513.8086"/><line style="stroke:#181818;stroke-width:1.0;" x1="468.5" x2="763" y1="513.8086" y2="513.8086"/><polygon fill="#181818" points="759,302.6152,763,292.6152,767,302.6152,763,298.6152" style="stroke:#181818;stroke-width:1.0;"/><line style="stroke:#181818;stroke-width:1.0;" x1="763" x2="763" y1="62" y2="513.8086"/><line style="stroke:#181818;stroke-width:1.0;" x1="763" x2="589" y1="62" y2="62"/><polygon fill="#181818" points="599,58,589,62,599,66,595,62" style="stroke:#181818;stroke-width:1.0;"/><line style="stroke:#181818;stroke-width:1.0;" x1="348" x2="24" y1="62" y2="62"/><line style="stroke:#181818;stroke-width:1.0;" x1="24" x2="24" y1="62" y2="98"/><polygon fill="#181818" points="20,88,24,98,28,88,24,92" style="stroke:#181818;stroke-width:1.0;"/><line style="stroke:#181818;stroke-width:1.0;" x1="468.5" x2="468.5" y1="30" y2="50"/><polygon fill="#181818" points="464.5,40,468.5,50,472.5,40,468.5,44" style="stroke:#181818;stroke-width:1.0;"/><!--SRC=[bLF9JW915BpFL_GDEPYuRyHVy6uC1nE7I4B0E9DufRiDAX35NV0WBb6124Oq807vc4epUF8Nx1u6bH4rpg4pUIzLhwfUjsVsrq_p89fwZMP4jVfMpu1TW9N0Ak0tuELMQHkq83QkhLGCqLtDymUNPfYBgwQsjXmCwMHWOM9mU6Xms4_0K-0S_13i73G1jjNEFOZ6FcYnCncq1Ch04hBxLZ_pag111kPrmwiHCjEX6Ub70vwtvTw2FODlWks9dIEmkDYeWQPz4XqCT7MC-icNvZ7ecHjDYs1Di2jmsIg3tOCcmS_jIbaE59jNefZn4dDP3t_8-pfYJ6fKL37mEfXqbRHojP-17zx6bJUtarwcGhlP4F6ipmRg8KF6EnTnqKpqex6oZwtBTGSNNWe6D3VUGK_-IqINwjFyr7SyJRQExbNGDD_EdrZfcjAJhba7id88UcgtEWjtHUDeclOJ1zXtOL9VpvNe2IaSCNKIqWEc4z9lH6hpPRLa-S_lb5sUKoSjTS5F5N6Q1RsLLa0l5KNlI_c9mi5BRGh9ug0lycOYoheBiNMwTj89LvxEGr9Lmuoil0C0]--></g></svg>