<?xml version="1.0" encoding="us-ascii" standalone="no"?><svg xmlns="http://www.w3.org/2000/svg" xmlns:xlink="http://www.w3.org/1999/xlink" contentStyleType="text/css" height="473px" preserveAspectRatio="none" style="width:655px;height:473px;background:#FFFFFF;" version="1.1" viewBox="0 0 655 473" width="655px" zoomAndPan="magnify"><defs/><g><ellipse cx="465" cy="20" fill="#222222" rx="10" ry="10" style="stroke:#222222;stroke-width:1.0;"/><rect fill="#F1F1F1" height="35.7031" rx="12.5" ry="12.5" style="stroke:#181818;stroke-width:0.5;" width="252" x="339" y="112.3945"/><text fill="#000000" font-family="sans-serif" font-size="12" lengthAdjust="spacing" textLength="232" x="349" y="134.9102">[6-5-2] &#12496;&#12483;&#12501;&#12449;&#12363;&#12425;&#12522;&#12463;&#12456;&#12473;&#12488;&#12434;&#21462;&#12426;&#20986;&#12377;</text><rect fill="#F1F1F1" height="35.7031" rx="12.5" ry="12.5" style="stroke:#181818;stroke-width:0.5;" width="240" x="345" y="168.0977"/><text fill="#000000" font-family="sans-serif" font-size="12" lengthAdjust="spacing" textLength="220" x="355" y="190.6133">[6-5-3] &#21462;&#12426;&#20986;&#12375;&#12383;&#12522;&#12463;&#12456;&#12473;&#12488;&#12434;&#35299;&#27770;&#12377;&#12427;</text><polygon fill="#F1F1F1" points="425.5,223.8008,504.5,223.8008,516.5,235.8008,504.5,247.8008,425.5,247.8008,413.5,235.8008,425.5,223.8008" style="stroke:#181818;stroke-width:0.5;"/><text fill="#000000" font-family="sans-serif" font-size="11" lengthAdjust="spacing" textLength="79" x="425.5" y="240.0762">[6-5-4] &#21213;&#25943;&#21028;&#23450;</text><text fill="#000000" font-family="sans-serif" font-size="11" lengthAdjust="spacing" textLength="22" x="516.5" y="232.8789">&#27770;&#30528;</text><ellipse cx="560.5" cy="235.8008" fill="none" rx="11" ry="11" style="stroke:#222222;stroke-width:1.0;"/><ellipse cx="560.5" cy="235.8008" fill="#222222" rx="6" ry="6" style="stroke:#222222;stroke-width:1.0;"/><path d="M45,334.7734 L45,395.8086 A0,0 0 0 0 45,395.8086 L313,395.8086 A0,0 0 0 0 313,395.8086 L313,369.291 L333,365.291 L313,361.291 L313,344.7734 L303,334.7734 L45,334.7734 A0,0 0 0 0 45,334.7734 " fill="#FEFFDD" style="stroke:#181818;stroke-width:0.5;"/><path d="M303,334.7734 L303,344.7734 L313,344.7734 L303,334.7734 " fill="#FEFFDD" style="stroke:#181818;stroke-width:0.5;"/><text fill="#000000" font-family="sans-serif" font-size="13" lengthAdjust="spacing" textLength="234" x="51" y="353.332">&#35480;&#30330;&#12375;&#12383;&#12522;&#12463;&#12456;&#12473;&#12488;&#12398;&#12467;&#12531;&#12488;&#12525;&#12540;&#12521;&#12540;&#12399;</text><text fill="#000000" font-family="sans-serif" font-size="13" lengthAdjust="spacing" textLength="247" x="51" y="370.3438">&#36215;&#22240;&#12392;&#12394;&#12387;&#12383;&#12450;&#12463;&#12471;&#12519;&#12531;&#12398;&#12467;&#12531;&#12488;&#12525;&#12540;&#12521;&#12540;</text><text fill="#000000" font-family="sans-serif" font-size="13" lengthAdjust="spacing" textLength="78" x="51" y="387.3555">&#12395;&#12394;&#12426;&#12414;&#12377;&#12290;</text><rect fill="#F1F1F1" height="35.7031" rx="12.5" ry="12.5" style="stroke:#181818;stroke-width:0.5;" width="264" x="333" y="347.4395"/><text fill="#000000" font-family="sans-serif" font-size="12" lengthAdjust="spacing" textLength="244" x="343" y="369.9551">[6-5-6] &#35480;&#30330;&#12375;&#12383;&#12522;&#12463;&#12456;&#12473;&#12488;&#12434;&#12496;&#12483;&#12501;&#12449;&#12395;&#36861;&#21152;</text><polygon fill="#F1F1F1" points="343,287.8008,587,287.8008,599,299.8008,587,311.8008,343,311.8008,331,299.8008,343,287.8008" style="stroke:#181818;stroke-width:0.5;"/><text fill="#000000" font-family="sans-serif" font-size="11" lengthAdjust="spacing" textLength="17" x="469" y="323.2734">Yes</text><text fill="#000000" font-family="sans-serif" font-size="11" lengthAdjust="spacing" textLength="244" x="343" y="304.0762">[6-5-5] &#12522;&#12463;&#12456;&#12473;&#12488;&#12364;&#26032;&#12383;&#12394;&#35480;&#30330;&#12434;&#30330;&#29983;&#12373;&#12379;&#12383;&#12363;&#65311;</text><polygon fill="#F1F1F1" points="465,415.8086,477,427.8086,465,439.8086,453,427.8086,465,415.8086" style="stroke:#181818;stroke-width:0.5;"/><polygon fill="#F1F1F1" points="359.5,50,570.5,50,582.5,62,570.5,74,359.5,74,347.5,62,359.5,50" style="stroke:#181818;stroke-width:0.5;"/><text fill="#000000" font-family="sans-serif" font-size="11" lengthAdjust="spacing" textLength="17" x="469" y="85.4727">Yes</text><text fill="#000000" font-family="sans-serif" font-size="11" lengthAdjust="spacing" textLength="211" x="359.5" y="66.2754">[6-5-1] &#12496;&#12483;&#12501;&#12449;&#12363;&#12425;&#35442;&#24403;&#12398;&#21363;&#26178;&#12399;&#12354;&#12427;&#12363;&#65311;</text><text fill="#000000" font-family="sans-serif" font-size="11" lengthAdjust="spacing" textLength="14" x="333.5" y="59.0781">No</text><ellipse cx="24" cy="109" fill="none" rx="11" ry="11" style="stroke:#222222;stroke-width:1.0;"/><ellipse cx="24" cy="109" fill="#222222" rx="6" ry="6" style="stroke:#222222;stroke-width:1.0;"/><line style="stroke:#181818;stroke-width:1.0;" x1="465" x2="465" y1="148.0977" y2="168.0977"/><polygon fill="#181818" points="461,158.0977,465,168.0977,469,158.0977,465,162.0977" style="stroke:#181818;stroke-width:1.0;"/><line style="stroke:#181818;stroke-width:1.0;" x1="465" x2="465" y1="247.8008" y2="287.8008"/><polygon fill="#181818" points="461,277.8008,465,287.8008,469,277.8008,465,281.8008" style="stroke:#181818;stroke-width:1.0;"/><line style="stroke:#181818;stroke-width:1.0;" x1="516.5" x2="549.5" y1="235.8008" y2="235.8008"/><polygon fill="#181818" points="539.5,231.8008,549.5,235.8008,539.5,239.8008,543.5,235.8008" style="stroke:#181818;stroke-width:1.0;"/><line style="stroke:#181818;stroke-width:1.0;" x1="465" x2="465" y1="203.8008" y2="223.8008"/><polygon fill="#181818" points="461,213.8008,465,223.8008,469,213.8008,465,217.8008" style="stroke:#181818;stroke-width:1.0;"/><line style="stroke:#181818;stroke-width:1.0;" x1="465" x2="465" y1="311.8008" y2="347.4395"/><polygon fill="#181818" points="461,337.4395,465,347.4395,469,337.4395,465,341.4395" style="stroke:#181818;stroke-width:1.0;"/><line style="stroke:#181818;stroke-width:1.0;" x1="599" x2="611" y1="299.8008" y2="299.8008"/><polygon fill="#181818" points="607,355.291,611,365.291,615,355.291,611,359.291" style="stroke:#181818;stroke-width:1.0;"/><line style="stroke:#181818;stroke-width:1.0;" x1="611" x2="611" y1="299.8008" y2="427.8086"/><line style="stroke:#181818;stroke-width:1.0;" x1="611" x2="477" y1="427.8086" y2="427.8086"/><polygon fill="#181818" points="487,423.8086,477,427.8086,487,431.8086,483,427.8086" style="stroke:#181818;stroke-width:1.0;"/><line style="stroke:#181818;stroke-width:1.0;" x1="465" x2="465" y1="383.1426" y2="415.8086"/><polygon fill="#181818" points="461,405.8086,465,415.8086,469,405.8086,465,409.8086" style="stroke:#181818;stroke-width:1.0;"/><line style="stroke:#181818;stroke-width:1.0;" x1="465" x2="465" y1="74" y2="112.3945"/><polygon fill="#181818" points="461,102.3945,465,112.3945,469,102.3945,465,106.3945" style="stroke:#181818;stroke-width:1.0;"/><line style="stroke:#181818;stroke-width:1.0;" x1="465" x2="465" y1="439.8086" y2="449.8086"/><line style="stroke:#181818;stroke-width:1.0;" x1="465" x2="629" y1="449.8086" y2="449.8086"/><polygon fill="#181818" points="625,267.8008,629,257.8008,633,267.8008,629,263.8008" style="stroke:#181818;stroke-width:1.0;"/><line style="stroke:#181818;stroke-width:1.0;" x1="629" x2="629" y1="62" y2="449.8086"/><line style="stroke:#181818;stroke-width:1.0;" x1="629" x2="582.5" y1="62" y2="62"/><polygon fill="#181818" points="592.5,58,582.5,62,592.5,66,588.5,62" style="stroke:#181818;stroke-width:1.0;"/><line style="stroke:#181818;stroke-width:1.0;" x1="347.5" x2="24" y1="62" y2="62"/><line style="stroke:#181818;stroke-width:1.0;" x1="24" x2="24" y1="62" y2="98"/><polygon fill="#181818" points="20,88,24,98,28,88,24,92" style="stroke:#181818;stroke-width:1.0;"/><line style="stroke:#181818;stroke-width:1.0;" x1="465" x2="465" y1="30" y2="50"/><polygon fill="#181818" points="461,40,465,50,469,40,465,44" style="stroke:#181818;stroke-width:1.0;"/><!--SRC=[XPBBJi9058RtVOhPGHSilC12uYkuDuQ5YIKq8M1i4xUTcKGGlE0540X1nSWjKfKO8W5zc9Dfk-CLd2c5G1JiucJQq-y___aplksLZ-G38yVEUrQ9Z8Tb88z0J21ze0sWFSky0DnXgMSxTmB6bUJxHqlIzFqZNJgEgN45-VT2WM1WBOA0ve1Ie7aW3u2pG4wTrZiRtG3kJWO3DW4J85dU7GzhCb8rvDzLD5b2QCjLMVzB1MZRDTi4yWaq3UIQNHQ0P5Xg0BWKdi4R4JJNA0Ak_IQTHjrw4nXt8KWrwldVv72sQkMBBFt4kcKPwJ4bWVpyPxjg28C8QNhoa1-Kn84QdKU3mlJY87nc5Lw50TnssdTsQS17yshVyYzvm1MtDSbWCiTBORfAA88yRiaUYobrdEyHozo7NOL4KbTGN8dgxXjQAOIxG7hy0eWpVG4w1DeI5PjJ-AFFAlU0ctmJm7KXiNXrbabuFFScI981_2LIDuZRu1cwFcTnykhTffsaB8caVm00]--></g></svg>