<?xml version="1.0" standalone="yes"?>

<svg version="1.1" viewBox="0.0 0.0 181.85826771653544 183.04724409448818" fill="none" stroke="none" stroke-linecap="square" stroke-miterlimit="10" xmlns="http://www.w3.org/2000/svg" xmlns:xlink="http://www.w3.org/1999/xlink"><clipPath id="p.0"><path d="m0 0l181.85826 0l0 183.04724l-181.85826 0l0 -183.04724z" clip-rule="nonzero"></path></clipPath><g clip-path="url(#p.0)"><path fill="#000000" fill-opacity="0.0" d="m0 0l181.85826 0l0 183.04724l-181.85826 0z" fill-rule="evenodd"></path><path fill="#ffffff" d="m10.233596 20.018373l0 0c0 -4.609622 3.7368355 -8.3464575 8.3464575 -8.3464575l18.535433 0l0 0l40.322838 0l85.74016 0c2.2136078 0 4.336563 0.8793564 5.901825 2.4446201c1.5652771 1.5652647 2.4446259 3.688218 2.4446259 5.9018373l0 20.86614l0 0l0 12.519684l0 0c0 4.609623 -3.7368317 8.346458 -8.346451 8.346458l-85.74016 0l-20.50121 10.64624l-19.821629 -10.64624l-18.535433 0c-4.609622 0 -8.3464575 -3.7368355 -8.3464575 -8.346458l0 0l0 -12.519684l0 0z" fill-rule="evenodd"></path><path stroke="#000000" stroke-width="1.0" stroke-linejoin="round" stroke-linecap="butt" d="m10.233596 20.018373l0 0c0 -4.609622 3.7368355 -8.3464575 8.3464575 -8.3464575l18.535433 0l0 0l40.322838 0l85.74016 0c2.2136078 0 4.336563 0.8793564 5.901825 2.4446201c1.5652771 1.5652647 2.4446259 3.688218 2.4446259 5.9018373l0 20.86614l0 0l0 12.519684l0 0c0 4.609623 -3.7368317 8.346458 -8.346451 8.346458l-85.74016 0l-20.50121 10.64624l-19.821629 -10.64624l-18.535433 0c-4.609622 0 -8.3464575 -3.7368355 -8.3464575 -8.346458l0 0l0 -12.519684l0 0z" fill-rule="evenodd"></path><path fill="#000000" d="m30.441763 26.821287l-6.25 0l0 -1.375l12.812498 0l0 1.375l-5.124998 0l0 0.8125q0 3.9375 -2.8125 6.499998l-1.25 -0.9375q2.625 -2.062498 2.625 -5.562498l0 -0.8125zm-4.0 -3.8125l0 -1.375l7.687498 0l0 1.375l-7.687498 0zm8.499998 -2.5625q0.8125 0.8125 1.75 2.1875l-0.875 0.625q-0.875 -1.25 -1.75 -2.25l0.875 -0.5625zm1.5 -0.8125q0.8125 0.875 1.75 2.125l-0.875 0.625q-1.0 -1.375 -1.75 -2.125l0.875 -0.625zm12.9375 5.8125q-0.4375 4.0625 -2.25 5.875q-1.8125 1.8124981 -4.75 2.874998l-0.8125 -1.1875q2.875 -0.9375 4.5 -2.562498q1.75 -1.75 2.0 -5.9375l1.3125 0.4375q0.5625 0.1875 0 0.5zm-5.3125 2.25q-0.75 -1.6875 -1.5 -2.8125l1.1875 -0.625q0.9375 1.1875 1.625 2.8125l-1.3125 0.625zm-3.1875 0.9375q-0.75 -1.75 -1.5625 -2.9375l1.25 -0.625q0.875 1.1875 1.5625 2.875l-1.25 0.6875zm24.062504 -0.4375l-5.812504 0.625l1.1875 5.062498l-1.375 0.3125l-1.1875 -5.187498l-6.375 0.75l-0.1875 -1.3125l6.25 -0.6875l-0.625 -2.9375l-4.25 0.5l-0.25 -1.3125l4.125 -0.4375l-0.625 -2.875l1.3125 -0.25q0.5625 -0.0625 0.1875 0.4375l0.5 2.5l4.5625 -0.625l0.25 1.3125l-4.4375 0.5625l0.625 2.9375l5.875004 -0.6875l0.25 1.3125zm9.4375 -3.9375q-1.0625 6.25 -2.5625 7.749998q-0.8125 0.8125 -1.6875 0.8125q-1.0 0 -1.5625 -0.5625q-1.5 -1.4999981 -1.5 -3.749998q0 -2.75 1.9375 -4.6875q2.125 -2.125 5.1875 -2.125q2.75 0 4.3125 1.5625q1.75 1.75 1.75 4.125q0 2.5625 -1.625 4.1875q-1.0625 1.0624981 -3.25 2.062498l-1.3125 -1.3125q2.1875 -0.6874981 3.4375 -1.9374981q1.1875 -1.1875 1.1875 -2.875q0 -2.0 -1.3125 -3.3125q-1.3125 -1.3125 -4.125 -1.1875l1.125 0.5625q0.75 0.3125 0 0.6875zm-1.4375 -1.1875q-1.625 0.375 -2.8125 1.5625q-1.625 1.625 -1.625 4.0q0 1.4375 0.9375 2.375q0.1875 0.1875 0.5625 0.1875q0.375 0 0.8125 -0.4375q1.4375 -1.4375 2.125 -7.6875zm17.875 1.875q2.8125 1.5625 4.625 3.375l-1.0 1.125q-1.8125 -1.8125 -4.375 -3.4375l0.75 -1.0625zm-2.25 9.062498l0 -10.999998l-5.625 0l0 -1.375l13.4375 0l0 1.375l-6.375 0l0 10.999998l-1.4375 0zm19.875 -1.6875q-2.9375 0 -4.875 -1.8749981l0.8125 -1.0625q1.6875 1.625 4.0625 1.5625l3.4375 0l0 1.3749981l-3.4375 0zm-8.9375 1.1875q-0.1875 -3.249998 -0.1875 -5.562498q0 -2.8125 0.6875 -6.6875l1.25 0.3125q0.6875 0.125 0.0625 0.5625q-0.625 3.625 -0.625 5.8125q0 2.4375 0.25 5.437498l-1.4375 0.125zm11.5625 -9.249998q-2.6875 -0.0625 -7.0 0.375l0 -1.3125q4.5 -0.4375 7.0 -0.375l0 1.3125zm15.5 8.999998q0 1.0625 -1.0 1.0625l-1.5625 0l-0.25 -1.1875l1.3125 0q0.25 0 0.25 -0.25l0 -2.124998l-7.6875 0q-0.125 2.187498 -2.5625 3.812498l-0.8125 -1.1875q2.1875 -1.1875 2.1875 -3.874998l0 -4.5q-0.875 0.875 -1.9375 1.4375l-0.625 -1.25q3.0 -1.6875 4.4375 -5.25l1.3125 0.3125q0.25 0.25 -0.1875 0.3125l-0.25 0.5625l4.0625 0l0.3125 -0.4375l1.1875 0.75q0.3125 0.3125 -0.3125 0.375l-1.875 2.1875l4.0 0l0 9.249998zm-5.75 -8.249998l-3.125 0l0 1.8125l3.125 0l0 -1.8125zm1.25 0l0 1.8125l3.25 0l0 -1.8125l-3.25 0zm-1.25 2.8125l-3.125 0l0 1.9375l3.125 0l0 -1.9375zm1.25 0l0 1.9375l3.25 0l0 -1.9375l-3.25 0zm0.5 -5.6875l-3.875 0q-0.375 0.75 -1.3125 1.875l3.75 0l1.4375 -1.875zm20.875008 12.374998q-3.0000153 -0.375 -5.3125153 -1.5625q-2.1875 1.3125 -5.25 1.625l-0.5 -1.3125q2.8125 -0.25 4.6875 -1.1875q-1.0 -0.9999981 -1.8125 -2.124998l-1.75 0l0 -1.0l7.3125153 0l0.1875 -0.1875l0.9375 0.75q0.25 0.375 -0.25 0.3125q-1.0625153 1.25 -2.5625153 2.312498q2.1875153 0.75 4.6250153 0.9375l-0.3125 1.4375zm-5.6875153 -12.749998l5.6250153 0l0 1.1875l-11.062515 0l0 5.5q0 3.5 -1.5625 5.874998l-1.125 -0.9375q1.4375 -1.9374981 1.4375 -5.187498l0 -6.4375l5.25 0l0 -1.625l1.375 0q0.5 0.0625 0.0625 0.375l0 1.25zm0.375 9.6875q0.75 -0.5 1.75 -1.5l-3.25 0q0.625 0.75 1.5 1.5zm2.25 -3.375l-1.25 0l0 -0.375l-2.6875 0l0 0.4375l-1.25 0l0 -2.5l-2.5 0l0 -1.0l2.5 0l0 -1.1875l1.1875 0q0.5 0.0625 0.0625 0.375l0 0.8125l2.6875 0l0 -1.3125l1.1875 0q0.50001526 0.0625 0.0625 0.375l0 0.9375l3.0000153 0l0 1.0l-3.0000153 0l0 2.4375zm-1.25 -2.4375l-2.6875 0l0 1.0625l2.6875 0l0 -1.0625zm10.625015 0.1875q0.75 -0.25 1.4375 -0.25q0.8125 0 1.3125 0.5q0.375 0.375 0.4375 1.375q1.875 -0.6875 4.25 -1.4375l0.4375 1.5q-2.4375 0.375 -4.5625 1.1875l0 2.75l-1.25 0l0 -2.25q-1.875 0.875 -2.4375 1.4375q-0.6875 0.6875 -0.6875 1.3749981q0 0.375 0.375 0.75q0.4375 0.4375 1.6875 0.4375l5.25 0l0 1.1875l-5.3125 0q-2.0 0 -2.8125 -0.8125q-0.625 -0.625 -0.625 -1.5625q0 -0.9999981 0.8125 -1.8124981q1.25 -1.25 3.6875 -2.25q-0.0625 -0.75 -0.3125 -1.0q-0.25 -0.25 -1.0625 -0.25q-1.25 0 -3.8125 2.25l-1.0625 -1.0625q2.9375 -1.8125 4.0 -4.0q-1.75 0.125 -3.5 0.25l-0.25 -1.25q2.25 -0.0625 4.25 -0.1875q0.3125 -0.75 0.75 -2.5l1.1875 0.3125q0.625 0.25 0 0.5q-0.25 0.8125 -0.5625 1.625q2.25 -0.1875 4.3125 -0.5l0.1875 1.3125q-2.4375 0.1875 -4.875 0.375q-0.625 1.25 -1.25 2.0z" fill-rule="nonzero"></path><path fill="#000000" d="m47.37926 49.946285q1.125 -0.75 1.75 -1.5625l-3.125 0q0.4375 0.875 1.375 1.5625zm-1.125 -2.5625l3.5 0l0.1875 -0.3125l1.0625 0.75q0.3125 0.25 -0.125 0.3125q-0.9375 1.3125 -2.5 2.5q1.75 1.0 5.5 1.3125l-0.4375 1.375q-3.8125 -0.3125 -6.125 -1.875q-3.4375 1.875 -6.5625 2.1875l-0.5 -1.3125q3.375 -0.3125 6.0625 -1.75q-0.5 -0.5 -1.1875 -1.5q-1.9375 1.75 -3.625 2.1875l-0.625 -1.0625q3.1875 -1.0625 4.75 -3.875l1.0 0.375q0.3125 0.1875 -0.125 0.25l-0.25 0.4375zm2.75 -1.875q0 1.0625 -0.9375 1.0625l-0.875 0l-0.3125 -1.1875l0.6875 0q0.1875 0 0.1875 -0.1875l0 -3.0625l-1.5625 0l0 1.3125q0 3.5625 -4.3125 4.625l-0.5625 -1.1875q3.625 -0.8125 3.625 -3.4375l0 -1.3125l-4.75 0l0 -1.1875l6.0 0l0 -1.875l1.375 0q0.625 0.125 0.0625 0.5l0 1.375l6.0 0l0 1.1875l-4.625 0l0 3.375zm-8.625 -0.625q1.5625 -0.8125 2.5625 -2.125l1.125 0.875q0.1875 0.25 -0.25 0.25q-0.9375 1.3125 -2.6875 2.1875l-0.75 -1.1875zm10.0625 -2.0625q1.875 1.0 3.0 2.1875l-1.0625 1.25q-1.4375 -1.4375 -2.8125 -2.3125l0.875 -1.125zm6.4375 1.125q5.5625 -0.375 7.125004 -0.625l0.5 -0.25l1.0625 1.0625q-2.3750038 1.6875 -4.000004 3.4375q1.25 -0.1875 1.625 -0.0625q0.6875 0.25 0.6875 1.0625l0 2.125q0 0.75 0.7500038 0.6875l3.625 0l-0.25 1.375l-3.125 0q-2.2500038 0 -2.2500038 -1.9375l0 -1.5625q0 -0.75 -0.9375 -0.75q-0.8125 0 -1.625 0.75q-1.625 1.5 -3.0625 3.25l-1.125 -0.75q3.0 -3.5 7.0625 -7.125l-5.625 0.6875l-0.4375 -1.375zm7.500004 -2.3125q-2.8125038 -0.0625 -5.812504 -0.375l0.1875 -1.4375q2.375 0.5 5.812504 0.5l-0.1875 1.3125zm18.4375 0.625q-2.1875 0 -3.4375 0.4375q-1.375 0.5 -2.5625 1.6875q-1.1875 1.1875 -1.1875 3.0625q0 1.5 0.9375 2.4375q1.25 1.25 4.8125 1.375l-0.5 1.375q-3.6875 -0.1875 -5.125 -1.625q-1.4375 -1.4375 -1.4375 -3.5q0 -2.9375 2.3125 -4.625q-2.9375 0.4375 -6.0 0.875l-0.375 -1.4375q6.125 -0.4375 12.3125 -1.5l0.25 1.4375zm4.25 9.6875l11.75 0l0 1.0l-11.75 0l0 0.5l-1.25 0l0 -7.875l1.1875 0q0.5 0.0625 0.0625 0.375l0 6.0zm6.8125 -10.25l2.3125 0l0 -1.3125l-2.3125 0l0 1.3125zm-1.0625 0l0 -1.3125l-2.25 0l0 1.3125l2.25 0zm-3.3125 0l0 -1.3125l-2.3125 0l0 1.3125l2.3125 0zm-3.5625 0.75l0 -2.8125l11.5 0l0 2.8125l-4.9375 0l0 0.875l6.1875 0l0 1.0l-6.1875 0l0 0.875l3.875 0l0 6.0l-7.8125 0l0 -6.0l2.6875 0l0 -0.875l-6.75 0l0 -1.0l6.75 0l0 -0.875l-2.625 0l-2.6875 0zm9.375 4.4375l0 -0.9375l-5.6875 0l0 0.9375l5.6875 0zm0 1.75l0 -1.0l-5.6875 0l0 1.0l5.6875 0zm0 1.8125l0 -1.0625l-5.6875 0l0 1.0625l5.6875 0zm11.875 -7.625q0.25 0.75 0.75 1.5625q2.0 -0.3125 3.9375 -0.875l0.5625 1.3125q-1.625 0.375 -3.8125 0.6875q0.9375 1.25 2.4375 2.375l-1.0625 1.0625q-2.25 -0.5 -3.5625 -0.5q-2.5 0 -3.25 0.75q-0.4375 0.4375 -0.4375 0.9375q0 0.625 0.375 1.0q0.5 0.5 2.8125 0.5l3.8125 0l-0.25 1.375l-3.8125 0q-2.5 0 -3.5 -1.0q-0.75 -0.75 -0.75 -1.9375q0 -0.9375 0.6875 -1.625q1.0625 -1.0625 4.375 -1.0625q1.125 0 2.25 0.1875q-0.875 -0.9375 -1.5625 -1.8125q-2.9375 0.375 -6.4375 0.375l-0.1875 -1.3125q3.1875 0.0625 6.0 -0.25q-0.4375 -0.8125 -0.6875 -1.5625q-2.3125 0.1875 -4.8125 0.1875l-0.125 -1.25q2.5625 0.0625 4.625 -0.125q-0.3125 -1.125 -0.5 -2.5625l1.375 0q0.625 0.125 0.0625 0.5q0.125 0.9375 0.3125 1.875q1.625 -0.1875 3.3125 -0.625l0.4375 1.25q-2.125 0.375 -3.375 0.5625zm14.125 5.875q2.5625 0.5625 5.0 1.75l-0.6875 1.375q-2.3125 -1.4375 -4.3125 -1.9375q0 1.625 -0.8125 2.4375q-0.75 0.75 -2.4375 0.75q-1.3125 0 -2.125 -0.8125q-0.5625 -0.5625 -0.5625 -1.5625q0 -0.875 0.625 -1.5q0.8125 -0.8125 2.5 -0.8125q0.5 0 1.5625 0.0625l0 -1.9375l-4.75 0.125l0 -1.25l4.75 -0.125l0 -2.1875l-5.875 0.1875l0 -1.25l5.875 -0.1875l0 -2.4375l1.125 0q0.6875 0.125 0.125 0.5l0 1.8125l5.125 -0.1875l0 1.25l-5.125 0.1875l0 2.25l4.0625 -0.125l0 1.25l-4.0625 0.125l0 2.25zm-1.3125 0.9375q-0.6875 -0.125 -1.375 -0.125q-1.25 0 -1.75 0.5q-0.3125 0.3125 -0.3125 0.8125q0 0.375 0.3125 0.6875q0.4375 0.4375 1.375 0.4375q0.75 0 1.25 -0.5q0.5625 -0.5625 0.5 -1.8125zm15.187492 -0.8125q-0.75 0.4375 -1.5625 0.4375q-1.0625 0 -1.625 -0.5625q-0.75 -0.75 -0.75 -1.6875q0 -1.0 0.75 -1.75q0.75 -0.75 1.875 -0.75q0.75 0 1.4375 0.1875l0 -1.375l-6.875 0.4375l-0.25 -1.3125l7.125 -0.3125l0 -2.9375l1.125 0q0.6875 0.125 0.125 0.5l0 2.375l5.3125153 -0.375l0 1.3125l-5.3125153 0.25l0 2.375q0.25 1.125 0.25 2.5q-0.0625 3.1875 -3.5625 5.375l-1.1875 -0.875q3.125 -1.8125 3.125 -3.8125zm-1.1875 -3.25q-0.6875 0 -1.125 0.4375q-0.375 0.375 -0.375 1.0q0 0.5625 0.3125 0.875q0.3125 0.3125 1.0 0.3125q0.6875 0 1.125 -0.4375q0.375 -0.375 0.375 -0.9375q0 -0.5625 -0.375 -0.9375q-0.3125 -0.3125 -0.9375 -0.3125z" fill-rule="nonzero"></path><path fill="#ffffff" d="m35.022316 162.85278l0 0c-2.789692 0 -5.0511875 -2.2614899 -5.0511875 -5.051178l0 -72.070854c0 -1.3396606 0.532177 -2.6244507 1.4794598 -3.5717316c0.9472809 -0.9472809 2.232071 -1.479454 3.5717278 -1.479454l91.881874 0c2.7897034 0 5.051193 2.2614899 5.051193 5.0511856l0 72.070854c0 2.789688 -2.2614899 5.051178 -5.051193 5.051178z" fill-rule="evenodd"></path><path stroke="#000000" stroke-width="1.0" stroke-linejoin="round" stroke-linecap="butt" d="m35.022316 162.85278l0 0c-2.789692 0 -5.0511875 -2.2614899 -5.0511875 -5.051178l0 -72.070854c0 -1.3396606 0.532177 -2.6244507 1.4794598 -3.5717316c0.9472809 -0.9472809 2.232071 -1.479454 3.5717278 -1.479454l91.881874 0c2.7897034 0 5.051193 2.2614899 5.051193 5.0511856l0 72.070854c0 2.789688 -2.2614899 5.051178 -5.051193 5.051178z" fill-rule="evenodd"></path><path fill="#000000" d="m49.761196 136.0943l4.234375 0q0.59375 0 0.59375 -0.53125l0 -1.25q0 -1.1875 -2.3125 -1.421875l0.59375 -1.484375q3.125 0.453125 3.125 2.375l0 2.53125q0 1.265625 -1.265625 1.265625l-4.671875 0l0.4375 1.921875l-1.625 0.296875l-0.453125 -2.21875l-4.890625 0l0 -1.421875q0.140625 -0.734375 0.59375 -0.0625l4.0 0l-0.953125 -3.859375l1.546875 -0.375l1.046875 4.234375zm6.671875 -10.46875q-6.0 -0.375 -10.15625 -0.375l0 2.828125q6.890625 0 8.90625 1.03125q3.1875 1.640625 4.59375 5.796875l-1.625 0.734375q-1.34375 -4.078125 -4.015625 -5.1875q-1.921875 -0.828125 -7.859375 -0.828125l0 2.90625l-1.640625 0l0 -8.90625q5.5 0 12.46875 0.4375q2.453125 0.15625 2.453125 2.234375l0 2.0l-1.640625 0.140625l0 -1.78125q0 -0.953125 -1.484375 -1.03125zm3.34375 -10.546875l0 1.484375l-7.34375 0q1.625 0.53125 4.0 2.90625l-1.625 1.03125q-1.859375 -2.515625 -6.15625 -3.9375l0 3.203125l-1.640625 0l0 -3.203125l-3.640625 0l0 -1.40625q0.15625 -0.734375 0.59375 -0.078125l3.046875 0l0 -3.328125l1.640625 0l0 3.328125l1.78125 0q1.109375 -2.140625 2.140625 -3.484375l1.78125 0.8125q-1.25 1.34375 -2.140625 2.671875l7.5625 0zm-3.859375 -11.34375l1.9375 0.4375q1.625 0.375 1.625 2.234375l0 2.515625q0 1.34375 -1.40625 1.34375l-14.328125 0l0 -1.640625q0.15625 -0.734375 0.59375 -0.078125l12.921875 0q0.59375 0 0.59375 -0.515625l0 -1.328125q0 -0.75 -0.671875 -0.890625l-1.9375 -0.375l0.671875 -1.703125z" fill-rule="nonzero"></path><path fill="#ffffff" d="m71.87664 73.42366l0 0c0 -2.789688 2.2614975 -5.0511856 5.0511856 -5.0511856l72.07086 0c1.3396454 0 2.6244354 0.5321808 3.5717163 1.4794617c0.9472809 0.9472809 1.4794617 2.232071 1.4794617 3.571724l0 91.88188c0 2.789688 -2.2614899 5.051178 -5.051178 5.051178l-72.07086 0c-2.789688 0 -5.0511856 -2.2614899 -5.0511856 -5.051178z" fill-rule="evenodd"></path><path stroke="#000000" stroke-width="1.0" stroke-linejoin="round" stroke-linecap="butt" d="m71.87664 73.42366l0 0c0 -2.789688 2.2614975 -5.0511856 5.0511856 -5.0511856l72.07086 0c1.3396454 0 2.6244354 0.5321808 3.5717163 1.4794617c0.9472809 0.9472809 1.4794617 2.232071 1.4794617 3.571724l0 91.88188c0 2.789688 -2.2614899 5.051178 -5.051178 5.051178l-72.07086 0c-2.789688 0 -5.0511856 -2.2614899 -5.0511856 -5.051178z" fill-rule="evenodd"></path><path fill="#000000" d="m96.26013 118.862724l-7.421875 0l0 -1.640625l15.21875 0l0 1.640625l-6.078125 0l0 0.96875q0 4.671875 -3.34375 7.71875l-1.484375 -1.109375q3.109375 -2.453125 3.109375 -6.609375l0 -0.96875zm-4.75 -4.53125l0 -1.625l9.140625 0l0 1.625l-9.140625 0zm10.09375 -3.046875q0.96875 0.96875 2.078125 2.609375l-1.03125 0.734375q-1.046875 -1.484375 -2.078125 -2.671875l1.03125 -0.671875zm1.78125 -0.953125q0.96875 1.03125 2.078125 2.515625l-1.03125 0.75q-1.1875 -1.640625 -2.078125 -2.53125l1.03125 -0.734375zm15.3671875 6.890625q-0.515625 4.828125 -2.671875 6.984375q-2.15625 2.15625 -5.640625 3.421875l-0.96875 -1.421875q3.421875 -1.109375 5.34375 -3.046875q2.078125 -2.078125 2.375 -7.046875l1.5625 0.515625q0.671875 0.234375 0 0.59375zm-6.3125 2.671875q-0.890625 -2.0 -1.78125 -3.328125l1.421875 -0.75q1.109375 1.40625 1.921875 3.34375l-1.5625 0.734375zm-3.78125 1.125q-0.890625 -2.078125 -1.859375 -3.5l1.484375 -0.734375q1.046875 1.40625 1.859375 3.40625l-1.484375 0.828125zm28.578125 -0.53125l-6.90625 0.75l1.40625 6.015625l-1.625 0.375l-1.40625 -6.171875l-7.578125 0.890625l-0.21875 -1.5625l7.421875 -0.8125l-0.75 -3.484375l-5.046875 0.59375l-0.296875 -1.5625l4.90625 -0.515625l-0.75 -3.421875l1.5625 -0.296875q0.671875 -0.0625 0.21875 0.53125l0.59375 2.96875l5.421875 -0.75l0.296875 1.5625l-5.265625 0.671875l0.734375 3.484375l6.984375 -0.8125l0.296875 1.546875z" fill-rule="nonzero"></path></g></svg>

