<?xml version="1.0" encoding="UTF-8" standalone="no"?><svg xmlns="http://www.w3.org/2000/svg" xmlns:xlink="http://www.w3.org/1999/xlink" contentScriptType="application/ecmascript" contentStyleType="text/css" height="1211px" preserveAspectRatio="none" style="width:551px;height:1211px;" version="1.1" viewBox="0 0 551 1211" width="551px" zoomAndPan="magnify"><defs><filter height="300%" id="f1s23mlpsbo96s" width="300%" x="-1" y="-1"><feGaussianBlur result="blurOut" stdDeviation="2.0"/><feColorMatrix in="blurOut" result="blurOut2" type="matrix" values="0 0 0 0 0 0 0 0 0 0 0 0 0 0 0 0 0 0 .4 0"/><feOffset dx="4.0" dy="4.0" in="blurOut2" result="blurOut3"/><feBlend in="SourceGraphic" in2="blurOut3" mode="normal"/></filter></defs><g><ellipse cx="418.5" cy="16" fill="#000000" filter="url(#f1s23mlpsbo96s)" rx="10" ry="10" style="stroke: none; stroke-width: 1.0;"/><rect fill="#FEFECE" filter="url(#f1s23mlpsbo96s)" height="35.7031" rx="12.5" ry="12.5" style="stroke: #A80036; stroke-width: 1.5;" width="95" x="371" y="67"/><text fill="#000000" font-family="sans-serif" font-size="12" lengthAdjust="spacingAndGlyphs" textLength="75" x="381" y="89.5156">[1]ゲーム開始</text><rect fill="#FEFECE" filter="url(#f1s23mlpsbo96s)" height="35.7031" rx="12.5" ry="12.5" style="stroke: #A80036; stroke-width: 1.5;" width="227" x="305" y="144"/><text fill="#000000" font-family="sans-serif" font-size="12" lengthAdjust="spacingAndGlyphs" textLength="207" x="315" y="166.5156">[2]ターンプレイヤーにチャンスを移動</text><rect fill="#FEFECE" filter="url(#f1s23mlpsbo96s)" height="35.7031" rx="12.5" ry="12.5" style="stroke: #A80036; stroke-width: 1.5;" width="131" x="353" y="221"/><text fill="#000000" font-family="sans-serif" font-size="12" lengthAdjust="spacingAndGlyphs" textLength="111" x="363" y="243.5156">[3]ステージが空か？</text><polygon fill="#FEFECE" filter="url(#f1s23mlpsbo96s)" points="260.5,298,272.5,310,260.5,322,248.5,310,260.5,298" style="stroke: #A80036; stroke-width: 1.5;"/><rect fill="#FEFECE" filter="url(#f1s23mlpsbo96s)" height="35.7031" rx="12.5" ry="12.5" style="stroke: #A80036; stroke-width: 1.5;" width="131" x="58" y="550"/><text fill="#000000" font-family="sans-serif" font-size="12" lengthAdjust="spacingAndGlyphs" textLength="111" x="68" y="572.5156">[4]パス名簿リセット</text><rect fill="#FEFECE" filter="url(#f1s23mlpsbo96s)" height="35.7031" rx="12.5" ry="12.5" style="stroke: #A80036; stroke-width: 1.5;" width="131" x="7" y="627"/><text fill="#000000" font-family="sans-serif" font-size="12" lengthAdjust="spacingAndGlyphs" textLength="111" x="17" y="649.5156">[5]アクション起こす</text><rect fill="#FEFECE" filter="url(#f1s23mlpsbo96s)" height="35.7031" rx="12.5" ry="12.5" style="stroke: #A80036; stroke-width: 1.5;" width="107" x="45" y="704"/><text fill="#000000" font-family="sans-serif" font-size="12" lengthAdjust="spacingAndGlyphs" textLength="87" x="55" y="726.5156">[6]即時効果か？</text><polygon fill="#FEFECE" filter="url(#f1s23mlpsbo96s)" points="113.5,802,125.5,814,113.5,826,101.5,814,113.5,802" style="stroke: #A80036; stroke-width: 1.5;"/><rect fill="#FEFECE" filter="url(#f1s23mlpsbo96s)" height="35.7031" rx="12.5" ry="12.5" style="stroke: #A80036; stroke-width: 1.5;" width="83" x="72" y="888"/><text fill="#000000" font-family="sans-serif" font-size="12" lengthAdjust="spacingAndGlyphs" textLength="63" x="82" y="910.5156">[7]効果解決</text><rect fill="#FEFECE" filter="url(#f1s23mlpsbo96s)" height="35.7031" rx="12.5" ry="12.5" style="stroke: #A80036; stroke-width: 1.5;" width="83" x="72" y="1000"/><text fill="#000000" font-family="sans-serif" font-size="12" lengthAdjust="spacingAndGlyphs" textLength="63" x="82" y="1022.5156">[8]勝敗判定</text><polygon fill="#FEFECE" filter="url(#f1s23mlpsbo96s)" points="113.5,1077,125.5,1089,113.5,1101,101.5,1089,113.5,1077" style="stroke: #A80036; stroke-width: 1.5;"/><ellipse cx="96.5" cy="1175" fill="none" filter="url(#f1s23mlpsbo96s)" rx="10" ry="10" style="stroke: #000000; stroke-width: 1.0;"/><ellipse cx="97" cy="1175.5" fill="#000000" rx="6" ry="6" style="stroke: none; stroke-width: 1.0;"/><rect fill="#FEFECE" filter="url(#f1s23mlpsbo96s)" height="35.7031" rx="12.5" ry="12.5" style="stroke: #A80036; stroke-width: 1.5;" width="114" x="150.5" y="1157"/><text fill="#000000" font-family="sans-serif" font-size="12" lengthAdjust="spacingAndGlyphs" textLength="94" x="160.5" y="1179.5156">[10]誘発チェック</text><rect fill="#FEFECE" filter="url(#f1s23mlpsbo96s)" height="35.7031" rx="12.5" ry="12.5" style="stroke: #A80036; stroke-width: 1.5;" width="119" x="139" y="944"/><text fill="#000000" font-family="sans-serif" font-size="12" lengthAdjust="spacingAndGlyphs" textLength="99" x="149" y="966.5156">[9]ステージに追加</text><rect fill="#FEFECE" filter="url(#f1s23mlpsbo96s)" height="35.7031" rx="12.5" ry="12.5" style="stroke: #A80036; stroke-width: 1.5;" width="174" x="173.5" y="378"/><text fill="#000000" font-family="sans-serif" font-size="12" lengthAdjust="spacingAndGlyphs" textLength="154" x="183.5" y="400.5156">[11]アクションを起こすか？</text><polygon fill="#FEFECE" filter="url(#f1s23mlpsbo96s)" points="260.5,470,272.5,482,260.5,494,248.5,482,260.5,470" style="stroke: #A80036; stroke-width: 1.5;"/><rect fill="#FEFECE" filter="url(#f1s23mlpsbo96s)" height="35.7031" rx="12.5" ry="12.5" style="stroke: #A80036; stroke-width: 1.5;" width="126" x="209.5" y="550"/><text fill="#000000" font-family="sans-serif" font-size="12" lengthAdjust="spacingAndGlyphs" textLength="106" x="219.5" y="572.5156">[12]パス名簿に登録</text><rect fill="#FEFECE" filter="url(#f1s23mlpsbo96s)" height="35.7031" rx="12.5" ry="12.5" style="stroke: #A80036; stroke-width: 1.5;" width="229" x="158" y="627"/><text fill="#000000" font-family="sans-serif" font-size="12" lengthAdjust="spacingAndGlyphs" textLength="209" x="168" y="649.5156">[13]パス名簿の件数=プレイヤー数か？</text><polygon fill="#FEFECE" filter="url(#f1s23mlpsbo96s)" points="272.5,710,284.5,722,272.5,734,260.5,722,272.5,710" style="stroke: #A80036; stroke-width: 1.5;"/><rect fill="#FEFECE" filter="url(#f1s23mlpsbo96s)" height="35.7031" rx="12.5" ry="12.5" style="stroke: #A80036; stroke-width: 1.5;" width="150" x="145.5" y="796"/><text fill="#000000" font-family="sans-serif" font-size="12" lengthAdjust="spacingAndGlyphs" textLength="130" x="155.5" y="818.5156">[14]ステージから取出し</text><rect fill="#FEFECE" filter="url(#f1s23mlpsbo96s)" height="35.7031" rx="12.5" ry="12.5" style="stroke: #A80036; stroke-width: 1.5;" width="114" x="315.5" y="796"/><text fill="#000000" font-family="sans-serif" font-size="12" lengthAdjust="spacingAndGlyphs" textLength="94" x="325.5" y="818.5156">[15]チャンス移動</text><!--MD5=[0aae323e7347e1675aa0af38f9c3328f]
link start to [1]ゲーム開始--><path d="M418.5,26.04 C418.5,35.16 418.5,49.61 418.5,61.8 " fill="none" id="start-&gt;[1]ゲーム開始" style="stroke: #A80036; stroke-width: 1.0;"/><polygon fill="#A80036" points="418.5,66.87,422.5,57.87,418.5,61.87,414.5,57.87,418.5,66.87" style="stroke: #A80036; stroke-width: 1.0;"/><!--MD5=[e35976fa085434ff20dd2ef7974d1fcb]
link [1]ゲーム開始 to [2]ターンプレイヤーにチャンスを移動--><path d="M418.5,103.02 C418.5,113.59 418.5,127.29 418.5,138.72 " fill="none" id="[1]ゲーム開始-&gt;[2]ターンプレイヤーにチャンスを移動" style="stroke: #A80036; stroke-width: 1.0;"/><polygon fill="#A80036" points="418.5,143.79,422.5,134.79,418.5,138.79,414.5,134.79,418.5,143.79" style="stroke: #A80036; stroke-width: 1.0;"/><!--MD5=[a6faff74d8c715883e2ccb680d614716]
link [2]ターンプレイヤーにチャンスを移動 to [3]ステージが空か？--><path d="M418.5,180.02 C418.5,190.59 418.5,204.29 418.5,215.72 " fill="none" id="[2]ターンプレイヤーにチャンスを移動-&gt;[3]ステージが空か？" style="stroke: #A80036; stroke-width: 1.0;"/><polygon fill="#A80036" points="418.5,220.79,422.5,211.79,418.5,215.79,414.5,211.79,418.5,220.79" style="stroke: #A80036; stroke-width: 1.0;"/><!--MD5=[0491329cd00d9f6d280f0a40a56a3055]
link [3]ステージが空か？ to #9--><path d="M379.44,257.06 C344.61,272.27 295.72,293.62 273.01,303.54 " fill="none" id="[3]ステージが空か？-&gt;#9" style="stroke: #A80036; stroke-width: 1.0;"/><polygon fill="#A80036" points="268.32,305.58,278.1686,305.6485,272.9031,303.5812,274.9705,298.3156,268.32,305.58" style="stroke: #A80036; stroke-width: 1.0;"/><text fill="#000000" font-family="sans-serif" font-size="11" lengthAdjust="spacingAndGlyphs" textLength="0" x="277.326" y="287.0603"/><!--MD5=[c424da8a897b4a52031ec1221c4356bc]
link #9 to [4]パス名簿リセット--><path d="M252.43,314.09 C233.56,321.77 186.41,343.59 163.5,378 C128.77,430.15 123.43,506.83 123.08,544.47 " fill="none" id="#9-&gt;[4]パス名簿リセット" style="stroke: #A80036; stroke-width: 1.0;"/><polygon fill="#A80036" points="123.06,549.74,127.0857,540.7515,123.0743,544.74,119.0857,540.7286,123.06,549.74" style="stroke: #A80036; stroke-width: 1.0;"/><text fill="#000000" font-family="sans-serif" font-size="11" lengthAdjust="spacingAndGlyphs" textLength="18" x="139.5" y="446.4727">YES</text><!--MD5=[2cc86ed693879847df87d20958149608]
link [4]パス名簿リセット to [5]アクション起こす--><path d="M111.93,586.02 C104.55,596.87 94.92,611.03 87.03,622.64 " fill="none" id="[4]パス名簿リセット-&gt;[5]アクション起こす" style="stroke: #A80036; stroke-width: 1.0;"/><polygon fill="#A80036" points="84.2,626.79,92.5744,621.6064,87.0162,622.6586,85.9641,617.1004,84.2,626.79" style="stroke: #A80036; stroke-width: 1.0;"/><!--MD5=[fcac6adea2baba9b93a39a6252f771e7]
link [5]アクション起こす to [6]即時効果か？--><path d="M78.4,663.02 C82.1,673.68 86.9,687.54 90.88,699.03 " fill="none" id="[5]アクション起こす-&gt;[6]即時効果か？" style="stroke: #A80036; stroke-width: 1.0;"/><polygon fill="#A80036" points="92.53,703.79,93.3548,693.9757,90.8891,699.0669,85.7979,696.6012,92.53,703.79" style="stroke: #A80036; stroke-width: 1.0;"/><!--MD5=[dbac4420d05f9b306b6c204a95db7f62]
link [6]即時効果か？ to #18--><path d="M101.39,740.35 C104.21,757.24 108.44,782.61 111.08,798.47 " fill="none" id="[6]即時効果か？-&gt;#18" style="stroke: #A80036; stroke-width: 1.0;"/><polygon fill="#A80036" points="111.91,803.45,114.3625,793.9114,111.0811,798.5192,106.4733,795.2377,111.91,803.45" style="stroke: #A80036; stroke-width: 1.0;"/><text fill="#000000" font-family="sans-serif" font-size="11" lengthAdjust="spacingAndGlyphs" textLength="0" x="110.1719" y="791.1617"/><!--MD5=[6b4dabf7e94be0ab8778a3350aec0a5f]
link #18 to [7]効果解決--><path d="M113.5,826.04 C113.5,839.99 113.5,864.36 113.5,882.34 " fill="none" id="#18-&gt;[7]効果解決" style="stroke: #A80036; stroke-width: 1.0;"/><polygon fill="#A80036" points="113.5,887.7,117.5,878.7,113.5,882.7,109.5,878.7,113.5,887.7" style="stroke: #A80036; stroke-width: 1.0;"/><text fill="#000000" font-family="sans-serif" font-size="11" lengthAdjust="spacingAndGlyphs" textLength="18" x="114.5" y="864.4727">YES</text><!--MD5=[cd334fb327783aaa1211622d690ccda9]
link [7]効果解決 to [8]勝敗判定--><path d="M113.5,924.19 C113.5,943.24 113.5,974.02 113.5,994.86 " fill="none" id="[7]効果解決-&gt;[8]勝敗判定" style="stroke: #A80036; stroke-width: 1.0;"/><polygon fill="#A80036" points="113.5,999.93,117.5,990.93,113.5,994.93,109.5,990.93,113.5,999.93" style="stroke: #A80036; stroke-width: 1.0;"/><!--MD5=[d8a9d7946790536878eed6c867c47778]
link [8]勝敗判定 to #25--><path d="M113.5,1036.06 C113.5,1046.93 113.5,1060.94 113.5,1071.67 " fill="none" id="[8]勝敗判定-&gt;#25" style="stroke: #A80036; stroke-width: 1.0;"/><polygon fill="#A80036" points="113.5,1076.95,117.5,1067.95,113.5,1071.95,109.5,1067.95,113.5,1076.95" style="stroke: #A80036; stroke-width: 1.0;"/><text fill="#000000" font-family="sans-serif" font-size="11" lengthAdjust="spacingAndGlyphs" textLength="0" x="112.8438" y="1066.1746"/><!--MD5=[5918fae9b63acc7819f0ab59a97e1b1c]
link #25 to end--><path d="M108.51,1096.72 C104.37,1102.73 98.82,1111.96 96.5,1121 C93.23,1133.75 93.62,1148.8 94.59,1159.6 " fill="none" id="#25-&gt;end" style="stroke: #A80036; stroke-width: 1.0;"/><polygon fill="#A80036" points="95.14,1164.83,98.166,1155.4575,94.6114,1159.858,90.2109,1156.3033,95.14,1164.83" style="stroke: #A80036; stroke-width: 1.0;"/><text fill="#000000" font-family="sans-serif" font-size="11" lengthAdjust="spacingAndGlyphs" textLength="22" x="97.5" y="1133.4727">決着</text><!--MD5=[4671fff15a884df35d6102e9075ff3dc]
link #25 to [10]誘発チェック--><path d="M117.22,1097.41 C122.47,1107.34 132.85,1125.09 145.5,1137 C152.27,1143.38 160.34,1149.17 168.37,1154.18 " fill="none" id="#25-&gt;[10]誘発チェック" style="stroke: #A80036; stroke-width: 1.0;"/><polygon fill="#A80036" points="172.82,1156.88,167.212,1148.7837,168.549,1154.2803,163.0524,1155.6173,172.82,1156.88" style="stroke: #A80036; stroke-width: 1.0;"/><text fill="#000000" font-family="sans-serif" font-size="11" lengthAdjust="spacingAndGlyphs" textLength="44" x="146.5" y="1133.4727">それ以外</text><!--MD5=[a69bbaa77e91f5eeb23eae6b4fdffb10]
link #18 to [9]ステージに追加--><path d="M118.39,821.2 C127.96,833.49 149.52,862.01 164.5,888 C174.03,904.54 183.07,924.21 189.43,938.96 " fill="none" id="#18-&gt;[9]ステージに追加" style="stroke: #A80036; stroke-width: 1.0;"/><polygon fill="#A80036" points="191.48,943.76,191.6372,933.9124,189.5225,939.1591,184.2758,937.0444,191.48,943.76" style="stroke: #A80036; stroke-width: 1.0;"/><text fill="#000000" font-family="sans-serif" font-size="11" lengthAdjust="spacingAndGlyphs" textLength="16" x="153.5" y="864.4727">NO</text><!--MD5=[429205ef10a6119a2676289bf43da024]
link [9]ステージに追加 to [10]誘発チェック--><path d="M199.24,980.27 C200.86,1018.3 204.74,1109.3 206.55,1151.63 " fill="none" id="[9]ステージに追加-&gt;[10]誘発チェック" style="stroke: #A80036; stroke-width: 1.0;"/><polygon fill="#A80036" points="206.77,1156.79,210.381,1147.627,206.5559,1151.7946,202.3883,1147.9695,206.77,1156.79" style="stroke: #A80036; stroke-width: 1.0;"/><!--MD5=[60ebffa12838e6527345f917b1d01e62]
link [10]誘発チェック to [3]ステージが空か？--><path d="M264.59,1166.69 C339.21,1155.5 460.5,1131.02 460.5,1090 C460.5,309 460.5,309 460.5,309 C460.5,290.95 449.89,273.61 439.33,260.83 " fill="none" id="[10]誘発チェック-&gt;[3]ステージが空か？" style="stroke: #A80036; stroke-width: 1.0;"/><polygon fill="#A80036" points="436.07,257.02,438.8696,266.4626,439.3157,260.8233,444.9549,261.2694,436.07,257.02" style="stroke: #A80036; stroke-width: 1.0;"/><!--MD5=[54796b90a3b9e04290e4923b2ceaf9cb]
link #9 to [11]アクションを起こすか？--><path d="M260.5,322.33 C260.5,335.12 260.5,356.27 260.5,372.46 " fill="none" id="#9-&gt;[11]アクションを起こすか？" style="stroke: #A80036; stroke-width: 1.0;"/><polygon fill="#A80036" points="260.5,377.74,264.5,368.74,260.5,372.74,256.5,368.74,260.5,377.74" style="stroke: #A80036; stroke-width: 1.0;"/><text fill="#000000" font-family="sans-serif" font-size="11" lengthAdjust="spacingAndGlyphs" textLength="16" x="261.5" y="354.4727">NO</text><!--MD5=[35c56d16ad278fc81727b07ccde3f5b2]
link [11]アクションを起こすか？ to #38--><path d="M260.5,414.4 C260.5,429.13 260.5,450.08 260.5,464.53 " fill="none" id="[11]アクションを起こすか？-&gt;#38" style="stroke: #A80036; stroke-width: 1.0;"/><polygon fill="#A80036" points="260.5,469.53,264.5,460.53,260.5,464.53,256.5,460.53,260.5,469.53" style="stroke: #A80036; stroke-width: 1.0;"/><text fill="#000000" font-family="sans-serif" font-size="11" lengthAdjust="spacingAndGlyphs" textLength="0" x="259.8813" y="459.0527"/><!--MD5=[75369aff05f756c9261ca518dd50e7e6]
link #38 to [4]パス名簿リセット--><path d="M253.52,487.28 C235.78,498.16 188.07,527.41 155.65,547.29 " fill="none" id="#38-&gt;[4]パス名簿リセット" style="stroke: #A80036; stroke-width: 1.0;"/><polygon fill="#A80036" points="151.38,549.9,161.1425,548.5989,155.6407,547.2835,156.9561,541.7817,151.38,549.9" style="stroke: #A80036; stroke-width: 1.0;"/><text fill="#000000" font-family="sans-serif" font-size="11" lengthAdjust="spacingAndGlyphs" textLength="18" x="209.5" y="526.4727">YES</text><!--MD5=[4acc517f628b2e8a8e68cfc44e3eed69]
link #38 to [12]パス名簿に登録--><path d="M261.88,492.64 C263.68,505.29 266.91,527.89 269.34,544.86 " fill="none" id="#38-&gt;[12]パス名簿に登録" style="stroke: #A80036; stroke-width: 1.0;"/><polygon fill="#A80036" points="270.06,549.93,272.7355,540.4515,269.3469,544.9811,264.8173,541.5925,270.06,549.93" style="stroke: #A80036; stroke-width: 1.0;"/><text fill="#000000" font-family="sans-serif" font-size="11" lengthAdjust="spacingAndGlyphs" textLength="16" x="267.5" y="526.4727">NO</text><!--MD5=[b6f17b2c8b43176a66378b459229e9c6]
link [12]パス名簿に登録 to [13]パス名簿の件数=プレイヤー数か？--><path d="M272.5,586.02 C272.5,596.59 272.5,610.29 272.5,621.72 " fill="none" id="[12]パス名簿に登録-&gt;[13]パス名簿の件数=プレイヤー数か？" style="stroke: #A80036; stroke-width: 1.0;"/><polygon fill="#A80036" points="272.5,626.79,276.5,617.79,272.5,621.79,268.5,617.79,272.5,626.79" style="stroke: #A80036; stroke-width: 1.0;"/><!--MD5=[60c83847de56246521a06cc17fa8453f]
link [13]パス名簿の件数=プレイヤー数か？ to #46--><path d="M272.5,663.02 C272.5,675.46 272.5,692.24 272.5,704.55 " fill="none" id="[13]パス名簿の件数=プレイヤー数か？-&gt;#46" style="stroke: #A80036; stroke-width: 1.0;"/><polygon fill="#A80036" points="272.5,709.86,276.5,700.86,272.5,704.86,268.5,700.86,272.5,709.86" style="stroke: #A80036; stroke-width: 1.0;"/><text fill="#000000" font-family="sans-serif" font-size="11" lengthAdjust="spacingAndGlyphs" textLength="0" x="271.8438" y="699.0452"/><!--MD5=[90c31734d4bc455dd4ee2381fdabb6f8]
link #46 to [14]ステージから取出し--><path d="M268.42,730.06 C260.85,743.16 244.36,771.7 232.85,791.62 " fill="none" id="#46-&gt;[14]ステージから取出し" style="stroke: #A80036; stroke-width: 1.0;"/><polygon fill="#A80036" points="230.33,795.98,238.3093,790.2067,232.8414,791.6565,231.3916,786.1885,230.33,795.98" style="stroke: #A80036; stroke-width: 1.0;"/><text fill="#000000" font-family="sans-serif" font-size="11" lengthAdjust="spacingAndGlyphs" textLength="18" x="251.5" y="772.4727">YES</text><!--MD5=[14cac9806cfa8a926c8746e5715994d4]
link [14]ステージから取出し to [7]効果解決--><path d="M219.5,832.14 C217.99,843.55 214.32,858.18 205.5,868 C193.72,881.11 176.64,889.65 160.39,895.19 " fill="none" id="[14]ステージから取出し-&gt;[7]効果解決" style="stroke: #A80036; stroke-width: 1.0;"/><polygon fill="#A80036" points="155.38,896.81,165.175,897.8383,160.1361,895.2675,162.707,890.2286,155.38,896.81" style="stroke: #A80036; stroke-width: 1.0;"/><!--MD5=[9e42ba3bc976e3803c66bfc43d11cdb5]
link #46 to [15]チャンス移動--><path d="M278.46,728.36 C292.13,740.67 326.37,771.48 349.54,792.33 " fill="none" id="#46-&gt;[15]チャンス移動" style="stroke: #A80036; stroke-width: 1.0;"/><polygon fill="#A80036" points="353.44,795.85,349.4262,786.8561,349.7235,792.5052,344.0745,792.8025,353.44,795.85" style="stroke: #A80036; stroke-width: 1.0;"/><text fill="#000000" font-family="sans-serif" font-size="11" lengthAdjust="spacingAndGlyphs" textLength="16" x="328.5" y="772.4727">NO</text><!--MD5=[26a5b96428f0a893a9f152df046373b0]
link [15]チャンス移動 to [3]ステージが空か？--><path d="M387.56,795.72 C400.98,778.51 418.5,750.73 418.5,723 C418.5,309 418.5,309 418.5,309 C418.5,293.35 418.5,275.7 418.5,262.17 " fill="none" id="[15]チャンス移動-&gt;[3]ステージが空か？" style="stroke: #A80036; stroke-width: 1.0;"/><polygon fill="#A80036" points="418.5,257.01,414.5,266.01,418.5,262.01,422.5,266.01,418.5,257.01" style="stroke: #A80036; stroke-width: 1.0;"/><!--MD5=[7b8f67b5bdb3071305c33ba464a375ae]
@startuml
(*) - -> "[1]ゲーム開始"
- -> "[2]ターンプレイヤーにチャンスを移動"
- ->"[3]ステージが空か？"

if "" then
    - ->[YES] "[4]パス名簿リセット"
    - -> "[5]アクション起こす"
    - -> "[6]即時効果か？"
    if "" then
        - ->[YES] "[7]効果解決"
        - -> "[8]勝敗判定"
        if "" then
            - ->[決着] (*)
        else
            - ->[それ以外] "[10]誘発チェック"
        endif
    else
        - ->[NO] "[9]ステージに追加"
        - -> "[10]誘発チェック"
    endif
    - -> "[3]ステージが空か？"
else
    - ->[NO] "[11]アクションを起こすか？"
    if "" then
        - ->[YES] "[4]パス名簿リセット"
    else
        - -> [NO] "[12]パス名簿に登録"
        - -> "[13]パス名簿の件数=プレイヤー数か？"
        if "" then
            - ->[YES] ”[14]ステージから取出し”
            - -> "[7]効果解決"
        else
            - -> [NO] "[15]チャンス移動"
            - -> "[3]ステージが空か？"
        endif
    endif
endif
@enduml

PlantUML version 1.2020.14(Sat Jun 20 14:14:34 GMT 2020)
(GPL source distribution)
Java Runtime: OpenJDK Runtime Environment
JVM: OpenJDK 64-Bit Server VM
Default Encoding: UTF-8
Language: ja
Country: JP
--></g></svg>