<?xml version="1.0" encoding="UTF-8" standalone="no"?><svg xmlns="http://www.w3.org/2000/svg" xmlns:xlink="http://www.w3.org/1999/xlink" contentScriptType="application/ecmascript" contentStyleType="text/css" height="959px" preserveAspectRatio="none" style="width:581px;height:959px;" version="1.1" viewBox="0 0 581 959" width="581px" zoomAndPan="magnify"><defs><filter height="300%" id="f1rzi5qewlrbbg" width="300%" x="-1" y="-1"><feGaussianBlur result="blurOut" stdDeviation="2.0"/><feColorMatrix in="blurOut" result="blurOut2" type="matrix" values="0 0 0 0 0 0 0 0 0 0 0 0 0 0 0 0 0 0 .4 0"/><feOffset dx="4.0" dy="4.0" in="blurOut2" result="blurOut3"/><feBlend in="SourceGraphic" in2="blurOut3" mode="normal"/></filter></defs><g><ellipse cx="211" cy="16" fill="#000000" filter="url(#f1rzi5qewlrbbg)" rx="10" ry="10" style="stroke: none; stroke-width: 1.0;"/><rect fill="#FEFECE" filter="url(#f1rzi5qewlrbbg)" height="35.7031" rx="12.5" ry="12.5" style="stroke: #A80036; stroke-width: 1.5;" width="95" x="163.5" y="67"/><text fill="#000000" font-family="sans-serif" font-size="12" lengthAdjust="spacingAndGlyphs" textLength="75" x="173.5" y="89.5156">[1]ゲーム開始</text><rect fill="#FEFECE" filter="url(#f1rzi5qewlrbbg)" height="35.7031" rx="12.5" ry="12.5" style="stroke: #A80036; stroke-width: 1.5;" width="227" x="97.5" y="144"/><text fill="#000000" font-family="sans-serif" font-size="12" lengthAdjust="spacingAndGlyphs" textLength="207" x="107.5" y="166.5156">[2]ターンプレイヤーにチャンスを移動</text><rect fill="#FEFECE" filter="url(#f1rzi5qewlrbbg)" height="35.7031" rx="12.5" ry="12.5" style="stroke: #A80036; stroke-width: 1.5;" width="131" x="145.5" y="221"/><text fill="#000000" font-family="sans-serif" font-size="12" lengthAdjust="spacingAndGlyphs" textLength="111" x="155.5" y="243.5156">[3]ステージが空か？</text><polygon fill="#FEFECE" filter="url(#f1rzi5qewlrbbg)" points="211,298,223,310,211,322,199,310,211,298" style="stroke: #A80036; stroke-width: 1.5;"/><rect fill="#FEFECE" filter="url(#f1rzi5qewlrbbg)" height="35.7031" rx="12.5" ry="12.5" style="stroke: #A80036; stroke-width: 1.5;" width="131" x="37.5" y="378"/><text fill="#000000" font-family="sans-serif" font-size="12" lengthAdjust="spacingAndGlyphs" textLength="111" x="47.5" y="400.5156">(4)パス名簿リセット</text><rect fill="#FEFECE" filter="url(#f1rzi5qewlrbbg)" height="35.7031" rx="12.5" ry="12.5" style="stroke: #A80036; stroke-width: 1.5;" width="131" x="37.5" y="455"/><text fill="#000000" font-family="sans-serif" font-size="12" lengthAdjust="spacingAndGlyphs" textLength="111" x="47.5" y="477.5156">[5]アクション起こす</text><rect fill="#FEFECE" filter="url(#f1rzi5qewlrbbg)" height="35.7031" rx="12.5" ry="12.5" style="stroke: #A80036; stroke-width: 1.5;" width="107" x="43.5" y="547"/><text fill="#000000" font-family="sans-serif" font-size="12" lengthAdjust="spacingAndGlyphs" textLength="87" x="53.5" y="569.5156">[6]即時効果か？</text><polygon fill="#FEFECE" filter="url(#f1rzi5qewlrbbg)" points="97,630,109,642,97,654,85,642,97,630" style="stroke: #A80036; stroke-width: 1.5;"/><rect fill="#FEFECE" filter="url(#f1rzi5qewlrbbg)" height="35.7031" rx="12.5" ry="12.5" style="stroke: #A80036; stroke-width: 1.5;" width="83" x="38.5" y="716"/><text fill="#000000" font-family="sans-serif" font-size="12" lengthAdjust="spacingAndGlyphs" textLength="63" x="48.5" y="738.5156">(7)効果解決</text><rect fill="#FEFECE" filter="url(#f1rzi5qewlrbbg)" height="35.7031" rx="12.5" ry="12.5" style="stroke: #A80036; stroke-width: 1.5;" width="83" x="37.5" y="828"/><text fill="#000000" font-family="sans-serif" font-size="12" lengthAdjust="spacingAndGlyphs" textLength="63" x="47.5" y="850.5156">[8]勝敗判定</text><rect fill="#FEFECE" filter="url(#f1rzi5qewlrbbg)" height="35.7031" rx="12.5" ry="12.5" style="stroke: #A80036; stroke-width: 1.5;" width="114" x="22" y="905"/><text fill="#000000" font-family="sans-serif" font-size="12" lengthAdjust="spacingAndGlyphs" textLength="94" x="32" y="927.5156">[10]誘発チェック</text><rect fill="#FEFECE" filter="url(#f1rzi5qewlrbbg)" height="35.7031" rx="12.5" ry="12.5" style="stroke: #A80036; stroke-width: 1.5;" width="119" x="94.5" y="772"/><text fill="#000000" font-family="sans-serif" font-size="12" lengthAdjust="spacingAndGlyphs" textLength="99" x="104.5" y="794.5156">[9]ステージに追加</text><rect fill="#FEFECE" filter="url(#f1rzi5qewlrbbg)" height="35.7031" rx="12.5" ry="12.5" style="stroke: #A80036; stroke-width: 1.5;" width="174" x="189" y="378"/><text fill="#000000" font-family="sans-serif" font-size="12" lengthAdjust="spacingAndGlyphs" textLength="154" x="199" y="400.5156">[11]アクションを起こすか？</text><polygon fill="#FEFECE" filter="url(#f1rzi5qewlrbbg)" points="276,461,288,473,276,485,264,473,276,461" style="stroke: #A80036; stroke-width: 1.5;"/><rect fill="#FEFECE" filter="url(#f1rzi5qewlrbbg)" height="35.7031" rx="12.5" ry="12.5" style="stroke: #A80036; stroke-width: 1.5;" width="131" x="170.5" y="547"/><text fill="#000000" font-family="sans-serif" font-size="12" lengthAdjust="spacingAndGlyphs" textLength="111" x="180.5" y="569.5156">[4]パス名簿リセット</text><rect fill="#FEFECE" filter="url(#f1rzi5qewlrbbg)" height="35.7031" rx="12.5" ry="12.5" style="stroke: #A80036; stroke-width: 1.5;" width="126" x="322" y="547"/><text fill="#000000" font-family="sans-serif" font-size="12" lengthAdjust="spacingAndGlyphs" textLength="106" x="332" y="569.5156">[12]パス名簿に登録</text><rect fill="#FEFECE" filter="url(#f1rzi5qewlrbbg)" height="35.7031" rx="12.5" ry="12.5" style="stroke: #A80036; stroke-width: 1.5;" width="229" x="244.5" y="624"/><text fill="#000000" font-family="sans-serif" font-size="12" lengthAdjust="spacingAndGlyphs" textLength="209" x="254.5" y="646.5156">[13]パス名簿の件数=プレイヤー数か？</text><polygon fill="#FEFECE" filter="url(#f1rzi5qewlrbbg)" points="359,722,371,734,359,746,347,734,359,722" style="stroke: #A80036; stroke-width: 1.5;"/><rect fill="#FEFECE" filter="url(#f1rzi5qewlrbbg)" height="35.7031" rx="12.5" ry="12.5" style="stroke: #A80036; stroke-width: 1.5;" width="150" x="278" y="828"/><text fill="#000000" font-family="sans-serif" font-size="12" lengthAdjust="spacingAndGlyphs" textLength="130" x="288" y="850.5156">[14]ステージから取出し</text><rect fill="#FEFECE" filter="url(#f1rzi5qewlrbbg)" height="35.7031" rx="12.5" ry="12.5" style="stroke: #A80036; stroke-width: 1.5;" width="83" x="311.5" y="905"/><text fill="#000000" font-family="sans-serif" font-size="12" lengthAdjust="spacingAndGlyphs" textLength="63" x="321.5" y="927.5156">[7]効果解決</text><rect fill="#FEFECE" filter="url(#f1rzi5qewlrbbg)" height="35.7031" rx="12.5" ry="12.5" style="stroke: #A80036; stroke-width: 1.5;" width="114" x="448" y="828"/><text fill="#000000" font-family="sans-serif" font-size="12" lengthAdjust="spacingAndGlyphs" textLength="94" x="458" y="850.5156">[15]チャンス移動</text><!--MD5=[0aae323e7347e1675aa0af38f9c3328f]
link start to [1]ゲーム開始--><path d="M211,26.04 C211,35.16 211,49.61 211,61.8 " fill="none" id="start-&gt;[1]ゲーム開始" style="stroke: #A80036; stroke-width: 1.0;"/><polygon fill="#A80036" points="211,66.87,215,57.87,211,61.87,207,57.87,211,66.87" style="stroke: #A80036; stroke-width: 1.0;"/><!--MD5=[e35976fa085434ff20dd2ef7974d1fcb]
link [1]ゲーム開始 to [2]ターンプレイヤーにチャンスを移動--><path d="M211,103.02 C211,113.59 211,127.29 211,138.72 " fill="none" id="[1]ゲーム開始-&gt;[2]ターンプレイヤーにチャンスを移動" style="stroke: #A80036; stroke-width: 1.0;"/><polygon fill="#A80036" points="211,143.79,215,134.79,211,138.79,207,134.79,211,143.79" style="stroke: #A80036; stroke-width: 1.0;"/><!--MD5=[a6faff74d8c715883e2ccb680d614716]
link [2]ターンプレイヤーにチャンスを移動 to [3]ステージが空か？--><path d="M211,180.02 C211,190.59 211,204.29 211,215.72 " fill="none" id="[2]ターンプレイヤーにチャンスを移動-&gt;[3]ステージが空か？" style="stroke: #A80036; stroke-width: 1.0;"/><polygon fill="#A80036" points="211,220.79,215,211.79,211,215.79,207,211.79,211,220.79" style="stroke: #A80036; stroke-width: 1.0;"/><!--MD5=[0491329cd00d9f6d280f0a40a56a3055]
link [3]ステージが空か？ to #9--><path d="M211,257.06 C211,267.93 211,281.94 211,292.67 " fill="none" id="[3]ステージが空か？-&gt;#9" style="stroke: #A80036; stroke-width: 1.0;"/><polygon fill="#A80036" points="211,297.95,215,288.95,211,292.95,207,288.95,211,297.95" style="stroke: #A80036; stroke-width: 1.0;"/><text fill="#000000" font-family="sans-serif" font-size="11" lengthAdjust="spacingAndGlyphs" textLength="0" x="210.3438" y="287.1746"/><!--MD5=[093f48162f2482de0a7c4293d83db36e]
link #9 to (4)パス名簿リセット--><path d="M204.57,316 C190.06,327.29 154.1,355.25 129.12,374.68 " fill="none" id="#9-&gt;(4)パス名簿リセット" style="stroke: #A80036; stroke-width: 1.0;"/><polygon fill="#A80036" points="124.9,377.97,134.4581,375.5948,128.8445,374.8973,129.5419,369.2836,124.9,377.97" style="stroke: #A80036; stroke-width: 1.0;"/><text fill="#000000" font-family="sans-serif" font-size="11" lengthAdjust="spacingAndGlyphs" textLength="18" x="171" y="354.4727">YES</text><!--MD5=[33a64cca760144312817b736b59a4d89]
link (4)パス名簿リセット to [5]アクション起こす--><path d="M103,414.02 C103,424.59 103,438.29 103,449.72 " fill="none" id="(4)パス名簿リセット-&gt;[5]アクション起こす" style="stroke: #A80036; stroke-width: 1.0;"/><polygon fill="#A80036" points="103,454.79,107,445.79,103,449.79,99,445.79,103,454.79" style="stroke: #A80036; stroke-width: 1.0;"/><!--MD5=[fcac6adea2baba9b93a39a6252f771e7]
link [5]アクション起こす to [6]即時効果か？--><path d="M101.84,491.35 C100.89,505.67 99.53,526.09 98.49,541.63 " fill="none" id="[5]アクション起こす-&gt;[6]即時効果か？" style="stroke: #A80036; stroke-width: 1.0;"/><polygon fill="#A80036" points="98.15,546.7,102.7332,537.9825,98.4788,541.7108,94.7505,537.4564,98.15,546.7" style="stroke: #A80036; stroke-width: 1.0;"/><!--MD5=[dbac4420d05f9b306b6c204a95db7f62]
link [6]即時効果か？ to #18--><path d="M97,583.02 C97,595.46 97,612.24 97,624.55 " fill="none" id="[6]即時効果か？-&gt;#18" style="stroke: #A80036; stroke-width: 1.0;"/><polygon fill="#A80036" points="97,629.86,101,620.86,97,624.86,93,620.86,97,629.86" style="stroke: #A80036; stroke-width: 1.0;"/><text fill="#000000" font-family="sans-serif" font-size="11" lengthAdjust="spacingAndGlyphs" textLength="0" x="96.3438" y="619.0452"/><!--MD5=[40766542abada42325c852d88cc1f36b]
link #18 to (7)効果解決--><path d="M95.24,652.29 C92.65,666 87.73,692.06 84.18,710.86 " fill="none" id="#18-&gt;(7)効果解決" style="stroke: #A80036; stroke-width: 1.0;"/><polygon fill="#A80036" points="83.22,715.96,88.8215,707.8592,84.1483,711.0469,80.9606,706.3738,83.22,715.96" style="stroke: #A80036; stroke-width: 1.0;"/><text fill="#000000" font-family="sans-serif" font-size="11" lengthAdjust="spacingAndGlyphs" textLength="18" x="91" y="692.4727">YES</text><!--MD5=[39986f8f699fb3b4d20d9a508971d25c]
link (7)効果解決 to [8]勝敗判定--><path d="M79.84,752.19 C79.67,771.24 79.39,802.02 79.2,822.86 " fill="none" id="(7)効果解決-&gt;[8]勝敗判定" style="stroke: #A80036; stroke-width: 1.0;"/><polygon fill="#A80036" points="79.16,827.93,83.237,818.9646,79.2029,822.9302,75.2373,818.896,79.16,827.93" style="stroke: #A80036; stroke-width: 1.0;"/><!--MD5=[d0bc9ef1adf0b88198973de788baf57b]
link [8]勝敗判定 to [10]誘発チェック--><path d="M79,864.02 C79,874.59 79,888.29 79,899.72 " fill="none" id="[8]勝敗判定-&gt;[10]誘発チェック" style="stroke: #A80036; stroke-width: 1.0;"/><polygon fill="#A80036" points="79,904.79,83,895.79,79,899.79,75,895.79,79,904.79" style="stroke: #A80036; stroke-width: 1.0;"/><!--MD5=[a69bbaa77e91f5eeb23eae6b4fdffb10]
link #18 to [9]ステージに追加--><path d="M100.8,650.62 C104.5,658.07 110.24,669.77 115,680 C122.39,695.87 124.8,699.62 131,716 C137.37,732.82 143.43,752.27 147.73,766.86 " fill="none" id="#18-&gt;[9]ステージに追加" style="stroke: #A80036; stroke-width: 1.0;"/><polygon fill="#A80036" points="149.24,772,150.56,762.24,147.84,767.2,142.88,764.48,149.24,772" style="stroke: #A80036; stroke-width: 1.0;"/><text fill="#000000" font-family="sans-serif" font-size="11" lengthAdjust="spacingAndGlyphs" textLength="16" x="124" y="692.4727">NO</text><!--MD5=[429205ef10a6119a2676289bf43da024]
link [9]ステージに追加 to [10]誘発チェック--><path d="M150.46,808.04 C146.81,823.37 140.2,846.16 130,864 C122.29,877.48 111.13,890.63 101.2,900.99 " fill="none" id="[9]ステージに追加-&gt;[10]誘発チェック" style="stroke: #A80036; stroke-width: 1.0;"/><polygon fill="#A80036" points="97.61,904.68,106.759,901.0335,101.1025,901.102,101.0341,895.4455,97.61,904.68" style="stroke: #A80036; stroke-width: 1.0;"/><!--MD5=[60ebffa12838e6527345f917b1d01e62]
link [10]誘発チェック to [3]ステージが空か？--><path d="M46.77,904.87 C27.21,891.91 6,872.08 6,847 C6,309 6,309 6,309 C6,279.92 81.05,260.77 140.33,250.18 " fill="none" id="[10]誘発チェック-&gt;[3]ステージが空か？" style="stroke: #A80036; stroke-width: 1.0;"/><polygon fill="#A80036" points="145.29,249.3,135.7298,246.9329,140.3668,250.173,137.1267,254.81,145.29,249.3" style="stroke: #A80036; stroke-width: 1.0;"/><!--MD5=[54796b90a3b9e04290e4923b2ceaf9cb]
link #9 to [11]アクションを起こすか？--><path d="M215.89,317.31 C225.05,329.16 245.21,355.21 259.66,373.88 " fill="none" id="#9-&gt;[11]アクションを起こすか？" style="stroke: #A80036; stroke-width: 1.0;"/><polygon fill="#A80036" points="262.83,377.98,260.4764,368.4165,259.7662,374.0286,254.1541,373.3185,262.83,377.98" style="stroke: #A80036; stroke-width: 1.0;"/><text fill="#000000" font-family="sans-serif" font-size="11" lengthAdjust="spacingAndGlyphs" textLength="16" x="247" y="354.4727">NO</text><!--MD5=[4e30731c8934ae58e262f527ae60f999]
link [11]アクションを起こすか？ to #33--><path d="M276,414.02 C276,426.46 276,443.24 276,455.55 " fill="none" id="[11]アクションを起こすか？-&gt;#33" style="stroke: #A80036; stroke-width: 1.0;"/><polygon fill="#A80036" points="276,460.86,280,451.86,276,455.86,272,451.86,276,460.86" style="stroke: #A80036; stroke-width: 1.0;"/><text fill="#000000" font-family="sans-serif" font-size="11" lengthAdjust="spacingAndGlyphs" textLength="0" x="275.3438" y="450.0452"/><!--MD5=[9d9740372be05c3057101723b346e8f6]
link #33 to [4]パス名簿リセット--><path d="M272.59,481.67 C266.7,494.92 254.43,522.53 245.72,542.12 " fill="none" id="#33-&gt;[4]パス名簿リセット" style="stroke: #A80036; stroke-width: 1.0;"/><polygon fill="#A80036" points="243.59,546.92,250.8967,540.316,245.618,542.3498,243.5843,537.0711,243.59,546.92" style="stroke: #A80036; stroke-width: 1.0;"/><text fill="#000000" font-family="sans-serif" font-size="11" lengthAdjust="spacingAndGlyphs" textLength="18" x="260" y="523.4727">YES</text><!--MD5=[2a4f43eb8f535e53d4b84ffc9db5a1fd]
link #33 to [12]パス名簿に登録--><path d="M282.17,479.1 C296.88,491.24 334.65,522.43 360.09,543.43 " fill="none" id="#33-&gt;[12]パス名簿に登録" style="stroke: #A80036; stroke-width: 1.0;"/><polygon fill="#A80036" points="364.06,546.71,359.6486,537.9043,360.1979,543.5345,354.5677,544.0838,364.06,546.71" style="stroke: #A80036; stroke-width: 1.0;"/><text fill="#000000" font-family="sans-serif" font-size="11" lengthAdjust="spacingAndGlyphs" textLength="16" x="339" y="523.4727">NO</text><!--MD5=[b6f17b2c8b43176a66378b459229e9c6]
link [12]パス名簿に登録 to [13]パス名簿の件数=プレイヤー数か？--><path d="M379.1,583.02 C375.4,593.68 370.6,607.54 366.62,619.03 " fill="none" id="[12]パス名簿に登録-&gt;[13]パス名簿の件数=プレイヤー数か？" style="stroke: #A80036; stroke-width: 1.0;"/><polygon fill="#A80036" points="364.97,623.79,371.7021,616.6012,366.6109,619.0669,364.1452,613.9757,364.97,623.79" style="stroke: #A80036; stroke-width: 1.0;"/><!--MD5=[8248122d6bb70b68bfd56b2f70f9ab25]
link [13]パス名簿の件数=プレイヤー数か？ to #42--><path d="M359,660.35 C359,676.69 359,700.97 359,716.89 " fill="none" id="[13]パス名簿の件数=プレイヤー数か？-&gt;#42" style="stroke: #A80036; stroke-width: 1.0;"/><polygon fill="#A80036" points="359,721.94,363,712.94,359,716.94,355,712.94,359,721.94" style="stroke: #A80036; stroke-width: 1.0;"/><text fill="#000000" font-family="sans-serif" font-size="11" lengthAdjust="spacingAndGlyphs" textLength="0" x="358.3438" y="711.1602"/><!--MD5=[1fb732292ea15b99f87ed92acb3af97f]
link #42 to [14]ステージから取出し--><path d="M358.42,745.55 C357.46,763.24 355.49,799.28 354.21,822.77 " fill="none" id="#42-&gt;[14]ステージから取出し" style="stroke: #A80036; stroke-width: 1.0;"/><polygon fill="#A80036" points="353.93,827.87,358.4133,819.1008,354.2018,822.8774,350.4252,818.6659,353.93,827.87" style="stroke: #A80036; stroke-width: 1.0;"/><text fill="#000000" font-family="sans-serif" font-size="11" lengthAdjust="spacingAndGlyphs" textLength="18" x="358" y="794.4727">YES</text><!--MD5=[14cac9806cfa8a926c8746e5715994d4]
link [14]ステージから取出し to [7]効果解決--><path d="M353,864.02 C353,874.59 353,888.29 353,899.72 " fill="none" id="[14]ステージから取出し-&gt;[7]効果解決" style="stroke: #A80036; stroke-width: 1.0;"/><polygon fill="#A80036" points="353,904.79,357,895.79,353,899.79,349,895.79,353,904.79" style="stroke: #A80036; stroke-width: 1.0;"/><!--MD5=[02a65083b81278a5dd200bf6c6c02547]
link #42 to [15]チャンス移動--><path d="M365.27,739.73 C384.47,754.19 443.22,798.46 478.13,824.76 " fill="none" id="#42-&gt;[15]チャンス移動" style="stroke: #A80036; stroke-width: 1.0;"/><polygon fill="#A80036" points="482.27,827.87,477.5045,819.2509,478.282,824.854,472.6789,825.6316,482.27,827.87" style="stroke: #A80036; stroke-width: 1.0;"/><text fill="#000000" font-family="sans-serif" font-size="11" lengthAdjust="spacingAndGlyphs" textLength="16" x="455" y="794.4727">NO</text><!--MD5=[26a5b96428f0a893a9f152df046373b0]
link [15]チャンス移動 to [3]ステージが空か？--><path d="M505,827.85 C505,806.21 505,767.85 505,735 C505,309 505,309 505,309 C505,263.31 368.74,247.85 281.75,242.64 " fill="none" id="[15]チャンス移動-&gt;[3]ステージが空か？" style="stroke: #A80036; stroke-width: 1.0;"/><polygon fill="#A80036" points="276.61,242.34,285.3543,246.8718,281.601,242.6395,285.8334,238.8862,276.61,242.34" style="stroke: #A80036; stroke-width: 1.0;"/><!--MD5=[0037ba797b0baca33ec60bcfbacb95d8]
@startuml
(*) - -> "[1]ゲーム開始"
- -> "[2]ターンプレイヤーにチャンスを移動"
- ->"[3]ステージが空か？"

if "" then
    - ->[YES] "(4)パス名簿リセット"
    - -> "[5]アクション起こす"
    - -> "[6]即時効果か？"
    if "" then
        - ->[YES] "(7)効果解決"
        - -> "[8]勝敗判定"
        - -> "[10]誘発チェック"
    else
        - ->[NO] "[9]ステージに追加"
        - -> "[10]誘発チェック"
    endif
    - -> "[3]ステージが空か？"
else
    - ->[NO] "[11]アクションを起こすか？"
    if "" then
        - ->[YES] "[4]パス名簿リセット"
    else
        - -> [NO] "[12]パス名簿に登録"
        - -> "[13]パス名簿の件数=プレイヤー数か？"
        if "" then
            - ->[YES] ”[14]ステージから取出し”
            - -> "[7]効果解決"
        else
            - -> [NO] "[15]チャンス移動"
            - -> "[3]ステージが空か？"
        endif
    endif
endif
@enduml

PlantUML version 1.2020.14(Sat Jun 20 14:14:34 GMT 2020)
(GPL source distribution)
Java Runtime: OpenJDK Runtime Environment
JVM: OpenJDK 64-Bit Server VM
Default Encoding: UTF-8
Language: ja
Country: JP
--></g></svg>