<?xml version="1.0" encoding="UTF-8" standalone="no"?>
<!DOCTYPE svg PUBLIC "-//W3C//DTD SVG 20010904//EN"
              "http://www.w3.org/TR/2001/REC-SVG-20010904/DTD/svg10.dtd">
<!--
     width="5.61111in" height="5.55556in"
     -->
<svg xmlns="http://www.w3.org/2000/svg"
     width="32px" height="32px"
     viewBox="0 0 404 400">
  <path id="blackpoker"
        fill="black" stroke="none" stroke-width="1"
        fill-rule="evenodd"
        d="M 367.68,173.84
           C 367.60,180.63 365.89,188.20 363.02,194.35
             360.07,200.64 357.76,204.80 352.96,209.96
             347.44,215.89 341.86,219.98 334.49,223.33
             325.98,227.20 317.41,228.62 308.14,228.51
             263.24,227.99 237.76,177.78 261.81,140.65
             271.38,125.88 285.51,118.80 302.28,115.70
             338.07,111.11 368.10,137.67 367.68,173.84 Z
           M 259.68,315.84
           C 259.60,322.63 257.89,330.20 255.02,336.35
             252.07,342.64 249.76,346.80 244.96,351.96
             239.44,357.89 233.86,361.98 226.49,365.33
             217.98,369.20 209.41,370.62 200.14,370.51
             155.24,369.99 129.76,319.78 153.81,282.65
             163.38,267.88 177.51,260.80 194.28,257.70
             230.07,253.11 260.10,279.67 259.68,315.84 Z
           M 153.68,173.84
           C 153.60,180.63 151.89,188.20 149.02,194.35
             146.07,200.64 143.76,204.80 138.96,209.96
             133.44,215.89 127.86,219.98 120.49,223.33
             111.98,227.20 103.41,228.62 94.14,228.51
             49.24,227.99 23.76,177.78 47.81,140.65
             57.38,125.88 71.51,118.80 88.28,115.70
             124.07,111.11 154.10,137.67 153.68,173.84 Z
           M 139.23,369.36
           C 121.90,352.01 113.24,331.08 113.24,306.55
             113.24,289.35 117.93,273.17 127.30,258.02
             117.69,261.31 107.86,262.96 97.79,262.96
             73.56,262.96 52.71,254.41 35.22,237.32
             17.29,219.76 8.32,198.44 8.32,173.36
             8.32,148.76 17.08,127.75 34.60,110.34
             52.14,92.94 73.35,84.24 98.22,84.24
             114.25,84.24 130.05,88.86 145.62,98.11
             161.21,107.37 172.46,119.29 179.38,133.85
             180.01,129.61 180.32,124.81 180.32,119.47
             180.32,99.50 177.01,79.13 170.40,58.36
             162.84,34.76 153.09,18.33 141.14,9.05
             140.35,8.42 139.95,7.55 139.95,6.44
             139.95,4.40 140.98,3.37 143.02,3.37
             143.02,3.37 261.54,3.37 261.54,3.37
             263.58,3.37 264.60,4.40 264.60,6.44
             264.60,7.55 264.21,8.42 263.42,9.05
             251.38,18.47 241.69,35.15 234.37,59.09
             227.95,79.85 224.74,100.37 224.74,120.63
             224.74,125.52 224.98,129.93 225.44,133.85
             228.87,122.42 239.25,111.30 256.59,100.47
             273.95,89.65 290.45,84.24 306.10,84.24
             330.77,84.24 351.81,92.94 369.22,110.34
             386.66,127.75 395.37,148.76 395.37,173.36
             395.37,198.44 386.40,219.76 368.45,237.32
             350.96,254.41 330.19,262.96 306.15,262.96
             296.15,262.96 286.39,261.31 276.86,258.02
             286.60,272.87 291.48,289.05 291.48,306.55
             291.48,331.08 282.78,352.01 265.38,369.36
             247.98,386.72 226.98,395.40 202.36,395.40
             177.60,395.40 156.55,386.72 139.23,369.36 Z" />
</svg>
