<?xml version="1.0" encoding="us-ascii" standalone="no"?><svg xmlns="http://www.w3.org/2000/svg" xmlns:xlink="http://www.w3.org/1999/xlink" contentStyleType="text/css" height="1057px" preserveAspectRatio="none" style="width:665px;height:1057px;background:#FFFFFF;" version="1.1" viewBox="0 0 665 1057" width="665px" zoomAndPan="magnify"><defs/><g><ellipse cx="423" cy="20" fill="#222222" rx="10" ry="10" style="stroke:#222222;stroke-width:1.0;"/><rect fill="#F1F1F1" height="51.4063" rx="12.5" ry="12.5" style="stroke:#181818;stroke-width:0.5;" width="248" x="299" y="50"/><text fill="#000000" font-family="sans-serif" font-size="12" lengthAdjust="spacing" textLength="218" x="309" y="72.5156">[6-1]&#35480;&#30330;&#12375;&#12383;&#12450;&#12463;&#12471;&#12519;&#12531;&#12434;&#12503;&#12524;&#12452;&#12516;&#12540;&#27598;</text><text fill="#000000" font-family="sans-serif" font-size="12" lengthAdjust="spacing" textLength="228" x="309" y="88.2188">&#12398;&#35480;&#30330;&#21363;&#26178;&#12522;&#12473;&#12488;&#12392;&#35480;&#30330;&#36890;&#24120;&#12522;&#12473;&#12488;&#12395;&#36861;&#21152;</text><rect fill="none" height="526.498" style="stroke:#000000;stroke-width:1.5;" width="582" x="45" y="183.8008"/><path d="M269,183.8008 L269,195.1211 L259,205.1211 L45,205.1211 " fill="none" style="stroke:#000000;stroke-width:1.5;"/><text fill="#000000" font-family="sans-serif" font-size="14" lengthAdjust="spacing" textLength="214" x="48" y="199.4023">&#21363;&#26178;&#21177;&#26524;:&#12503;&#12524;&#12452;&#12516;&#12540;&#21336;&#20301;&#12395;&#32368;&#36820;&#12375;</text><path d="M65,448.957 L65,492.9805 L255,492.9805 L255,458.957 L245,448.957 L65,448.957 " fill="#FEFFDD" style="stroke:#181818;stroke-width:0.5;"/><path d="M245,448.957 L245,458.957 L255,458.957 L245,448.957 " fill="#FEFFDD" style="stroke:#181818;stroke-width:0.5;"/><text fill="#000000" font-family="sans-serif" font-size="13" lengthAdjust="spacing" textLength="169" x="71" y="467.5156">&#38918;&#30058;&#12399;&#12479;&#12540;&#12531;&#12503;&#12524;&#12452;&#12516;&#12540;&#12363;&#12425;</text><text fill="#000000" font-family="sans-serif" font-size="13" lengthAdjust="spacing" textLength="130" x="71" y="484.5273">&#12479;&#12540;&#12531;&#12364;&#22238;&#12427;&#38918;&#12395;&#34892;&#12358;</text><rect fill="none" height="370.7715" style="stroke:#000000;stroke-width:1.5;" width="316" x="277" y="283.5273"/><path d="M501,283.5273 L501,294.8477 L491,304.8477 L277,304.8477 " fill="none" style="stroke:#000000;stroke-width:1.5;"/><text fill="#000000" font-family="sans-serif" font-size="14" lengthAdjust="spacing" textLength="214" x="280" y="299.1289">&#21363;&#26178;&#21177;&#26524;:&#12450;&#12463;&#12471;&#12519;&#12531;&#21336;&#20301;&#12395;&#32368;&#36820;&#12375;</text><rect fill="#F1F1F1" height="35.7031" rx="12.5" ry="12.5" style="stroke:#181818;stroke-width:0.5;" width="202" x="322" y="393.2539"/><text fill="#000000" font-family="sans-serif" font-size="12" lengthAdjust="spacing" textLength="182" x="332" y="415.7695">[6-5]&#21363;&#26178;&#21177;&#26524;&#12398;&#12450;&#12463;&#12471;&#12519;&#12531;&#12434;&#35299;&#27770;</text><polygon fill="#F1F1F1" points="390,463.6836,456,463.6836,468,475.6836,456,487.6836,390,487.6836,378,475.6836,390,463.6836" style="stroke:#181818;stroke-width:0.5;"/><text fill="#000000" font-family="sans-serif" font-size="11" lengthAdjust="spacing" textLength="66" x="390" y="479.959">[6-6]&#21213;&#25943;&#21028;&#23450;</text><text fill="#000000" font-family="sans-serif" font-size="11" lengthAdjust="spacing" textLength="22" x="468" y="472.7617">&#27770;&#30528;</text><ellipse cx="512" cy="475.6836" fill="none" rx="11" ry="11" style="stroke:#222222;stroke-width:1.0;"/><ellipse cx="512" cy="475.6836" fill="#222222" rx="6" ry="6" style="stroke:#222222;stroke-width:1.0;"/><rect fill="#F1F1F1" height="51.4063" rx="12.5" ry="12.5" style="stroke:#181818;stroke-width:0.5;" width="248" x="299" y="530.6836"/><text fill="#000000" font-family="sans-serif" font-size="12" lengthAdjust="spacing" textLength="218" x="309" y="553.1992">[6-7]&#35480;&#30330;&#12375;&#12383;&#12450;&#12463;&#12471;&#12519;&#12531;&#12434;&#12503;&#12524;&#12452;&#12516;&#12540;&#27598;</text><text fill="#000000" font-family="sans-serif" font-size="12" lengthAdjust="spacing" textLength="228" x="309" y="568.9023">&#12398;&#35480;&#30330;&#21363;&#26178;&#12522;&#12473;&#12488;&#12392;&#35480;&#30330;&#36890;&#24120;&#12522;&#12473;&#12488;&#12395;&#36861;&#21152;</text><rect fill="#F1F1F1" height="51.4063" rx="12.5" ry="12.5" style="stroke:#181818;stroke-width:0.5;" width="214" x="316" y="321.8477"/><text fill="#000000" font-family="sans-serif" font-size="12" lengthAdjust="spacing" textLength="194" x="326" y="344.3633">[6-4]&#35480;&#30330;&#21363;&#26178;&#12522;&#12473;&#12488;&#12363;&#12425;&#21363;&#26178;&#21177;&#26524;&#12398;</text><text fill="#000000" font-family="sans-serif" font-size="12" lengthAdjust="spacing" textLength="139" x="326" y="360.0664">&#12450;&#12463;&#12471;&#12519;&#12531;&#12434;1&#12388;&#21462;&#12426;&#20986;&#12377;</text><polygon fill="#F1F1F1" points="299,618.2988,547,618.2988,559,630.2988,547,642.2988,299,642.2988,287,630.2988,299,618.2988" style="stroke:#181818;stroke-width:0.5;"/><text fill="#000000" font-family="sans-serif" font-size="11" lengthAdjust="spacing" textLength="248" x="299" y="634.5742">[6-8]&#35480;&#30330;&#21363;&#26178;&#12522;&#12473;&#12488;&#12398;&#20214;&#25968;&#12364;0&#20214;&#12391;&#12394;&#12369;&#12400;&#32368;&#12426;&#36820;&#12377;</text><text fill="#000000" font-family="sans-serif" font-size="11" lengthAdjust="spacing" textLength="18" x="559" y="627.377">YES</text><rect fill="#F1F1F1" height="51.4063" rx="12.5" ry="12.5" style="stroke:#181818;stroke-width:0.5;" width="214" x="316" y="222.1211"/><text fill="#000000" font-family="sans-serif" font-size="12" lengthAdjust="spacing" textLength="194" x="326" y="244.6367">[6-3]&#12503;&#12524;&#12452;&#12516;&#12540;&#27598;&#12395;&#35480;&#30330;&#21363;&#26178;&#12522;&#12473;&#12488;</text><text fill="#000000" font-family="sans-serif" font-size="12" lengthAdjust="spacing" textLength="168" x="326" y="260.3398">&#12398;&#21363;&#26178;&#21177;&#26524;&#12398;&#12450;&#12463;&#12471;&#12519;&#12531;&#12434;&#35299;&#27770;</text><polygon fill="#F1F1F1" points="277,674.2988,569,674.2988,581,686.2988,569,698.2988,277,698.2988,265,686.2988,277,674.2988" style="stroke:#181818;stroke-width:0.5;"/><text fill="#000000" font-family="sans-serif" font-size="11" lengthAdjust="spacing" textLength="292" x="277" y="690.5742">[6-9]&#20840;&#12390;&#12398;&#35480;&#30330;&#21363;&#26178;&#12522;&#12473;&#12488;&#12398;&#20214;&#25968;&#12364;0&#20214;&#12391;&#12394;&#12369;&#12428;&#12400;&#32368;&#12426;&#36820;&#12377;</text><text fill="#000000" font-family="sans-serif" font-size="11" lengthAdjust="spacing" textLength="18" x="581" y="683.377">YES</text><rect fill="none" height="303.5391" style="stroke:#000000;stroke-width:1.5;" width="570" x="45" y="720.2988"/><path d="M269,720.2988 L269,731.6191 L259,741.6191 L45,741.6191 " fill="none" style="stroke:#000000;stroke-width:1.5;"/><text fill="#000000" font-family="sans-serif" font-size="14" lengthAdjust="spacing" textLength="214" x="48" y="735.9004">&#36890;&#24120;&#21177;&#26524;:&#12503;&#12524;&#12452;&#12516;&#12540;&#21336;&#20301;&#12395;&#32368;&#36820;&#12375;</text><path d="M65,863.2168 L65,907.2402 L255,907.2402 L255,873.2168 L245,863.2168 L65,863.2168 " fill="#FEFFDD" style="stroke:#181818;stroke-width:0.5;"/><path d="M245,863.2168 L245,873.2168 L255,873.2168 L245,863.2168 " fill="#FEFFDD" style="stroke:#181818;stroke-width:0.5;"/><text fill="#000000" font-family="sans-serif" font-size="13" lengthAdjust="spacing" textLength="169" x="71" y="881.7754">&#38918;&#30058;&#12399;&#12479;&#12540;&#12531;&#12503;&#12524;&#12452;&#12516;&#12540;&#12363;&#12425;</text><text fill="#000000" font-family="sans-serif" font-size="13" lengthAdjust="spacing" textLength="130" x="71" y="898.7871">&#12479;&#12540;&#12531;&#12364;&#22238;&#12427;&#38918;&#12395;&#34892;&#12358;</text><rect fill="#F1F1F1" height="51.4063" rx="12.5" ry="12.5" style="stroke:#181818;stroke-width:0.5;" width="185" x="330.5" y="830.0254"/><text fill="#000000" font-family="sans-serif" font-size="12" lengthAdjust="spacing" textLength="165" x="340.5" y="852.541">[6-11]&#36890;&#24120;&#21177;&#26524;&#12398;&#12450;&#12463;&#12471;&#12519;&#12531;&#12434;</text><text fill="#000000" font-family="sans-serif" font-size="12" lengthAdjust="spacing" textLength="144" x="340.5" y="868.2441">&#20219;&#24847;&#12398;&#38918;&#12391;&#12473;&#12486;&#12540;&#12472;&#12395;&#36861;&#21152;</text><rect fill="#F1F1F1" height="51.4063" rx="12.5" ry="12.5" style="stroke:#181818;stroke-width:0.5;" width="248" x="299" y="916.4316"/><text fill="#000000" font-family="sans-serif" font-size="12" lengthAdjust="spacing" textLength="225" x="309" y="938.9473">[6-12]&#35480;&#30330;&#12375;&#12383;&#12450;&#12463;&#12471;&#12519;&#12531;&#12434;&#12503;&#12524;&#12452;&#12516;&#12540;&#27598;</text><text fill="#000000" font-family="sans-serif" font-size="12" lengthAdjust="spacing" textLength="228" x="309" y="954.6504">&#12398;&#35480;&#30330;&#21363;&#26178;&#12522;&#12473;&#12488;&#12392;&#35480;&#30330;&#36890;&#24120;&#12522;&#12473;&#12488;&#12395;&#36861;&#21152;</text><rect fill="#F1F1F1" height="51.4063" rx="12.5" ry="12.5" style="stroke:#181818;stroke-width:0.5;" width="221" x="312.5" y="758.6191"/><text fill="#000000" font-family="sans-serif" font-size="12" lengthAdjust="spacing" textLength="201" x="322.5" y="781.1348">[6-10]&#12503;&#12524;&#12452;&#12516;&#12540;&#27598;&#12395;&#35480;&#30330;&#36890;&#24120;&#12522;&#12473;&#12488;</text><text fill="#000000" font-family="sans-serif" font-size="12" lengthAdjust="spacing" textLength="168" x="322.5" y="796.8379">&#12398;&#12450;&#12463;&#12471;&#12519;&#12531;&#12434;&#12473;&#12486;&#12540;&#12472;&#12395;&#36861;&#21152;</text><polygon fill="#F1F1F1" points="277,987.8379,569,987.8379,581,999.8379,569,1011.8379,277,1011.8379,265,999.8379,277,987.8379" style="stroke:#181818;stroke-width:0.5;"/><text fill="#000000" font-family="sans-serif" font-size="11" lengthAdjust="spacing" textLength="292" x="277" y="1004.1133">[6-13]&#35480;&#30330;&#12522;&#12473;&#12488;&#12395;&#36890;&#24120;&#21177;&#26524;&#12398;&#12450;&#12463;&#12471;&#12519;&#12531;&#12364;&#12354;&#12428;&#12400;&#32368;&#12426;&#36820;&#12377;</text><text fill="#000000" font-family="sans-serif" font-size="11" lengthAdjust="spacing" textLength="18" x="581" y="996.916">YES</text><polygon fill="#F1F1F1" points="291,121.4063,555,121.4063,567,133.4063,555,145.4063,291,145.4063,279,133.4063,291,121.4063" style="stroke:#181818;stroke-width:0.5;"/><text fill="#000000" font-family="sans-serif" font-size="11" lengthAdjust="spacing" textLength="39" x="427" y="156.8789">1&#20214;&#20197;&#19978;</text><text fill="#000000" font-family="sans-serif" font-size="11" lengthAdjust="spacing" textLength="264" x="291" y="137.6816">[6-2]&#35480;&#30330;&#21363;&#26178;&#12522;&#12473;&#12488;&#12289;&#35480;&#30330;&#36890;&#24120;&#12522;&#12473;&#12488;&#20840;&#20307;&#12398;&#20214;&#25968;&#21028;&#23450;</text><text fill="#000000" font-family="sans-serif" font-size="11" lengthAdjust="spacing" textLength="17" x="262" y="130.4844">0&#20214;</text><ellipse cx="24" cy="180.4063" fill="none" rx="11" ry="11" style="stroke:#222222;stroke-width:1.0;"/><ellipse cx="24" cy="180.4063" fill="#222222" rx="6" ry="6" style="stroke:#222222;stroke-width:1.0;"/><line style="stroke:#181818;stroke-width:1.0;" x1="423" x2="423" y1="30" y2="50"/><polygon fill="#181818" points="419,40,423,50,427,40,423,44" style="stroke:#181818;stroke-width:1.0;"/><line style="stroke:#181818;stroke-width:1.0;" x1="423" x2="423" y1="487.6836" y2="530.6836"/><polygon fill="#181818" points="419,520.6836,423,530.6836,427,520.6836,423,524.6836" style="stroke:#181818;stroke-width:1.0;"/><line style="stroke:#181818;stroke-width:1.0;" x1="468" x2="501" y1="475.6836" y2="475.6836"/><polygon fill="#181818" points="491,471.6836,501,475.6836,491,479.6836,495,475.6836" style="stroke:#181818;stroke-width:1.0;"/><line style="stroke:#181818;stroke-width:1.0;" x1="423" x2="423" y1="428.957" y2="463.6836"/><polygon fill="#181818" points="419,453.6836,423,463.6836,427,453.6836,423,457.6836" style="stroke:#181818;stroke-width:1.0;"/><line style="stroke:#181818;stroke-width:1.0;" x1="423" x2="423" y1="373.2539" y2="393.2539"/><polygon fill="#181818" points="419,383.2539,423,393.2539,427,383.2539,423,387.2539" style="stroke:#181818;stroke-width:1.0;"/><line style="stroke:#181818;stroke-width:1.0;" x1="559" x2="571" y1="630.2988" y2="630.2988"/><polygon fill="#181818" points="567,510.6836,571,500.6836,575,510.6836,571,506.6836" style="stroke:#181818;stroke-width:1.0;"/><line style="stroke:#181818;stroke-width:1.0;" x1="571" x2="571" y1="347.5508" y2="630.2988"/><line style="stroke:#181818;stroke-width:1.0;" x1="571" x2="530" y1="347.5508" y2="347.5508"/><polygon fill="#181818" points="540,343.5508,530,347.5508,540,351.5508,536,347.5508" style="stroke:#181818;stroke-width:1.0;"/><line style="stroke:#181818;stroke-width:1.0;" x1="423" x2="423" y1="582.0898" y2="618.2988"/><polygon fill="#181818" points="419,608.2988,423,618.2988,427,608.2988,423,612.2988" style="stroke:#181818;stroke-width:1.0;"/><line style="stroke:#181818;stroke-width:1.0;" x1="423" x2="423" y1="273.5273" y2="321.8477"/><polygon fill="#181818" points="419,311.8477,423,321.8477,427,311.8477,423,315.8477" style="stroke:#181818;stroke-width:1.0;"/><line style="stroke:#181818;stroke-width:1.0;" x1="581" x2="605" y1="686.2988" y2="686.2988"/><polygon fill="#181818" points="601,487.8203,605,477.8203,609,487.8203,605,483.8203" style="stroke:#181818;stroke-width:1.0;"/><line style="stroke:#181818;stroke-width:1.0;" x1="605" x2="605" y1="247.8242" y2="686.2988"/><line style="stroke:#181818;stroke-width:1.0;" x1="605" x2="530" y1="247.8242" y2="247.8242"/><polygon fill="#181818" points="540,243.8242,530,247.8242,540,251.8242,536,247.8242" style="stroke:#181818;stroke-width:1.0;"/><line style="stroke:#181818;stroke-width:1.0;" x1="423" x2="423" y1="642.2988" y2="674.2988"/><polygon fill="#181818" points="419,664.2988,423,674.2988,427,664.2988,423,668.2988" style="stroke:#181818;stroke-width:1.0;"/><line style="stroke:#181818;stroke-width:1.0;" x1="423" x2="423" y1="881.4316" y2="916.4316"/><polygon fill="#181818" points="419,906.4316,423,916.4316,427,906.4316,423,910.4316" style="stroke:#181818;stroke-width:1.0;"/><line style="stroke:#181818;stroke-width:1.0;" x1="423" x2="423" y1="810.0254" y2="830.0254"/><polygon fill="#181818" points="419,820.0254,423,830.0254,427,820.0254,423,824.0254" style="stroke:#181818;stroke-width:1.0;"/><line style="stroke:#181818;stroke-width:1.0;" x1="581" x2="593" y1="999.8379" y2="999.8379"/><polygon fill="#181818" points="589,902.0801,593,892.0801,597,902.0801,593,898.0801" style="stroke:#181818;stroke-width:1.0;"/><line style="stroke:#181818;stroke-width:1.0;" x1="593" x2="593" y1="784.3223" y2="999.8379"/><line style="stroke:#181818;stroke-width:1.0;" x1="593" x2="533.5" y1="784.3223" y2="784.3223"/><polygon fill="#181818" points="543.5,780.3223,533.5,784.3223,543.5,788.3223,539.5,784.3223" style="stroke:#181818;stroke-width:1.0;"/><line style="stroke:#181818;stroke-width:1.0;" x1="423" x2="423" y1="967.8379" y2="987.8379"/><polygon fill="#181818" points="419,977.8379,423,987.8379,427,977.8379,423,981.8379" style="stroke:#181818;stroke-width:1.0;"/><line style="stroke:#181818;stroke-width:1.0;" x1="423" x2="423" y1="698.2988" y2="758.6191"/><polygon fill="#181818" points="419,748.6191,423,758.6191,427,748.6191,423,752.6191" style="stroke:#181818;stroke-width:1.0;"/><line style="stroke:#181818;stroke-width:1.0;" x1="423" x2="423" y1="145.4063" y2="222.1211"/><polygon fill="#181818" points="419,212.1211,423,222.1211,427,212.1211,423,216.1211" style="stroke:#181818;stroke-width:1.0;"/><line style="stroke:#181818;stroke-width:1.0;" x1="423" x2="423" y1="1011.8379" y2="1033.8379"/><line style="stroke:#181818;stroke-width:1.0;" x1="423" x2="639" y1="1033.8379" y2="1033.8379"/><polygon fill="#181818" points="635,602.0898,639,592.0898,643,602.0898,639,598.0898" style="stroke:#181818;stroke-width:1.0;"/><line style="stroke:#181818;stroke-width:1.0;" x1="639" x2="639" y1="133.4063" y2="1033.8379"/><line style="stroke:#181818;stroke-width:1.0;" x1="639" x2="567" y1="133.4063" y2="133.4063"/><polygon fill="#181818" points="577,129.4063,567,133.4063,577,137.4063,573,133.4063" style="stroke:#181818;stroke-width:1.0;"/><line style="stroke:#181818;stroke-width:1.0;" x1="279" x2="24" y1="133.4063" y2="133.4063"/><line style="stroke:#181818;stroke-width:1.0;" x1="24" x2="24" y1="133.4063" y2="169.4063"/><polygon fill="#181818" points="20,159.4063,24,169.4063,28,159.4063,24,163.4063" style="stroke:#181818;stroke-width:1.0;"/><line style="stroke:#181818;stroke-width:1.0;" x1="423" x2="423" y1="101.4063" y2="121.4063"/><polygon fill="#181818" points="419,111.4063,423,121.4063,427,111.4063,423,115.4063" style="stroke:#181818;stroke-width:1.0;"/><!--SRC=[rLDTJnD157tlhzZ7zi641KM5Ptw1JmRsWSH5cfXjqwxnjJEh5ViX0Qsb88XIBQa6IaYqfJRzCNTdM_w5zyu2kzqFb1SI9_imEpFtddFFFJTlBkVCnDpYx1rL6xUtHeqpO7LWdu1_0NuC_1TOBR1EWM-2LGVh1_0cMFZzTexVBXd0ZjmWKJrr6XoiDl0UM6l03jtpyyAsw7Pzvz_7mu4exSydNgocd-b9n9tMebCKM6GAyUhG7hn3OBl_qwbrn5fJ76sdb7HUIQfuPFU_sjrIAg7WUfhBFCygRbvHwZbx7-S2HOZgbZse8gjHhpCUliVIPQ2HCNMveNM-NnpLsi1GZ266a1YJIO2LWR-vUkyzOnMnimUyZ1ceyCyLO4NvJ3UUU1WvFQilcmgrO4OBYqoHKVf8yVsruM-uQUFMWNDoDdz5BagIoQ0OIG9CxyOqJKeHO8LCGxnKO4sn_W5uIRn6npKyXhG8uPvsu-9efLV8KxEQAEywjVgbEynLtL2I-7YqMqXDlAULDpFPYKFiJtebnEZ-xGv8G7KvBmeLzo1E-ukHGDzDuGvO2nZwTWDO1tk9KijsDjnPURpmo1E2_2YTaGW24jv33MSEsBVuMkA0UULwR0_NDw-k8l_5lAfJrmrieBNI316keSiYCU3TYEvB65NpYnAPPicm-ttdvJfUIlgjVyaxVVkE3hbPdRaauOluIxaCEyDluYxSNY2IGTrhcle_]--></g></svg>