<?xml version="1.0" encoding="us-ascii" standalone="no"?><svg xmlns="http://www.w3.org/2000/svg" xmlns:xlink="http://www.w3.org/1999/xlink" contentStyleType="text/css" height="490px" preserveAspectRatio="none" style="width:512px;height:490px;background:#FFFFFF;" version="1.1" viewBox="0 0 512 490" width="512px" zoomAndPan="magnify"><defs/><g><text fill="#000000" font-family="Droid Sans Fallback" font-size="14" font-weight="bold" lengthAdjust="spacing" textLength="182" x="163.5" y="29.6016">&#21363;&#26178;&#12450;&#12463;&#12471;&#12519;&#12531;&#12398;&#35299;&#27770;&#12501;&#12525;&#12540;</text><line style="stroke:#181818;stroke-width:0.5;stroke-dasharray:5.0,5.0;" x1="55" x2="55" y1="140.9609" y2="389.043"/><line style="stroke:#181818;stroke-width:0.5;stroke-dasharray:5.0,5.0;" x1="156" x2="156" y1="140.9609" y2="389.043"/><line style="stroke:#181818;stroke-width:0.5;stroke-dasharray:5.0,5.0;" x1="310.5" x2="310.5" y1="140.9609" y2="389.043"/><text fill="#000000" font-family="Droid Sans Fallback" font-size="14" lengthAdjust="spacing" textLength="79" x="12.5" y="118.9219">&#12503;&#12524;&#12452;&#12516;&#12540;A</text><text fill="#000000" font-family="Droid Sans Fallback" font-size="14" lengthAdjust="spacing" textLength="92" x="6" y="137.2422">(&#12522;&#12463;&#12456;&#12473;&#12488;&#32773;)</text><ellipse cx="55" cy="52.8203" fill="#E2E2F0" rx="8" ry="8" style="stroke:#181818;stroke-width:0.5;"/><path d="M55,60.8203 L55,87.8203 M42,68.8203 L68,68.8203 M55,87.8203 L42,102.8203 M55,87.8203 L68,102.8203 " fill="none" style="stroke:#181818;stroke-width:0.5;"/><text fill="#000000" font-family="Droid Sans Fallback" font-size="14" lengthAdjust="spacing" textLength="79" x="12.5" y="402.6445">&#12503;&#12524;&#12452;&#12516;&#12540;A</text><text fill="#000000" font-family="Droid Sans Fallback" font-size="14" lengthAdjust="spacing" textLength="92" x="6" y="420.9648">(&#12522;&#12463;&#12456;&#12473;&#12488;&#32773;)</text><ellipse cx="55" cy="433.1836" fill="#E2E2F0" rx="8" ry="8" style="stroke:#181818;stroke-width:0.5;"/><path d="M55,441.1836 L55,468.1836 M42,449.1836 L68,449.1836 M55,468.1836 L42,483.1836 M55,468.1836 L68,483.1836 " fill="none" style="stroke:#181818;stroke-width:0.5;"/><text fill="#000000" font-family="Droid Sans Fallback" font-size="14" lengthAdjust="spacing" textLength="79" x="114" y="118.9219">&#12503;&#12524;&#12452;&#12516;&#12540;B</text><text fill="#000000" font-family="Droid Sans Fallback" font-size="14" lengthAdjust="spacing" textLength="36" x="135.5" y="137.2422">(&#30456;&#25163;)</text><ellipse cx="156.5" cy="52.8203" fill="#E2E2F0" rx="8" ry="8" style="stroke:#181818;stroke-width:0.5;"/><path d="M156.5,60.8203 L156.5,87.8203 M143.5,68.8203 L169.5,68.8203 M156.5,87.8203 L143.5,102.8203 M156.5,87.8203 L169.5,102.8203 " fill="none" style="stroke:#181818;stroke-width:0.5;"/><text fill="#000000" font-family="Droid Sans Fallback" font-size="14" lengthAdjust="spacing" textLength="79" x="114" y="402.6445">&#12503;&#12524;&#12452;&#12516;&#12540;B</text><text fill="#000000" font-family="Droid Sans Fallback" font-size="14" lengthAdjust="spacing" textLength="36" x="135.5" y="420.9648">(&#30456;&#25163;)</text><ellipse cx="156.5" cy="433.1836" fill="#E2E2F0" rx="8" ry="8" style="stroke:#181818;stroke-width:0.5;"/><path d="M156.5,441.1836 L156.5,468.1836 M143.5,449.1836 L169.5,449.1836 M156.5,468.1836 L143.5,483.1836 M156.5,468.1836 L169.5,483.1836 " fill="none" style="stroke:#181818;stroke-width:0.5;"/><rect fill="#E2E2F0" height="32.3203" rx="2.5" ry="2.5" style="stroke:#181818;stroke-width:0.5;" width="112" x="254.5" y="107.6406"/><text fill="#000000" font-family="Droid Sans Fallback" font-size="14" lengthAdjust="spacing" textLength="98" x="261.5" y="129.2422">&#12523;&#12540;&#12523;&#12471;&#12473;&#12486;&#12512;</text><rect fill="#E2E2F0" height="32.3203" rx="2.5" ry="2.5" style="stroke:#181818;stroke-width:0.5;" width="112" x="254.5" y="388.043"/><text fill="#000000" font-family="Droid Sans Fallback" font-size="14" lengthAdjust="spacing" textLength="98" x="261.5" y="409.6445">&#12523;&#12540;&#12523;&#12471;&#12473;&#12486;&#12512;</text><polygon fill="#181818" points="298.5,169.9727,308.5,173.9727,298.5,177.9727,302.5,173.9727" style="stroke:#181818;stroke-width:1.0;"/><line style="stroke:#181818;stroke-width:1.0;" x1="55" x2="304.5" y1="173.9727" y2="173.9727"/><text fill="#000000" font-family="Droid Sans Fallback" font-size="13" lengthAdjust="spacing" textLength="169" x="62" y="168.5195">&#21363;&#26178;&#12450;&#12463;&#12471;&#12519;&#12531;&#12434;&#12522;&#12463;&#12456;&#12473;&#12488;</text><path d="M315,186.9727 L315,213.9727 L505,213.9727 L505,196.9727 L495,186.9727 L315,186.9727 " fill="#FEFFDD" style="stroke:#181818;stroke-width:0.5;"/><path d="M495,186.9727 L495,196.9727 L505,196.9727 L495,186.9727 " fill="#FEFFDD" style="stroke:#181818;stroke-width:0.5;"/><text fill="#000000" font-family="Droid Sans Fallback" font-size="13" lengthAdjust="spacing" textLength="169" x="321" y="205.5313">&#12473;&#12486;&#12540;&#12472;&#12395;&#31309;&#12414;&#12378;&#21363;&#24231;&#12395;&#36914;&#12416;</text><line style="stroke:#181818;stroke-width:1.0;" x1="310.5" x2="352.5" y1="259.0078" y2="259.0078"/><line style="stroke:#181818;stroke-width:1.0;" x1="352.5" x2="352.5" y1="259.0078" y2="272.0078"/><line style="stroke:#181818;stroke-width:1.0;" x1="311.5" x2="352.5" y1="272.0078" y2="272.0078"/><polygon fill="#181818" points="321.5,268.0078,311.5,272.0078,321.5,276.0078,317.5,272.0078" style="stroke:#181818;stroke-width:1.0;"/><text fill="#000000" font-family="Droid Sans Fallback" font-size="13" lengthAdjust="spacing" textLength="104" x="317.5" y="236.543">&#12450;&#12463;&#12471;&#12519;&#12531;&#12398;&#35299;&#27770;</text><text fill="#000000" font-family="Droid Sans Fallback" font-size="13" lengthAdjust="spacing" textLength="91" x="317.5" y="253.5547">&#65288;&#21177;&#26524;&#12398;&#23455;&#34892;&#65289;</text><polygon fill="#181818" points="66,299.0195,56,303.0195,66,307.0195,62,303.0195" style="stroke:#181818;stroke-width:1.0;"/><line style="stroke:#181818;stroke-width:1.0;stroke-dasharray:2.0,2.0;" x1="60" x2="309.5" y1="303.0195" y2="303.0195"/><text fill="#000000" font-family="Droid Sans Fallback" font-size="13" lengthAdjust="spacing" textLength="130" x="72" y="297.5664">&#20966;&#29702;&#32080;&#26524;&#12434;&#30436;&#38754;&#12395;&#21453;&#26144;</text><polygon fill="#181818" points="167.5,330.0313,157.5,334.0313,167.5,338.0313,163.5,334.0313" style="stroke:#181818;stroke-width:1.0;"/><line style="stroke:#181818;stroke-width:1.0;stroke-dasharray:2.0,2.0;" x1="161.5" x2="309.5" y1="334.0313" y2="334.0313"/><text fill="#000000" font-family="Droid Sans Fallback" font-size="13" lengthAdjust="spacing" textLength="130" x="173.5" y="328.5781">&#20966;&#29702;&#32080;&#26524;&#12434;&#30436;&#38754;&#12395;&#21453;&#26144;</text><path d="M5,347.0313 L5,374.0313 L208,374.0313 L208,357.0313 L198,347.0313 L5,347.0313 " fill="#FEFFDD" style="stroke:#181818;stroke-width:0.5;"/><path d="M198,347.0313 L198,357.0313 L208,357.0313 L198,347.0313 " fill="#FEFFDD" style="stroke:#181818;stroke-width:0.5;"/><text fill="#000000" font-family="Droid Sans Fallback" font-size="13" lengthAdjust="spacing" textLength="182" x="11" y="365.5898">&#30456;&#25163;&#12398;&#21106;&#12426;&#36796;&#12415;&#12481;&#12515;&#12531;&#12473;&#12399;&#12394;&#12356;</text><!--SRC=[XP3VIW915CRlvoa6hmhg1Re8LiBBRhmAl9bqhKNTbNNgsfafqqeI8VfZVqmbIqifYLGMUvZ3xkgLhz3iPbu44Wo7uV3xplUTGpMQLB5Tx3bN77WDU1Vu9uWcY1wmphXPTzw68Cv1l8AmK2QXwMbYaXIEgN6obwGXGwUR9ANYm8PfQ34S9de6XqWokKsYYG1294eD4mT0N81u0Tu08P-bHFGb42tVx0du04H-d3rS3c2ImSe2JL1gt4hVAPpyS44aWr0jggM9JZswBI6lolZUn1o8gW-6jy88ANXrtVlXjGMxylAVG4Wtg8fDRMUNOYC-q_vEje3tWRNTvoAm4R1hETCUDcLdadq7daN8m-UEY-uQqQTMtZuUE7SticTtxiSFfrEhC5DBkUB5FNfqIpdte-HHlEnM6fFRcdIopuhEPNME1lz7_OMCVTN4oehF_vpJiox8rCVZaGNi2mG3KVTFCW3M1TO2Te2-0G00]--></g></svg>