<?xml version="1.0" encoding="UTF-8" standalone="no"?><svg xmlns="http://www.w3.org/2000/svg" xmlns:xlink="http://www.w3.org/1999/xlink" contentStyleType="text/css" height="397px" preserveAspectRatio="none" style="width:447px;height:397px;background:#FFFFFF;" version="1.1" viewBox="0 0 447 397" width="447px" zoomAndPan="magnify"><defs/><g><!--class core--><g id="elem_core"><rect codeLine="6" fill="#F1F1F1" height="28.3203" id="core" rx="2.5" ry="2.5" style="stroke:#181818;stroke-width:0.5;" width="76" x="7" y="7"/><text fill="#000000" font-family="sans-serif" font-size="14" font-style="italic" lengthAdjust="spacing" textLength="70" x="10" y="26.6016">コアルール</text></g><!--class common--><g id="elem_common"><rect codeLine="8" fill="#F1F1F1" height="28.3203" id="common" rx="2.5" ry="2.5" style="stroke:#181818;stroke-width:0.5;" width="76" x="7" y="149"/><text fill="#000000" font-family="sans-serif" font-size="14" font-style="italic" lengthAdjust="spacing" textLength="70" x="10" y="168.6016">共通ルール</text></g><!--class match_reg--><g id="elem_match_reg"><rect codeLine="10" fill="#F1F1F1" height="28.3203" id="match_reg" rx="2.5" ry="2.5" style="stroke:#181818;stroke-width:0.5;" width="146" x="118" y="149"/><text fill="#000000" font-family="sans-serif" font-size="14" lengthAdjust="spacing" textLength="140" x="121" y="168.6016">対戦レギュレーション</text></g><!--class format--><g id="elem_format"><rect codeLine="12" fill="#F1F1F1" height="28.3203" id="format" rx="2.5" ry="2.5" style="stroke:#181818;stroke-width:0.5;" width="90" x="20" y="256"/><text fill="#000000" font-family="sans-serif" font-size="14" lengthAdjust="spacing" textLength="84" x="23" y="275.6016">フォーマット</text></g><!--class frame--><g id="elem_frame"><rect codeLine="14" fill="#F1F1F1" height="28.3203" id="frame" rx="2.5" ry="2.5" style="stroke:#181818;stroke-width:0.5;" width="62" x="145" y="256"/><text fill="#000000" font-family="sans-serif" font-size="14" lengthAdjust="spacing" textLength="56" x="148" y="275.6016">フレーム</text></g><!--class options--><g id="elem_options"><rect codeLine="16" fill="#F1F1F1" height="28.3203" id="options" rx="2.5" ry="2.5" style="stroke:#181818;stroke-width:0.5;" width="76" x="138" y="363"/><text fill="#000000" font-family="sans-serif" font-size="14" lengthAdjust="spacing" textLength="70" x="141" y="382.6016">オプション</text></g><!--class player--><g id="elem_player"><rect codeLine="18" fill="#F1F1F1" height="28.3203" id="player" rx="2.5" ry="2.5" style="stroke:#181818;stroke-width:0.5;" width="76" x="153" y="7"/><text fill="#000000" font-family="sans-serif" font-size="14" lengthAdjust="spacing" textLength="70" x="156" y="26.6016">プレイヤー</text></g><!--reverse link core to common--><g id="link_core_common"><path codeLine="20" d="M45,55.46 C45,85.33 45,127.56 45,148.76 " fill="none" id="core-backto-common" style="stroke:#181818;stroke-width:1.0;"/><polygon fill="none" points="38,55.17,45,35.17,52,55.17,38,55.17" style="stroke:#181818;stroke-width:1.0;"/><text fill="#000000" font-family="sans-serif" font-size="13" lengthAdjust="spacing" textLength="26" x="46" y="97.0586">継承</text></g><!--reverse link common to format--><g id="link_common_format"><path codeLine="22" d="M45.38,197.54 C45.96,206.83 47.05,216.87 49,226 C51.2,236.28 55.38,247.39 58.92,255.74 " fill="none" id="common-backto-format" style="stroke:#181818;stroke-width:1.0;"/><polygon fill="none" points="38.38,197.67,44.75,177.46,52.37,197.23,38.38,197.67" style="stroke:#181818;stroke-width:1.0;"/><text fill="#000000" font-family="sans-serif" font-size="13" lengthAdjust="spacing" textLength="26" x="50" y="221.5586">継承</text></g><!--reverse link match_reg to format--><g id="link_match_reg_format"><path codeLine="24" d="M165.3,185.41 C139.99,206.5 102.13,238.06 80.9,255.75 " fill="none" id="match_reg-backto-format" style="stroke:#181818;stroke-width:1.0;"/><polygon fill="none" points="175.3,177.09,168.1296,177.8552,166.0781,184.7683,173.2485,184.0031,175.3,177.09" style="stroke:#181818;stroke-width:1.0;"/><text fill="#000000" font-family="sans-serif" font-size="13" lengthAdjust="spacing" textLength="26" x="140" y="221.5586">内包</text></g><!--reverse link match_reg to frame--><g id="link_match_reg_frame"><path codeLine="25" d="M187.24,190.32 C184.26,211.18 180.22,239.45 177.88,255.81 " fill="none" id="match_reg-backto-frame" style="stroke:#181818;stroke-width:1.0;"/><polygon fill="none" points="189.1,177.3,184.29,182.6725,187.3993,189.1789,192.2092,183.8063,189.1,177.3" style="stroke:#181818;stroke-width:1.0;"/><text fill="#000000" font-family="sans-serif" font-size="13" lengthAdjust="spacing" textLength="26" x="185" y="221.5586">内包</text></g><!--reverse link match_reg to options--><g id="link_match_reg_options"><path codeLine="26" d="M210.39,188.34 C214.17,194.16 217.67,200.57 220,207 C231.68,239.24 229.43,249.99 225,284 C222.09,306.34 222.37,313 212,333 C206.27,344.06 197.27,354.81 189.7,362.8 " fill="none" id="match_reg-backto-options" style="stroke:#181818;stroke-width:1.0;"/><polygon fill="none" points="202.56,177.37,202.7907,184.5774,209.5324,187.1366,209.3017,179.9292,202.56,177.37" style="stroke:#181818;stroke-width:1.0;"/><text fill="#000000" font-family="sans-serif" font-size="13" lengthAdjust="spacing" textLength="26" x="229" y="275.0586">内包</text></g><!--link player to match_reg--><g id="link_player_match_reg"><path codeLine="28" d="M191,35.17 C191,60.29 191,115.09 191,143.73 " fill="none" id="player-to-match_reg" style="stroke:#181818;stroke-width:1.0;stroke-dasharray:7.0,7.0;"/><polygon fill="#181818" points="191,148.76,195,139.76,191,143.76,187,139.76,191,148.76" style="stroke:#181818;stroke-width:1.0;"/><text fill="#000000" font-family="sans-serif" font-size="13" lengthAdjust="spacing" textLength="26" x="192" y="97.0645">選択</text><path d="M224,70 L224,114 L440,114 L440,80 L430,70 L224,70 " fill="#FFFFFF" style="stroke:#181818;stroke-width:0.5;"/><path d="M430,70 L430,80 L440,80 L430,70 " fill="#FFFFFF" style="stroke:#181818;stroke-width:0.5;"/><text fill="#000000" font-family="sans-serif" font-size="13" lengthAdjust="spacing" textLength="156" x="230" y="88.5586">プレイヤーは対戦する前に</text><text fill="#000000" font-family="sans-serif" font-size="13" lengthAdjust="spacing" textLength="195" x="230" y="105.5703">対戦レギュレーションを選択する</text></g><!--reverse link format to options--><g id="link_format_options"><path codeLine="35" d="M82.73,287.77 C104.77,308.62 141.94,343.78 162.06,362.81 " fill="none" id="format-backto-options" style="stroke:#181818;stroke-width:1.0;stroke-dasharray:7.0,7.0;"/><polygon fill="#181818" points="79.06,284.3,82.8723,293.3811,82.701,287.7268,88.3553,287.5555,79.06,284.3" style="stroke:#181818;stroke-width:1.0;"/><text fill="#000000" font-family="sans-serif" font-size="13" lengthAdjust="spacing" textLength="26" x="131" y="328.5586">依存</text></g><!--reverse link frame to options--><g id="link_frame_options"><path codeLine="36" d="M176,289.34 C176,310.35 176,344.25 176,362.81 " fill="none" id="frame-backto-options" style="stroke:#181818;stroke-width:1.0;stroke-dasharray:7.0,7.0;"/><polygon fill="#181818" points="176,284.3,172,293.3,176,289.3,180,293.3,176,284.3" style="stroke:#181818;stroke-width:1.0;"/><text fill="#000000" font-family="sans-serif" font-size="13" lengthAdjust="spacing" textLength="26" x="177" y="328.5586">依存</text></g><!--SRC=[VP9TQnD158Rlpwyur9ls8alI5AbB4T5g8IOOjEsjJ7SdsT7TcJ0xYHIyC3j4MZzk1AaLB29-e5MB5DIBKd_Cc4Z_XRExQPF63rYMcNdUyvxtx6p0V8eHLO7mOmZIZSUa5z9ytM0qz078MgmayHHw8ObZd3B9labU6Rrhz85zJo69qHEI_gdizxuStNi-gOmYmG6E9Nk7WustHdyqoMUZtwGBgqs-6VtEwFsi8YBA2svAsZmfClgfITvdfZj6QwCtCc53IAizfShjzCkSInBH4Ku-6BrrkfLeAIPuF6QnbKLxRRHz3Z9DAoJhL5g97HaNxXOAmv7GnLzVjmURFrAK7MGm3pK6JyP1COxxztlzHxr9cYR-5no67M78ew7Zd1zzD8kFkjy73tO0k50K9Mi62cswaF7RUEPEm1I5YJbDTszuBzrjappiRpustLtu_rMPv4dU9wy1odrC6m8CHrnmdB78FmzVz3yzWtp0lw8BrW6W7XAkLcfLx50PMm6MdDdYRDafJjVifa8u5izXQTujbzpo72xLbZ75Cp2zLAzYBDhIe-Wp-rkojNRQO0Ogf4FmUfih5b4NhxKehonUFJx0oxp3fE0HvGeggxMHuEnSuI9JU8DAcmHNQx186wGTAblX2P_nfeihorSAyr0blDacJUjzYy0bONtbkekL-cy0]--></g></svg>