<?xml version="1.0" encoding="us-ascii" standalone="no"?><svg xmlns="http://www.w3.org/2000/svg" xmlns:xlink="http://www.w3.org/1999/xlink" contentStyleType="text/css" height="849px" preserveAspectRatio="none" style="width:814px;height:849px;background:#FFFFFF;" version="1.1" viewBox="0 0 814 849" width="814px" zoomAndPan="magnify"><defs/><g><ellipse cx="391.375" cy="20" fill="#222222" rx="10" ry="10" style="stroke:#222222;stroke-width:1.0;"/><rect fill="#F1F1F1" height="35.7031" rx="12.5" ry="12.5" style="stroke:#181818;stroke-width:0.5;" width="98" x="342.375" y="50"/><text fill="#000000" font-family="sans-serif" font-size="12" lengthAdjust="spacing" textLength="78" x="352.375" y="72.5156">[1] &#12466;&#12540;&#12512;&#38283;&#22987;</text><rect fill="#F1F1F1" height="35.7031" rx="12.5" ry="12.5" style="stroke:#181818;stroke-width:0.5;" width="230" x="276.375" y="105.7031"/><text fill="#000000" font-family="sans-serif" font-size="12" lengthAdjust="spacing" textLength="210" x="286.375" y="128.2188">[2] &#12479;&#12540;&#12531;&#12503;&#12524;&#12452;&#12516;&#12540;&#12395;&#12481;&#12515;&#12531;&#12473;&#12434;&#31227;&#21205;</text><polygon fill="#F1F1F1" points="323.375,205.4063,459.375,205.4063,471.375,217.4063,459.375,229.4063,323.375,229.4063,311.375,217.4063,323.375,205.4063" style="stroke:#181818;stroke-width:0.5;"/><text fill="#000000" font-family="sans-serif" font-size="11" lengthAdjust="spacing" textLength="136" x="323.375" y="221.6816">[3] &#12450;&#12463;&#12471;&#12519;&#12531;&#12434;&#36215;&#12371;&#12377;&#12363;&#65311;</text><text fill="#000000" font-family="sans-serif" font-size="11" lengthAdjust="spacing" textLength="17" x="294.375" y="214.4844">Yes</text><text fill="#000000" font-family="sans-serif" font-size="11" lengthAdjust="spacing" textLength="14" x="471.375" y="214.4844">No</text><rect fill="#F1F1F1" height="35.7031" rx="12.5" ry="12.5" style="stroke:#181818;stroke-width:0.5;" width="146" x="101.5" y="239.4063"/><text fill="#000000" font-family="sans-serif" font-size="12" lengthAdjust="spacing" textLength="126" x="111.5" y="261.9219">[4] &#12497;&#12473;&#35352;&#37682;&#12398;&#12522;&#12475;&#12483;&#12488;</text><rect fill="#F1F1F1" height="35.7031" rx="12.5" ry="12.5" style="stroke:#181818;stroke-width:0.5;" width="146" x="101.5" y="295.1094"/><text fill="#000000" font-family="sans-serif" font-size="12" lengthAdjust="spacing" textLength="126" x="111.5" y="317.625">[5] &#12450;&#12463;&#12471;&#12519;&#12531;&#12434;&#36215;&#12371;&#12377;</text><rect fill="#F1F1F1" height="35.7031" rx="12.5" ry="12.5" style="stroke:#181818;stroke-width:0.5;" width="110" x="119.5" y="365.8125"/><text fill="#000000" font-family="sans-serif" font-size="12" lengthAdjust="spacing" textLength="90" x="129.5" y="388.3281">[6] &#35480;&#30330;&#12481;&#12455;&#12483;&#12463;</text><polygon fill="#F1F1F1" points="134,434.0098,215,434.0098,227,446.0098,215,458.0098,134,458.0098,122,446.0098,134,434.0098" style="stroke:#181818;stroke-width:0.5;"/><text fill="#000000" font-family="sans-serif" font-size="11" lengthAdjust="spacing" textLength="81" x="134" y="450.2852">[7] &#21363;&#26178;&#21177;&#26524;&#12363;&#65311;</text><text fill="#000000" font-family="sans-serif" font-size="11" lengthAdjust="spacing" textLength="17" x="105" y="443.0879">Yes</text><text fill="#000000" font-family="sans-serif" font-size="11" lengthAdjust="spacing" textLength="14" x="227" y="443.0879">No</text><rect fill="#F1F1F1" height="35.7031" rx="12.5" ry="12.5" style="stroke:#181818;stroke-width:0.5;" width="134" x="11" y="468.0098"/><text fill="#000000" font-family="sans-serif" font-size="12" lengthAdjust="spacing" textLength="114" x="21" y="490.5254">[8] &#12450;&#12463;&#12471;&#12519;&#12531;&#12398;&#35299;&#27770;</text><polygon fill="#F1F1F1" points="48.5,538.7129,107.5,538.7129,119.5,550.7129,107.5,562.7129,48.5,562.7129,36.5,550.7129,48.5,538.7129" style="stroke:#181818;stroke-width:0.5;"/><text fill="#000000" font-family="sans-serif" font-size="11" lengthAdjust="spacing" textLength="59" x="48.5" y="554.9883">[9] &#21213;&#25943;&#21028;&#23450;</text><text fill="#000000" font-family="sans-serif" font-size="11" lengthAdjust="spacing" textLength="22" x="119.5" y="547.791">&#27770;&#30528;</text><ellipse cx="163.5" cy="550.7129" fill="none" rx="11" ry="11" style="stroke:#222222;stroke-width:1.0;"/><ellipse cx="163.5" cy="550.7129" fill="#222222" rx="6" ry="6" style="stroke:#222222;stroke-width:1.0;"/><rect fill="#F1F1F1" height="35.7031" rx="12.5" ry="12.5" style="stroke:#181818;stroke-width:0.5;" width="129" x="206.5" y="468.0098"/><text fill="#000000" font-family="sans-serif" font-size="12" lengthAdjust="spacing" textLength="109" x="216.5" y="490.5254">[10] &#12473;&#12486;&#12540;&#12472;&#12395;&#36861;&#21152;</text><polygon fill="#F1F1F1" points="174.5,575.2188,186.5,587.2188,174.5,599.2188,162.5,587.2188,174.5,575.2188" style="stroke:#181818;stroke-width:0.5;"/><rect fill="#F1F1F1" height="35.7031" rx="12.5" ry="12.5" style="stroke:#181818;stroke-width:0.5;" width="110" x="119.5" y="634.2188"/><text fill="#000000" font-family="sans-serif" font-size="12" lengthAdjust="spacing" textLength="90" x="129.5" y="656.7344">[6] &#35480;&#30330;&#12481;&#12455;&#12483;&#12463;</text><rect fill="#F1F1F1" height="35.7031" rx="12.5" ry="12.5" style="stroke:#181818;stroke-width:0.5;" width="129" x="543.75" y="239.4063"/><text fill="#000000" font-family="sans-serif" font-size="12" lengthAdjust="spacing" textLength="109" x="553.75" y="261.9219">[11] &#12497;&#12473;&#35352;&#37682;&#12395;&#30331;&#37682;</text><polygon fill="#F1F1F1" points="548.25,295.1094,668.25,295.1094,680.25,307.1094,668.25,319.1094,548.25,319.1094,536.25,307.1094,548.25,295.1094" style="stroke:#181818;stroke-width:0.5;"/><text fill="#000000" font-family="sans-serif" font-size="11" lengthAdjust="spacing" textLength="120" x="548.25" y="311.3848">[12] &#20840;&#21729;&#12364;&#12497;&#12473;&#12375;&#12383;&#12363;&#65311;</text><text fill="#000000" font-family="sans-serif" font-size="11" lengthAdjust="spacing" textLength="17" x="519.25" y="304.1875">Yes</text><text fill="#000000" font-family="sans-serif" font-size="11" lengthAdjust="spacing" textLength="14" x="680.25" y="304.1875">No</text><rect fill="#F1F1F1" height="35.7031" rx="12.5" ry="12.5" style="stroke:#181818;stroke-width:0.5;" width="153" x="424" y="378.3066"/><text fill="#000000" font-family="sans-serif" font-size="12" lengthAdjust="spacing" textLength="133" x="434" y="400.8223">[14] &#12473;&#12486;&#12540;&#12472;&#12363;&#12425;&#21462;&#20986;&#12375;</text><rect fill="#F1F1F1" height="35.7031" rx="12.5" ry="12.5" style="stroke:#181818;stroke-width:0.5;" width="134" x="433.5" y="446.5039"/><text fill="#000000" font-family="sans-serif" font-size="12" lengthAdjust="spacing" textLength="114" x="443.5" y="469.0195">[8] &#12450;&#12463;&#12471;&#12519;&#12531;&#12398;&#35299;&#27770;</text><polygon fill="#F1F1F1" points="471,517.207,530,517.207,542,529.207,530,541.207,471,541.207,459,529.207,471,517.207" style="stroke:#181818;stroke-width:0.5;"/><text fill="#000000" font-family="sans-serif" font-size="11" lengthAdjust="spacing" textLength="59" x="471" y="533.4824">[9] &#21213;&#25943;&#21028;&#23450;</text><text fill="#000000" font-family="sans-serif" font-size="11" lengthAdjust="spacing" textLength="22" x="542" y="526.2852">&#27770;&#30528;</text><ellipse cx="586" cy="529.207" fill="none" rx="11" ry="11" style="stroke:#222222;stroke-width:1.0;"/><ellipse cx="586" cy="529.207" fill="#222222" rx="6" ry="6" style="stroke:#222222;stroke-width:1.0;"/><rect fill="#F1F1F1" height="35.7031" rx="12.5" ry="12.5" style="stroke:#181818;stroke-width:0.5;" width="110" x="445.5" y="582.7129"/><text fill="#000000" font-family="sans-serif" font-size="12" lengthAdjust="spacing" textLength="90" x="455.5" y="605.2285">[6] &#35480;&#30330;&#12481;&#12455;&#12483;&#12463;</text><rect fill="#F1F1F1" height="35.7031" rx="12.5" ry="12.5" style="stroke:#181818;stroke-width:0.5;" width="230" x="385.5" y="653.416"/><text fill="#000000" font-family="sans-serif" font-size="12" lengthAdjust="spacing" textLength="210" x="395.5" y="675.9316">[2] &#12479;&#12540;&#12531;&#12503;&#12524;&#12452;&#12516;&#12540;&#12395;&#12481;&#12515;&#12531;&#12473;&#12434;&#31227;&#21205;</text><polygon fill="#F1F1F1" points="396.5,329.1094,604.5,329.1094,616.5,341.1094,604.5,353.1094,396.5,353.1094,384.5,341.1094,396.5,329.1094" style="stroke:#181818;stroke-width:0.5;"/><text fill="#000000" font-family="sans-serif" font-size="11" lengthAdjust="spacing" textLength="17" x="504.5" y="364.582">Yes</text><text fill="#000000" font-family="sans-serif" font-size="11" lengthAdjust="spacing" textLength="208" x="396.5" y="345.3848">[13] &#12473;&#12486;&#12540;&#12472;&#12395;&#12450;&#12463;&#12471;&#12519;&#12531;&#12364;&#23384;&#22312;&#12377;&#12427;&#12363;&#65311;</text><text fill="#000000" font-family="sans-serif" font-size="11" lengthAdjust="spacing" textLength="14" x="616.5" y="338.1875">No</text><polygon fill="#F1F1F1" points="500.5,709.1191,512.5,721.1191,500.5,733.1191,488.5,721.1191,500.5,709.1191" style="stroke:#181818;stroke-width:0.5;"/><rect fill="#F1F1F1" height="35.7031" rx="12.5" ry="12.5" style="stroke:#181818;stroke-width:0.5;" width="117" x="657.5" y="329.1094"/><text fill="#000000" font-family="sans-serif" font-size="12" lengthAdjust="spacing" textLength="97" x="667.5" y="351.625">[15] &#12481;&#12515;&#12531;&#12473;&#31227;&#21205;</text><polygon fill="#F1F1F1" points="608.25,739.1191,620.25,751.1191,608.25,763.1191,596.25,751.1191,608.25,739.1191" style="stroke:#181818;stroke-width:0.5;"/><polygon fill="#F1F1F1" points="391.375,769.1191,403.375,781.1191,391.375,793.1191,379.375,781.1191,391.375,769.1191" style="stroke:#181818;stroke-width:0.5;"/><polygon fill="#F1F1F1" points="391.375,161.4063,403.375,173.4063,391.375,185.4063,379.375,173.4063,391.375,161.4063" style="stroke:#181818;stroke-width:0.5;"/><polygon fill="#F1F1F1" points="391.375,813.1191,391.375,813.1191,403.375,825.1191,391.375,837.1191,391.375,837.1191,379.375,825.1191,391.375,813.1191" style="stroke:#181818;stroke-width:0.5;"/><line style="stroke:#181818;stroke-width:1.0;" x1="391.375" x2="391.375" y1="30" y2="50"/><polygon fill="#181818" points="387.375,40,391.375,50,395.375,40,391.375,44" style="stroke:#181818;stroke-width:1.0;"/><line style="stroke:#181818;stroke-width:1.0;" x1="391.375" x2="391.375" y1="85.7031" y2="105.7031"/><polygon fill="#181818" points="387.375,95.7031,391.375,105.7031,395.375,95.7031,391.375,99.7031" style="stroke:#181818;stroke-width:1.0;"/><line style="stroke:#181818;stroke-width:1.0;" x1="174.5" x2="174.5" y1="275.1094" y2="295.1094"/><polygon fill="#181818" points="170.5,285.1094,174.5,295.1094,178.5,285.1094,174.5,289.1094" style="stroke:#181818;stroke-width:1.0;"/><line style="stroke:#181818;stroke-width:1.0;" x1="174.5" x2="174.5" y1="330.8125" y2="365.8125"/><polygon fill="#181818" points="170.5,355.8125,174.5,365.8125,178.5,355.8125,174.5,359.8125" style="stroke:#181818;stroke-width:1.0;"/><line style="stroke:#181818;stroke-width:1.0;" x1="78" x2="78" y1="562.7129" y2="587.2188"/><line style="stroke:#181818;stroke-width:1.0;" x1="78" x2="162.5" y1="587.2188" y2="587.2188"/><polygon fill="#181818" points="152.5,583.2188,162.5,587.2188,152.5,591.2188,156.5,587.2188" style="stroke:#181818;stroke-width:1.0;"/><line style="stroke:#181818;stroke-width:1.0;" x1="119.5" x2="152.5" y1="550.7129" y2="550.7129"/><polygon fill="#181818" points="142.5,546.7129,152.5,550.7129,142.5,554.7129,146.5,550.7129" style="stroke:#181818;stroke-width:1.0;"/><line style="stroke:#181818;stroke-width:1.0;" x1="78" x2="78" y1="503.7129" y2="538.7129"/><polygon fill="#181818" points="74,528.7129,78,538.7129,82,528.7129,78,532.7129" style="stroke:#181818;stroke-width:1.0;"/><line style="stroke:#181818;stroke-width:1.0;" x1="122" x2="78" y1="446.0098" y2="446.0098"/><line style="stroke:#181818;stroke-width:1.0;" x1="78" x2="78" y1="446.0098" y2="468.0098"/><polygon fill="#181818" points="74,458.0098,78,468.0098,82,458.0098,78,462.0098" style="stroke:#181818;stroke-width:1.0;"/><line style="stroke:#181818;stroke-width:1.0;" x1="227" x2="271" y1="446.0098" y2="446.0098"/><line style="stroke:#181818;stroke-width:1.0;" x1="271" x2="271" y1="446.0098" y2="468.0098"/><polygon fill="#181818" points="267,458.0098,271,468.0098,275,458.0098,271,462.0098" style="stroke:#181818;stroke-width:1.0;"/><line style="stroke:#181818;stroke-width:1.0;" x1="271" x2="271" y1="503.7129" y2="587.2188"/><line style="stroke:#181818;stroke-width:1.0;" x1="271" x2="186.5" y1="587.2188" y2="587.2188"/><polygon fill="#181818" points="196.5,583.2188,186.5,587.2188,196.5,591.2188,192.5,587.2188" style="stroke:#181818;stroke-width:1.0;"/><line style="stroke:#181818;stroke-width:1.0;" x1="174.5" x2="174.5" y1="401.5156" y2="434.0098"/><polygon fill="#181818" points="170.5,424.0098,174.5,434.0098,178.5,424.0098,174.5,428.0098" style="stroke:#181818;stroke-width:1.0;"/><line style="stroke:#181818;stroke-width:1.0;" x1="174.5" x2="174.5" y1="599.2188" y2="634.2188"/><polygon fill="#181818" points="170.5,624.2188,174.5,634.2188,178.5,624.2188,174.5,628.2188" style="stroke:#181818;stroke-width:1.0;"/><line style="stroke:#181818;stroke-width:1.0;" x1="500.5" x2="500.5" y1="414.0098" y2="446.5039"/><polygon fill="#181818" points="496.5,436.5039,500.5,446.5039,504.5,436.5039,500.5,440.5039" style="stroke:#181818;stroke-width:1.0;"/><line style="stroke:#181818;stroke-width:1.0;" x1="500.5" x2="500.5" y1="541.207" y2="582.7129"/><polygon fill="#181818" points="496.5,572.7129,500.5,582.7129,504.5,572.7129,500.5,576.7129" style="stroke:#181818;stroke-width:1.0;"/><line style="stroke:#181818;stroke-width:1.0;" x1="542" x2="575" y1="529.207" y2="529.207"/><polygon fill="#181818" points="565,525.207,575,529.207,565,533.207,569,529.207" style="stroke:#181818;stroke-width:1.0;"/><line style="stroke:#181818;stroke-width:1.0;" x1="500.5" x2="500.5" y1="482.207" y2="517.207"/><polygon fill="#181818" points="496.5,507.207,500.5,517.207,504.5,507.207,500.5,511.207" style="stroke:#181818;stroke-width:1.0;"/><line style="stroke:#181818;stroke-width:1.0;" x1="500.5" x2="500.5" y1="618.416" y2="653.416"/><polygon fill="#181818" points="496.5,643.416,500.5,653.416,504.5,643.416,500.5,647.416" style="stroke:#181818;stroke-width:1.0;"/><line style="stroke:#181818;stroke-width:1.0;" x1="500.5" x2="500.5" y1="353.1094" y2="378.3066"/><polygon fill="#181818" points="496.5,368.3066,500.5,378.3066,504.5,368.3066,500.5,372.3066" style="stroke:#181818;stroke-width:1.0;"/><line style="stroke:#181818;stroke-width:1.0;" x1="616.5" x2="628.5" y1="341.1094" y2="341.1094"/><polygon fill="#181818" points="624.5,543.207,628.5,553.207,632.5,543.207,628.5,547.207" style="stroke:#181818;stroke-width:1.0;"/><line style="stroke:#181818;stroke-width:1.0;" x1="628.5" x2="628.5" y1="341.1094" y2="721.1191"/><line style="stroke:#181818;stroke-width:1.0;" x1="628.5" x2="512.5" y1="721.1191" y2="721.1191"/><polygon fill="#181818" points="522.5,717.1191,512.5,721.1191,522.5,725.1191,518.5,721.1191" style="stroke:#181818;stroke-width:1.0;"/><line style="stroke:#181818;stroke-width:1.0;" x1="500.5" x2="500.5" y1="689.1191" y2="709.1191"/><polygon fill="#181818" points="496.5,699.1191,500.5,709.1191,504.5,699.1191,500.5,703.1191" style="stroke:#181818;stroke-width:1.0;"/><line style="stroke:#181818;stroke-width:1.0;" x1="536.25" x2="500.5" y1="307.1094" y2="307.1094"/><line style="stroke:#181818;stroke-width:1.0;" x1="500.5" x2="500.5" y1="307.1094" y2="329.1094"/><polygon fill="#181818" points="496.5,319.1094,500.5,329.1094,504.5,319.1094,500.5,323.1094" style="stroke:#181818;stroke-width:1.0;"/><line style="stroke:#181818;stroke-width:1.0;" x1="680.25" x2="716" y1="307.1094" y2="307.1094"/><line style="stroke:#181818;stroke-width:1.0;" x1="716" x2="716" y1="307.1094" y2="329.1094"/><polygon fill="#181818" points="712,319.1094,716,329.1094,720,319.1094,716,323.1094" style="stroke:#181818;stroke-width:1.0;"/><line style="stroke:#181818;stroke-width:1.0;" x1="500.5" x2="500.5" y1="733.1191" y2="751.1191"/><line style="stroke:#181818;stroke-width:1.0;" x1="500.5" x2="596.25" y1="751.1191" y2="751.1191"/><polygon fill="#181818" points="586.25,747.1191,596.25,751.1191,586.25,755.1191,590.25,751.1191" style="stroke:#181818;stroke-width:1.0;"/><line style="stroke:#181818;stroke-width:1.0;" x1="716" x2="716" y1="364.8125" y2="751.1191"/><line style="stroke:#181818;stroke-width:1.0;" x1="716" x2="620.25" y1="751.1191" y2="751.1191"/><polygon fill="#181818" points="630.25,747.1191,620.25,751.1191,630.25,755.1191,626.25,751.1191" style="stroke:#181818;stroke-width:1.0;"/><line style="stroke:#181818;stroke-width:1.0;" x1="608.25" x2="608.25" y1="275.1094" y2="295.1094"/><polygon fill="#181818" points="604.25,285.1094,608.25,295.1094,612.25,285.1094,608.25,289.1094" style="stroke:#181818;stroke-width:1.0;"/><line style="stroke:#181818;stroke-width:1.0;" x1="311.375" x2="174.5" y1="217.4063" y2="217.4063"/><line style="stroke:#181818;stroke-width:1.0;" x1="174.5" x2="174.5" y1="217.4063" y2="239.4063"/><polygon fill="#181818" points="170.5,229.4063,174.5,239.4063,178.5,229.4063,174.5,233.4063" style="stroke:#181818;stroke-width:1.0;"/><line style="stroke:#181818;stroke-width:1.0;" x1="471.375" x2="608.25" y1="217.4063" y2="217.4063"/><line style="stroke:#181818;stroke-width:1.0;" x1="608.25" x2="608.25" y1="217.4063" y2="239.4063"/><polygon fill="#181818" points="604.25,229.4063,608.25,239.4063,612.25,229.4063,608.25,233.4063" style="stroke:#181818;stroke-width:1.0;"/><line style="stroke:#181818;stroke-width:1.0;" x1="174.5" x2="174.5" y1="669.9219" y2="781.1191"/><line style="stroke:#181818;stroke-width:1.0;" x1="174.5" x2="379.375" y1="781.1191" y2="781.1191"/><polygon fill="#181818" points="369.375,777.1191,379.375,781.1191,369.375,785.1191,373.375,781.1191" style="stroke:#181818;stroke-width:1.0;"/><line style="stroke:#181818;stroke-width:1.0;" x1="608.25" x2="608.25" y1="763.1191" y2="781.1191"/><line style="stroke:#181818;stroke-width:1.0;" x1="608.25" x2="403.375" y1="781.1191" y2="781.1191"/><polygon fill="#181818" points="413.375,777.1191,403.375,781.1191,413.375,785.1191,409.375,781.1191" style="stroke:#181818;stroke-width:1.0;"/><line style="stroke:#181818;stroke-width:1.0;" x1="391.375" x2="391.375" y1="185.4063" y2="205.4063"/><polygon fill="#181818" points="387.375,195.4063,391.375,205.4063,395.375,195.4063,391.375,199.4063" style="stroke:#181818;stroke-width:1.0;"/><line style="stroke:#181818;stroke-width:1.0;" x1="403.375" x2="788.5" y1="825.1191" y2="825.1191"/><polygon fill="#181818" points="784.5,523.8555,788.5,513.8555,792.5,523.8555,788.5,519.8555" style="stroke:#181818;stroke-width:1.0;"/><line style="stroke:#181818;stroke-width:1.0;" x1="788.5" x2="788.5" y1="173.4063" y2="825.1191"/><line style="stroke:#181818;stroke-width:1.0;" x1="788.5" x2="403.375" y1="173.4063" y2="173.4063"/><polygon fill="#181818" points="413.375,169.4063,403.375,173.4063,413.375,177.4063,409.375,173.4063" style="stroke:#181818;stroke-width:1.0;"/><line style="stroke:#181818;stroke-width:1.0;" x1="391.375" x2="391.375" y1="793.1191" y2="813.1191"/><polygon fill="#181818" points="387.375,803.1191,391.375,813.1191,395.375,803.1191,391.375,807.1191" style="stroke:#181818;stroke-width:1.0;"/><line style="stroke:#181818;stroke-width:1.0;" x1="391.375" x2="391.375" y1="141.4063" y2="161.4063"/><polygon fill="#181818" points="387.375,151.4063,391.375,161.4063,395.375,151.4063,391.375,155.4063" style="stroke:#181818;stroke-width:1.0;"/><!--SRC=[dPFBJi9058RtFCKiOIU2rxw3UqDOa5W22K42JTmwC_56CKO8DuE2Gb82Yb5Ya8lXOKu6oifNSARb9Wrec4NJdlddEt_FEHDJV575jkznUX6GTw0zeALHHcMQAl7efeZsZMWJQ1ReCv0Aq8g8u3fG3BGijaWRI7AeTPcQbcnHEIBx55lGZ-mUbm0y0Na5qWAg6Tga_j42d0AS1wn-zueEf0JaCB8VoZ673V6rxt7pO_IMO_LgRfHu1zm0MWFI1Kg1NafZrTPA-4IrxKLwBJVCTuHTeWa4UJKt3OixNiIkcuCyOV7suA6mn9F9shLcn0rTAm_UEj9KPb3tE5Mz7wIpxBB26dSJ7XSExqzdIB5Yod5a6f33Hq6_yIM7OZAo7npFvtTk20DjeEUY0-IJDq7lVx5uoSm-ExpqjtzJET6vMEhwCD_bBtCLSl8nO6TLbde4d335WBE0YojgPHvqMUnQofTWBpbMg8ff8EeAuDYkUv6e0hbYDnbsqU6Uf0Nvl_grJiyiVVjT_fc35TCt4wrrpQPPBNFonmo9QpE7dEUP9ysdUOtHII0OaksE7m00]--></g></svg>