<?xml version="1.0" encoding="us-ascii" standalone="no"?><svg xmlns="http://www.w3.org/2000/svg" xmlns:xlink="http://www.w3.org/1999/xlink" contentStyleType="text/css" height="863px" preserveAspectRatio="none" style="width:473px;height:863px;background:#FFFFFF;" version="1.1" viewBox="0 0 473 863" width="473px" zoomAndPan="magnify"><defs/><g><text fill="#000000" font-family="sans-serif" font-size="14" font-weight="bold" lengthAdjust="spacing" textLength="140" x="162.75" y="29.6016">&#21363;&#26178;&#12450;&#12463;&#12471;&#12519;&#12531;&#12398;&#35299;&#27770;</text><line style="stroke:#181818;stroke-width:0.5;stroke-dasharray:5.0,5.0;" x1="47" x2="47" y1="122.6406" y2="780.8633"/><line style="stroke:#181818;stroke-width:0.5;stroke-dasharray:5.0,5.0;" x1="142" x2="142" y1="122.6406" y2="780.8633"/><line style="stroke:#181818;stroke-width:0.5;stroke-dasharray:5.0,5.0;" x1="283.5" x2="283.5" y1="122.6406" y2="780.8633"/><text fill="#000000" font-family="sans-serif" font-size="14" lengthAdjust="spacing" textLength="79" x="5" y="118.9219">&#12503;&#12524;&#12452;&#12516;&#12540;A</text><ellipse cx="47.5" cy="52.8203" fill="#E2E2F0" rx="8" ry="8" style="stroke:#181818;stroke-width:0.5;"/><path d="M47.5,60.8203 L47.5,87.8203 M34.5,68.8203 L60.5,68.8203 M47.5,87.8203 L34.5,102.8203 M47.5,87.8203 L60.5,102.8203 " fill="none" style="stroke:#181818;stroke-width:0.5;"/><text fill="#000000" font-family="sans-serif" font-size="14" lengthAdjust="spacing" textLength="79" x="5" y="794.4648">&#12503;&#12524;&#12452;&#12516;&#12540;A</text><ellipse cx="47.5" cy="806.6836" fill="#E2E2F0" rx="8" ry="8" style="stroke:#181818;stroke-width:0.5;"/><path d="M47.5,814.6836 L47.5,841.6836 M34.5,822.6836 L60.5,822.6836 M47.5,841.6836 L34.5,856.6836 M47.5,841.6836 L60.5,856.6836 " fill="none" style="stroke:#181818;stroke-width:0.5;"/><text fill="#000000" font-family="sans-serif" font-size="14" lengthAdjust="spacing" textLength="79" x="100" y="118.9219">&#12503;&#12524;&#12452;&#12516;&#12540;B</text><ellipse cx="142.5" cy="52.8203" fill="#E2E2F0" rx="8" ry="8" style="stroke:#181818;stroke-width:0.5;"/><path d="M142.5,60.8203 L142.5,87.8203 M129.5,68.8203 L155.5,68.8203 M142.5,87.8203 L129.5,102.8203 M142.5,87.8203 L155.5,102.8203 " fill="none" style="stroke:#181818;stroke-width:0.5;"/><text fill="#000000" font-family="sans-serif" font-size="14" lengthAdjust="spacing" textLength="79" x="100" y="794.4648">&#12503;&#12524;&#12452;&#12516;&#12540;B</text><ellipse cx="142.5" cy="806.6836" fill="#E2E2F0" rx="8" ry="8" style="stroke:#181818;stroke-width:0.5;"/><path d="M142.5,814.6836 L142.5,841.6836 M129.5,822.6836 L155.5,822.6836 M142.5,841.6836 L129.5,856.6836 M142.5,841.6836 L155.5,856.6836 " fill="none" style="stroke:#181818;stroke-width:0.5;"/><rect fill="#E2E2F0" height="32.3203" rx="2.5" ry="2.5" style="stroke:#181818;stroke-width:0.5;" width="112" x="227.5" y="89.3203"/><text fill="#000000" font-family="sans-serif" font-size="14" lengthAdjust="spacing" textLength="98" x="234.5" y="110.9219">&#12523;&#12540;&#12523;&#12471;&#12473;&#12486;&#12512;</text><rect fill="#E2E2F0" height="32.3203" rx="2.5" ry="2.5" style="stroke:#181818;stroke-width:0.5;" width="112" x="227.5" y="779.8633"/><text fill="#000000" font-family="sans-serif" font-size="14" lengthAdjust="spacing" textLength="98" x="234.5" y="801.4648">&#12523;&#12540;&#12523;&#12471;&#12473;&#12486;&#12512;</text><rect fill="#EEEEEE" height="3" style="stroke:#EEEEEE;stroke-width:1.0;" width="466.5" x="0" y="154.1465"/><line style="stroke:#000000;stroke-width:1.0;" x1="0" x2="466.5" y1="154.1465" y2="154.1465"/><line style="stroke:#000000;stroke-width:1.0;" x1="0" x2="466.5" y1="157.1465" y2="157.1465"/><rect fill="#EEEEEE" height="25.0117" style="stroke:#000000;stroke-width:2.0;" width="147" x="159.75" y="142.6406"/><text fill="#000000" font-family="sans-serif" font-size="13" font-weight="bold" lengthAdjust="spacing" textLength="130" x="165.75" y="160.1992">&#21363;&#26178;&#12450;&#12463;&#12471;&#12519;&#12531;&#12398;&#22580;&#21512;</text><polygon fill="#181818" points="271.5,196.6641,281.5,200.6641,271.5,204.6641,275.5,200.6641" style="stroke:#181818;stroke-width:1.0;"/><line style="stroke:#181818;stroke-width:1.0;" x1="47.5" x2="277.5" y1="200.6641" y2="200.6641"/><text fill="#000000" font-family="sans-serif" font-size="13" lengthAdjust="spacing" textLength="169" x="54.5" y="195.2109">&#21363;&#26178;&#12450;&#12463;&#12471;&#12519;&#12531;&#12434;&#12522;&#12463;&#12456;&#12473;&#12488;</text><path d="M288,213.6641 L288,240.6641 L439,240.6641 L439,223.6641 L429,213.6641 L288,213.6641 " fill="#FEFFDD" style="stroke:#181818;stroke-width:0.5;"/><path d="M429,213.6641 L429,223.6641 L439,223.6641 L429,213.6641 " fill="#FEFFDD" style="stroke:#181818;stroke-width:0.5;"/><text fill="#000000" font-family="sans-serif" font-size="13" lengthAdjust="spacing" textLength="130" x="294" y="232.2227">&#12473;&#12486;&#12540;&#12472;&#12395;&#31309;&#12414;&#12428;&#12394;&#12356;</text><line style="stroke:#181818;stroke-width:1.0;" x1="283.5" x2="325.5" y1="285.6992" y2="285.6992"/><line style="stroke:#181818;stroke-width:1.0;" x1="325.5" x2="325.5" y1="285.6992" y2="298.6992"/><line style="stroke:#181818;stroke-width:1.0;" x1="284.5" x2="325.5" y1="298.6992" y2="298.6992"/><polygon fill="#181818" points="294.5,294.6992,284.5,298.6992,294.5,302.6992,290.5,298.6992" style="stroke:#181818;stroke-width:1.0;"/><text fill="#000000" font-family="sans-serif" font-size="13" lengthAdjust="spacing" textLength="143" x="290.5" y="263.2344">&#12377;&#12368;&#12395;&#12522;&#12463;&#12456;&#12473;&#12488;&#12434;&#35299;&#27770;</text><text fill="#000000" font-family="sans-serif" font-size="13" lengthAdjust="spacing" textLength="91" x="290.5" y="280.2461">&#65288;&#21177;&#26524;&#12434;&#23455;&#34892;&#65289;</text><path d="M288,311.6992 L288,338.6992 L426,338.6992 L426,321.6992 L416,311.6992 L288,311.6992 " fill="#FEFFDD" style="stroke:#181818;stroke-width:0.5;"/><path d="M416,311.6992 L416,321.6992 L426,321.6992 L416,311.6992 " fill="#FEFFDD" style="stroke:#181818;stroke-width:0.5;"/><text fill="#000000" font-family="sans-serif" font-size="13" lengthAdjust="spacing" textLength="117" x="294" y="330.2578">&#30456;&#25163;&#12398;&#21106;&#12426;&#36796;&#12415;&#12394;&#12375;</text><polygon fill="#181818" points="58.5,362.7227,48.5,366.7227,58.5,370.7227,54.5,366.7227" style="stroke:#181818;stroke-width:1.0;"/><line style="stroke:#181818;stroke-width:1.0;stroke-dasharray:2.0,2.0;" x1="52.5" x2="282.5" y1="366.7227" y2="366.7227"/><text fill="#000000" font-family="sans-serif" font-size="13" lengthAdjust="spacing" textLength="52" x="64.5" y="361.2695">&#35299;&#27770;&#23436;&#20102;</text><polygon fill="#181818" points="153.5,393.7344,143.5,397.7344,153.5,401.7344,149.5,397.7344" style="stroke:#181818;stroke-width:1.0;"/><line style="stroke:#181818;stroke-width:1.0;stroke-dasharray:2.0,2.0;" x1="147.5" x2="282.5" y1="397.7344" y2="397.7344"/><text fill="#000000" font-family="sans-serif" font-size="13" lengthAdjust="spacing" textLength="65" x="159.5" y="392.2813">&#32080;&#26524;&#12434;&#21453;&#26144;</text><rect fill="#EEEEEE" height="3" style="stroke:#EEEEEE;stroke-width:1.0;" width="466.5" x="0" y="427.2402"/><line style="stroke:#000000;stroke-width:1.0;" x1="0" x2="466.5" y1="427.2402" y2="427.2402"/><line style="stroke:#000000;stroke-width:1.0;" x1="0" x2="466.5" y1="430.2402" y2="430.2402"/><rect fill="#EEEEEE" height="25.0117" style="stroke:#000000;stroke-width:2.0;" width="199" x="133.75" y="415.7344"/><text fill="#000000" font-family="sans-serif" font-size="13" font-weight="bold" lengthAdjust="spacing" textLength="182" x="139.75" y="433.293">&#36890;&#24120;&#12450;&#12463;&#12471;&#12519;&#12531;&#12398;&#22580;&#21512;&#65288;&#21442;&#32771;&#65289;</text><polygon fill="#181818" points="271.5,469.7578,281.5,473.7578,271.5,477.7578,275.5,473.7578" style="stroke:#181818;stroke-width:1.0;"/><line style="stroke:#181818;stroke-width:1.0;" x1="47.5" x2="277.5" y1="473.7578" y2="473.7578"/><text fill="#000000" font-family="sans-serif" font-size="13" lengthAdjust="spacing" textLength="169" x="54.5" y="468.3047">&#36890;&#24120;&#12450;&#12463;&#12471;&#12519;&#12531;&#12434;&#12522;&#12463;&#12456;&#12473;&#12488;</text><line style="stroke:#181818;stroke-width:1.0;" x1="283.5" x2="325.5" y1="504.7695" y2="504.7695"/><line style="stroke:#181818;stroke-width:1.0;" x1="325.5" x2="325.5" y1="504.7695" y2="517.7695"/><line style="stroke:#181818;stroke-width:1.0;" x1="284.5" x2="325.5" y1="517.7695" y2="517.7695"/><polygon fill="#181818" points="294.5,513.7695,284.5,517.7695,294.5,521.7695,290.5,517.7695" style="stroke:#181818;stroke-width:1.0;"/><text fill="#000000" font-family="sans-serif" font-size="13" lengthAdjust="spacing" textLength="91" x="290.5" y="499.3164">&#12473;&#12486;&#12540;&#12472;&#12395;&#36861;&#21152;</text><path d="M288,530.7695 L288,557.7695 L426,557.7695 L426,540.7695 L416,530.7695 L288,530.7695 " fill="#FEFFDD" style="stroke:#181818;stroke-width:0.5;"/><path d="M416,530.7695 L416,540.7695 L426,540.7695 L416,530.7695 " fill="#FEFFDD" style="stroke:#181818;stroke-width:0.5;"/><text fill="#000000" font-family="sans-serif" font-size="13" lengthAdjust="spacing" textLength="117" x="294" y="549.3281">&#12473;&#12486;&#12540;&#12472;&#12395;&#31309;&#12414;&#12428;&#12427;</text><polygon fill="#181818" points="153.5,598.8047,143.5,602.8047,153.5,606.8047,149.5,602.8047" style="stroke:#181818;stroke-width:1.0;"/><line style="stroke:#181818;stroke-width:1.0;stroke-dasharray:2.0,2.0;" x1="147.5" x2="282.5" y1="602.8047" y2="602.8047"/><text fill="#000000" font-family="sans-serif" font-size="13" lengthAdjust="spacing" textLength="91" x="159.5" y="580.3398">&#12481;&#12515;&#12531;&#12473;&#12434;&#31227;&#21205;</text><text fill="#000000" font-family="sans-serif" font-size="13" lengthAdjust="spacing" textLength="117" x="159.5" y="597.3516">&#65288;&#21106;&#12426;&#36796;&#12415;&#12398;&#27231;&#20250;&#65289;</text><polygon fill="#181818" points="271.5,629.8164,281.5,633.8164,271.5,637.8164,275.5,633.8164" style="stroke:#181818;stroke-width:1.0;"/><line style="stroke:#181818;stroke-width:1.0;" x1="142.5" x2="277.5" y1="633.8164" y2="633.8164"/><text fill="#000000" font-family="sans-serif" font-size="13" lengthAdjust="spacing" textLength="26" x="149.5" y="628.3633">&#12497;&#12473;</text><path d="M288,646.8164 L288,673.8164 L413,673.8164 L413,656.8164 L403,646.8164 L288,646.8164 " fill="#FEFFDD" style="stroke:#181818;stroke-width:0.5;"/><path d="M403,646.8164 L403,656.8164 L413,656.8164 L403,646.8164 " fill="#FEFFDD" style="stroke:#181818;stroke-width:0.5;"/><text fill="#000000" font-family="sans-serif" font-size="13" lengthAdjust="spacing" textLength="104" x="294" y="665.375">&#20840;&#21729;&#12497;&#12473;&#12391;&#35299;&#27770;&#12408;</text><line style="stroke:#181818;stroke-width:1.0;" x1="283.5" x2="325.5" y1="718.8516" y2="718.8516"/><line style="stroke:#181818;stroke-width:1.0;" x1="325.5" x2="325.5" y1="718.8516" y2="731.8516"/><line style="stroke:#181818;stroke-width:1.0;" x1="284.5" x2="325.5" y1="731.8516" y2="731.8516"/><polygon fill="#181818" points="294.5,727.8516,284.5,731.8516,294.5,735.8516,290.5,731.8516" style="stroke:#181818;stroke-width:1.0;"/><text fill="#000000" font-family="sans-serif" font-size="13" lengthAdjust="spacing" textLength="169" x="290.5" y="696.3867">&#12473;&#12486;&#12540;&#12472;&#12398;&#12522;&#12463;&#12456;&#12473;&#12488;&#12434;&#35299;&#27770;</text><text fill="#000000" font-family="sans-serif" font-size="13" lengthAdjust="spacing" textLength="91" x="290.5" y="713.3984">&#65288;&#21177;&#26524;&#12434;&#23455;&#34892;&#65289;</text><polygon fill="#181818" points="58.5,758.8633,48.5,762.8633,58.5,766.8633,54.5,762.8633" style="stroke:#181818;stroke-width:1.0;"/><line style="stroke:#181818;stroke-width:1.0;stroke-dasharray:2.0,2.0;" x1="52.5" x2="282.5" y1="762.8633" y2="762.8633"/><text fill="#000000" font-family="sans-serif" font-size="13" lengthAdjust="spacing" textLength="52" x="64.5" y="757.4102">&#35299;&#27770;&#23436;&#20102;</text><!--SRC=[bP7TIW915CVlvoc6xdk1O0Dz1Q-2RaIi5aB5zW6ScH8_qOemBL8py2isogBLDdsOuwpRbQ_GpAv9QsuWB7invt_cTyvlD5KxZc9U75XL2lGUw1FGTs1jO0CWkjrkMSyZXC8HBPx4My0gm1w1FW0JdndOmk4J7F2f1frg42N2IKsDg8bmJ9EPlYZ9lw3G8R0qi8OJ3Es5458Ktr5uuvMNCrXH40hWxLsPnpi-QNe1hEUST1n81iNYMXGdrSCZ3SSF5hq_V1Ee0QG_wnQ1Z84MWFI0d28aKqiGa2gGieYjt2nOhgJzsDpCyDpGkhiLProlsyt2tCok9Szk32kRbqjbNu3cxB49PE9WAmkiu0P4qBsQwuNfABqi1EKDR-K5g5IqhXkEkQzKZHk6dpavNOdQAIQ6MhMullElHQyHhpvxyibpZSr4qxndAM04MCj13mLzrlxW-IlNgyUJRdNhKxCcxQBWhu7OkMXSEm4_w_3BfXi0qdQr0Z7GVolfcpwrxyjz0m00]--></g></svg>