<?xml version="1.0" encoding="UTF-8" standalone="no"?><svg xmlns="http://www.w3.org/2000/svg" xmlns:xlink="http://www.w3.org/1999/xlink" contentScriptType="application/ecmascript" contentStyleType="text/css" height="321px" preserveAspectRatio="none" style="width:576px;height:321px;" version="1.1" viewBox="0 0 576 321" width="576px" zoomAndPan="magnify"><defs><filter height="300%" id="f7i0pgnz87fhl" width="300%" x="-1" y="-1"><feGaussianBlur result="blurOut" stdDeviation="2.0"/><feColorMatrix in="blurOut" result="blurOut2" type="matrix" values="0 0 0 0 0 0 0 0 0 0 0 0 0 0 0 0 0 0 .4 0"/><feOffset dx="4.0" dy="4.0" in="blurOut2" result="blurOut3"/><feBlend in="SourceGraphic" in2="blurOut3" mode="normal"/></filter></defs><g><!--MD5=[7663f4622c0f2c435ab42eda539713f6]
cluster format--><rect fill="#FFFFFF" filter="url(#f7i0pgnz87fhl)" height="91" style="stroke: #000000; stroke-width: 1.5;" width="552" x="7" y="110"/><path d="M101,111 L101,121.3203 L91,131.3203 L7,131.3203 " fill="none" style="stroke: #000000; stroke-width: 1.5;"/><text fill="#000000" font-family="sans-serif" font-size="14" font-weight="bold" lengthAdjust="spacingAndGlyphs" textLength="84" x="10" y="125.6016">フォーマット</text><!--MD5=[99101fe62a5f189e8991527127d3b0bb]
entity extra--><rect fill="#FEFECE" filter="url(#f7i0pgnz87fhl)" height="38.3203" style="stroke: #000000; stroke-width: 1.5;" width="90" x="23" y="147"/><text fill="#000000" font-family="sans-serif" font-size="14" lengthAdjust="spacingAndGlyphs" textLength="70" x="33" y="171.6016">エクストラ</text><!--MD5=[e6001af16d4774e0fdad2715570119d9]
entity master--><rect fill="#FEFECE" filter="url(#f7i0pgnz87fhl)" height="38.3203" style="stroke: #000000; stroke-width: 1.5;" width="76" x="148" y="147"/><text fill="#000000" font-family="sans-serif" font-size="14" lengthAdjust="spacingAndGlyphs" textLength="56" x="158" y="171.6016">マスター</text><!--MD5=[f98759e4eb96d6a1d3ce0405f8c1a67e]
entity pro--><rect fill="#FEFECE" filter="url(#f7i0pgnz87fhl)" height="38.3203" style="stroke: #000000; stroke-width: 1.5;" width="48" x="259" y="147"/><text fill="#000000" font-family="sans-serif" font-size="14" lengthAdjust="spacingAndGlyphs" textLength="28" x="269" y="171.6016">プロ</text><!--MD5=[68560b35a5f33bb4760d613c81346123]
entity std--><rect fill="#FEFECE" filter="url(#f7i0pgnz87fhl)" height="38.3203" style="stroke: #000000; stroke-width: 1.5;" width="104" x="342" y="147"/><text fill="#000000" font-family="sans-serif" font-size="14" lengthAdjust="spacingAndGlyphs" textLength="84" x="352" y="171.6016">スタンダード</text><!--MD5=[a6fd415a5c5abcde107a4b1e52d6a5ff]
entity light--><rect fill="#FEFECE" filter="url(#f7i0pgnz87fhl)" height="38.3203" style="stroke: #000000; stroke-width: 1.5;" width="62" x="481" y="147"/><text fill="#000000" font-family="sans-serif" font-size="14" lengthAdjust="spacingAndGlyphs" textLength="42" x="491" y="171.6016">ライト</text><!--MD5=[8274bfb416b6365278739ca5c48d26ea]
entity common--><rect fill="#FEFECE" filter="url(#f7i0pgnz87fhl)" height="38.3203" style="stroke: #000000; stroke-width: 1.5;" width="90" x="238" y="266"/><text fill="#000000" font-family="sans-serif" font-size="14" lengthAdjust="spacingAndGlyphs" textLength="70" x="248" y="290.6016">共通ルール</text><!--MD5=[4ce29d5cb3193d40f69bc8bb1641bb04]
entity regulation--><rect fill="#FEFECE" filter="url(#f7i0pgnz87fhl)" height="38.3203" style="stroke: #000000; stroke-width: 1.5;" width="160" x="203" y="7"/><text fill="#000000" font-family="sans-serif" font-size="14" lengthAdjust="spacingAndGlyphs" textLength="140" x="213" y="31.6016">対戦レギュレーション</text><!--MD5=[cc48bb5a0dc3e5dffc19a481d17487fc]
link regulation to extra--><path d="M236.21,45.04 C204.69,58.34 163,78.21 130,102 C113.75,113.71 97.96,129.85 86.38,142.87 " fill="none" id="regulation-&gt;extra" style="stroke: #A80036; stroke-width: 1.0;"/><polygon fill="#A80036" points="82.92,146.8,91.8734,142.6968,86.2276,143.0504,85.8741,137.4046,82.92,146.8" style="stroke: #A80036; stroke-width: 1.0;"/><text fill="#000000" font-family="sans-serif" font-size="13" lengthAdjust="spacingAndGlyphs" textLength="26" x="171" y="89.5586">参照</text><!--MD5=[6dda1ba391b3be64c1df4c09322e7200]
link regulation to master--><path d="M269.12,45.08 C262.34,54.01 254.14,64.99 247,75 C230.83,97.67 213.05,124.09 200.87,142.42 " fill="none" id="regulation-&gt;master" style="stroke: #A80036; stroke-width: 1.0;"/><polygon fill="#A80036" points="197.9,146.9,206.2205,141.6303,200.6735,142.7397,199.5641,137.1927,197.9,146.9" style="stroke: #A80036; stroke-width: 1.0;"/><text fill="#000000" font-family="sans-serif" font-size="13" lengthAdjust="spacingAndGlyphs" textLength="26" x="248" y="89.5586">参照</text><!--MD5=[062b6f771375b2c2d6e8e0351609afe7]
link regulation to std--><path d="M297.51,45.04 C317.7,70.15 354.25,115.58 376.11,142.76 " fill="none" id="regulation-&gt;std" style="stroke: #A80036; stroke-width: 1.0;"/><polygon fill="#A80036" points="379.49,146.95,376.9402,137.4369,376.3457,143.0624,370.7201,142.4679,379.49,146.95" style="stroke: #A80036; stroke-width: 1.0;"/><text fill="#000000" font-family="sans-serif" font-size="13" lengthAdjust="spacingAndGlyphs" textLength="26" x="337" y="89.5586">参照</text><!--MD5=[14ceffcf539c1607870730c5b341b2f1]
link regulation to pro--><path d="M283,45.04 C283,69.84 283,114.47 283,141.74 " fill="none" id="regulation-&gt;pro" style="stroke: #A80036; stroke-width: 1.0;"/><polygon fill="#A80036" points="283,146.95,287,137.95,283,141.95,279,137.95,283,146.95" style="stroke: #A80036; stroke-width: 1.0;"/><text fill="#000000" font-family="sans-serif" font-size="13" lengthAdjust="spacingAndGlyphs" textLength="26" x="284" y="89.5586">参照</text><!--MD5=[ffbc5cef5929a613b85119c5051b3db9]
link regulation to light--><path d="M348.92,45 C385.31,57.12 429.91,75.75 464,102 C478.29,113.01 490.54,129.27 499.08,142.52 " fill="none" id="regulation-&gt;light" style="stroke: #A80036; stroke-width: 1.0;"/><polygon fill="#A80036" points="501.84,146.89,500.4148,137.1448,499.1695,142.6629,493.6514,141.4176,501.84,146.89" style="stroke: #A80036; stroke-width: 1.0;"/><text fill="#000000" font-family="sans-serif" font-size="13" lengthAdjust="spacingAndGlyphs" textLength="26" x="452" y="89.5586">参照</text><!--MD5=[abc33f16a2901d4465ea8ac295dbc739]
link extra to common--><path d="M93.15,185.14 C104.23,192.85 117.55,201.71 130,209 C165.02,229.5 206.43,249.56 237.34,263.77 " fill="none" id="extra-&gt;common" style="stroke: #A80036; stroke-width: 1.0;"/><polygon fill="#A80036" points="242.21,266,235.6998,258.6096,237.666,263.9138,232.3619,265.88,242.21,266" style="stroke: #A80036; stroke-width: 1.0;"/><text fill="#000000" font-family="sans-serif" font-size="13" lengthAdjust="spacingAndGlyphs" textLength="26" x="181" y="231.5586">参照</text><!--MD5=[e65d8f9f6abbe7eb56c623f07cddc9da]
link master to common--><path d="M197.35,185.26 C206.57,199.57 220.25,219.73 234,236 C241.53,244.91 250.47,254.03 258.65,261.89 " fill="none" id="master-&gt;common" style="stroke: #A80036; stroke-width: 1.0;"/><polygon fill="#A80036" points="262.59,265.65,258.8144,256.5536,258.9629,262.2085,253.308,262.357,262.59,265.65" style="stroke: #A80036; stroke-width: 1.0;"/><text fill="#000000" font-family="sans-serif" font-size="13" lengthAdjust="spacingAndGlyphs" textLength="39" x="235" y="231.5586">　参照</text><!--MD5=[a80e2cba99847fcefc2c28aa8be5b8e9]
link pro to common--><path d="M283,185.02 C283,205.32 283,238.36 283,260.63 " fill="none" id="pro-&gt;common" style="stroke: #A80036; stroke-width: 1.0;"/><polygon fill="#A80036" points="283,265.76,287,256.76,283,260.76,279,256.76,283,265.76" style="stroke: #A80036; stroke-width: 1.0;"/><text fill="#000000" font-family="sans-serif" font-size="13" lengthAdjust="spacingAndGlyphs" textLength="26" x="284" y="231.5586">参照</text><!--MD5=[8ae39fb086d8c14e746e6da7b4f40295]
link std to common--><path d="M376.9,185.02 C357.24,205.75 324.97,239.76 303.85,262.02 " fill="none" id="std-&gt;common" style="stroke: #A80036; stroke-width: 1.0;"/><polygon fill="#A80036" points="300.3,265.76,309.3964,261.9844,303.7415,262.1329,303.593,256.478,300.3,265.76" style="stroke: #A80036; stroke-width: 1.0;"/><text fill="#000000" font-family="sans-serif" font-size="13" lengthAdjust="spacingAndGlyphs" textLength="26" x="346" y="231.5586">参照</text><!--MD5=[084d300f5db99f81b5b63c7ad4223097]
link light to common--><path d="M493.98,185.28 C485.41,193.28 474.72,202.34 464,209 C422.52,234.76 370.65,255.22 333.08,268.21 " fill="none" id="light-&gt;common" style="stroke: #A80036; stroke-width: 1.0;"/><polygon fill="#A80036" points="328.11,269.92,337.9197,270.7978,332.8419,268.3046,335.335,263.2268,328.11,269.92" style="stroke: #A80036; stroke-width: 1.0;"/><text fill="#000000" font-family="sans-serif" font-size="13" lengthAdjust="spacingAndGlyphs" textLength="26" x="451" y="231.5586">参照</text><!--MD5=[a10a1731470e6309c6d7262c1812d684]
@startuml
rectangle "共通ルール" as common
rectangle "対戦レギュレーション" as regulation

frame "フォーマット" as format{
    rectangle "エクストラ" as extra
    rectangle "マスター" as master
    rectangle "プロ" as pro
    rectangle "スタンダード" as std
    rectangle "ライト" as light
}

regulation - -> extra : 参照
regulation - -> master : 参照
regulation - -> std : 参照
regulation - -> pro : 参照
regulation - -> light : 参照
 extra - -> common : 参照
 master - -> common : 　参照
 pro - -> common : 参照
 std - -> common : 参照
 light - -> common : 参照

@enduml

PlantUML version 1.2020.14(Sat Jun 20 14:14:34 GMT 2020)
(GPL source distribution)
Java Runtime: OpenJDK Runtime Environment
JVM: OpenJDK 64-Bit Server VM
Default Encoding: UTF-8
Language: ja
Country: JP
--></g></svg>