<?xml version="1.0" encoding="us-ascii" standalone="no"?><svg xmlns="http://www.w3.org/2000/svg" xmlns:xlink="http://www.w3.org/1999/xlink" contentStyleType="text/css" height="473px" preserveAspectRatio="none" style="width:642px;height:473px;background:#FFFFFF;" version="1.1" viewBox="0 0 642 473" width="642px" zoomAndPan="magnify"><defs/><g><ellipse cx="452" cy="20" fill="#222222" rx="10" ry="10" style="stroke:#222222;stroke-width:1.0;"/><rect fill="#F1F1F1" height="35.7031" rx="12.5" ry="12.5" style="stroke:#181818;stroke-width:0.5;" width="252" x="326" y="112.3945"/><text fill="#000000" font-family="sans-serif" font-size="12" lengthAdjust="spacing" textLength="232" x="336" y="134.9102">[6-5-2] &#12496;&#12483;&#12501;&#12449;&#12363;&#12425;&#12522;&#12463;&#12456;&#12473;&#12488;&#12434;&#21462;&#12426;&#20986;&#12377;</text><rect fill="#F1F1F1" height="35.7031" rx="12.5" ry="12.5" style="stroke:#181818;stroke-width:0.5;" width="240" x="332" y="168.0977"/><text fill="#000000" font-family="sans-serif" font-size="12" lengthAdjust="spacing" textLength="220" x="342" y="190.6133">[6-5-3] &#21462;&#12426;&#20986;&#12375;&#12383;&#12522;&#12463;&#12456;&#12473;&#12488;&#12434;&#35299;&#27770;&#12377;&#12427;</text><polygon fill="#F1F1F1" points="412.5,223.8008,491.5,223.8008,503.5,235.8008,491.5,247.8008,412.5,247.8008,400.5,235.8008,412.5,223.8008" style="stroke:#181818;stroke-width:0.5;"/><text fill="#000000" font-family="sans-serif" font-size="11" lengthAdjust="spacing" textLength="79" x="412.5" y="240.0762">[6-5-4] &#21213;&#25943;&#21028;&#23450;</text><text fill="#000000" font-family="sans-serif" font-size="11" lengthAdjust="spacing" textLength="22" x="503.5" y="232.8789">&#27770;&#30528;</text><ellipse cx="547.5" cy="235.8008" fill="none" rx="11" ry="11" style="stroke:#222222;stroke-width:1.0;"/><ellipse cx="547.5" cy="235.8008" fill="#222222" rx="6" ry="6" style="stroke:#222222;stroke-width:1.0;"/><path d="M45,334.7734 L45,395.8086 A0,0 0 0 0 45,395.8086 L300,395.8086 A0,0 0 0 0 300,395.8086 L300,369.291 L320,365.291 L300,361.291 L300,344.7734 L290,334.7734 L45,334.7734 A0,0 0 0 0 45,334.7734 " fill="#FEFFDD" style="stroke:#181818;stroke-width:0.5;"/><path d="M290,334.7734 L290,344.7734 L300,344.7734 L290,334.7734 " fill="#FEFFDD" style="stroke:#181818;stroke-width:0.5;"/><text fill="#000000" font-family="sans-serif" font-size="13" lengthAdjust="spacing" textLength="234" x="51" y="353.332">&#35480;&#30330;&#12375;&#12383;&#12522;&#12463;&#12456;&#12473;&#12488;&#12398;&#12467;&#12531;&#12488;&#12525;&#12540;&#12521;&#12540;&#12399;</text><text fill="#000000" font-family="sans-serif" font-size="13" lengthAdjust="spacing" textLength="208" x="51" y="370.3438">&#36215;&#22240;&#12392;&#12394;&#12387;&#12383;&#12450;&#12463;&#12471;&#12519;&#12531;&#12398;&#12458;&#12540;&#12490;&#12540;</text><text fill="#000000" font-family="sans-serif" font-size="13" lengthAdjust="spacing" textLength="78" x="51" y="387.3555">&#12395;&#12394;&#12426;&#12414;&#12377;&#12290;</text><rect fill="#F1F1F1" height="35.7031" rx="12.5" ry="12.5" style="stroke:#181818;stroke-width:0.5;" width="264" x="320" y="347.4395"/><text fill="#000000" font-family="sans-serif" font-size="12" lengthAdjust="spacing" textLength="244" x="330" y="369.9551">[6-5-6] &#35480;&#30330;&#12375;&#12383;&#12522;&#12463;&#12456;&#12473;&#12488;&#12434;&#12496;&#12483;&#12501;&#12449;&#12395;&#36861;&#21152;</text><polygon fill="#F1F1F1" points="330,287.8008,574,287.8008,586,299.8008,574,311.8008,330,311.8008,318,299.8008,330,287.8008" style="stroke:#181818;stroke-width:0.5;"/><text fill="#000000" font-family="sans-serif" font-size="11" lengthAdjust="spacing" textLength="17" x="456" y="323.2734">Yes</text><text fill="#000000" font-family="sans-serif" font-size="11" lengthAdjust="spacing" textLength="244" x="330" y="304.0762">[6-5-5] &#12522;&#12463;&#12456;&#12473;&#12488;&#12364;&#26032;&#12383;&#12394;&#35480;&#30330;&#12434;&#30330;&#29983;&#12373;&#12379;&#12383;&#12363;&#65311;</text><polygon fill="#F1F1F1" points="452,415.8086,464,427.8086,452,439.8086,440,427.8086,452,415.8086" style="stroke:#181818;stroke-width:0.5;"/><polygon fill="#F1F1F1" points="346.5,50,557.5,50,569.5,62,557.5,74,346.5,74,334.5,62,346.5,50" style="stroke:#181818;stroke-width:0.5;"/><text fill="#000000" font-family="sans-serif" font-size="11" lengthAdjust="spacing" textLength="17" x="456" y="85.4727">Yes</text><text fill="#000000" font-family="sans-serif" font-size="11" lengthAdjust="spacing" textLength="211" x="346.5" y="66.2754">[6-5-1] &#12496;&#12483;&#12501;&#12449;&#12363;&#12425;&#35442;&#24403;&#12398;&#21363;&#26178;&#12399;&#12354;&#12427;&#12363;&#65311;</text><text fill="#000000" font-family="sans-serif" font-size="11" lengthAdjust="spacing" textLength="14" x="320.5" y="59.0781">No</text><ellipse cx="24" cy="109" fill="none" rx="11" ry="11" style="stroke:#222222;stroke-width:1.0;"/><ellipse cx="24" cy="109" fill="#222222" rx="6" ry="6" style="stroke:#222222;stroke-width:1.0;"/><line style="stroke:#181818;stroke-width:1.0;" x1="452" x2="452" y1="148.0977" y2="168.0977"/><polygon fill="#181818" points="448,158.0977,452,168.0977,456,158.0977,452,162.0977" style="stroke:#181818;stroke-width:1.0;"/><line style="stroke:#181818;stroke-width:1.0;" x1="452" x2="452" y1="247.8008" y2="287.8008"/><polygon fill="#181818" points="448,277.8008,452,287.8008,456,277.8008,452,281.8008" style="stroke:#181818;stroke-width:1.0;"/><line style="stroke:#181818;stroke-width:1.0;" x1="503.5" x2="536.5" y1="235.8008" y2="235.8008"/><polygon fill="#181818" points="526.5,231.8008,536.5,235.8008,526.5,239.8008,530.5,235.8008" style="stroke:#181818;stroke-width:1.0;"/><line style="stroke:#181818;stroke-width:1.0;" x1="452" x2="452" y1="203.8008" y2="223.8008"/><polygon fill="#181818" points="448,213.8008,452,223.8008,456,213.8008,452,217.8008" style="stroke:#181818;stroke-width:1.0;"/><line style="stroke:#181818;stroke-width:1.0;" x1="452" x2="452" y1="311.8008" y2="347.4395"/><polygon fill="#181818" points="448,337.4395,452,347.4395,456,337.4395,452,341.4395" style="stroke:#181818;stroke-width:1.0;"/><line style="stroke:#181818;stroke-width:1.0;" x1="586" x2="598" y1="299.8008" y2="299.8008"/><polygon fill="#181818" points="594,355.291,598,365.291,602,355.291,598,359.291" style="stroke:#181818;stroke-width:1.0;"/><line style="stroke:#181818;stroke-width:1.0;" x1="598" x2="598" y1="299.8008" y2="427.8086"/><line style="stroke:#181818;stroke-width:1.0;" x1="598" x2="464" y1="427.8086" y2="427.8086"/><polygon fill="#181818" points="474,423.8086,464,427.8086,474,431.8086,470,427.8086" style="stroke:#181818;stroke-width:1.0;"/><line style="stroke:#181818;stroke-width:1.0;" x1="452" x2="452" y1="383.1426" y2="415.8086"/><polygon fill="#181818" points="448,405.8086,452,415.8086,456,405.8086,452,409.8086" style="stroke:#181818;stroke-width:1.0;"/><line style="stroke:#181818;stroke-width:1.0;" x1="452" x2="452" y1="74" y2="112.3945"/><polygon fill="#181818" points="448,102.3945,452,112.3945,456,102.3945,452,106.3945" style="stroke:#181818;stroke-width:1.0;"/><line style="stroke:#181818;stroke-width:1.0;" x1="452" x2="452" y1="439.8086" y2="449.8086"/><line style="stroke:#181818;stroke-width:1.0;" x1="452" x2="616" y1="449.8086" y2="449.8086"/><polygon fill="#181818" points="612,267.8008,616,257.8008,620,267.8008,616,263.8008" style="stroke:#181818;stroke-width:1.0;"/><line style="stroke:#181818;stroke-width:1.0;" x1="616" x2="616" y1="62" y2="449.8086"/><line style="stroke:#181818;stroke-width:1.0;" x1="616" x2="569.5" y1="62" y2="62"/><polygon fill="#181818" points="579.5,58,569.5,62,579.5,66,575.5,62" style="stroke:#181818;stroke-width:1.0;"/><line style="stroke:#181818;stroke-width:1.0;" x1="334.5" x2="24" y1="62" y2="62"/><line style="stroke:#181818;stroke-width:1.0;" x1="24" x2="24" y1="62" y2="98"/><polygon fill="#181818" points="20,88,24,98,28,88,24,92" style="stroke:#181818;stroke-width:1.0;"/><line style="stroke:#181818;stroke-width:1.0;" x1="452" x2="452" y1="30" y2="50"/><polygon fill="#181818" points="448,40,452,50,456,40,452,44" style="stroke:#181818;stroke-width:1.0;"/><!--SRC=[XPBBJi9058RtVOhP0GiMNc0XyHNS6yF2n19821ZRn6rd9X4iNl0228I0OWHAf2enH0BwC2TJsF4ApWo5G5JiucJQq-y___apdksLZ-818ylEkqwHJ0Ob80z0R20ze0sWNSU-0DncgQTHzWICAyNpZvQYwVj7kd8SZSLLvDqB-WF-jJ02cWLAWUQ0t0FE03aTjzxOy0PmPpeOi0sO0CdmxcHGzQ6OXhoxgkPJ4DgIAkk_gG2rfDaca0-WQI3Nx38Fn6IfFk1YQ0vlXD52em2u-fCSD-hEgy2u2q768gx_JGvdAawkmDAFh5Fo8Jsg9f2N_pog6C8WGfgUFEG7DN4GYooY0M5wUH0-S_8lmW2snjRTgDZdetaTtV8lES1bsPfcC9tZfZ1R9HX6BlV77iifjSTVGsRMGb8XaTHL55SZkdn3AuLm1qYNNm1nfiz01q1Rec9x1h_tMBa6kCat0LmN4ijNHqfOaZHvTJ5kIG341FmfmZQ8RF3efBrvYhowbsWdwLD4mDy0]--></g></svg>