<?xml version="1.0" encoding="UTF-8" standalone="no"?><svg xmlns="http://www.w3.org/2000/svg" xmlns:xlink="http://www.w3.org/1999/xlink" contentScriptType="application/ecmascript" contentStyleType="text/css" height="1259px" preserveAspectRatio="none" style="width:617px;height:1259px;" version="1.1" viewBox="0 0 617 1259" width="617px" zoomAndPan="magnify"><defs><filter height="300%" id="f1pepuja6qrtby" width="300%" x="-1" y="-1"><feGaussianBlur result="blurOut" stdDeviation="2.0"/><feColorMatrix in="blurOut" result="blurOut2" type="matrix" values="0 0 0 0 0 0 0 0 0 0 0 0 0 0 0 0 0 0 .4 0"/><feOffset dx="4.0" dy="4.0" in="blurOut2" result="blurOut3"/><feBlend in="SourceGraphic" in2="blurOut3" mode="normal"/></filter></defs><g><ellipse cx="430.5" cy="16" fill="#000000" filter="url(#f1pepuja6qrtby)" rx="10" ry="10" style="stroke: none; stroke-width: 1.0;"/><rect fill="#FEFECE" filter="url(#f1pepuja6qrtby)" height="35.7031" rx="12.5" ry="12.5" style="stroke: #A80036; stroke-width: 1.5;" width="95" x="383" y="67"/><text fill="#000000" font-family="sans-serif" font-size="12" lengthAdjust="spacingAndGlyphs" textLength="75" x="393" y="89.5156">[1]ゲーム開始</text><rect fill="#FEFECE" filter="url(#f1pepuja6qrtby)" height="35.7031" rx="12.5" ry="12.5" style="stroke: #A80036; stroke-width: 1.5;" width="227" x="317" y="144"/><text fill="#000000" font-family="sans-serif" font-size="12" lengthAdjust="spacingAndGlyphs" textLength="207" x="327" y="166.5156">[2]ターンプレイヤーにチャンスを移動</text><rect fill="#FEFECE" filter="url(#f1pepuja6qrtby)" height="35.7031" rx="12.5" ry="12.5" style="stroke: #A80036; stroke-width: 1.5;" width="131" x="365" y="221"/><text fill="#000000" font-family="sans-serif" font-size="12" lengthAdjust="spacingAndGlyphs" textLength="111" x="375" y="243.5156">[3]ステージが空か？</text><polygon fill="#FEFECE" filter="url(#f1pepuja6qrtby)" points="346.5,298,358.5,310,346.5,322,334.5,310,346.5,298" style="stroke: #A80036; stroke-width: 1.5;"/><rect fill="#FEFECE" filter="url(#f1pepuja6qrtby)" height="35.7031" rx="12.5" ry="12.5" style="stroke: #A80036; stroke-width: 1.5;" width="131" x="262" y="550"/><text fill="#000000" font-family="sans-serif" font-size="12" lengthAdjust="spacingAndGlyphs" textLength="111" x="272" y="572.5156">[4]パス名簿リセット</text><rect fill="#FEFECE" filter="url(#f1pepuja6qrtby)" height="35.7031" rx="12.5" ry="12.5" style="stroke: #A80036; stroke-width: 1.5;" width="143" x="256" y="627"/><text fill="#000000" font-family="sans-serif" font-size="12" lengthAdjust="spacingAndGlyphs" textLength="123" x="266" y="649.5156">[5]アクションを起こす</text><rect fill="#FEFECE" filter="url(#f1pepuja6qrtby)" height="35.7031" rx="12.5" ry="12.5" style="stroke: #A80036; stroke-width: 1.5;" width="114" x="461.5" y="704"/><text fill="#000000" font-family="sans-serif" font-size="12" lengthAdjust="spacingAndGlyphs" textLength="94" x="471.5" y="726.5156">[10]誘発チェック</text><rect fill="#FEFECE" filter="url(#f1pepuja6qrtby)" height="35.7031" rx="12.5" ry="12.5" style="stroke: #A80036; stroke-width: 1.5;" width="107" x="380" y="796"/><text fill="#000000" font-family="sans-serif" font-size="12" lengthAdjust="spacingAndGlyphs" textLength="87" x="390" y="818.5156">[6]即時効果か？</text><polygon fill="#FEFECE" filter="url(#f1pepuja6qrtby)" points="433.5,908,445.5,920,433.5,932,421.5,920,433.5,908" style="stroke: #A80036; stroke-width: 1.5;"/><rect fill="#FEFECE" filter="url(#f1pepuja6qrtby)" height="35.7031" rx="12.5" ry="12.5" style="stroke: #A80036; stroke-width: 1.5;" width="131" x="259" y="988"/><text fill="#000000" font-family="sans-serif" font-size="12" lengthAdjust="spacingAndGlyphs" textLength="111" x="269" y="1010.5156">[7]アクションの解決</text><rect fill="#FEFECE" filter="url(#f1pepuja6qrtby)" height="35.7031" rx="12.5" ry="12.5" style="stroke: #A80036; stroke-width: 1.5;" width="83" x="405" y="1065"/><text fill="#000000" font-family="sans-serif" font-size="12" lengthAdjust="spacingAndGlyphs" textLength="63" x="415" y="1087.5156">[8]勝敗判定</text><polygon fill="#FEFECE" filter="url(#f1pepuja6qrtby)" points="523.5,1142,535.5,1154,523.5,1166,511.5,1154,523.5,1142" style="stroke: #A80036; stroke-width: 1.5;"/><ellipse cx="523.5" cy="1232" fill="none" filter="url(#f1pepuja6qrtby)" rx="10" ry="10" style="stroke: #000000; stroke-width: 1.0;"/><ellipse cx="524" cy="1232.5" fill="#000000" rx="6" ry="6" style="stroke: none; stroke-width: 1.0;"/><rect fill="#FEFECE" filter="url(#f1pepuja6qrtby)" height="35.7031" rx="12.5" ry="12.5" style="stroke: #A80036; stroke-width: 1.5;" width="119" x="410" y="988"/><text fill="#000000" font-family="sans-serif" font-size="12" lengthAdjust="spacingAndGlyphs" textLength="99" x="420" y="1010.5156">[9]ステージに追加</text><rect fill="#FEFECE" filter="url(#f1pepuja6qrtby)" height="35.7031" rx="12.5" ry="12.5" style="stroke: #A80036; stroke-width: 1.5;" width="174" x="141.5" y="378"/><text fill="#000000" font-family="sans-serif" font-size="12" lengthAdjust="spacingAndGlyphs" textLength="154" x="151.5" y="400.5156">[11]アクションを起こすか？</text><polygon fill="#FEFECE" filter="url(#f1pepuja6qrtby)" points="228.5,470,240.5,482,228.5,494,216.5,482,228.5,470" style="stroke: #A80036; stroke-width: 1.5;"/><rect fill="#FEFECE" filter="url(#f1pepuja6qrtby)" height="35.7031" rx="12.5" ry="12.5" style="stroke: #A80036; stroke-width: 1.5;" width="126" x="101.5" y="550"/><text fill="#000000" font-family="sans-serif" font-size="12" lengthAdjust="spacingAndGlyphs" textLength="106" x="111.5" y="572.5156">[12]パス名簿に登録</text><rect fill="#FEFECE" filter="url(#f1pepuja6qrtby)" height="35.7031" rx="12.5" ry="12.5" style="stroke: #A80036; stroke-width: 1.5;" width="229" x="7" y="627"/><text fill="#000000" font-family="sans-serif" font-size="12" lengthAdjust="spacingAndGlyphs" textLength="209" x="17" y="649.5156">[13]パス名簿の件数=プレイヤー数か？</text><polygon fill="#FEFECE" filter="url(#f1pepuja6qrtby)" points="214.5,710,226.5,722,214.5,734,202.5,722,214.5,710" style="stroke: #A80036; stroke-width: 1.5;"/><rect fill="#FEFECE" filter="url(#f1pepuja6qrtby)" height="35.7031" rx="12.5" ry="12.5" style="stroke: #A80036; stroke-width: 1.5;" width="150" x="167.5" y="852"/><text fill="#000000" font-family="sans-serif" font-size="12" lengthAdjust="spacingAndGlyphs" textLength="130" x="177.5" y="874.5156">[14]ステージから取出し</text><rect fill="#FEFECE" filter="url(#f1pepuja6qrtby)" height="35.7031" rx="12.5" ry="12.5" style="stroke: #A80036; stroke-width: 1.5;" width="114" x="245.5" y="796"/><text fill="#000000" font-family="sans-serif" font-size="12" lengthAdjust="spacingAndGlyphs" textLength="94" x="255.5" y="818.5156">[15]チャンス移動</text><!--MD5=[0aae323e7347e1675aa0af38f9c3328f]
link start to [1]ゲーム開始--><path d="M430.5,26.04 C430.5,35.16 430.5,49.61 430.5,61.8 " fill="none" id="start-&gt;[1]ゲーム開始" style="stroke: #A80036; stroke-width: 1.0;"/><polygon fill="#A80036" points="430.5,66.87,434.5,57.87,430.5,61.87,426.5,57.87,430.5,66.87" style="stroke: #A80036; stroke-width: 1.0;"/><!--MD5=[e35976fa085434ff20dd2ef7974d1fcb]
link [1]ゲーム開始 to [2]ターンプレイヤーにチャンスを移動--><path d="M430.5,103.02 C430.5,113.59 430.5,127.29 430.5,138.72 " fill="none" id="[1]ゲーム開始-&gt;[2]ターンプレイヤーにチャンスを移動" style="stroke: #A80036; stroke-width: 1.0;"/><polygon fill="#A80036" points="430.5,143.79,434.5,134.79,430.5,138.79,426.5,134.79,430.5,143.79" style="stroke: #A80036; stroke-width: 1.0;"/><!--MD5=[a6faff74d8c715883e2ccb680d614716]
link [2]ターンプレイヤーにチャンスを移動 to [3]ステージが空か？--><path d="M430.5,180.02 C430.5,190.59 430.5,204.29 430.5,215.72 " fill="none" id="[2]ターンプレイヤーにチャンスを移動-&gt;[3]ステージが空か？" style="stroke: #A80036; stroke-width: 1.0;"/><polygon fill="#A80036" points="430.5,220.79,434.5,211.79,430.5,215.79,426.5,211.79,430.5,220.79" style="stroke: #A80036; stroke-width: 1.0;"/><!--MD5=[0491329cd00d9f6d280f0a40a56a3055]
link [3]ステージが空か？ to #9--><path d="M409.74,257.06 C392.97,270.82 370.09,289.62 356.94,300.42 " fill="none" id="[3]ステージが空か？-&gt;#9" style="stroke: #A80036; stroke-width: 1.0;"/><polygon fill="#A80036" points="352.88,303.76,362.377,301.151,356.7479,300.5915,357.3074,294.9624,352.88,303.76" style="stroke: #A80036; stroke-width: 1.0;"/><text fill="#000000" font-family="sans-serif" font-size="11" lengthAdjust="spacingAndGlyphs" textLength="0" x="358.126" y="287.2117"/><!--MD5=[c424da8a897b4a52031ec1221c4356bc]
link #9 to [4]パス名簿リセット--><path d="M345.73,321.35 C342.91,359.34 333.1,491.58 329.16,544.68 " fill="none" id="#9-&gt;[4]パス名簿リセット" style="stroke: #A80036; stroke-width: 1.0;"/><polygon fill="#A80036" points="328.77,549.86,333.4276,541.182,329.1415,544.8738,325.4497,540.5877,328.77,549.86" style="stroke: #A80036; stroke-width: 1.0;"/><text fill="#000000" font-family="sans-serif" font-size="11" lengthAdjust="spacingAndGlyphs" textLength="18" x="338.5" y="446.4727">YES</text><!--MD5=[69a1dabaed4f1fa58ca460ae345d3312]
link [4]パス名簿リセット to [5]アクションを起こす--><path d="M327.5,586.02 C327.5,596.59 327.5,610.29 327.5,621.72 " fill="none" id="[4]パス名簿リセット-&gt;[5]アクションを起こす" style="stroke: #A80036; stroke-width: 1.0;"/><polygon fill="#A80036" points="327.5,626.79,331.5,617.79,327.5,621.79,323.5,617.79,327.5,626.79" style="stroke: #A80036; stroke-width: 1.0;"/><!--MD5=[951165c642868323032ef4e565f9221a]
link [5]アクションを起こす to [10]誘発チェック--><path d="M370.84,663.02 C400.41,674.63 439.6,690.02 470.17,702.02 " fill="none" id="[5]アクションを起こす-&gt;[10]誘発チェック" style="stroke: #A80036; stroke-width: 1.0;"/><polygon fill="#A80036" points="475,703.92,468.0845,696.9074,470.3459,702.0926,465.1607,704.354,475,703.92" style="stroke: #A80036; stroke-width: 1.0;"/><!--MD5=[752c9d44970959eb1a4169912424a9c6]
link [10]誘発チェック to [6]即時効果か？--><path d="M502.11,740.35 C488.24,755.04 468.3,776.16 453.49,791.84 " fill="none" id="[10]誘発チェック-&gt;[6]即時効果か？" style="stroke: #A80036; stroke-width: 1.0;"/><polygon fill="#A80036" points="449.84,795.7,458.9364,791.9244,453.2815,792.0729,453.133,786.418,449.84,795.7" style="stroke: #A80036; stroke-width: 1.0;"/><!--MD5=[03f5ebe1aaf6702f3e2f6e662ef75499]
link [6]即時効果か？ to #20--><path d="M433.5,832.17 C433.5,851.79 433.5,883.65 433.5,902.83 " fill="none" id="[6]即時効果か？-&gt;#20" style="stroke: #A80036; stroke-width: 1.0;"/><polygon fill="#A80036" points="433.5,907.89,437.5,898.89,433.5,902.89,429.5,898.89,433.5,907.89" style="stroke: #A80036; stroke-width: 1.0;"/><text fill="#000000" font-family="sans-serif" font-size="11" lengthAdjust="spacingAndGlyphs" textLength="0" x="432.8438" y="897.0883"/><!--MD5=[73631299cc9199d013ec9c7d8f8575a0]
link #20 to [7]アクションの解決--><path d="M427.01,926 C412.36,937.29 376.08,965.25 350.86,984.68 " fill="none" id="#20-&gt;[7]アクションの解決" style="stroke: #A80036; stroke-width: 1.0;"/><polygon fill="#A80036" points="346.6,987.97,356.1729,985.6548,350.5637,984.9221,351.2963,979.3129,346.6,987.97" style="stroke: #A80036; stroke-width: 1.0;"/><text fill="#000000" font-family="sans-serif" font-size="11" lengthAdjust="spacingAndGlyphs" textLength="18" x="393.5" y="964.4727">YES</text><!--MD5=[bf8fc3e3b3c38e629a1debc0dd9e9b18]
link [7]アクションの解決 to [8]勝敗判定--><path d="M352.18,1024.02 C370.62,1035.35 394.9,1050.28 414.21,1062.15 " fill="none" id="[7]アクションの解決-&gt;[8]勝敗判定" style="stroke: #A80036; stroke-width: 1.0;"/><polygon fill="#A80036" points="418.5,1064.79,412.9239,1056.6717,414.2393,1062.1735,408.7375,1063.4889,418.5,1064.79" style="stroke: #A80036; stroke-width: 1.0;"/><!--MD5=[ba5f7534b38272bdd46528c09fbf9740]
link [8]勝敗判定 to #27--><path d="M465.53,1101.06 C480.76,1114.7 501.51,1133.3 513.61,1144.14 " fill="none" id="[8]勝敗判定-&gt;#27" style="stroke: #A80036; stroke-width: 1.0;"/><polygon fill="#A80036" points="517.65,1147.76,513.6171,1138.7747,513.9264,1144.4231,508.278,1144.7324,517.65,1147.76" style="stroke: #A80036; stroke-width: 1.0;"/><text fill="#000000" font-family="sans-serif" font-size="11" lengthAdjust="spacingAndGlyphs" textLength="0" x="509.7488" y="1131.2117"/><!--MD5=[2d7da7daee7e627e7343ea5d354419b9]
link #27 to end--><path d="M523.5,1166.21 C523.5,1179.6 523.5,1202.01 523.5,1216.65 " fill="none" id="#27-&gt;end" style="stroke: #A80036; stroke-width: 1.0;"/><polygon fill="#A80036" points="523.5,1221.66,527.5,1212.66,523.5,1216.66,519.5,1212.66,523.5,1221.66" style="stroke: #A80036; stroke-width: 1.0;"/><text fill="#000000" font-family="sans-serif" font-size="11" lengthAdjust="spacingAndGlyphs" textLength="22" x="524.5" y="1198.4727">決着</text><!--MD5=[06949d883a9bb975ba2bf00cd5aacab5]
link #27 to [10]誘発チェック--><path d="M528.96,1147.46 C539.25,1136.4 560.5,1110.37 560.5,1084 C560.5,813 560.5,813 560.5,813 C560.5,787.73 546.73,761.89 534.96,744.42 " fill="none" id="#27-&gt;[10]誘発チェック" style="stroke: #A80036; stroke-width: 1.0;"/><polygon fill="#A80036" points="532.02,740.16,533.8454,749.8382,534.8623,744.2735,540.427,745.2905,532.02,740.16" style="stroke: #A80036; stroke-width: 1.0;"/><text fill="#000000" font-family="sans-serif" font-size="11" lengthAdjust="spacingAndGlyphs" textLength="44" x="561.5" y="964.4727">それ以外</text><!--MD5=[84e0fc694bf958ee35c9475168b756cb]
link #20 to [9]ステージに追加--><path d="M436.82,928.75 C442.04,940.93 452.35,964.99 460,982.84 " fill="none" id="#20-&gt;[9]ステージに追加" style="stroke: #A80036; stroke-width: 1.0;"/><polygon fill="#A80036" points="462.08,987.7,462.2002,977.8519,460.1052,983.1065,454.8506,981.0115,462.08,987.7" style="stroke: #A80036; stroke-width: 1.0;"/><text fill="#000000" font-family="sans-serif" font-size="11" lengthAdjust="spacingAndGlyphs" textLength="16" x="454.5" y="964.4727">NO</text><!--MD5=[429205ef10a6119a2676289bf43da024]
link [9]ステージに追加 to [10]誘発チェック--><path d="M472.84,987.69 C474.02,981.49 475.34,974.43 476.5,968 C491.29,885.97 507.67,788.25 514.82,745.22 " fill="none" id="[9]ステージに追加-&gt;[10]誘発チェック" style="stroke: #A80036; stroke-width: 1.0;"/><polygon fill="#A80036" points="515.65,740.25,510.2171,748.4649,514.8234,745.1812,518.107,749.7874,515.65,740.25" style="stroke: #A80036; stroke-width: 1.0;"/><!--MD5=[60ebffa12838e6527345f917b1d01e62]
link [10]誘発チェック to [3]ステージが空か？--><path d="M515.25,703.79 C512.67,688.64 509.5,665.93 509.5,646 C509.5,309 509.5,309 509.5,309 C509.5,287.51 492.72,271.17 474.62,259.8 " fill="none" id="[10]誘発チェック-&gt;[3]ステージが空か？" style="stroke: #A80036; stroke-width: 1.0;"/><polygon fill="#A80036" points="470,257.02,475.6397,265.0943,474.2812,259.603,479.7725,258.2444,470,257.02" style="stroke: #A80036; stroke-width: 1.0;"/><!--MD5=[54796b90a3b9e04290e4923b2ceaf9cb]
link #9 to [11]アクションを起こすか？--><path d="M339.82,315.76 C324.18,326.89 284.43,355.19 256.92,374.77 " fill="none" id="#9-&gt;[11]アクションを起こすか？" style="stroke: #A80036; stroke-width: 1.0;"/><polygon fill="#A80036" points="252.62,377.83,262.2712,375.8666,256.6925,374.9292,257.6299,369.3506,252.62,377.83" style="stroke: #A80036; stroke-width: 1.0;"/><text fill="#000000" font-family="sans-serif" font-size="11" lengthAdjust="spacingAndGlyphs" textLength="16" x="303.5" y="354.4727">NO</text><!--MD5=[5fb2cd82ddc67469a77eee96152b73e2]
link [11]アクションを起こすか？ to #39--><path d="M228.5,414.4 C228.5,429.13 228.5,450.08 228.5,464.53 " fill="none" id="[11]アクションを起こすか？-&gt;#39" style="stroke: #A80036; stroke-width: 1.0;"/><polygon fill="#A80036" points="228.5,469.53,232.5,460.53,228.5,464.53,224.5,460.53,228.5,469.53" style="stroke: #A80036; stroke-width: 1.0;"/><text fill="#000000" font-family="sans-serif" font-size="11" lengthAdjust="spacingAndGlyphs" textLength="0" x="227.8813" y="459.0527"/><!--MD5=[b2bf29f6664886046a91abb2854f461b]
link #39 to [4]パス名簿リセット--><path d="M234.69,488.25 C248.14,499.66 280.62,527.22 303.34,546.5 " fill="none" id="#39-&gt;[4]パス名簿リセット" style="stroke: #A80036; stroke-width: 1.0;"/><polygon fill="#A80036" points="307.18,549.76,302.8948,540.8923,303.3636,546.5296,297.7262,546.9985,307.18,549.76" style="stroke: #A80036; stroke-width: 1.0;"/><text fill="#000000" font-family="sans-serif" font-size="11" lengthAdjust="spacingAndGlyphs" textLength="18" x="282.5" y="526.4727">YES</text><!--MD5=[f79fe19aa48794325f5fea086fffebc0]
link #39 to [12]パス名簿に登録--><path d="M223.69,489.31 C214.66,501.16 194.81,527.21 180.59,545.88 " fill="none" id="#39-&gt;[12]パス名簿に登録" style="stroke: #A80036; stroke-width: 1.0;"/><polygon fill="#A80036" points="177.47,549.98,186.1082,545.249,180.5019,546.0042,179.7468,540.3979,177.47,549.98" style="stroke: #A80036; stroke-width: 1.0;"/><text fill="#000000" font-family="sans-serif" font-size="11" lengthAdjust="spacingAndGlyphs" textLength="16" x="205.5" y="526.4727">NO</text><!--MD5=[b6f17b2c8b43176a66378b459229e9c6]
link [12]パス名簿に登録 to [13]パス名簿の件数=プレイヤー数か？--><path d="M154.74,586.02 C148.57,596.78 140.54,610.78 133.92,622.33 " fill="none" id="[12]パス名簿に登録-&gt;[13]パス名簿の件数=プレイヤー数か？" style="stroke: #A80036; stroke-width: 1.0;"/><polygon fill="#A80036" points="131.37,626.79,139.3206,620.9773,133.8599,622.4541,132.3831,616.9934,131.37,626.79" style="stroke: #A80036; stroke-width: 1.0;"/><!--MD5=[eb468d5532e3fdf8abab5acb798b0620]
link [13]パス名簿の件数=プレイヤー数か？ to #47--><path d="M142.6,663.02 C161.84,678.53 189.43,700.78 204.22,712.71 " fill="none" id="[13]パス名簿の件数=プレイヤー数か？-&gt;#47" style="stroke: #A80036; stroke-width: 1.0;"/><polygon fill="#A80036" points="208.37,716.06,203.8722,707.2982,204.4768,712.9226,198.8524,713.5273,208.37,716.06" style="stroke: #A80036; stroke-width: 1.0;"/><text fill="#000000" font-family="sans-serif" font-size="11" lengthAdjust="spacingAndGlyphs" textLength="0" x="199.7863" y="699.1971"/><!--MD5=[518a371d067600eb9c0536bf246e8dab]
link #47 to [14]ステージから取出し--><path d="M216.34,732.58 C220.75,755.58 232.03,814.43 238.24,846.81 " fill="none" id="#47-&gt;[14]ステージから取出し" style="stroke: #A80036; stroke-width: 1.0;"/><polygon fill="#A80036" points="239.2,851.77,241.4325,842.1775,238.2579,846.8596,233.5758,843.6849,239.2,851.77" style="stroke: #A80036; stroke-width: 1.0;"/><text fill="#000000" font-family="sans-serif" font-size="11" lengthAdjust="spacingAndGlyphs" textLength="18" x="225.5" y="772.4727">YES</text><!--MD5=[a3a3503a7b3fe05feb97843833f9695d]
link [14]ステージから取出し to [7]アクションの解決--><path d="M253.05,888.24 C267.94,912.57 295.08,956.93 311.29,983.41 " fill="none" id="[14]ステージから取出し-&gt;[7]アクションの解決" style="stroke: #A80036; stroke-width: 1.0;"/><polygon fill="#A80036" points="313.99,987.82,312.6889,978.0575,311.3735,983.5593,305.8717,982.2439,313.99,987.82" style="stroke: #A80036; stroke-width: 1.0;"/><!--MD5=[722d171adc8fc833bcb9bdb063762b36]
link #47 to [15]チャンス移動--><path d="M220,728.63 C232.19,741.09 261.96,771.54 282.2,792.24 " fill="none" id="#47-&gt;[15]チャンス移動" style="stroke: #A80036; stroke-width: 1.0;"/><polygon fill="#A80036" points="285.86,795.99,282.4364,786.7554,282.3677,792.4118,276.7112,792.3431,285.86,795.99" style="stroke: #A80036; stroke-width: 1.0;"/><text fill="#000000" font-family="sans-serif" font-size="11" lengthAdjust="spacingAndGlyphs" textLength="16" x="265.5" y="772.4727">NO</text><!--MD5=[26a5b96428f0a893a9f152df046373b0]
link [15]チャンス移動 to [3]ステージが空か？--><path d="M359.76,796.86 C393.84,783.38 430.5,760.22 430.5,723 C430.5,309 430.5,309 430.5,309 C430.5,293.35 430.5,275.7 430.5,262.17 " fill="none" id="[15]チャンス移動-&gt;[3]ステージが空か？" style="stroke: #A80036; stroke-width: 1.0;"/><polygon fill="#A80036" points="430.5,257.01,426.5,266.01,430.5,262.01,434.5,266.01,430.5,257.01" style="stroke: #A80036; stroke-width: 1.0;"/><!--MD5=[5acbe9d666322988b20e11855f193267]
@startuml
(*) - -> "[1]ゲーム開始"
- -> "[2]ターンプレイヤーにチャンスを移動"
- ->"[3]ステージが空か？"

if "" then
    - ->[YES] "[4]パス名簿リセット"
    - -> "[5]アクションを起こす"
    - -> "[10]誘発チェック"
    - -> "[6]即時効果か？"
    if "" then
        - ->[YES] "[7]アクションの解決"
        - -> "[8]勝敗判定"
        if "" then
            - ->[決着] (*)
        else
            - ->[それ以外] "[10]誘発チェック"
        endif
    else
        - ->[NO] "[9]ステージに追加"
        - -> "[10]誘発チェック"
    endif
    - -> "[3]ステージが空か？"
else
    - ->[NO] "[11]アクションを起こすか？"
    if "" then
        - ->[YES] "[4]パス名簿リセット"
    else
        - -> [NO] "[12]パス名簿に登録"
        - -> "[13]パス名簿の件数=プレイヤー数か？"
        if "" then
            - ->[YES] ”[14]ステージから取出し”
            - -> "[7]アクションの解決"
        else
            - -> [NO] "[15]チャンス移動"
            - -> "[3]ステージが空か？"
        endif
    endif
endif
@enduml

PlantUML version 1.2020.14(Sat Jun 20 14:14:34 GMT 2020)
(GPL source distribution)
Java Runtime: OpenJDK Runtime Environment
JVM: OpenJDK 64-Bit Server VM
Default Encoding: UTF-8
Language: ja
Country: JP
--></g></svg>