<?xml version="1.0" encoding="us-ascii" standalone="no"?><svg xmlns="http://www.w3.org/2000/svg" xmlns:xlink="http://www.w3.org/1999/xlink" contentStyleType="text/css" height="572px" preserveAspectRatio="none" style="width:313px;height:572px;background:#FFFFFF;" version="1.1" viewBox="0 0 313 572" width="313px" zoomAndPan="magnify"><defs/><g><ellipse cx="159" cy="20" fill="#222222" rx="10" ry="10" style="stroke:#222222;stroke-width:1.0;"/><rect fill="#F1F1F1" height="51.4063" rx="12.5" ry="12.5" style="stroke:#181818;stroke-width:0.5;" width="236" x="41" y="50"/><text fill="#000000" font-family="Droid Sans Fallback" font-size="12" lengthAdjust="spacing" textLength="216" x="51" y="72.5156">&#12521;&#12452;&#12501;&#12398;&#19968;&#30058;&#19978;&#12398;&#12459;&#12540;&#12489;&#12434;&#34920;&#21521;&#12365;&#12395;&#12375;&#12390;</text><text fill="#000000" font-family="Droid Sans Fallback" font-size="12" lengthAdjust="spacing" textLength="132" x="51" y="88.2188">&#12300;&#38450;&#22721;&#12301;&#12392;&#12375;&#12390;&#22580;&#12395;&#20986;&#12377;</text><rect fill="#F1F1F1" height="51.4063" rx="12.5" ry="12.5" style="stroke:#181818;stroke-width:0.5;" width="212" x="53" y="121.4063"/><text fill="#000000" font-family="Droid Sans Fallback" font-size="12" lengthAdjust="spacing" textLength="192" x="63" y="143.9219">&#12521;&#12452;&#12501;&#12398;&#27425;&#12398;&#12459;&#12540;&#12489;&#12434;&#34920;&#21521;&#12365;&#12395;&#12375;&#12390;</text><text fill="#000000" font-family="Droid Sans Fallback" font-size="12" lengthAdjust="spacing" textLength="132" x="63" y="159.625">&#12300;&#20853;&#22763;&#12301;&#12392;&#12375;&#12390;&#22580;&#12395;&#20986;&#12377;</text><rect fill="#F1F1F1" height="35.7031" rx="12.5" ry="12.5" style="stroke:#181818;stroke-width:0.5;" width="224" x="47" y="255.207"/><text fill="#000000" font-family="Droid Sans Fallback" font-size="12" lengthAdjust="spacing" textLength="204" x="57" y="277.7227">&#12381;&#12398;&#12459;&#12540;&#12489;&#12434;&#34920;&#21521;&#12365;&#12398;&#12414;&#12414;&#22675;&#22320;&#12395;&#32622;&#12367;</text><rect fill="#F1F1F1" height="35.7031" rx="12.5" ry="12.5" style="stroke:#181818;stroke-width:0.5;" width="164" x="77" y="360.1074"/><text fill="#000000" font-family="Droid Sans Fallback" font-size="12" lengthAdjust="spacing" textLength="144" x="87" y="382.623">&#12381;&#12398;&#12503;&#12524;&#12452;&#12516;&#12540;&#12399;&#25943;&#21271;&#12377;&#12427;</text><ellipse cx="159" cy="434.459" fill="none" rx="11" ry="11" style="stroke:#222222;stroke-width:1.0;"/><ellipse cx="159" cy="434.459" fill="#222222" rx="6" ry="6" style="stroke:#222222;stroke-width:1.0;"/><polygon fill="#F1F1F1" points="98.5,310.9102,219.5,310.9102,231.5,322.9102,219.5,334.9102,98.5,334.9102,86.5,322.9102,98.5,310.9102" style="stroke:#181818;stroke-width:0.5;"/><text fill="#000000" font-family="Droid Sans Fallback" font-size="11" lengthAdjust="spacing" textLength="17" x="163" y="346.3828">Yes</text><text fill="#000000" font-family="Droid Sans Fallback" font-size="11" lengthAdjust="spacing" textLength="121" x="98.5" y="327.1855">&#12521;&#12452;&#12501;&#12364;&#12394;&#12367;&#12394;&#12387;&#12383;&#12363;&#65311;</text><text fill="#000000" font-family="Droid Sans Fallback" font-size="11" lengthAdjust="spacing" textLength="14" x="231.5" y="319.9883">No</text><rect fill="#F1F1F1" height="51.4063" rx="12.5" ry="12.5" style="stroke:#181818;stroke-width:0.5;" width="219" x="49.5" y="487.459"/><text fill="#000000" font-family="Droid Sans Fallback" font-size="12" lengthAdjust="spacing" textLength="199" x="59.5" y="509.9746">&#12521;&#12452;&#12501;&#12398;&#19968;&#30058;&#19978;&#12363;&#12425;&#12459;&#12540;&#12489;&#12434;1&#26522;&#21462;&#12426;</text><text fill="#000000" font-family="Droid Sans Fallback" font-size="12" lengthAdjust="spacing" textLength="180" x="59.5" y="525.6777">&#34920;&#21521;&#12365;&#12395;&#12375;&#12390;&#20853;&#22763;&#12392;&#12375;&#12390;&#22580;&#12395;&#20986;&#12377;</text><polygon fill="#F1F1F1" points="54.5,192.8125,263.5,192.8125,275.5,204.8125,263.5,216.8125,54.5,216.8125,42.5,204.8125,54.5,192.8125" style="stroke:#181818;stroke-width:0.5;"/><text fill="#000000" font-family="Droid Sans Fallback" font-size="11" lengthAdjust="spacing" textLength="17" x="163" y="228.2852">Yes</text><text fill="#000000" font-family="Droid Sans Fallback" font-size="11" lengthAdjust="spacing" textLength="209" x="54.5" y="209.0879">&#20853;&#22763;&#12392;&#23450;&#32681;&#12373;&#12428;&#12390;&#12356;&#12394;&#12356;&#12461;&#12515;&#12521;&#12463;&#12479;&#12540;&#12363;&#65311;</text><text fill="#000000" font-family="Droid Sans Fallback" font-size="11" lengthAdjust="spacing" textLength="14" x="28.5" y="201.8906">No</text><ellipse cx="24" cy="251.8125" fill="none" rx="11" ry="11" style="stroke:#222222;stroke-width:1.0;"/><ellipse cx="24" cy="251.8125" fill="#222222" rx="6" ry="6" style="stroke:#222222;stroke-width:1.0;"/><line style="stroke:#181818;stroke-width:1.0;" x1="159" x2="159" y1="30" y2="50"/><polygon fill="#181818" points="155,40,159,50,163,40,159,44" style="stroke:#181818;stroke-width:1.0;"/><line style="stroke:#181818;stroke-width:1.0;" x1="159" x2="159" y1="101.4063" y2="121.4063"/><polygon fill="#181818" points="155,111.4063,159,121.4063,163,111.4063,159,115.4063" style="stroke:#181818;stroke-width:1.0;"/><line style="stroke:#181818;stroke-width:1.0;" x1="159" x2="159" y1="395.8105" y2="423.459"/><polygon fill="#181818" points="155,413.459,159,423.459,163,413.459,159,417.459" style="stroke:#181818;stroke-width:1.0;"/><line style="stroke:#181818;stroke-width:1.0;" x1="159" x2="159" y1="334.9102" y2="360.1074"/><polygon fill="#181818" points="155,350.1074,159,360.1074,163,350.1074,159,354.1074" style="stroke:#181818;stroke-width:1.0;"/><line style="stroke:#181818;stroke-width:1.0;" x1="231.5" x2="251" y1="322.9102" y2="322.9102"/><polygon fill="#181818" points="247,393.459,251,403.459,255,393.459,251,397.459" style="stroke:#181818;stroke-width:1.0;"/><line style="stroke:#181818;stroke-width:1.0;" x1="251" x2="251" y1="322.9102" y2="467.459"/><line style="stroke:#181818;stroke-width:1.0;" x1="251" x2="159" y1="467.459" y2="467.459"/><line style="stroke:#181818;stroke-width:1.0;" x1="159" x2="159" y1="467.459" y2="487.459"/><polygon fill="#181818" points="155,477.459,159,487.459,163,477.459,159,481.459" style="stroke:#181818;stroke-width:1.0;"/><line style="stroke:#181818;stroke-width:1.0;" x1="159" x2="159" y1="290.9102" y2="310.9102"/><polygon fill="#181818" points="155,300.9102,159,310.9102,163,300.9102,159,304.9102" style="stroke:#181818;stroke-width:1.0;"/><line style="stroke:#181818;stroke-width:1.0;" x1="159" x2="159" y1="216.8125" y2="255.207"/><polygon fill="#181818" points="155,245.207,159,255.207,163,245.207,159,249.207" style="stroke:#181818;stroke-width:1.0;"/><line style="stroke:#181818;stroke-width:1.0;" x1="159" x2="159" y1="538.8652" y2="548.8652"/><line style="stroke:#181818;stroke-width:1.0;" x1="159" x2="287.5" y1="548.8652" y2="548.8652"/><polygon fill="#181818" points="283.5,396.1133,287.5,386.1133,291.5,396.1133,287.5,392.1133" style="stroke:#181818;stroke-width:1.0;"/><line style="stroke:#181818;stroke-width:1.0;" x1="287.5" x2="287.5" y1="204.8125" y2="548.8652"/><line style="stroke:#181818;stroke-width:1.0;" x1="287.5" x2="275.5" y1="204.8125" y2="204.8125"/><polygon fill="#181818" points="285.5,200.8125,275.5,204.8125,285.5,208.8125,281.5,204.8125" style="stroke:#181818;stroke-width:1.0;"/><line style="stroke:#181818;stroke-width:1.0;" x1="42.5" x2="24" y1="204.8125" y2="204.8125"/><line style="stroke:#181818;stroke-width:1.0;" x1="24" x2="24" y1="204.8125" y2="240.8125"/><polygon fill="#181818" points="20,230.8125,24,240.8125,28,230.8125,24,234.8125" style="stroke:#181818;stroke-width:1.0;"/><line style="stroke:#181818;stroke-width:1.0;" x1="159" x2="159" y1="172.8125" y2="192.8125"/><polygon fill="#181818" points="155,182.8125,159,192.8125,163,182.8125,159,186.8125" style="stroke:#181818;stroke-width:1.0;"/><!--SRC=[ZL5BJy904BxtLsmumT4hN0r7Bfuyhb92Gsa9hV7ARZK6gC57Aa9Kn1B3Ip164s8GVyomL4_-1RSBaXhHkDbCTYSptsF6o2XQ3kTn5YNb5DvHpRYkcGcSbL5eFQyhIRI1DGF5iQfkuUrCI39Cd3UbA5WTe2sm7223wQZWETtfgCJVG7jWZS4g0ZrvQxRPqJ6GGo0z85KWjn8KxFVp1-OIAF1iUvvbru-yWXqy0wd5fE_OitxpNwXi_ucvlJzGTzEAAgFmeewqsQ3kJJf07A0shmQo1wJhHte7bYia386- -hIa_35kH91YeF2cR4Gan4yKoENlmWP09loocrDsSSzLU2yyKuc9JYM5mW67jg2jYEW2QNoncMbP2_05EQqgM7tHtnBoXZEdocpkkGQq75kM6wQU4nzPDRZpX3v7ahMaabfuMBt4Cj1YqDZQxAhEAcT0IwBjvmAMGrqrUSwtcBslm1Vr2G00]--></g></svg>