<?xml version="1.0" encoding="us-ascii" standalone="no"?><svg xmlns="http://www.w3.org/2000/svg" xmlns:xlink="http://www.w3.org/1999/xlink" contentStyleType="text/css" height="457px" preserveAspectRatio="none" style="width:606px;height:457px;background:#FFFFFF;" version="1.1" viewBox="0 0 606 457" width="606px" zoomAndPan="magnify"><defs/><g><text fill="#000000" font-family="Droid Sans Fallback" font-size="14" font-weight="bold" lengthAdjust="spacing" textLength="112" x="245.5" y="34.6016">&#12522;&#12463;&#12456;&#12473;&#12488;&#12398;&#35299;&#27770;</text><ellipse cx="230" cy="59.3203" fill="#222222" rx="10" ry="10" style="stroke:#222222;stroke-width:1.0;"/><rect fill="#F1F1F1" height="35.7031" rx="12.5" ry="12.5" style="stroke:#181818;stroke-width:0.5;" width="272" x="94" y="89.3203"/><text fill="#000000" font-family="Droid Sans Fallback" font-size="12" lengthAdjust="spacing" textLength="252" x="104" y="111.8359">&#12473;&#12486;&#12540;&#12472;&#12398;&#19968;&#30058;&#19978;&#12395;&#12354;&#12427;&#12522;&#12463;&#12456;&#12473;&#12488;&#12434;&#29305;&#23450;&#12377;&#12427;</text><polygon fill="#F1F1F1" points="153,145.0234,307,145.0234,319,157.0234,307,169.0234,153,169.0234,141,157.0234,153,145.0234" style="stroke:#181818;stroke-width:0.5;"/><text fill="#000000" font-family="Droid Sans Fallback" font-size="11" lengthAdjust="spacing" textLength="154" x="153" y="161.2988">&#12522;&#12463;&#12456;&#12473;&#12488;&#12398;&#23550;&#35937;&#12364;&#27491;&#12375;&#12356;&#12363;&#65311;</text><text fill="#000000" font-family="Droid Sans Fallback" font-size="11" lengthAdjust="spacing" textLength="17" x="124" y="154.1016">Yes</text><text fill="#000000" font-family="Droid Sans Fallback" font-size="11" lengthAdjust="spacing" textLength="14" x="319" y="154.1016">No</text><rect fill="#F1F1F1" height="51.4063" rx="12.5" ry="12.5" style="stroke:#181818;stroke-width:0.5;" width="224" x="11" y="179.0234"/><text fill="#000000" font-family="Droid Sans Fallback" font-size="12" lengthAdjust="spacing" textLength="204" x="21" y="201.5391">&#12522;&#12463;&#12456;&#12473;&#12488;&#12373;&#12428;&#12383;&#12450;&#12463;&#12471;&#12519;&#12531;&#12398;&#21177;&#26524;&#12434;</text><text fill="#000000" font-family="Droid Sans Fallback" font-size="12" lengthAdjust="spacing" textLength="108" x="21" y="217.2422">&#21487;&#33021;&#12394;&#38480;&#12426;&#23455;&#34892;&#12377;&#12427;</text><rect fill="#F1F1F1" height="35.7031" rx="12.5" ry="12.5" style="stroke:#181818;stroke-width:0.5;" width="164" x="255" y="179.0234"/><text fill="#000000" font-family="Droid Sans Fallback" font-size="12" lengthAdjust="spacing" textLength="144" x="265" y="201.5391">&#21177;&#26524;&#12434;&#30330;&#25582;&#12379;&#12378;&#35299;&#27770;&#12392;&#12377;&#12427;</text><polygon fill="#F1F1F1" points="230,236.4297,242,248.4297,230,260.4297,218,248.4297,230,236.4297" style="stroke:#181818;stroke-width:0.5;"/><rect fill="#F1F1F1" height="35.7031" rx="12.5" ry="12.5" style="stroke:#181818;stroke-width:0.5;" width="212" x="124" y="280.4297"/><text fill="#000000" font-family="Droid Sans Fallback" font-size="12" lengthAdjust="spacing" textLength="192" x="134" y="302.9453">&#12522;&#12463;&#12456;&#12473;&#12488;&#12434;&#12473;&#12486;&#12540;&#12472;&#12363;&#12425;&#21462;&#12426;&#38500;&#12367;</text><path d="M326,326.1328 L326,361.1563 L306,365.1563 L326,369.1563 L326,404.1797 A0,0 0 0 0 326,404.1797 L594,404.1797 A0,0 0 0 0 594,404.1797 L594,336.1328 L584,326.1328 L326,326.1328 A0,0 0 0 0 326,326.1328 " fill="#FEFFDD" style="stroke:#181818;stroke-width:0.5;"/><path d="M584,326.1328 L584,336.1328 L594,336.1328 L584,326.1328 " fill="#FEFFDD" style="stroke:#181818;stroke-width:0.5;"/><text fill="#000000" font-family="Droid Sans Fallback" font-size="13" lengthAdjust="spacing" textLength="169" x="332" y="344.6914">&#20197;&#19979;&#12398;&#22580;&#21512;&#12399;&#22675;&#22320;&#12395;&#31227;&#12373;&#12394;&#12356;</text><text fill="#000000" font-family="Droid Sans Fallback" font-size="13" lengthAdjust="spacing" textLength="247" x="332" y="361.7031">&#12539;&#21177;&#26524;&#12391;&#12461;&#12540;&#12459;&#12540;&#12489;&#12434;&#22580;&#12394;&#12393;&#12395;&#20986;&#12375;&#12383;&#22580;&#21512;</text><text fill="#000000" font-family="Droid Sans Fallback" font-size="13" lengthAdjust="spacing" textLength="234" x="332" y="378.7148">&#12539;&#21177;&#26524;&#12391;&#12461;&#12540;&#12459;&#12540;&#12489;&#12434;&#25163;&#26413;&#12395;&#25147;&#12375;&#12383;&#22580;&#21512;</text><text fill="#000000" font-family="Droid Sans Fallback" font-size="13" lengthAdjust="spacing" textLength="156" x="332" y="395.7266">&#12539;&#12461;&#12540;&#12518;&#12491;&#12483;&#12488;&#26465;&#20214;&#12398;&#22580;&#21512;</text><rect fill="#F1F1F1" height="35.7031" rx="12.5" ry="12.5" style="stroke:#181818;stroke-width:0.5;" width="152" x="154" y="347.3047"/><text fill="#000000" font-family="Droid Sans Fallback" font-size="12" lengthAdjust="spacing" textLength="132" x="164" y="369.8203">&#12461;&#12540;&#12459;&#12540;&#12489;&#12434;&#22675;&#22320;&#12395;&#31227;&#12377;</text><ellipse cx="230" cy="435.1797" fill="none" rx="11" ry="11" style="stroke:#222222;stroke-width:1.0;"/><ellipse cx="230" cy="435.1797" fill="#222222" rx="6" ry="6" style="stroke:#222222;stroke-width:1.0;"/><line style="stroke:#181818;stroke-width:1.0;" x1="230" x2="230" y1="69.3203" y2="89.3203"/><polygon fill="#181818" points="226,79.3203,230,89.3203,234,79.3203,230,83.3203" style="stroke:#181818;stroke-width:1.0;"/><line style="stroke:#181818;stroke-width:1.0;" x1="141" x2="123" y1="157.0234" y2="157.0234"/><line style="stroke:#181818;stroke-width:1.0;" x1="123" x2="123" y1="157.0234" y2="179.0234"/><polygon fill="#181818" points="119,169.0234,123,179.0234,127,169.0234,123,173.0234" style="stroke:#181818;stroke-width:1.0;"/><line style="stroke:#181818;stroke-width:1.0;" x1="319" x2="337" y1="157.0234" y2="157.0234"/><line style="stroke:#181818;stroke-width:1.0;" x1="337" x2="337" y1="157.0234" y2="179.0234"/><polygon fill="#181818" points="333,169.0234,337,179.0234,341,169.0234,337,173.0234" style="stroke:#181818;stroke-width:1.0;"/><line style="stroke:#181818;stroke-width:1.0;" x1="123" x2="123" y1="230.4297" y2="248.4297"/><line style="stroke:#181818;stroke-width:1.0;" x1="123" x2="218" y1="248.4297" y2="248.4297"/><polygon fill="#181818" points="208,244.4297,218,248.4297,208,252.4297,212,248.4297" style="stroke:#181818;stroke-width:1.0;"/><line style="stroke:#181818;stroke-width:1.0;" x1="337" x2="337" y1="214.7266" y2="248.4297"/><line style="stroke:#181818;stroke-width:1.0;" x1="337" x2="242" y1="248.4297" y2="248.4297"/><polygon fill="#181818" points="252,244.4297,242,248.4297,252,252.4297,248,248.4297" style="stroke:#181818;stroke-width:1.0;"/><line style="stroke:#181818;stroke-width:1.0;" x1="230" x2="230" y1="125.0234" y2="145.0234"/><polygon fill="#181818" points="226,135.0234,230,145.0234,234,135.0234,230,139.0234" style="stroke:#181818;stroke-width:1.0;"/><line style="stroke:#181818;stroke-width:1.0;" x1="230" x2="230" y1="260.4297" y2="280.4297"/><polygon fill="#181818" points="226,270.4297,230,280.4297,234,270.4297,230,274.4297" style="stroke:#181818;stroke-width:1.0;"/><line style="stroke:#181818;stroke-width:1.0;" x1="230" x2="230" y1="316.1328" y2="347.3047"/><polygon fill="#181818" points="226,337.3047,230,347.3047,234,337.3047,230,341.3047" style="stroke:#181818;stroke-width:1.0;"/><line style="stroke:#181818;stroke-width:1.0;" x1="230" x2="230" y1="383.0078" y2="424.1797"/><polygon fill="#181818" points="226,414.1797,230,424.1797,234,414.1797,230,418.1797" style="stroke:#181818;stroke-width:1.0;"/><!--SRC=[ZP9FJy8m6CRl_HID9_WAS3KUkNZoE6N8ujWCgtVR6XL60j6WGL70Vo04q6WK6FfbtdNWoQzWDv04uM0FFRJzFU_pF2dHYAvYu4rWNM0DO7tWnq0xu_gjzpn0revcx2ff9ONZQaBPqycQQP2OabBnochQrE9uNJ4ilARe-gQojRE2a4MKD46HGESG-11OJwgvlVrHiUdsia1RG1am- -z4TZBAz4Nd0cX9taQHbi2XHLUY-pb-hW7DUUrReET03u3QtyDA69EaQk3GXcg54POhii0MWUM0Le3T1EVlmEl0NtpDRD-xBai30IZotJ7_0DhyAXM0PKMdCgxbVasfkgNYKCoSpfYHezB0otU0NWAzc1G7j363ZBYMG975mFCTsS0o8dycPtwLxe3cetw9xU2svUyy8n5nSohAJxB4KTsH-b5ac4J5QMqxIG9BhdFlzcm_LFLL56JgxZnHbC5aQS5RuCuq0AqlcLHz3Tu-IbGS3OAoAnFLVz1UnlRARObwnyuoT4hm1-3o9t3PXtTLSvstcNE_DUo7an_At4K_]--></g></svg>