<?xml version="1.0" encoding="UTF-8" standalone="no"?><svg xmlns="http://www.w3.org/2000/svg" xmlns:xlink="http://www.w3.org/1999/xlink" contentStyleType="text/css" height="1057px" preserveAspectRatio="none" style="width:671px;height:1057px;background:#FFFFFF;" version="1.1" viewBox="0 0 671 1057" width="671px" zoomAndPan="magnify"><defs/><g><ellipse cx="426" cy="20" fill="#222222" rx="10" ry="10" style="stroke:#222222;stroke-width:1.0;"/><rect fill="#F1F1F1" height="51.4063" rx="12.5" ry="12.5" style="stroke:#181818;stroke-width:0.5;" width="248" x="302" y="50"/><text fill="#000000" font-family="sans-serif" font-size="12" lengthAdjust="spacing" textLength="225" x="312" y="72.5156">[10-1]誘発したアクションをプレイヤー毎</text><text fill="#000000" font-family="sans-serif" font-size="12" lengthAdjust="spacing" textLength="228" x="312" y="88.2188">の誘発即時リストと誘発通常リストに追加</text><rect fill="none" height="526.498" style="stroke:#000000;stroke-width:1.5;" width="588" x="45" y="183.8008"/><path d="M269,183.8008 L269,195.1211 L259,205.1211 L45,205.1211 " fill="none" style="stroke:#000000;stroke-width:1.5;"/><text fill="#000000" font-family="sans-serif" font-size="14" lengthAdjust="spacing" textLength="214" x="48" y="199.4023">即時効果:プレイヤー単位に繰返し</text><path d="M65,448.957 L65,492.9805 L255,492.9805 L255,458.957 L245,448.957 L65,448.957 " fill="#FEFFDD" style="stroke:#181818;stroke-width:0.5;"/><path d="M245,448.957 L245,458.957 L255,458.957 L245,448.957 " fill="#FEFFDD" style="stroke:#181818;stroke-width:0.5;"/><text fill="#000000" font-family="sans-serif" font-size="13" lengthAdjust="spacing" textLength="169" x="71" y="467.5156">順番はターンプレイヤーから</text><text fill="#000000" font-family="sans-serif" font-size="13" lengthAdjust="spacing" textLength="130" x="71" y="484.5273">ターンが回る順に行う</text><rect fill="none" height="370.7715" style="stroke:#000000;stroke-width:1.5;" width="322" x="277" y="283.5273"/><path d="M501,283.5273 L501,294.8477 L491,304.8477 L277,304.8477 " fill="none" style="stroke:#000000;stroke-width:1.5;"/><text fill="#000000" font-family="sans-serif" font-size="14" lengthAdjust="spacing" textLength="214" x="280" y="299.1289">即時効果:アクション単位に繰返し</text><rect fill="#F1F1F1" height="35.7031" rx="12.5" ry="12.5" style="stroke:#181818;stroke-width:0.5;" width="209" x="321.5" y="393.2539"/><text fill="#000000" font-family="sans-serif" font-size="12" lengthAdjust="spacing" textLength="189" x="331.5" y="415.7695">[10-5]即時効果のアクションを解決</text><polygon fill="#F1F1F1" points="390,463.6836,462,463.6836,474,475.6836,462,487.6836,390,487.6836,378,475.6836,390,463.6836" style="stroke:#181818;stroke-width:0.5;"/><text fill="#000000" font-family="sans-serif" font-size="11" lengthAdjust="spacing" textLength="72" x="390" y="479.959">[10-6]勝敗判定</text><text fill="#000000" font-family="sans-serif" font-size="11" lengthAdjust="spacing" textLength="22" x="474" y="472.7617">決着</text><ellipse cx="518" cy="475.6836" fill="none" rx="11" ry="11" style="stroke:#222222;stroke-width:1.0;"/><ellipse cx="518" cy="475.6836" fill="#222222" rx="6" ry="6" style="stroke:#111111;stroke-width:1.0;"/><rect fill="#F1F1F1" height="51.4063" rx="12.5" ry="12.5" style="stroke:#181818;stroke-width:0.5;" width="248" x="302" y="530.6836"/><text fill="#000000" font-family="sans-serif" font-size="12" lengthAdjust="spacing" textLength="225" x="312" y="553.1992">[10-7]誘発したアクションをプレイヤー毎</text><text fill="#000000" font-family="sans-serif" font-size="12" lengthAdjust="spacing" textLength="228" x="312" y="568.9023">の誘発即時リストと誘発通常リストに追加</text><rect fill="#F1F1F1" height="51.4063" rx="12.5" ry="12.5" style="stroke:#181818;stroke-width:0.5;" width="221" x="315.5" y="321.8477"/><text fill="#000000" font-family="sans-serif" font-size="12" lengthAdjust="spacing" textLength="201" x="325.5" y="344.3633">[10-4]誘発即時リストから即時効果の</text><text fill="#000000" font-family="sans-serif" font-size="12" lengthAdjust="spacing" textLength="139" x="325.5" y="360.0664">アクションを1つ取り出す</text><polygon fill="#F1F1F1" points="299,618.2988,553,618.2988,565,630.2988,553,642.2988,299,642.2988,287,630.2988,299,618.2988" style="stroke:#181818;stroke-width:0.5;"/><text fill="#000000" font-family="sans-serif" font-size="11" lengthAdjust="spacing" textLength="254" x="299" y="634.5742">[10-8]誘発即時リストの件数が0件でなけば繰り返す</text><text fill="#000000" font-family="sans-serif" font-size="11" lengthAdjust="spacing" textLength="18" x="565" y="627.377">YES</text><rect fill="#F1F1F1" height="51.4063" rx="12.5" ry="12.5" style="stroke:#181818;stroke-width:0.5;" width="221" x="315.5" y="222.1211"/><text fill="#000000" font-family="sans-serif" font-size="12" lengthAdjust="spacing" textLength="201" x="325.5" y="244.6367">[10-3]プレイヤー毎に誘発即時リスト</text><text fill="#000000" font-family="sans-serif" font-size="12" lengthAdjust="spacing" textLength="168" x="325.5" y="260.3398">の即時効果のアクションを解決</text><polygon fill="#F1F1F1" points="277,674.2988,575,674.2988,587,686.2988,575,698.2988,277,698.2988,265,686.2988,277,674.2988" style="stroke:#181818;stroke-width:0.5;"/><text fill="#000000" font-family="sans-serif" font-size="11" lengthAdjust="spacing" textLength="298" x="277" y="690.5742">[10-9]全ての誘発即時リストの件数が0件でなければ繰り返す</text><text fill="#000000" font-family="sans-serif" font-size="11" lengthAdjust="spacing" textLength="18" x="587" y="683.377">YES</text><rect fill="none" height="303.5391" style="stroke:#000000;stroke-width:1.5;" width="576" x="45" y="720.2988"/><path d="M269,720.2988 L269,731.6191 L259,741.6191 L45,741.6191 " fill="none" style="stroke:#000000;stroke-width:1.5;"/><text fill="#000000" font-family="sans-serif" font-size="14" lengthAdjust="spacing" textLength="214" x="48" y="735.9004">通常効果:プレイヤー単位に繰返し</text><path d="M65,863.2168 L65,907.2402 L255,907.2402 L255,873.2168 L245,863.2168 L65,863.2168 " fill="#FEFFDD" style="stroke:#181818;stroke-width:0.5;"/><path d="M245,863.2168 L245,873.2168 L255,873.2168 L245,863.2168 " fill="#FEFFDD" style="stroke:#181818;stroke-width:0.5;"/><text fill="#000000" font-family="sans-serif" font-size="13" lengthAdjust="spacing" textLength="169" x="71" y="881.7754">順番はターンプレイヤーから</text><text fill="#000000" font-family="sans-serif" font-size="13" lengthAdjust="spacing" textLength="130" x="71" y="898.7871">ターンが回る順に行う</text><rect fill="#F1F1F1" height="51.4063" rx="12.5" ry="12.5" style="stroke:#181818;stroke-width:0.5;" width="192" x="330" y="830.0254"/><text fill="#000000" font-family="sans-serif" font-size="12" lengthAdjust="spacing" textLength="172" x="340" y="852.541">[10-11]通常効果のアクションを</text><text fill="#000000" font-family="sans-serif" font-size="12" lengthAdjust="spacing" textLength="144" x="340" y="868.2441">任意の順でステージに追加</text><rect fill="#F1F1F1" height="51.4063" rx="12.5" ry="12.5" style="stroke:#181818;stroke-width:0.5;" width="252" x="300" y="916.4316"/><text fill="#000000" font-family="sans-serif" font-size="12" lengthAdjust="spacing" textLength="232" x="310" y="938.9473">[10-12]誘発したアクションをプレイヤー毎</text><text fill="#000000" font-family="sans-serif" font-size="12" lengthAdjust="spacing" textLength="228" x="310" y="954.6504">の誘発即時リストと誘発通常リストに追加</text><rect fill="#F1F1F1" height="51.4063" rx="12.5" ry="12.5" style="stroke:#181818;stroke-width:0.5;" width="228" x="312" y="758.6191"/><text fill="#000000" font-family="sans-serif" font-size="12" lengthAdjust="spacing" textLength="208" x="322" y="781.1348">[10-10]プレイヤー毎に誘発通常リスト</text><text fill="#000000" font-family="sans-serif" font-size="12" lengthAdjust="spacing" textLength="168" x="322" y="796.8379">のアクションをステージに追加</text><polygon fill="#F1F1F1" points="277,987.8379,575,987.8379,587,999.8379,575,1011.8379,277,1011.8379,265,999.8379,277,987.8379" style="stroke:#181818;stroke-width:0.5;"/><text fill="#000000" font-family="sans-serif" font-size="11" lengthAdjust="spacing" textLength="298" x="277" y="1004.1133">[10-13]誘発リストに通常効果のアクションがあれば繰り返す</text><text fill="#000000" font-family="sans-serif" font-size="11" lengthAdjust="spacing" textLength="18" x="587" y="996.916">YES</text><polygon fill="#F1F1F1" points="291,121.4063,561,121.4063,573,133.4063,561,145.4063,291,145.4063,279,133.4063,291,121.4063" style="stroke:#181818;stroke-width:0.5;"/><text fill="#000000" font-family="sans-serif" font-size="11" lengthAdjust="spacing" textLength="39" x="430" y="156.8789">1件以上</text><text fill="#000000" font-family="sans-serif" font-size="11" lengthAdjust="spacing" textLength="270" x="291" y="137.6816">[10-2]誘発即時リスト、誘発通常リスト全体の件数判定</text><text fill="#000000" font-family="sans-serif" font-size="11" lengthAdjust="spacing" textLength="17" x="262" y="130.4844">0件</text><ellipse cx="24" cy="180.4063" fill="none" rx="11" ry="11" style="stroke:#222222;stroke-width:1.0;"/><ellipse cx="24" cy="180.4063" fill="#222222" rx="6" ry="6" style="stroke:#111111;stroke-width:1.0;"/><line style="stroke:#181818;stroke-width:1.0;" x1="426" x2="426" y1="30" y2="50"/><polygon fill="#181818" points="422,40,426,50,430,40,426,44" style="stroke:#181818;stroke-width:1.0;"/><line style="stroke:#181818;stroke-width:1.0;" x1="426" x2="426" y1="487.6836" y2="530.6836"/><polygon fill="#181818" points="422,520.6836,426,530.6836,430,520.6836,426,524.6836" style="stroke:#181818;stroke-width:1.0;"/><line style="stroke:#181818;stroke-width:1.0;" x1="474" x2="507" y1="475.6836" y2="475.6836"/><polygon fill="#181818" points="497,471.6836,507,475.6836,497,479.6836,501,475.6836" style="stroke:#181818;stroke-width:1.0;"/><line style="stroke:#181818;stroke-width:1.0;" x1="426" x2="426" y1="428.957" y2="463.6836"/><polygon fill="#181818" points="422,453.6836,426,463.6836,430,453.6836,426,457.6836" style="stroke:#181818;stroke-width:1.0;"/><line style="stroke:#181818;stroke-width:1.0;" x1="426" x2="426" y1="373.2539" y2="393.2539"/><polygon fill="#181818" points="422,383.2539,426,393.2539,430,383.2539,426,387.2539" style="stroke:#181818;stroke-width:1.0;"/><line style="stroke:#181818;stroke-width:1.0;" x1="565" x2="577" y1="630.2988" y2="630.2988"/><polygon fill="#181818" points="573,510.6836,577,500.6836,581,510.6836,577,506.6836" style="stroke:#181818;stroke-width:1.0;"/><line style="stroke:#181818;stroke-width:1.0;" x1="577" x2="577" y1="347.5508" y2="630.2988"/><line style="stroke:#181818;stroke-width:1.0;" x1="577" x2="536.5" y1="347.5508" y2="347.5508"/><polygon fill="#181818" points="546.5,343.5508,536.5,347.5508,546.5,351.5508,542.5,347.5508" style="stroke:#181818;stroke-width:1.0;"/><line style="stroke:#181818;stroke-width:1.0;" x1="426" x2="426" y1="582.0898" y2="618.2988"/><polygon fill="#181818" points="422,608.2988,426,618.2988,430,608.2988,426,612.2988" style="stroke:#181818;stroke-width:1.0;"/><line style="stroke:#181818;stroke-width:1.0;" x1="426" x2="426" y1="273.5273" y2="321.8477"/><polygon fill="#181818" points="422,311.8477,426,321.8477,430,311.8477,426,315.8477" style="stroke:#181818;stroke-width:1.0;"/><line style="stroke:#181818;stroke-width:1.0;" x1="587" x2="611" y1="686.2988" y2="686.2988"/><polygon fill="#181818" points="607,487.8203,611,477.8203,615,487.8203,611,483.8203" style="stroke:#181818;stroke-width:1.0;"/><line style="stroke:#181818;stroke-width:1.0;" x1="611" x2="611" y1="247.8242" y2="686.2988"/><line style="stroke:#181818;stroke-width:1.0;" x1="611" x2="536.5" y1="247.8242" y2="247.8242"/><polygon fill="#181818" points="546.5,243.8242,536.5,247.8242,546.5,251.8242,542.5,247.8242" style="stroke:#181818;stroke-width:1.0;"/><line style="stroke:#181818;stroke-width:1.0;" x1="426" x2="426" y1="642.2988" y2="674.2988"/><polygon fill="#181818" points="422,664.2988,426,674.2988,430,664.2988,426,668.2988" style="stroke:#181818;stroke-width:1.0;"/><line style="stroke:#181818;stroke-width:1.0;" x1="426" x2="426" y1="881.4316" y2="916.4316"/><polygon fill="#181818" points="422,906.4316,426,916.4316,430,906.4316,426,910.4316" style="stroke:#181818;stroke-width:1.0;"/><line style="stroke:#181818;stroke-width:1.0;" x1="426" x2="426" y1="810.0254" y2="830.0254"/><polygon fill="#181818" points="422,820.0254,426,830.0254,430,820.0254,426,824.0254" style="stroke:#181818;stroke-width:1.0;"/><line style="stroke:#181818;stroke-width:1.0;" x1="587" x2="599" y1="999.8379" y2="999.8379"/><polygon fill="#181818" points="595,902.0801,599,892.0801,603,902.0801,599,898.0801" style="stroke:#181818;stroke-width:1.0;"/><line style="stroke:#181818;stroke-width:1.0;" x1="599" x2="599" y1="784.3223" y2="999.8379"/><line style="stroke:#181818;stroke-width:1.0;" x1="599" x2="540" y1="784.3223" y2="784.3223"/><polygon fill="#181818" points="550,780.3223,540,784.3223,550,788.3223,546,784.3223" style="stroke:#181818;stroke-width:1.0;"/><line style="stroke:#181818;stroke-width:1.0;" x1="426" x2="426" y1="967.8379" y2="987.8379"/><polygon fill="#181818" points="422,977.8379,426,987.8379,430,977.8379,426,981.8379" style="stroke:#181818;stroke-width:1.0;"/><line style="stroke:#181818;stroke-width:1.0;" x1="426" x2="426" y1="698.2988" y2="758.6191"/><polygon fill="#181818" points="422,748.6191,426,758.6191,430,748.6191,426,752.6191" style="stroke:#181818;stroke-width:1.0;"/><line style="stroke:#181818;stroke-width:1.0;" x1="426" x2="426" y1="145.4063" y2="222.1211"/><polygon fill="#181818" points="422,212.1211,426,222.1211,430,212.1211,426,216.1211" style="stroke:#181818;stroke-width:1.0;"/><line style="stroke:#181818;stroke-width:1.0;" x1="426" x2="426" y1="1011.8379" y2="1033.8379"/><line style="stroke:#181818;stroke-width:1.0;" x1="426" x2="645" y1="1033.8379" y2="1033.8379"/><polygon fill="#181818" points="641,602.0898,645,592.0898,649,602.0898,645,598.0898" style="stroke:#181818;stroke-width:1.0;"/><line style="stroke:#181818;stroke-width:1.0;" x1="645" x2="645" y1="133.4063" y2="1033.8379"/><line style="stroke:#181818;stroke-width:1.0;" x1="645" x2="573" y1="133.4063" y2="133.4063"/><polygon fill="#181818" points="583,129.4063,573,133.4063,583,137.4063,579,133.4063" style="stroke:#181818;stroke-width:1.0;"/><line style="stroke:#181818;stroke-width:1.0;" x1="279" x2="24" y1="133.4063" y2="133.4063"/><line style="stroke:#181818;stroke-width:1.0;" x1="24" x2="24" y1="133.4063" y2="169.4063"/><polygon fill="#181818" points="20,159.4063,24,169.4063,28,159.4063,24,163.4063" style="stroke:#181818;stroke-width:1.0;"/><line style="stroke:#181818;stroke-width:1.0;" x1="426" x2="426" y1="101.4063" y2="121.4063"/><polygon fill="#181818" points="422,111.4063,426,121.4063,430,111.4063,426,115.4063" style="stroke:#181818;stroke-width:1.0;"/><!--SRC=[rLFBJjj05DtdAxnC5aWnZvR2cY_e2e4NI3KbKkL4YQjkCsC8D8yYA2645aeXD2Yj80W94aAKZxaU9_n5xum1EtxGia5YvCLuPkuzvvvxRaPVIEkHgJavFY8hWyPElteDf0Ba1z13e6T0hy2eWt41T1EC2XX_WDR0mE_6Eliohm4vjODOwSAgKZ0QGDjWh04viSzlixkirNAT_nxqkYn_C1tvj9Jue4OvyAWId2DB0dEmbHEp-nMHpSwbLMwojHextOr9YOmKbV78x1oRhNmi8k5wdqv-J4bsNfPlM_lVfpnLiDAEsIqXhNwxEUXjOUqYK4lggjZmTNkGwvSRG52D7ePmDOQJ02a0_Vpmtdb6YkpRFj02Pk2L_om2oObdglREmKYhANL1bqGJnXI_p3mqI20Xlxiu_FMtRL0_iiwlfn_O1Mao71IYYPVgU4ZRX1WUMaZLHqm6KcFhsq3pR1LDLtKeyYKW9fGdbyTNOb7uwfN22djMkNBl47r9rQGelkxlPMD30Nnbz6Hgw11xb5ZqSthzl6FYKLvCZIJAcmpJ_sumq7rnt06f0q7tRW1fOaDHRj7JgZqnipDl7IcuAuKz8bv40VX6mT43yYkycZ1aMdmSt05sZQsjoSiOMpd-sDnwkYly460SVfdZ56Whm00sZgouPGdCCw-PdOwrl8wNee3wVoKUVNvR-oqjZzspS8Nyes22tQ5FSHXkxo2vIUrhFln_0G00]--></g></svg>