<?xml version="1.0" encoding="us-ascii" standalone="no"?><svg xmlns="http://www.w3.org/2000/svg" xmlns:xlink="http://www.w3.org/1999/xlink" contentStyleType="text/css" height="540px" preserveAspectRatio="none" style="width:651px;height:540px;background:#FFFFFF;" version="1.1" viewBox="0 0 651 540" width="651px" zoomAndPan="magnify"><defs/><g><!--cluster ???--><g id="cluster_&#12523;&#12540;&#12523;"><rect fill="none" height="485" rx="2.5" ry="2.5" style="stroke:#181818;stroke-width:1.0;" width="397" x="7.8367" y="49.9531"/><path d="M59.8367,49.9531 L59.8367,61.2734 L49.8367,71.2734 L7.8367,71.2734 " fill="none" style="stroke:#181818;stroke-width:1.0;"/><text fill="#000000" font-family="sans-serif" font-size="14" font-weight="bold" lengthAdjust="spacing" textLength="42" x="10.8367" y="65.5547">&#12523;&#12540;&#12523;</text></g><!--entity core--><g id="elem_core"><rect fill="#F1F1F1" height="38.3203" rx="2.5" ry="2.5" style="stroke:#181818;stroke-width:0.5;" width="90" x="50.8367" y="115.9531"/><text fill="#000000" font-family="sans-serif" font-size="14" lengthAdjust="spacing" textLength="70" x="60.8367" y="140.5547">&#12467;&#12450;&#12523;&#12540;&#12523;</text></g><!--entity common--><g id="elem_common"><rect fill="#F1F1F1" height="38.3203" rx="2.5" ry="2.5" style="stroke:#181818;stroke-width:0.5;" width="90" x="48.8367" y="235.9531"/><text fill="#000000" font-family="sans-serif" font-size="14" lengthAdjust="spacing" textLength="70" x="58.8367" y="260.5547">&#20849;&#36890;&#12523;&#12540;&#12523;</text></g><!--entity format--><g id="elem_format"><rect fill="#F1F1F1" height="38.3203" rx="2.5" ry="2.5" style="stroke:#181818;stroke-width:0.5;" width="104" x="39.8367" y="355.9531"/><text fill="#000000" font-family="sans-serif" font-size="14" lengthAdjust="spacing" textLength="84" x="49.8367" y="380.5547">&#12501;&#12457;&#12540;&#12510;&#12483;&#12488;</text></g><!--entity match_reg--><g id="elem_match_reg"><rect fill="#F1F1F1" height="38.3203" rx="2.5" ry="2.5" style="stroke:#181818;stroke-width:0.5;" width="160" x="197.8367" y="235.9531"/><text fill="#000000" font-family="sans-serif" font-size="14" lengthAdjust="spacing" textLength="140" x="207.8367" y="260.5547">&#23550;&#25126;&#12524;&#12462;&#12517;&#12524;&#12540;&#12471;&#12519;&#12531;</text></g><!--entity frame--><g id="elem_frame"><rect fill="#F1F1F1" height="38.3203" rx="2.5" ry="2.5" style="stroke:#181818;stroke-width:0.5;" width="76" x="206.8367" y="355.9531"/><text fill="#000000" font-family="sans-serif" font-size="14" lengthAdjust="spacing" textLength="56" x="216.8367" y="380.5547">&#12501;&#12524;&#12540;&#12512;</text></g><!--entity options--><g id="elem_options"><rect fill="#F1F1F1" height="38.3203" rx="2.5" ry="2.5" style="stroke:#181818;stroke-width:0.5;" width="90" x="199.8367" y="472.9531"/><text fill="#000000" font-family="sans-serif" font-size="14" lengthAdjust="spacing" textLength="70" x="209.8367" y="497.5547">&#12458;&#12503;&#12471;&#12519;&#12531;</text></g><!--entity ?????--><g id="elem_&#12523;&#12540;&#12523;&#25351;&#37341;"><rect fill="#F1F1F1" height="38.3203" rx="2.5" ry="2.5" style="stroke:#181818;stroke-width:0.5;" width="90" x="428.8367" y="115.9531"/><text fill="#000000" font-family="sans-serif" font-size="14" lengthAdjust="spacing" textLength="70" x="438.8367" y="140.5547">&#12523;&#12540;&#12523;&#25351;&#37341;</text></g><g id="elem_GMN19"><path d="M428.8367,232.9531 L428.8367,250.9531 L358.0167,254.9531 L428.8367,258.9531 L428.8367,276.9766 A0,0 0 0 0 428.8367,276.9766 L644.8367,276.9766 A0,0 0 0 0 644.8367,276.9766 L644.8367,242.9531 L634.8367,232.9531 L428.8367,232.9531 A0,0 0 0 0 428.8367,232.9531 " fill="#FFFFFF" style="stroke:#181818;stroke-width:0.5;"/><path d="M634.8367,232.9531 L634.8367,242.9531 L644.8367,242.9531 L634.8367,232.9531 " fill="#FFFFFF" style="stroke:#181818;stroke-width:0.5;"/><text fill="#000000" font-family="sans-serif" font-size="13" lengthAdjust="spacing" textLength="156" x="434.8367" y="251.5117">&#12503;&#12524;&#12452;&#12516;&#12540;&#12399;&#23550;&#25126;&#12377;&#12427;&#21069;&#12395;</text><text fill="#000000" font-family="sans-serif" font-size="13" lengthAdjust="spacing" textLength="195" x="434.8367" y="268.5234">&#23550;&#25126;&#12524;&#12462;&#12517;&#12524;&#12540;&#12471;&#12519;&#12531;&#12434;&#36984;&#25246;&#12377;&#12427;</text></g><!--reverse link core to common--><g id="link_core_common"><path d="M95.2192,172.1305 C94.8392,194.3705 94.5167,213.7831 94.1467,235.9431 " fill="none" id="core-backto-common" style="stroke:#181818;stroke-width:1.0;"/><polygon fill="none" points="95.5267,154.1331,89.2201,172.028,101.2183,172.233,95.5267,154.1331" style="stroke:#181818;stroke-width:1.0;"/><text fill="#000000" font-family="sans-serif" font-size="13" lengthAdjust="spacing" textLength="26" x="95.8367" y="198.5117">&#32153;&#25215;</text></g><!--reverse link common to format--><g id="link_common_format"><path d="M93.2192,292.1305 C92.8392,314.3705 92.5167,333.7831 92.1467,355.9431 " fill="none" id="common-backto-format" style="stroke:#181818;stroke-width:1.0;"/><polygon fill="none" points="93.5267,274.1331,87.2201,292.028,99.2183,292.233,93.5267,274.1331" style="stroke:#181818;stroke-width:1.0;"/><text fill="#000000" font-family="sans-serif" font-size="13" lengthAdjust="spacing" textLength="26" x="93.8367" y="321.5117">&#32153;&#25215;</text></g><!--reverse link match_reg to format--><g id="link_match_reg_format"><path d="M239.0535,280.561 C203.9935,302.801 155.1467,333.7831 120.2167,355.9431 " fill="none" id="match_reg-backto-format" style="stroke:#181818;stroke-width:1.0;"/><polygon fill="none" points="249.1867,274.1331,241.9775,273.9693,239.0535,280.561,246.2627,280.7248,249.1867,274.1331" style="stroke:#181818;stroke-width:1.0;"/><text fill="#000000" font-family="sans-serif" font-size="13" lengthAdjust="spacing" textLength="26" x="196.8367" y="321.5117">&#20869;&#21253;</text></g><!--reverse link match_reg to frame--><g id="link_match_reg_frame"><path d="M269.5246,285.6897 C263.3046,307.9297 256.0667,333.7831 249.8767,355.9431 " fill="none" id="match_reg-backto-frame" style="stroke:#181818;stroke-width:1.0;"/><polygon fill="none" points="272.7567,274.1331,267.2885,278.834,269.5246,285.6897,274.9928,280.9888,272.7567,274.1331" style="stroke:#181818;stroke-width:1.0;"/><text fill="#000000" font-family="sans-serif" font-size="13" lengthAdjust="spacing" textLength="26" x="263.8367" y="321.5117">&#20869;&#21253;</text></g><!--reverse link match_reg to options--><g id="link_match_reg_options"><path d="M292.2559,285.233 C296.6259,294.723 296.3767,295.7331 298.8367,306.9531 C307.1167,344.7331 308.2867,356.0031 300.8367,393.9531 C296.3067,417.0331 292.4367,422.4831 280.8367,442.9531 C274.9867,453.2831 267.2067,463.9331 260.3767,472.5631 " fill="none" id="match_reg-backto-options" style="stroke:#181818;stroke-width:1.0;"/><polygon fill="none" points="287.2367,274.3331,286.113,281.4561,292.2559,285.233,293.3796,278.11,287.2367,274.3331" style="stroke:#181818;stroke-width:1.0;"/><text fill="#000000" font-family="sans-serif" font-size="13" lengthAdjust="spacing" textLength="26" x="305.8367" y="380.0117">&#20869;&#21253;</text></g><!--reverse link format to options--><g id="link_format_options"><path d="M120.8725,397.7787 C149.5225,419.3187 192.1067,451.3231 220.7067,472.8131 " fill="none" id="format-backto-options" style="stroke:#181818;stroke-width:1.0;stroke-dasharray:7.0,7.0;"/><polygon fill="#181818" points="116.0767,394.1731,120.8666,402.7787,120.0732,397.1778,125.6741,396.3844,116.0767,394.1731" style="stroke:#181818;stroke-width:1.0;"/><text fill="#000000" font-family="sans-serif" font-size="13" lengthAdjust="spacing" textLength="26" x="177.8367" y="438.5117">&#20381;&#23384;</text></g><!--reverse link format to frame--><g id="link_format_frame"><path d="M150.0667,374.9531 C170.4967,374.9531 187.4967,374.9531 206.3667,374.9531 " fill="none" id="format-backto-frame" style="stroke:#181818;stroke-width:1.0;stroke-dasharray:7.0,7.0;"/><polygon fill="#181818" points="144.0667,374.9531,153.0667,378.9531,149.0667,374.9531,153.0667,370.9531,144.0667,374.9531" style="stroke:#181818;stroke-width:1.0;"/><text fill="#000000" font-family="sans-serif" font-size="13" lengthAdjust="spacing" textLength="26" x="162.3367" y="367.5117">&#20381;&#23384;</text></g><!--reverse link frame to options--><g id="link_frame_options"><path d="M244.8367,400.1731 C244.8367,421.7131 244.8367,451.3231 244.8367,472.8131 " fill="none" id="frame-backto-options" style="stroke:#181818;stroke-width:1.0;stroke-dasharray:7.0,7.0;"/><polygon fill="#181818" points="244.8367,394.1731,240.8367,403.1731,244.8367,399.1731,248.8367,403.1731,244.8367,394.1731" style="stroke:#181818;stroke-width:1.0;"/><text fill="#000000" font-family="sans-serif" font-size="13" lengthAdjust="spacing" textLength="26" x="245.8367" y="438.5117">&#20381;&#23384;</text></g><!--link ????? to ???--><g id="link_&#12523;&#12540;&#12523;&#25351;&#37341;_&#12523;&#12540;&#12523;"><path d="M464.8467,115.6531 C452.9567,92.7131 429.6067,55.5731 396.8367,39.9531 C359.4267,22.1231 54.3467,11.9031 23.8367,39.9531 C21.9786,41.6612 20.3135,43.503 18.825,45.4563 C18.0807,46.433 17.3806,47.4375 16.7226,48.4673 C16.5581,48.7247 16.3962,48.9837 16.237,49.2442 C16.1573,49.3745 19.1573,44.3554 19.079,44.4864 " fill="none" id="&#12523;&#12540;&#12523;&#25351;&#37341;-to-&#12523;&#12540;&#12523;" style="stroke:#181818;stroke-width:1.0;"/><polygon fill="#181818" points="16,49.6362,24.0516,43.9642,18.5658,45.3447,17.1853,39.8589,16,49.6362" style="stroke:#181818;stroke-width:1.0;"/><text fill="#000000" font-family="sans-serif" font-size="13" lengthAdjust="spacing" textLength="39" x="202.3367" y="21.5117">&#20855;&#20307;&#21270;</text></g><!--SRC=[VLBTIiCm6BtFKmIyy6fx01c-YfIPTOEr6Lb1H0MRKBVfl55qJjWGyGUTEcJWl9ZpORwrihSmIUkQ5HLAQNBETxvp-dsC53tBjQi4WnY0cCXtr6xC6ps4IinoZEiTn58k7m6_Na3OgkCYPSHWXC7hVFyomt0SwfeguWpuWoRqGGWGJKKhKUPOdYard4RDEn1Fm5z0tAeFMSB78Ev1Z5I9v1VB6upO6V6OAQwqh4gp5E4HH6T9XjQy2dNhQ1MRCXtT-GQ4V2QALgjQsuGXf1BZmcukboJ3Q_ZhhHkrFXMaBpGOvp70XLjCJJWy2C9sa4Nr3Fu04xyfB9sdZ48-SIhnkVyU7VRbIEDcXNpUA9vDU-7pHOejclu0-lXh3Tf3ABCtEBUUxeoo5end7wTX-nmXbte4iufTzZ0j6KvNjieLZw3ChmP_c4pUxm8_2bl7u0_G_yi0_2IE6jSWucvYrVKR]--></g></svg>