<?xml version="1.0" encoding="us-ascii" standalone="no"?><svg xmlns="http://www.w3.org/2000/svg" xmlns:xlink="http://www.w3.org/1999/xlink" contentStyleType="text/css" height="1312px" preserveAspectRatio="none" style="width:977px;height:1312px;background:#FFFFFF;" version="1.1" viewBox="0 0 977 1312" width="977px" zoomAndPan="magnify"><defs/><g><ellipse cx="456.5" cy="20" fill="#222222" rx="10" ry="10" style="stroke:#222222;stroke-width:1.0;"/><path d="M612.5,50 L612.5,77.0117 L864.5,77.0117 L864.5,60 L854.5,50 L612.5,50 " fill="#FEFFDD" style="stroke:#181818;stroke-width:0.5;"/><path d="M854.5,50 L854.5,60 L864.5,60 L854.5,50 " fill="#FEFFDD" style="stroke:#181818;stroke-width:0.5;"/><text fill="#000000" font-family="sans-serif" font-size="13" lengthAdjust="spacing" textLength="231" x="618.5" y="68.5586">&#12300;&#21363;&#26178;/&#36890;&#24120; &#215; &#12513;&#12452;&#12531;/&#12463;&#12452;&#12483;&#12463;&#12301;&#12391;&#20998;&#39006;</text><path d="M611,97.0117 L611,158.0469 L866,158.0469 L866,107.0117 L856,97.0117 L611,97.0117 " fill="#FEFFDD" style="stroke:#181818;stroke-width:0.5;"/><path d="M856,97.0117 L856,107.0117 L866,107.0117 L856,97.0117 " fill="#FEFFDD" style="stroke:#181818;stroke-width:0.5;"/><text fill="#000000" font-family="sans-serif" font-size="13" lengthAdjust="spacing" textLength="234" x="617" y="115.5703">&#35480;&#30330;&#12375;&#12383;&#12450;&#12463;&#12471;&#12519;&#12531;&#12398;&#12467;&#12531;&#12488;&#12525;&#12540;&#12521;&#12540;&#12399;</text><text fill="#000000" font-family="sans-serif" font-size="13" lengthAdjust="spacing" textLength="208" x="617" y="132.582">&#36215;&#22240;&#12392;&#12394;&#12387;&#12383;&#12450;&#12463;&#12471;&#12519;&#12531;&#12398;&#12458;&#12540;&#12490;&#12540;</text><text fill="#000000" font-family="sans-serif" font-size="13" lengthAdjust="spacing" textLength="78" x="617" y="149.5938">&#12395;&#12394;&#12426;&#12414;&#12377;&#12290;</text><rect fill="#F1F1F1" height="35.7031" rx="12.5" ry="12.5" style="stroke:#181818;stroke-width:0.5;" width="289" x="312" y="86.1719"/><text fill="#000000" font-family="sans-serif" font-size="12" lengthAdjust="spacing" textLength="269" x="322" y="108.6875">[6-1] &#35480;&#30330;&#12375;&#12383;&#12450;&#12463;&#12471;&#12519;&#12531;&#12434;&#20998;&#39006;&#12375;&#12496;&#12483;&#12501;&#12449;&#12395;&#36861;&#21152;</text><rect fill="none" height="435.1055" style="stroke:#000000;stroke-width:1.5;" width="871.5" x="64.5" y="297.4141"/><path d="M236.5,297.4141 L236.5,308.7344 L226.5,318.7344 L64.5,318.7344 " fill="none" style="stroke:#000000;stroke-width:1.5;"/><text fill="#000000" font-family="sans-serif" font-size="14" lengthAdjust="spacing" textLength="162" x="67.5" y="313.0156">&#21363;&#26178;: &#12503;&#12524;&#12452;&#12516;&#12540;&#27598;&#12395;&#20966;&#29702;</text><path d="M84.5,504.4043 L84.5,548.4277 L274.5,548.4277 L274.5,514.4043 L264.5,504.4043 L84.5,504.4043 " fill="#FEFFDD" style="stroke:#181818;stroke-width:0.5;"/><path d="M264.5,504.4043 L264.5,514.4043 L274.5,514.4043 L264.5,504.4043 " fill="#FEFFDD" style="stroke:#181818;stroke-width:0.5;"/><text fill="#000000" font-family="sans-serif" font-size="13" lengthAdjust="spacing" textLength="169" x="90.5" y="522.9629">&#38918;&#30058;&#12399;&#12479;&#12540;&#12531;&#12503;&#12524;&#12452;&#12516;&#12540;&#12363;&#12425;</text><text fill="#000000" font-family="sans-serif" font-size="13" lengthAdjust="spacing" textLength="130" x="90.5" y="539.9746">&#12479;&#12540;&#12531;&#12364;&#22238;&#12427;&#38918;&#12395;&#34892;&#12358;</text><rect fill="#F1F1F1" height="35.7031" rx="12.5" ry="12.5" style="stroke:#181818;stroke-width:0.5;" width="164" x="374.5" y="335.7344"/><text fill="#000000" font-family="sans-serif" font-size="12" lengthAdjust="spacing" textLength="144" x="384.5" y="358.25">&#12479;&#12540;&#12531;&#12503;&#12524;&#12452;&#12516;&#12540;&#12363;&#12425;&#38283;&#22987;</text><path d="M618.5,496.7559 L618.5,506.2617 L598.5,510.2617 L618.5,514.2617 L618.5,523.7676 A0,0 0 0 0 618.5,523.7676 L886.5,523.7676 A0,0 0 0 0 886.5,523.7676 L886.5,506.7559 L876.5,496.7559 L618.5,496.7559 A0,0 0 0 0 618.5,496.7559 " fill="#FEFFDD" style="stroke:#181818;stroke-width:0.5;"/><path d="M876.5,496.7559 L876.5,506.7559 L886.5,506.7559 L876.5,496.7559 " fill="#FEFFDD" style="stroke:#181818;stroke-width:0.5;"/><text fill="#000000" font-family="sans-serif" font-size="13" lengthAdjust="spacing" textLength="247" x="624.5" y="515.3145">&#21029;&#12501;&#12525;&#12540;&#65288;&#35480;&#30330;&#12450;&#12463;&#12471;&#12519;&#12531;&#20966;&#29702;&#65289;&#21628;&#12403;&#20986;&#12375;</text><rect fill="#F1F1F1" height="35.7031" rx="12.5" ry="12.5" style="stroke:#181818;stroke-width:0.5;" width="284" x="314.5" y="492.4102"/><text fill="#000000" font-family="sans-serif" font-size="12" lengthAdjust="spacing" textLength="264" x="324.5" y="514.9258">[6-5] &#12479;&#12452;&#12511;&#12531;&#12464;=&#12513;&#12452;&#12531;&#12398;&#21363;&#26178;&#12450;&#12463;&#12471;&#12519;&#12531;&#12434;&#20966;&#29702;</text><path d="M624.5,567.459 L624.5,576.9648 L604.5,580.9648 L624.5,584.9648 L624.5,594.4707 A0,0 0 0 0 624.5,594.4707 L892.5,594.4707 A0,0 0 0 0 892.5,594.4707 L892.5,577.459 L882.5,567.459 L624.5,567.459 A0,0 0 0 0 624.5,567.459 " fill="#FEFFDD" style="stroke:#181818;stroke-width:0.5;"/><path d="M882.5,567.459 L882.5,577.459 L892.5,577.459 L882.5,567.459 " fill="#FEFFDD" style="stroke:#181818;stroke-width:0.5;"/><text fill="#000000" font-family="sans-serif" font-size="13" lengthAdjust="spacing" textLength="247" x="630.5" y="586.0176">&#21029;&#12501;&#12525;&#12540;&#65288;&#35480;&#30330;&#12450;&#12463;&#12471;&#12519;&#12531;&#20966;&#29702;&#65289;&#21628;&#12403;&#20986;&#12375;</text><rect fill="#F1F1F1" height="35.7031" rx="12.5" ry="12.5" style="stroke:#181818;stroke-width:0.5;" width="296" x="308.5" y="563.1133"/><text fill="#000000" font-family="sans-serif" font-size="12" lengthAdjust="spacing" textLength="276" x="318.5" y="585.6289">[6-6] &#12479;&#12452;&#12511;&#12531;&#12464;=&#12463;&#12452;&#12483;&#12463;&#12398;&#21363;&#26178;&#12450;&#12463;&#12471;&#12519;&#12531;&#12434;&#20966;&#29702;</text><polygon fill="#F1F1F1" points="336.5,435.4375,576.5,435.4375,588.5,447.4375,576.5,459.4375,336.5,459.4375,324.5,447.4375,336.5,435.4375" style="stroke:#181818;stroke-width:0.5;"/><text fill="#000000" font-family="sans-serif" font-size="11" lengthAdjust="spacing" textLength="17" x="460.5" y="470.9102">Yes</text><text fill="#000000" font-family="sans-serif" font-size="11" lengthAdjust="spacing" textLength="240" x="336.5" y="451.7129">[6-4] &#35442;&#24403;&#12503;&#12524;&#12452;&#12516;&#12540;&#12395;&#12473;&#12500;&#12540;&#12489;=&#21363;&#26178;&#12364;&#12354;&#12427;&#12363;&#65311;</text><text fill="#000000" font-family="sans-serif" font-size="11" lengthAdjust="spacing" textLength="14" x="310.5" y="444.5156">No</text><rect fill="#F1F1F1" height="35.7031" rx="12.5" ry="12.5" style="stroke:#181818;stroke-width:0.5;" width="145" x="384" y="640.8164"/><text fill="#000000" font-family="sans-serif" font-size="12" lengthAdjust="spacing" textLength="125" x="394" y="663.332">[6-7] &#27425;&#12398;&#12503;&#12524;&#12452;&#12516;&#12540;&#12408;</text><polygon fill="#F1F1F1" points="456.5,391.4375,468.5,403.4375,456.5,415.4375,444.5,403.4375,456.5,391.4375" style="stroke:#181818;stroke-width:0.5;"/><polygon fill="#F1F1F1" points="401.5,696.5195,511.5,696.5195,523.5,708.5195,511.5,720.5195,401.5,720.5195,389.5,708.5195,401.5,696.5195" style="stroke:#181818;stroke-width:0.5;"/><text fill="#000000" font-family="sans-serif" font-size="11" lengthAdjust="spacing" textLength="110" x="401.5" y="712.7949">&#20840;&#21729;&#12481;&#12455;&#12483;&#12463;&#12375;&#12383;&#12363;&#65311;</text><text fill="#000000" font-family="sans-serif" font-size="11" lengthAdjust="spacing" textLength="14" x="523.5" y="705.5977">No</text><polygon fill="#F1F1F1" points="353,250.4414,560,250.4414,572,262.4414,560,274.4414,353,274.4414,341,262.4414,353,250.4414" style="stroke:#181818;stroke-width:0.5;"/><text fill="#000000" font-family="sans-serif" font-size="11" lengthAdjust="spacing" textLength="17" x="460.5" y="285.9141">Yes</text><text fill="#000000" font-family="sans-serif" font-size="11" lengthAdjust="spacing" textLength="207" x="353" y="266.7168">[6-3] &#12496;&#12483;&#12501;&#12449;&#12395;&#12473;&#12500;&#12540;&#12489;=&#21363;&#26178;&#12399;&#12354;&#12427;&#12363;&#65311;</text><text fill="#000000" font-family="sans-serif" font-size="11" lengthAdjust="spacing" textLength="14" x="327" y="259.5195">No</text><rect fill="none" height="435.1055" style="stroke:#000000;stroke-width:1.5;" width="878.5" x="61" y="821.4922"/><path d="M233,821.4922 L233,832.8125 L223,842.8125 L61,842.8125 " fill="none" style="stroke:#000000;stroke-width:1.5;"/><text fill="#000000" font-family="sans-serif" font-size="14" lengthAdjust="spacing" textLength="162" x="64" y="837.0938">&#36890;&#24120;: &#12503;&#12524;&#12452;&#12516;&#12540;&#27598;&#12395;&#20966;&#29702;</text><path d="M81,1028.4824 L81,1072.5059 L271,1072.5059 L271,1038.4824 L261,1028.4824 L81,1028.4824 " fill="#FEFFDD" style="stroke:#181818;stroke-width:0.5;"/><path d="M261,1028.4824 L261,1038.4824 L271,1038.4824 L261,1028.4824 " fill="#FEFFDD" style="stroke:#181818;stroke-width:0.5;"/><text fill="#000000" font-family="sans-serif" font-size="13" lengthAdjust="spacing" textLength="169" x="87" y="1047.041">&#38918;&#30058;&#12399;&#12479;&#12540;&#12531;&#12503;&#12524;&#12452;&#12516;&#12540;&#12363;&#12425;</text><text fill="#000000" font-family="sans-serif" font-size="13" lengthAdjust="spacing" textLength="130" x="87" y="1064.0527">&#12479;&#12540;&#12531;&#12364;&#22238;&#12427;&#38918;&#12395;&#34892;&#12358;</text><rect fill="#F1F1F1" height="35.7031" rx="12.5" ry="12.5" style="stroke:#181818;stroke-width:0.5;" width="164" x="374.5" y="859.8125"/><text fill="#000000" font-family="sans-serif" font-size="12" lengthAdjust="spacing" textLength="144" x="384.5" y="882.3281">&#12479;&#12540;&#12531;&#12503;&#12524;&#12452;&#12516;&#12540;&#12363;&#12425;&#38283;&#22987;</text><path d="M622,1020.834 L622,1030.3398 L602,1034.3398 L622,1038.3398 L622,1047.8457 A0,0 0 0 0 622,1047.8457 L890,1047.8457 A0,0 0 0 0 890,1047.8457 L890,1030.834 L880,1020.834 L622,1020.834 A0,0 0 0 0 622,1020.834 " fill="#FEFFDD" style="stroke:#181818;stroke-width:0.5;"/><path d="M880,1020.834 L880,1030.834 L890,1030.834 L880,1020.834 " fill="#FEFFDD" style="stroke:#181818;stroke-width:0.5;"/><text fill="#000000" font-family="sans-serif" font-size="13" lengthAdjust="spacing" textLength="247" x="628" y="1039.3926">&#21029;&#12501;&#12525;&#12540;&#65288;&#35480;&#30330;&#12450;&#12463;&#12471;&#12519;&#12531;&#20966;&#29702;&#65289;&#21628;&#12403;&#20986;&#12375;</text><rect fill="#F1F1F1" height="35.7031" rx="12.5" ry="12.5" style="stroke:#181818;stroke-width:0.5;" width="291" x="311" y="1016.4883"/><text fill="#000000" font-family="sans-serif" font-size="12" lengthAdjust="spacing" textLength="271" x="321" y="1039.0039">[6-10] &#12479;&#12452;&#12511;&#12531;&#12464;=&#12513;&#12452;&#12531;&#12398;&#36890;&#24120;&#12450;&#12463;&#12471;&#12519;&#12531;&#12434;&#20966;&#29702;</text><path d="M628,1091.5371 L628,1101.043 L608,1105.043 L628,1109.043 L628,1118.5488 A0,0 0 0 0 628,1118.5488 L896,1118.5488 A0,0 0 0 0 896,1118.5488 L896,1101.5371 L886,1091.5371 L628,1091.5371 A0,0 0 0 0 628,1091.5371 " fill="#FEFFDD" style="stroke:#181818;stroke-width:0.5;"/><path d="M886,1091.5371 L886,1101.5371 L896,1101.5371 L886,1091.5371 " fill="#FEFFDD" style="stroke:#181818;stroke-width:0.5;"/><text fill="#000000" font-family="sans-serif" font-size="13" lengthAdjust="spacing" textLength="247" x="634" y="1110.0957">&#21029;&#12501;&#12525;&#12540;&#65288;&#35480;&#30330;&#12450;&#12463;&#12471;&#12519;&#12531;&#20966;&#29702;&#65289;&#21628;&#12403;&#20986;&#12375;</text><rect fill="#F1F1F1" height="35.7031" rx="12.5" ry="12.5" style="stroke:#181818;stroke-width:0.5;" width="303" x="305" y="1087.1914"/><text fill="#000000" font-family="sans-serif" font-size="12" lengthAdjust="spacing" textLength="283" x="315" y="1109.707">[6-11] &#12479;&#12452;&#12511;&#12531;&#12464;=&#12463;&#12452;&#12483;&#12463;&#12398;&#36890;&#24120;&#12450;&#12463;&#12471;&#12519;&#12531;&#12434;&#20966;&#29702;</text><polygon fill="#F1F1F1" points="336.5,959.5156,576.5,959.5156,588.5,971.5156,576.5,983.5156,336.5,983.5156,324.5,971.5156,336.5,959.5156" style="stroke:#181818;stroke-width:0.5;"/><text fill="#000000" font-family="sans-serif" font-size="11" lengthAdjust="spacing" textLength="17" x="460.5" y="994.9883">Yes</text><text fill="#000000" font-family="sans-serif" font-size="11" lengthAdjust="spacing" textLength="240" x="336.5" y="975.791">[6-9] &#35442;&#24403;&#12503;&#12524;&#12452;&#12516;&#12540;&#12395;&#12473;&#12500;&#12540;&#12489;=&#36890;&#24120;&#12364;&#12354;&#12427;&#12363;&#65311;</text><text fill="#000000" font-family="sans-serif" font-size="11" lengthAdjust="spacing" textLength="14" x="310.5" y="968.5938">No</text><rect fill="#F1F1F1" height="35.7031" rx="12.5" ry="12.5" style="stroke:#181818;stroke-width:0.5;" width="152" x="380.5" y="1164.8945"/><text fill="#000000" font-family="sans-serif" font-size="12" lengthAdjust="spacing" textLength="132" x="390.5" y="1187.4102">[6-12] &#27425;&#12398;&#12503;&#12524;&#12452;&#12516;&#12540;&#12408;</text><polygon fill="#F1F1F1" points="456.5,915.5156,468.5,927.5156,456.5,939.5156,444.5,927.5156,456.5,915.5156" style="stroke:#181818;stroke-width:0.5;"/><polygon fill="#F1F1F1" points="401.5,1220.5977,511.5,1220.5977,523.5,1232.5977,511.5,1244.5977,401.5,1244.5977,389.5,1232.5977,401.5,1220.5977" style="stroke:#181818;stroke-width:0.5;"/><text fill="#000000" font-family="sans-serif" font-size="11" lengthAdjust="spacing" textLength="110" x="401.5" y="1236.873">&#20840;&#21729;&#12481;&#12455;&#12483;&#12463;&#12375;&#12383;&#12363;&#65311;</text><text fill="#000000" font-family="sans-serif" font-size="11" lengthAdjust="spacing" textLength="14" x="523.5" y="1229.6758">No</text><polygon fill="#F1F1F1" points="353,774.5195,560,774.5195,572,786.5195,560,798.5195,353,798.5195,341,786.5195,353,774.5195" style="stroke:#181818;stroke-width:0.5;"/><text fill="#000000" font-family="sans-serif" font-size="11" lengthAdjust="spacing" textLength="17" x="460.5" y="809.9922">Yes</text><text fill="#000000" font-family="sans-serif" font-size="11" lengthAdjust="spacing" textLength="207" x="353" y="790.7949">[6-8] &#12496;&#12483;&#12501;&#12449;&#12395;&#12473;&#12500;&#12540;&#12489;=&#36890;&#24120;&#12399;&#12354;&#12427;&#12363;&#65311;</text><text fill="#000000" font-family="sans-serif" font-size="11" lengthAdjust="spacing" textLength="17" x="324" y="783.5977">Yes</text><polygon fill="#F1F1F1" points="400,188.0469,513,188.0469,525,200.0469,513,212.0469,400,212.0469,388,200.0469,400,188.0469" style="stroke:#181818;stroke-width:0.5;"/><text fill="#000000" font-family="sans-serif" font-size="11" lengthAdjust="spacing" textLength="14" x="460.5" y="223.5195">No</text><text fill="#000000" font-family="sans-serif" font-size="11" lengthAdjust="spacing" textLength="113" x="400" y="204.3223">[6-2] &#12496;&#12483;&#12501;&#12449;&#12399;&#31354;&#12363;&#65311;</text><text fill="#000000" font-family="sans-serif" font-size="11" lengthAdjust="spacing" textLength="17" x="371" y="197.125">Yes</text><ellipse cx="24" cy="247.0469" fill="none" rx="11" ry="11" style="stroke:#222222;stroke-width:1.0;"/><ellipse cx="24" cy="247.0469" fill="#222222" rx="6" ry="6" style="stroke:#222222;stroke-width:1.0;"/><line style="stroke:#181818;stroke-width:1.0;" x1="456.5" x2="456.5" y1="30" y2="86.1719"/><polygon fill="#181818" points="452.5,76.1719,456.5,86.1719,460.5,76.1719,456.5,80.1719" style="stroke:#181818;stroke-width:1.0;"/><line style="stroke:#181818;stroke-width:1.0;" x1="456.5" x2="456.5" y1="528.1133" y2="563.1133"/><polygon fill="#181818" points="452.5,553.1133,456.5,563.1133,460.5,553.1133,456.5,557.1133" style="stroke:#181818;stroke-width:1.0;"/><line style="stroke:#181818;stroke-width:1.0;" x1="456.5" x2="456.5" y1="459.4375" y2="492.4102"/><polygon fill="#181818" points="452.5,482.4102,456.5,492.4102,460.5,482.4102,456.5,486.4102" style="stroke:#181818;stroke-width:1.0;"/><line style="stroke:#181818;stroke-width:1.0;" x1="456.5" x2="456.5" y1="598.8164" y2="608.8164"/><line style="stroke:#181818;stroke-width:1.0;" x1="456.5" x2="904.5" y1="608.8164" y2="608.8164"/><polygon fill="#181818" points="900.5,536.416,904.5,526.416,908.5,536.416,904.5,532.416" style="stroke:#181818;stroke-width:1.0;"/><line style="stroke:#181818;stroke-width:1.0;" x1="904.5" x2="904.5" y1="447.4375" y2="608.8164"/><line style="stroke:#181818;stroke-width:1.0;" x1="904.5" x2="588.5" y1="447.4375" y2="447.4375"/><polygon fill="#181818" points="598.5,443.4375,588.5,447.4375,598.5,451.4375,594.5,447.4375" style="stroke:#181818;stroke-width:1.0;"/><line style="stroke:#181818;stroke-width:1.0;" x1="324.5" x2="296.5" y1="447.4375" y2="447.4375"/><polygon fill="#181818" points="292.5,522.416,296.5,532.416,300.5,522.416,296.5,526.416" style="stroke:#181818;stroke-width:1.0;"/><line style="stroke:#181818;stroke-width:1.0;" x1="296.5" x2="296.5" y1="447.4375" y2="620.8164"/><line style="stroke:#181818;stroke-width:1.0;" x1="296.5" x2="456.5" y1="620.8164" y2="620.8164"/><line style="stroke:#181818;stroke-width:1.0;" x1="456.5" x2="456.5" y1="620.8164" y2="640.8164"/><polygon fill="#181818" points="452.5,630.8164,456.5,640.8164,460.5,630.8164,456.5,634.8164" style="stroke:#181818;stroke-width:1.0;"/><line style="stroke:#181818;stroke-width:1.0;" x1="456.5" x2="456.5" y1="415.4375" y2="435.4375"/><polygon fill="#181818" points="452.5,425.4375,456.5,435.4375,460.5,425.4375,456.5,429.4375" style="stroke:#181818;stroke-width:1.0;"/><line style="stroke:#181818;stroke-width:1.0;" x1="523.5" x2="916.5" y1="708.5195" y2="708.5195"/><polygon fill="#181818" points="912.5,571.7676,916.5,561.7676,920.5,571.7676,916.5,567.7676" style="stroke:#181818;stroke-width:1.0;"/><line style="stroke:#181818;stroke-width:1.0;" x1="916.5" x2="916.5" y1="403.4375" y2="708.5195"/><line style="stroke:#181818;stroke-width:1.0;" x1="916.5" x2="468.5" y1="403.4375" y2="403.4375"/><polygon fill="#181818" points="478.5,399.4375,468.5,403.4375,478.5,407.4375,474.5,403.4375" style="stroke:#181818;stroke-width:1.0;"/><line style="stroke:#181818;stroke-width:1.0;" x1="456.5" x2="456.5" y1="676.5195" y2="696.5195"/><polygon fill="#181818" points="452.5,686.5195,456.5,696.5195,460.5,686.5195,456.5,690.5195" style="stroke:#181818;stroke-width:1.0;"/><line style="stroke:#181818;stroke-width:1.0;" x1="456.5" x2="456.5" y1="371.4375" y2="391.4375"/><polygon fill="#181818" points="452.5,381.4375,456.5,391.4375,460.5,381.4375,456.5,385.4375" style="stroke:#181818;stroke-width:1.0;"/><line style="stroke:#181818;stroke-width:1.0;" x1="456.5" x2="456.5" y1="274.4414" y2="335.7344"/><polygon fill="#181818" points="452.5,325.7344,456.5,335.7344,460.5,325.7344,456.5,329.7344" style="stroke:#181818;stroke-width:1.0;"/><line style="stroke:#181818;stroke-width:1.0;" x1="456.5" x2="456.5" y1="720.5195" y2="742.5195"/><line style="stroke:#181818;stroke-width:1.0;" x1="456.5" x2="948" y1="742.5195" y2="742.5195"/><polygon fill="#181818" points="944,508.0586,948,498.0586,952,508.0586,948,504.0586" style="stroke:#181818;stroke-width:1.0;"/><line style="stroke:#181818;stroke-width:1.0;" x1="948" x2="948" y1="262.4414" y2="742.5195"/><line style="stroke:#181818;stroke-width:1.0;" x1="948" x2="572" y1="262.4414" y2="262.4414"/><polygon fill="#181818" points="582,258.4414,572,262.4414,582,266.4414,578,262.4414" style="stroke:#181818;stroke-width:1.0;"/><line style="stroke:#181818;stroke-width:1.0;" x1="341" x2="52.5" y1="262.4414" y2="262.4414"/><polygon fill="#181818" points="48.5,494.0586,52.5,504.0586,56.5,494.0586,52.5,498.0586" style="stroke:#181818;stroke-width:1.0;"/><line style="stroke:#181818;stroke-width:1.0;" x1="52.5" x2="52.5" y1="262.4414" y2="754.5195"/><line style="stroke:#181818;stroke-width:1.0;" x1="52.5" x2="456.5" y1="754.5195" y2="754.5195"/><line style="stroke:#181818;stroke-width:1.0;" x1="456.5" x2="456.5" y1="754.5195" y2="774.5195"/><polygon fill="#181818" points="452.5,764.5195,456.5,774.5195,460.5,764.5195,456.5,768.5195" style="stroke:#181818;stroke-width:1.0;"/><line style="stroke:#181818;stroke-width:1.0;" x1="456.5" x2="456.5" y1="1052.1914" y2="1087.1914"/><polygon fill="#181818" points="452.5,1077.1914,456.5,1087.1914,460.5,1077.1914,456.5,1081.1914" style="stroke:#181818;stroke-width:1.0;"/><line style="stroke:#181818;stroke-width:1.0;" x1="456.5" x2="456.5" y1="983.5156" y2="1016.4883"/><polygon fill="#181818" points="452.5,1006.4883,456.5,1016.4883,460.5,1006.4883,456.5,1010.4883" style="stroke:#181818;stroke-width:1.0;"/><line style="stroke:#181818;stroke-width:1.0;" x1="456.5" x2="456.5" y1="1122.8945" y2="1132.8945"/><line style="stroke:#181818;stroke-width:1.0;" x1="456.5" x2="908" y1="1132.8945" y2="1132.8945"/><polygon fill="#181818" points="904,1060.4941,908,1050.4941,912,1060.4941,908,1056.4941" style="stroke:#181818;stroke-width:1.0;"/><line style="stroke:#181818;stroke-width:1.0;" x1="908" x2="908" y1="971.5156" y2="1132.8945"/><line style="stroke:#181818;stroke-width:1.0;" x1="908" x2="588.5" y1="971.5156" y2="971.5156"/><polygon fill="#181818" points="598.5,967.5156,588.5,971.5156,598.5,975.5156,594.5,971.5156" style="stroke:#181818;stroke-width:1.0;"/><line style="stroke:#181818;stroke-width:1.0;" x1="324.5" x2="293" y1="971.5156" y2="971.5156"/><polygon fill="#181818" points="289,1046.4941,293,1056.4941,297,1046.4941,293,1050.4941" style="stroke:#181818;stroke-width:1.0;"/><line style="stroke:#181818;stroke-width:1.0;" x1="293" x2="293" y1="971.5156" y2="1144.8945"/><line style="stroke:#181818;stroke-width:1.0;" x1="293" x2="456.5" y1="1144.8945" y2="1144.8945"/><line style="stroke:#181818;stroke-width:1.0;" x1="456.5" x2="456.5" y1="1144.8945" y2="1164.8945"/><polygon fill="#181818" points="452.5,1154.8945,456.5,1164.8945,460.5,1154.8945,456.5,1158.8945" style="stroke:#181818;stroke-width:1.0;"/><line style="stroke:#181818;stroke-width:1.0;" x1="456.5" x2="456.5" y1="939.5156" y2="959.5156"/><polygon fill="#181818" points="452.5,949.5156,456.5,959.5156,460.5,949.5156,456.5,953.5156" style="stroke:#181818;stroke-width:1.0;"/><line style="stroke:#181818;stroke-width:1.0;" x1="523.5" x2="920" y1="1232.5977" y2="1232.5977"/><polygon fill="#181818" points="916,1095.8457,920,1085.8457,924,1095.8457,920,1091.8457" style="stroke:#181818;stroke-width:1.0;"/><line style="stroke:#181818;stroke-width:1.0;" x1="920" x2="920" y1="927.5156" y2="1232.5977"/><line style="stroke:#181818;stroke-width:1.0;" x1="920" x2="468.5" y1="927.5156" y2="927.5156"/><polygon fill="#181818" points="478.5,923.5156,468.5,927.5156,478.5,931.5156,474.5,927.5156" style="stroke:#181818;stroke-width:1.0;"/><line style="stroke:#181818;stroke-width:1.0;" x1="456.5" x2="456.5" y1="1200.5977" y2="1220.5977"/><polygon fill="#181818" points="452.5,1210.5977,456.5,1220.5977,460.5,1210.5977,456.5,1214.5977" style="stroke:#181818;stroke-width:1.0;"/><line style="stroke:#181818;stroke-width:1.0;" x1="456.5" x2="456.5" y1="895.5156" y2="915.5156"/><polygon fill="#181818" points="452.5,905.5156,456.5,915.5156,460.5,905.5156,456.5,909.5156" style="stroke:#181818;stroke-width:1.0;"/><line style="stroke:#181818;stroke-width:1.0;" x1="456.5" x2="456.5" y1="798.5195" y2="859.8125"/><polygon fill="#181818" points="452.5,849.8125,456.5,859.8125,460.5,849.8125,456.5,853.8125" style="stroke:#181818;stroke-width:1.0;"/><line style="stroke:#181818;stroke-width:1.0;" x1="456.5" x2="456.5" y1="1244.5977" y2="1266.5977"/><line style="stroke:#181818;stroke-width:1.0;" x1="456.5" x2="951.5" y1="1266.5977" y2="1266.5977"/><polygon fill="#181818" points="947.5,1032.1367,951.5,1022.1367,955.5,1032.1367,951.5,1028.1367" style="stroke:#181818;stroke-width:1.0;"/><line style="stroke:#181818;stroke-width:1.0;" x1="951.5" x2="951.5" y1="786.5195" y2="1266.5977"/><line style="stroke:#181818;stroke-width:1.0;" x1="951.5" x2="572" y1="786.5195" y2="786.5195"/><polygon fill="#181818" points="582,782.5195,572,786.5195,582,790.5195,578,786.5195" style="stroke:#181818;stroke-width:1.0;"/><line style="stroke:#181818;stroke-width:1.0;" x1="341" x2="49" y1="786.5195" y2="786.5195"/><polygon fill="#181818" points="45,1018.1367,49,1028.1367,53,1018.1367,49,1022.1367" style="stroke:#181818;stroke-width:1.0;"/><line style="stroke:#181818;stroke-width:1.0;" x1="49" x2="49" y1="786.5195" y2="1278.5977"/><line style="stroke:#181818;stroke-width:1.0;" x1="49" x2="963.5" y1="1278.5977" y2="1278.5977"/><line style="stroke:#181818;stroke-width:1.0;" x1="963.5" x2="963.5" y1="200.0469" y2="1278.5977"/><line style="stroke:#181818;stroke-width:1.0;" x1="963.5" x2="525" y1="200.0469" y2="200.0469"/><polygon fill="#181818" points="535,196.0469,525,200.0469,535,204.0469,531,200.0469" style="stroke:#181818;stroke-width:1.0;"/><line style="stroke:#181818;stroke-width:1.0;" x1="456.5" x2="456.5" y1="212.0469" y2="250.4414"/><polygon fill="#181818" points="452.5,240.4414,456.5,250.4414,460.5,240.4414,456.5,244.4414" style="stroke:#181818;stroke-width:1.0;"/><line style="stroke:#181818;stroke-width:1.0;" x1="388" x2="24" y1="200.0469" y2="200.0469"/><line style="stroke:#181818;stroke-width:1.0;" x1="24" x2="24" y1="200.0469" y2="236.0469"/><polygon fill="#181818" points="20,226.0469,24,236.0469,28,226.0469,24,230.0469" style="stroke:#181818;stroke-width:1.0;"/><line style="stroke:#181818;stroke-width:1.0;" x1="456.5" x2="456.5" y1="121.875" y2="188.0469"/><polygon fill="#181818" points="452.5,178.0469,456.5,188.0469,460.5,178.0469,456.5,182.0469" style="stroke:#181818;stroke-width:1.0;"/><!--SRC=[tLHTRn9157tVNp5lb8UcKhKgf3z1tutXWQIRGg90O8qlVTYPKUIh1gmjqYO5j9OMQZ4IKrIm3_wKwq1vuYyu7ylNjb1ieccSR3QpSEVSC-VUUnpBKvVc03DptnS8eYUwuG-jW9djDUD0tW6f0Ja1MWPQP_5OjxGBz3lG7D0Z87j0-TDirrwnb_kTJApNJ6YEInAjZMHPqwA6Bs9exaTByoulEgkyxUI_0Su1BjXI0tbjPUV_qWnG2dGJI0bmzUoqnP95ZnOC6JgA15RzXeRu0ZFDrkljF5decjkiqK0_SmXeIPAkBqZiFG73D-OwuBA2r_JW2X98ThXftF0naBhOq3ZGZrmGe8VYZMlgw9SJjbC4V02u0lZz182AF9VaRqKVLqKuIGB-0JWF9XbIqvxv0uzrDCTLM_IYSJbgdKFECjLh5fme44Lp3q9En04TYErjTUa1qAhCa-irjsqw_chnJOAVbNHi1DFjuvJalW_uEP1KDv_Xt5JL1JsIqaIM-TcN2ESzfseasTXxYdEo4fZPFmSVQdJJhb4Lo5UWRwGGYMN5W2i7cF1xZ8htK8ywDLcErKZeQHYfK3UQmbL6ooeXQtMBiSvcHU2JKvcoRZik92U9GVmm3AVPpguGknWJVLvA0rRumqvGHzpJeRjRALPEUVhH4Jsi-un1lg5Gj_W87dvchOrpA1ShbfwW61eiCTYtlV9A0gmW9_dJyc0EUQjPOEV7NShf6G6pJMH_iVW7KLWvUDoph46rELVVdbYMtuP_YaaUGHa8EavzwGBgeyPnNTdp7wogyl7NHczqnulQHoKnuVOIDpnZxT5l2_RYW6sKW68WvVwjfGUEUyoWBUMWQ7OAL_C6PTn_rHlkJlS6nM0cRr2X_wqtt9lH6_gApUODhXlJpS52kvRcu79TwWxNa_vaTt0j_djxK7Da-uuQeV1l]--></g></svg>