<?xml version="1.0" encoding="UTF-8" standalone="no"?><svg xmlns="http://www.w3.org/2000/svg" xmlns:xlink="http://www.w3.org/1999/xlink" contentStyleType="text/css" height="397px" preserveAspectRatio="none" style="width:449px;height:397px;background:#FFFFFF;" version="1.1" viewBox="0 0 449 397" width="449px" zoomAndPan="magnify"><defs/><g><!--class core--><g id="elem_core"><rect codeLine="6" fill="#F1F1F1" height="28.3203" id="core" rx="2.5" ry="2.5" style="stroke:#181818;stroke-width:0.5;" width="76" x="9" y="7"/><text fill="#000000" font-family="sans-serif" font-size="14" font-style="italic" lengthAdjust="spacing" textLength="70" x="12" y="26.6016">コアルール</text></g><!--class common--><g id="elem_common"><rect codeLine="8" fill="#F1F1F1" height="28.3203" id="common" rx="2.5" ry="2.5" style="stroke:#181818;stroke-width:0.5;" width="76" x="9" y="149"/><text fill="#000000" font-family="sans-serif" font-size="14" font-style="italic" lengthAdjust="spacing" textLength="70" x="12" y="168.6016">共通ルール</text></g><!--class match_reg--><g id="elem_match_reg"><rect codeLine="10" fill="#F1F1F1" height="28.3203" id="match_reg" rx="2.5" ry="2.5" style="stroke:#181818;stroke-width:0.5;" width="146" x="120" y="149"/><text fill="#000000" font-family="sans-serif" font-size="14" lengthAdjust="spacing" textLength="140" x="123" y="168.6016">対戦レギュレーション</text></g><!--class format--><g id="elem_format"><rect codeLine="12" fill="#F1F1F1" height="28.3203" id="format" rx="2.5" ry="2.5" style="stroke:#181818;stroke-width:0.5;" width="90" x="7" y="256"/><text fill="#000000" font-family="sans-serif" font-size="14" lengthAdjust="spacing" textLength="84" x="10" y="275.6016">フォーマット</text></g><!--class frame--><g id="elem_frame"><rect codeLine="14" fill="#F1F1F1" height="28.3203" id="frame" rx="2.5" ry="2.5" style="stroke:#181818;stroke-width:0.5;" width="62" x="160" y="256"/><text fill="#000000" font-family="sans-serif" font-size="14" lengthAdjust="spacing" textLength="56" x="163" y="275.6016">フレーム</text></g><!--class options--><g id="elem_options"><rect codeLine="16" fill="#F1F1F1" height="28.3203" id="options" rx="2.5" ry="2.5" style="stroke:#181818;stroke-width:0.5;" width="76" x="153" y="363"/><text fill="#000000" font-family="sans-serif" font-size="14" lengthAdjust="spacing" textLength="70" x="156" y="382.6016">オプション</text></g><!--class player--><g id="elem_player"><rect codeLine="18" fill="#F1F1F1" height="28.3203" id="player" rx="2.5" ry="2.5" style="stroke:#181818;stroke-width:0.5;" width="76" x="155" y="7"/><text fill="#000000" font-family="sans-serif" font-size="14" lengthAdjust="spacing" textLength="70" x="158" y="26.6016">プレイヤー</text></g><!--reverse link core to common--><g id="link_core_common"><path codeLine="20" d="M47,55.46 C47,85.33 47,127.56 47,148.76 " fill="none" id="core-backto-common" style="stroke:#181818;stroke-width:1.0;"/><polygon fill="none" points="40,55.17,47,35.17,54,55.17,40,55.17" style="stroke:#181818;stroke-width:1.0;"/><text fill="#000000" font-family="sans-serif" font-size="13" lengthAdjust="spacing" textLength="26" x="48" y="97.0586">継承</text></g><!--reverse link common to format--><g id="link_common_format"><path codeLine="22" d="M48.59,197.48 C49.54,217.29 50.68,241.26 51.37,255.81 " fill="none" id="common-backto-format" style="stroke:#181818;stroke-width:1.0;"/><polygon fill="none" points="41.59,197.61,47.63,177.3,55.58,196.94,41.59,197.61" style="stroke:#181818;stroke-width:1.0;"/><text fill="#000000" font-family="sans-serif" font-size="13" lengthAdjust="spacing" textLength="26" x="51" y="221.5586">継承</text></g><!--reverse link match_reg to format--><g id="link_match_reg_format"><path codeLine="24" d="M165,184.85 C136.68,205.94 93.76,237.9 69.79,255.75 " fill="none" id="match_reg-backto-format" style="stroke:#181818;stroke-width:1.0;"/><polygon fill="none" points="175.43,177.09,168.2288,177.4679,165.8079,184.2604,173.0091,183.8826,175.43,177.09" style="stroke:#181818;stroke-width:1.0;"/><text fill="#000000" font-family="sans-serif" font-size="13" lengthAdjust="spacing" textLength="26" x="136" y="221.5586">内包</text></g><!--reverse link match_reg to frame--><g id="link_match_reg_frame"><path codeLine="25" d="M192.5,190.32 C192.1,211.18 191.56,239.45 191.25,255.81 " fill="none" id="match_reg-backto-frame" style="stroke:#181818;stroke-width:1.0;"/><polygon fill="none" points="192.75,177.3,188.6386,183.2242,192.5259,189.2979,196.6372,183.3737,192.75,177.3" style="stroke:#181818;stroke-width:1.0;"/><text fill="#000000" font-family="sans-serif" font-size="13" lengthAdjust="spacing" textLength="26" x="193" y="221.5586">内包</text></g><!--reverse link match_reg to options--><g id="link_match_reg_options"><path codeLine="26" d="M215.02,187.25 C219.87,193.32 224.57,200.11 228,207 C243.43,238.01 244.48,249.66 240,284 C237.09,306.34 237.37,313 227,333 C221.27,344.06 212.27,354.81 204.7,362.8 " fill="none" id="match_reg-backto-options" style="stroke:#181818;stroke-width:1.0;"/><polygon fill="none" points="206.38,177.23,207.2631,184.3868,214.209,186.3243,213.3259,179.1675,206.38,177.23" style="stroke:#181818;stroke-width:1.0;"/><text fill="#000000" font-family="sans-serif" font-size="13" lengthAdjust="spacing" textLength="26" x="243" y="275.0586">内包</text></g><!--link player to match_reg--><g id="link_player_match_reg"><path codeLine="28" d="M193,35.17 C193,60.29 193,115.09 193,143.73 " fill="none" id="player-to-match_reg" style="stroke:#181818;stroke-width:1.0;stroke-dasharray:7.0,7.0;"/><polygon fill="#181818" points="193,148.76,197,139.76,193,143.76,189,139.76,193,148.76" style="stroke:#181818;stroke-width:1.0;"/><text fill="#000000" font-family="sans-serif" font-size="13" lengthAdjust="spacing" textLength="26" x="194" y="97.0645">選択</text><path d="M226,70 L226,114 L442,114 L442,80 L432,70 L226,70 " fill="#FFFFFF" style="stroke:#181818;stroke-width:0.5;"/><path d="M432,70 L432,80 L442,80 L432,70 " fill="#FFFFFF" style="stroke:#181818;stroke-width:0.5;"/><text fill="#000000" font-family="sans-serif" font-size="13" lengthAdjust="spacing" textLength="156" x="232" y="88.5586">プレイヤーは対戦する前に</text><text fill="#000000" font-family="sans-serif" font-size="13" lengthAdjust="spacing" textLength="195" x="232" y="105.5703">対戦レギュレーションを選択する</text></g><!--reverse link format to options--><g id="link_format_options"><path codeLine="35" d="M73.56,287.29 C101.05,308.05 148.05,343.56 173.46,362.75 " fill="none" id="format-backto-options" style="stroke:#181818;stroke-width:1.0;stroke-dasharray:7.0,7.0;"/><polygon fill="#181818" points="69.32,284.09,74.1004,292.7009,73.3131,287.0991,78.915,286.3119,69.32,284.09" style="stroke:#181818;stroke-width:1.0;"/><text fill="#000000" font-family="sans-serif" font-size="13" lengthAdjust="spacing" textLength="26" x="134" y="328.5586">依存</text></g><!--reverse link format to frame--><g id="link_format_frame"><path codeLine="36" d="M102.47,270 C121.61,270 142.84,270 159.72,270 " fill="none" id="format-backto-frame" style="stroke:#181818;stroke-width:1.0;stroke-dasharray:7.0,7.0;"/><polygon fill="#181818" points="97.13,270,106.13,274,102.13,270,106.13,266,97.13,270" style="stroke:#181818;stroke-width:1.0;"/><text fill="#000000" font-family="sans-serif" font-size="13" lengthAdjust="spacing" textLength="26" x="115.5" y="262.5586">依存</text></g><!--reverse link frame to options--><g id="link_frame_options"><path codeLine="37" d="M191,289.34 C191,310.35 191,344.25 191,362.81 " fill="none" id="frame-backto-options" style="stroke:#181818;stroke-width:1.0;stroke-dasharray:7.0,7.0;"/><polygon fill="#181818" points="191,284.3,187,293.3,191,289.3,195,293.3,191,284.3" style="stroke:#181818;stroke-width:1.0;"/><text fill="#000000" font-family="sans-serif" font-size="13" lengthAdjust="spacing" textLength="26" x="192" y="328.5586">依存</text></g><!--SRC=[VP9TQzH058RlvrSSwarxiM6tMwI68gBLGjp5HTlUoZIPJKQJcMKoMIbuuMPOQVsu4QHMi8ZuWLOjKb0lIlqnuwxqNpX9zglh1uGmCyzxtlEUJ0Bg4OY83BWNeo3Rk5Iu8IdMJKf23o6y4Kk1NGbkYECOPdHwgDDNMkrhTMJUCu1ZSBaWVofxtIydzvvFAwE8CuI6aeFZ_jPRhJxgzBDMRxA5qQRVj7gdrM5U4M7f1ZS5yKT5MZtLwVlST4yhfTLMBcnoORIdL8MTUbbmWIConka7hNPEj-8jIJcB9onsycYljJBFKQvfXNYJ22Cn8yFItL9fC1BOyElhRd_xHuRoWnmMeIRWQ1pWaxXtlzjxr9scMU9_mK7OCKP5DB2iy-EFPl19vtl_mHv2Z4i2Wlg119CkfEmsdBaJK4dGr9owSp2ubywkJX_sjX_hpZxw_rNfz4dHfwX1X7cGDKHeCEAIPKr4_ddyelVfsPYDHXs2VFlNcWl66g56Y9bSgzUWJKHi152nvilpLQiyMpSR1pCeduFAebsjsDK5MAclGeRdqEnAemOnJuHBmAFcVwKRITPW3ZcuZU5wmYIDY0tNMeGvorU71t2PjQdWB29C8cUzFXQSNIXTf19k466Im7eTBPCcJa9fAbpkKURRiBPwfRI8QfZv2VQDzosCBd7ZApPjS1g_0G00]--></g></svg>