<?xml version="1.0" encoding="us-ascii" standalone="no"?><svg xmlns="http://www.w3.org/2000/svg" xmlns:xlink="http://www.w3.org/1999/xlink" contentStyleType="text/css" height="616px" preserveAspectRatio="none" style="width:315px;height:616px;background:#FFFFFF;" version="1.1" viewBox="0 0 315 616" width="315px" zoomAndPan="magnify"><defs/><g><text fill="#000000" font-family="sans-serif" font-size="14" font-weight="bold" lengthAdjust="spacing" textLength="98" x="107" y="34.6016">&#12503;&#12522;&#12475;&#12483;&#12488;&#37197;&#32622;</text><ellipse cx="162" cy="59.3203" fill="#222222" rx="10" ry="10" style="stroke:#222222;stroke-width:1.0;"/><rect fill="#F1F1F1" height="51.4063" rx="12.5" ry="12.5" style="stroke:#181818;stroke-width:0.5;" width="236" x="44" y="89.3203"/><text fill="#000000" font-family="sans-serif" font-size="12" lengthAdjust="spacing" textLength="216" x="54" y="111.8359">&#12521;&#12452;&#12501;&#12398;&#19968;&#30058;&#19978;&#12398;&#12459;&#12540;&#12489;&#12434;&#34920;&#21521;&#12365;&#12395;&#12375;&#12390;</text><text fill="#000000" font-family="sans-serif" font-size="12" lengthAdjust="spacing" textLength="132" x="54" y="127.5391">&#12300;&#38450;&#22721;&#12301;&#12392;&#12375;&#12390;&#22580;&#12395;&#20986;&#12377;</text><rect fill="#F1F1F1" height="51.4063" rx="12.5" ry="12.5" style="stroke:#181818;stroke-width:0.5;" width="212" x="56" y="160.7266"/><text fill="#000000" font-family="sans-serif" font-size="12" lengthAdjust="spacing" textLength="192" x="66" y="183.2422">&#12521;&#12452;&#12501;&#12398;&#27425;&#12398;&#12459;&#12540;&#12489;&#12434;&#34920;&#21521;&#12365;&#12395;&#12375;&#12390;</text><text fill="#000000" font-family="sans-serif" font-size="12" lengthAdjust="spacing" textLength="132" x="66" y="198.9453">&#12300;&#20853;&#22763;&#12301;&#12392;&#12375;&#12390;&#22580;&#12395;&#20986;&#12377;</text><rect fill="#F1F1F1" height="35.7031" rx="12.5" ry="12.5" style="stroke:#181818;stroke-width:0.5;" width="230" x="47" y="299.3164"/><text fill="#000000" font-family="sans-serif" font-size="12" lengthAdjust="spacing" textLength="72" x="57" y="321.832">&#12381;&#12398;&#12459;&#12540;&#12489;&#12434;</text><text fill="#000000" font-family="sans-serif" font-size="12" font-weight="bold" lengthAdjust="spacing" textLength="96" x="132" y="321.832">&#34920;&#21521;&#12365;&#12398;&#12414;&#12414;&#22675;&#22320;</text><text fill="#000000" font-family="sans-serif" font-size="12" lengthAdjust="spacing" textLength="36" x="231" y="321.832">&#12395;&#32622;&#12367;</text><rect fill="#F1F1F1" height="35.7031" rx="12.5" ry="12.5" style="stroke:#181818;stroke-width:0.5;" width="170" x="77" y="404.2168"/><text fill="#000000" font-family="sans-serif" font-size="12" lengthAdjust="spacing" textLength="96" x="87" y="426.7324">&#12381;&#12398;&#12503;&#12524;&#12452;&#12516;&#12540;&#12399;</text><text fill="#000000" font-family="sans-serif" font-size="12" font-weight="bold" lengthAdjust="spacing" textLength="24" x="186" y="426.7324">&#25943;&#21271;</text><text fill="#000000" font-family="sans-serif" font-size="12" lengthAdjust="spacing" textLength="24" x="213" y="426.7324">&#12377;&#12427;</text><ellipse cx="162" cy="478.5684" fill="none" rx="11" ry="11" style="stroke:#222222;stroke-width:1.0;"/><ellipse cx="162" cy="478.5684" fill="#222222" rx="6" ry="6" style="stroke:#222222;stroke-width:1.0;"/><polygon fill="#F1F1F1" points="101.5,355.0195,222.5,355.0195,234.5,367.0195,222.5,379.0195,101.5,379.0195,89.5,367.0195,101.5,355.0195" style="stroke:#181818;stroke-width:0.5;"/><text fill="#000000" font-family="sans-serif" font-size="11" lengthAdjust="spacing" textLength="17" x="166" y="390.4922">Yes</text><text fill="#000000" font-family="sans-serif" font-size="11" lengthAdjust="spacing" textLength="121" x="101.5" y="371.2949">&#12521;&#12452;&#12501;&#12364;&#12394;&#12367;&#12394;&#12387;&#12383;&#12363;&#65311;</text><text fill="#000000" font-family="sans-serif" font-size="11" lengthAdjust="spacing" textLength="14" x="234.5" y="364.0977">No</text><rect fill="#F1F1F1" height="51.4063" rx="12.5" ry="12.5" style="stroke:#181818;stroke-width:0.5;" width="219" x="52.5" y="531.5684"/><text fill="#000000" font-family="sans-serif" font-size="12" lengthAdjust="spacing" textLength="199" x="62.5" y="554.084">&#12521;&#12452;&#12501;&#12398;&#19968;&#30058;&#19978;&#12363;&#12425;&#12459;&#12540;&#12489;&#12434;1&#26522;&#21462;&#12426;</text><text fill="#000000" font-family="sans-serif" font-size="12" lengthAdjust="spacing" textLength="72" x="62.5" y="569.7871">&#34920;&#21521;&#12365;&#12395;&#12375;&#12390;</text><text fill="#000000" font-family="sans-serif" font-size="12" font-weight="bold" lengthAdjust="spacing" textLength="108" x="137.5" y="569.7871">&#20853;&#22763;&#12392;&#12375;&#12390;&#22580;&#12395;&#20986;&#12377;</text><text fill="#000000" font-family="sans-serif" font-size="12" lengthAdjust="spacing" textLength="3" x="245.5" y="569.7871">&#160;</text><polygon fill="#F1F1F1" points="90.5,232.1328,233.5,232.1328,245.5,246.5273,233.5,260.9219,90.5,260.9219,78.5,246.5273,90.5,232.1328" style="stroke:#181818;stroke-width:0.5;"/><text fill="#000000" font-family="sans-serif" font-size="11" lengthAdjust="spacing" textLength="17" x="166" y="272.3945">Yes</text><text fill="#000000" font-family="sans-serif" font-size="11" lengthAdjust="spacing" textLength="143" x="90.5" y="243.6055">&#20853;&#22763;&#12392;&#12375;&#12390;&#23450;&#32681;&#12373;&#12428;&#12390;&#12356;&#12394;&#12356;</text><text fill="#000000" font-family="sans-serif" font-size="11" lengthAdjust="spacing" textLength="88" x="90.5" y="258">&#12461;&#12515;&#12521;&#12463;&#12479;&#12540;&#12363;&#65311;</text><text fill="#000000" font-family="sans-serif" font-size="11" lengthAdjust="spacing" textLength="14" x="64.5" y="243.6055">No</text><ellipse cx="24" cy="291.1328" fill="none" rx="11" ry="11" style="stroke:#222222;stroke-width:1.0;"/><ellipse cx="24" cy="291.1328" fill="#222222" rx="6" ry="6" style="stroke:#222222;stroke-width:1.0;"/><line style="stroke:#181818;stroke-width:1.0;" x1="162" x2="162" y1="69.3203" y2="89.3203"/><polygon fill="#181818" points="158,79.3203,162,89.3203,166,79.3203,162,83.3203" style="stroke:#181818;stroke-width:1.0;"/><line style="stroke:#181818;stroke-width:1.0;" x1="162" x2="162" y1="140.7266" y2="160.7266"/><polygon fill="#181818" points="158,150.7266,162,160.7266,166,150.7266,162,154.7266" style="stroke:#181818;stroke-width:1.0;"/><line style="stroke:#181818;stroke-width:1.0;" x1="162" x2="162" y1="439.9199" y2="467.5684"/><polygon fill="#181818" points="158,457.5684,162,467.5684,166,457.5684,162,461.5684" style="stroke:#181818;stroke-width:1.0;"/><line style="stroke:#181818;stroke-width:1.0;" x1="162" x2="162" y1="379.0195" y2="404.2168"/><polygon fill="#181818" points="158,394.2168,162,404.2168,166,394.2168,162,398.2168" style="stroke:#181818;stroke-width:1.0;"/><line style="stroke:#181818;stroke-width:1.0;" x1="234.5" x2="257" y1="367.0195" y2="367.0195"/><polygon fill="#181818" points="253,437.5684,257,447.5684,261,437.5684,257,441.5684" style="stroke:#181818;stroke-width:1.0;"/><line style="stroke:#181818;stroke-width:1.0;" x1="257" x2="257" y1="367.0195" y2="511.5684"/><line style="stroke:#181818;stroke-width:1.0;" x1="257" x2="162" y1="511.5684" y2="511.5684"/><line style="stroke:#181818;stroke-width:1.0;" x1="162" x2="162" y1="511.5684" y2="531.5684"/><polygon fill="#181818" points="158,521.5684,162,531.5684,166,521.5684,162,525.5684" style="stroke:#181818;stroke-width:1.0;"/><line style="stroke:#181818;stroke-width:1.0;" x1="162" x2="162" y1="335.0195" y2="355.0195"/><polygon fill="#181818" points="158,345.0195,162,355.0195,166,345.0195,162,349.0195" style="stroke:#181818;stroke-width:1.0;"/><line style="stroke:#181818;stroke-width:1.0;" x1="162" x2="162" y1="260.9219" y2="299.3164"/><polygon fill="#181818" points="158,289.3164,162,299.3164,166,289.3164,162,293.3164" style="stroke:#181818;stroke-width:1.0;"/><line style="stroke:#181818;stroke-width:1.0;" x1="162" x2="162" y1="582.9746" y2="592.9746"/><line style="stroke:#181818;stroke-width:1.0;" x1="162" x2="289" y1="592.9746" y2="592.9746"/><polygon fill="#181818" points="285,439.0254,289,429.0254,293,439.0254,289,435.0254" style="stroke:#181818;stroke-width:1.0;"/><line style="stroke:#181818;stroke-width:1.0;" x1="289" x2="289" y1="246.5273" y2="592.9746"/><line style="stroke:#181818;stroke-width:1.0;" x1="289" x2="245.5" y1="246.5273" y2="246.5273"/><polygon fill="#181818" points="255.5,242.5273,245.5,246.5273,255.5,250.5273,251.5,246.5273" style="stroke:#181818;stroke-width:1.0;"/><line style="stroke:#181818;stroke-width:1.0;" x1="78.5" x2="24" y1="246.5273" y2="246.5273"/><line style="stroke:#181818;stroke-width:1.0;" x1="24" x2="24" y1="246.5273" y2="280.1328"/><polygon fill="#181818" points="20,270.1328,24,280.1328,28,270.1328,24,274.1328" style="stroke:#181818;stroke-width:1.0;"/><line style="stroke:#181818;stroke-width:1.0;" x1="162" x2="162" y1="212.1328" y2="232.1328"/><polygon fill="#181818" points="158,222.1328,162,232.1328,166,222.1328,162,226.1328" style="stroke:#181818;stroke-width:1.0;"/><!--SRC=[ZP7VIW915CRlvodsKlUkM_STkW-w2LfnGJJQXMwTcQJK5Vk3RKfbjXB-Quqea39xcC_HlEeL6aUJpI8QXc5cEETyltC-ntAIfWRkWRV1Ni0v-E4qMvoy1eJOpjQkGsBWBR06U1aq6FKpat9xrC_BErW7V02U0pjvhpV5qJ5e4RG3we7U4cJSwVc3y2aoyhSv_nNNZp9273o3LWpolVQuM_zNLP5z4dxdZwfx2Kis5Ld4BOE2wcJO0Ys3kV89kW_QbkTc2kmEt5SeFR2tcJmjV0ngKSsojSY6QKU99bSCz785KDFr46C0EfHRt9oAYtjTroIJd2DeoL3vLboBXFfrbNn9dJvexKlJIPYfa6fOUMPJL-Kt56HFwe_Bdd0zfLO1AnZB9Dj9xwY7cRJbDDRJytfcQjkAB_hvtTW2M2xSvDhugYfAPs1vbVRJ54cnEkkG8HBD859ruSgCWoYsJm00]--></g></svg>