<?xml version="1.0" encoding="UTF-8" standalone="no"?><svg xmlns="http://www.w3.org/2000/svg" xmlns:xlink="http://www.w3.org/1999/xlink" contentStyleType="text/css" height="310px" preserveAspectRatio="none" style="width:565px;height:310px;background:#FFFFFF;" version="1.1" viewBox="0 0 565 310" width="565px" zoomAndPan="magnify"><defs/><g><!--cluster format--><g id="cluster_format"><rect fill="none" height="91" rx="2.5" ry="2.5" style="stroke:#181818;stroke-width:1.0;" width="552" x="7" y="110"/><path d="M101,110 L101,121.3203 L91,131.3203 L7,131.3203 " fill="none" style="stroke:#181818;stroke-width:1.0;"/><text fill="#000000" font-family="sans-serif" font-size="14" font-weight="bold" lengthAdjust="spacing" textLength="84" x="10" y="125.6016">フォーマット</text></g><!--entity extra--><g id="elem_extra"><rect fill="#F1F1F1" height="38.3203" rx="2.5" ry="2.5" style="stroke:#181818;stroke-width:0.5;" width="90" x="23" y="147"/><text fill="#000000" font-family="sans-serif" font-size="14" lengthAdjust="spacing" textLength="70" x="33" y="171.6016">エクストラ</text></g><!--entity master--><g id="elem_master"><rect fill="#F1F1F1" height="38.3203" rx="2.5" ry="2.5" style="stroke:#181818;stroke-width:0.5;" width="76" x="148" y="147"/><text fill="#000000" font-family="sans-serif" font-size="14" lengthAdjust="spacing" textLength="56" x="158" y="171.6016">マスター</text></g><!--entity pro--><g id="elem_pro"><rect fill="#F1F1F1" height="38.3203" rx="2.5" ry="2.5" style="stroke:#181818;stroke-width:0.5;" width="48" x="259" y="147"/><text fill="#000000" font-family="sans-serif" font-size="14" lengthAdjust="spacing" textLength="28" x="269" y="171.6016">プロ</text></g><!--entity std--><g id="elem_std"><rect fill="#F1F1F1" height="38.3203" rx="2.5" ry="2.5" style="stroke:#181818;stroke-width:0.5;" width="104" x="342" y="147"/><text fill="#000000" font-family="sans-serif" font-size="14" lengthAdjust="spacing" textLength="84" x="352" y="171.6016">スタンダード</text></g><!--entity light--><g id="elem_light"><rect fill="#F1F1F1" height="38.3203" rx="2.5" ry="2.5" style="stroke:#181818;stroke-width:0.5;" width="62" x="481" y="147"/><text fill="#000000" font-family="sans-serif" font-size="14" lengthAdjust="spacing" textLength="42" x="491" y="171.6016">ライト</text></g><!--entity common--><g id="elem_common"><rect fill="#F1F1F1" height="38.3203" rx="2.5" ry="2.5" style="stroke:#181818;stroke-width:0.5;" width="90" x="238" y="266"/><text fill="#000000" font-family="sans-serif" font-size="14" lengthAdjust="spacing" textLength="70" x="248" y="290.6016">共通ルール</text></g><!--entity regulation--><g id="elem_regulation"><rect fill="#F1F1F1" height="38.3203" rx="2.5" ry="2.5" style="stroke:#181818;stroke-width:0.5;" width="160" x="203" y="7"/><text fill="#000000" font-family="sans-serif" font-size="14" lengthAdjust="spacing" textLength="140" x="213" y="31.6016">対戦レギュレーション</text></g><!--link regulation to extra--><g id="link_regulation_extra"><path d="M236.21,45.04 C204.69,58.34 163,78.21 130,102 C113.75,113.71 97.96,129.85 86.38,142.87 " fill="none" id="regulation-to-extra" style="stroke:#181818;stroke-width:1.0;"/><polygon fill="#181818" points="82.92,146.8,91.8734,142.6968,86.2276,143.0504,85.8741,137.4046,82.92,146.8" style="stroke:#181818;stroke-width:1.0;"/><text fill="#000000" font-family="sans-serif" font-size="13" lengthAdjust="spacing" textLength="26" x="171" y="89.5586">参照</text></g><!--link regulation to master--><g id="link_regulation_master"><path d="M269.12,45.08 C262.34,54.01 254.14,64.99 247,75 C230.83,97.67 213.05,124.09 200.87,142.42 " fill="none" id="regulation-to-master" style="stroke:#181818;stroke-width:1.0;"/><polygon fill="#181818" points="197.9,146.9,206.2205,141.6303,200.6735,142.7397,199.5641,137.1927,197.9,146.9" style="stroke:#181818;stroke-width:1.0;"/><text fill="#000000" font-family="sans-serif" font-size="13" lengthAdjust="spacing" textLength="26" x="248" y="89.5586">参照</text></g><!--link regulation to std--><g id="link_regulation_std"><path d="M297.51,45.04 C317.7,70.15 354.25,115.58 376.11,142.76 " fill="none" id="regulation-to-std" style="stroke:#181818;stroke-width:1.0;"/><polygon fill="#181818" points="379.49,146.95,376.9402,137.4369,376.3457,143.0624,370.7201,142.4679,379.49,146.95" style="stroke:#181818;stroke-width:1.0;"/><text fill="#000000" font-family="sans-serif" font-size="13" lengthAdjust="spacing" textLength="26" x="337" y="89.5586">参照</text></g><!--link regulation to pro--><g id="link_regulation_pro"><path d="M283,45.04 C283,69.84 283,114.47 283,141.74 " fill="none" id="regulation-to-pro" style="stroke:#181818;stroke-width:1.0;"/><polygon fill="#181818" points="283,146.95,287,137.95,283,141.95,279,137.95,283,146.95" style="stroke:#181818;stroke-width:1.0;"/><text fill="#000000" font-family="sans-serif" font-size="13" lengthAdjust="spacing" textLength="26" x="284" y="89.5586">参照</text></g><!--link regulation to light--><g id="link_regulation_light"><path d="M348.92,45 C385.31,57.12 429.91,75.75 464,102 C478.29,113.01 490.54,129.27 499.08,142.52 " fill="none" id="regulation-to-light" style="stroke:#181818;stroke-width:1.0;"/><polygon fill="#181818" points="501.84,146.89,500.4148,137.1448,499.1695,142.6629,493.6514,141.4176,501.84,146.89" style="stroke:#181818;stroke-width:1.0;"/><text fill="#000000" font-family="sans-serif" font-size="13" lengthAdjust="spacing" textLength="26" x="452" y="89.5586">参照</text></g><!--link extra to common--><g id="link_extra_common"><path d="M93.15,185.14 C104.23,192.85 117.55,201.71 130,209 C165.02,229.5 206.43,249.56 237.34,263.77 " fill="none" id="extra-to-common" style="stroke:#181818;stroke-width:1.0;"/><polygon fill="#181818" points="242.21,266,235.6998,258.6096,237.666,263.9138,232.3619,265.88,242.21,266" style="stroke:#181818;stroke-width:1.0;"/><text fill="#000000" font-family="sans-serif" font-size="13" lengthAdjust="spacing" textLength="26" x="181" y="231.5586">参照</text></g><!--link master to common--><g id="link_master_common"><path d="M197.35,185.26 C206.57,199.57 220.25,219.73 234,236 C241.53,244.91 250.47,254.03 258.65,261.89 " fill="none" id="master-to-common" style="stroke:#181818;stroke-width:1.0;"/><polygon fill="#181818" points="262.59,265.65,258.8144,256.5536,258.9629,262.2085,253.308,262.357,262.59,265.65" style="stroke:#181818;stroke-width:1.0;"/><text fill="#000000" font-family="sans-serif" font-size="13" lengthAdjust="spacing" textLength="39" x="235" y="231.5586">　参照</text></g><!--link pro to common--><g id="link_pro_common"><path d="M283,185.02 C283,205.32 283,238.36 283,260.63 " fill="none" id="pro-to-common" style="stroke:#181818;stroke-width:1.0;"/><polygon fill="#181818" points="283,265.76,287,256.76,283,260.76,279,256.76,283,265.76" style="stroke:#181818;stroke-width:1.0;"/><text fill="#000000" font-family="sans-serif" font-size="13" lengthAdjust="spacing" textLength="26" x="284" y="231.5586">参照</text></g><!--link std to common--><g id="link_std_common"><path d="M376.9,185.02 C357.24,205.75 324.97,239.76 303.85,262.02 " fill="none" id="std-to-common" style="stroke:#181818;stroke-width:1.0;"/><polygon fill="#181818" points="300.3,265.76,309.3964,261.9844,303.7415,262.1329,303.593,256.478,300.3,265.76" style="stroke:#181818;stroke-width:1.0;"/><text fill="#000000" font-family="sans-serif" font-size="13" lengthAdjust="spacing" textLength="26" x="346" y="231.5586">参照</text></g><!--link light to common--><g id="link_light_common"><path d="M493.98,185.28 C485.41,193.28 474.72,202.34 464,209 C422.52,234.76 370.65,255.22 333.08,268.21 " fill="none" id="light-to-common" style="stroke:#181818;stroke-width:1.0;"/><polygon fill="#181818" points="328.11,269.92,337.9197,270.7978,332.8419,268.3046,335.335,263.2268,328.11,269.92" style="stroke:#181818;stroke-width:1.0;"/><text fill="#000000" font-family="sans-serif" font-size="13" lengthAdjust="spacing" textLength="26" x="451" y="231.5586">参照</text></g><!--SRC=[TP7DIWCn58NtUOhGVL_0XUyIQZeM9Xt9H114678fj2jNKkZ2bLe7Vufq8OBemnog-1RUILewEZDP387lk_USC5OFd1edgPQzpUJbfrY07a3l_Er9bSj1Pams5hPchJw-fdUWH_Xdq6rrOTs_WfQWTHYoEZbDbHlne1XQPNWAT0LVXiNN809DWpdCh57kN4W-jGpuU_WL_1jxe3Ae-inPrH1v6rl-apS7owZSQTlKvg2d89pOh9aMDwn1HMWu2sRkZffxIlYRNVbqb1mxSI74_hsotp-CJUM1t5pwxydoFuqDEp6dTZBktib2cJtTbgX8_8Krj6tmXw4eThXAQPshghM2cDs2VW40]--></g></svg>