<?xml version="1.0" encoding="us-ascii" standalone="no"?><svg xmlns="http://www.w3.org/2000/svg" xmlns:xlink="http://www.w3.org/1999/xlink" contentStyleType="text/css" height="849px" preserveAspectRatio="none" style="width:802px;height:849px;background:#FFFFFF;" version="1.1" viewBox="0 0 802 849" width="802px" zoomAndPan="magnify"><defs/><g><ellipse cx="385.375" cy="20" fill="#222222" rx="10" ry="10" style="stroke:#222222;stroke-width:1.0;"/><rect fill="#F1F1F1" height="35.7031" rx="12.5" ry="12.5" style="stroke:#181818;stroke-width:0.5;" width="95" x="337.875" y="50"/><text fill="#000000" font-family="sans-serif" font-size="12" lengthAdjust="spacing" textLength="75" x="347.875" y="72.5156">[1]&#12466;&#12540;&#12512;&#38283;&#22987;</text><rect fill="#F1F1F1" height="35.7031" rx="12.5" ry="12.5" style="stroke:#181818;stroke-width:0.5;" width="227" x="271.875" y="105.7031"/><text fill="#000000" font-family="sans-serif" font-size="12" lengthAdjust="spacing" textLength="207" x="281.875" y="128.2188">[2]&#12479;&#12540;&#12531;&#12503;&#12524;&#12452;&#12516;&#12540;&#12395;&#12481;&#12515;&#12531;&#12473;&#12434;&#31227;&#21205;</text><polygon fill="#F1F1F1" points="318.875,205.4063,451.875,205.4063,463.875,217.4063,451.875,229.4063,318.875,229.4063,306.875,217.4063,318.875,205.4063" style="stroke:#181818;stroke-width:0.5;"/><text fill="#000000" font-family="sans-serif" font-size="11" lengthAdjust="spacing" textLength="133" x="318.875" y="221.6816">[3]&#12450;&#12463;&#12471;&#12519;&#12531;&#12434;&#36215;&#12371;&#12377;&#12363;&#65311;</text><text fill="#000000" font-family="sans-serif" font-size="11" lengthAdjust="spacing" textLength="17" x="289.875" y="214.4844">Yes</text><text fill="#000000" font-family="sans-serif" font-size="11" lengthAdjust="spacing" textLength="14" x="463.875" y="214.4844">No</text><rect fill="#F1F1F1" height="35.7031" rx="12.5" ry="12.5" style="stroke:#181818;stroke-width:0.5;" width="143" x="100" y="239.4063"/><text fill="#000000" font-family="sans-serif" font-size="12" lengthAdjust="spacing" textLength="123" x="110" y="261.9219">[4]&#12497;&#12473;&#35352;&#37682;&#12398;&#12522;&#12475;&#12483;&#12488;</text><rect fill="#F1F1F1" height="35.7031" rx="12.5" ry="12.5" style="stroke:#181818;stroke-width:0.5;" width="143" x="100" y="295.1094"/><text fill="#000000" font-family="sans-serif" font-size="12" lengthAdjust="spacing" textLength="123" x="110" y="317.625">[5]&#12450;&#12463;&#12471;&#12519;&#12531;&#12434;&#36215;&#12371;&#12377;</text><rect fill="#F1F1F1" height="35.7031" rx="12.5" ry="12.5" style="stroke:#181818;stroke-width:0.5;" width="107" x="118" y="365.8125"/><text fill="#000000" font-family="sans-serif" font-size="12" lengthAdjust="spacing" textLength="87" x="128" y="388.3281">[6]&#35480;&#30330;&#12481;&#12455;&#12483;&#12463;</text><polygon fill="#F1F1F1" points="132.5,434.0098,210.5,434.0098,222.5,446.0098,210.5,458.0098,132.5,458.0098,120.5,446.0098,132.5,434.0098" style="stroke:#181818;stroke-width:0.5;"/><text fill="#000000" font-family="sans-serif" font-size="11" lengthAdjust="spacing" textLength="78" x="132.5" y="450.2852">[7]&#21363;&#26178;&#21177;&#26524;&#12363;&#65311;</text><text fill="#000000" font-family="sans-serif" font-size="11" lengthAdjust="spacing" textLength="17" x="103.5" y="443.0879">Yes</text><text fill="#000000" font-family="sans-serif" font-size="11" lengthAdjust="spacing" textLength="14" x="222.5" y="443.0879">No</text><rect fill="#F1F1F1" height="35.7031" rx="12.5" ry="12.5" style="stroke:#181818;stroke-width:0.5;" width="131" x="11" y="468.0098"/><text fill="#000000" font-family="sans-serif" font-size="12" lengthAdjust="spacing" textLength="111" x="21" y="490.5254">[8]&#12450;&#12463;&#12471;&#12519;&#12531;&#12398;&#35299;&#27770;</text><polygon fill="#F1F1F1" points="48.5,538.7129,104.5,538.7129,116.5,550.7129,104.5,562.7129,48.5,562.7129,36.5,550.7129,48.5,538.7129" style="stroke:#181818;stroke-width:0.5;"/><text fill="#000000" font-family="sans-serif" font-size="11" lengthAdjust="spacing" textLength="56" x="48.5" y="554.9883">[9]&#21213;&#25943;&#21028;&#23450;</text><text fill="#000000" font-family="sans-serif" font-size="11" lengthAdjust="spacing" textLength="22" x="116.5" y="547.791">&#27770;&#30528;</text><ellipse cx="160.5" cy="550.7129" fill="none" rx="11" ry="11" style="stroke:#222222;stroke-width:1.0;"/><ellipse cx="160.5" cy="550.7129" fill="#222222" rx="6" ry="6" style="stroke:#222222;stroke-width:1.0;"/><rect fill="#F1F1F1" height="35.7031" rx="12.5" ry="12.5" style="stroke:#181818;stroke-width:0.5;" width="107" x="23" y="604.2188"/><text fill="#000000" font-family="sans-serif" font-size="12" lengthAdjust="spacing" textLength="87" x="33" y="626.7344">[6]&#35480;&#30330;&#12481;&#12455;&#12483;&#12463;</text><rect fill="#F1F1F1" height="35.7031" rx="12.5" ry="12.5" style="stroke:#181818;stroke-width:0.5;" width="126" x="203.5" y="468.0098"/><text fill="#000000" font-family="sans-serif" font-size="12" lengthAdjust="spacing" textLength="106" x="213.5" y="490.5254">[10]&#12473;&#12486;&#12540;&#12472;&#12395;&#36861;&#21152;</text><polygon fill="#F1F1F1" points="171.5,645.9219,183.5,657.9219,171.5,669.9219,159.5,657.9219,171.5,645.9219" style="stroke:#181818;stroke-width:0.5;"/><rect fill="#F1F1F1" height="35.7031" rx="12.5" ry="12.5" style="stroke:#181818;stroke-width:0.5;" width="126" x="536.25" y="239.4063"/><text fill="#000000" font-family="sans-serif" font-size="12" lengthAdjust="spacing" textLength="106" x="546.25" y="261.9219">[11]&#12497;&#12473;&#35352;&#37682;&#12395;&#30331;&#37682;</text><polygon fill="#F1F1F1" points="540.75,295.1094,657.75,295.1094,669.75,307.1094,657.75,319.1094,540.75,319.1094,528.75,307.1094,540.75,295.1094" style="stroke:#181818;stroke-width:0.5;"/><text fill="#000000" font-family="sans-serif" font-size="11" lengthAdjust="spacing" textLength="117" x="540.75" y="311.3848">[12]&#20840;&#21729;&#12364;&#12497;&#12473;&#12375;&#12383;&#12363;&#65311;</text><text fill="#000000" font-family="sans-serif" font-size="11" lengthAdjust="spacing" textLength="17" x="511.75" y="304.1875">Yes</text><text fill="#000000" font-family="sans-serif" font-size="11" lengthAdjust="spacing" textLength="14" x="669.75" y="304.1875">No</text><rect fill="#F1F1F1" height="35.7031" rx="12.5" ry="12.5" style="stroke:#181818;stroke-width:0.5;" width="150" x="418" y="378.3066"/><text fill="#000000" font-family="sans-serif" font-size="12" lengthAdjust="spacing" textLength="130" x="428" y="400.8223">[14]&#12473;&#12486;&#12540;&#12472;&#12363;&#12425;&#21462;&#20986;&#12375;</text><rect fill="#F1F1F1" height="35.7031" rx="12.5" ry="12.5" style="stroke:#181818;stroke-width:0.5;" width="131" x="427.5" y="446.5039"/><text fill="#000000" font-family="sans-serif" font-size="12" lengthAdjust="spacing" textLength="111" x="437.5" y="469.0195">[8]&#12450;&#12463;&#12471;&#12519;&#12531;&#12398;&#35299;&#27770;</text><polygon fill="#F1F1F1" points="465,517.207,521,517.207,533,529.207,521,541.207,465,541.207,453,529.207,465,517.207" style="stroke:#181818;stroke-width:0.5;"/><text fill="#000000" font-family="sans-serif" font-size="11" lengthAdjust="spacing" textLength="56" x="465" y="533.4824">[9]&#21213;&#25943;&#21028;&#23450;</text><text fill="#000000" font-family="sans-serif" font-size="11" lengthAdjust="spacing" textLength="22" x="533" y="526.2852">&#27770;&#30528;</text><ellipse cx="577" cy="529.207" fill="none" rx="11" ry="11" style="stroke:#222222;stroke-width:1.0;"/><ellipse cx="577" cy="529.207" fill="#222222" rx="6" ry="6" style="stroke:#222222;stroke-width:1.0;"/><rect fill="#F1F1F1" height="35.7031" rx="12.5" ry="12.5" style="stroke:#181818;stroke-width:0.5;" width="107" x="439.5" y="582.7129"/><text fill="#000000" font-family="sans-serif" font-size="12" lengthAdjust="spacing" textLength="87" x="449.5" y="605.2285">[6]&#35480;&#30330;&#12481;&#12455;&#12483;&#12463;</text><rect fill="#F1F1F1" height="35.7031" rx="12.5" ry="12.5" style="stroke:#181818;stroke-width:0.5;" width="227" x="379.5" y="653.416"/><text fill="#000000" font-family="sans-serif" font-size="12" lengthAdjust="spacing" textLength="207" x="389.5" y="675.9316">[2]&#12479;&#12540;&#12531;&#12503;&#12524;&#12452;&#12516;&#12540;&#12395;&#12481;&#12515;&#12531;&#12473;&#12434;&#31227;&#21205;</text><polygon fill="#F1F1F1" points="390.5,329.1094,595.5,329.1094,607.5,341.1094,595.5,353.1094,390.5,353.1094,378.5,341.1094,390.5,329.1094" style="stroke:#181818;stroke-width:0.5;"/><text fill="#000000" font-family="sans-serif" font-size="11" lengthAdjust="spacing" textLength="17" x="497" y="364.582">Yes</text><text fill="#000000" font-family="sans-serif" font-size="11" lengthAdjust="spacing" textLength="205" x="390.5" y="345.3848">[13]&#12473;&#12486;&#12540;&#12472;&#12395;&#12450;&#12463;&#12471;&#12519;&#12531;&#12364;&#23384;&#22312;&#12377;&#12427;&#12363;&#65311;</text><text fill="#000000" font-family="sans-serif" font-size="11" lengthAdjust="spacing" textLength="14" x="607.5" y="338.1875">No</text><polygon fill="#F1F1F1" points="493,709.1191,505,721.1191,493,733.1191,481,721.1191,493,709.1191" style="stroke:#181818;stroke-width:0.5;"/><rect fill="#F1F1F1" height="35.7031" rx="12.5" ry="12.5" style="stroke:#181818;stroke-width:0.5;" width="114" x="648.5" y="329.1094"/><text fill="#000000" font-family="sans-serif" font-size="12" lengthAdjust="spacing" textLength="94" x="658.5" y="351.625">[15]&#12481;&#12515;&#12531;&#12473;&#31227;&#21205;</text><polygon fill="#F1F1F1" points="599.25,739.1191,611.25,751.1191,599.25,763.1191,587.25,751.1191,599.25,739.1191" style="stroke:#181818;stroke-width:0.5;"/><polygon fill="#F1F1F1" points="385.375,769.1191,397.375,781.1191,385.375,793.1191,373.375,781.1191,385.375,769.1191" style="stroke:#181818;stroke-width:0.5;"/><polygon fill="#F1F1F1" points="385.375,161.4063,397.375,173.4063,385.375,185.4063,373.375,173.4063,385.375,161.4063" style="stroke:#181818;stroke-width:0.5;"/><polygon fill="#F1F1F1" points="385.375,813.1191,385.375,813.1191,397.375,825.1191,385.375,837.1191,385.375,837.1191,373.375,825.1191,385.375,813.1191" style="stroke:#181818;stroke-width:0.5;"/><line style="stroke:#181818;stroke-width:1.0;" x1="385.375" x2="385.375" y1="30" y2="50"/><polygon fill="#181818" points="381.375,40,385.375,50,389.375,40,385.375,44" style="stroke:#181818;stroke-width:1.0;"/><line style="stroke:#181818;stroke-width:1.0;" x1="385.375" x2="385.375" y1="85.7031" y2="105.7031"/><polygon fill="#181818" points="381.375,95.7031,385.375,105.7031,389.375,95.7031,385.375,99.7031" style="stroke:#181818;stroke-width:1.0;"/><line style="stroke:#181818;stroke-width:1.0;" x1="171.5" x2="171.5" y1="275.1094" y2="295.1094"/><polygon fill="#181818" points="167.5,285.1094,171.5,295.1094,175.5,285.1094,171.5,289.1094" style="stroke:#181818;stroke-width:1.0;"/><line style="stroke:#181818;stroke-width:1.0;" x1="171.5" x2="171.5" y1="330.8125" y2="365.8125"/><polygon fill="#181818" points="167.5,355.8125,171.5,365.8125,175.5,355.8125,171.5,359.8125" style="stroke:#181818;stroke-width:1.0;"/><line style="stroke:#181818;stroke-width:1.0;" x1="76.5" x2="76.5" y1="562.7129" y2="604.2188"/><polygon fill="#181818" points="72.5,594.2188,76.5,604.2188,80.5,594.2188,76.5,598.2188" style="stroke:#181818;stroke-width:1.0;"/><line style="stroke:#181818;stroke-width:1.0;" x1="116.5" x2="149.5" y1="550.7129" y2="550.7129"/><polygon fill="#181818" points="139.5,546.7129,149.5,550.7129,139.5,554.7129,143.5,550.7129" style="stroke:#181818;stroke-width:1.0;"/><line style="stroke:#181818;stroke-width:1.0;" x1="76.5" x2="76.5" y1="503.7129" y2="538.7129"/><polygon fill="#181818" points="72.5,528.7129,76.5,538.7129,80.5,528.7129,76.5,532.7129" style="stroke:#181818;stroke-width:1.0;"/><line style="stroke:#181818;stroke-width:1.0;" x1="120.5" x2="76.5" y1="446.0098" y2="446.0098"/><line style="stroke:#181818;stroke-width:1.0;" x1="76.5" x2="76.5" y1="446.0098" y2="468.0098"/><polygon fill="#181818" points="72.5,458.0098,76.5,468.0098,80.5,458.0098,76.5,462.0098" style="stroke:#181818;stroke-width:1.0;"/><line style="stroke:#181818;stroke-width:1.0;" x1="222.5" x2="266.5" y1="446.0098" y2="446.0098"/><line style="stroke:#181818;stroke-width:1.0;" x1="266.5" x2="266.5" y1="446.0098" y2="468.0098"/><polygon fill="#181818" points="262.5,458.0098,266.5,468.0098,270.5,458.0098,266.5,462.0098" style="stroke:#181818;stroke-width:1.0;"/><line style="stroke:#181818;stroke-width:1.0;" x1="76.5" x2="76.5" y1="639.9219" y2="657.9219"/><line style="stroke:#181818;stroke-width:1.0;" x1="76.5" x2="159.5" y1="657.9219" y2="657.9219"/><polygon fill="#181818" points="149.5,653.9219,159.5,657.9219,149.5,661.9219,153.5,657.9219" style="stroke:#181818;stroke-width:1.0;"/><line style="stroke:#181818;stroke-width:1.0;" x1="266.5" x2="266.5" y1="503.7129" y2="657.9219"/><line style="stroke:#181818;stroke-width:1.0;" x1="266.5" x2="183.5" y1="657.9219" y2="657.9219"/><polygon fill="#181818" points="193.5,653.9219,183.5,657.9219,193.5,661.9219,189.5,657.9219" style="stroke:#181818;stroke-width:1.0;"/><line style="stroke:#181818;stroke-width:1.0;" x1="171.5" x2="171.5" y1="401.5156" y2="434.0098"/><polygon fill="#181818" points="167.5,424.0098,171.5,434.0098,175.5,424.0098,171.5,428.0098" style="stroke:#181818;stroke-width:1.0;"/><line style="stroke:#181818;stroke-width:1.0;" x1="493" x2="493" y1="414.0098" y2="446.5039"/><polygon fill="#181818" points="489,436.5039,493,446.5039,497,436.5039,493,440.5039" style="stroke:#181818;stroke-width:1.0;"/><line style="stroke:#181818;stroke-width:1.0;" x1="493" x2="493" y1="541.207" y2="582.7129"/><polygon fill="#181818" points="489,572.7129,493,582.7129,497,572.7129,493,576.7129" style="stroke:#181818;stroke-width:1.0;"/><line style="stroke:#181818;stroke-width:1.0;" x1="533" x2="566" y1="529.207" y2="529.207"/><polygon fill="#181818" points="556,525.207,566,529.207,556,533.207,560,529.207" style="stroke:#181818;stroke-width:1.0;"/><line style="stroke:#181818;stroke-width:1.0;" x1="493" x2="493" y1="482.207" y2="517.207"/><polygon fill="#181818" points="489,507.207,493,517.207,497,507.207,493,511.207" style="stroke:#181818;stroke-width:1.0;"/><line style="stroke:#181818;stroke-width:1.0;" x1="493" x2="493" y1="618.416" y2="653.416"/><polygon fill="#181818" points="489,643.416,493,653.416,497,643.416,493,647.416" style="stroke:#181818;stroke-width:1.0;"/><line style="stroke:#181818;stroke-width:1.0;" x1="493" x2="493" y1="353.1094" y2="378.3066"/><polygon fill="#181818" points="489,368.3066,493,378.3066,497,368.3066,493,372.3066" style="stroke:#181818;stroke-width:1.0;"/><line style="stroke:#181818;stroke-width:1.0;" x1="607.5" x2="619.5" y1="341.1094" y2="341.1094"/><polygon fill="#181818" points="615.5,543.207,619.5,553.207,623.5,543.207,619.5,547.207" style="stroke:#181818;stroke-width:1.0;"/><line style="stroke:#181818;stroke-width:1.0;" x1="619.5" x2="619.5" y1="341.1094" y2="721.1191"/><line style="stroke:#181818;stroke-width:1.0;" x1="619.5" x2="505" y1="721.1191" y2="721.1191"/><polygon fill="#181818" points="515,717.1191,505,721.1191,515,725.1191,511,721.1191" style="stroke:#181818;stroke-width:1.0;"/><line style="stroke:#181818;stroke-width:1.0;" x1="493" x2="493" y1="689.1191" y2="709.1191"/><polygon fill="#181818" points="489,699.1191,493,709.1191,497,699.1191,493,703.1191" style="stroke:#181818;stroke-width:1.0;"/><line style="stroke:#181818;stroke-width:1.0;" x1="528.75" x2="493" y1="307.1094" y2="307.1094"/><line style="stroke:#181818;stroke-width:1.0;" x1="493" x2="493" y1="307.1094" y2="329.1094"/><polygon fill="#181818" points="489,319.1094,493,329.1094,497,319.1094,493,323.1094" style="stroke:#181818;stroke-width:1.0;"/><line style="stroke:#181818;stroke-width:1.0;" x1="669.75" x2="705.5" y1="307.1094" y2="307.1094"/><line style="stroke:#181818;stroke-width:1.0;" x1="705.5" x2="705.5" y1="307.1094" y2="329.1094"/><polygon fill="#181818" points="701.5,319.1094,705.5,329.1094,709.5,319.1094,705.5,323.1094" style="stroke:#181818;stroke-width:1.0;"/><line style="stroke:#181818;stroke-width:1.0;" x1="493" x2="493" y1="733.1191" y2="751.1191"/><line style="stroke:#181818;stroke-width:1.0;" x1="493" x2="587.25" y1="751.1191" y2="751.1191"/><polygon fill="#181818" points="577.25,747.1191,587.25,751.1191,577.25,755.1191,581.25,751.1191" style="stroke:#181818;stroke-width:1.0;"/><line style="stroke:#181818;stroke-width:1.0;" x1="705.5" x2="705.5" y1="364.8125" y2="751.1191"/><line style="stroke:#181818;stroke-width:1.0;" x1="705.5" x2="611.25" y1="751.1191" y2="751.1191"/><polygon fill="#181818" points="621.25,747.1191,611.25,751.1191,621.25,755.1191,617.25,751.1191" style="stroke:#181818;stroke-width:1.0;"/><line style="stroke:#181818;stroke-width:1.0;" x1="599.25" x2="599.25" y1="275.1094" y2="295.1094"/><polygon fill="#181818" points="595.25,285.1094,599.25,295.1094,603.25,285.1094,599.25,289.1094" style="stroke:#181818;stroke-width:1.0;"/><line style="stroke:#181818;stroke-width:1.0;" x1="306.875" x2="171.5" y1="217.4063" y2="217.4063"/><line style="stroke:#181818;stroke-width:1.0;" x1="171.5" x2="171.5" y1="217.4063" y2="239.4063"/><polygon fill="#181818" points="167.5,229.4063,171.5,239.4063,175.5,229.4063,171.5,233.4063" style="stroke:#181818;stroke-width:1.0;"/><line style="stroke:#181818;stroke-width:1.0;" x1="463.875" x2="599.25" y1="217.4063" y2="217.4063"/><line style="stroke:#181818;stroke-width:1.0;" x1="599.25" x2="599.25" y1="217.4063" y2="239.4063"/><polygon fill="#181818" points="595.25,229.4063,599.25,239.4063,603.25,229.4063,599.25,233.4063" style="stroke:#181818;stroke-width:1.0;"/><line style="stroke:#181818;stroke-width:1.0;" x1="171.5" x2="171.5" y1="669.9219" y2="781.1191"/><line style="stroke:#181818;stroke-width:1.0;" x1="171.5" x2="373.375" y1="781.1191" y2="781.1191"/><polygon fill="#181818" points="363.375,777.1191,373.375,781.1191,363.375,785.1191,367.375,781.1191" style="stroke:#181818;stroke-width:1.0;"/><line style="stroke:#181818;stroke-width:1.0;" x1="599.25" x2="599.25" y1="763.1191" y2="781.1191"/><line style="stroke:#181818;stroke-width:1.0;" x1="599.25" x2="397.375" y1="781.1191" y2="781.1191"/><polygon fill="#181818" points="407.375,777.1191,397.375,781.1191,407.375,785.1191,403.375,781.1191" style="stroke:#181818;stroke-width:1.0;"/><line style="stroke:#181818;stroke-width:1.0;" x1="385.375" x2="385.375" y1="185.4063" y2="205.4063"/><polygon fill="#181818" points="381.375,195.4063,385.375,205.4063,389.375,195.4063,385.375,199.4063" style="stroke:#181818;stroke-width:1.0;"/><line style="stroke:#181818;stroke-width:1.0;" x1="397.375" x2="776.5" y1="825.1191" y2="825.1191"/><polygon fill="#181818" points="772.5,523.8555,776.5,513.8555,780.5,523.8555,776.5,519.8555" style="stroke:#181818;stroke-width:1.0;"/><line style="stroke:#181818;stroke-width:1.0;" x1="776.5" x2="776.5" y1="173.4063" y2="825.1191"/><line style="stroke:#181818;stroke-width:1.0;" x1="776.5" x2="397.375" y1="173.4063" y2="173.4063"/><polygon fill="#181818" points="407.375,169.4063,397.375,173.4063,407.375,177.4063,403.375,173.4063" style="stroke:#181818;stroke-width:1.0;"/><line style="stroke:#181818;stroke-width:1.0;" x1="385.375" x2="385.375" y1="793.1191" y2="813.1191"/><polygon fill="#181818" points="381.375,803.1191,385.375,813.1191,389.375,803.1191,385.375,807.1191" style="stroke:#181818;stroke-width:1.0;"/><line style="stroke:#181818;stroke-width:1.0;" x1="385.375" x2="385.375" y1="141.4063" y2="161.4063"/><polygon fill="#181818" points="381.375,151.4063,385.375,161.4063,389.375,151.4063,385.375,155.4063" style="stroke:#181818;stroke-width:1.0;"/><!--SRC=[dLDDJy904BtpAtg4cu2Vz3zuDwG74zT0OeJG9bxTtQXeCKO80aO4XQG452F4gA3XnqoMrfD_mUs7K5j5unusczatRrxcpSZAUaO9nE9X2KWFw0lG-jkPoZHLvC483uwiO1ze2UWDa2RGfXd17Q0OQCFy8iz0yhesP6fH36HG6gqhWUIc48n7UVura3iWZq0r2vet7Xu15m1N0AllBxMGe2JGjX1SGt8e8F0JYyzBG4yvgT4gl-LwWBj0sq26G2dGhEY05cPHVu8M9QDTrYi3KohHJ09oP_zPyfOaTjmVLmWxUXvVNloWnsPQzfN3NKDhZEy7uWHbSQv8JAsEYoMMRRBk-ISRn-dLtIcXUMGbbPu4qFP6SjDLxsVbQ4j6Gd0rvLONdfDC4-Y-wGnvukOOerTsL7SoBEwlUJmdx6bpHwyC-SFLdt14OdijLhW2dBEnW4k0QpCwPUT5lN9ypSknspAxQ9bZGDGPV8xMUG-X2kIGdPonWm5N97hGV_7g7txvFFFxzfjtKyn_DcjIqpS1KnNVJWVV5HUZcyuP3Uks5rVOIIItK33q0G00]--></g></svg>