<?xml version="1.0" encoding="UTF-8" standalone="no"?><svg xmlns="http://www.w3.org/2000/svg" xmlns:xlink="http://www.w3.org/1999/xlink" contentScriptType="application/ecmascript" contentStyleType="text/css" height="296px" preserveAspectRatio="none" style="width:197px;height:296px;" version="1.1" viewBox="0 0 197 296" width="197px" zoomAndPan="magnify"><defs><filter height="300%" id="f17omo69yc4s1p" width="300%" x="-1" y="-1"><feGaussianBlur result="blurOut" stdDeviation="2.0"/><feColorMatrix in="blurOut" result="blurOut2" type="matrix" values="0 0 0 0 0 0 0 0 0 0 0 0 0 0 0 0 0 0 .4 0"/><feOffset dx="4.0" dy="4.0" in="blurOut2" result="blurOut3"/><feBlend in="SourceGraphic" in2="blurOut3" mode="normal"/></filter></defs><g><!--MD5=[290b23b195cda7e553d7254bfd9175c6]
class コアルール--><polygon fill="#FEFECE" filter="url(#f17omo69yc4s1p)" points="24,8.5,24,8.7102,33.4286,8.0857,42.8571,8.6933,52.2857,8.8997,61.7143,7.7866,71.1429,8.4223,80.5714,8.0735,90,8.5,89.8722,8.5,89.9773,13.3266,89.7695,18.1531,90.1845,22.9797,89.7899,27.8063,90,32.6328,90,32.435,80.5714,33.0648,71.1429,32.547,61.7143,32.7011,52.2857,32.6009,42.8571,32.8113,33.4286,32.8719,24,32.6328,24.1952,32.6328,24.2237,27.8063,24.2264,22.9797,24.0849,18.1531,24.1545,13.3266,24,8.5" style="stroke: #A80036; stroke-width: 1.5;"/><text fill="#000000" font-family="sans-serif" font-size="12" font-style="italic" lengthAdjust="spacingAndGlyphs" textLength="60" x="27" y="25.1016">コアルール</text><!--MD5=[dfc0cd2a72eeb5823a75133eb3e753c8]
class 共通ルール--><polygon fill="#FEFECE" filter="url(#f17omo69yc4s1p)" points="24,93,24,93.2102,33.4286,92.5857,42.8571,93.1933,52.2857,93.3997,61.7143,92.2866,71.1429,92.9223,80.5714,92.5735,90,93,89.8722,93,89.9773,97.8266,89.7695,102.6531,90.1845,107.4797,89.7899,112.3063,90,117.1328,90,116.935,80.5714,117.5648,71.1429,117.047,61.7143,117.2011,52.2857,117.1009,42.8571,117.3113,33.4286,117.3719,24,117.1328,24.1952,117.1328,24.2237,112.3063,24.2264,107.4797,24.0849,102.6531,24.1545,97.8266,24,93" style="stroke: #A80036; stroke-width: 1.5;"/><text fill="#000000" font-family="sans-serif" font-size="12" font-style="italic" lengthAdjust="spacingAndGlyphs" textLength="60" x="27" y="109.6016">共通ルール</text><path d="M125,8 L125,16.5 L90.3,20.5 L125,24.5 L125,33.3105 A0,0 0 0 0 125,33.3105 L185,33.3105 A0,0 0 0 0 185,33.3105 L185,18 L175,8 L125,8 A0,0 0 0 0 125,8 " fill="#FBFB77" filter="url(#f17omo69yc4s1p)" style="stroke: #A80036; stroke-width: 1.0;"/><path d="M175,8 L175.1868,8 L174.6317,10 L175.1718,12 L175.3553,14 L174.3659,16 L175,18 L175,17.9309 L177,17.6209 L179,17.6591 L181,17.9394 L183,17.3854 L185,18 L185.348,18.348 L182.6038,15.6038 L180.8757,13.8757 L179.2715,12.2715 L176.9461,9.9461 L175,8 " fill="#FBFB77" style="stroke: #A80036; stroke-width: 1.0;"/><text fill="#000000" font-family="sans-serif" font-size="13" lengthAdjust="spacingAndGlyphs" textLength="39" x="131" y="25.5684">テスト</text><!--MD5=[8c6a0ae348e7a404ac950b7e3e3cae03]
class 通常フォーマット--><polygon fill="#FEFECE" filter="url(#f17omo69yc4s1p)" points="6,177,6,177.2102,16.2,176.5857,26.4,177.1933,36.6,177.3997,46.8,176.2866,57,176.9223,67.2,176.5735,77.4,176.6165,87.6,176.9318,97.8,176.3086,108,177,108.1845,177,107.7899,181.8266,107.9341,186.6531,108.144,191.4797,107.9714,196.3063,108,201.1328,108,201.2011,97.8,201.1009,87.6,201.3113,77.4,201.3719,67.2,201.7185,57,201.8039,46.8,201.8121,36.6,201.3874,26.4,201.5964,16.2,201.835,6,201.1328,5.7596,201.1328,6.2262,196.3063,5.9012,191.4797,6.1779,186.6531,5.835,181.8266,6,177" style="stroke: #A80036; stroke-width: 1.5;"/><text fill="#000000" font-family="sans-serif" font-size="12" lengthAdjust="spacingAndGlyphs" textLength="96" x="9" y="193.6016">通常フォーマット</text><!--MD5=[1b7b03c11ecb8bc64ccfd19cc7a1f7d1]
class 拡張フォーマット--><polygon fill="#FEFECE" filter="url(#f17omo69yc4s1p)" points="6,261,6,261.2102,16.2,260.5857,26.4,261.1933,36.6,261.3997,46.8,260.2866,57,260.9223,67.2,260.5735,77.4,260.6165,87.6,260.9318,97.8,260.3086,108,261,108.1845,261,107.7899,265.8266,107.9341,270.6531,108.144,275.4797,107.9714,280.3063,108,285.1328,108,285.2011,97.8,285.1009,87.6,285.3113,77.4,285.3719,67.2,285.7185,57,285.8039,46.8,285.8121,36.6,285.3874,26.4,285.5964,16.2,285.835,6,285.1328,5.7596,285.1328,6.2262,280.3063,5.9012,275.4797,6.1779,270.6531,5.835,265.8266,6,261" style="stroke: #A80036; stroke-width: 1.5;"/><text fill="#000000" font-family="sans-serif" font-size="12" lengthAdjust="spacingAndGlyphs" textLength="96" x="9" y="277.6016">拡張フォーマット</text><!--MD5=[5577348cf13f5f77464f961bef7277b5]
reverse link コアルール to 共通ルール--><path d="M57,52.64 L57.0934,52.64 L56.8159,60.67 L57.0859,68.7 L57.1776,76.73 L56.6829,84.76 L57,92.79 " fill="none" style="stroke: #A80036; stroke-width: 1.0; stroke-dasharray: 7.0,7.0;"/><polygon fill="none" points="50,52.63,50.0661,52.6531,51.2696,48.5844,52.8608,44.6513,54.3257,40.674,55.3756,36.5514,57,32.63,56.9755,32.6214,58.2658,36.583,59.6793,40.5878,61.1786,44.6225,62.3825,48.5539,64,52.63,64,52.8145,61.2,52.4199,58.4,52.5641,55.6,52.774,52.8,52.6014,50,52.63" style="stroke: #A80036; stroke-width: 1.0;"/><!--MD5=[61579a87438075da7a77d4ef16fe1c88]
reverse link 共通ルール to 通常フォーマット--><path d="M57,137.2 L57.0934,137.2 L56.8159,145.13 L57.0859,153.06 L57.1776,160.99 L56.6829,168.92 L57,176.85 " fill="none" style="stroke: #A80036; stroke-width: 1.0;"/><polygon fill="none" points="50,137.06,50.0661,137.0831,51.2696,133.0144,52.8608,129.0813,54.3257,125.104,55.3756,120.9814,57,117.06,56.9755,117.0514,58.2658,121.013,59.6793,125.0178,61.1786,129.0525,62.3825,132.9839,64,137.06,64,137.2445,61.2,136.8499,58.4,136.9941,55.6,137.204,52.8,137.0314,50,137.06" style="stroke: #A80036; stroke-width: 1.0;"/><!--MD5=[02fc3bd81231d50c97705b06a5154e1d]
reverse link 通常フォーマット to 拡張フォーマット--><path d="M57,221.2 L57.0934,221.2 L56.8159,229.13 L57.0859,237.06 L57.1776,244.99 L56.6829,252.92 L57,260.85 " fill="none" style="stroke: #A80036; stroke-width: 1.0;"/><polygon fill="none" points="50,221.06,50.0661,221.0831,51.2696,217.0144,52.8608,213.0813,54.3257,209.104,55.3756,204.9814,57,201.06,56.9755,201.0514,58.2658,205.013,59.6793,209.0178,61.1786,213.0525,62.3825,216.9839,64,221.06,64,221.2445,61.2,220.8499,58.4,220.9941,55.6,221.204,52.8,221.0314,50,221.06" style="stroke: #A80036; stroke-width: 1.0;"/><!--MD5=[f18342b1752890c05be606c13a72ff77]
@startuml
hide members
hide circle

skinparam handwritten true

abstract class コアルール
abstract class 共通ルール

コアルール <|.. 共通ルール
note right of コアルール: テスト


共通ルール ^- - 通常フォーマット
通常フォーマット ^- - 拡張フォーマット

@enduml

PlantUML version 1.2020.07(Sun Apr 19 20:42:40 JST 2020)
(GPL source distribution)
Java Runtime: OpenJDK Runtime Environment
JVM: OpenJDK 64-Bit Server VM
Java Version: 13.0.2+8
Operating System: Mac OS X
Default Encoding: UTF-8
Language: ja
Country: JP
--></g></svg>