<?xml version="1.0" encoding="UTF-8" standalone="no"?><svg xmlns="http://www.w3.org/2000/svg" xmlns:xlink="http://www.w3.org/1999/xlink" contentScriptType="application/ecmascript" contentStyleType="text/css" height="344px" preserveAspectRatio="none" style="width:115px;height:344px;" version="1.1" viewBox="0 0 115 344" width="115px" zoomAndPan="magnify"><defs><filter height="300%" id="fcpgdqx5iju9x" width="300%" x="-1" y="-1"><feGaussianBlur result="blurOut" stdDeviation="2.0"/><feColorMatrix in="blurOut" result="blurOut2" type="matrix" values="0 0 0 0 0 0 0 0 0 0 0 0 0 0 0 0 0 0 .4 0"/><feOffset dx="4.0" dy="4.0" in="blurOut2" result="blurOut3"/><feBlend in="SourceGraphic" in2="blurOut3" mode="normal"/></filter></defs><g><!--MD5=[9949b6a0f851a4c533516d21eff9e832]
class core--><rect fill="#FEFECE" filter="url(#fcpgdqx5iju9x)" height="48" id="core" style="stroke: #A80036; stroke-width: 1.5;" width="57" x="26.5" y="8"/><ellipse cx="41.5" cy="24" fill="#A9DCDF" rx="11" ry="11" style="stroke: #A80036; stroke-width: 1.0;"/><path d="M41.6133,19.5981 L40.4595,24.6699 L42.7754,24.6699 Z M40.1191,17.3569 L43.1157,17.3569 L46.4609,29.75 L44.0122,29.75 L43.2485,26.687 L39.9697,26.687 L39.2227,29.75 L36.7739,29.75 Z "/><text fill="#000000" font-family="sans-serif" font-size="12" font-style="italic" lengthAdjust="spacingAndGlyphs" textLength="25" x="55.5" y="28.5352">core</text><line style="stroke: #A80036; stroke-width: 1.5;" x1="27.5" x2="82.5" y1="40" y2="40"/><line style="stroke: #A80036; stroke-width: 1.5;" x1="27.5" x2="82.5" y1="48" y2="48"/><!--MD5=[307bf395be6ddcf552367f8e4d14c618]
class common--><rect fill="#FEFECE" filter="url(#fcpgdqx5iju9x)" height="48" id="common" style="stroke: #A80036; stroke-width: 1.5;" width="81" x="14.5" y="116"/><ellipse cx="29.5" cy="132" fill="#A9DCDF" rx="11" ry="11" style="stroke: #A80036; stroke-width: 1.0;"/><path d="M29.6133,127.5981 L28.4595,132.6699 L30.7754,132.6699 Z M28.1191,125.3569 L31.1157,125.3569 L34.4609,137.75 L32.0122,137.75 L31.2485,134.687 L27.9697,134.687 L27.2227,137.75 L24.7739,137.75 Z "/><text fill="#000000" font-family="sans-serif" font-size="12" font-style="italic" lengthAdjust="spacingAndGlyphs" textLength="49" x="43.5" y="136.5352">common</text><line style="stroke: #A80036; stroke-width: 1.5;" x1="15.5" x2="94.5" y1="148" y2="148"/><line style="stroke: #A80036; stroke-width: 1.5;" x1="15.5" x2="94.5" y1="156" y2="156"/><!--MD5=[2cd78c2681c0d6db57ee50e0fac8f8e0]
class baseformat--><rect fill="#FEFECE" filter="url(#fcpgdqx5iju9x)" height="48" id="baseformat" style="stroke: #A80036; stroke-width: 1.5;" width="98" x="6" y="285"/><ellipse cx="21" cy="301" fill="#ADD1B2" rx="11" ry="11" style="stroke: #A80036; stroke-width: 1.0;"/><path d="M23.4731,307.1431 Q22.8921,307.4419 22.2529,307.5913 Q21.6138,307.7407 20.9082,307.7407 Q18.4014,307.7407 17.0815,306.0889 Q15.7617,304.437 15.7617,301.3159 Q15.7617,298.1865 17.0815,296.5347 Q18.4014,294.8828 20.9082,294.8828 Q21.6138,294.8828 22.2612,295.0322 Q22.9087,295.1816 23.4731,295.4805 L23.4731,298.2031 Q22.8423,297.6221 22.2488,297.3523 Q21.6553,297.0825 21.0244,297.0825 Q19.6797,297.0825 18.9949,298.1492 Q18.3101,299.2158 18.3101,301.3159 Q18.3101,303.4077 18.9949,304.4744 Q19.6797,305.541 21.0244,305.541 Q21.6553,305.541 22.2488,305.2712 Q22.8423,305.0015 23.4731,304.4204 Z "/><text fill="#000000" font-family="sans-serif" font-size="12" lengthAdjust="spacingAndGlyphs" textLength="66" x="35" y="305.5352">baseformat</text><line style="stroke: #A80036; stroke-width: 1.5;" x1="7" x2="103" y1="317" y2="317"/><line style="stroke: #A80036; stroke-width: 1.5;" x1="7" x2="103" y1="325" y2="325"/><!--MD5=[0a423c99ee0ef137b5d99b7451b8d5db]
reverse link core to common--><path d="M55,76.02 C55,89.58 55,104.04 55,115.68 " fill="none" id="core&lt;-common" style="stroke: #A80036; stroke-width: 1.0; stroke-dasharray: 7.0,7.0;"/><polygon fill="none" points="48,76,55,56,62,76,48,76" style="stroke: #A80036; stroke-width: 1.0;"/><!--MD5=[7cc523e8ff24c7a6708b29d34f55bb7d]
reverse link common to baseformat--><path d="M55,184.49 C55,216.63 55,259.14 55,284.98 " fill="none" id="common&lt;-baseformat" style="stroke: #A80036; stroke-width: 1.0;"/><polygon fill="none" points="48,184.22,55,164.22,62,184.22,48,184.22" style="stroke: #A80036; stroke-width: 1.0;"/><!--MD5=[ffc1ed5fbc5c99526a27847d56cef37e]
@startuml
abstract class core
abstract class common
core <|.. common
common ^- - - baseformat

@enduml

PlantUML version 1.2020.07(Sun Apr 19 20:42:40 JST 2020)
(GPL source distribution)
Java Runtime: OpenJDK Runtime Environment
JVM: OpenJDK 64-Bit Server VM
Java Version: 13.0.2+8
Operating System: Mac OS X
Default Encoding: UTF-8
Language: ja
Country: JP
--></g></svg>