<?xml version="1.0" encoding="UTF-8" standalone="no"?><svg xmlns="http://www.w3.org/2000/svg" xmlns:xlink="http://www.w3.org/1999/xlink" contentScriptType="application/ecmascript" contentStyleType="text/css" height="211px" preserveAspectRatio="none" style="width:89px;height:211px;" version="1.1" viewBox="0 0 89 211" width="89px" zoomAndPan="magnify"><defs><filter height="300%" id="fz0dhh9bzcz14" width="300%" x="-1" y="-1"><feGaussianBlur result="blurOut" stdDeviation="2.0"/><feColorMatrix in="blurOut" result="blurOut2" type="matrix" values="0 0 0 0 0 0 0 0 0 0 0 0 0 0 0 0 0 0 .4 0"/><feOffset dx="4.0" dy="4.0" in="blurOut2" result="blurOut3"/><feBlend in="SourceGraphic" in2="blurOut3" mode="normal"/></filter></defs><g><!--MD5=[9949b6a0f851a4c533516d21eff9e832]
class core--><polygon fill="#FEFECE" filter="url(#fz0dhh9bzcz14)" points="26.5,8,26.5,8.0701,32.7,7.8619,38.9,8.0644,45.1,8.1332,51.3,7.7622,57.5,8,57.4741,8,57.3578,12.8266,57.3722,17.6531,57.4773,22.4797,57.2695,27.3063,57.5,32.1328,57.5,32.3174,51.3,31.9227,45.1,32.0669,38.9,32.2768,32.7,32.1042,26.5,32.1328,26.5227,32.1328,26.4894,27.3063,26.5595,22.4797,26.5797,17.6531,26.6952,12.8266,26.5,8" style="stroke: #A80036; stroke-width: 1.5;"/><text fill="#000000" font-family="sans-serif" font-size="12" font-style="italic" lengthAdjust="spacingAndGlyphs" textLength="25" x="29.5" y="24.6016">core</text><!--MD5=[307bf395be6ddcf552367f8e4d14c618]
class common--><polygon fill="#FEFECE" filter="url(#fz0dhh9bzcz14)" points="14.5,92,14.5,92.2102,23.6667,91.5857,32.8333,92.1933,42,92.3997,51.1667,91.2866,60.3333,91.9223,69.5,92,69.3578,92,69.3722,96.8266,69.4773,101.6531,69.2695,106.4797,69.6845,111.3063,69.5,116.1328,69.5,115.5025,60.3333,115.935,51.1667,116.5648,42,116.047,32.8333,116.2011,23.6667,116.1009,14.5,116.1328,14.5595,116.1328,14.5797,111.3063,14.6952,106.4797,14.7237,101.6531,14.7264,96.8266,14.5,92" style="stroke: #A80036; stroke-width: 1.5;"/><text fill="#000000" font-family="sans-serif" font-size="12" font-style="italic" lengthAdjust="spacingAndGlyphs" textLength="49" x="17.5" y="108.6016">common</text><!--MD5=[2cd78c2681c0d6db57ee50e0fac8f8e0]
class baseformat--><polygon fill="#FEFECE" filter="url(#fz0dhh9bzcz14)" points="6,176,6,176.2102,16.2857,175.5857,26.5714,176.1933,36.8571,176.3997,47.1429,175.2866,57.4286,175.9223,67.7143,175.5735,78,176,77.8722,176,77.9773,180.8266,77.7695,185.6531,78.1845,190.4797,77.7899,195.3063,78,200.1328,78,199.935,67.7143,200.5648,57.4286,200.047,47.1429,200.2011,36.8571,200.1009,26.5714,200.3113,16.2857,200.3719,6,200.1328,6.1952,200.1328,6.2237,195.3063,6.2264,190.4797,6.0849,185.6531,6.1545,180.8266,6,176" style="stroke: #A80036; stroke-width: 1.5;"/><text fill="#000000" font-family="sans-serif" font-size="12" lengthAdjust="spacingAndGlyphs" textLength="66" x="9" y="192.6016">baseformat</text><!--MD5=[0a423c99ee0ef137b5d99b7451b8d5db]
reverse link core to common--><path d="M42,52.2 L42.0934,52.2 L41.8159,60.13 L42.0859,68.06 L42.1776,75.99 L41.6829,83.92 L42,91.85 " fill="none" style="stroke: #A80036; stroke-width: 1.0; stroke-dasharray: 7.0,7.0;"/><polygon fill="none" points="35,52.06,35.0661,52.0831,36.2696,48.0144,37.8608,44.0813,39.3257,40.104,40.3756,35.9814,42,32.06,41.9755,32.0514,43.2658,36.013,44.6793,40.0178,46.1786,44.0525,47.3825,47.9839,49,52.06,49,52.2445,46.2,51.8499,43.4,51.9941,40.6,52.204,37.8,52.0314,35,52.06" style="stroke: #A80036; stroke-width: 1.0;"/><!--MD5=[7cc523e8ff24c7a6708b29d34f55bb7d]
reverse link common to baseformat--><path d="M42,136.2 L42.0934,136.2 L41.8159,144.13 L42.0859,152.06 L42.1776,159.99 L41.6829,167.92 L42,175.85 " fill="none" style="stroke: #A80036; stroke-width: 1.0;"/><polygon fill="none" points="35,136.06,35.0661,136.0831,36.2696,132.0144,37.8608,128.0813,39.3257,124.104,40.3756,119.9814,42,116.06,41.9755,116.0514,43.2658,120.013,44.6793,124.0178,46.1786,128.0525,47.3825,131.9839,49,136.06,49,136.2445,46.2,135.8499,43.4,135.9941,40.6,136.204,37.8,136.0314,35,136.06" style="stroke: #A80036; stroke-width: 1.0;"/><!--MD5=[495d76148b8a1576ade54079691c9fec]
@startuml
hide members
hide circle

skinparam handwritten true
abstract class core {
    +hiddenMethod()
}
abstract class common
core <|.. common
common ^- - baseformat

@enduml

PlantUML version 1.2020.07(Sun Apr 19 20:42:40 JST 2020)
(GPL source distribution)
Java Runtime: OpenJDK Runtime Environment
JVM: OpenJDK 64-Bit Server VM
Java Version: 13.0.2+8
Operating System: Mac OS X
Default Encoding: UTF-8
Language: ja
Country: JP
--></g></svg>