<?xml version="1.0" encoding="UTF-8" standalone="no"?><svg xmlns="http://www.w3.org/2000/svg" xmlns:xlink="http://www.w3.org/1999/xlink" contentScriptType="application/ecmascript" contentStyleType="text/css" height="299px" preserveAspectRatio="none" style="width:1491px;height:299px;" version="1.1" viewBox="0 0 1491 299" width="1491px" zoomAndPan="magnify"><defs><filter height="300%" id="fqopbzmp67g8" width="300%" x="-1" y="-1"><feGaussianBlur result="blurOut" stdDeviation="2.0"/><feColorMatrix in="blurOut" result="blurOut2" type="matrix" values="0 0 0 0 0 0 0 0 0 0 0 0 0 0 0 0 0 0 .4 0"/><feOffset dx="4.0" dy="4.0" in="blurOut2" result="blurOut3"/><feBlend in="SourceGraphic" in2="blurOut3" mode="normal"/></filter></defs><g><!--MD5=[290b23b195cda7e553d7254bfd9175c6]
class コアルール--><rect fill="#FEFECE" filter="url(#fqopbzmp67g8)" height="24.1328" id="コアルール" style="stroke: #A80036; stroke-width: 1.5;" width="66" x="24" y="8"/><text fill="#000000" font-family="sans-serif" font-size="12" font-style="italic" lengthAdjust="spacingAndGlyphs" textLength="60" x="27" y="24.6016">コアルール</text><!--MD5=[dfc0cd2a72eeb5823a75133eb3e753c8]
class 共通ルール--><rect fill="#FEFECE" filter="url(#fqopbzmp67g8)" height="24.1328" id="共通ルール" style="stroke: #A80036; stroke-width: 1.5;" width="66" x="24" y="92.5"/><text fill="#000000" font-family="sans-serif" font-size="12" font-style="italic" lengthAdjust="spacingAndGlyphs" textLength="60" x="27" y="109.1016">共通ルール</text><!--MD5=[8c6a0ae348e7a404ac950b7e3e3cae03]
class 通常フォーマット--><rect fill="#FEFECE" filter="url(#fqopbzmp67g8)" height="24.1328" id="通常フォーマット" style="stroke: #A80036; stroke-width: 1.5;" width="102" x="6" y="177.5"/><text fill="#000000" font-family="sans-serif" font-size="12" lengthAdjust="spacingAndGlyphs" textLength="96" x="9" y="194.1016">通常フォーマット</text><!--MD5=[1b7b03c11ecb8bc64ccfd19cc7a1f7d1]
class 拡張フォーマット--><rect fill="#FEFECE" filter="url(#fqopbzmp67g8)" height="24.1328" id="拡張フォーマット" style="stroke: #A80036; stroke-width: 1.5;" width="102" x="6" y="262.5"/><text fill="#000000" font-family="sans-serif" font-size="12" lengthAdjust="spacingAndGlyphs" textLength="96" x="9" y="279.1016">拡張フォーマット</text><path d="M576,262 L576,287.3105 L1010,287.3105 L1010,272 L1000,262 L576,262 " fill="#FBFB77" filter="url(#fqopbzmp67g8)" style="stroke: #A80036; stroke-width: 1.0;"/><path d="M1000,262 L1000,272 L1010,272 L1000,262 " fill="#FBFB77" style="stroke: #A80036; stroke-width: 1.0;"/><text fill="#000000" font-family="sans-serif" font-size="13" lengthAdjust="spacingAndGlyphs" textLength="413" x="582" y="279.5684">"割込みルールなどのターン制ゲームに適応できる抽象的なルール定義"</text><path d="M1045,262 L1045,270.5 L1010.1,274.5 L1045,278.5 L1045,287.3105 A0,0 0 0 0 1045,287.3105 L1479,287.3105 A0,0 0 0 0 1479,287.3105 L1479,272 L1469,262 L1045,262 A0,0 0 0 0 1045,262 " fill="#FBFB77" filter="url(#fqopbzmp67g8)" style="stroke: #A80036; stroke-width: 1.0;"/><path d="M1469,262 L1469,272 L1479,272 L1469,262 " fill="#FBFB77" style="stroke: #A80036; stroke-width: 1.0;"/><text fill="#000000" font-family="sans-serif" font-size="13" lengthAdjust="spacingAndGlyphs" textLength="413" x="1051" y="279.5684">"&#8;割込みルールなどのターン制ゲームに適応できる抽象的なルール定義"</text><path d="M125.5,92 L125.5,100.5 L90.24,104.5 L125.5,108.5 L125.5,117.3105 A0,0 0 0 0 125.5,117.3105 L354.5,117.3105 A0,0 0 0 0 354.5,117.3105 L354.5,102 L344.5,92 L125.5,92 A0,0 0 0 0 125.5,92 " fill="#FBFB77" filter="url(#fqopbzmp67g8)" style="stroke: #A80036; stroke-width: 1.0;"/><path d="M344.5,92 L344.5,102 L354.5,102 L344.5,92 " fill="#FBFB77" style="stroke: #A80036; stroke-width: 1.0;"/><text fill="#000000" font-family="sans-serif" font-size="13" lengthAdjust="spacingAndGlyphs" textLength="208" x="131.5" y="109.5684">コアルールを具体化したルール定義</text><path d="M143,177 L143,185.5 L108.09,189.5 L143,193.5 L143,202.3105 A0,0 0 0 0 143,202.3105 L489,202.3105 A0,0 0 0 0 489,202.3105 L489,187 L479,177 L143,177 A0,0 0 0 0 143,177 " fill="#FBFB77" filter="url(#fqopbzmp67g8)" style="stroke: #A80036; stroke-width: 1.0;"/><path d="M479,177 L479,187 L489,187 L479,177 " fill="#FBFB77" style="stroke: #A80036; stroke-width: 1.0;"/><text fill="#000000" font-family="sans-serif" font-size="13" lengthAdjust="spacingAndGlyphs" textLength="325" x="149" y="194.5684">ライト、スタンダードなどの具体的なフォーマット定義</text><path d="M143,262 L143,270.5 L108.21,274.5 L143,278.5 L143,287.3105 A0,0 0 0 0 143,287.3105 L541,287.3105 A0,0 0 0 0 541,287.3105 L541,272 L531,262 L143,262 A0,0 0 0 0 143,262 " fill="#FBFB77" filter="url(#fqopbzmp67g8)" style="stroke: #A80036; stroke-width: 1.0;"/><path d="M531,262 L531,272 L541,272 L531,262 " fill="#FBFB77" style="stroke: #A80036; stroke-width: 1.0;"/><text fill="#000000" font-family="sans-serif" font-size="13" lengthAdjust="spacingAndGlyphs" textLength="377" x="149" y="279.5684">エクストラなどの共通フォーマットを拡張したフォーマット定義</text><!--MD5=[5577348cf13f5f77464f961bef7277b5]
reverse link コアルール to 共通ルール--><path d="M57,52.14 C57,66.22 57,81.98 57,92.29 " fill="none" id="コアルール&lt;-共通ルール" style="stroke: #A80036; stroke-width: 1.0; stroke-dasharray: 7.0,7.0;"/><polygon fill="none" points="50,52.13,57,32.13,64,52.13,50,52.13" style="stroke: #A80036; stroke-width: 1.0;"/><!--MD5=[61579a87438075da7a77d4ef16fe1c88]
reverse link 共通ルール to 通常フォーマット--><path d="M57,136.7 C57,151.02 57,167.09 57,177.48 " fill="none" id="共通ルール&lt;-通常フォーマット" style="stroke: #A80036; stroke-width: 1.0;"/><polygon fill="none" points="50,136.69,57,116.69,64,136.69,50,136.69" style="stroke: #A80036; stroke-width: 1.0;"/><!--MD5=[02fc3bd81231d50c97705b06a5154e1d]
reverse link 通常フォーマット to 拡張フォーマット--><path d="M57,221.7 C57,236.02 57,252.09 57,262.48 " fill="none" id="通常フォーマット&lt;-拡張フォーマット" style="stroke: #A80036; stroke-width: 1.0;"/><polygon fill="none" points="50,221.69,57,201.69,64,221.69,50,221.69" style="stroke: #A80036; stroke-width: 1.0;"/><!--MD5=[f37bad134dac15d9aaa246c8503799ac]
link 拡張フォーマット to GMN9--><path d="M75.3,262.41 C92.2,252.03 118.4,237.83 143.5,232 C315.8,191.96 365.23,217.21 541.5,232 C608.57,237.63 684.66,251.56 735.41,261.94 " fill="none" id="拡張フォーマット-GMN9" style="stroke: #A80036; stroke-width: 1.0; stroke-dasharray: 7.0,7.0;"/><!--MD5=[073c0ff78401536e21f419f88beb4405]
@startuml

    hide members
    hide circle

    abstract class コアルール 
    abstract class 共通ルール

    コアルール <|.. 共通ルール
    共通ルール ^- - 通常フォーマット
    通常フォーマット ^- - 拡張フォーマット

    note right: "割込みルールなどのターン制ゲームに適応できる抽象的なルール定義"

    note right: "割込みルールなどのターン制ゲームに適応できる抽象的なルール定義"
    note right of 共通ルール : コアルールを具体化したルール定義
    note right of 通常フォーマット : ライト、スタンダードなどの具体的なフォーマット定義
    note right of 拡張フォーマット : エクストラなどの共通フォーマットを拡張したフォーマット定義

@enduml

PlantUML version 1.2020.07(Sun Apr 19 20:42:40 JST 2020)
(GPL source distribution)
Java Runtime: OpenJDK Runtime Environment
JVM: OpenJDK 64-Bit Server VM
Java Version: 13.0.2+8
Operating System: Mac OS X
Default Encoding: UTF-8
Language: ja
Country: JP
--></g></svg>