<?xml version="1.0" encoding="UTF-8" standalone="no"?><svg xmlns="http://www.w3.org/2000/svg" xmlns:xlink="http://www.w3.org/1999/xlink" contentScriptType="application/ecmascript" contentStyleType="text/css" height="207px" preserveAspectRatio="none" style="width:124px;height:207px;" version="1.1" viewBox="0 0 124 207" width="124px" zoomAndPan="magnify"><defs><filter height="300%" id="f3a5sdxu5fynn" width="300%" x="-1" y="-1"><feGaussianBlur result="blurOut" stdDeviation="2.0"/><feColorMatrix in="blurOut" result="blurOut2" type="matrix" values="0 0 0 0 0 0 0 0 0 0 0 0 0 0 0 0 0 0 .4 0"/><feOffset dx="4.0" dy="4.0" in="blurOut2" result="blurOut3"/><feBlend in="SourceGraphic" in2="blurOut3" mode="normal"/></filter></defs><g><line style="stroke: #A80036; stroke-width: 1.0; stroke-dasharray: 5.0,5.0;" x1="31" x2="31" y1="86.4883" y2="120.4883"/><line style="stroke: #A80036; stroke-width: 1.0; stroke-dasharray: 5.0,5.0;" x1="90" x2="90" y1="86.4883" y2="120.4883"/><text fill="#000000" font-family="sans-serif" font-size="14" lengthAdjust="spacingAndGlyphs" textLength="40" x="8" y="83.5352">Client</text><ellipse cx="31" cy="13" fill="#FEFECE" filter="url(#f3a5sdxu5fynn)" rx="8" ry="8" style="stroke: #A80036; stroke-width: 2.0;"/><path d="M31,21 L31,48 M18,29 L44,29 M31,48 L18,63 M31,48 L44,63 " fill="none" filter="url(#f3a5sdxu5fynn)" style="stroke: #A80036; stroke-width: 2.0;"/><text fill="#000000" font-family="sans-serif" font-size="14" lengthAdjust="spacingAndGlyphs" textLength="40" x="8" y="133.0234">Client</text><ellipse cx="31" cy="145.9766" fill="#FEFECE" filter="url(#f3a5sdxu5fynn)" rx="8" ry="8" style="stroke: #A80036; stroke-width: 2.0;"/><path d="M31,153.9766 L31,180.9766 M18,161.9766 L44,161.9766 M31,180.9766 L18,195.9766 M31,180.9766 L44,195.9766 " fill="none" filter="url(#f3a5sdxu5fynn)" style="stroke: #A80036; stroke-width: 2.0;"/><rect fill="#FEFECE" filter="url(#f3a5sdxu5fynn)" height="30.4883" style="stroke: #A80036; stroke-width: 1.5;" width="49" x="64" y="51"/><text fill="#000000" font-family="sans-serif" font-size="14" lengthAdjust="spacingAndGlyphs" textLength="35" x="71" y="71.5352">Filter</text><rect fill="#FEFECE" filter="url(#f3a5sdxu5fynn)" height="30.4883" style="stroke: #A80036; stroke-width: 1.5;" width="49" x="64" y="119.4883"/><text fill="#000000" font-family="sans-serif" font-size="14" lengthAdjust="spacingAndGlyphs" textLength="35" x="71" y="140.0234">Filter</text><polygon fill="#A80036" points="78.5,98.4883,88.5,102.4883,78.5,106.4883,82.5,102.4883" style="stroke: #A80036; stroke-width: 1.0;"/><line style="stroke: #A80036; stroke-width: 1.0;" x1="31" x2="84.5" y1="102.4883" y2="102.4883"/><!--MD5=[c49de4f910340af04e7223fda45b8da8]
@startuml
actor Client
Client -> Filter

@enduml

PlantUML version 1.2020.07(Sun Apr 19 20:42:40 JST 2020)
(GPL source distribution)
Java Runtime: OpenJDK Runtime Environment
JVM: OpenJDK 64-Bit Server VM
Java Version: 13.0.2+8
Operating System: Mac OS X
Default Encoding: UTF-8
Language: ja
Country: JP
--></g></svg>