<?xml version="1.0" encoding="UTF-8" standalone="no"?><svg xmlns="http://www.w3.org/2000/svg" xmlns:xlink="http://www.w3.org/1999/xlink" contentScriptType="application/ecmascript" contentStyleType="text/css" height="296px" preserveAspectRatio="none" style="width:128px;height:296px;" version="1.1" viewBox="0 0 128 296" width="128px" zoomAndPan="magnify"><defs><filter height="300%" id="fs9kek3wfemgc" width="300%" x="-1" y="-1"><feGaussianBlur result="blurOut" stdDeviation="2.0"/><feColorMatrix in="blurOut" result="blurOut2" type="matrix" values="0 0 0 0 0 0 0 0 0 0 0 0 0 0 0 0 0 0 .4 0"/><feOffset dx="4.0" dy="4.0" in="blurOut2" result="blurOut3"/><feBlend in="SourceGraphic" in2="blurOut3" mode="normal"/></filter></defs><g><!--MD5=[9949b6a0f851a4c533516d21eff9e832]
class core--><polygon fill="#FEFECE" filter="url(#fs9kek3wfemgc)" points="6,8,6,8.2102,16.0909,7.5857,26.1818,8.1933,36.2727,8.3997,46.3636,7.2866,56.4545,7.9223,66.5455,7.5735,76.6364,7.6165,86.7273,7.9318,96.8182,7.3086,106.9091,8.5536,117,8,116.3697,8,116.8022,18.1592,117.4319,28.3184,116.9142,38.4775,117.0682,48.6367,116.9681,58.7959,117,68.9551,117,69.1336,106.9091,69.1942,96.8182,69.5408,86.7273,69.6261,76.6364,69.6343,66.5455,69.2097,56.4545,69.4187,46.3636,69.6573,36.2727,68.2339,26.1818,69.6336,16.0909,68.6586,6,68.9551,6.5338,68.9551,5.505,58.7959,5.9315,48.6367,6.7416,38.4775,5.9513,28.3184,6.1053,18.1592,6,8" style="stroke: #A80036; stroke-width: 1.5;"/><polygon fill="#A9DCDF" points="56.3608,26.6756,54.7484,28.8788,52.8412,32.1057,50.1136,34.2804,47.2474,35.4696,44.962,35.5728,42.0247,34.0855,39.2532,33.1139,37.1495,31.1412,36.0461,28.8828,35.3917,27.0845,34.7506,24.7357,33.71,22.7145,34.5096,20.741,35.2102,18.5792,37.8393,16.8695,39.689,14.6511,41.9784,13.9144,44.7001,13.2801,48.1904,13.657,50.1021,14.5585,52.3247,14.9672,55.0272,17.736,55.9693,20.659,56.3786,22.6534,55.915,25.9399" style="stroke: #A80036; stroke-width: 1.0;"/><path d="M45.4133,19.5981 L44.2595,24.6699 L46.5754,24.6699 Z M43.9191,17.3569 L46.9157,17.3569 L50.2609,29.75 L47.8122,29.75 L47.0485,26.687 L43.7697,26.687 L43.0227,29.75 L40.5739,29.75 Z "/><text fill="#000000" font-family="sans-serif" font-size="12" font-style="italic" lengthAdjust="spacingAndGlyphs" textLength="25" x="64.7" y="28.5352">core</text><path d="M7,40 L7,40.2802 L16.9091,39.4476 L26.8182,40.2577 L36.7273,40.5329 L46.6364,39.0488 L56.5455,39.8964 L66.4545,39.4313 L76.3636,39.4887 L86.2727,39.9091 L96.1818,39.0782 L106.0909,40.7382 L116,40 " fill="#FEFECE" style="stroke: #A80036; stroke-width: 1.5;"/><path d="M7,48 L7,48.2802 L16.9091,47.4476 L26.8182,48.2577 L36.7273,48.5329 L46.6364,47.0488 L56.5455,47.8964 L66.4545,47.4313 L76.3636,47.4887 L86.2727,47.9091 L96.1818,47.0782 L106.0909,48.7382 L116,48 " fill="#FEFECE" style="stroke: #A80036; stroke-width: 1.5;"/><polygon fill="#84BE84" points="20.0166,59.7297,19.5768,60.3306,19.0567,61.2106,18.3128,61.8037,17.5311,62.1281,16.9078,62.1562,16.1067,61.7506,15.3509,61.4856,14.7771,60.9476,14.4762,60.3317,14.2977,59.8412,14.1229,59.2006,13.8391,58.6494,14.0572,58.1112,14.2482,57.5216,14.9653,57.0553,15.4697,56.4503,16.0941,56.2494,16.8364,56.0764,17.7883,56.1792,18.3097,56.4251,18.9158,56.5365,19.6529,57.2916,19.9098,58.0888,20.0214,58.6327,19.895,59.5291" style="stroke: #038048; stroke-width: 1.0;"/><text fill="#000000" font-family="sans-serif" font-size="11" lengthAdjust="spacingAndGlyphs" textLength="85" x="26" y="62.6348">hiddenMethod()</text><!--MD5=[307bf395be6ddcf552367f8e4d14c618]
class common--><polygon fill="#FEFECE" filter="url(#fs9kek3wfemgc)" points="21,129,21,129.2102,31.125,128.5857,41.25,129.1933,51.375,129.3997,61.5,128.2866,71.625,128.9223,81.75,128.5735,91.875,128.6165,102,129,101.9318,129,101.3086,138.6,102.5536,148.2,101.3697,157.8,101.8022,167.4,102,177,102,177.4319,91.875,176.9142,81.75,177.0682,71.625,176.9681,61.5,177.1785,51.375,177.2391,41.25,177.5857,31.125,177.6711,21,177,21.6793,177,21.2546,167.4,21.4636,157.8,21.7022,148.2,20.2788,138.6,21,129" style="stroke: #A80036; stroke-width: 1.5;"/><polygon fill="#A9DCDF" points="47.0608,147.6756,45.4484,149.8788,43.5412,153.1057,40.8136,155.2804,37.9474,156.4696,35.662,156.5728,32.7247,155.0855,29.9532,154.1139,27.8495,152.1412,26.7461,149.8828,26.0917,148.0845,25.4506,145.7357,24.41,143.7145,25.2096,141.741,25.9102,139.5792,28.5393,137.8695,30.389,135.6511,32.6784,134.9144,35.4001,134.2801,38.8904,134.657,40.8021,135.5585,43.0247,135.9672,45.7272,138.736,46.6693,141.659,47.0786,143.6534,46.615,146.9399" style="stroke: #A80036; stroke-width: 1.0;"/><path d="M36.1133,140.5981 L34.9595,145.6699 L37.2754,145.6699 Z M34.6191,138.3569 L37.6157,138.3569 L40.9609,150.75 L38.5122,150.75 L37.7485,147.687 L34.4697,147.687 L33.7227,150.75 L31.2739,150.75 Z "/><text fill="#000000" font-family="sans-serif" font-size="12" font-style="italic" lengthAdjust="spacingAndGlyphs" textLength="49" x="50" y="149.5352">common</text><path d="M22,161 L22,161.2802 L31.875,160.4476 L41.75,161.2577 L51.625,161.5329 L61.5,160.0488 L71.375,160.8964 L81.25,160.4313 L91.125,160.4887 L101,161 " fill="#FEFECE" style="stroke: #A80036; stroke-width: 1.5;"/><path d="M22,169 L22,169.2802 L31.875,168.4476 L41.75,169.2577 L51.625,169.5329 L61.5,168.0488 L71.375,168.8964 L81.25,168.4313 L91.125,168.4887 L101,169 " fill="#FEFECE" style="stroke: #A80036; stroke-width: 1.5;"/><!--MD5=[2cd78c2681c0d6db57ee50e0fac8f8e0]
class baseformat--><polygon fill="#FEFECE" filter="url(#fs9kek3wfemgc)" points="12.5,237,12.5,237.2102,22.3,236.5857,32.1,237.1933,41.9,237.3997,51.7,236.2866,61.5,236.9223,71.3,236.5735,81.1,236.6165,90.9,236.9318,100.7,236.3086,110.5,237,111.0536,237,109.8697,246.6,110.3022,256.2,110.9319,265.8,110.4142,275.4,110.5,285,110.5,285.0682,100.7,284.9681,90.9,285.1785,81.1,285.2391,71.3,285.5857,61.5,285.6711,51.7,285.6793,41.9,285.2546,32.1,285.4636,22.3,285.7022,12.5,285,11.7788,285,13.1785,275.4,12.2035,265.8,13.0338,256.2,12.005,246.6,12.5,237" style="stroke: #A80036; stroke-width: 1.5;"/><polygon fill="#ADD1B2" points="38.5608,255.6756,36.9484,257.8788,35.0412,261.1057,32.3136,263.2804,29.4474,264.4696,27.162,264.5728,24.2247,263.0855,21.4532,262.1139,19.3495,260.1412,18.2461,257.8828,17.5917,256.0845,16.9506,253.7357,15.91,251.7145,16.7096,249.741,17.4102,247.5792,20.0393,245.8695,21.889,243.6511,24.1784,242.9144,26.9001,242.2801,30.3904,242.657,32.3021,243.5585,34.5247,243.9672,37.2272,246.736,38.1693,249.659,38.5786,251.6534,38.115,254.9399" style="stroke: #A80036; stroke-width: 1.0;"/><path d="M29.9731,259.1431 Q29.3921,259.4419 28.7529,259.5913 Q28.1138,259.7407 27.4082,259.7407 Q24.9014,259.7407 23.5815,258.0889 Q22.2617,256.437 22.2617,253.3159 Q22.2617,250.1865 23.5815,248.5347 Q24.9014,246.8828 27.4082,246.8828 Q28.1138,246.8828 28.7612,247.0322 Q29.4087,247.1816 29.9731,247.4805 L29.9731,250.2031 Q29.3423,249.6221 28.7488,249.3523 Q28.1553,249.0825 27.5244,249.0825 Q26.1797,249.0825 25.4949,250.1492 Q24.8101,251.2158 24.8101,253.3159 Q24.8101,255.4077 25.4949,256.4744 Q26.1797,257.541 27.5244,257.541 Q28.1553,257.541 28.7488,257.2712 Q29.3423,257.0015 29.9731,256.4204 Z "/><text fill="#000000" font-family="sans-serif" font-size="12" lengthAdjust="spacingAndGlyphs" textLength="66" x="41.5" y="257.5352">baseformat</text><path d="M13.5,269 L13.5,269.2802 L23.1,268.4476 L32.7,269.2577 L42.3,269.5329 L51.9,268.0488 L61.5,268.8964 L71.1,268.4313 L80.7,268.4887 L90.3,268.9091 L99.9,268.0782 L109.5,269 " fill="#FEFECE" style="stroke: #A80036; stroke-width: 1.5;"/><path d="M13.5,277 L13.5,277.2802 L23.1,276.4476 L32.7,277.2577 L42.3,277.5329 L51.9,276.0488 L61.5,276.8964 L71.1,276.4313 L80.7,276.4887 L90.3,276.9091 L99.9,276.0782 L109.5,277 " fill="#FEFECE" style="stroke: #A80036; stroke-width: 1.5;"/><!--MD5=[0a423c99ee0ef137b5d99b7451b8d5db]
reverse link core to common--><path d="M61.5,89.11 L61.5934,89.11 L61.3159,97.022 L61.5859,104.934 L61.6776,112.846 L61.1829,120.758 L61.5,128.67 " fill="none" style="stroke: #A80036; stroke-width: 1.0; stroke-dasharray: 7.0,7.0;"/><polygon fill="none" points="54.5,89.06,54.5661,89.0831,55.7696,85.0144,57.3608,81.0813,58.8257,77.104,59.8756,72.9814,61.5,69.06,61.4755,69.0514,62.7658,73.013,64.1793,77.0178,65.6786,81.0525,66.8825,84.9839,68.5,89.06,68.5,89.2445,65.7,88.8499,62.9,88.9941,60.1,89.204,57.3,89.0314,54.5,89.06" style="stroke: #A80036; stroke-width: 1.0;"/><!--MD5=[7cc523e8ff24c7a6708b29d34f55bb7d]
reverse link common to baseformat--><path d="M61.5,197.02 L61.5934,197.02 L61.3159,204.952 L61.5859,212.884 L61.6776,220.816 L61.1829,228.748 L61.5,236.68 " fill="none" style="stroke: #A80036; stroke-width: 1.0;"/><polygon fill="none" points="54.5,197,54.5661,197.0231,55.7696,192.9544,57.3608,189.0213,58.8257,185.044,59.8756,180.9214,61.5,177,61.4755,176.9914,62.7658,180.953,64.1793,184.9578,65.6786,188.9925,66.8825,192.9239,68.5,197,68.5,197.1845,65.7,196.7899,62.9,196.9341,60.1,197.144,57.3,196.9714,54.5,197" style="stroke: #A80036; stroke-width: 1.0;"/><!--MD5=[4ce1e71a44d4412c7328361b82983a38]
@startuml
skinparam handwritten true
abstract class core {
    +hiddenMethod()
}
abstract class common
core <|.. common
common ^- - baseformat

@enduml

PlantUML version 1.2020.07(Sun Apr 19 20:42:40 JST 2020)
(GPL source distribution)
Java Runtime: OpenJDK Runtime Environment
JVM: OpenJDK 64-Bit Server VM
Java Version: 13.0.2+8
Operating System: Mac OS X
Default Encoding: UTF-8
Language: ja
Country: JP
--></g></svg>