<?xml version="1.0" encoding="UTF-8" standalone="no"?><svg xmlns="http://www.w3.org/2000/svg" xmlns:xlink="http://www.w3.org/1999/xlink" contentScriptType="application/ecmascript" contentStyleType="text/css" height="297px" preserveAspectRatio="none" style="width:444px;height:297px;" version="1.1" viewBox="0 0 444 297" width="444px" zoomAndPan="magnify"><defs><filter height="300%" id="f3vmxgwd21kww" width="300%" x="-1" y="-1"><feGaussianBlur result="blurOut" stdDeviation="2.0"/><feColorMatrix in="blurOut" result="blurOut2" type="matrix" values="0 0 0 0 0 0 0 0 0 0 0 0 0 0 0 0 0 0 .4 0"/><feOffset dx="4.0" dy="4.0" in="blurOut2" result="blurOut3"/><feBlend in="SourceGraphic" in2="blurOut3" mode="normal"/></filter></defs><g><!--MD5=[290b23b195cda7e553d7254bfd9175c6]
class コアルール--><rect fill="#FEFECE" filter="url(#f3vmxgwd21kww)" height="24.1328" id="コアルール" style="stroke: #A80036; stroke-width: 1.5;" width="66" x="24" y="8.5"/><text fill="#000000" font-family="sans-serif" font-size="12" font-style="italic" lengthAdjust="spacingAndGlyphs" textLength="60" x="27" y="25.1016">コアルール</text><!--MD5=[dfc0cd2a72eeb5823a75133eb3e753c8]
class 共通ルール--><rect fill="#FEFECE" filter="url(#f3vmxgwd21kww)" height="24.1328" id="共通ルール" style="stroke: #A80036; stroke-width: 1.5;" width="66" x="24" y="93.5"/><text fill="#000000" font-family="sans-serif" font-size="12" font-style="italic" lengthAdjust="spacingAndGlyphs" textLength="60" x="27" y="110.1016">共通ルール</text><!--MD5=[8c6a0ae348e7a404ac950b7e3e3cae03]
class 通常フォーマット--><rect fill="#FEFECE" filter="url(#f3vmxgwd21kww)" height="24.1328" id="通常フォーマット" style="stroke: #A80036; stroke-width: 1.5;" width="102" x="6" y="178"/><text fill="#000000" font-family="sans-serif" font-size="12" lengthAdjust="spacingAndGlyphs" textLength="96" x="9" y="194.6016">通常フォーマット</text><!--MD5=[1b7b03c11ecb8bc64ccfd19cc7a1f7d1]
class 拡張フォーマット--><rect fill="#FEFECE" filter="url(#f3vmxgwd21kww)" height="24.1328" id="拡張フォーマット" style="stroke: #A80036; stroke-width: 1.5;" width="102" x="6" y="262"/><text fill="#000000" font-family="sans-serif" font-size="12" lengthAdjust="spacingAndGlyphs" textLength="96" x="9" y="278.6016">拡張フォーマット</text><path d="M125.5,8 L125.5,16.5 L90.39,20.5 L125.5,24.5 L125.5,33.3105 A0,0 0 0 0 125.5,33.3105 L432.5,33.3105 A0,0 0 0 0 432.5,33.3105 L432.5,18 L422.5,8 L125.5,8 A0,0 0 0 0 125.5,8 " fill="#FBFB77" filter="url(#f3vmxgwd21kww)" style="stroke: #A80036; stroke-width: 1.0;"/><path d="M422.5,8 L422.5,18 L432.5,18 L422.5,8 " fill="#FBFB77" style="stroke: #A80036; stroke-width: 1.0;"/><text fill="#000000" font-family="sans-serif" font-size="13" lengthAdjust="spacingAndGlyphs" textLength="286" x="131.5" y="25.5684">ターン制ゲームに適応できる抽象的なルール定義</text><path d="M125.5,93 L125.5,101.5 L90.24,105.5 L125.5,109.5 L125.5,118.3105 A0,0 0 0 0 125.5,118.3105 L354.5,118.3105 A0,0 0 0 0 354.5,118.3105 L354.5,103 L344.5,93 L125.5,93 A0,0 0 0 0 125.5,93 " fill="#FBFB77" filter="url(#f3vmxgwd21kww)" style="stroke: #A80036; stroke-width: 1.0;"/><path d="M344.5,93 L344.5,103 L354.5,103 L344.5,93 " fill="#FBFB77" style="stroke: #A80036; stroke-width: 1.0;"/><text fill="#000000" font-family="sans-serif" font-size="13" lengthAdjust="spacingAndGlyphs" textLength="208" x="131.5" y="110.5684">コアルールを具体化したルール定義</text><!--MD5=[5577348cf13f5f77464f961bef7277b5]
reverse link コアルール to 共通ルール--><path d="M57,52.7 C57,67.02 57,83.09 57,93.48 " fill="none" id="コアルール&lt;-共通ルール" style="stroke: #A80036; stroke-width: 1.0; stroke-dasharray: 7.0,7.0;"/><polygon fill="none" points="50,52.69,57,32.69,64,52.69,50,52.69" style="stroke: #A80036; stroke-width: 1.0;"/><!--MD5=[61579a87438075da7a77d4ef16fe1c88]
reverse link 共通ルール to 通常フォーマット--><path d="M57,137.64 C57,151.72 57,167.48 57,177.79 " fill="none" id="共通ルール&lt;-通常フォーマット" style="stroke: #A80036; stroke-width: 1.0;"/><polygon fill="none" points="50,137.63,57,117.63,64,137.63,50,137.63" style="stroke: #A80036; stroke-width: 1.0;"/><!--MD5=[02fc3bd81231d50c97705b06a5154e1d]
reverse link 通常フォーマット to 拡張フォーマット--><path d="M57,222.2 C57,236.14 57,251.68 57,261.85 " fill="none" id="通常フォーマット&lt;-拡張フォーマット" style="stroke: #A80036; stroke-width: 1.0;"/><polygon fill="none" points="50,222.06,57,202.06,64,222.06,50,222.06" style="stroke: #A80036; stroke-width: 1.0;"/><!--MD5=[8de03e983565ca5b83bda1fd785c1414]
@startuml

    hide members
    hide circle

    abstract class コアルール 
    abstract class 共通ルール

    コアルール <|.. 共通ルール
    共通ルール ^- - 通常フォーマット
    通常フォーマット ^- - 拡張フォーマット

    note right of コアルール : ターン制ゲームに適応できる抽象的なルール定義
    note right of 共通ルール : コアルールを具体化したルール定義
    

@enduml

PlantUML version 1.2020.07(Sun Apr 19 20:42:40 JST 2020)
(GPL source distribution)
Java Runtime: OpenJDK Runtime Environment
JVM: OpenJDK 64-Bit Server VM
Java Version: 13.0.2+8
Operating System: Mac OS X
Default Encoding: UTF-8
Language: ja
Country: JP
--></g></svg>