<?xml version="1.0" encoding="UTF-8" standalone="no"?><svg xmlns="http://www.w3.org/2000/svg" xmlns:xlink="http://www.w3.org/1999/xlink" contentScriptType="application/ecmascript" contentStyleType="text/css" height="283px" preserveAspectRatio="none" style="width:115px;height:283px;" version="1.1" viewBox="0 0 115 283" width="115px" zoomAndPan="magnify"><defs><filter height="300%" id="fj7lpmys3ygel" width="300%" x="-1" y="-1"><feGaussianBlur result="blurOut" stdDeviation="2.0"/><feColorMatrix in="blurOut" result="blurOut2" type="matrix" values="0 0 0 0 0 0 0 0 0 0 0 0 0 0 0 0 0 0 .4 0"/><feOffset dx="4.0" dy="4.0" in="blurOut2" result="blurOut3"/><feBlend in="SourceGraphic" in2="blurOut3" mode="normal"/></filter></defs><g><!--MD5=[9949b6a0f851a4c533516d21eff9e832]
class core--><polygon fill="#FEFECE" filter="url(#fj7lpmys3ygel)" points="26.5,8,26.5,8.2102,36,7.5857,45.5,8.1933,55,8.3997,64.5,7.2866,74,7.9223,83.5,8,83.0735,8,83.1165,17.6,83.4318,27.2,82.8086,36.8,84.0536,46.4,83.5,56,83.5,55.3697,74,55.8022,64.5,56.4319,55,55.9142,45.5,56.0682,36,55.9681,26.5,56,26.6785,56,26.7391,46.4,27.0857,36.8,27.1711,27.2,27.1793,17.6,26.5,8" style="stroke: #A80036; stroke-width: 1.5;"/><polygon fill="#A9DCDF" points="52.5608,26.6756,50.9484,28.8788,49.0412,32.1057,46.3136,34.2804,43.4474,35.4696,41.162,35.5728,38.2247,34.0855,35.4532,33.1139,33.3495,31.1412,32.2461,28.8828,31.5917,27.0845,30.9506,24.7357,29.91,22.7145,30.7096,20.741,31.4102,18.5792,34.0393,16.8695,35.889,14.6511,38.1784,13.9144,40.9001,13.2801,44.3904,13.657,46.3021,14.5585,48.5247,14.9672,51.2272,17.736,52.1693,20.659,52.5786,22.6534,52.115,25.9399" style="stroke: #A80036; stroke-width: 1.0;"/><path d="M41.6133,19.5981 L40.4595,24.6699 L42.7754,24.6699 Z M40.1191,17.3569 L43.1157,17.3569 L46.4609,29.75 L44.0122,29.75 L43.2485,26.687 L39.9697,26.687 L39.2227,29.75 L36.7739,29.75 Z "/><text fill="#000000" font-family="sans-serif" font-size="12" font-style="italic" lengthAdjust="spacingAndGlyphs" textLength="25" x="55.5" y="28.5352">core</text><path d="M27.5,40 L27.5,40.2802 L36.6667,39.4476 L45.8333,40.2577 L55,40.5329 L64.1667,39.0488 L73.3333,39.8964 L82.5,40 " fill="#FEFECE" style="stroke: #A80036; stroke-width: 1.5;"/><path d="M27.5,48 L27.5,48.2802 L36.6667,47.4476 L45.8333,48.2577 L55,48.5329 L64.1667,47.0488 L73.3333,47.8964 L82.5,48 " fill="#FEFECE" style="stroke: #A80036; stroke-width: 1.5;"/><!--MD5=[307bf395be6ddcf552367f8e4d14c618]
class common--><polygon fill="#FEFECE" filter="url(#fj7lpmys3ygel)" points="14.5,116,14.5,116.2102,24.625,115.5857,34.75,116.1933,44.875,116.3997,55,115.2866,65.125,115.9223,75.25,115.5735,85.375,115.6165,95.5,116,95.4318,116,94.8086,125.6,96.0536,135.2,94.8697,144.8,95.3022,154.4,95.5,164,95.5,164.4319,85.375,163.9142,75.25,164.0682,65.125,163.9681,55,164.1785,44.875,164.2391,34.75,164.5857,24.625,164.6711,14.5,164,15.1793,164,14.7546,154.4,14.9636,144.8,15.2022,135.2,13.7788,125.6,14.5,116" style="stroke: #A80036; stroke-width: 1.5;"/><polygon fill="#A9DCDF" points="40.5608,134.6756,38.9484,136.8788,37.0412,140.1057,34.3136,142.2804,31.4474,143.4696,29.162,143.5728,26.2247,142.0855,23.4532,141.1139,21.3495,139.1412,20.2461,136.8828,19.5917,135.0845,18.9506,132.7357,17.91,130.7145,18.7096,128.741,19.4102,126.5792,22.0393,124.8695,23.889,122.6511,26.1784,121.9144,28.9001,121.2801,32.3904,121.657,34.3021,122.5585,36.5247,122.9672,39.2272,125.736,40.1693,128.659,40.5786,130.6534,40.115,133.9399" style="stroke: #A80036; stroke-width: 1.0;"/><path d="M29.6133,127.5981 L28.4595,132.6699 L30.7754,132.6699 Z M28.1191,125.3569 L31.1157,125.3569 L34.4609,137.75 L32.0122,137.75 L31.2485,134.687 L27.9697,134.687 L27.2227,137.75 L24.7739,137.75 Z "/><text fill="#000000" font-family="sans-serif" font-size="12" font-style="italic" lengthAdjust="spacingAndGlyphs" textLength="49" x="43.5" y="136.5352">common</text><path d="M15.5,148 L15.5,148.2802 L25.375,147.4476 L35.25,148.2577 L45.125,148.5329 L55,147.0488 L64.875,147.8964 L74.75,147.4313 L84.625,147.4887 L94.5,148 " fill="#FEFECE" style="stroke: #A80036; stroke-width: 1.5;"/><path d="M15.5,156 L15.5,156.2802 L25.375,155.4476 L35.25,156.2577 L45.125,156.5329 L55,155.0488 L64.875,155.8964 L74.75,155.4313 L84.625,155.4887 L94.5,156 " fill="#FEFECE" style="stroke: #A80036; stroke-width: 1.5;"/><!--MD5=[2cd78c2681c0d6db57ee50e0fac8f8e0]
class baseformat--><polygon fill="#FEFECE" filter="url(#fj7lpmys3ygel)" points="6,224,6,224.2102,15.8,223.5857,25.6,224.1933,35.4,224.3997,45.2,223.2866,55,223.9223,64.8,223.5735,74.6,223.6165,84.4,223.9318,94.2,223.3086,104,224,104.5536,224,103.3697,233.6,103.8022,243.2,104.4319,252.8,103.9142,262.4,104,272,104,272.0682,94.2,271.9681,84.4,272.1785,74.6,272.2391,64.8,272.5857,55,272.6711,45.2,272.6793,35.4,272.2546,25.6,272.4636,15.8,272.7022,6,272,5.2788,272,6.6785,262.4,5.7035,252.8,6.5338,243.2,5.505,233.6,6,224" style="stroke: #A80036; stroke-width: 1.5;"/><polygon fill="#ADD1B2" points="32.0608,242.6756,30.4484,244.8788,28.5412,248.1057,25.8136,250.2804,22.9474,251.4696,20.662,251.5728,17.7247,250.0855,14.9532,249.1139,12.8495,247.1412,11.7461,244.8828,11.0917,243.0845,10.4506,240.7357,9.41,238.7145,10.2096,236.741,10.9102,234.5792,13.5393,232.8695,15.389,230.6511,17.6784,229.9144,20.4001,229.2801,23.8904,229.657,25.8021,230.5585,28.0247,230.9672,30.7272,233.736,31.6693,236.659,32.0786,238.6534,31.615,241.9399" style="stroke: #A80036; stroke-width: 1.0;"/><path d="M23.4731,246.1431 Q22.8921,246.4419 22.2529,246.5913 Q21.6138,246.7407 20.9082,246.7407 Q18.4014,246.7407 17.0815,245.0889 Q15.7617,243.437 15.7617,240.3159 Q15.7617,237.1865 17.0815,235.5347 Q18.4014,233.8828 20.9082,233.8828 Q21.6138,233.8828 22.2612,234.0322 Q22.9087,234.1816 23.4731,234.4805 L23.4731,237.2031 Q22.8423,236.6221 22.2488,236.3523 Q21.6553,236.0825 21.0244,236.0825 Q19.6797,236.0825 18.9949,237.1492 Q18.3101,238.2158 18.3101,240.3159 Q18.3101,242.4077 18.9949,243.4744 Q19.6797,244.541 21.0244,244.541 Q21.6553,244.541 22.2488,244.2712 Q22.8423,244.0015 23.4731,243.4204 Z "/><text fill="#000000" font-family="sans-serif" font-size="12" lengthAdjust="spacingAndGlyphs" textLength="66" x="35" y="244.5352">baseformat</text><path d="M7,256 L7,256.2802 L16.6,255.4476 L26.2,256.2577 L35.8,256.5329 L45.4,255.0488 L55,255.8964 L64.6,255.4313 L74.2,255.4887 L83.8,255.9091 L93.4,255.0782 L103,256 " fill="#FEFECE" style="stroke: #A80036; stroke-width: 1.5;"/><path d="M7,264 L7,264.2802 L16.6,263.4476 L26.2,264.2577 L35.8,264.5329 L45.4,263.0488 L55,263.8964 L64.6,263.4313 L74.2,263.4887 L83.8,263.9091 L93.4,263.0782 L103,264 " fill="#FEFECE" style="stroke: #A80036; stroke-width: 1.5;"/><!--MD5=[0a423c99ee0ef137b5d99b7451b8d5db]
reverse link core to common--><path d="M55,76.02 L55.0934,76.02 L54.8159,83.952 L55.0859,91.884 L55.1776,99.816 L54.6829,107.748 L55,115.68 " fill="none" style="stroke: #A80036; stroke-width: 1.0; stroke-dasharray: 7.0,7.0;"/><polygon fill="none" points="48,76,48.0661,76.0231,49.2696,71.9544,50.8608,68.0213,52.3257,64.044,53.3756,59.9214,55,56,54.9755,55.9914,56.2658,59.953,57.6793,63.9578,59.1786,67.9925,60.3825,71.9239,62,76,62,76.1845,59.2,75.7899,56.4,75.9341,53.6,76.144,50.8,75.9714,48,76" style="stroke: #A80036; stroke-width: 1.0;"/><!--MD5=[7cc523e8ff24c7a6708b29d34f55bb7d]
reverse link common to baseformat--><path d="M55,184.02 L55.0934,184.02 L54.8159,191.952 L55.0859,199.884 L55.1776,207.816 L54.6829,215.748 L55,223.68 " fill="none" style="stroke: #A80036; stroke-width: 1.0;"/><polygon fill="none" points="48,184,48.0661,184.0231,49.2696,179.9544,50.8608,176.0213,52.3257,172.044,53.3756,167.9214,55,164,54.9755,163.9914,56.2658,167.953,57.6793,171.9578,59.1786,175.9925,60.3825,179.9239,62,184,62,184.1845,59.2,183.7899,56.4,183.9341,53.6,184.144,50.8,183.9714,48,184" style="stroke: #A80036; stroke-width: 1.0;"/><!--MD5=[0fc02fc95770260e917a94b12372e98b]
@startuml
skinparam handwritten true
abstract class core
abstract class common
core <|.. common
common ^- - baseformat

@enduml

PlantUML version 1.2020.07(Sun Apr 19 20:42:40 JST 2020)
(GPL source distribution)
Java Runtime: OpenJDK Runtime Environment
JVM: OpenJDK 64-Bit Server VM
Java Version: 13.0.2+8
Operating System: Mac OS X
Default Encoding: UTF-8
Language: ja
Country: JP
--></g></svg>