<?xml version="1.0" encoding="UTF-8" standalone="no"?><svg xmlns="http://www.w3.org/2000/svg" xmlns:xlink="http://www.w3.org/1999/xlink" contentScriptType="application/ecmascript" contentStyleType="text/css" height="295px" preserveAspectRatio="none" style="width:119px;height:295px;" version="1.1" viewBox="0 0 119 295" width="119px" zoomAndPan="magnify"><defs><filter height="300%" id="f1krqh6s7ni5o2" width="300%" x="-1" y="-1"><feGaussianBlur result="blurOut" stdDeviation="2.0"/><feColorMatrix in="blurOut" result="blurOut2" type="matrix" values="0 0 0 0 0 0 0 0 0 0 0 0 0 0 0 0 0 0 .4 0"/><feOffset dx="4.0" dy="4.0" in="blurOut2" result="blurOut3"/><feBlend in="SourceGraphic" in2="blurOut3" mode="normal"/></filter></defs><g><!--MD5=[290b23b195cda7e553d7254bfd9175c6]
class コアルール--><polygon fill="#FEFECE" filter="url(#f1krqh6s7ni5o2)" points="24,8,24,8.2102,33.4286,7.5857,42.8571,8.1933,52.2857,8.3997,61.7143,7.2866,71.1429,7.9223,80.5714,7.5735,90,8,89.8722,8,89.9773,12.8266,89.7695,17.6531,90.1845,22.4797,89.7899,27.3063,90,32.1328,90,31.935,80.5714,32.5648,71.1429,32.047,61.7143,32.2011,52.2857,32.1009,42.8571,32.3113,33.4286,32.3719,24,32.1328,24.1952,32.1328,24.2237,27.3063,24.2264,22.4797,24.0849,17.6531,24.1545,12.8266,24,8" style="stroke: #A80036; stroke-width: 1.5;"/><text fill="#000000" font-family="sans-serif" font-size="12" font-style="italic" lengthAdjust="spacingAndGlyphs" textLength="60" x="27" y="24.6016">コアルール</text><!--MD5=[dfc0cd2a72eeb5823a75133eb3e753c8]
class 共通ルール--><polygon fill="#FEFECE" filter="url(#f1krqh6s7ni5o2)" points="24,92,24,92.2102,33.4286,91.5857,42.8571,92.1933,52.2857,92.3997,61.7143,91.2866,71.1429,91.9223,80.5714,91.5735,90,92,89.8722,92,89.9773,96.8266,89.7695,101.6531,90.1845,106.4797,89.7899,111.3063,90,116.1328,90,115.935,80.5714,116.5648,71.1429,116.047,61.7143,116.2011,52.2857,116.1009,42.8571,116.3113,33.4286,116.3719,24,116.1328,24.1952,116.1328,24.2237,111.3063,24.2264,106.4797,24.0849,101.6531,24.1545,96.8266,24,92" style="stroke: #A80036; stroke-width: 1.5;"/><text fill="#000000" font-family="sans-serif" font-size="12" font-style="italic" lengthAdjust="spacingAndGlyphs" textLength="60" x="27" y="108.6016">共通ルール</text><!--MD5=[8c6a0ae348e7a404ac950b7e3e3cae03]
class 通常フォーマット--><polygon fill="#FEFECE" filter="url(#f1krqh6s7ni5o2)" points="6,176,6,176.2102,16.2,175.5857,26.4,176.1933,36.6,176.3997,46.8,175.2866,57,175.9223,67.2,175.5735,77.4,175.6165,87.6,175.9318,97.8,175.3086,108,176,108.1845,176,107.7899,180.8266,107.9341,185.6531,108.144,190.4797,107.9714,195.3063,108,200.1328,108,200.2011,97.8,200.1009,87.6,200.3113,77.4,200.3719,67.2,200.7185,57,200.8039,46.8,200.8121,36.6,200.3874,26.4,200.5964,16.2,200.835,6,200.1328,5.7596,200.1328,6.2262,195.3063,5.9012,190.4797,6.1779,185.6531,5.835,180.8266,6,176" style="stroke: #A80036; stroke-width: 1.5;"/><text fill="#000000" font-family="sans-serif" font-size="12" lengthAdjust="spacingAndGlyphs" textLength="96" x="9" y="192.6016">通常フォーマット</text><!--MD5=[1b7b03c11ecb8bc64ccfd19cc7a1f7d1]
class 拡張フォーマット--><polygon fill="#FEFECE" filter="url(#f1krqh6s7ni5o2)" points="6,260,6,260.2102,16.2,259.5857,26.4,260.1933,36.6,260.3997,46.8,259.2866,57,259.9223,67.2,259.5735,77.4,259.6165,87.6,259.9318,97.8,259.3086,108,260,108.1845,260,107.7899,264.8266,107.9341,269.6531,108.144,274.4797,107.9714,279.3063,108,284.1328,108,284.2011,97.8,284.1009,87.6,284.3113,77.4,284.3719,67.2,284.7185,57,284.8039,46.8,284.8121,36.6,284.3874,26.4,284.5964,16.2,284.835,6,284.1328,5.7596,284.1328,6.2262,279.3063,5.9012,274.4797,6.1779,269.6531,5.835,264.8266,6,260" style="stroke: #A80036; stroke-width: 1.5;"/><text fill="#000000" font-family="sans-serif" font-size="12" lengthAdjust="spacingAndGlyphs" textLength="96" x="9" y="276.6016">拡張フォーマット</text><!--MD5=[5577348cf13f5f77464f961bef7277b5]
reverse link コアルール to 共通ルール--><path d="M57,52.2 L57.0934,52.2 L56.8159,60.13 L57.0859,68.06 L57.1776,75.99 L56.6829,83.92 L57,91.85 " fill="none" style="stroke: #A80036; stroke-width: 1.0; stroke-dasharray: 7.0,7.0;"/><polygon fill="none" points="50,52.06,50.0661,52.0831,51.2696,48.0144,52.8608,44.0813,54.3257,40.104,55.3756,35.9814,57,32.06,56.9755,32.0514,58.2658,36.013,59.6793,40.0178,61.1786,44.0525,62.3825,47.9839,64,52.06,64,52.2445,61.2,51.8499,58.4,51.9941,55.6,52.204,52.8,52.0314,50,52.06" style="stroke: #A80036; stroke-width: 1.0;"/><!--MD5=[61579a87438075da7a77d4ef16fe1c88]
reverse link 共通ルール to 通常フォーマット--><path d="M57,136.2 L57.0934,136.2 L56.8159,144.13 L57.0859,152.06 L57.1776,159.99 L56.6829,167.92 L57,175.85 " fill="none" style="stroke: #A80036; stroke-width: 1.0;"/><polygon fill="none" points="50,136.06,50.0661,136.0831,51.2696,132.0144,52.8608,128.0813,54.3257,124.104,55.3756,119.9814,57,116.06,56.9755,116.0514,58.2658,120.013,59.6793,124.0178,61.1786,128.0525,62.3825,131.9839,64,136.06,64,136.2445,61.2,135.8499,58.4,135.9941,55.6,136.204,52.8,136.0314,50,136.06" style="stroke: #A80036; stroke-width: 1.0;"/><!--MD5=[02fc3bd81231d50c97705b06a5154e1d]
reverse link 通常フォーマット to 拡張フォーマット--><path d="M57,220.2 L57.0934,220.2 L56.8159,228.13 L57.0859,236.06 L57.1776,243.99 L56.6829,251.92 L57,259.85 " fill="none" style="stroke: #A80036; stroke-width: 1.0;"/><polygon fill="none" points="50,220.06,50.0661,220.0831,51.2696,216.0144,52.8608,212.0813,54.3257,208.104,55.3756,203.9814,57,200.06,56.9755,200.0514,58.2658,204.013,59.6793,208.0178,61.1786,212.0525,62.3825,215.9839,64,220.06,64,220.2445,61.2,219.8499,58.4,219.9941,55.6,220.204,52.8,220.0314,50,220.06" style="stroke: #A80036; stroke-width: 1.0;"/><!--MD5=[31318e0796df99b61a367b8a167f90b2]
@startuml
hide members
hide circle

skinparam handwritten true

abstract class コアルール
abstract class 共通ルール
コアルール <|.. 共通ルール
共通ルール ^- - 通常フォーマット
通常フォーマット ^- - 拡張フォーマット

@enduml

PlantUML version 1.2020.07(Sun Apr 19 20:42:40 JST 2020)
(GPL source distribution)
Java Runtime: OpenJDK Runtime Environment
JVM: OpenJDK 64-Bit Server VM
Java Version: 13.0.2+8
Operating System: Mac OS X
Default Encoding: UTF-8
Language: ja
Country: JP
--></g></svg>