<?xml version="1.0" encoding="UTF-8" standalone="no"?><svg xmlns="http://www.w3.org/2000/svg" xmlns:xlink="http://www.w3.org/1999/xlink" contentScriptType="application/ecmascript" contentStyleType="text/css" height="296px" preserveAspectRatio="none" style="width:561px;height:296px;" version="1.1" viewBox="0 0 561 296" width="561px" zoomAndPan="magnify"><defs><filter height="300%" id="f1gkm05naofpx" width="300%" x="-1" y="-1"><feGaussianBlur result="blurOut" stdDeviation="2.0"/><feColorMatrix in="blurOut" result="blurOut2" type="matrix" values="0 0 0 0 0 0 0 0 0 0 0 0 0 0 0 0 0 0 .4 0"/><feOffset dx="4.0" dy="4.0" in="blurOut2" result="blurOut3"/><feBlend in="SourceGraphic" in2="blurOut3" mode="normal"/></filter></defs><g><!--MD5=[290b23b195cda7e553d7254bfd9175c6]
class コアルール--><rect fill="#FEFECE" filter="url(#f1gkm05naofpx)" height="24.1328" id="コアルール" style="stroke: #A80036; stroke-width: 1.5;" width="66" x="164" y="8"/><text fill="#000000" font-family="sans-serif" font-size="12" font-style="italic" lengthAdjust="spacingAndGlyphs" textLength="60" x="167" y="24.6016">コアルール</text><!--MD5=[dfc0cd2a72eeb5823a75133eb3e753c8]
class 共通ルール--><rect fill="#FEFECE" filter="url(#f1gkm05naofpx)" height="24.1328" id="共通ルール" style="stroke: #A80036; stroke-width: 1.5;" width="66" x="24" y="92.5"/><text fill="#000000" font-family="sans-serif" font-size="12" font-style="italic" lengthAdjust="spacingAndGlyphs" textLength="60" x="27" y="109.1016">共通ルール</text><!--MD5=[8c6a0ae348e7a404ac950b7e3e3cae03]
class 通常フォーマット--><rect fill="#FEFECE" filter="url(#f1gkm05naofpx)" height="24.1328" id="通常フォーマット" style="stroke: #A80036; stroke-width: 1.5;" width="102" x="6" y="177"/><text fill="#000000" font-family="sans-serif" font-size="12" lengthAdjust="spacingAndGlyphs" textLength="96" x="9" y="193.6016">通常フォーマット</text><!--MD5=[1b7b03c11ecb8bc64ccfd19cc7a1f7d1]
class 拡張フォーマット--><rect fill="#FEFECE" filter="url(#f1gkm05naofpx)" height="24.1328" id="拡張フォーマット" style="stroke: #A80036; stroke-width: 1.5;" width="102" x="6" y="261"/><text fill="#000000" font-family="sans-serif" font-size="12" lengthAdjust="spacingAndGlyphs" textLength="96" x="9" y="277.6016">拡張フォーマット</text><path d="M125,92 L125,117.3105 A0,0 0 0 0 125,117.3105 L549,117.3105 A0,0 0 0 0 549,117.3105 L549,102 L539,92 L321.06,92 L215.88,32.13 L313.06,92 L125,92 A0,0 0 0 0 125,92 " fill="#FBFB77" filter="url(#f1gkm05naofpx)" style="stroke: #A80036; stroke-width: 1.0;"/><path d="M539,92 L539,102 L549,102 L539,92 " fill="#FBFB77" style="stroke: #A80036; stroke-width: 1.0;"/><text fill="#000000" font-family="sans-serif" font-size="13" lengthAdjust="spacingAndGlyphs" textLength="403" x="131" y="109.5684">&#8;割込みルールなどのターン制ゲームに適応できる抽象的なルール定義</text><!--MD5=[5577348cf13f5f77464f961bef7277b5]
reverse link コアルール to 共通ルール--><path d="M160.68,42.4 C133.6,58.36 97.7,79.52 76.03,92.29 " fill="none" id="コアルール&lt;-共通ルール" style="stroke: #A80036; stroke-width: 1.0; stroke-dasharray: 7.0,7.0;"/><polygon fill="none" points="157.33,36.25,178.12,32.13,164.44,48.31,157.33,36.25" style="stroke: #A80036; stroke-width: 1.0;"/><!--MD5=[61579a87438075da7a77d4ef16fe1c88]
reverse link 共通ルール to 通常フォーマット--><path d="M57,136.64 C57,150.72 57,166.48 57,176.79 " fill="none" id="共通ルール&lt;-通常フォーマット" style="stroke: #A80036; stroke-width: 1.0;"/><polygon fill="none" points="50,136.63,57,116.63,64,136.63,50,136.63" style="stroke: #A80036; stroke-width: 1.0;"/><!--MD5=[02fc3bd81231d50c97705b06a5154e1d]
reverse link 通常フォーマット to 拡張フォーマット--><path d="M57,221.2 C57,235.14 57,250.68 57,260.85 " fill="none" id="通常フォーマット&lt;-拡張フォーマット" style="stroke: #A80036; stroke-width: 1.0;"/><polygon fill="none" points="50,221.06,57,201.06,64,221.06,50,221.06" style="stroke: #A80036; stroke-width: 1.0;"/><!--MD5=[801244c6c1ab6c83bb7d68e6c45f92a4]
@startuml
hide members
hide circle

abstract class コアルール
abstract class 共通ルール

コアルール <|.. 共通ルール
共通ルール ^- - 通常フォーマット
通常フォーマット ^- - 拡張フォーマット

note "割込みルールなどのターン制ゲームに適応できる抽象的なルール定義" as N1
コアルール .. N1

@enduml

PlantUML version 1.2020.07(Sun Apr 19 20:42:40 JST 2020)
(GPL source distribution)
Java Runtime: OpenJDK Runtime Environment
JVM: OpenJDK 64-Bit Server VM
Java Version: 13.0.2+8
Operating System: Mac OS X
Default Encoding: UTF-8
Language: ja
Country: JP
--></g></svg>