<?xml version="1.0" encoding="us-ascii" standalone="no"?><svg xmlns="http://www.w3.org/2000/svg" xmlns:xlink="http://www.w3.org/1999/xlink" contentStyleType="text/css" height="572px" preserveAspectRatio="none" style="width:328px;height:572px;background:#FFFFFF;" version="1.1" viewBox="0 0 328 572" width="328px" zoomAndPan="magnify"><defs/><g><ellipse cx="162.5" cy="20" fill="#222222" rx="10" ry="10" style="stroke:#222222;stroke-width:1.0;"/><rect fill="#F1F1F1" height="51.4063" rx="12.5" ry="12.5" style="stroke:#181818;stroke-width:0.5;" width="236" x="44.5" y="50"/><text fill="#000000" font-family="sans-serif" font-size="12" lengthAdjust="spacing" textLength="216" x="54.5" y="72.5156">&#12521;&#12452;&#12501;&#12398;&#19968;&#30058;&#19978;&#12398;&#12459;&#12540;&#12489;&#12434;&#34920;&#21521;&#12365;&#12395;&#12375;&#12390;</text><text fill="#000000" font-family="sans-serif" font-size="12" lengthAdjust="spacing" textLength="108" x="54.5" y="88.2188">&#38450;&#22721;&#12392;&#12375;&#12390;&#22580;&#12395;&#20986;&#12377;</text><rect fill="#F1F1F1" height="51.4063" rx="12.5" ry="12.5" style="stroke:#181818;stroke-width:0.5;" width="212" x="56.5" y="121.4063"/><text fill="#000000" font-family="sans-serif" font-size="12" lengthAdjust="spacing" textLength="192" x="66.5" y="143.9219">&#12521;&#12452;&#12501;&#12398;&#27425;&#12398;&#12459;&#12540;&#12489;&#12434;&#34920;&#21521;&#12365;&#12395;&#12375;&#12390;</text><text fill="#000000" font-family="sans-serif" font-size="12" lengthAdjust="spacing" textLength="108" x="66.5" y="159.625">&#20853;&#22763;&#12392;&#12375;&#12390;&#22580;&#12395;&#20986;&#12377;</text><rect fill="#F1F1F1" height="35.7031" rx="12.5" ry="12.5" style="stroke:#181818;stroke-width:0.5;" width="224" x="50.5" y="255.207"/><text fill="#000000" font-family="sans-serif" font-size="12" lengthAdjust="spacing" textLength="204" x="60.5" y="277.7227">&#12381;&#12398;&#12459;&#12540;&#12489;&#12434;&#34920;&#21521;&#12365;&#12398;&#12414;&#12414;&#22675;&#22320;&#12395;&#32622;&#12367;</text><rect fill="#F1F1F1" height="35.7031" rx="12.5" ry="12.5" style="stroke:#181818;stroke-width:0.5;" width="164" x="80.5" y="360.1074"/><text fill="#000000" font-family="sans-serif" font-size="12" lengthAdjust="spacing" textLength="144" x="90.5" y="382.623">&#12381;&#12398;&#12503;&#12524;&#12452;&#12516;&#12540;&#12399;&#25943;&#21271;&#12377;&#12427;</text><ellipse cx="162.5" cy="434.459" fill="none" rx="11" ry="11" style="stroke:#222222;stroke-width:1.0;"/><ellipse cx="162.5" cy="434.459" fill="#222222" rx="6" ry="6" style="stroke:#222222;stroke-width:1.0;"/><polygon fill="#F1F1F1" points="102,310.9102,223,310.9102,235,322.9102,223,334.9102,102,334.9102,90,322.9102,102,310.9102" style="stroke:#181818;stroke-width:0.5;"/><text fill="#000000" font-family="sans-serif" font-size="11" lengthAdjust="spacing" textLength="17" x="166.5" y="346.3828">Yes</text><text fill="#000000" font-family="sans-serif" font-size="11" lengthAdjust="spacing" textLength="121" x="102" y="327.1855">&#12521;&#12452;&#12501;&#12364;&#12394;&#12367;&#12394;&#12387;&#12383;&#12363;&#65311;</text><text fill="#000000" font-family="sans-serif" font-size="11" lengthAdjust="spacing" textLength="14" x="235" y="319.9883">No</text><rect fill="#F1F1F1" height="51.4063" rx="12.5" ry="12.5" style="stroke:#181818;stroke-width:0.5;" width="219" x="53" y="487.459"/><text fill="#000000" font-family="sans-serif" font-size="12" lengthAdjust="spacing" textLength="199" x="63" y="509.9746">&#12521;&#12452;&#12501;&#12398;&#19968;&#30058;&#19978;&#12363;&#12425;&#12459;&#12540;&#12489;&#12434;1&#26522;&#21462;&#12426;</text><text fill="#000000" font-family="sans-serif" font-size="12" lengthAdjust="spacing" textLength="180" x="63" y="525.6777">&#34920;&#21521;&#12365;&#12395;&#12375;&#12390;&#20853;&#22763;&#12392;&#12375;&#12390;&#22580;&#12395;&#20986;&#12377;</text><polygon fill="#F1F1F1" points="47,192.8125,278,192.8125,290,204.8125,278,216.8125,47,216.8125,35,204.8125,47,192.8125" style="stroke:#181818;stroke-width:0.5;"/><text fill="#000000" font-family="sans-serif" font-size="11" lengthAdjust="spacing" textLength="17" x="166.5" y="228.2852">Yes</text><text fill="#000000" font-family="sans-serif" font-size="11" lengthAdjust="spacing" textLength="231" x="47" y="209.0879">&#20853;&#22763;&#12392;&#12375;&#12390;&#23450;&#32681;&#12373;&#12428;&#12390;&#12356;&#12394;&#12356;&#12461;&#12515;&#12521;&#12463;&#12479;&#12540;&#12363;&#65311;</text><text fill="#000000" font-family="sans-serif" font-size="11" lengthAdjust="spacing" textLength="14" x="21" y="201.8906">No</text><ellipse cx="24" cy="251.8125" fill="none" rx="11" ry="11" style="stroke:#222222;stroke-width:1.0;"/><ellipse cx="24" cy="251.8125" fill="#222222" rx="6" ry="6" style="stroke:#222222;stroke-width:1.0;"/><line style="stroke:#181818;stroke-width:1.0;" x1="162.5" x2="162.5" y1="30" y2="50"/><polygon fill="#181818" points="158.5,40,162.5,50,166.5,40,162.5,44" style="stroke:#181818;stroke-width:1.0;"/><line style="stroke:#181818;stroke-width:1.0;" x1="162.5" x2="162.5" y1="101.4063" y2="121.4063"/><polygon fill="#181818" points="158.5,111.4063,162.5,121.4063,166.5,111.4063,162.5,115.4063" style="stroke:#181818;stroke-width:1.0;"/><line style="stroke:#181818;stroke-width:1.0;" x1="162.5" x2="162.5" y1="395.8105" y2="423.459"/><polygon fill="#181818" points="158.5,413.459,162.5,423.459,166.5,413.459,162.5,417.459" style="stroke:#181818;stroke-width:1.0;"/><line style="stroke:#181818;stroke-width:1.0;" x1="162.5" x2="162.5" y1="334.9102" y2="360.1074"/><polygon fill="#181818" points="158.5,350.1074,162.5,360.1074,166.5,350.1074,162.5,354.1074" style="stroke:#181818;stroke-width:1.0;"/><line style="stroke:#181818;stroke-width:1.0;" x1="235" x2="254.5" y1="322.9102" y2="322.9102"/><polygon fill="#181818" points="250.5,393.459,254.5,403.459,258.5,393.459,254.5,397.459" style="stroke:#181818;stroke-width:1.0;"/><line style="stroke:#181818;stroke-width:1.0;" x1="254.5" x2="254.5" y1="322.9102" y2="467.459"/><line style="stroke:#181818;stroke-width:1.0;" x1="254.5" x2="162.5" y1="467.459" y2="467.459"/><line style="stroke:#181818;stroke-width:1.0;" x1="162.5" x2="162.5" y1="467.459" y2="487.459"/><polygon fill="#181818" points="158.5,477.459,162.5,487.459,166.5,477.459,162.5,481.459" style="stroke:#181818;stroke-width:1.0;"/><line style="stroke:#181818;stroke-width:1.0;" x1="162.5" x2="162.5" y1="290.9102" y2="310.9102"/><polygon fill="#181818" points="158.5,300.9102,162.5,310.9102,166.5,300.9102,162.5,304.9102" style="stroke:#181818;stroke-width:1.0;"/><line style="stroke:#181818;stroke-width:1.0;" x1="162.5" x2="162.5" y1="216.8125" y2="255.207"/><polygon fill="#181818" points="158.5,245.207,162.5,255.207,166.5,245.207,162.5,249.207" style="stroke:#181818;stroke-width:1.0;"/><line style="stroke:#181818;stroke-width:1.0;" x1="162.5" x2="162.5" y1="538.8652" y2="548.8652"/><line style="stroke:#181818;stroke-width:1.0;" x1="162.5" x2="302" y1="548.8652" y2="548.8652"/><polygon fill="#181818" points="298,396.1133,302,386.1133,306,396.1133,302,392.1133" style="stroke:#181818;stroke-width:1.0;"/><line style="stroke:#181818;stroke-width:1.0;" x1="302" x2="302" y1="204.8125" y2="548.8652"/><line style="stroke:#181818;stroke-width:1.0;" x1="302" x2="290" y1="204.8125" y2="204.8125"/><polygon fill="#181818" points="300,200.8125,290,204.8125,300,208.8125,296,204.8125" style="stroke:#181818;stroke-width:1.0;"/><line style="stroke:#181818;stroke-width:1.0;" x1="35" x2="24" y1="204.8125" y2="204.8125"/><line style="stroke:#181818;stroke-width:1.0;" x1="24" x2="24" y1="204.8125" y2="240.8125"/><polygon fill="#181818" points="20,230.8125,24,240.8125,28,230.8125,24,234.8125" style="stroke:#181818;stroke-width:1.0;"/><line style="stroke:#181818;stroke-width:1.0;" x1="162.5" x2="162.5" y1="172.8125" y2="192.8125"/><polygon fill="#181818" points="158.5,182.8125,162.5,192.8125,166.5,182.8125,162.5,186.8125" style="stroke:#181818;stroke-width:1.0;"/><!--SRC=[XL7BJi905DttAxg4fLlw3-vTcbX24mB6Dd7hdT4OQ0q-KX6Y8fOONXPYD246yMCEKtJbBpWTqDG7EfdSp9svzppcsixwbgDbm3jWBN0V54v7EpE_EnsLvHci1pu6Bu4TlpJRul08T03gWQgW6-trx4u416hFSt5rBz_4_YEePcXVKQD-ytyyiVSWWjuolEsSbJVrrFUYi3wRT40-c2TJq2we6qTs2nue2GEmvvYMtBTn8wrRjfvQC-sqfikL0Lqi5nQ29dABwnDnFfHQPa_ofcAeJYkhfn8EFKLRKJ40DJxOd9nPIF0bENaLlA_wMqhU8FAhmfEcQc2kyLbkEyLDbPXvM_fVBSwHpCA6bLru-7ryBbWfQMmbkgoBoYbOMRNz7C2V_o_v5XE85SIYtW40]--></g></svg>