<?xml version="1.0" encoding="us-ascii" standalone="no"?><svg xmlns="http://www.w3.org/2000/svg" xmlns:xlink="http://www.w3.org/1999/xlink" contentStyleType="text/css" height="572px" preserveAspectRatio="none" style="width:316px;height:572px;background:#FFFFFF;" version="1.1" viewBox="0 0 316 572" width="316px" zoomAndPan="magnify"><defs/><g><ellipse cx="162" cy="20" fill="#222222" rx="10" ry="10" style="stroke:#222222;stroke-width:1.0;"/><rect fill="#F1F1F1" height="51.4063" rx="12.5" ry="12.5" style="stroke:#181818;stroke-width:0.5;" width="236" x="44" y="50"/><text fill="#000000" font-family="sans-serif" font-size="12" lengthAdjust="spacing" textLength="216" x="54" y="72.5156">&#12521;&#12452;&#12501;&#12398;&#19968;&#30058;&#19978;&#12398;&#12459;&#12540;&#12489;&#12434;&#34920;&#21521;&#12365;&#12395;&#12375;&#12390;</text><text fill="#000000" font-family="sans-serif" font-size="12" lengthAdjust="spacing" textLength="132" x="54" y="88.2188">&#12300;&#38450;&#22721;&#12301;&#12392;&#12375;&#12390;&#22580;&#12395;&#20986;&#12377;</text><rect fill="#F1F1F1" height="51.4063" rx="12.5" ry="12.5" style="stroke:#181818;stroke-width:0.5;" width="212" x="56" y="121.4063"/><text fill="#000000" font-family="sans-serif" font-size="12" lengthAdjust="spacing" textLength="192" x="66" y="143.9219">&#12521;&#12452;&#12501;&#12398;&#27425;&#12398;&#12459;&#12540;&#12489;&#12434;&#34920;&#21521;&#12365;&#12395;&#12375;&#12390;</text><text fill="#000000" font-family="sans-serif" font-size="12" lengthAdjust="spacing" textLength="132" x="66" y="159.625">&#12300;&#20853;&#22763;&#12301;&#12392;&#12375;&#12390;&#22580;&#12395;&#20986;&#12377;</text><rect fill="#F1F1F1" height="35.7031" rx="12.5" ry="12.5" style="stroke:#181818;stroke-width:0.5;" width="230" x="47" y="255.207"/><text fill="#000000" font-family="sans-serif" font-size="12" lengthAdjust="spacing" textLength="72" x="57" y="277.7227">&#12381;&#12398;&#12459;&#12540;&#12489;&#12434;</text><text fill="#000000" font-family="sans-serif" font-size="12" font-weight="bold" lengthAdjust="spacing" textLength="96" x="132" y="277.7227">&#34920;&#21521;&#12365;&#12398;&#12414;&#12414;&#22675;&#22320;</text><text fill="#000000" font-family="sans-serif" font-size="12" lengthAdjust="spacing" textLength="36" x="231" y="277.7227">&#12395;&#32622;&#12367;</text><rect fill="#F1F1F1" height="35.7031" rx="12.5" ry="12.5" style="stroke:#181818;stroke-width:0.5;" width="170" x="77" y="360.1074"/><text fill="#000000" font-family="sans-serif" font-size="12" lengthAdjust="spacing" textLength="96" x="87" y="382.623">&#12381;&#12398;&#12503;&#12524;&#12452;&#12516;&#12540;&#12399;</text><text fill="#000000" font-family="sans-serif" font-size="12" font-weight="bold" lengthAdjust="spacing" textLength="24" x="186" y="382.623">&#25943;&#21271;</text><text fill="#000000" font-family="sans-serif" font-size="12" lengthAdjust="spacing" textLength="24" x="213" y="382.623">&#12377;&#12427;</text><ellipse cx="162" cy="434.459" fill="none" rx="11" ry="11" style="stroke:#222222;stroke-width:1.0;"/><ellipse cx="162" cy="434.459" fill="#222222" rx="6" ry="6" style="stroke:#222222;stroke-width:1.0;"/><polygon fill="#F1F1F1" points="101.5,310.9102,222.5,310.9102,234.5,322.9102,222.5,334.9102,101.5,334.9102,89.5,322.9102,101.5,310.9102" style="stroke:#181818;stroke-width:0.5;"/><text fill="#000000" font-family="sans-serif" font-size="11" lengthAdjust="spacing" textLength="17" x="166" y="346.3828">Yes</text><text fill="#000000" font-family="sans-serif" font-size="11" lengthAdjust="spacing" textLength="121" x="101.5" y="327.1855">&#12521;&#12452;&#12501;&#12364;&#12394;&#12367;&#12394;&#12387;&#12383;&#12363;&#65311;</text><text fill="#000000" font-family="sans-serif" font-size="11" lengthAdjust="spacing" textLength="14" x="234.5" y="319.9883">No</text><rect fill="#F1F1F1" height="51.4063" rx="12.5" ry="12.5" style="stroke:#181818;stroke-width:0.5;" width="219" x="52.5" y="487.459"/><text fill="#000000" font-family="sans-serif" font-size="12" lengthAdjust="spacing" textLength="199" x="62.5" y="509.9746">&#12521;&#12452;&#12501;&#12398;&#19968;&#30058;&#19978;&#12363;&#12425;&#12459;&#12540;&#12489;&#12434;1&#26522;&#21462;&#12426;</text><text fill="#000000" font-family="sans-serif" font-size="12" lengthAdjust="spacing" textLength="72" x="62.5" y="525.6777">&#34920;&#21521;&#12365;&#12395;&#12375;&#12390;</text><text fill="#000000" font-family="sans-serif" font-size="12" font-weight="bold" lengthAdjust="spacing" textLength="108" x="137.5" y="525.6777">&#20853;&#22763;&#12392;&#12375;&#12390;&#22580;&#12395;&#20986;&#12377;</text><text fill="#000000" font-family="sans-serif" font-size="12" lengthAdjust="spacing" textLength="3" x="245.5" y="525.6777">&#160;</text><polygon fill="#F1F1F1" points="57.5,192.8125,266.5,192.8125,278.5,204.8125,266.5,216.8125,57.5,216.8125,45.5,204.8125,57.5,192.8125" style="stroke:#181818;stroke-width:0.5;"/><text fill="#000000" font-family="sans-serif" font-size="11" lengthAdjust="spacing" textLength="17" x="166" y="228.2852">Yes</text><text fill="#000000" font-family="sans-serif" font-size="11" lengthAdjust="spacing" textLength="209" x="57.5" y="209.0879">&#20853;&#22763;&#12392;&#23450;&#32681;&#12373;&#12428;&#12390;&#12356;&#12394;&#12356;&#12461;&#12515;&#12521;&#12463;&#12479;&#12540;&#12363;&#65311;</text><text fill="#000000" font-family="sans-serif" font-size="11" lengthAdjust="spacing" textLength="14" x="31.5" y="201.8906">No</text><ellipse cx="24" cy="251.8125" fill="none" rx="11" ry="11" style="stroke:#222222;stroke-width:1.0;"/><ellipse cx="24" cy="251.8125" fill="#222222" rx="6" ry="6" style="stroke:#222222;stroke-width:1.0;"/><line style="stroke:#181818;stroke-width:1.0;" x1="162" x2="162" y1="30" y2="50"/><polygon fill="#181818" points="158,40,162,50,166,40,162,44" style="stroke:#181818;stroke-width:1.0;"/><line style="stroke:#181818;stroke-width:1.0;" x1="162" x2="162" y1="101.4063" y2="121.4063"/><polygon fill="#181818" points="158,111.4063,162,121.4063,166,111.4063,162,115.4063" style="stroke:#181818;stroke-width:1.0;"/><line style="stroke:#181818;stroke-width:1.0;" x1="162" x2="162" y1="395.8105" y2="423.459"/><polygon fill="#181818" points="158,413.459,162,423.459,166,413.459,162,417.459" style="stroke:#181818;stroke-width:1.0;"/><line style="stroke:#181818;stroke-width:1.0;" x1="162" x2="162" y1="334.9102" y2="360.1074"/><polygon fill="#181818" points="158,350.1074,162,360.1074,166,350.1074,162,354.1074" style="stroke:#181818;stroke-width:1.0;"/><line style="stroke:#181818;stroke-width:1.0;" x1="234.5" x2="257" y1="322.9102" y2="322.9102"/><polygon fill="#181818" points="253,393.459,257,403.459,261,393.459,257,397.459" style="stroke:#181818;stroke-width:1.0;"/><line style="stroke:#181818;stroke-width:1.0;" x1="257" x2="257" y1="322.9102" y2="467.459"/><line style="stroke:#181818;stroke-width:1.0;" x1="257" x2="162" y1="467.459" y2="467.459"/><line style="stroke:#181818;stroke-width:1.0;" x1="162" x2="162" y1="467.459" y2="487.459"/><polygon fill="#181818" points="158,477.459,162,487.459,166,477.459,162,481.459" style="stroke:#181818;stroke-width:1.0;"/><line style="stroke:#181818;stroke-width:1.0;" x1="162" x2="162" y1="290.9102" y2="310.9102"/><polygon fill="#181818" points="158,300.9102,162,310.9102,166,300.9102,162,304.9102" style="stroke:#181818;stroke-width:1.0;"/><line style="stroke:#181818;stroke-width:1.0;" x1="162" x2="162" y1="216.8125" y2="255.207"/><polygon fill="#181818" points="158,245.207,162,255.207,166,245.207,162,249.207" style="stroke:#181818;stroke-width:1.0;"/><line style="stroke:#181818;stroke-width:1.0;" x1="162" x2="162" y1="538.8652" y2="548.8652"/><line style="stroke:#181818;stroke-width:1.0;" x1="162" x2="290.5" y1="548.8652" y2="548.8652"/><polygon fill="#181818" points="286.5,396.1133,290.5,386.1133,294.5,396.1133,290.5,392.1133" style="stroke:#181818;stroke-width:1.0;"/><line style="stroke:#181818;stroke-width:1.0;" x1="290.5" x2="290.5" y1="204.8125" y2="548.8652"/><line style="stroke:#181818;stroke-width:1.0;" x1="290.5" x2="278.5" y1="204.8125" y2="204.8125"/><polygon fill="#181818" points="288.5,200.8125,278.5,204.8125,288.5,208.8125,284.5,204.8125" style="stroke:#181818;stroke-width:1.0;"/><line style="stroke:#181818;stroke-width:1.0;" x1="45.5" x2="24" y1="204.8125" y2="204.8125"/><line style="stroke:#181818;stroke-width:1.0;" x1="24" x2="24" y1="204.8125" y2="240.8125"/><polygon fill="#181818" points="20,230.8125,24,240.8125,28,230.8125,24,234.8125" style="stroke:#181818;stroke-width:1.0;"/><line style="stroke:#181818;stroke-width:1.0;" x1="162" x2="162" y1="172.8125" y2="192.8125"/><polygon fill="#181818" points="158,182.8125,162,192.8125,166,182.8125,162,186.8125" style="stroke:#181818;stroke-width:1.0;"/><!--SRC=[ZP7DJi904CVlVOezGczUwJjuzsXY2Kq86Dl4AxFL6A06Fr8hH4KiCNm9ncX23EB3_5dGaw_WTa5InHWtcydkP6R-lvcndSqTHql1ROCtuVgW_cHOcFcToR0at-1Tk2EuHV2JjqPB71s33a5TK02wrL3mtiyVH4WeI6zhxXNNZp9273o3geRslVQqr_XNLR7_9CBk7rLtCrRMP8b57BL4lpORjq4-k2UZGNkWJcJv7TnG8Gp0NoDPAd-CwabcsIonOTf9ZScJ0bt-06Ew7cFhWyRoYfjJSN6lwqoop5waisAeV2lD4h4-FILUKJO4rRyqdOoPYwd6bTq0Ra_bDnNaGEfF_K1uWLAhWfUDPPBjvBVLnypQSWhh-NazCxTbfHVz_BxGCdWntkJQzAecAcVW9PMskWn9iPpnwY8acg59rSKs8eu8xHC0]--></g></svg>