<?xml version="1.0" encoding="us-ascii" standalone="no"?><svg xmlns="http://www.w3.org/2000/svg" xmlns:xlink="http://www.w3.org/1999/xlink" contentStyleType="text/css" height="664px" preserveAspectRatio="none" style="width:1037px;height:664px;background:#FFFFFF;" version="1.1" viewBox="0 0 1037 664" width="1037px" zoomAndPan="magnify"><defs/><g><path d="M486,10 L486,45.0234 L466,49.0234 L486,53.0234 L486,88.0469 A0,0 0 0 0 486,88.0469 L745,88.0469 A0,0 0 0 0 745,88.0469 L745,20 L735,10 L486,10 A0,0 0 0 0 486,10 " fill="#FEFFDD" style="stroke:#181818;stroke-width:0.5;"/><path d="M735,10 L735,20 L745,20 L735,10 " fill="#FEFFDD" style="stroke:#181818;stroke-width:0.5;"/><text fill="#000000" font-family="sans-serif" font-size="13" lengthAdjust="spacing" textLength="238" x="492" y="28.5586">&#21628;&#12403;&#20986;&#12375;&#20803;&#12363;&#12425;&#27425;&#12398;&#26465;&#20214;&#12364;&#25351;&#23450;&#12373;&#12428;&#12414;&#12377;:</text><text fill="#000000" font-family="sans-serif" font-size="13" lengthAdjust="spacing" textLength="104" x="492" y="45.5703">&#12539;&#23550;&#35937;&#12503;&#12524;&#12452;&#12516;&#12540;</text><text fill="#000000" font-family="sans-serif" font-size="13" lengthAdjust="spacing" textLength="200" x="492" y="62.582">&#12539;&#12479;&#12452;&#12511;&#12531;&#12464;&#65288;&#12513;&#12452;&#12531;/&#12463;&#12452;&#12483;&#12463;&#65289;</text><text fill="#000000" font-family="sans-serif" font-size="13" lengthAdjust="spacing" textLength="148" x="492" y="79.5938">&#12539;&#12473;&#12500;&#12540;&#12489;&#65288;&#21363;&#26178;/&#36890;&#24120;&#65289;</text><ellipse cx="456" cy="49.0234" fill="#222222" rx="10" ry="10" style="stroke:#222222;stroke-width:1.0;"/><rect fill="#F1F1F1" height="35.7031" rx="12.5" ry="12.5" style="stroke:#181818;stroke-width:0.5;" width="253" x="329.5" y="175.2305"/><text fill="#000000" font-family="sans-serif" font-size="12" lengthAdjust="spacing" textLength="233" x="339.5" y="197.7461">[6-D-2] &#12496;&#12483;&#12501;&#12449;&#12363;&#12425;&#12522;&#12463;&#12456;&#12473;&#12488;&#12434;&#21462;&#12426;&#20986;&#12377;</text><polygon fill="#F1F1F1" points="390.5,230.9336,521.5,230.9336,533.5,242.9336,521.5,254.9336,390.5,254.9336,378.5,242.9336,390.5,230.9336" style="stroke:#181818;stroke-width:0.5;"/><text fill="#000000" font-family="sans-serif" font-size="11" lengthAdjust="spacing" textLength="131" x="390.5" y="247.209">[6-D-3] &#12473;&#12500;&#12540;&#12489;=&#21363;&#26178;&#12363;&#65311;</text><text fill="#000000" font-family="sans-serif" font-size="11" lengthAdjust="spacing" textLength="17" x="361.5" y="240.0117">Yes</text><text fill="#000000" font-family="sans-serif" font-size="11" lengthAdjust="spacing" textLength="14" x="533.5" y="240.0117">No</text><rect fill="#F1F1F1" height="35.7031" rx="12.5" ry="12.5" style="stroke:#181818;stroke-width:0.5;" width="241" x="68.25" y="264.9336"/><text fill="#000000" font-family="sans-serif" font-size="12" lengthAdjust="spacing" textLength="221" x="78.25" y="287.4492">[6-D-4] &#21462;&#12426;&#20986;&#12375;&#12383;&#12522;&#12463;&#12456;&#12473;&#12488;&#12434;&#35299;&#27770;&#12377;&#12427;</text><polygon fill="#F1F1F1" points="148.25,335.6367,229.25,335.6367,241.25,347.6367,229.25,359.6367,148.25,359.6367,136.25,347.6367,148.25,335.6367" style="stroke:#181818;stroke-width:0.5;"/><text fill="#000000" font-family="sans-serif" font-size="11" lengthAdjust="spacing" textLength="81" x="148.25" y="351.9121">[6-D-5] &#21213;&#25943;&#21028;&#23450;</text><text fill="#000000" font-family="sans-serif" font-size="11" lengthAdjust="spacing" textLength="22" x="241.25" y="344.7148">&#27770;&#30528;</text><ellipse cx="285.25" cy="347.6367" fill="none" rx="11" ry="11" style="stroke:#222222;stroke-width:1.0;"/><ellipse cx="285.25" cy="347.6367" fill="#222222" rx="6" ry="6" style="stroke:#222222;stroke-width:1.0;"/><polygon fill="#F1F1F1" points="646.75,264.9336,799.75,264.9336,811.75,276.9336,799.75,288.9336,646.75,288.9336,634.75,276.9336,646.75,264.9336" style="stroke:#181818;stroke-width:0.5;"/><text fill="#000000" font-family="sans-serif" font-size="11" lengthAdjust="spacing" textLength="153" x="646.75" y="281.209">[6-D-6] &#12479;&#12452;&#12511;&#12531;&#12464;=&#12513;&#12452;&#12531;&#12363;&#65311;</text><text fill="#000000" font-family="sans-serif" font-size="11" lengthAdjust="spacing" textLength="17" x="617.75" y="274.0117">Yes</text><text fill="#000000" font-family="sans-serif" font-size="11" lengthAdjust="spacing" textLength="14" x="811.75" y="274.0117">No</text><polygon fill="#F1F1F1" points="498.75,298.9336,623.75,298.9336,635.75,310.9336,623.75,322.9336,498.75,322.9336,486.75,310.9336,498.75,298.9336" style="stroke:#181818;stroke-width:0.5;"/><text fill="#000000" font-family="sans-serif" font-size="11" lengthAdjust="spacing" textLength="125" x="498.75" y="315.209">[6-D-7] &#12473;&#12486;&#12540;&#12472;&#12364;&#31354;&#12363;&#65311;</text><text fill="#000000" font-family="sans-serif" font-size="11" lengthAdjust="spacing" textLength="17" x="469.75" y="308.0117">Yes</text><text fill="#000000" font-family="sans-serif" font-size="11" lengthAdjust="spacing" textLength="14" x="635.75" y="308.0117">No</text><rect fill="#F1F1F1" height="35.7031" rx="12.5" ry="12.5" style="stroke:#181818;stroke-width:0.5;" width="217" x="349.25" y="332.9336"/><text fill="#000000" font-family="sans-serif" font-size="12" lengthAdjust="spacing" textLength="197" x="359.25" y="355.4492">[6-D-8] &#12522;&#12463;&#12456;&#12473;&#12488;&#12434;&#12473;&#12486;&#12540;&#12472;&#12395;&#36861;&#21152;</text><rect fill="#F1F1F1" height="35.7031" rx="12.5" ry="12.5" style="stroke:#181818;stroke-width:0.5;" width="157" x="586.25" y="332.9336"/><text fill="#000000" font-family="sans-serif" font-size="12" lengthAdjust="spacing" textLength="137" x="596.25" y="355.4492">[6-D-9] &#12522;&#12463;&#12456;&#12473;&#12488;&#12434;&#30772;&#26820;</text><polygon fill="#F1F1F1" points="561.25,374.6367,573.25,386.6367,561.25,398.6367,549.25,386.6367,561.25,374.6367" style="stroke:#181818;stroke-width:0.5;"/><rect fill="#F1F1F1" height="35.7031" rx="12.5" ry="12.5" style="stroke:#181818;stroke-width:0.5;" width="224" x="773.25" y="298.9336"/><text fill="#000000" font-family="sans-serif" font-size="12" lengthAdjust="spacing" textLength="204" x="783.25" y="321.4492">[6-D-10] &#12522;&#12463;&#12456;&#12473;&#12488;&#12434;&#12473;&#12486;&#12540;&#12472;&#12395;&#36861;&#21152;</text><polygon fill="#F1F1F1" points="723.25,404.6367,735.25,416.6367,723.25,428.6367,711.25,416.6367,723.25,404.6367" style="stroke:#181818;stroke-width:0.5;"/><polygon fill="#F1F1F1" points="456,434.6367,468,446.6367,456,458.6367,444,446.6367,456,434.6367" style="stroke:#181818;stroke-width:0.5;"/><path d="M45,525.6094 L45,586.6445 A0,0 0 0 0 45,586.6445 L300,586.6445 A0,0 0 0 0 300,586.6445 L300,560.127 L320,556.127 L300,552.127 L300,535.6094 L290,525.6094 L45,525.6094 A0,0 0 0 0 45,525.6094 " fill="#FEFFDD" style="stroke:#181818;stroke-width:0.5;"/><path d="M290,525.6094 L290,535.6094 L300,535.6094 L290,525.6094 " fill="#FEFFDD" style="stroke:#181818;stroke-width:0.5;"/><text fill="#000000" font-family="sans-serif" font-size="13" lengthAdjust="spacing" textLength="234" x="51" y="544.168">&#35480;&#30330;&#12375;&#12383;&#12522;&#12463;&#12456;&#12473;&#12488;&#12398;&#12467;&#12531;&#12488;&#12525;&#12540;&#12521;&#12540;&#12399;</text><text fill="#000000" font-family="sans-serif" font-size="13" lengthAdjust="spacing" textLength="208" x="51" y="561.1797">&#36215;&#22240;&#12392;&#12394;&#12387;&#12383;&#12450;&#12463;&#12471;&#12519;&#12531;&#12398;&#12458;&#12540;&#12490;&#12540;</text><text fill="#000000" font-family="sans-serif" font-size="13" lengthAdjust="spacing" textLength="78" x="51" y="578.1914">&#12395;&#12394;&#12426;&#12414;&#12377;&#12290;</text><rect fill="#F1F1F1" height="35.7031" rx="12.5" ry="12.5" style="stroke:#181818;stroke-width:0.5;" width="272" x="320" y="538.2754"/><text fill="#000000" font-family="sans-serif" font-size="12" lengthAdjust="spacing" textLength="252" x="330" y="560.791">[6-D-12] &#35480;&#30330;&#12375;&#12383;&#12522;&#12463;&#12456;&#12473;&#12488;&#12434;&#12496;&#12483;&#12501;&#12449;&#12395;&#36861;&#21152;</text><polygon fill="#F1F1F1" points="330,478.6367,582,478.6367,594,490.6367,582,502.6367,330,502.6367,318,490.6367,330,478.6367" style="stroke:#181818;stroke-width:0.5;"/><text fill="#000000" font-family="sans-serif" font-size="11" lengthAdjust="spacing" textLength="17" x="460" y="514.1094">Yes</text><text fill="#000000" font-family="sans-serif" font-size="11" lengthAdjust="spacing" textLength="252" x="330" y="494.9121">[6-D-11] &#12522;&#12463;&#12456;&#12473;&#12488;&#12364;&#26032;&#12383;&#12394;&#35480;&#30330;&#12434;&#30330;&#29983;&#12373;&#12379;&#12383;&#12363;&#65311;</text><polygon fill="#F1F1F1" points="456,606.6445,468,618.6445,456,630.6445,444,618.6445,456,606.6445" style="stroke:#181818;stroke-width:0.5;"/><polygon fill="#F1F1F1" points="377,108.0469,535,108.0469,547,122.4414,535,136.8359,377,136.8359,365,122.4414,377,108.0469" style="stroke:#181818;stroke-width:0.5;"/><text fill="#000000" font-family="sans-serif" font-size="11" lengthAdjust="spacing" textLength="17" x="460" y="148.3086">Yes</text><text fill="#000000" font-family="sans-serif" font-size="11" lengthAdjust="spacing" textLength="158" x="377" y="119.5195">[6-D-1] &#12496;&#12483;&#12501;&#12449;&#12363;&#12425;&#25351;&#23450;&#26465;&#20214;&#12395;</text><text fill="#000000" font-family="sans-serif" font-size="11" lengthAdjust="spacing" textLength="154" x="377" y="133.9141">&#35442;&#24403;&#12377;&#12427;&#12522;&#12463;&#12456;&#12473;&#12488;&#12399;&#12354;&#12427;&#12363;&#65311;</text><text fill="#000000" font-family="sans-serif" font-size="11" lengthAdjust="spacing" textLength="14" x="351" y="119.5195">No</text><ellipse cx="24" cy="167.0469" fill="none" rx="11" ry="11" style="stroke:#222222;stroke-width:1.0;"/><ellipse cx="24" cy="167.0469" fill="#222222" rx="6" ry="6" style="stroke:#222222;stroke-width:1.0;"/><line style="stroke:#181818;stroke-width:1.0;" x1="188.75" x2="188.75" y1="359.6367" y2="446.6367"/><line style="stroke:#181818;stroke-width:1.0;" x1="188.75" x2="444" y1="446.6367" y2="446.6367"/><polygon fill="#181818" points="434,442.6367,444,446.6367,434,450.6367,438,446.6367" style="stroke:#181818;stroke-width:1.0;"/><line style="stroke:#181818;stroke-width:1.0;" x1="241.25" x2="274.25" y1="347.6367" y2="347.6367"/><polygon fill="#181818" points="264.25,343.6367,274.25,347.6367,264.25,351.6367,268.25,347.6367" style="stroke:#181818;stroke-width:1.0;"/><line style="stroke:#181818;stroke-width:1.0;" x1="188.75" x2="188.75" y1="300.6367" y2="335.6367"/><polygon fill="#181818" points="184.75,325.6367,188.75,335.6367,192.75,325.6367,188.75,329.6367" style="stroke:#181818;stroke-width:1.0;"/><line style="stroke:#181818;stroke-width:1.0;" x1="486.75" x2="457.75" y1="310.9336" y2="310.9336"/><line style="stroke:#181818;stroke-width:1.0;" x1="457.75" x2="457.75" y1="310.9336" y2="332.9336"/><polygon fill="#181818" points="453.75,322.9336,457.75,332.9336,461.75,322.9336,457.75,326.9336" style="stroke:#181818;stroke-width:1.0;"/><line style="stroke:#181818;stroke-width:1.0;" x1="635.75" x2="664.75" y1="310.9336" y2="310.9336"/><line style="stroke:#181818;stroke-width:1.0;" x1="664.75" x2="664.75" y1="310.9336" y2="332.9336"/><polygon fill="#181818" points="660.75,322.9336,664.75,332.9336,668.75,322.9336,664.75,326.9336" style="stroke:#181818;stroke-width:1.0;"/><line style="stroke:#181818;stroke-width:1.0;" x1="457.75" x2="457.75" y1="368.6367" y2="386.6367"/><line style="stroke:#181818;stroke-width:1.0;" x1="457.75" x2="549.25" y1="386.6367" y2="386.6367"/><polygon fill="#181818" points="539.25,382.6367,549.25,386.6367,539.25,390.6367,543.25,386.6367" style="stroke:#181818;stroke-width:1.0;"/><line style="stroke:#181818;stroke-width:1.0;" x1="664.75" x2="664.75" y1="368.6367" y2="386.6367"/><line style="stroke:#181818;stroke-width:1.0;" x1="664.75" x2="573.25" y1="386.6367" y2="386.6367"/><polygon fill="#181818" points="583.25,382.6367,573.25,386.6367,583.25,390.6367,579.25,386.6367" style="stroke:#181818;stroke-width:1.0;"/><line style="stroke:#181818;stroke-width:1.0;" x1="634.75" x2="561.25" y1="276.9336" y2="276.9336"/><line style="stroke:#181818;stroke-width:1.0;" x1="561.25" x2="561.25" y1="276.9336" y2="298.9336"/><polygon fill="#181818" points="557.25,288.9336,561.25,298.9336,565.25,288.9336,561.25,292.9336" style="stroke:#181818;stroke-width:1.0;"/><line style="stroke:#181818;stroke-width:1.0;" x1="811.75" x2="885.25" y1="276.9336" y2="276.9336"/><line style="stroke:#181818;stroke-width:1.0;" x1="885.25" x2="885.25" y1="276.9336" y2="298.9336"/><polygon fill="#181818" points="881.25,288.9336,885.25,298.9336,889.25,288.9336,885.25,292.9336" style="stroke:#181818;stroke-width:1.0;"/><line style="stroke:#181818;stroke-width:1.0;" x1="561.25" x2="561.25" y1="398.6367" y2="416.6367"/><line style="stroke:#181818;stroke-width:1.0;" x1="561.25" x2="711.25" y1="416.6367" y2="416.6367"/><polygon fill="#181818" points="701.25,412.6367,711.25,416.6367,701.25,420.6367,705.25,416.6367" style="stroke:#181818;stroke-width:1.0;"/><line style="stroke:#181818;stroke-width:1.0;" x1="885.25" x2="885.25" y1="334.6367" y2="416.6367"/><line style="stroke:#181818;stroke-width:1.0;" x1="885.25" x2="735.25" y1="416.6367" y2="416.6367"/><polygon fill="#181818" points="745.25,412.6367,735.25,416.6367,745.25,420.6367,741.25,416.6367" style="stroke:#181818;stroke-width:1.0;"/><line style="stroke:#181818;stroke-width:1.0;" x1="378.5" x2="188.75" y1="242.9336" y2="242.9336"/><line style="stroke:#181818;stroke-width:1.0;" x1="188.75" x2="188.75" y1="242.9336" y2="264.9336"/><polygon fill="#181818" points="184.75,254.9336,188.75,264.9336,192.75,254.9336,188.75,258.9336" style="stroke:#181818;stroke-width:1.0;"/><line style="stroke:#181818;stroke-width:1.0;" x1="533.5" x2="723.25" y1="242.9336" y2="242.9336"/><line style="stroke:#181818;stroke-width:1.0;" x1="723.25" x2="723.25" y1="242.9336" y2="264.9336"/><polygon fill="#181818" points="719.25,254.9336,723.25,264.9336,727.25,254.9336,723.25,258.9336" style="stroke:#181818;stroke-width:1.0;"/><line style="stroke:#181818;stroke-width:1.0;" x1="723.25" x2="723.25" y1="428.6367" y2="446.6367"/><line style="stroke:#181818;stroke-width:1.0;" x1="723.25" x2="468" y1="446.6367" y2="446.6367"/><polygon fill="#181818" points="478,442.6367,468,446.6367,478,450.6367,474,446.6367" style="stroke:#181818;stroke-width:1.0;"/><line style="stroke:#181818;stroke-width:1.0;" x1="456" x2="456" y1="210.9336" y2="230.9336"/><polygon fill="#181818" points="452,220.9336,456,230.9336,460,220.9336,456,224.9336" style="stroke:#181818;stroke-width:1.0;"/><line style="stroke:#181818;stroke-width:1.0;" x1="456" x2="456" y1="502.6367" y2="538.2754"/><polygon fill="#181818" points="452,528.2754,456,538.2754,460,528.2754,456,532.2754" style="stroke:#181818;stroke-width:1.0;"/><line style="stroke:#181818;stroke-width:1.0;" x1="594" x2="606" y1="490.6367" y2="490.6367"/><polygon fill="#181818" points="602,546.127,606,556.127,610,546.127,606,550.127" style="stroke:#181818;stroke-width:1.0;"/><line style="stroke:#181818;stroke-width:1.0;" x1="606" x2="606" y1="490.6367" y2="618.6445"/><line style="stroke:#181818;stroke-width:1.0;" x1="606" x2="468" y1="618.6445" y2="618.6445"/><polygon fill="#181818" points="478,614.6445,468,618.6445,478,622.6445,474,618.6445" style="stroke:#181818;stroke-width:1.0;"/><line style="stroke:#181818;stroke-width:1.0;" x1="456" x2="456" y1="573.9785" y2="606.6445"/><polygon fill="#181818" points="452,596.6445,456,606.6445,460,596.6445,456,600.6445" style="stroke:#181818;stroke-width:1.0;"/><line style="stroke:#181818;stroke-width:1.0;" x1="456" x2="456" y1="458.6367" y2="478.6367"/><polygon fill="#181818" points="452,468.6367,456,478.6367,460,468.6367,456,472.6367" style="stroke:#181818;stroke-width:1.0;"/><line style="stroke:#181818;stroke-width:1.0;" x1="456" x2="456" y1="136.8359" y2="175.2305"/><polygon fill="#181818" points="452,165.2305,456,175.2305,460,165.2305,456,169.2305" style="stroke:#181818;stroke-width:1.0;"/><line style="stroke:#181818;stroke-width:1.0;" x1="456" x2="456" y1="630.6445" y2="640.6445"/><line style="stroke:#181818;stroke-width:1.0;" x1="456" x2="1011.25" y1="640.6445" y2="640.6445"/><polygon fill="#181818" points="1007.25,396.2539,1011.25,386.2539,1015.25,396.2539,1011.25,392.2539" style="stroke:#181818;stroke-width:1.0;"/><line style="stroke:#181818;stroke-width:1.0;" x1="1011.25" x2="1011.25" y1="122.4414" y2="640.6445"/><line style="stroke:#181818;stroke-width:1.0;" x1="1011.25" x2="547" y1="122.4414" y2="122.4414"/><polygon fill="#181818" points="557,118.4414,547,122.4414,557,126.4414,553,122.4414" style="stroke:#181818;stroke-width:1.0;"/><line style="stroke:#181818;stroke-width:1.0;" x1="365" x2="24" y1="122.4414" y2="122.4414"/><line style="stroke:#181818;stroke-width:1.0;" x1="24" x2="24" y1="122.4414" y2="156.0469"/><polygon fill="#181818" points="20,146.0469,24,156.0469,28,146.0469,24,150.0469" style="stroke:#181818;stroke-width:1.0;"/><line style="stroke:#181818;stroke-width:1.0;" x1="456" x2="456" y1="59.0234" y2="108.0469"/><polygon fill="#181818" points="452,98.0469,456,108.0469,460,98.0469,456,102.0469" style="stroke:#181818;stroke-width:1.0;"/><!--SRC=[bLHTJnD157tVNp5lXOS6wmSgJTzyzjqe3oOkqeGKGpVnjJEZq2zZGQ0KqhGL8hHWIwr8BGL-p7LswrF_WdTcTjT-K8oRPZgPcNFkkUVEt43ariy8G2BNg-quXGwmpy0QmCw17m9lYRKlJcuL4klzRb9yQDa51lpYTs9NjDl4EMkANBBVJHc1Vz0RSUlbYcN4bYsJh4HVBre68MAz2nJvEq3puZq7cW6MiaygGEjsiVBhuWVGh9rT4_LTe5l0ia2lW1Rc48aAHEEgrwm0pmC_0NO077zTlGNiMgsKK3smKzGDlA9MMZCgCvnnd4ZTBk0dy4t40q_vMSxe7EKXC_QAIEN6syNeaaccdiy6dmH3ymZDIIQEuYgkUYNNKt_y8jQhVXENdr0si0pmcWf_fE8bWJQ0ChbEC_rkQPf4usJgcHcVHb5pAiJTcqACih0DyN4RM5hvM0WRY8ukk1hl8S50RX6tVcuyQz6C-H492GI3GQ9Fw9eJN50xMitzUJ8GAG-qD2wbTxXlDpiwtR32-beU83nJjBVo8dc07ddXyRXJJ6W5XCIjvJTgYfP75t1cBiNHyAVB0n9rNKOa-c5cPSf3zO_urP-G-03weMlOgZICjV42EjNEH9Zdp2DPfr4hXdcEUzUN8bqEkyZXjFuoFRw9oIb_j_VV-L3NcN4IJH6wyvzgVAlL_-3r2ON6gV19Rf_AsjEQrousS7GsI_AHqZsrTQDVhZoyr2vmmXqQll93KbNxM38NB3VZsuXe7LXB5Xtd_Ajw05KvqeO7FZiNUsMWHvWAq7r9CTpv54LD8TEwkSWF9Ka0I-js10dckQXxX6SaZcwxa1MI5_iF]--></g></svg>