<?xml version="1.0" encoding="UTF-8" standalone="no"?><svg xmlns="http://www.w3.org/2000/svg" xmlns:xlink="http://www.w3.org/1999/xlink" contentScriptType="application/ecmascript" contentStyleType="text/css" height="669px" preserveAspectRatio="none" style="width:388px;height:669px;" version="1.1" viewBox="0 0 388 669" width="388px" zoomAndPan="magnify"><defs><filter height="300%" id="f1ho0ubm8we0j6" width="300%" x="-1" y="-1"><feGaussianBlur result="blurOut" stdDeviation="2.0"/><feColorMatrix in="blurOut" result="blurOut2" type="matrix" values="0 0 0 0 0 0 0 0 0 0 0 0 0 0 0 0 0 0 .4 0"/><feOffset dx="4.0" dy="4.0" in="blurOut2" result="blurOut3"/><feBlend in="SourceGraphic" in2="blurOut3" mode="normal"/></filter></defs><g><ellipse cx="275.5" cy="16" fill="#000000" filter="url(#f1ho0ubm8we0j6)" rx="10" ry="10" style="stroke: none; stroke-width: 1.0;"/><rect fill="#FEFECE" filter="url(#f1ho0ubm8we0j6)" height="35.7031" rx="12.5" ry="12.5" style="stroke: #A80036; stroke-width: 1.5;" width="125" x="213" y="67"/><text fill="#000000" font-family="sans-serif" font-size="12" lengthAdjust="spacingAndGlyphs" textLength="105" x="223" y="89.5156">[10-1]誘発チェック</text><polygon fill="#FEFECE" filter="url(#f1ho0ubm8we0j6)" points="232.5,144,244.5,156,232.5,168,220.5,156,232.5,144" style="stroke: #A80036; stroke-width: 1.5;"/><rect fill="#FEFECE" filter="url(#f1ho0ubm8we0j6)" height="35.7031" rx="12.5" ry="12.5" style="stroke: #A80036; stroke-width: 1.5;" width="149" x="55" y="224"/><text fill="#000000" font-family="sans-serif" font-size="12" lengthAdjust="spacingAndGlyphs" textLength="129" x="65" y="246.5156">[10-2]即時誘発有無判定</text><polygon fill="#FEFECE" filter="url(#f1ho0ubm8we0j6)" points="129.5,301,141.5,313,129.5,325,117.5,313,129.5,301" style="stroke: #A80036; stroke-width: 1.5;"/><rect fill="#FEFECE" filter="url(#f1ho0ubm8we0j6)" height="35.7031" rx="12.5" ry="12.5" style="stroke: #A80036; stroke-width: 1.5;" width="157" x="7" y="381"/><text fill="#000000" font-family="sans-serif" font-size="12" lengthAdjust="spacingAndGlyphs" textLength="137" x="17" y="403.5156">[10-3]効果解決&amp;勝敗判定</text><rect fill="#FEFECE" filter="url(#f1ho0ubm8we0j6)" height="35.7031" rx="12.5" ry="12.5" style="stroke: #A80036; stroke-width: 1.5;" width="125" x="119" y="458"/><text fill="#000000" font-family="sans-serif" font-size="12" lengthAdjust="spacingAndGlyphs" textLength="105" x="129" y="480.5156">[10-4]誘発有無判定</text><polygon fill="#FEFECE" filter="url(#f1ho0ubm8we0j6)" points="275.5,535,287.5,547,275.5,559,263.5,547,275.5,535" style="stroke: #A80036; stroke-width: 1.5;"/><rect fill="#FEFECE" filter="url(#f1ho0ubm8we0j6)" height="35.7031" rx="12.5" ry="12.5" style="stroke: #A80036; stroke-width: 1.5;" width="137" x="232" y="615"/><text fill="#000000" font-family="sans-serif" font-size="12" lengthAdjust="spacingAndGlyphs" textLength="117" x="242" y="637.5156">[10-5]ステージに追加</text><ellipse cx="233.5" cy="242" fill="none" filter="url(#f1ho0ubm8we0j6)" rx="10" ry="10" style="stroke: #000000; stroke-width: 1.0;"/><ellipse cx="234" cy="242.5" fill="#000000" rx="6" ry="6" style="stroke: none; stroke-width: 1.0;"/><!--MD5=[835be86e931552aad2d817c31f100959]
link start to [10-1]誘発チェック--><path d="M275.5,26.04 C275.5,35.16 275.5,49.61 275.5,61.8 " fill="none" id="start-&gt;[10-1]誘発チェック" style="stroke: #A80036; stroke-width: 1.0;"/><polygon fill="#A80036" points="275.5,66.87,279.5,57.87,275.5,61.87,271.5,57.87,275.5,66.87" style="stroke: #A80036; stroke-width: 1.0;"/><!--MD5=[db0640135800d81ce869446f12f16070]
link [10-1]誘発チェック to #5--><path d="M264.87,103.06 C256.95,115.77 246.36,132.76 239.48,143.8 " fill="none" id="[10-1]誘発チェック-&gt;#5" style="stroke: #A80036; stroke-width: 1.0;"/><polygon fill="#A80036" points="236.78,148.13,244.9336,142.6057,239.4236,143.886,238.1432,138.3759,236.78,148.13" style="stroke: #A80036; stroke-width: 1.0;"/><text fill="#000000" font-family="sans-serif" font-size="11" lengthAdjust="spacingAndGlyphs" textLength="0" x="239.2125" y="132.764"/><!--MD5=[1beb934c0227bed58fb2e48454408f72]
link #5 to [10-2]即時誘発有無判定--><path d="M226.37,162 C212.53,173.29 178.24,201.25 154.41,220.68 " fill="none" id="#5-&gt;[10-2]即時誘発有無判定" style="stroke: #A80036; stroke-width: 1.0;"/><polygon fill="#A80036" points="150.39,223.97,159.8927,221.382,154.2649,220.81,154.8368,215.1822,150.39,223.97" style="stroke: #A80036; stroke-width: 1.0;"/><text fill="#000000" font-family="sans-serif" font-size="11" lengthAdjust="spacingAndGlyphs" textLength="18" x="194.5" y="200.4727">YES</text><!--MD5=[47ff2a442f54ad611324871ee36d3dfe]
link [10-2]即時誘発有無判定 to #10--><path d="M129.5,260.06 C129.5,270.93 129.5,284.94 129.5,295.67 " fill="none" id="[10-2]即時誘発有無判定-&gt;#10" style="stroke: #A80036; stroke-width: 1.0;"/><polygon fill="#A80036" points="129.5,300.95,133.5,291.95,129.5,295.95,125.5,291.95,129.5,300.95" style="stroke: #A80036; stroke-width: 1.0;"/><text fill="#000000" font-family="sans-serif" font-size="11" lengthAdjust="spacingAndGlyphs" textLength="0" x="128.8438" y="290.1746"/><!--MD5=[040377f6235bffd39b416ec8dec597bb]
link #10 to [10-3]効果解決&勝敗判定--><path d="M125.6,321.45 C119.2,333.67 106.25,358.39 96.79,376.45 " fill="none" id="#10-&gt;[10-3]効果解決&amp;勝敗判定" style="stroke: #A80036; stroke-width: 1.0;"/><polygon fill="#A80036" points="94.47,380.88,102.199,374.7756,96.797,376.4545,95.1181,371.0525,94.47,380.88" style="stroke: #A80036; stroke-width: 1.0;"/><text fill="#000000" font-family="sans-serif" font-size="11" lengthAdjust="spacingAndGlyphs" textLength="18" x="114.5" y="357.4727">YES</text><!--MD5=[a0190b51bc6c35a12faec5255702d2c6]
link [10-3]効果解決&勝敗判定 to [10-4]誘発有無判定--><path d="M107.28,417.02 C121.54,428.16 140.26,442.78 155.32,454.55 " fill="none" id="[10-3]効果解決&amp;勝敗判定-&gt;[10-4]誘発有無判定" style="stroke: #A80036; stroke-width: 1.0;"/><polygon fill="#A80036" points="159.47,457.79,154.8477,449.0932,155.5325,454.7085,149.9172,455.3932,159.47,457.79" style="stroke: #A80036; stroke-width: 1.0;"/><!--MD5=[2a49caf719768a4c01a1c8c0f0bcea77]
link #10 to [10-4]誘発有無判定--><path d="M135.04,320.08 C144.81,331.21 164.86,356.01 173.5,381 C181.62,404.49 182.93,433.15 182.64,452.61 " fill="none" id="#10-&gt;[10-4]誘発有無判定" style="stroke: #A80036; stroke-width: 1.0;"/><polygon fill="#A80036" points="182.52,457.84,186.7246,448.9338,182.6343,452.8413,178.7267,448.7509,182.52,457.84" style="stroke: #A80036; stroke-width: 1.0;"/><text fill="#000000" font-family="sans-serif" font-size="11" lengthAdjust="spacingAndGlyphs" textLength="16" x="182.5" y="403.4727">NO</text><!--MD5=[b65df4bc286bccf3fcba8450db8f75be]
link [10-4]誘発有無判定 to #18--><path d="M204.74,494.06 C223.85,508.09 250.09,527.35 264.65,538.03 " fill="none" id="[10-4]誘発有無判定-&gt;#18" style="stroke: #A80036; stroke-width: 1.0;"/><polygon fill="#A80036" points="268.77,541.06,263.9014,532.4986,264.7462,538.0921,259.1527,538.9368,268.77,541.06" style="stroke: #A80036; stroke-width: 1.0;"/><text fill="#000000" font-family="sans-serif" font-size="11" lengthAdjust="spacingAndGlyphs" textLength="0" x="259.5112" y="524.1971"/><!--MD5=[17a4909dfb2b486e6572a239056b83ed]
link #18 to [10-5]ステージに追加--><path d="M277.88,557.04 C280.4,566.53 284.56,581.86 288.5,595 C289.96,599.85 291.59,605.03 293.17,609.94 " fill="none" id="#18-&gt;[10-5]ステージに追加" style="stroke: #A80036; stroke-width: 1.0;"/><polygon fill="#A80036" points="294.73,614.73,295.7583,604.935,293.1875,609.9739,288.1486,607.403,294.73,614.73" style="stroke: #A80036; stroke-width: 1.0;"/><text fill="#000000" font-family="sans-serif" font-size="11" lengthAdjust="spacingAndGlyphs" textLength="18" x="289.5" y="591.4727">YES</text><!--MD5=[d29a6fbbb5691b03b590eb9977d87481]
link [10-5]ステージに追加 to [10-1]誘発チェック--><path d="M308.49,614.71 C315.47,598.01 324.5,571.81 324.5,548 C324.5,155 324.5,155 324.5,155 C324.5,136.49 312.64,119.49 300.58,107 " fill="none" id="[10-5]ステージに追加-&gt;[10-1]誘発チェック" style="stroke: #A80036; stroke-width: 1.0;"/><polygon fill="#A80036" points="296.85,103.27,300.4041,112.4552,300.3927,106.7984,306.0495,106.787,296.85,103.27" style="stroke: #A80036; stroke-width: 1.0;"/><!--MD5=[ecb221743d821f4b05d7aa698dcfa647]
link #18 to [10-1]誘発チェック--><path d="M275.5,534.77 C275.5,521.11 275.5,497.36 275.5,477 C275.5,155 275.5,155 275.5,155 C275.5,139.35 275.5,121.7 275.5,108.17 " fill="none" id="#18-&gt;[10-1]誘発チェック" style="stroke: #A80036; stroke-width: 1.0;"/><polygon fill="#A80036" points="275.5,103.01,271.5,112.01,275.5,108.01,279.5,112.01,275.5,103.01" style="stroke: #A80036; stroke-width: 1.0;"/><text fill="#000000" font-family="sans-serif" font-size="11" lengthAdjust="spacingAndGlyphs" textLength="16" x="276.5" y="317.4727">NO</text><!--MD5=[354e12f5adebb6f1562c7b59ede5ab58]
link #5 to end--><path d="M232.63,167.98 C232.81,183 233.13,209.99 233.33,226.61 " fill="none" id="#5-&gt;end" style="stroke: #A80036; stroke-width: 1.0;"/><polygon fill="#A80036" points="233.39,231.82,237.2869,222.7749,233.3329,226.8203,229.2874,222.8663,233.39,231.82" style="stroke: #A80036; stroke-width: 1.0;"/><text fill="#000000" font-family="sans-serif" font-size="11" lengthAdjust="spacingAndGlyphs" textLength="16" x="233.5" y="200.4727">NO</text><!--MD5=[83b338a82384c3726e1708844dadd737]
@startuml
(*) - -> "[10-1]誘発チェック"

if "" then
    - ->[YES] "[10-2]即時誘発有無判定"
    if "" then
        - ->[YES] "[10-3]効果解決&勝敗判定"
        - -> "[10-4]誘発有無判定"
    else
        - ->[NO] "[10-4]誘発有無判定"
    endif

    if "" then
        - ->[YES] "[10-5]ステージに追加"
        - -> "[10-1]誘発チェック"
    else
        - ->[NO] "[10-1]誘発チェック"
    endif

else
    - ->[NO] (*)
endif

@enduml

PlantUML version 1.2020.14(Sat Jun 20 14:14:34 GMT 2020)
(GPL source distribution)
Java Runtime: OpenJDK Runtime Environment
JVM: OpenJDK 64-Bit Server VM
Default Encoding: UTF-8
Language: ja
Country: JP
--></g></svg>