<?xml version="1.0" encoding="UTF-8" standalone="no"?><svg xmlns="http://www.w3.org/2000/svg" xmlns:xlink="http://www.w3.org/1999/xlink" contentScriptType="application/ecmascript" contentStyleType="text/css" height="654px" preserveAspectRatio="none" style="width:385px;height:654px;" version="1.1" viewBox="0 0 385 654" width="385px" zoomAndPan="magnify"><defs><filter height="300%" id="f1srgkt4mepl72" width="300%" x="-1" y="-1"><feGaussianBlur result="blurOut" stdDeviation="2.0"/><feColorMatrix in="blurOut" result="blurOut2" type="matrix" values="0 0 0 0 0 0 0 0 0 0 0 0 0 0 0 0 0 0 .4 0"/><feOffset dx="4.0" dy="4.0" in="blurOut2" result="blurOut3"/><feBlend in="SourceGraphic" in2="blurOut3" mode="normal"/></filter></defs><g><ellipse cx="273.5" cy="16" fill="#000000" filter="url(#f1srgkt4mepl72)" rx="10" ry="10" style="stroke: none; stroke-width: 1.0;"/><rect fill="#FEFECE" filter="url(#f1srgkt4mepl72)" height="34.1328" rx="12.5" ry="12.5" style="stroke: #A80036; stroke-width: 1.5;" width="123" x="212" y="67"/><text fill="#000000" font-family="sans-serif" font-size="12" lengthAdjust="spacingAndGlyphs" textLength="103" x="222" y="88.6016">⑩-1.誘発チェック</text><polygon fill="#FEFECE" filter="url(#f1srgkt4mepl72)" points="230.5,142,242.5,154,230.5,166,218.5,154,230.5,142" style="stroke: #A80036; stroke-width: 1.5;"/><rect fill="#FEFECE" filter="url(#f1srgkt4mepl72)" height="34.1328" rx="12.5" ry="12.5" style="stroke: #A80036; stroke-width: 1.5;" width="147" x="54" y="220"/><text fill="#000000" font-family="sans-serif" font-size="12" lengthAdjust="spacingAndGlyphs" textLength="127" x="64" y="241.6016">⑩-2.即時誘発有無判定</text><polygon fill="#FEFECE" filter="url(#f1srgkt4mepl72)" points="127.5,295,139.5,307,127.5,319,115.5,307,127.5,295" style="stroke: #A80036; stroke-width: 1.5;"/><rect fill="#FEFECE" filter="url(#f1srgkt4mepl72)" height="34.1328" rx="12.5" ry="12.5" style="stroke: #A80036; stroke-width: 1.5;" width="155" x="7" y="373"/><text fill="#000000" font-family="sans-serif" font-size="12" lengthAdjust="spacingAndGlyphs" textLength="135" x="17" y="394.6016">⑩-3.効果解決&amp;勝敗判定</text><rect fill="#FEFECE" filter="url(#f1srgkt4mepl72)" height="34.1328" rx="12.5" ry="12.5" style="stroke: #A80036; stroke-width: 1.5;" width="123" x="119" y="448"/><text fill="#000000" font-family="sans-serif" font-size="12" lengthAdjust="spacingAndGlyphs" textLength="103" x="129" y="469.6016">⑩-4.誘発有無判定</text><polygon fill="#FEFECE" filter="url(#f1srgkt4mepl72)" points="273.5,523,285.5,535,273.5,547,261.5,535,273.5,523" style="stroke: #A80036; stroke-width: 1.5;"/><rect fill="#FEFECE" filter="url(#f1srgkt4mepl72)" height="34.1328" rx="12.5" ry="12.5" style="stroke: #A80036; stroke-width: 1.5;" width="135" x="231" y="601"/><text fill="#000000" font-family="sans-serif" font-size="12" lengthAdjust="spacingAndGlyphs" textLength="115" x="241" y="622.6016">⑩-5.ステージに追加</text><ellipse cx="231.5" cy="237" fill="none" filter="url(#f1srgkt4mepl72)" rx="10" ry="10" style="stroke: #000000; stroke-width: 1.0;"/><ellipse cx="232" cy="237.5" fill="#000000" rx="6" ry="6" style="stroke: none; stroke-width: 1.0;"/><!--MD5=[d22d996f4d1c864c7de956daa28721c8]
link start to ⑩-1.誘発チェック--><path d="M273.5,26.18 C273.5,35.27 273.5,49.53 273.5,61.49 " fill="none" id="start-&gt;⑩-1.誘発チェック" style="stroke: #A80036; stroke-width: 1.0;"/><polygon fill="#A80036" points="273.5,66.79,277.5,57.79,273.5,61.79,269.5,57.79,273.5,66.79" style="stroke: #A80036; stroke-width: 1.0;"/><!--MD5=[e08d4f40a820356ae0881a57567a6f37]
link ⑩-1.誘発チェック to #5--><path d="M263.31,101.12 C255.4,113.62 244.63,130.65 237.63,141.73 " fill="none" id="⑩-1.誘発チェック-&gt;#5" style="stroke: #A80036; stroke-width: 1.0;"/><polygon fill="#A80036" points="234.87,146.08,243.0669,140.6201,237.547,141.857,236.3101,136.337,234.87,146.08" style="stroke: #A80036; stroke-width: 1.0;"/><text fill="#000000" font-family="sans-serif" font-size="11" lengthAdjust="spacingAndGlyphs" textLength="0" x="237.6683" y="131.6084"/><!--MD5=[c8474b1cfa62e6f2ef80578f3314f84d]
link #5 to ⑩-2.即時誘発有無判定--><path d="M224.06,160.07 C209.98,171.13 175.87,197.96 152.21,216.57 " fill="none" id="#5-&gt;⑩-2.即時誘発有無判定" style="stroke: #A80036; stroke-width: 1.0;"/><polygon fill="#A80036" points="148.22,219.71,157.7685,217.2964,152.1521,216.6215,152.827,211.0051,148.22,219.71" style="stroke: #A80036; stroke-width: 1.0;"/><text fill="#000000" font-family="sans-serif" font-size="11" lengthAdjust="spacingAndGlyphs" textLength="19" x="189.5" y="197.6348">YES</text><!--MD5=[8d82d8e36b6df5a5da4efdbc8b6783e6]
link ⑩-2.即時誘発有無判定 to #10--><path d="M127.5,254.12 C127.5,264.92 127.5,279.08 127.5,289.88 " fill="none" id="⑩-2.即時誘発有無判定-&gt;#10" style="stroke: #A80036; stroke-width: 1.0;"/><polygon fill="#A80036" points="127.5,294.89,131.5,285.89,127.5,289.89,123.5,285.89,127.5,294.89" style="stroke: #A80036; stroke-width: 1.0;"/><text fill="#000000" font-family="sans-serif" font-size="11" lengthAdjust="spacingAndGlyphs" textLength="0" x="126.7313" y="284.4881"/><!--MD5=[feae2f8e7c6a569c875615d0aaa7beda]
link #10 to ⑩-3.効果解決&勝敗判定--><path d="M123.68,315.19 C117.45,326.94 104.84,350.69 95.6,368.09 " fill="none" id="#10-&gt;⑩-3.効果解決&amp;勝敗判定" style="stroke: #A80036; stroke-width: 1.0;"/><polygon fill="#A80036" points="93.09,372.81,100.8425,366.7355,95.434,368.3935,93.7761,362.9851,93.09,372.81" style="stroke: #A80036; stroke-width: 1.0;"/><text fill="#000000" font-family="sans-serif" font-size="11" lengthAdjust="spacingAndGlyphs" textLength="19" x="111.5" y="350.6348">YES</text><!--MD5=[5d65ad968753d2447e015a5ac4c5232a]
link ⑩-3.効果解決&勝敗判定 to ⑩-4.誘発有無判定--><path d="M105.81,407.2 C120.35,418.26 139.68,432.96 155.04,444.64 " fill="none" id="⑩-3.効果解決&amp;勝敗判定-&gt;⑩-4.誘発有無判定" style="stroke: #A80036; stroke-width: 1.0;"/><polygon fill="#A80036" points="159.25,447.84,154.5041,439.21,155.2689,444.8149,149.664,445.5798,159.25,447.84" style="stroke: #A80036; stroke-width: 1.0;"/><!--MD5=[194c71ccaf03639dd062c8636f22e919]
link #10 to ⑩-4.誘発有無判定--><path d="M133.01,313.88 C142.72,324.64 162.7,348.65 171.5,373 C179.74,395.79 181.35,423.76 181.31,442.62 " fill="none" id="#10-&gt;⑩-4.誘発有無判定" style="stroke: #A80036; stroke-width: 1.0;"/><polygon fill="#A80036" points="181.26,447.69,185.3626,438.7363,181.3171,442.6903,177.3631,438.6449,181.26,447.69" style="stroke: #A80036; stroke-width: 1.0;"/><text fill="#000000" font-family="sans-serif" font-size="11" lengthAdjust="spacingAndGlyphs" textLength="17" x="180.5" y="394.6348">NO</text><!--MD5=[d4c190b51e4cdb5abf526b856b139b45]
link ⑩-4.誘発有無判定 to #18--><path d="M202.54,482.12 C221.62,496.07 248.39,515.64 262.98,526.31 " fill="none" id="⑩-4.誘発有無判定-&gt;#18" style="stroke: #A80036; stroke-width: 1.0;"/><polygon fill="#A80036" points="267.1,529.32,262.2118,520.7699,263.0693,526.3613,257.4779,527.2189,267.1,529.32" style="stroke: #A80036; stroke-width: 1.0;"/><text fill="#000000" font-family="sans-serif" font-size="11" lengthAdjust="spacingAndGlyphs" textLength="0" x="256.2375" y="512.5514"/><!--MD5=[cdee302ce669f534ac0d33a2caae6797]
link #18 to ⑩-5.ステージに追加--><path d="M275.89,544.66 C278.42,553.74 282.59,568.42 286.5,581 C288.03,585.91 289.74,591.17 291.38,596.11 " fill="none" id="#18-&gt;⑩-5.ステージに追加" style="stroke: #A80036; stroke-width: 1.0;"/><polygon fill="#A80036" points="292.98,600.92,293.9198,591.1161,291.3946,596.178,286.3326,593.6528,292.98,600.92" style="stroke: #A80036; stroke-width: 1.0;"/><text fill="#000000" font-family="sans-serif" font-size="11" lengthAdjust="spacingAndGlyphs" textLength="19" x="287.5" y="578.6348">YES</text><!--MD5=[d0c74b5b0e1944dd389a2c1ad8debba6]
link ⑩-5.ステージに追加 to ⑩-1.誘発チェック--><path d="M306.69,600.7 C313.98,584.66 323.5,559.25 323.5,536 C323.5,153 323.5,153 323.5,153 C323.5,134.14 310.87,117.06 298.3,104.73 " fill="none" id="⑩-5.ステージに追加-&gt;⑩-1.誘発チェック" style="stroke: #A80036; stroke-width: 1.0;"/><polygon fill="#A80036" points="294.41,101.07,298.2045,110.1585,298.0443,104.504,303.6989,104.3437,294.41,101.07" style="stroke: #A80036; stroke-width: 1.0;"/><!--MD5=[2087b18f1931da37149eb17bdef3cc16]
link #18 to ⑩-1.誘発チェック--><path d="M273.5,522.93 C273.5,509.47 273.5,486.07 273.5,466 C273.5,153 273.5,153 273.5,153 C273.5,137.37 273.5,119.71 273.5,106.31 " fill="none" id="#18-&gt;⑩-1.誘発チェック" style="stroke: #A80036; stroke-width: 1.0;"/><polygon fill="#A80036" points="273.5,101.21,269.5,110.21,273.5,106.21,277.5,110.21,273.5,101.21" style="stroke: #A80036; stroke-width: 1.0;"/><text fill="#000000" font-family="sans-serif" font-size="11" lengthAdjust="spacingAndGlyphs" textLength="17" x="274.5" y="311.6348">NO</text><!--MD5=[354e12f5adebb6f1562c7b59ede5ab58]
link #5 to end--><path d="M230.63,165.92 C230.81,180.36 231.13,205.81 231.32,221.74 " fill="none" id="#5-&gt;end" style="stroke: #A80036; stroke-width: 1.0;"/><polygon fill="#A80036" points="231.39,226.75,235.2869,217.7049,231.3329,221.7503,227.2874,217.7963,231.39,226.75" style="stroke: #A80036; stroke-width: 1.0;"/><text fill="#000000" font-family="sans-serif" font-size="11" lengthAdjust="spacingAndGlyphs" textLength="17" x="231.5" y="197.6348">NO</text><!--MD5=[816a7454ff4ab56a9e91d8f19a1fa47d]
@startuml
(*) - -> "⑩-1.誘発チェック"

if "" then
    - ->[YES] "⑩-2.即時誘発有無判定"
    if "" then
        - ->[YES] "⑩-3.効果解決&勝敗判定"
        - -> "⑩-4.誘発有無判定"
    else
        - ->[NO] "⑩-4.誘発有無判定"
    endif

    if "" then
        - ->[YES] "⑩-5.ステージに追加"
        - -> "⑩-1.誘発チェック"
    else
        - ->[NO] "⑩-1.誘発チェック"
    endif

else
    - ->[NO] (*)
endif

@enduml

PlantUML version 1.2020.15(Sun Jun 28 20:39:45 JST 2020)
(GPL source distribution)
Java Runtime: OpenJDK Runtime Environment
JVM: OpenJDK 64-Bit Server VM
Default Encoding: UTF-8
Language: ja
Country: JP
--></g></svg>