<?xml version="1.0" encoding="UTF-8" standalone="no"?><svg xmlns="http://www.w3.org/2000/svg" xmlns:xlink="http://www.w3.org/1999/xlink" contentScriptType="application/ecmascript" contentStyleType="text/css" height="172px" preserveAspectRatio="none" style="width:451px;height:172px;" version="1.1" viewBox="0 0 451 172" width="451px" zoomAndPan="magnify"><defs><filter height="300%" id="fmxl6686j22ob" width="300%" x="-1" y="-1"><feGaussianBlur result="blurOut" stdDeviation="2.0"/><feColorMatrix in="blurOut" result="blurOut2" type="matrix" values="0 0 0 0 0 0 0 0 0 0 0 0 0 0 0 0 0 0 .4 0"/><feOffset dx="4.0" dy="4.0" in="blurOut2" result="blurOut3"/><feBlend in="SourceGraphic" in2="blurOut3" mode="normal"/></filter></defs><g><!--MD5=[7663f4622c0f2c435ab42eda539713f6]
cluster format--><rect fill="#FFFFFF" filter="url(#fmxl6686j22ob)" height="87" style="stroke: #000000; stroke-width: 1.5;" width="427" x="7" y="68"/><path d="M101,69 L101,77.4883 L91,87.4883 L7,87.4883 " fill="none" style="stroke: #000000; stroke-width: 1.5;"/><text fill="#000000" font-family="sans-serif" font-size="14" font-weight="bold" lengthAdjust="spacingAndGlyphs" textLength="84" x="10" y="82.5352">フォーマット</text><!--MD5=[a6fd415a5c5abcde107a4b1e52d6a5ff]
entity light--><rect fill="#FEFECE" filter="url(#fmxl6686j22ob)" height="36.4883" style="stroke: #000000; stroke-width: 1.5;" width="62" x="356" y="103"/><text fill="#000000" font-family="sans-serif" font-size="14" lengthAdjust="spacingAndGlyphs" textLength="42" x="366" y="126.5352">ライト</text><!--MD5=[68560b35a5f33bb4760d613c81346123]
entity std--><rect fill="#FEFECE" filter="url(#fmxl6686j22ob)" height="36.4883" style="stroke: #000000; stroke-width: 1.5;" width="104" x="217" y="103"/><text fill="#000000" font-family="sans-serif" font-size="14" lengthAdjust="spacingAndGlyphs" textLength="84" x="227" y="126.5352">スタンダード</text><!--MD5=[f98759e4eb96d6a1d3ce0405f8c1a67e]
entity pro--><rect fill="#FEFECE" filter="url(#fmxl6686j22ob)" height="36.4883" style="stroke: #000000; stroke-width: 1.5;" width="48" x="134" y="103"/><text fill="#000000" font-family="sans-serif" font-size="14" lengthAdjust="spacingAndGlyphs" textLength="28" x="144" y="126.5352">プロ</text><!--MD5=[e6001af16d4774e0fdad2715570119d9]
entity master--><rect fill="#FEFECE" filter="url(#fmxl6686j22ob)" height="36.4883" style="stroke: #000000; stroke-width: 1.5;" width="76" x="23" y="103"/><text fill="#000000" font-family="sans-serif" font-size="14" lengthAdjust="spacingAndGlyphs" textLength="56" x="33" y="126.5352">マスター</text><!--MD5=[8274bfb416b6365278739ca5c48d26ea]
entity common--><rect fill="#FEFECE" filter="url(#fmxl6686j22ob)" height="36.4883" style="stroke: #000000; stroke-width: 1.5;" width="90" x="168" y="7"/><text fill="#000000" font-family="sans-serif" font-size="14" lengthAdjust="spacingAndGlyphs" textLength="70" x="178" y="30.5352">共通ルール</text><!--MD5=[12d5822ff265e8c26609d099d9848694]
reverse link common to light--><path d="M263.23,32.09 C287.62,36.84 316.44,45.22 339,60 C355.52,70.82 368.98,89.18 377.4,102.75 " fill="none" id="common&lt;-light" style="stroke: #A80036; stroke-width: 1.0;"/><polygon fill="#A80036" points="258.1,31.14,266.2165,36.7187,263.0157,32.0545,267.6798,28.8537,258.1,31.14" style="stroke: #A80036; stroke-width: 1.0;"/><!--MD5=[7074bc36afe21bafe5e4d6f7a2d006b3]
reverse link common to std--><path d="M225.99,47.8 C235.97,64.56 249.58,87.4 258.79,102.87 " fill="none" id="common&lt;-std" style="stroke: #A80036; stroke-width: 1.0;"/><polygon fill="#A80036" points="223.27,43.24,224.4465,53.0183,225.8319,47.5338,231.3165,48.9192,223.27,43.24" style="stroke: #A80036; stroke-width: 1.0;"/><!--MD5=[93ac86a1ef7d95815c2cafa381abcd35]
reverse link common to pro--><path d="M200.25,47.8 C190.44,64.56 177.07,87.4 168.02,102.87 " fill="none" id="common&lt;-pro" style="stroke: #A80036; stroke-width: 1.0;"/><polygon fill="#A80036" points="202.91,43.24,194.9082,48.9821,200.3818,47.5537,201.8101,53.0273,202.91,43.24" style="stroke: #A80036; stroke-width: 1.0;"/><!--MD5=[154f80e43488867c6a45088634ad0bcb]
reverse link common to master--><path d="M163.15,38.63 C147.63,43.85 130.94,50.87 117,60 C99.48,71.48 83.62,89.56 73.28,102.87 " fill="none" id="common&lt;-master" style="stroke: #A80036; stroke-width: 1.0;"/><polygon fill="#A80036" points="167.92,37.07,158.1213,36.077,163.1695,38.6297,160.6168,43.6778,167.92,37.07" style="stroke: #A80036; stroke-width: 1.0;"/><!--MD5=[4b00ad22c2d55fa5247387fff75993b1]
@startuml
rectangle "共通ルール" as common

frame "フォーマット" as format{
    rectangle "ライト" as light
    rectangle "スタンダード" as std
    rectangle "プロ" as pro
    rectangle "マスター" as master
}

common <- - light
common <- - std
common <- - pro
common <- - master

@enduml

PlantUML version 1.2020.15(Sun Jun 28 20:39:45 JST 2020)
(GPL source distribution)
Java Runtime: OpenJDK Runtime Environment
JVM: OpenJDK 64-Bit Server VM
Default Encoding: UTF-8
Language: ja
Country: JP
--></g></svg>