<?xml version="1.0" encoding="us-ascii" standalone="no"?><svg xmlns="http://www.w3.org/2000/svg" xmlns:xlink="http://www.w3.org/1999/xlink" contentStyleType="text/css" height="1312px" preserveAspectRatio="none" style="width:923px;height:1312px;background:#FFFFFF;" version="1.1" viewBox="0 0 923 1312" width="923px" zoomAndPan="magnify"><defs/><g><ellipse cx="468.5" cy="20" fill="#222222" rx="10" ry="10" style="stroke:#222222;stroke-width:1.0;"/><path d="M623,50 L623,77.0117 L901,77.0117 L901,60 L891,50 L623,50 " fill="#FEFFDD" style="stroke:#181818;stroke-width:0.5;"/><path d="M891,50 L891,60 L901,60 L891,50 " fill="#FEFFDD" style="stroke:#181818;stroke-width:0.5;"/><text fill="#000000" font-family="sans-serif" font-size="13" lengthAdjust="spacing" textLength="257" x="629" y="68.5586">&#12300;&#21363;&#26178;/&#12473;&#12486;&#12540;&#12472; &#215; &#12513;&#12452;&#12531;/&#12463;&#12452;&#12483;&#12463;&#12301;&#12391;&#20998;&#39006;</text><path d="M634.5,97.0117 L634.5,158.0469 L889.5,158.0469 L889.5,107.0117 L879.5,97.0117 L634.5,97.0117 " fill="#FEFFDD" style="stroke:#181818;stroke-width:0.5;"/><path d="M879.5,97.0117 L879.5,107.0117 L889.5,107.0117 L879.5,97.0117 " fill="#FEFFDD" style="stroke:#181818;stroke-width:0.5;"/><text fill="#000000" font-family="sans-serif" font-size="13" lengthAdjust="spacing" textLength="234" x="640.5" y="115.5703">&#35480;&#30330;&#12375;&#12383;&#12450;&#12463;&#12471;&#12519;&#12531;&#12398;&#12467;&#12531;&#12488;&#12525;&#12540;&#12521;&#12540;&#12399;</text><text fill="#000000" font-family="sans-serif" font-size="13" lengthAdjust="spacing" textLength="208" x="640.5" y="132.582">&#36215;&#22240;&#12392;&#12394;&#12387;&#12383;&#12450;&#12463;&#12471;&#12519;&#12531;&#12398;&#12458;&#12540;&#12490;&#12540;</text><text fill="#000000" font-family="sans-serif" font-size="13" lengthAdjust="spacing" textLength="78" x="640.5" y="149.5938">&#12395;&#12394;&#12426;&#12414;&#12377;&#12290;</text><rect fill="#F1F1F1" height="35.7031" rx="12.5" ry="12.5" style="stroke:#181818;stroke-width:0.5;" width="289" x="324" y="86.1719"/><text fill="#000000" font-family="sans-serif" font-size="12" lengthAdjust="spacing" textLength="269" x="334" y="108.6875">[6-1] &#35480;&#30330;&#12375;&#12383;&#12450;&#12463;&#12471;&#12519;&#12531;&#12434;&#20998;&#39006;&#12375;&#12496;&#12483;&#12501;&#12449;&#12395;&#36861;&#21152;</text><rect fill="none" height="435.1055" style="stroke:#000000;stroke-width:1.5;" width="731" x="76.5" y="297.4141"/><path d="M248.5,297.4141 L248.5,308.7344 L238.5,318.7344 L76.5,318.7344 " fill="none" style="stroke:#000000;stroke-width:1.5;"/><text fill="#000000" font-family="sans-serif" font-size="14" lengthAdjust="spacing" textLength="162" x="79.5" y="313.0156">&#21363;&#26178;: &#12503;&#12524;&#12452;&#12516;&#12540;&#27598;&#12395;&#20966;&#29702;</text><path d="M96.5,504.4043 L96.5,548.4277 L286.5,548.4277 L286.5,514.4043 L276.5,504.4043 L96.5,504.4043 " fill="#FEFFDD" style="stroke:#181818;stroke-width:0.5;"/><path d="M276.5,504.4043 L276.5,514.4043 L286.5,514.4043 L276.5,504.4043 " fill="#FEFFDD" style="stroke:#181818;stroke-width:0.5;"/><text fill="#000000" font-family="sans-serif" font-size="13" lengthAdjust="spacing" textLength="169" x="102.5" y="522.9629">&#38918;&#30058;&#12399;&#12479;&#12540;&#12531;&#12503;&#12524;&#12452;&#12516;&#12540;&#12363;&#12425;</text><text fill="#000000" font-family="sans-serif" font-size="13" lengthAdjust="spacing" textLength="130" x="102.5" y="539.9746">&#12479;&#12540;&#12531;&#12364;&#22238;&#12427;&#38918;&#12395;&#34892;&#12358;</text><rect fill="#F1F1F1" height="35.7031" rx="12.5" ry="12.5" style="stroke:#181818;stroke-width:0.5;" width="164" x="386.5" y="335.7344"/><text fill="#000000" font-family="sans-serif" font-size="12" lengthAdjust="spacing" textLength="144" x="396.5" y="358.25">&#12479;&#12540;&#12531;&#12503;&#12524;&#12452;&#12516;&#12540;&#12363;&#12425;&#38283;&#22987;</text><path d="M630.5,496.7559 L630.5,506.2617 L610.5,510.2617 L630.5,514.2617 L630.5,523.7676 A0,0 0 0 0 630.5,523.7676 L755.5,523.7676 A0,0 0 0 0 755.5,523.7676 L755.5,506.7559 L745.5,496.7559 L630.5,496.7559 A0,0 0 0 0 630.5,496.7559 " fill="#FEFFDD" style="stroke:#181818;stroke-width:0.5;"/><path d="M745.5,496.7559 L745.5,506.7559 L755.5,506.7559 L745.5,496.7559 " fill="#FEFFDD" style="stroke:#181818;stroke-width:0.5;"/><text fill="#000000" font-family="sans-serif" font-size="13" lengthAdjust="spacing" textLength="104" x="636.5" y="515.3145">&#21029;&#12501;&#12525;&#12540;&#21628;&#12403;&#20986;&#12375;</text><rect fill="#F1F1F1" height="35.7031" rx="12.5" ry="12.5" style="stroke:#181818;stroke-width:0.5;" width="284" x="326.5" y="492.4102"/><text fill="#000000" font-family="sans-serif" font-size="12" lengthAdjust="spacing" textLength="264" x="336.5" y="514.9258">[6-5] &#12479;&#12452;&#12511;&#12531;&#12464;=&#12513;&#12452;&#12531;&#12398;&#21363;&#26178;&#12450;&#12463;&#12471;&#12519;&#12531;&#12434;&#20966;&#29702;</text><path d="M636.5,567.459 L636.5,576.9648 L616.5,580.9648 L636.5,584.9648 L636.5,594.4707 A0,0 0 0 0 636.5,594.4707 L761.5,594.4707 A0,0 0 0 0 761.5,594.4707 L761.5,577.459 L751.5,567.459 L636.5,567.459 A0,0 0 0 0 636.5,567.459 " fill="#FEFFDD" style="stroke:#181818;stroke-width:0.5;"/><path d="M751.5,567.459 L751.5,577.459 L761.5,577.459 L751.5,567.459 " fill="#FEFFDD" style="stroke:#181818;stroke-width:0.5;"/><text fill="#000000" font-family="sans-serif" font-size="13" lengthAdjust="spacing" textLength="104" x="642.5" y="586.0176">&#21029;&#12501;&#12525;&#12540;&#21628;&#12403;&#20986;&#12375;</text><rect fill="#F1F1F1" height="35.7031" rx="12.5" ry="12.5" style="stroke:#181818;stroke-width:0.5;" width="296" x="320.5" y="563.1133"/><text fill="#000000" font-family="sans-serif" font-size="12" lengthAdjust="spacing" textLength="276" x="330.5" y="585.6289">[6-6] &#12479;&#12452;&#12511;&#12531;&#12464;=&#12463;&#12452;&#12483;&#12463;&#12398;&#21363;&#26178;&#12450;&#12463;&#12471;&#12519;&#12531;&#12434;&#20966;&#29702;</text><polygon fill="#F1F1F1" points="348.5,435.4375,588.5,435.4375,600.5,447.4375,588.5,459.4375,348.5,459.4375,336.5,447.4375,348.5,435.4375" style="stroke:#181818;stroke-width:0.5;"/><text fill="#000000" font-family="sans-serif" font-size="11" lengthAdjust="spacing" textLength="17" x="472.5" y="470.9102">Yes</text><text fill="#000000" font-family="sans-serif" font-size="11" lengthAdjust="spacing" textLength="240" x="348.5" y="451.7129">[6-4] &#35442;&#24403;&#12503;&#12524;&#12452;&#12516;&#12540;&#12395;&#12522;&#12478;&#12523;&#12502;=&#21363;&#26178;&#12364;&#12354;&#12427;&#12363;&#65311;</text><text fill="#000000" font-family="sans-serif" font-size="11" lengthAdjust="spacing" textLength="14" x="322.5" y="444.5156">No</text><rect fill="#F1F1F1" height="35.7031" rx="12.5" ry="12.5" style="stroke:#181818;stroke-width:0.5;" width="145" x="396" y="640.8164"/><text fill="#000000" font-family="sans-serif" font-size="12" lengthAdjust="spacing" textLength="125" x="406" y="663.332">[6-7] &#27425;&#12398;&#12503;&#12524;&#12452;&#12516;&#12540;&#12408;</text><polygon fill="#F1F1F1" points="468.5,391.4375,480.5,403.4375,468.5,415.4375,456.5,403.4375,468.5,391.4375" style="stroke:#181818;stroke-width:0.5;"/><polygon fill="#F1F1F1" points="413.5,696.5195,523.5,696.5195,535.5,708.5195,523.5,720.5195,413.5,720.5195,401.5,708.5195,413.5,696.5195" style="stroke:#181818;stroke-width:0.5;"/><text fill="#000000" font-family="sans-serif" font-size="11" lengthAdjust="spacing" textLength="110" x="413.5" y="712.7949">&#20840;&#21729;&#12481;&#12455;&#12483;&#12463;&#12375;&#12383;&#12363;&#65311;</text><text fill="#000000" font-family="sans-serif" font-size="11" lengthAdjust="spacing" textLength="14" x="535.5" y="705.5977">No</text><polygon fill="#F1F1F1" points="365,250.4414,572,250.4414,584,262.4414,572,274.4414,365,274.4414,353,262.4414,365,250.4414" style="stroke:#181818;stroke-width:0.5;"/><text fill="#000000" font-family="sans-serif" font-size="11" lengthAdjust="spacing" textLength="17" x="472.5" y="285.9141">Yes</text><text fill="#000000" font-family="sans-serif" font-size="11" lengthAdjust="spacing" textLength="207" x="365" y="266.7168">[6-3] &#12496;&#12483;&#12501;&#12449;&#12395;&#12522;&#12478;&#12523;&#12502;=&#21363;&#26178;&#12399;&#12354;&#12427;&#12363;&#65311;</text><text fill="#000000" font-family="sans-serif" font-size="11" lengthAdjust="spacing" textLength="14" x="339" y="259.5195">No</text><rect fill="none" height="435.1055" style="stroke:#000000;stroke-width:1.5;" width="762" x="61" y="821.4922"/><path d="M261,821.4922 L261,832.8125 L251,842.8125 L61,842.8125 " fill="none" style="stroke:#000000;stroke-width:1.5;"/><text fill="#000000" font-family="sans-serif" font-size="14" lengthAdjust="spacing" textLength="190" x="64" y="837.0938">&#12473;&#12486;&#12540;&#12472;: &#12503;&#12524;&#12452;&#12516;&#12540;&#27598;&#12395;&#20966;&#29702;</text><path d="M81,1028.4824 L81,1072.5059 L271,1072.5059 L271,1038.4824 L261,1028.4824 L81,1028.4824 " fill="#FEFFDD" style="stroke:#181818;stroke-width:0.5;"/><path d="M261,1028.4824 L261,1038.4824 L271,1038.4824 L261,1028.4824 " fill="#FEFFDD" style="stroke:#181818;stroke-width:0.5;"/><text fill="#000000" font-family="sans-serif" font-size="13" lengthAdjust="spacing" textLength="169" x="87" y="1047.041">&#38918;&#30058;&#12399;&#12479;&#12540;&#12531;&#12503;&#12524;&#12452;&#12516;&#12540;&#12363;&#12425;</text><text fill="#000000" font-family="sans-serif" font-size="13" lengthAdjust="spacing" textLength="130" x="87" y="1064.0527">&#12479;&#12540;&#12531;&#12364;&#22238;&#12427;&#38918;&#12395;&#34892;&#12358;</text><rect fill="#F1F1F1" height="35.7031" rx="12.5" ry="12.5" style="stroke:#181818;stroke-width:0.5;" width="164" x="386.5" y="859.8125"/><text fill="#000000" font-family="sans-serif" font-size="12" lengthAdjust="spacing" textLength="144" x="396.5" y="882.3281">&#12479;&#12540;&#12531;&#12503;&#12524;&#12452;&#12516;&#12540;&#12363;&#12425;&#38283;&#22987;</text><path d="M646,1020.834 L646,1030.3398 L626,1034.3398 L646,1038.3398 L646,1047.8457 A0,0 0 0 0 646,1047.8457 L771,1047.8457 A0,0 0 0 0 771,1047.8457 L771,1030.834 L761,1020.834 L646,1020.834 A0,0 0 0 0 646,1020.834 " fill="#FEFFDD" style="stroke:#181818;stroke-width:0.5;"/><path d="M761,1020.834 L761,1030.834 L771,1030.834 L761,1020.834 " fill="#FEFFDD" style="stroke:#181818;stroke-width:0.5;"/><text fill="#000000" font-family="sans-serif" font-size="13" lengthAdjust="spacing" textLength="104" x="652" y="1039.3926">&#21029;&#12501;&#12525;&#12540;&#21628;&#12403;&#20986;&#12375;</text><rect fill="#F1F1F1" height="35.7031" rx="12.5" ry="12.5" style="stroke:#181818;stroke-width:0.5;" width="315" x="311" y="1016.4883"/><text fill="#000000" font-family="sans-serif" font-size="12" lengthAdjust="spacing" textLength="295" x="321" y="1039.0039">[6-10] &#12479;&#12452;&#12511;&#12531;&#12464;=&#12513;&#12452;&#12531;&#12398;&#12473;&#12486;&#12540;&#12472;&#12450;&#12463;&#12471;&#12519;&#12531;&#12434;&#20966;&#29702;</text><path d="M652,1091.5371 L652,1101.043 L632,1105.043 L652,1109.043 L652,1118.5488 A0,0 0 0 0 652,1118.5488 L777,1118.5488 A0,0 0 0 0 777,1118.5488 L777,1101.5371 L767,1091.5371 L652,1091.5371 A0,0 0 0 0 652,1091.5371 " fill="#FEFFDD" style="stroke:#181818;stroke-width:0.5;"/><path d="M767,1091.5371 L767,1101.5371 L777,1101.5371 L767,1091.5371 " fill="#FEFFDD" style="stroke:#181818;stroke-width:0.5;"/><text fill="#000000" font-family="sans-serif" font-size="13" lengthAdjust="spacing" textLength="104" x="658" y="1110.0957">&#21029;&#12501;&#12525;&#12540;&#21628;&#12403;&#20986;&#12375;</text><rect fill="#F1F1F1" height="35.7031" rx="12.5" ry="12.5" style="stroke:#181818;stroke-width:0.5;" width="327" x="305" y="1087.1914"/><text fill="#000000" font-family="sans-serif" font-size="12" lengthAdjust="spacing" textLength="307" x="315" y="1109.707">[6-11] &#12479;&#12452;&#12511;&#12531;&#12464;=&#12463;&#12452;&#12483;&#12463;&#12398;&#12473;&#12486;&#12540;&#12472;&#12450;&#12463;&#12471;&#12519;&#12531;&#12434;&#20966;&#29702;</text><polygon fill="#F1F1F1" points="337.5,959.5156,599.5,959.5156,611.5,971.5156,599.5,983.5156,337.5,983.5156,325.5,971.5156,337.5,959.5156" style="stroke:#181818;stroke-width:0.5;"/><text fill="#000000" font-family="sans-serif" font-size="11" lengthAdjust="spacing" textLength="17" x="472.5" y="994.9883">Yes</text><text fill="#000000" font-family="sans-serif" font-size="11" lengthAdjust="spacing" textLength="262" x="337.5" y="975.791">[6-9] &#35442;&#24403;&#12503;&#12524;&#12452;&#12516;&#12540;&#12395;&#12522;&#12478;&#12523;&#12502;=&#12473;&#12486;&#12540;&#12472;&#12364;&#12354;&#12427;&#12363;&#65311;</text><text fill="#000000" font-family="sans-serif" font-size="11" lengthAdjust="spacing" textLength="14" x="311.5" y="968.5938">No</text><rect fill="#F1F1F1" height="35.7031" rx="12.5" ry="12.5" style="stroke:#181818;stroke-width:0.5;" width="152" x="392.5" y="1164.8945"/><text fill="#000000" font-family="sans-serif" font-size="12" lengthAdjust="spacing" textLength="132" x="402.5" y="1187.4102">[6-12] &#27425;&#12398;&#12503;&#12524;&#12452;&#12516;&#12540;&#12408;</text><polygon fill="#F1F1F1" points="468.5,915.5156,480.5,927.5156,468.5,939.5156,456.5,927.5156,468.5,915.5156" style="stroke:#181818;stroke-width:0.5;"/><polygon fill="#F1F1F1" points="413.5,1220.5977,523.5,1220.5977,535.5,1232.5977,523.5,1244.5977,413.5,1244.5977,401.5,1232.5977,413.5,1220.5977" style="stroke:#181818;stroke-width:0.5;"/><text fill="#000000" font-family="sans-serif" font-size="11" lengthAdjust="spacing" textLength="110" x="413.5" y="1236.873">&#20840;&#21729;&#12481;&#12455;&#12483;&#12463;&#12375;&#12383;&#12363;&#65311;</text><text fill="#000000" font-family="sans-serif" font-size="11" lengthAdjust="spacing" textLength="14" x="535.5" y="1229.6758">No</text><polygon fill="#F1F1F1" points="354,774.5195,583,774.5195,595,786.5195,583,798.5195,354,798.5195,342,786.5195,354,774.5195" style="stroke:#181818;stroke-width:0.5;"/><text fill="#000000" font-family="sans-serif" font-size="11" lengthAdjust="spacing" textLength="17" x="472.5" y="809.9922">Yes</text><text fill="#000000" font-family="sans-serif" font-size="11" lengthAdjust="spacing" textLength="229" x="354" y="790.7949">[6-8] &#12496;&#12483;&#12501;&#12449;&#12395;&#12522;&#12478;&#12523;&#12502;=&#12473;&#12486;&#12540;&#12472;&#12399;&#12354;&#12427;&#12363;&#65311;</text><text fill="#000000" font-family="sans-serif" font-size="11" lengthAdjust="spacing" textLength="17" x="325" y="783.5977">Yes</text><polygon fill="#F1F1F1" points="412,188.0469,525,188.0469,537,200.0469,525,212.0469,412,212.0469,400,200.0469,412,188.0469" style="stroke:#181818;stroke-width:0.5;"/><text fill="#000000" font-family="sans-serif" font-size="11" lengthAdjust="spacing" textLength="14" x="472.5" y="223.5195">No</text><text fill="#000000" font-family="sans-serif" font-size="11" lengthAdjust="spacing" textLength="113" x="412" y="204.3223">[6-2] &#12496;&#12483;&#12501;&#12449;&#12399;&#31354;&#12363;&#65311;</text><text fill="#000000" font-family="sans-serif" font-size="11" lengthAdjust="spacing" textLength="17" x="383" y="197.125">Yes</text><ellipse cx="24" cy="247.0469" fill="none" rx="11" ry="11" style="stroke:#222222;stroke-width:1.0;"/><ellipse cx="24" cy="247.0469" fill="#222222" rx="6" ry="6" style="stroke:#222222;stroke-width:1.0;"/><line style="stroke:#181818;stroke-width:1.0;" x1="468.5" x2="468.5" y1="30" y2="86.1719"/><polygon fill="#181818" points="464.5,76.1719,468.5,86.1719,472.5,76.1719,468.5,80.1719" style="stroke:#181818;stroke-width:1.0;"/><line style="stroke:#181818;stroke-width:1.0;" x1="468.5" x2="468.5" y1="528.1133" y2="563.1133"/><polygon fill="#181818" points="464.5,553.1133,468.5,563.1133,472.5,553.1133,468.5,557.1133" style="stroke:#181818;stroke-width:1.0;"/><line style="stroke:#181818;stroke-width:1.0;" x1="468.5" x2="468.5" y1="459.4375" y2="492.4102"/><polygon fill="#181818" points="464.5,482.4102,468.5,492.4102,472.5,482.4102,468.5,486.4102" style="stroke:#181818;stroke-width:1.0;"/><line style="stroke:#181818;stroke-width:1.0;" x1="468.5" x2="468.5" y1="598.8164" y2="608.8164"/><line style="stroke:#181818;stroke-width:1.0;" x1="468.5" x2="773.5" y1="608.8164" y2="608.8164"/><polygon fill="#181818" points="769.5,536.416,773.5,526.416,777.5,536.416,773.5,532.416" style="stroke:#181818;stroke-width:1.0;"/><line style="stroke:#181818;stroke-width:1.0;" x1="773.5" x2="773.5" y1="447.4375" y2="608.8164"/><line style="stroke:#181818;stroke-width:1.0;" x1="773.5" x2="600.5" y1="447.4375" y2="447.4375"/><polygon fill="#181818" points="610.5,443.4375,600.5,447.4375,610.5,451.4375,606.5,447.4375" style="stroke:#181818;stroke-width:1.0;"/><line style="stroke:#181818;stroke-width:1.0;" x1="336.5" x2="308.5" y1="447.4375" y2="447.4375"/><polygon fill="#181818" points="304.5,522.416,308.5,532.416,312.5,522.416,308.5,526.416" style="stroke:#181818;stroke-width:1.0;"/><line style="stroke:#181818;stroke-width:1.0;" x1="308.5" x2="308.5" y1="447.4375" y2="620.8164"/><line style="stroke:#181818;stroke-width:1.0;" x1="308.5" x2="468.5" y1="620.8164" y2="620.8164"/><line style="stroke:#181818;stroke-width:1.0;" x1="468.5" x2="468.5" y1="620.8164" y2="640.8164"/><polygon fill="#181818" points="464.5,630.8164,468.5,640.8164,472.5,630.8164,468.5,634.8164" style="stroke:#181818;stroke-width:1.0;"/><line style="stroke:#181818;stroke-width:1.0;" x1="468.5" x2="468.5" y1="415.4375" y2="435.4375"/><polygon fill="#181818" points="464.5,425.4375,468.5,435.4375,472.5,425.4375,468.5,429.4375" style="stroke:#181818;stroke-width:1.0;"/><line style="stroke:#181818;stroke-width:1.0;" x1="535.5" x2="785.5" y1="708.5195" y2="708.5195"/><polygon fill="#181818" points="781.5,571.7676,785.5,561.7676,789.5,571.7676,785.5,567.7676" style="stroke:#181818;stroke-width:1.0;"/><line style="stroke:#181818;stroke-width:1.0;" x1="785.5" x2="785.5" y1="403.4375" y2="708.5195"/><line style="stroke:#181818;stroke-width:1.0;" x1="785.5" x2="480.5" y1="403.4375" y2="403.4375"/><polygon fill="#181818" points="490.5,399.4375,480.5,403.4375,490.5,407.4375,486.5,403.4375" style="stroke:#181818;stroke-width:1.0;"/><line style="stroke:#181818;stroke-width:1.0;" x1="468.5" x2="468.5" y1="676.5195" y2="696.5195"/><polygon fill="#181818" points="464.5,686.5195,468.5,696.5195,472.5,686.5195,468.5,690.5195" style="stroke:#181818;stroke-width:1.0;"/><line style="stroke:#181818;stroke-width:1.0;" x1="468.5" x2="468.5" y1="371.4375" y2="391.4375"/><polygon fill="#181818" points="464.5,381.4375,468.5,391.4375,472.5,381.4375,468.5,385.4375" style="stroke:#181818;stroke-width:1.0;"/><line style="stroke:#181818;stroke-width:1.0;" x1="468.5" x2="468.5" y1="274.4414" y2="335.7344"/><polygon fill="#181818" points="464.5,325.7344,468.5,335.7344,472.5,325.7344,468.5,329.7344" style="stroke:#181818;stroke-width:1.0;"/><line style="stroke:#181818;stroke-width:1.0;" x1="468.5" x2="468.5" y1="720.5195" y2="742.5195"/><line style="stroke:#181818;stroke-width:1.0;" x1="468.5" x2="819.5" y1="742.5195" y2="742.5195"/><polygon fill="#181818" points="815.5,508.0586,819.5,498.0586,823.5,508.0586,819.5,504.0586" style="stroke:#181818;stroke-width:1.0;"/><line style="stroke:#181818;stroke-width:1.0;" x1="819.5" x2="819.5" y1="262.4414" y2="742.5195"/><line style="stroke:#181818;stroke-width:1.0;" x1="819.5" x2="584" y1="262.4414" y2="262.4414"/><polygon fill="#181818" points="594,258.4414,584,262.4414,594,266.4414,590,262.4414" style="stroke:#181818;stroke-width:1.0;"/><line style="stroke:#181818;stroke-width:1.0;" x1="353" x2="64.5" y1="262.4414" y2="262.4414"/><polygon fill="#181818" points="60.5,494.0586,64.5,504.0586,68.5,494.0586,64.5,498.0586" style="stroke:#181818;stroke-width:1.0;"/><line style="stroke:#181818;stroke-width:1.0;" x1="64.5" x2="64.5" y1="262.4414" y2="754.5195"/><line style="stroke:#181818;stroke-width:1.0;" x1="64.5" x2="468.5" y1="754.5195" y2="754.5195"/><line style="stroke:#181818;stroke-width:1.0;" x1="468.5" x2="468.5" y1="754.5195" y2="774.5195"/><polygon fill="#181818" points="464.5,764.5195,468.5,774.5195,472.5,764.5195,468.5,768.5195" style="stroke:#181818;stroke-width:1.0;"/><line style="stroke:#181818;stroke-width:1.0;" x1="468.5" x2="468.5" y1="1052.1914" y2="1087.1914"/><polygon fill="#181818" points="464.5,1077.1914,468.5,1087.1914,472.5,1077.1914,468.5,1081.1914" style="stroke:#181818;stroke-width:1.0;"/><line style="stroke:#181818;stroke-width:1.0;" x1="468.5" x2="468.5" y1="983.5156" y2="1016.4883"/><polygon fill="#181818" points="464.5,1006.4883,468.5,1016.4883,472.5,1006.4883,468.5,1010.4883" style="stroke:#181818;stroke-width:1.0;"/><line style="stroke:#181818;stroke-width:1.0;" x1="468.5" x2="468.5" y1="1122.8945" y2="1132.8945"/><line style="stroke:#181818;stroke-width:1.0;" x1="468.5" x2="789" y1="1132.8945" y2="1132.8945"/><polygon fill="#181818" points="785,1060.4941,789,1050.4941,793,1060.4941,789,1056.4941" style="stroke:#181818;stroke-width:1.0;"/><line style="stroke:#181818;stroke-width:1.0;" x1="789" x2="789" y1="971.5156" y2="1132.8945"/><line style="stroke:#181818;stroke-width:1.0;" x1="789" x2="611.5" y1="971.5156" y2="971.5156"/><polygon fill="#181818" points="621.5,967.5156,611.5,971.5156,621.5,975.5156,617.5,971.5156" style="stroke:#181818;stroke-width:1.0;"/><line style="stroke:#181818;stroke-width:1.0;" x1="325.5" x2="293" y1="971.5156" y2="971.5156"/><polygon fill="#181818" points="289,1046.4941,293,1056.4941,297,1046.4941,293,1050.4941" style="stroke:#181818;stroke-width:1.0;"/><line style="stroke:#181818;stroke-width:1.0;" x1="293" x2="293" y1="971.5156" y2="1144.8945"/><line style="stroke:#181818;stroke-width:1.0;" x1="293" x2="468.5" y1="1144.8945" y2="1144.8945"/><line style="stroke:#181818;stroke-width:1.0;" x1="468.5" x2="468.5" y1="1144.8945" y2="1164.8945"/><polygon fill="#181818" points="464.5,1154.8945,468.5,1164.8945,472.5,1154.8945,468.5,1158.8945" style="stroke:#181818;stroke-width:1.0;"/><line style="stroke:#181818;stroke-width:1.0;" x1="468.5" x2="468.5" y1="939.5156" y2="959.5156"/><polygon fill="#181818" points="464.5,949.5156,468.5,959.5156,472.5,949.5156,468.5,953.5156" style="stroke:#181818;stroke-width:1.0;"/><line style="stroke:#181818;stroke-width:1.0;" x1="535.5" x2="801" y1="1232.5977" y2="1232.5977"/><polygon fill="#181818" points="797,1095.8457,801,1085.8457,805,1095.8457,801,1091.8457" style="stroke:#181818;stroke-width:1.0;"/><line style="stroke:#181818;stroke-width:1.0;" x1="801" x2="801" y1="927.5156" y2="1232.5977"/><line style="stroke:#181818;stroke-width:1.0;" x1="801" x2="480.5" y1="927.5156" y2="927.5156"/><polygon fill="#181818" points="490.5,923.5156,480.5,927.5156,490.5,931.5156,486.5,927.5156" style="stroke:#181818;stroke-width:1.0;"/><line style="stroke:#181818;stroke-width:1.0;" x1="468.5" x2="468.5" y1="1200.5977" y2="1220.5977"/><polygon fill="#181818" points="464.5,1210.5977,468.5,1220.5977,472.5,1210.5977,468.5,1214.5977" style="stroke:#181818;stroke-width:1.0;"/><line style="stroke:#181818;stroke-width:1.0;" x1="468.5" x2="468.5" y1="895.5156" y2="915.5156"/><polygon fill="#181818" points="464.5,905.5156,468.5,915.5156,472.5,905.5156,468.5,909.5156" style="stroke:#181818;stroke-width:1.0;"/><line style="stroke:#181818;stroke-width:1.0;" x1="468.5" x2="468.5" y1="798.5195" y2="859.8125"/><polygon fill="#181818" points="464.5,849.8125,468.5,859.8125,472.5,849.8125,468.5,853.8125" style="stroke:#181818;stroke-width:1.0;"/><line style="stroke:#181818;stroke-width:1.0;" x1="468.5" x2="468.5" y1="1244.5977" y2="1266.5977"/><line style="stroke:#181818;stroke-width:1.0;" x1="468.5" x2="835" y1="1266.5977" y2="1266.5977"/><polygon fill="#181818" points="831,1032.1367,835,1022.1367,839,1032.1367,835,1028.1367" style="stroke:#181818;stroke-width:1.0;"/><line style="stroke:#181818;stroke-width:1.0;" x1="835" x2="835" y1="786.5195" y2="1266.5977"/><line style="stroke:#181818;stroke-width:1.0;" x1="835" x2="595" y1="786.5195" y2="786.5195"/><polygon fill="#181818" points="605,782.5195,595,786.5195,605,790.5195,601,786.5195" style="stroke:#181818;stroke-width:1.0;"/><line style="stroke:#181818;stroke-width:1.0;" x1="342" x2="49" y1="786.5195" y2="786.5195"/><polygon fill="#181818" points="45,1018.1367,49,1028.1367,53,1018.1367,49,1022.1367" style="stroke:#181818;stroke-width:1.0;"/><line style="stroke:#181818;stroke-width:1.0;" x1="49" x2="49" y1="786.5195" y2="1278.5977"/><line style="stroke:#181818;stroke-width:1.0;" x1="49" x2="847" y1="1278.5977" y2="1278.5977"/><line style="stroke:#181818;stroke-width:1.0;" x1="847" x2="847" y1="200.0469" y2="1278.5977"/><line style="stroke:#181818;stroke-width:1.0;" x1="847" x2="537" y1="200.0469" y2="200.0469"/><polygon fill="#181818" points="547,196.0469,537,200.0469,547,204.0469,543,200.0469" style="stroke:#181818;stroke-width:1.0;"/><line style="stroke:#181818;stroke-width:1.0;" x1="468.5" x2="468.5" y1="212.0469" y2="250.4414"/><polygon fill="#181818" points="464.5,240.4414,468.5,250.4414,472.5,240.4414,468.5,244.4414" style="stroke:#181818;stroke-width:1.0;"/><line style="stroke:#181818;stroke-width:1.0;" x1="400" x2="24" y1="200.0469" y2="200.0469"/><line style="stroke:#181818;stroke-width:1.0;" x1="24" x2="24" y1="200.0469" y2="236.0469"/><polygon fill="#181818" points="20,226.0469,24,236.0469,28,226.0469,24,230.0469" style="stroke:#181818;stroke-width:1.0;"/><line style="stroke:#181818;stroke-width:1.0;" x1="468.5" x2="468.5" y1="121.875" y2="188.0469"/><polygon fill="#181818" points="464.5,178.0469,468.5,188.0469,472.5,178.0469,468.5,182.0469" style="stroke:#181818;stroke-width:1.0;"/><!--SRC=[tLHTRn9157tVNp5lb8UcKhKgX9-WxyRmGD9D8L4WiCQNFZ0pIlcg0PiMiKa1nV9LYv6OLeNsmPzo7IXF_0LdPc5PjeMYIINnXcmMkFVSC-VUCpRtp51i4CqyzFe3w9cg-OBh4CqEsd4Wxu4qWPm0hG1jiNYiNpe0-WDe3kWHa39G_cbtcw_Prc4l4nkq4uhjcaQRfYwRIaJpXZN5-MHjsU515_MtlVntm3d01Kjh86-6tVc_D0EK0jq5KWBSk3Zli6JHfGI2ceh2_WsVfY0U44spxLOtJrQ0V0CQupo1dAAVEGIq9ActLcI7iW3ZBz5jm1MzYQ86rf70iuBEOeYFWRJ42uq3_IJQqPfuugPU-lM4xHS1Lm7N0N-O0b2NTKd-r0-16oAT906V0Sv3b8ofAIzy_gSgMkBQhNhGf2ZDNespJ0tQ1JloHz3Iew0TSK0ROkMzFgq2RSW-kK7xdKNDNnt-ak2raew5OBfxd9BS3m6_19BgvpEScpvxGO-a5D5bUVuGwNppz4b9DjRDufo63QBPFmSVQtJRgX6NW2jx9hNOS-iCk7A02J-7MRp7QiIko75iX8FFGqXFTQ8PN6Msd18QHhyOw-tM1JuvbzgtBEL2Sf8myiTfECts3uJOnPZOzb8Qi8u_tWIzn3aRkh-NOfMKQvGTLaEgLpFwZOMwmurO-y8wEvTGhbOiFKKnP8ImzrsFF980AqW_VtORFkIhDWIxR7effyi4Pd7aA5ZyenYiD1xBSh8jjYMCQaeoz9fajdO5C_Ezi21o_8VXJBXv5JFXUnxKFIe9Vre7TEgQ6EvegEnLbUsKW68WbT6Xv0qsUKCOIoNNNB5I-3jdco_V6_Nt_Td-DlEOo-NcWl_Mwm_czFgaUlCvtd5hjkKdC1TXV8VZMkSlaEDq_pjM__q5eBl3yZsY1KE_0G00]--></g></svg>